<svg xmlns="http://www.w3.org/2000/svg" xmlns:xlink="http://www.w3.org/1999/xlink" width="113" height="113" viewBox="0 0 113 113">
  <defs>
    <filter id="Trazado_982547" x="0" y="0" width="113" height="113" filterUnits="userSpaceOnUse">
      <feOffset dy="3" input="SourceAlpha"/>
      <feGaussianBlur stdDeviation="3" result="blur"/>
      <feFlood flood-opacity="0.161"/>
      <feComposite operator="in" in2="blur"/>
      <feComposite in="SourceGraphic"/>
    </filter>
  </defs>
  <g id="Grupo_1165769" data-name="Grupo 1165769" transform="translate(-192.895 -4713.012)">
    <g id="Grupo_1165349" data-name="Grupo 1165349" transform="translate(201.895 4719.012)">
      <g id="Grupo_1163948" data-name="Grupo 1163948">
        <g id="Grupo_1158168" data-name="Grupo 1158168">
          <g id="Grupo_1152576" data-name="Grupo 1152576">
            <g id="Grupo_1148633" data-name="Grupo 1148633">
              <g id="Grupo_1148525" data-name="Grupo 1148525">
                <g transform="matrix(1, 0, 0, 1, -9, -6)" filter="url(#Trazado_982547)">
                  <g id="Trazado_982547-2" data-name="Trazado 982547" transform="translate(9 6)" fill="#e9f9fd">
                    <path d="M 47.5 93.5 C 41.28937149047852 93.5 35.26533508300781 92.28397369384766 29.59518623352051 89.88570404052734 C 24.11771965026855 87.56893157958984 19.19813346862793 84.25196075439453 14.97309303283691 80.02691650390625 C 10.74804019927979 75.80186462402344 7.431066513061523 70.88229370117188 5.114293098449707 65.40481567382812 C 2.716026782989502 59.73468017578125 1.5 53.71062850952148 1.5 47.5 C 1.5 41.28937149047852 2.716026782989502 35.26533508300781 5.114293098449707 29.59518623352051 C 7.431066513061523 24.11771965026855 10.74804019927979 19.19813346862793 14.97309303283691 14.97309303283691 C 19.19813346862793 10.74804019927979 24.11771965026855 7.431066513061523 29.59518623352051 5.114293098449707 C 35.26533508300781 2.716026782989502 41.28937149047852 1.5 47.5 1.5 C 53.71062850952148 1.5 59.73468017578125 2.716026782989502 65.40481567382812 5.114293098449707 C 70.88229370117188 7.431066513061523 75.80186462402344 10.74804019927979 80.02691650390625 14.97309303283691 C 84.25196075439453 19.19813346862793 87.56893157958984 24.11771965026855 89.88570404052734 29.59518623352051 C 92.28397369384766 35.26533508300781 93.5 41.28937149047852 93.5 47.5 C 93.5 53.71062850952148 92.28397369384766 59.73468017578125 89.88570404052734 65.40481567382812 C 87.56893157958984 70.88229370117188 84.25196075439453 75.80186462402344 80.02691650390625 80.02691650390625 C 75.80186462402344 84.25196075439453 70.88229370117188 87.56893157958984 65.40481567382812 89.88570404052734 C 59.73468017578125 92.28397369384766 53.71062850952148 93.5 47.5 93.5 Z" stroke="none"/>
                    <path d="M 47.5 3 C 41.49121475219727 3 35.66376876831055 4.176155090332031 30.17950439453125 6.495796203613281 C 24.88084411621094 8.736953735351562 20.12152099609375 11.94598388671875 16.03375244140625 16.03375244140625 C 11.94598388671875 20.12152099609375 8.736953735351562 24.88084411621094 6.495796203613281 30.17950439453125 C 4.176155090332031 35.66376876831055 3 41.49121475219727 3 47.5 C 3 53.50878524780273 4.176155090332031 59.33623123168945 6.495796203613281 64.82049560546875 C 8.736953735351562 70.11915588378906 11.94598388671875 74.87847900390625 16.03375244140625 78.96624755859375 C 20.12152099609375 83.05401611328125 24.88084411621094 86.26304626464844 30.17950439453125 88.50419616699219 C 35.66376876831055 90.82384490966797 41.49121475219727 92 47.5 92 C 53.50878524780273 92 59.33623123168945 90.82384490966797 64.82049560546875 88.50419616699219 C 70.11915588378906 86.26304626464844 74.87847900390625 83.05401611328125 78.96624755859375 78.96624755859375 C 83.05401611328125 74.87847900390625 86.26304626464844 70.11915588378906 88.50419616699219 64.82049560546875 C 90.82384490966797 59.33623123168945 92 53.50878524780273 92 47.5 C 92 41.49121475219727 90.82384490966797 35.66376876831055 88.50419616699219 30.17950439453125 C 86.26304626464844 24.88084411621094 83.05401611328125 20.12152099609375 78.96624755859375 16.03375244140625 C 74.87847900390625 11.94598388671875 70.11915588378906 8.736953735351562 64.82049560546875 6.495796203613281 C 59.33623123168945 4.176155090332031 53.50878524780273 3 47.5 3 M 47.5 0 C 73.7335205078125 0 95 21.2664794921875 95 47.5 C 95 73.7335205078125 73.7335205078125 95 47.5 95 C 21.2664794921875 95 0 73.7335205078125 0 47.5 C 0 21.2664794921875 21.2664794921875 0 47.5 0 Z" stroke="none" fill="#36ceef"/>
                  </g>
                </g>
              </g>
            </g>
          </g>
        </g>
      </g>
    </g>
    <g id="impact_15576829" transform="translate(218.323 4735.577)">
      <g id="Color" transform="translate(2.52 2.52)">
        <path id="Trazado_1001204" data-name="Trazado 1001204" d="M58.835,26.409l-4.65-1.366a24.99,24.99,0,0,0-3-7.342l1.876-3.467h-6.2v-6.2L43.4,9.91a24.987,24.987,0,0,0-7.342-3l-1.366-4.65a33.08,33.08,0,0,0-8.28,0l-1.366,4.65a24.987,24.987,0,0,0-7.342,3L14.234,8.034v6.2h-6.2L9.91,17.7a24.99,24.99,0,0,0-3,7.342l-4.65,1.366a33.09,33.09,0,0,0,0,8.28l4.65,1.366a24.991,24.991,0,0,0,3,7.342L8.034,46.864h6.2v6.2L17.7,51.187a24.986,24.986,0,0,0,7.342,3l1.366,4.65a33.092,33.092,0,0,0,8.28,0l1.366-4.65a24.986,24.986,0,0,0,7.342-3l3.467,1.876v-6.2h6.2L51.187,43.4a24.991,24.991,0,0,0,3-7.342l4.65-1.366a33.09,33.09,0,0,0,0-8.28ZM30.549,48.9A18.354,18.354,0,1,1,48.9,30.549,18.356,18.356,0,0,1,30.549,48.9Z" transform="translate(-1.997 -1.997)" fill="#43b3ff" fill-rule="evenodd"/>
        <g id="Grupo_1165768" data-name="Grupo 1165768">
          <path id="Trazado_1001205" data-name="Trazado 1001205" d="M14.236,24v6.118l-.184.183L8.118,36.236,2,30.118l5.935-5.935L8.118,24Z" transform="translate(-2 20.866)" fill="#f45151" fill-rule="evenodd"/>
          <path id="Trazado_1001206" data-name="Trazado 1001206" d="M36.236,30.118l-6.118,6.118L24.184,30.3,24,30.118V24h6.118l.184.183Z" transform="translate(20.866 20.866)" fill="#f45151" fill-rule="evenodd"/>
          <path id="Trazado_1001207" data-name="Trazado 1001207" d="M36.236,8.118l-6.118,6.118H24V8.118L30.118,2Z" transform="translate(20.866 -2)" fill="#f45151" fill-rule="evenodd"/>
          <path id="Trazado_1001208" data-name="Trazado 1001208" d="M14.236,8.118v6.118H8.118L2,8.118,8.118,2Z" transform="translate(-2 -2)" fill="#f45151" fill-rule="evenodd"/>
        </g>
        <path id="Trazado_1001209" data-name="Trazado 1001209" d="M25.236,14V26.236H13V18.079L17.079,14l4.079,4.079Z" transform="translate(9.433 10.473)" fill="#ffc943" fill-rule="evenodd"/>
      </g>
      <g id="Line" transform="translate(1.5 1.5)">
        <path id="Trazado_1001210" data-name="Trazado 1001210" d="M27.876,2.5a1.019,1.019,0,0,0-.848-.726,33.159,33.159,0,0,0-8.544,0,1.02,1.02,0,0,0-.849.726L16.444,6.575a25.053,25.053,0,0,0-4.31,1.531q-1.078.5-2.113,1.077a1.02,1.02,0,1,0,1,1.778c.64-.358,1.3-.7,1.966-1a22.586,22.586,0,0,1,4.493-1.534,1.019,1.019,0,0,0,.758-.71l1.168-4a31.2,31.2,0,0,1,6.707,0l1.167,4a1.018,1.018,0,0,0,.757.71,23.8,23.8,0,0,1,6.459,2.535,1.024,1.024,0,0,0,.5.13,1.02,1.02,0,0,0,.5-1.909,26.256,26.256,0,0,0-6.425-2.608L27.876,2.5Z" transform="translate(6.815 -1.5)"/>
        <path id="Trazado_1001211" data-name="Trazado 1001211" d="M2.5,27.878l4.073,1.191a25.053,25.053,0,0,0,1.531,4.31q.5,1.078,1.077,2.113a1.02,1.02,0,1,0,1.778-1c-.358-.64-.7-1.3-1-1.966a22.586,22.586,0,0,1-1.534-4.493,1.019,1.019,0,0,0-.71-.758l-4-1.168a31.062,31.062,0,0,1,0-6.706l4-1.168a1.019,1.019,0,0,0,.71-.758,23.826,23.826,0,0,1,2.535-6.46,1.02,1.02,0,0,0-1.778-1,26.257,26.257,0,0,0-2.608,6.424L2.5,17.635a1.02,1.02,0,0,0-.726.849,33.159,33.159,0,0,0,0,8.544,1.02,1.02,0,0,0,.726.849Z" transform="translate(-1.5 6.815)"/>
        <path id="Trazado_1001212" data-name="Trazado 1001212" d="M27.877,34.387l1.191-4.073a25.083,25.083,0,0,0,4.31-1.531q1.081-.5,2.113-1.077a1.019,1.019,0,1,0-1-1.778c-.641.358-1.3.7-1.966,1a22.646,22.646,0,0,1-4.495,1.534,1.018,1.018,0,0,0-.757.71l-1.167,4a31.2,31.2,0,0,1-6.707,0l-1.168-4a1.019,1.019,0,0,0-.758-.71,23.826,23.826,0,0,1-6.46-2.535,1.02,1.02,0,1,0-1,1.778,26.257,26.257,0,0,0,6.424,2.608l1.191,4.073a1.02,1.02,0,0,0,.849.726,33.1,33.1,0,0,0,8.544,0,1.019,1.019,0,0,0,.848-.726Z" transform="translate(6.815 23.754)"/>
        <path id="Trazado_1001213" data-name="Trazado 1001213" d="M34.389,17.635l-4.075-1.191a25.1,25.1,0,0,0-1.532-4.31c-.329-.719-.691-1.425-1.075-2.113a1.02,1.02,0,0,0-1.78,1q.541.96,1,1.965a22.532,22.532,0,0,1,1.534,4.494,1.022,1.022,0,0,0,.709.758l4,1.168a30.935,30.935,0,0,1,0,6.706l-4,1.168a1.022,1.022,0,0,0-.709.758,23.878,23.878,0,0,1-2.533,6.46,1.019,1.019,0,1,0,1.776,1,26.237,26.237,0,0,0,2.609-6.424l4.075-1.191a1.02,1.02,0,0,0,.725-.849,33.159,33.159,0,0,0,0-8.544,1.02,1.02,0,0,0-.725-.849Z" transform="translate(23.754 6.815)"/>
        <path id="Trazado_1001214" data-name="Trazado 1001214" d="M25.874,6.5A19.12,19.12,0,0,0,15.536,9.516a1.019,1.019,0,0,0,1.1,1.717,17.09,17.09,0,0,1,9.239-2.694A17.335,17.335,0,1,1,8.539,25.874a17.09,17.09,0,0,1,2.694-9.239,1.019,1.019,0,1,0-1.717-1.1A19.12,19.12,0,0,0,6.5,25.874,19.374,19.374,0,1,0,25.874,6.5Z" transform="translate(3.697 3.697)"/>
        <path id="Trazado_1001215" data-name="Trazado 1001215" d="M1.8,31.359a1.019,1.019,0,0,0,1.442,0L9.06,25.539h4.676v4.676L7.917,36.035a1.02,1.02,0,1,0,1.442,1.442l4.448-4.448a1.015,1.015,0,0,0,1.969-.351V24.52a1.019,1.019,0,0,0-1.02-1.02H6.6a1.015,1.015,0,0,0-.351,1.969L1.8,29.917a1.019,1.019,0,0,0,0,1.442Z" transform="translate(-1.499 21.367)"/>
        <path id="Trazado_1001216" data-name="Trazado 1001216" d="M33.029,25.469a1.015,1.015,0,0,0-.351-1.969H24.52a1.019,1.019,0,0,0-1.02,1.02v8.158a1.015,1.015,0,0,0,1.969.351l4.448,4.448a1.02,1.02,0,1,0,1.442-1.442l-5.819-5.819V25.539h4.676l5.819,5.819a1.02,1.02,0,0,0,1.442-1.442Z" transform="translate(21.367 21.367)"/>
        <path id="Trazado_1001217" data-name="Trazado 1001217" d="M37.477,7.917a1.019,1.019,0,0,0-1.442,0l-5.819,5.819H25.539V9.06l5.819-5.819A1.02,1.02,0,1,0,29.917,1.8L25.469,6.247A1.015,1.015,0,0,0,23.5,6.6v8.158a1.019,1.019,0,0,0,1.02,1.02h8.158a1.015,1.015,0,0,0,.351-1.969l4.448-4.448a1.019,1.019,0,0,0,0-1.442Z" transform="translate(21.367 -1.5)"/>
        <path id="Trazado_1001218" data-name="Trazado 1001218" d="M6.247,13.807A1.015,1.015,0,0,0,6.6,15.776h8.158a1.019,1.019,0,0,0,1.02-1.02V6.6a1.015,1.015,0,0,0-1.969-.351L9.359,1.8A1.02,1.02,0,0,0,7.917,3.241L13.736,9.06v4.676H9.06L3.241,7.917A1.02,1.02,0,0,0,1.8,9.359Z" transform="translate(-1.499 -1.499)"/>
        <path id="Trazado_1001219" data-name="Trazado 1001219" d="M27.113,15.879l-3.357,3.357-1.317-1.317,0,0L20.4,15.877a1.019,1.019,0,0,0-1.442,0l-4.078,4.078,0,0L10.8,24.035a1.02,1.02,0,1,0,1.442,1.442l2.338-2.338v4.676H11.52a1.02,1.02,0,1,0,0,2.039H31.913a1.02,1.02,0,1,0,0-2.039H28.854V17.021l2.039-2.039V16.6a1.02,1.02,0,1,0,2.039,0V12.52a1.023,1.023,0,0,0-1.02-1.02H27.835a1.02,1.02,0,1,0,0,2.039h1.617l-2.337,2.337,0,0ZM16.618,21.1l3.059-3.059,1.02,1.02v8.755H16.618Zm10.2,6.716H22.736V21.1l.3.3a1.019,1.019,0,0,0,1.442,0l2.338-2.338Z" transform="translate(7.855 8.894)"/>
        <path id="Trazado_1001220" data-name="Trazado 1001220" d="M9.435,10.877a1.02,1.02,0,1,0,0-1.442A1.02,1.02,0,0,0,9.435,10.877Z" transform="translate(6.437 6.437)"/>
      </g>
    </g>
  </g>
</svg>
