<svg xmlns="http://www.w3.org/2000/svg" xmlns:xlink="http://www.w3.org/1999/xlink" width="113" height="113" viewBox="0 0 113 113">
  <defs>
    <filter id="Trazado_982547" x="0" y="0" width="113" height="113" filterUnits="userSpaceOnUse">
      <feOffset dy="3" input="SourceAlpha"/>
      <feGaussianBlur stdDeviation="3" result="blur"/>
      <feFlood flood-opacity="0.161"/>
      <feComposite operator="in" in2="blur"/>
      <feComposite in="SourceGraphic"/>
    </filter>
  </defs>
  <g id="Grupo_1165771" data-name="Grupo 1165771" transform="translate(-612.395 -4713)">
    <g id="Grupo_1165348" data-name="Grupo 1165348" transform="translate(621.395 4719)">
      <g id="Grupo_1163948" data-name="Grupo 1163948">
        <g id="Grupo_1158168" data-name="Grupo 1158168">
          <g id="Grupo_1152576" data-name="Grupo 1152576">
            <g id="Grupo_1148633" data-name="Grupo 1148633">
              <g id="Grupo_1148525" data-name="Grupo 1148525">
                <g transform="matrix(1, 0, 0, 1, -9, -6)" filter="url(#Trazado_982547)">
                  <g id="Trazado_982547-2" data-name="Trazado 982547" transform="translate(9 6)" fill="#e9f9fd">
                    <path d="M 47.5 93.5 C 41.28937149047852 93.5 35.26533508300781 92.28397369384766 29.59518623352051 89.88570404052734 C 24.11771965026855 87.56893157958984 19.19813346862793 84.25196075439453 14.97309303283691 80.02691650390625 C 10.74804019927979 75.80186462402344 7.431066513061523 70.88229370117188 5.114293098449707 65.40481567382812 C 2.716026782989502 59.73468017578125 1.5 53.71062850952148 1.5 47.5 C 1.5 41.28937149047852 2.716026782989502 35.26533508300781 5.114293098449707 29.59518623352051 C 7.431066513061523 24.11771965026855 10.74804019927979 19.19813346862793 14.97309303283691 14.97309303283691 C 19.19813346862793 10.74804019927979 24.11771965026855 7.431066513061523 29.59518623352051 5.114293098449707 C 35.26533508300781 2.716026782989502 41.28937149047852 1.5 47.5 1.5 C 53.71062850952148 1.5 59.73468017578125 2.716026782989502 65.40481567382812 5.114293098449707 C 70.88229370117188 7.431066513061523 75.80186462402344 10.74804019927979 80.02691650390625 14.97309303283691 C 84.25196075439453 19.19813346862793 87.56893157958984 24.11771965026855 89.88570404052734 29.59518623352051 C 92.28397369384766 35.26533508300781 93.5 41.28937149047852 93.5 47.5 C 93.5 53.71062850952148 92.28397369384766 59.73468017578125 89.88570404052734 65.40481567382812 C 87.56893157958984 70.88229370117188 84.25196075439453 75.80186462402344 80.02691650390625 80.02691650390625 C 75.80186462402344 84.25196075439453 70.88229370117188 87.56893157958984 65.40481567382812 89.88570404052734 C 59.73468017578125 92.28397369384766 53.71062850952148 93.5 47.5 93.5 Z" stroke="none"/>
                    <path d="M 47.5 3 C 41.49121475219727 3 35.66376876831055 4.176155090332031 30.17950439453125 6.495796203613281 C 24.88084411621094 8.736953735351562 20.12152099609375 11.94598388671875 16.03375244140625 16.03375244140625 C 11.94598388671875 20.12152099609375 8.736953735351562 24.88084411621094 6.495796203613281 30.17950439453125 C 4.176155090332031 35.66376876831055 3 41.49121475219727 3 47.5 C 3 53.50878524780273 4.176155090332031 59.33623123168945 6.495796203613281 64.82049560546875 C 8.736953735351562 70.11915588378906 11.94598388671875 74.87847900390625 16.03375244140625 78.96624755859375 C 20.12152099609375 83.05401611328125 24.88084411621094 86.26304626464844 30.17950439453125 88.50419616699219 C 35.66376876831055 90.82384490966797 41.49121475219727 92 47.5 92 C 53.50878524780273 92 59.33623123168945 90.82384490966797 64.82049560546875 88.50419616699219 C 70.11915588378906 86.26304626464844 74.87847900390625 83.05401611328125 78.96624755859375 78.96624755859375 C 83.05401611328125 74.87847900390625 86.26304626464844 70.11915588378906 88.50419616699219 64.82049560546875 C 90.82384490966797 59.33623123168945 92 53.50878524780273 92 47.5 C 92 41.49121475219727 90.82384490966797 35.66376876831055 88.50419616699219 30.17950439453125 C 86.26304626464844 24.88084411621094 83.05401611328125 20.12152099609375 78.96624755859375 16.03375244140625 C 74.87847900390625 11.94598388671875 70.11915588378906 8.736953735351562 64.82049560546875 6.495796203613281 C 59.33623123168945 4.176155090332031 53.50878524780273 3 47.5 3 M 47.5 0 C 73.7335205078125 0 95 21.2664794921875 95 47.5 C 95 73.7335205078125 73.7335205078125 95 47.5 95 C 21.2664794921875 95 0 73.7335205078125 0 47.5 C 0 21.2664794921875 21.2664794921875 0 47.5 0 Z" stroke="none" fill="#36ceef"/>
                  </g>
                </g>
              </g>
            </g>
          </g>
        </g>
      </g>
    </g>
    <g id="achievement_3484542" transform="translate(642 4734.001)">
      <path id="Trazado_1001221" data-name="Trazado 1001221" d="M36,8V22H62l-6-7,6-7Z" fill="#b52f28"/>
      <path id="Trazado_1001222" data-name="Trazado 1001222" d="M27,30V4a2,2,0,1,0-4,0V30" fill="#ccc"/>
      <path id="Trazado_1001223" data-name="Trazado 1001223" d="M28,46V30H22V42h1a2,2,0,0,1,2,2v2Z" fill="#b52f28"/>
      <path id="Trazado_1001224" data-name="Trazado 1001224" d="M11,46h3l4-4h5a2,2,0,0,1,2,2v2h6a2,2,0,0,1,2,2V60a2,2,0,0,1-2,2H18l-4-2H11Z" fill="#fbe1ca"/>
      <path id="Trazado_1001225" data-name="Trazado 1001225" d="M2,44h9V62H2Z" fill="#3b5892"/>
      <g id="Grupo_1165770" data-name="Grupo 1165770">
        <path id="Trazado_1001226" data-name="Trazado 1001226" d="M25,53h8v2H25Z" fill="#f2b9a1"/>
        <path id="Trazado_1001227" data-name="Trazado 1001227" d="M25,49h8v2H25Z" fill="#f2b9a1"/>
        <path id="Trazado_1001228" data-name="Trazado 1001228" d="M16,53V51a4,4,0,0,0,4-4V46h2v1A6.006,6.006,0,0,1,16,53Z" fill="#f2b9a1"/>
        <path id="Trazado_1001229" data-name="Trazado 1001229" d="M33,59H23a2,2,0,0,1-2-2V51h2v6H33Z" fill="#f2b9a1"/>
      </g>
      <path id="Trazado_1001230" data-name="Trazado 1001230" d="M27,4H52V18H27" fill="#d23f34"/>
      <path id="Trazado_1001231" data-name="Trazado 1001231" d="M28,46l7-7,7,7L57,31l2,2V26H52l2,2L42,40l-7-7-7,7" fill="#f0ae42"/>
      <path id="Trazado_1001232" data-name="Trazado 1001232" d="M11,14a6,6,0,0,1,6-6,6,6,0,0,1-6-6A6,6,0,0,1,5,8a6,6,0,0,1,6,6Z" fill="#f9d266"/>
      <path id="Trazado_1001233" data-name="Trazado 1001233" d="M56,52a6,6,0,0,1,6-6,6,6,0,0,1-6-6,6,6,0,0,1-6,6,6,6,0,0,1,6,6Z" fill="#f9d266"/>
      <path id="Trazado_1001234" data-name="Trazado 1001234" d="M2,59.684a17.445,17.445,0,0,0,9-4.7V44H2Z" fill="#4c6cb5"/>
      <path id="Trazado_1001235" data-name="Trazado 1001235" d="M58.292,33.707A1,1,0,0,0,60,33V26a1,1,0,0,0-1-1H52a1,1,0,0,0-.708,1.706L52.585,28,42,38.585l-6.293-6.293a1,1,0,0,0-1.415,0L29,37.584V30a1,1,0,0,0-1-1V19h7v3a1,1,0,0,0,1,1H62a1,1,0,0,0,.759-1.65L57.317,15l5.442-6.35A1,1,0,0,0,62,7H53V4a1,1,0,0,0-1-1H27.815A2.992,2.992,0,0,0,22,4V29a1,1,0,0,0-1,1V41H18a1,1,0,0,0-.708.292L13.585,45H12V44a1,1,0,0,0-1-1H2a1,1,0,0,0-1,1V62a1,1,0,0,0,1,1h9a1,1,0,0,0,1-1V61h1.764l3.789,1.9A1,1,0,0,0,18,63H31a3,3,0,0,0,3-3V48a3,3,0,0,0-3-3h-.585L35,40.414l6.292,6.293a1,1,0,0,0,1.415,0L57,32.414ZM10,61H3V45h7ZM53,18V9h6.827l-4.585,5.349a1,1,0,0,0,0,1.3L59.826,21H37V19H52A1,1,0,0,0,53,18Zm-2-1H28V5H51ZM24,4a1,1,0,0,1,2,0V29H24ZM23,31h4V45H26V44a3,3,0,0,0-3-3Zm0,24h9v2H23Zm0-2V52h2a1,1,0,0,0,1-1h6v2Zm8,8H18.236l-3.789-1.9A1.006,1.006,0,0,0,14,59H12V47h2a1,1,0,0,0,.707-.292L18.414,43H23a1,1,0,0,1,1,1v6H23a1,1,0,0,1-1-1V46H20v1a4,4,0,0,1-4,4v2a5.992,5.992,0,0,0,4.629-2.186A3.034,3.034,0,0,0,21,51.22V57a2,2,0,0,0,2,2h9v1a1,1,0,0,1-1,1Zm1-13v1H26V47h5A1,1,0,0,1,32,48Zm10-3.414-6.293-6.293a1,1,0,0,0-1.415,0L29,43.584V40.413l6-6,6.292,6.293a1,1,0,0,0,1.415,0l12-12a1,1,0,0,0,0-1.414L54.414,27H58v3.585l-.293-.293a1,1,0,0,0-1.415,0Z"/>
      <path id="Trazado_1001236" data-name="Trazado 1001236" d="M5,9a5,5,0,0,1,5,5,1,1,0,0,0,2,0,5,5,0,0,1,5-5,1,1,0,0,0,0-2,5,5,0,0,1-5-4.947V2a1,1,0,1,0-2,0A5.006,5.006,0,0,1,5.054,7,1.04,1.04,0,0,0,4,8,1,1,0,0,0,5,9Zm6-3.393a7.034,7.034,0,0,0,1.05,1.342A7.1,7.1,0,0,0,13.388,8,7.1,7.1,0,0,0,11,10.393,7.048,7.048,0,0,0,8.6,8,7.06,7.06,0,0,0,11,5.606Z"/>
      <path id="Trazado_1001237" data-name="Trazado 1001237" d="M62,45a5,5,0,0,1-5-5,1,1,0,0,0-2,0,5,5,0,0,1-5,5,1,1,0,0,0,0,2,5.006,5.006,0,0,1,5,5,1,1,0,0,0,2,0,5,5,0,0,1,5-5,1,1,0,1,0,0-2Zm-6,3.4A7.084,7.084,0,0,0,53.607,46,7.1,7.1,0,0,0,56,43.61,7.087,7.087,0,0,0,58.392,46,7.063,7.063,0,0,0,56,48.4Z"/>
    </g>
  </g>
</svg>
