<svg xmlns="http://www.w3.org/2000/svg" xmlns:xlink="http://www.w3.org/1999/xlink" width="113" height="113" viewBox="0 0 113 113">
  <defs>
    <filter id="Trazado_982547" x="0" y="0" width="113" height="113" filterUnits="userSpaceOnUse">
      <feOffset dy="3" input="SourceAlpha"/>
      <feGaussianBlur stdDeviation="3" result="blur"/>
      <feFlood flood-opacity="0.161"/>
      <feComposite operator="in" in2="blur"/>
      <feComposite in="SourceGraphic"/>
    </filter>
  </defs>
  <g id="Grupo_1165773" data-name="Grupo 1165773" transform="translate(-1032.395 -4713)">
    <g id="Grupo_1165347" data-name="Grupo 1165347" transform="translate(1041.395 4719)">
      <g id="Grupo_1163948" data-name="Grupo 1163948">
        <g id="Grupo_1158168" data-name="Grupo 1158168">
          <g id="Grupo_1152576" data-name="Grupo 1152576">
            <g id="Grupo_1148633" data-name="Grupo 1148633">
              <g id="Grupo_1148525" data-name="Grupo 1148525">
                <g transform="matrix(1, 0, 0, 1, -9, -6)" filter="url(#Trazado_982547)">
                  <g id="Trazado_982547-2" data-name="Trazado 982547" transform="translate(9 6)" fill="#e9f9fd">
                    <path d="M 47.5 93.5 C 41.28937149047852 93.5 35.26533508300781 92.28397369384766 29.59518623352051 89.88570404052734 C 24.11771965026855 87.56893157958984 19.19813346862793 84.25196075439453 14.97309303283691 80.02691650390625 C 10.74804019927979 75.80186462402344 7.431066513061523 70.88229370117188 5.114293098449707 65.40481567382812 C 2.716026782989502 59.73468017578125 1.5 53.71062850952148 1.5 47.5 C 1.5 41.28937149047852 2.716026782989502 35.26533508300781 5.114293098449707 29.59518623352051 C 7.431066513061523 24.11771965026855 10.74804019927979 19.19813346862793 14.97309303283691 14.97309303283691 C 19.19813346862793 10.74804019927979 24.11771965026855 7.431066513061523 29.59518623352051 5.114293098449707 C 35.26533508300781 2.716026782989502 41.28937149047852 1.5 47.5 1.5 C 53.71062850952148 1.5 59.73468017578125 2.716026782989502 65.40481567382812 5.114293098449707 C 70.88229370117188 7.431066513061523 75.80186462402344 10.74804019927979 80.02691650390625 14.97309303283691 C 84.25196075439453 19.19813346862793 87.56893157958984 24.11771965026855 89.88570404052734 29.59518623352051 C 92.28397369384766 35.26533508300781 93.5 41.28937149047852 93.5 47.5 C 93.5 53.71062850952148 92.28397369384766 59.73468017578125 89.88570404052734 65.40481567382812 C 87.56893157958984 70.88229370117188 84.25196075439453 75.80186462402344 80.02691650390625 80.02691650390625 C 75.80186462402344 84.25196075439453 70.88229370117188 87.56893157958984 65.40481567382812 89.88570404052734 C 59.73468017578125 92.28397369384766 53.71062850952148 93.5 47.5 93.5 Z" stroke="none"/>
                    <path d="M 47.5 3 C 41.49121475219727 3 35.66376876831055 4.176155090332031 30.17950439453125 6.495796203613281 C 24.88084411621094 8.736953735351562 20.12152099609375 11.94598388671875 16.03375244140625 16.03375244140625 C 11.94598388671875 20.12152099609375 8.736953735351562 24.88084411621094 6.495796203613281 30.17950439453125 C 4.176155090332031 35.66376876831055 3 41.49121475219727 3 47.5 C 3 53.50878524780273 4.176155090332031 59.33623123168945 6.495796203613281 64.82049560546875 C 8.736953735351562 70.11915588378906 11.94598388671875 74.87847900390625 16.03375244140625 78.96624755859375 C 20.12152099609375 83.05401611328125 24.88084411621094 86.26304626464844 30.17950439453125 88.50419616699219 C 35.66376876831055 90.82384490966797 41.49121475219727 92 47.5 92 C 53.50878524780273 92 59.33623123168945 90.82384490966797 64.82049560546875 88.50419616699219 C 70.11915588378906 86.26304626464844 74.87847900390625 83.05401611328125 78.96624755859375 78.96624755859375 C 83.05401611328125 74.87847900390625 86.26304626464844 70.11915588378906 88.50419616699219 64.82049560546875 C 90.82384490966797 59.33623123168945 92 53.50878524780273 92 47.5 C 92 41.49121475219727 90.82384490966797 35.66376876831055 88.50419616699219 30.17950439453125 C 86.26304626464844 24.88084411621094 83.05401611328125 20.12152099609375 78.96624755859375 16.03375244140625 C 74.87847900390625 11.94598388671875 70.11915588378906 8.736953735351562 64.82049560546875 6.495796203613281 C 59.33623123168945 4.176155090332031 53.50878524780273 3 47.5 3 M 47.5 0 C 73.7335205078125 0 95 21.2664794921875 95 47.5 C 95 73.7335205078125 73.7335205078125 95 47.5 95 C 21.2664794921875 95 0 73.7335205078125 0 47.5 C 0 21.2664794921875 21.2664794921875 0 47.5 0 Z" stroke="none" fill="#36ceef"/>
                  </g>
                </g>
              </g>
            </g>
          </g>
        </g>
      </g>
    </g>
    <g id="_22-Candidates" data-name="22-Candidates" transform="translate(1060.332 4738.332)">
      <path id="Trazado_1001238" data-name="Trazado 1001238" d="M1,22H7.015v4.812H1Z" transform="translate(0 4.262)" fill="#4294ff"/>
      <path id="Trazado_1001239" data-name="Trazado 1001239" d="M26.262,33.218l1.2,2.406-2.406,8.421,3.609,3.609v3.609H15.435V39.233H3.406A2.413,2.413,0,0,1,1,36.827V26H7.015v4.812H13.03l10.827-1.973v1.973Z" transform="translate(0 5.074)" fill="#f0f3ff"/>
      <path id="Trazado_1001240" data-name="Trazado 1001240" d="M34.827,50.789H24V47.18l3.609-3.609L25.2,35.151l1.2-2.406,2.406-2.406V28.33l12.03,2.009v20.45Z" transform="translate(4.668 5.547)" fill="#f0f3ff"/>
      <path id="Trazado_1001241" data-name="Trazado 1001241" d="M26.812,32.406l-1.2,2.406H23.2L22,32.406,24.406,30Z" transform="translate(4.262 5.886)" fill="#4294ff"/>
      <path id="Trazado_1001242" data-name="Trazado 1001242" d="M25.812,34l2.406,8.421L24.609,46.03,21,42.421,23.406,34Z" transform="translate(4.059 6.698)" fill="#4294ff"/>
      <path id="Trazado_1001243" data-name="Trazado 1001243" d="M21.609,9A3.534,3.534,0,0,1,18,12.609v9.624a7.218,7.218,0,0,0,14.435,0V12.609C22.812,12.609,21.609,9,21.609,9Z" transform="translate(3.45 1.624)" fill="#ffc9bd"/>
      <path id="Trazado_1001244" data-name="Trazado 1001244" d="M33.044,17.841c-9.624,0-10.827-7.218-10.827-7.218a3.534,3.534,0,0,1-3.609,3.609v1.2a3.6,3.6,0,0,0-2.55,1.059L15,15.435V11.827a10.827,10.827,0,1,1,21.653,0v3.609l-1.059,1.059a3.6,3.6,0,0,0-2.55-1.059Z" transform="translate(2.841 0)" fill="#2b3e5b"/>
      <path id="Trazado_1001245" data-name="Trazado 1001245" d="M4.609,16.812V13.8a1.8,1.8,0,1,1,3.609,0v9.022l-1.2,1.2H1V16.812Z" transform="translate(0 2.233)" fill="#ffc9bd"/>
      <path id="Trazado_1001246" data-name="Trazado 1001246" d="M32.55,14.059A3.609,3.609,0,0,1,30,20.218V13a3.6,3.6,0,0,1,2.55,1.059Z" transform="translate(5.886 2.435)" fill="#ffc9bd"/>
      <path id="Trazado_1001247" data-name="Trazado 1001247" d="M18.609,13v7.218a3.609,3.609,0,1,1,0-7.218Z" transform="translate(2.841 2.435)" fill="#ffb4a3"/>
      <path id="Trazado_1001248" data-name="Trazado 1001248" d="M26.812,28.477l-2.406,2.406L22,28.477V25.65a7.084,7.084,0,0,0,4.812,0Z" transform="translate(4.262 5.003)" fill="#ffc9bd"/>
      <path id="Trazado_1001249" data-name="Trazado 1001249" d="M24.812,30.406l-2.406,2.406L20,30.406V28.4l2.406-.4Z" transform="translate(3.856 5.48)" fill="#adb5d5"/>
      <path id="Trazado_1001250" data-name="Trazado 1001250" d="M28.812,28.4v2.009l-2.406,2.406L24,30.406,26.406,28Z" transform="translate(4.668 5.48)" fill="#adb5d5"/>
      <path id="Trazado_1001251" data-name="Trazado 1001251" d="M24.609,44.519l-3.075-3.075L21,43.316l3.609,3.609,3.609-3.609-.535-1.872Z" transform="translate(4.059 8.208)" fill="#ccd3eb"/>
      <path id="Trazado_1001252" data-name="Trazado 1001252" d="M5.6,12a1.784,1.784,0,0,0-.6.111A1.8,1.8,0,0,1,6.2,13.8v9.022L5,24.03H6.2l1.2-1.2V13.8A1.8,1.8,0,0,0,5.6,12Z" transform="translate(0.812 2.233)" fill="#fdddd7"/>
      <path id="Trazado_1001253" data-name="Trazado 1001253" d="M32.55,14.059A3.6,3.6,0,0,0,30,13v.223A3.587,3.587,0,0,1,30,20v.22a3.609,3.609,0,0,0,2.55-6.159Z" transform="translate(5.886 2.435)" fill="#fdddd7"/>
      <path id="Trazado_1001254" data-name="Trazado 1001254" d="M16.2,16.609a3.564,3.564,0,0,1,2.406-3.386V13a3.609,3.609,0,1,0,0,7.218V20A3.592,3.592,0,0,1,16.2,16.609Z" transform="translate(2.841 2.435)" fill="#ffc9bd"/>
      <path id="Trazado_1001255" data-name="Trazado 1001255" d="M24.406,26.071A6.977,6.977,0,0,1,22,25.65v1.2a7.084,7.084,0,0,0,4.812,0v-1.2A6.977,6.977,0,0,1,24.406,26.071Z" transform="translate(4.262 5.003)" fill="#ffb4a3"/>
      <path id="Trazado_1001256" data-name="Trazado 1001256" d="M22,27v1.2l2.406,2.406L26.812,28.2V27l-2.406,2.406Z" transform="translate(4.262 5.277)" fill="#ffb4a3"/>
      <path id="Trazado_1001257" data-name="Trazado 1001257" d="M15.447,13.741l.521.521a3.6,3.6,0,0,1,2.55-1.059V12a3.521,3.521,0,0,0-3.071,1.741Z" transform="translate(2.932 2.232)" fill="#192b44"/>
      <path id="Trazado_1001258" data-name="Trazado 1001258" d="M24.983,1a10.764,10.764,0,0,0-5.826,1.711C20.321,8.546,27.317,13.03,35.81,13.03v-1.2A10.827,10.827,0,0,0,24.983,1Z" transform="translate(3.685 0)" fill="#415372"/>
      <path id="Trazado_1001259" data-name="Trazado 1001259" d="M22.406,31.406,20,29v1.2l2.406,2.406L24.812,30.2l-.6-.6Z" transform="translate(3.856 5.683)" fill="#96a1c3"/>
      <path id="Trazado_1001260" data-name="Trazado 1001260" d="M24.6,29.6l-.6.6,2.406,2.406L28.812,30.2V29l-2.406,2.406Z" transform="translate(4.668 5.683)" fill="#96a1c3"/>
      <path id="Trazado_1001261" data-name="Trazado 1001261" d="M26.411,33.208l.4-.8L24.406,30,22,32.406l.4.8L24.406,31.2Z" transform="translate(4.262 5.886)" fill="#3161e3"/>
      <path id="Trazado_1001262" data-name="Trazado 1001262" d="M25.446,34H23.041L22.8,35.2h2.887Z" transform="translate(4.424 6.698)" fill="#3161e3"/>
      <path id="Trazado_1001263" data-name="Trazado 1001263" d="M1,22H3.406v4.812H1Z" transform="translate(0 4.262)" fill="#3161e3"/>
      <path id="Trazado_1001264" data-name="Trazado 1001264" d="M23.247,28.839,12.421,30.812H6.406V26H4v4.812a2.406,2.406,0,0,0,2.406,2.406h6.015l11.027-2.205-.2-.2Z" transform="translate(0.609 5.074)" fill="#f7f9ff"/>
      <path id="Trazado_1001265" data-name="Trazado 1001265" d="M28.031,28.33v2.009l-.185.185,12.215,2.221V30.339Z" transform="translate(5.449 5.547)" fill="#f7f9ff"/>
      <path id="Trazado_1001266" data-name="Trazado 1001266" d="M1,16H4.609v2.406H1Z" transform="translate(0 3.044)" fill="#ffb4a3"/>
      <path id="Trazado_1001267" data-name="Trazado 1001267" d="M29.015,19.437v1.2A7.218,7.218,0,0,1,23,27.75a7.218,7.218,0,0,0,8.421-7.109V17.031a16.24,16.24,0,0,1-2.406-.186Z" transform="translate(4.465 3.216)" fill="#fdddd7"/>
      <path id="Trazado_1001268" data-name="Trazado 1001268" d="M21.609,9A3.534,3.534,0,0,1,18,12.609v2.406a3.534,3.534,0,0,0,3.609-3.609s1.016,5.944,8.421,7.031V16.031C22.625,14.944,21.609,9,21.609,9Z" transform="translate(3.45 1.624)" fill="#ffb4a3"/>
      <path id="Trazado_1001269" data-name="Trazado 1001269" d="M28,17.251a16.239,16.239,0,0,0,2.406.186V15.031A16.24,16.24,0,0,1,28,14.845Z" transform="translate(5.48 2.81)" fill="#ffb4a3"/>
      <ellipse id="Elipse_11726" data-name="Elipse 11726" cx="0.5" cy="2" rx="0.5" ry="2" transform="translate(23.668 17.668)" fill="#2b3e5b"/>
      <ellipse id="Elipse_11727" data-name="Elipse 11727" cx="0.5" cy="2" rx="0.5" ry="2" transform="translate(32.668 17.668)" fill="#2b3e5b"/>
      <path id="Trazado_1001270" data-name="Trazado 1001270" d="M24.406,24.406A2.3,2.3,0,0,1,22,22.241a.308.308,0,0,1,.6,0,1.8,1.8,0,0,0,3.609,0,.308.308,0,0,1,.6,0A2.3,2.3,0,0,1,24.406,24.406Z" transform="translate(4.262 4.262)" fill="#cc6d58"/>
      <path id="Trazado_1001271" data-name="Trazado 1001271" d="M29.164,4.813c.4.629.3,1.312-.227,1.525a1.529,1.529,0,0,1-1.684-.753c-.4-.629-.3-1.312.227-1.525a1.529,1.529,0,0,1,1.684.753Z" transform="translate(5.278 0.613)" fill="#f6fafd"/>
      <path id="Trazado_1001272" data-name="Trazado 1001272" d="M30.325,6.407c.2.314.152.656-.113.763a.767.767,0,0,1-.842-.377c-.2-.315-.15-.657.12-.763A.763.763,0,0,1,30.325,6.407Z" transform="translate(5.733 1.017)" fill="#f6fafd"/>
      <path id="Trazado_1001273" data-name="Trazado 1001273" d="M30.905,4a10.772,10.772,0,0,1,2.774,7.218v3.609l-1.059,1.059a3.609,3.609,0,0,1-2.55,6.159v1.2a7.177,7.177,0,0,1-.419,2.406h7.636v6.015L43.3,25.653h7.218V4Z" transform="translate(5.815 0.609)" fill="#4294ff"/>
      <path id="Trazado_1001274" data-name="Trazado 1001274" d="M33.679,22.045a3.609,3.609,0,0,0,2.55-6.159l1.059-1.059V11.218A10.774,10.774,0,0,0,34.513,4H30.905a10.772,10.772,0,0,1,2.774,7.218v3.609l-1.059,1.059a3.609,3.609,0,0,1-2.55,6.159v1.2a7.177,7.177,0,0,1-.419,2.406h3.609a7.177,7.177,0,0,0,.419-2.406Z" transform="translate(5.815 0.609)" fill="#376dff"/>
      <path id="Trazado_1001275" data-name="Trazado 1001275" d="M36,8h9.624v2.406H36Z" transform="translate(7.103 1.421)" fill="#f0f3ff"/>
      <path id="Trazado_1001276" data-name="Trazado 1001276" d="M36,12h9.624v2.406H36Z" transform="translate(7.103 2.233)" fill="#f0f3ff"/>
      <path id="Trazado_1001277" data-name="Trazado 1001277" d="M36,16h9.624v2.406H36Z" transform="translate(7.103 3.044)" fill="#f0f3ff"/>
      <g id="Grupo_1165772" data-name="Grupo 1165772" transform="translate(1 1)">
        <path id="Trazado_1001278" data-name="Trazado 1001278" d="M32.435,16.218C22.812,16.218,21.609,9,21.609,9A3.534,3.534,0,0,1,18,12.609v9.624a7.218,7.218,0,0,0,14.435,0V12.609A3.534,3.534,0,0,0,28.827,9" transform="translate(2.45 0.624)" fill="none" stroke="#000" stroke-linejoin="round" stroke-width="2"/>
        <path id="Trazado_1001279" data-name="Trazado 1001279" d="M30,20.218A3.609,3.609,0,0,0,30,13" transform="translate(4.886 1.435)" fill="none" stroke="#000" stroke-linejoin="round" stroke-width="2"/>
        <path id="Trazado_1001280" data-name="Trazado 1001280" d="M18.609,20.218a3.609,3.609,0,1,1,0-7.218" transform="translate(1.841 1.435)" fill="none" stroke="#000" stroke-linejoin="round" stroke-width="2"/>
        <path id="Trazado_1001281" data-name="Trazado 1001281" d="M35.45,16.638l1.2-1.2V11.827a10.827,10.827,0,1,0-21.653,0v3.609l1.2,1.2" transform="translate(1.841 -1)" fill="none" stroke="#000" stroke-linejoin="round" stroke-width="2"/>
        <path id="Trazado_1001282" data-name="Trazado 1001282" d="M22,25v3.609l2.406,2.406,2.406-2.406V25" transform="translate(3.262 3.871)" fill="none" stroke="#000" stroke-linejoin="round" stroke-width="2"/>
        <path id="Trazado_1001283" data-name="Trazado 1001283" d="M40.435,34.015V30.406L26,28" transform="translate(4.074 4.48)" fill="none" stroke="#000" stroke-linejoin="round" stroke-width="2"/>
        <path id="Trazado_1001284" data-name="Trazado 1001284" d="M13,45.827v3.609H43.074V35" transform="translate(1.435 5.9)" fill="none" stroke="#000" stroke-linejoin="round" stroke-width="2"/>
        <path id="Trazado_1001285" data-name="Trazado 1001285" d="M7.015,35.233V22H1V37.638a2.406,2.406,0,0,0,2.406,2.406h12.03v6.015" transform="translate(-1 3.262)" fill="none" stroke="#000" stroke-linejoin="round" stroke-width="2"/>
        <path id="Trazado_1001286" data-name="Trazado 1001286" d="M25.247,28,12.015,30.406H6" transform="translate(0.015 4.48)" fill="none" stroke="#000" stroke-linejoin="round" stroke-width="2"/>
        <path id="Trazado_1001287" data-name="Trazado 1001287" d="M29.624,28v2.406l-2.406,2.406-2.406-2.406-2.406,2.406L20,30.406V28" transform="translate(2.856 4.48)" fill="none" stroke="#000" stroke-linejoin="round" stroke-width="2"/>
        <path id="Trazado_1001288" data-name="Trazado 1001288" d="M22,32l1.2,2.406h2.406L26.812,32" transform="translate(3.262 5.292)" fill="none" stroke="#000" stroke-linejoin="round" stroke-width="2"/>
        <path id="Trazado_1001289" data-name="Trazado 1001289" d="M23.406,34,21,42.421l3.609,3.609,3.609-3.609L25.812,34" transform="translate(3.059 5.698)" fill="none" stroke="#000" stroke-linejoin="round" stroke-width="2"/>
        <path id="Trazado_1001290" data-name="Trazado 1001290" d="M33,35V49.435" transform="translate(5.495 5.9)" fill="none" stroke="#000" stroke-linejoin="round" stroke-width="2"/>
        <path id="Trazado_1001291" data-name="Trazado 1001291" d="M4,19.218V13.8a1.8,1.8,0,1,1,3.609,0v9.022l-1.2,1.2" transform="translate(-0.391 1.233)" fill="none" stroke="#000" stroke-linejoin="round" stroke-width="2"/>
        <path id="Trazado_1001292" data-name="Trazado 1001292" d="M3.406,16H1v7.218" transform="translate(-1 2.044)" fill="none" stroke="#000" stroke-linejoin="round" stroke-width="2"/>
        <path id="Trazado_1001293" data-name="Trazado 1001293" d="M1,26H7.015" transform="translate(-1 4.074)" fill="none" stroke="#000" stroke-linejoin="round" stroke-width="2"/>
        <path id="Trazado_1001294" data-name="Trazado 1001294" d="M37.406,4H35" transform="translate(5.9 -0.391)" fill="none" stroke="#000" stroke-linejoin="round" stroke-width="2"/>
        <path id="Trazado_1001295" data-name="Trazado 1001295" d="M32,25.653h4.812v6.015l6.015-6.015h7.218V4H40.421" transform="translate(5.292 -0.391)" fill="none" stroke="#000" stroke-linejoin="round" stroke-width="2"/>
        <path id="Trazado_1001296" data-name="Trazado 1001296" d="M45.624,9H36" transform="translate(6.103 0.624)" fill="none" stroke="#000" stroke-linejoin="round" stroke-width="2"/>
        <path id="Trazado_1001297" data-name="Trazado 1001297" d="M45.624,13H36" transform="translate(6.103 1.435)" fill="none" stroke="#000" stroke-linejoin="round" stroke-width="2"/>
        <path id="Trazado_1001298" data-name="Trazado 1001298" d="M45.624,17H36" transform="translate(6.103 2.247)" fill="none" stroke="#000" stroke-linejoin="round" stroke-width="2"/>
      </g>
    </g>
  </g>
</svg>
