<svg xmlns="http://www.w3.org/2000/svg" xmlns:xlink="http://www.w3.org/1999/xlink" width="505" height="320" viewBox="0 0 505 320">
  <defs>
    <clipPath id="clip-path">
      <rect id="Rectángulo_412884" data-name="Rectángulo 412884" width="505" height="320" transform="translate(180 5678)" fill="#fff" stroke="#707070" stroke-width="1"/>
    </clipPath>
    <clipPath id="clip-path-2">
      <rect id="Rectángulo_412881" data-name="Rectángulo 412881" width="335" height="294.463" fill="none"/>
    </clipPath>
    <clipPath id="clip-path-3">
      <path id="Trazado_1001306" data-name="Trazado 1001306" d="M1697.073,979.936c-.541.528-2.728,6.531-3.121,7.545-2.111,5.443-4.5,12.246-5.351,18a79.182,79.182,0,0,0-.412,10.9l-.139,11.545c-.015,2.41.089,4.82.167,7.228a20.925,20.925,0,0,1,.046,3.306c-.011.081-.024.161-.036.242.643.4,3.228,1.733,3.387,2.367a1.36,1.36,0,0,1,.029.4,74.975,74.975,0,0,0,6.947,3.966c-.8-1.594-4.274-3.068-5.785-4.019-.54-4.3-1.445-8.56-2.019-12.856-.624-4.676-.881-9.414-1.217-14.118a52.444,52.444,0,0,1-.212-10.077,36.341,36.341,0,0,1,1.223-4.9c.707-2.615,1.409-5.2,2.248-7.781.826-2.539,1.788-4.915,2.761-7.385a40.89,40.89,0,0,1,1.769-4.339l-.176-.1a1.137,1.137,0,0,0-.111.083m.386-.168-.1.184.135.076c-.015-.211.029-.4-.12-.561Z" transform="translate(-1688.05 -979.466)" fill="none"/>
    </clipPath>
    <linearGradient id="linear-gradient" x1="-18.606" y1="1.867" x2="-18.595" y2="1.867" gradientUnits="objectBoundingBox">
      <stop offset="0" stop-color="#c8172f"/>
      <stop offset="1" stop-color="#f12b40"/>
    </linearGradient>
  </defs>
  <g id="Enmascarar_grupo_1098763" data-name="Enmascarar grupo 1098763" transform="translate(-180 -5678)" clip-path="url(#clip-path)">
    <g id="Grupo_1165780" data-name="Grupo 1165780" transform="translate(265 5703.537)">
      <g id="Grupo_1165775" data-name="Grupo 1165775">
        <g id="Grupo_1165774" data-name="Grupo 1165774" clip-path="url(#clip-path-2)">
          <path id="Trazado_1001299" data-name="Trazado 1001299" d="M30.176,220.52c-.092-3.95.089-7.956.183-11.908l.372-17.8.766-43.793c.176-6.976.138-13.952.235-20.929a81.987,81.987,0,0,1,.25-9.276,12.788,12.788,0,0,1,2.992-6.346c1.911-2.264,4.933-4.276,7.945-4.508.481.045.987-.046,1.3.334-.61.878-2.145,1.4-3.011,2.1-2.486,2.029-5.241,7.283-5.734,10.448a61.687,61.687,0,0,0-.4,8.43q-.115,6.9-.16,13.8l-.534,51.159L32.677,319.519q-.249,16.537-.234,33.075l-.074,9.782a40.33,40.33,0,0,0,.288,7.537,11.455,11.455,0,0,0,4.9,7.118,11.288,11.288,0,0,0,5.256,1.94c3.914.43,8.177.121,12.117.123H78.881l84.432.091,20.722-.008c3.6-.006,7.257-.167,10.843.084,5.835.169,11.7.051,17.538.048l33.63-.042,36.952.018c5.973.006,11.977.166,17.947.033,6.123-.324,12.388-.076,18.526-.062,4.057.01,9.2-.239,13.116.045a3.98,3.98,0,0,1,2,.513c.385.319.376.433.414.9a2.608,2.608,0,0,1-.7,1.029c-1.362.45-16.025.14-18.393.143q-29.136.186-58.272.019l-169.928.014-59.473-.052c-8.74-.019-17.544.228-26.274.025a3.944,3.944,0,0,1-1.507-.249.939.939,0,0,1-.42-.714,1.451,1.451,0,0,1,.254-1.185,2.017,2.017,0,0,1,1.147-.432,104.282,104.282,0,0,1,10.784-.046l21.482-.03a20.224,20.224,0,0,1-1.535-1.411,12.45,12.45,0,0,1-3.135-4.8c-1.066-3.321-.577-7.5-.555-10.954l.078-10.862c.434-16.382.359-32.806.55-49.195Z" transform="translate(0 -87.522)" fill="#192e35"/>
          <path id="Trazado_1001300" data-name="Trazado 1001300" d="M1175.091,1353.569a2.386,2.386,0,0,1,1.9.613c2.036,1.51,3.753,3.948,5.473,5.83,5.589,6.116,11.015,12.366,16.506,18.569,2.879,3.252,5.915,6.34,8.945,9.449,1.8,1.85,3.542,3.767,5.432,5.532,2.408,2.25,4.964,4.3,7.437,6.467,1.223,1.072,2.554,3.3,4.178,3.586a25.459,25.459,0,0,1,.756,6.134c-5.969.134-11.974-.027-17.946-.033l-36.952-.019-33.63.042c-5.84,0-11.7.122-17.538-.047.831-2.934,1.125-6.209,2.368-9v-.6c.6-1.158.884-2.637,1.391-3.876,6.25-1.322,12.57-2.349,18.833-3.611l33.555-6.865c.068-.01.136-.018.2-.031a6.145,6.145,0,0,0,4.181-2.622,5.436,5.436,0,0,0,.893-2.889c0-3-1.206-6.421-1.923-9.351-1.4-5.728-2.971-11.491-4.06-17.287" transform="translate(-924.771 -1117.954)" fill="#fe4f5a"/>
          <path id="Trazado_1001301" data-name="Trazado 1001301" d="M1134.642,1549.065c6.25-1.322,12.57-2.35,18.833-3.611l33.555-6.866c.256,1.286.552,2.555.872,3.827-4.223.93-8.5,1.6-12.742,2.439q-13.823,2.8-27.614,5.767c-2.017.446-12.908,3.19-14.3,2.915l0-.6c.6-1.158.884-2.637,1.391-3.876" transform="translate(-936.005 -1270.794)" fill="#bc333d"/>
          <path id="Trazado_1001302" data-name="Trazado 1001302" d="M33.1,894.821c-3.035-1.485-6.884-5.942-9.189-8.537C10.662,871.363,4.45,849.558,5.65,829.825c1.188-19.529,8.168-37.371,19.126-53.458,2.879-4.226,6.1-8.828,9.946-12.235l-1.071,81.495c-.191,16.389-.116,32.813-.55,49.195" transform="translate(-4.546 -631.133)" fill="#dddfdf"/>
          <path id="Trazado_1001303" data-name="Trazado 1001303" d="M1117,649.318c1.991-.032,3.8.581,5.87.349,10.2-1.147,15.562-6.594,21.572-14.2a32.513,32.513,0,0,1-.112,5.32c.144,2.65.414,5.307.527,7.955.159,4.108,1.021,9.195,3.7,12.46a15.59,15.59,0,0,1,1.232-1.9c2.308.4,3.962,1.7,5.862,2.986l.494.389q6.827,2.72,13.613,5.54c7.287,3,15.7,5.843,21.431,11.441a32.736,32.736,0,0,1,5.786,8.578,174.069,174.069,0,0,1,7.181,22.7q2.976,11.444,5.188,23.06T1213,757.355c.94,7.218,1.82,14.476,2.263,21.743.38,6.224,1.517,13.556-.974,19.449a18.631,18.631,0,0,1-6.762,7.989,20.926,20.926,0,0,1-15.872,2.317q-.636-.154-1.261-.348t-1.236-.427q-.611-.233-1.207-.505t-1.172-.581q-.577-.309-1.133-.654t-1.089-.724q-.533-.38-1.04-.792t-.988-.857a10.634,10.634,0,0,0-2.19-1.944c-.321.794.159,2.02.474,2.785a34.883,34.883,0,0,1,2.14,5.722c-1.624-.284-2.956-2.514-4.178-3.586-2.473-2.169-5.029-4.217-7.437-6.467-1.889-1.765-3.628-3.682-5.432-5.532-3.03-3.109-6.066-6.2-8.945-9.449-5.491-6.2-10.917-12.453-16.506-18.569-1.72-1.882-3.437-4.32-5.473-5.83a2.385,2.385,0,0,0-1.9-.613c-.835-2.894-1.38-5.874-2.215-8.775a34.541,34.541,0,0,0,9.747,2.334c.393.482.774.984,1.187,1.448,3.189-3.029,9.329-9.024,10.035-13.32l-.055-.16a104.025,104.025,0,0,1-14.14-12.154c-1.9-1.882-3.712-3.914-5.71-5.686-.687-.609-1.751-1.734-2.7-1.789a50.662,50.662,0,0,0-6.644.135l-4.277.3a2.781,2.781,0,0,1-.394-.1c-.84-.345-.867-2.195-1.043-3.007-1.18-5.446-2.578-10.844-3.824-16.275-.984-4.288-2.073-10.435-3.7-14.341-.7-1.667-3.024-2.178-3.535-3.353-.032-.073-.056-.15-.083-.225l-.141.059c-2.813.71-5.684,1.119-8.547,1.572a25.628,25.628,0,0,0-4.952.954c-.717-.173-1.09-.938-1.592-1.486a16.717,16.717,0,0,0-7.523,1.255,2.04,2.04,0,0,1-1.434.094,4.7,4.7,0,0,1-.689-2.25c-1.562.2-3.13.609-4.681.9-2.46.453-4.954.813-7.382,1.416,2.887-6.08,5.273-11.339,11.449-14.711a55.92,55.92,0,0,1,10.647-5.117q6.213-2.252,12.528-4.2c3.894-1.143,7.63-2.666,11.44-4.045l.085-.149a34.135,34.135,0,0,0,1.865-9.426Z" transform="translate(-882.765 -524.865)" fill="#fe4f5a"/>
          <path id="Trazado_1001304" data-name="Trazado 1001304" d="M1193.519,919.731c3.076-.837,7.041-.551,10.277-.917,1.455-.164,2.811-.875,4.271-1.1.427.241.4.525.543.974-2.813.711-5.684,1.12-8.547,1.573a25.616,25.616,0,0,0-4.952.954c-.717-.173-1.09-.938-1.592-1.486" transform="translate(-985.785 -757.986)" fill="#fe9d76"/>
          <path id="Trazado_1001305" data-name="Trazado 1001305" d="M1545.618,1247.511a1.525,1.525,0,0,1,.826.118c1.436.583,2.84,1.408,4.221,2.115,2.938,1.5,5.834,3.038,8.74,4.6,3.685,1.982,7.485,3.766,11.182,5.737.643.4,3.228,1.733,3.387,2.367a1.352,1.352,0,0,1,.029.4q-14.093-7.721-28.33-15.175Z" transform="translate(-1276.6 -1030.37)" fill="#bc333d"/>
        </g>
      </g>
      <g id="Grupo_1165777" data-name="Grupo 1165777" transform="translate(293.808 170.478)">
        <g id="Grupo_1165776" data-name="Grupo 1165776" clip-path="url(#clip-path-3)">
          <rect id="Rectángulo_412882" data-name="Rectángulo 412882" width="15.653" height="66.586" transform="matrix(0.997, -0.078, 0.078, 0.997, -5.128, 0.399)" fill="url(#linear-gradient)"/>
        </g>
      </g>
      <g id="Grupo_1165779" data-name="Grupo 1165779">
        <g id="Grupo_1165778" data-name="Grupo 1165778" clip-path="url(#clip-path-2)">
          <path id="Trazado_1001307" data-name="Trazado 1001307" d="M1281.026,920.933c2.239-.5,4.767-.812,6.789.525a5.15,5.15,0,0,1,1.844,2c1.249,2.791,1.812,7.177,2.513,10.27q2.054,9.033,4.316,18.016c.5,2.047.832,4.171,1.4,6.195l-4.277.3a2.782,2.782,0,0,1-.393-.1c-.84-.345-.867-2.194-1.043-3.007-1.18-5.446-2.578-10.844-3.824-16.275-.984-4.288-2.073-10.435-3.7-14.34-.7-1.667-3.024-2.178-3.536-3.353-.032-.073-.055-.15-.083-.225" transform="translate(-1058.061 -760.287)" fill="#192e35"/>
          <path id="Trazado_1001308" data-name="Trazado 1001308" d="M1425.463,1303.29a34.541,34.541,0,0,0,9.747,2.333c.393.482.773.984,1.186,1.448-.776.748-1.6,1.42-2.4,2.144.049.037.1.072.146.109,4.12,3.168,7.9,8.589,11.359,12.508a234,234,0,0,0,26.466,26.109,64.835,64.835,0,0,0,7.545,5.815c4.86,2.919,12.264,5.652,17.918,4.933,1-.127,3.849-1,4.685-.569a20.924,20.924,0,0,1-15.872,2.317q-.636-.154-1.26-.348t-1.236-.427q-.612-.233-1.207-.5t-1.172-.581q-.577-.309-1.133-.654t-1.089-.724q-.533-.379-1.04-.792t-.989-.857a10.643,10.643,0,0,0-2.19-1.944c-.321.794.159,2.02.474,2.785a34.882,34.882,0,0,1,2.139,5.722c-1.624-.285-2.955-2.514-4.178-3.586-2.473-2.17-5.029-4.218-7.437-6.467-1.889-1.765-3.628-3.682-5.432-5.532-3.03-3.109-6.066-6.2-8.945-9.449-5.491-6.2-10.918-12.453-16.507-18.569-1.72-1.882-3.437-4.32-5.473-5.83a2.384,2.384,0,0,0-1.9-.614c-.835-2.894-1.38-5.874-2.215-8.775" transform="translate(-1177.358 -1076.45)" fill="#bc333d"/>
          <path id="Trazado_1001309" data-name="Trazado 1001309" d="M1314.049,772.4c2.308.4,3.962,1.7,5.862,2.986l.494.389c-1.331,5.975-5.131,9.829-10.172,13.047a33.093,33.093,0,0,1-26.413,4.712,26.96,26.96,0,0,1-13.068-6.916c-2.512-2.907-3.193-5.735-3.085-9.527,3.894-1.143,7.63-2.665,11.44-4.045-.139,1.114-.472,2.217-.571,3.323a13.423,13.423,0,0,1,2.367,2.216c2.368,2.424,4.627,3.373,7.875,4.192a23.715,23.715,0,0,0,18.235-2.758c1.906-1.151,5.233-3.416,5.8-5.718a15.532,15.532,0,0,1,1.232-1.9" transform="translate(-1047.019 -637.965)" fill="#fe4f5a"/>
          <path id="Trazado_1001310" data-name="Trazado 1001310" d="M1279.108,776.112c-.139,1.114-.472,2.217-.571,3.324l-.1-.246c-.109-.518-.1-.832-.592-1.155-.882-.575-2.257-.156-3.143.172-2.025.751-3.816,1.927-5.887,2.609-.253.083-.5.183-.753.275.058,1.12.142,2.246.158,3.367a9.84,9.84,0,0,1,2.942-1.757,18.189,18.189,0,0,1-2.675,1.965,34.416,34.416,0,0,0,1.413,3.548c1.23-1.148,5.468-5.485,6.547-5.951l.125.131c-1.412,1.517-5.377,4.4-6.11,6.032a2.467,2.467,0,0,0,.716.966,22.814,22.814,0,0,1,2.114,1.838,21.149,21.149,0,0,1,2.963-4.04,3.564,3.564,0,0,1-.86,1.657c-.63.782-1.175,1.615-1.821,2.389,1.4.939,2.741,1.869,4.234,2.67a18.758,18.758,0,0,1,.97-1.941c.5-.895,2.574-5.085,3.37-5.315,0,.419-3.51,6.306-4.01,7.368a43.985,43.985,0,0,0,17.406,2.357c-.023-1.73-.17-3.489-.362-5.208a18.306,18.306,0,0,1-.367-4.046l.087-.053.2.182a45.314,45.314,0,0,1,.77,9.067,31.946,31.946,0,0,0,17.386-7.133c3.27-2.731,6.239-6.38,6.65-10.732l.494.389c-1.331,5.975-5.131,9.829-10.172,13.047a33.093,33.093,0,0,1-26.413,4.712,26.959,26.959,0,0,1-13.068-6.916c-2.512-2.907-3.193-5.735-3.085-9.526,3.894-1.143,7.63-2.666,11.44-4.045" transform="translate(-1047.019 -641.028)" fill="#bc333d"/>
          <path id="Trazado_1001311" data-name="Trazado 1001311" d="M1332.889,649.318c1.991-.032,3.8.581,5.87.349,10.2-1.147,15.562-6.594,21.572-14.2a32.541,32.541,0,0,1-.112,5.32c.144,2.65.414,5.307.527,7.955.159,4.108,1.021,9.195,3.7,12.46-.569,2.3-3.9,4.568-5.8,5.718a23.715,23.715,0,0,1-18.235,2.758c-3.248-.82-5.507-1.768-7.876-4.192a13.416,13.416,0,0,0-2.367-2.216c.1-1.107.432-2.21.571-3.323l.085-.149a34.148,34.148,0,0,0,1.864-9.426Z" transform="translate(-1098.649 -524.865)" fill="#fe9d76"/>
          <path id="Trazado_1001312" data-name="Trazado 1001312" d="M1336,649.318c1.991-.032,3.8.581,5.87.349,10.2-1.147,15.562-6.594,21.572-14.2a32.513,32.513,0,0,1-.111,5.32c-.063.1-.127.19-.189.287-1.327,2.063-1.919,4.4-3.5,6.391-5.088,6.408-17.247,10.432-25.119,12.23-.2.045-.392.078-.591.1a34.139,34.139,0,0,0,1.864-9.426Z" transform="translate(-1101.762 -524.865)" fill="#fe4f5a"/>
          <path id="Trazado_1001313" data-name="Trazado 1001313" d="M921.5,34.984a65.256,65.256,0,0,1,12.546-6.422,123.57,123.57,0,0,1,67.562-7.58,90.267,90.267,0,0,1,21.886,6.855A81.438,81.438,0,0,1,1053.1,49.581a82.966,82.966,0,0,1,5.853,7.226,108.993,108.993,0,0,1,13.928,28.58c8.674,26.018,8.981,52.016,4.207,78.855-.555,3.117-2.448,12.607-3.77,15.018a32.728,32.728,0,0,0-5.786-8.578c-5.733-5.6-14.143-8.437-21.431-11.441q-6.786-2.82-13.613-5.54l-.494-.389c-1.9-1.289-3.554-2.582-5.862-2.986a15.522,15.522,0,0,0-1.232,1.9c-2.681-3.265-3.543-8.352-3.7-12.46-.112-2.648-.382-5.3-.527-7.955a32.513,32.513,0,0,0,.112-5.32c-6.011,7.6-11.376,13.05-21.572,14.2-2.068.233-3.879-.381-5.87-.349l-.2,1.056a34.131,34.131,0,0,1-1.864,9.426l-.085.149c-3.811,1.38-7.546,2.9-11.44,4.045q-6.315,1.946-12.528,4.2l.129-79.135.054-21.349c.034-4.074.275-8.216.064-12.28a11.592,11.592,0,0,0-4.071-8.382,11.754,11.754,0,0,0-6.046-2.693,44.427,44.427,0,0,0-6.839-.2l-10.5.008-12.857.006c-2.665-.01-5.38-.139-8.039.034l-.049-.155c.815-.063,1.608-.1,2.426-.086" transform="translate(-759.103 -15.888)" fill="#dddfdf"/>
          <path id="Trazado_1001314" data-name="Trazado 1001314" d="M1248.1,496.642l.168.716a2.651,2.651,0,0,0,1,.266c-.161,1.539-.082,4.288-1.073,5.524-.495-1.966-.149-4.464-.1-6.506" transform="translate(-1030.728 -410.2)" fill="#fe4f5a"/>
          <path id="Trazado_1001315" data-name="Trazado 1001315" d="M1223.586,535.461l.08-.013c.038,3.411-.768,7.168.008,10.515.656,6.665,5.353,13.3,10.4,17.459a15.57,15.57,0,0,0,6.186,3.284l-.2,1.056a10.719,10.719,0,0,1-7.264-1.076,8.083,8.083,0,0,1-3.768-5.263q-.567-.093-1.132-.2a12.021,12.021,0,0,1-8.156-4.967,11.293,11.293,0,0,1-.718-10.671,28.15,28.15,0,0,1,1.733-2.99,21.06,21.06,0,0,0,2.832-7.135" transform="translate(-1006.02 -442.252)" fill="#192e35"/>
          <path id="Trazado_1001316" data-name="Trazado 1001316" d="M1253.267,234.811c5.512-3.727,11.377-4.6,17.912-3.338,7.981,1.545,14.325,6.386,18.805,13.068,4.331,6.458,5.643,13.87,5.354,21.525-.127,3.38-.639,7.65.808,10.8.918,2,2.624,3.3,4.25,4.7,3.992,3.423,5.576,7.453,4.5,12.663-.677,3.282-2.587,5.449-5.3,7.262a7.433,7.433,0,0,1-1.232,5.86,8.567,8.567,0,0,1-5.826,3.4c-.643.1-1.3.145-1.95.193a7.675,7.675,0,0,1-4.864,3.973,19.073,19.073,0,0,1-10.292-.305c-.112-2.648-.383-5.3-.527-7.955a32.485,32.485,0,0,0,.112-5.32c-6.011,7.6-11.376,13.05-21.572,14.2-2.068.233-3.879-.381-5.87-.349a15.576,15.576,0,0,1-6.186-3.284c-5.047-4.156-9.744-10.794-10.4-17.459-.775-3.346.03-7.1-.007-10.515l-.081.013-.1-.262c.991-1.236.912-3.985,1.073-5.524a2.647,2.647,0,0,1-1-.266l-.169-.716,0-.27c-.064-3.295-1.394-6.63-2.326-9.77-3.33-11.224-1.149-18.464,6.895-26.982,3.314-3.508,8.032-6.523,13-6.607a9.626,9.626,0,0,1,5,1.263" transform="translate(-1013.336 -190.735)" fill="#192e35"/>
          <path id="Trazado_1001317" data-name="Trazado 1001317" d="M1370.238,288.218l.158.371c-.091.152-.184.3-.265.461-1.2,2.319-1.314,7.067-.457,9.462,3.472,9.7,18.471,12.925,27.131,16.054a39.21,39.21,0,0,1,3.909,1.389,1.358,1.358,0,0,1-.26.088c-1.058.13-3.935-1.127-5.039-1.483-6.352-2.048-12.849-3.536-18.542-7.192-3.663-2.352-7.214-5.667-8.111-10.112-.529-2.621-.017-6.8,1.476-9.039" transform="translate(-1130.359 -238.053)" fill="#375963"/>
          <path id="Trazado_1001318" data-name="Trazado 1001318" d="M1250.857,375.947c5.174-3.245,10.873-4.463,14.821-9.547,1.061-1.367,1.712-2.916,2.686-4.3a24.611,24.611,0,0,0,12.14,13.785c4.044,1.928,8.477,2.188,12.562,3.817,1.694,3.9,2.194,8.992,2.779,13.193.663-1.534,1.5-3.1,3.134-3.785a3.562,3.562,0,0,1,2.965.112,6.125,6.125,0,0,1,3.1,3.707,9.268,9.268,0,0,1-1,6.887,14.435,14.435,0,0,1-5.769,5.422c-.065.031-.129.066-.2.094a2.949,2.949,0,0,1-1.395.142c-.277-.014-1.393-.171-1.6-.006-.565.457-1.77,3.386-2.151,4.213-6.01,7.6-11.376,13.05-21.572,14.2-2.068.233-3.879-.381-5.87-.349a15.57,15.57,0,0,1-6.186-3.283c-5.047-4.156-9.745-10.794-10.4-17.459-.776-3.346.03-7.1-.007-10.514l-.081.013-.1-.262c.991-1.236.912-3.985,1.073-5.524.479-3.506.652-7.036,1.065-10.547" transform="translate(-1031.25 -299.072)" fill="#fe9d76"/>
          <path id="Trazado_1001319" data-name="Trazado 1001319" d="M1429.075,498.416l.6-.662a7.76,7.76,0,0,1,2.09.505,6.661,6.661,0,0,0,1.989.133,2.834,2.834,0,0,0-.9,1.361c.237.289.174.3.564.387a2.892,2.892,0,0,1,.643.18,4.222,4.222,0,0,1-1.224.585,3.692,3.692,0,0,0-1.1-1.861,3.447,3.447,0,0,0-2.66-.628" transform="translate(-1180.342 -411.119)" fill="#fe4f5a"/>
          <path id="Trazado_1001320" data-name="Trazado 1001320" d="M1272.866,448.371a9.3,9.3,0,0,1,3.288.18,2.721,2.721,0,0,1,1.768,1.094c.116.241.014.318-.075.545-1.477.87-4.83.348-6.607.483a39.433,39.433,0,0,0-5,.72,10.313,10.313,0,0,1,6.626-3.023" transform="translate(-1045.848 -370.276)" fill="#192e35"/>
          <path id="Trazado_1001321" data-name="Trazado 1001321" d="M1291.023,488.012a1.217,1.217,0,0,1,.7.223,1.651,1.651,0,0,1,.641,1.139l-.318-.539c.253,1.169.609,2.12.125,3.319a2.857,2.857,0,0,1-1.821,1.486,2.531,2.531,0,0,1-2.511-2.593,2.976,2.976,0,0,1,.784-2.193,2.378,2.378,0,0,1,2.042-.662l.205.009Z" transform="translate(-1063.681 -403.073)" fill="#192e35"/>
          <path id="Trazado_1001322" data-name="Trazado 1001322" d="M1407.852,460.48a15.623,15.623,0,0,1,3.577.338c2.613.489,5.75,1.547,7.319,3.854-.315.12-.753-.167-1.066-.295-3.351-1.056-6.775-1.21-10.2-1.821-.522-.093-.954-.083-1.266-.523a1.87,1.87,0,0,1,.061-.205,2.7,2.7,0,0,1,1.573-1.348" transform="translate(-1161.463 -380.324)" fill="#192e35"/>
          <path id="Trazado_1001323" data-name="Trazado 1001323" d="M1326.365,468.116a1.268,1.268,0,0,1,.24.827c.361,4.227.79,8.944-1.854,12.6-.944,1.3-2.147,2.384-3.179,3.612a3.407,3.407,0,0,0-.966,2.513,3.206,3.206,0,0,0,1.375,2.073c.52.4.939.652,1.092,1.314l-.253.311c-.085-.05-.171-.1-.255-.151-1.2-.731-2.652-1.887-2.936-3.332-.5-2.562,4.2-6.159,5.46-9.118,1.512-3.543-.312-8.332,1.277-10.644" transform="translate(-1089.913 -386.639)" fill="#bc333d"/>
          <path id="Trazado_1001324" data-name="Trazado 1001324" d="M1523.658,533.153a3.76,3.76,0,0,1,1.734.036,2.321,2.321,0,0,1,1.231,1.239,4.47,4.47,0,0,1,.056,3.544l-.224.077a5.947,5.947,0,0,1-.343-2.067,2.09,2.09,0,0,0-.976-1.542,1.352,1.352,0,0,0-1.127-.031c-1.771,1.575,1.057,3.295.058,6.371a6.5,6.5,0,0,1-3.722,3.687c-.389-.233-.5-.273-.713-.666.562-.957,2.29-1.329,3.056-2.38a3.509,3.509,0,0,0,.385-2.995c-.081-.4-.125-.865-.473-1.1-.613,1.166-.263,2.8-1.127,3.829a1.237,1.237,0,0,1-.885.494,1.8,1.8,0,0,1-.084-.877c.228-1.749.919-4.985,1.943-6.479a5.771,5.771,0,0,1,1.211-1.145" transform="translate(-1255.137 -440.286)" fill="#bc333d"/>
          <path id="Trazado_1001325" data-name="Trazado 1001325" d="M1318.412,618.763a34.157,34.157,0,0,0,13.534.021c-.489.586-1.039,1.129-1.564,1.682a8.03,8.03,0,0,1-2.944,1.443c-2.187.586-5.193.715-7.166-.518a4.122,4.122,0,0,1-1.859-2.63" transform="translate(-1088.94 -511.066)" fill="#fefefe"/>
          <path id="Trazado_1001326" data-name="Trazado 1001326" d="M1415.181,501.454a3.447,3.447,0,0,1,2.66.628,3.692,3.692,0,0,1,1.1,1.861,5.933,5.933,0,0,1-.124,1.582,2.943,2.943,0,0,1-1.315,1.867,3.613,3.613,0,0,1-2.7.335,3.447,3.447,0,0,1-.686-.248,3.407,3.407,0,0,1-.319-.177,3.461,3.461,0,0,1-.3-.21,3.4,3.4,0,0,1-.275-.24,3.328,3.328,0,0,1-.248-.268,3.371,3.371,0,0,1-.218-.293,3.426,3.426,0,0,1-.186-.314,2.536,2.536,0,0,1-.18-2.076,4.706,4.706,0,0,1,2.783-2.446" transform="translate(-1166.448 -414.157)" fill="#fefefe"/>
          <path id="Trazado_1001327" data-name="Trazado 1001327" d="M1419.759,503.477a4.1,4.1,0,0,1,1.3.219,2.4,2.4,0,0,1,1.349,1.335,3.031,3.031,0,0,1-.156,2.282,3.584,3.584,0,0,1-2.367,1.964,3.7,3.7,0,0,1-.971-.2,2.743,2.743,0,0,1-1.607-1.627,2.942,2.942,0,0,1,.185-2.232,3.373,3.373,0,0,1,2.266-1.738" transform="translate(-1170.506 -415.846)" fill="#192e35"/>
          <path id="Trazado_1001328" data-name="Trazado 1001328" d="M257.144,14.022A15.839,15.839,0,0,1,262.9,3.247,17.529,17.529,0,0,1,275.845.183a15.6,15.6,0,0,1,10.189,5.832,15.871,15.871,0,0,1,2.83,8.422q4.588.05,9.166.351c4.908.307,9.733.359,13.359,4.141l.24.256,1.767,0,.049.155c2.658-.173,5.374-.044,8.039-.034l12.857-.006,10.5-.008a44.447,44.447,0,0,1,6.839.2,11.756,11.756,0,0,1,6.046,2.693,11.591,11.591,0,0,1,4.071,8.382c.211,4.064-.03,8.206-.064,12.28l-.054,21.349-.128,79.135a55.9,55.9,0,0,0-10.647,5.117c-6.176,3.373-8.562,8.632-11.449,14.711,2.428-.6,4.922-.963,7.382-1.416,1.552-.286,3.119-.692,4.681-.9a4.709,4.709,0,0,0,.689,2.25A2.042,2.042,0,0,0,353.64,163a16.715,16.715,0,0,1,7.523-1.255c.5.548.875,1.313,1.592,1.486a25.622,25.622,0,0,1,4.952-.954c2.863-.453,5.733-.862,8.547-1.572l.141-.059c.027.075.051.152.083.225.511,1.175,2.839,1.686,3.535,3.353,1.631,3.906,2.719,10.053,3.7,14.34,1.246,5.431,2.644,10.829,3.824,16.275.176.813.2,2.662,1.043,3.007a2.762,2.762,0,0,0,.394.1l4.277-.3a50.676,50.676,0,0,1,6.644-.135c.949.055,2.013,1.18,2.7,1.789,2,1.772,3.811,3.8,5.71,5.686a104.014,104.014,0,0,0,14.139,12.154l.055.16c-.706,4.3-6.846,10.291-10.035,13.32-.413-.464-.794-.966-1.186-1.448a34.531,34.531,0,0,1-9.747-2.334c.835,2.9,1.38,5.881,2.215,8.775,1.089,5.8,2.658,11.559,4.06,17.287.717,2.93,1.923,6.352,1.924,9.351a5.437,5.437,0,0,1-.893,2.888,6.144,6.144,0,0,1-4.181,2.622c-.067.013-.135.021-.2.031L370.9,274.66c-6.263,1.262-12.584,2.289-18.833,3.611-.507,1.239-.791,2.718-1.392,3.876v.6c-1.243,2.788-1.537,6.063-2.367,9-3.585-.252-7.246-.091-10.843-.084l-20.722.008-84.432-.091H208.354c-3.94,0-8.2.308-12.117-.123a11.289,11.289,0,0,1-5.256-1.94,11.455,11.455,0,0,1-4.9-7.118,40.331,40.331,0,0,1-.288-7.538l.074-9.782q-.015-16.539.234-33.075l1.706-127.278.534-51.159q.046-6.9.16-13.8a61.69,61.69,0,0,1,.4-8.43c.494-3.166,3.248-8.419,5.734-10.448.867-.707,2.4-1.225,3.011-2.1-.317-.38-.822-.29-1.3-.334,2.715-.44,8.533-.072,11.494-.067l8.422.017a38.425,38.425,0,0,1,4.111.044c3.912-.243,7.907-.075,11.829-.108,4.753-4.366,11.974-4.322,18.01-4.322,2.308,0,4.623-.03,6.93.015" transform="translate(-153.429 0)" fill="#fefefe"/>
          <path id="Trazado_1001329" data-name="Trazado 1001329" d="M562.351,971.769l30.837.045,10.09,0c1.055,0,2.136-.163,3.181-.124a1.535,1.535,0,0,1,1.035.373,2.313,2.313,0,0,1,.039,1.488c-4.579-.025-44.953.111-45.275-.006-.1-.037-.163-.146-.245-.219a2.676,2.676,0,0,1,.024-1.355Z" transform="translate(-464.13 -802.564)" fill="#8da5aa"/>
          <path id="Trazado_1001330" data-name="Trazado 1001330" d="M563.428,1212.585l29.152-.04,8.424-.061a42.521,42.521,0,0,1,4.856.035c.594.064.892.045,1.258.514a1.315,1.315,0,0,1-.316.976c-.37.44-.839.339-1.356.358-4.667-.061-43.23.185-44.036-.266a2.05,2.05,0,0,1,.108-1.26c.484-.383,1.317-.257,1.911-.255" transform="translate(-463.656 -1001.403)" fill="#8da5aa"/>
          <path id="Trazado_1001331" data-name="Trazado 1001331" d="M561.6,732.67l32.18.077,9.783.033c1.336,0,2.806-.158,4.123-.023a1.229,1.229,0,0,1,.761.283,2,2,0,0,1,.17,1.383c-3.567.252-7.246.109-10.825.119l-20.08.027-10.606.008a32.388,32.388,0,0,1-5.348-.115,3.715,3.715,0,0,1-.156-1.791" transform="translate(-463.823 -605.147)" fill="#8da5aa"/>
          <path id="Trazado_1001332" data-name="Trazado 1001332" d="M561.969,1448.717c4.021,0,44.244-.24,45.124.187a3.16,3.16,0,0,1,.231,1.719c-8.2.2-16.465-.007-24.676-.01-6.55,0-13.183.246-19.724,0a1.393,1.393,0,0,1-.886-.219,3.157,3.157,0,0,1-.068-1.676" transform="translate(-464.092 -1196.511)" fill="#8da5aa"/>
          <path id="Trazado_1001333" data-name="Trazado 1001333" d="M586.065,489.274l14.9-.01a52.767,52.767,0,0,1,6.734.022,1.294,1.294,0,0,1,.922.729c.051.439.085.478-.138.85-1.575.736-20.586.345-24.158.349l-16.227-.021a34.994,34.994,0,0,1-5.65-.018,1.294,1.294,0,0,1-.983-.586,1.764,1.764,0,0,1,.252-1.13c2.105-.488,5.7-.13,8-.13Z" transform="translate(-463.741 -404.015)" fill="#8da5aa"/>
          <path id="Trazado_1001334" data-name="Trazado 1001334" d="M616.645,1144.862l-37.772-.016-12.021.007c-1.547,0-3.134.132-4.674.063a3.742,3.742,0,0,1-2.095-.538c-.278-.222-.185-.111-.25-.506.043-.056.08-.116.128-.167a3.189,3.189,0,0,1,2.083-.673c1.937-.11,3.955.021,5.9.022l13.23,0,35.492-.094a12.5,12.5,0,0,0-.021,1.906" transform="translate(-462.392 -944.022)" fill="#8da5aa"/>
          <path id="Trazado_1001335" data-name="Trazado 1001335" d="M621.487,1382.286c-2.925.214-5.925.077-8.858.074l-14.533,0c-12.24-.024-24.508.169-36.743.02a4.956,4.956,0,0,1-1.656-.222c-.275-.1-.26-.248-.372-.5a1.307,1.307,0,0,1,1.35-1.168c1.753-.081,3.571.055,5.332.055l13.269-.017,42.108.012Z" transform="translate(-461.973 -1140.192)" fill="#8da5aa"/>
          <path id="Trazado_1001336" data-name="Trazado 1001336" d="M561.826,419.133l50.846-.028,17.851.005c3.487.009,7.038-.11,10.515.144a.921.921,0,0,1,.538.651,1.479,1.479,0,0,1-.4,1.056l-51.591-.065-18.364-.033c-2.663-.006-5.365.121-8.022.029a2.36,2.36,0,0,1-1.388-.282,2.576,2.576,0,0,1,.016-1.478" transform="translate(-463.94 -346.147)" fill="#8da5aa"/>
          <path id="Trazado_1001337" data-name="Trazado 1001337" d="M561.932,662.653l54.988.057,15.834.021c2.056,0,4.314-.252,6.338-.079a2.721,2.721,0,0,1,1.482.555c.178.39.235.426.141.836a1.746,1.746,0,0,1-1.041.485l-52.777.016-17.627,0c-2.268,0-4.6.233-6.856.126a2.531,2.531,0,0,1-1.693-.536,1.486,1.486,0,0,1,.052-1.115,1.869,1.869,0,0,1,1.158-.369" transform="translate(-463.055 -547.266)" fill="#8da5aa"/>
          <path id="Trazado_1001338" data-name="Trazado 1001338" d="M574.4,902.782q21.375-.138,42.751,0l14.318.02c2.75-.01,5.6-.2,8.336-.019a2.837,2.837,0,0,1,1.807.528.755.755,0,0,1-.155.826,2.014,2.014,0,0,1-1.012.61,19.605,19.605,0,0,1-3.347.009l-8.593.008-50.545-.128c-2.257,0-14.906.3-16.263-.124l-.172-.377c.035-.434,0-.675.376-.965.7-.54,10.89-.362,12.5-.388" transform="translate(-463.788 -745.587)" fill="#8da5aa"/>
          <path id="Trazado_1001339" data-name="Trazado 1001339" d="M364.43,645.371c-5.306.058-10.619,0-15.926.009-2.907,0-6.213.305-9.073-.154a3.305,3.305,0,0,1-1.886-.968,3.4,3.4,0,0,1-.961-2.054c-.426-2.9-.023-6.274.01-9.215.039-3.451-.148-6.935-.014-10.38a3.289,3.289,0,0,1,3.032-3.836c2.871-.4,6.183-.084,9.1-.084,5.3,0,10.651-.164,15.939.083a5.1,5.1,0,0,1,2.2,2.659c-.785.665-1.623,1.314-2.344,2.046a6.619,6.619,0,0,0-.126-2.516c-.1-.094-.168-.226-.29-.283-.762-.354-20.648-.11-23.017-.072q-1.054.023-2.107.075a2.584,2.584,0,0,0-.485,1.494c-.254,2.508-.017,5.219-.032,7.756-.022,3.785-.36,8.084.047,11.817.029.268.106,1.1.358,1.234.05.026.387.152.446.174l-.118.009c2.953.528,22.658.667,24.976-.062,1.061-1.089.59-5.82.569-7.44-.026-1.988-.147-3.974-.173-5.96a6.433,6.433,0,0,1,2.017-1.266q-.02,4.572.009,9.144a28.516,28.516,0,0,1-.162,5.46,3.569,3.569,0,0,1-1.993,2.327" transform="translate(-277.84 -510.908)" fill="#375963"/>
          <path id="Trazado_1001340" data-name="Trazado 1001340" d="M335.948,1107.095a6.476,6.476,0,0,1,1.151-1.332,2.84,2.84,0,0,1,1.613-.662,52.551,52.551,0,0,1,5.6-.116l9.537,0c2.926-.005,7.736-.369,10.489.056a2.571,2.571,0,0,1,1.766,1.278,3.883,3.883,0,0,1-.726.986,3.9,3.9,0,0,1-1,.71l-.083-.06c-.217-.409-.412-.9-.888-1.049-1.269-.388-19.791-.2-22.31-.1a16.139,16.139,0,0,0-2.884.34c-.563.543-.565,2.368-.577,3.167-.045,2.943-.263,17.482.445,19.292a3.869,3.869,0,0,0,1.963.533c2.581.189,5.258-.036,7.854-.029,2.713.007,13.215.405,15.15-.061a.808.808,0,0,0,.678-.553c.63-1.255.3-13.232-.128-15a28.357,28.357,0,0,1,2.344-1.986c-.182,5.38.237,10.832-.083,16.184a3.109,3.109,0,0,1-1.114,2.637,2.227,2.227,0,0,1-1.361.555c-3.567.424-7.5.121-11.1.13-4.3.011-8.787.277-13.075-.025a3.567,3.567,0,0,1-2.639-1.536,2.635,2.635,0,0,1-.624-1.151c-.531-2.8-.1-7.6-.086-10.568.019-3.831-.277-7.821.087-11.631" transform="translate(-277.257 -912.533)" fill="#375963"/>
          <path id="Trazado_1001341" data-name="Trazado 1001341" d="M338.906,864.222l17.338.067c2.536-.005,6.492-.4,8.865.1a2.313,2.313,0,0,1,1.481,1.254,23.973,23.973,0,0,1-1.888,1.813,2.462,2.462,0,0,0-.746-1.272,28.494,28.494,0,0,0-4.735-.081l-7.95.048c-3.048.01-7.564-.267-10.429-.023a3.412,3.412,0,0,0-1.917.625,2.045,2.045,0,0,0-.613,1.3,45.351,45.351,0,0,0,.118,5.152c-.015,4.611-.29,9.348-.028,13.944a2.855,2.855,0,0,0,.418,1.615,3.955,3.955,0,0,0,1.8.506c2.575.2,5.273-.028,7.863-.022l10.018.038a23.736,23.736,0,0,0,5.206-.116.8.8,0,0,0,.659-.537c.523-1.1.2-12.721.1-14.637a2.424,2.424,0,0,1,.716-.724c.457-.339.759-.633,1.328-.568-.406,4.983.18,10.048-.088,15.036a3.838,3.838,0,0,1-.99,2.8,1.923,1.923,0,0,1-1.106.5c-3.4.419-8.6.082-12.26.082-3.8,0-8.441.378-12.158-.063a3.239,3.239,0,0,1-2.677-1.233,3.118,3.118,0,0,1-.633-1.621,84.081,84.081,0,0,1-.123-9.813c-.012-3.2-.383-8.485.146-11.506.228-1.3,1.282-1.941,2.278-2.663" transform="translate(-277.803 -713.732)" fill="#375963"/>
          <path id="Trazado_1001342" data-name="Trazado 1001342" d="M336.024,1347.186a5.426,5.426,0,0,1,1.344-1.473,2.664,2.664,0,0,1,1.481-.46c3.594-.229,7.336.035,10.947.039,2.569,0,13.235-.3,14.932.12.669.166.9.647,1.226,1.2-.495.52-1.233,1.4-1.951,1.534-.2-.36-.343-.878-.784-.976-.261-.058-22.564-.136-23.706-.013a2.154,2.154,0,0,0-1.192.5,2.2,2.2,0,0,0-.629,1.418c-.18,1.617.094,3.364.076,5.005-.052,4.755-.32,9.665-.023,14.4a1.634,1.634,0,0,0,2.256,1.9c3.256.228,6.645-.021,9.915-.008,2.665.011,10.7.443,12.917-.082a.871.871,0,0,0,.689-.432c.72-1.384.36-13.29.237-15.528a12.635,12.635,0,0,1,2.089-1.739c-.178,5.842-.062,11.708-.088,17.554a7.2,7.2,0,0,1-1.027,1.351,2.629,2.629,0,0,1-1.514.7,55.56,55.56,0,0,1-7.9.1l-17.227-.011a5.9,5.9,0,0,1-2.26-2.176c-.167-3.837-.021-7.738-.01-11.581.01-3.76-.141-7.594.209-11.337" transform="translate(-277.309 -1111.032)" fill="#375963"/>
          <path id="Trazado_1001343" data-name="Trazado 1001343" d="M339.93,401.535a6.891,6.891,0,0,1-1.09-.783,4.056,4.056,0,0,1-1.23-3.2c-.232-4.541-.013-9.191,0-13.743.006-2.473-.309-5.458.085-7.88a2.968,2.968,0,0,1,.854-1.62,8.949,8.949,0,0,1,2.888-.594c2.456-.176,23.727-.214,24.636.155,1.147.467,1.511,1.353,1.973,2.413a26.2,26.2,0,0,1-2.253,1.761c-.022-.742-.028-1.488-.083-2.228-2.936-.133-24.5-.532-25.713.107-.588,1.558-.55,18.8-.358,21.466a5.52,5.52,0,0,0,.372,1.715c.694.691,2.118.661,3.05.661q6.267-.061,12.533-.038c2.722.02,5.542.208,8.254.054a2.6,2.6,0,0,0,1.412-.34c.813-1.941.453-12,.377-14.645a5.793,5.793,0,0,1,1.9-1.682c.081,3.331.01,6.683.012,10.017a42.35,42.35,0,0,1-.1,6c-.182,1.245-.854,1.72-1.818,2.434-3.533.288-7.222.066-10.773.066-4.955,0-9.976.163-14.923-.092" transform="translate(-278.751 -308.559)" fill="#375963"/>
          <path id="Trazado_1001344" data-name="Trazado 1001344" d="M424.563,213.023q30.9.271,61.8.19l19.139-.047c2.929-.018,5.919-.211,8.842-.1l.207,1.824a6.5,6.5,0,0,1-.531,1.855,4,4,0,0,1-2.551,2.069c-1.86.463-5.009.168-7,.174l-14.935.02-39.925-.09c-6.819-.017-13.749.308-20.552-.066a5.113,5.113,0,0,1-2.58-.8,4.564,4.564,0,0,1-1.914-3.237,8.446,8.446,0,0,1-.008-1.787" transform="translate(-350.631 -175.946)" fill="#375963"/>
          <path id="Trazado_1001345" data-name="Trazado 1001345" d="M424.563,213.023q30.9.271,61.8.19l19.139-.047c2.929-.018,5.919-.211,8.842-.1l.207,1.824c-6.263.14-12.542.053-18.807.057l-32.149-.056-39.029-.081a8.446,8.446,0,0,1-.008-1.787" transform="translate(-350.631 -175.946)" fill="#192e35"/>
          <path id="Trazado_1001346" data-name="Trazado 1001346" d="M374.776,1344.189c.056-.016.113-.028.167-.047,1.7-.587,3.482-2.572,5.44-1.687.349.158.326.218.513.525-.1,1.916-4.522,5.666-5.958,6.955l-.27.24a12.62,12.62,0,0,0-2.089,1.739c.123,2.239.483,14.145-.237,15.528a.872.872,0,0,1-.689.432c-2.213.525-10.252.092-12.917.081-3.27-.013-6.659.236-9.915.008a1.634,1.634,0,0,1-2.256-1.9c-.3-4.737-.029-9.646.023-14.4.018-1.641-.255-3.388-.076-5a2.2,2.2,0,0,1,.629-1.418,2.151,2.151,0,0,1,1.192-.5c1.142-.123,23.445-.045,23.706.013.441.1.584.616.784.976.719-.134,1.457-1.014,1.951-1.534" transform="translate(-286.132 -1108.613)" fill="#fefefe"/>
          <path id="Trazado_1001347" data-name="Trazado 1001347" d="M390.272,1344.189c.056-.016.113-.028.167-.047,1.705-.587,3.482-2.572,5.44-1.687.349.158.326.218.513.525-.1,1.916-4.521,5.666-5.958,6.955l-.27.24a12.622,12.622,0,0,0-2.089,1.739c-4.376,2.917-8.1,6.833-12.449,9.811-4.087-3.066-4.612-5.77-10.437-6.379,1.9-1.025,3.908-1.6,5.559-3.063a16.551,16.551,0,0,0,4.874,2.809c3.362-1.528,5.989-3.932,8.83-6.241,1.283-1.042,2.655-2.006,3.868-3.129.719-.134,1.457-1.014,1.951-1.534" transform="translate(-301.628 -1108.613)" fill="#fe4f5a"/>
          <path id="Trazado_1001348" data-name="Trazado 1001348" d="M375.923,622.775c1.2-.81,3.976-2.84,5.517-2.549.482.091.532.235.8.611a2.659,2.659,0,0,1-.643,2.138c-.918,1.3-5.736,5.762-5.954,6.807a6.434,6.434,0,0,0-2.018,1.266c.026,1.986.147,3.972.173,5.96.021,1.62.492,6.351-.569,7.439-2.319.729-22.023.591-24.976.062l.118-.009c-.059-.022-.4-.148-.446-.175-.252-.134-.329-.966-.358-1.234-.406-3.733-.069-8.032-.047-11.817.015-2.537-.222-5.248.032-7.756a2.586,2.586,0,0,1,.485-1.494q1.053-.052,2.107-.075c2.37-.038,22.256-.282,23.017.072.123.057.194.189.29.283a6.623,6.623,0,0,1,.127,2.516c.721-.732,1.559-1.381,2.344-2.046" transform="translate(-286.907 -512.251)" fill="#fefefe"/>
          <path id="Trazado_1001349" data-name="Trazado 1001349" d="M392.319,622.775c1.2-.81,3.976-2.84,5.518-2.549.482.091.532.235.8.611a2.659,2.659,0,0,1-.643,2.138c-.918,1.3-5.736,5.762-5.954,6.807a6.435,6.435,0,0,0-2.018,1.266c-4.319,3.246-8.136,7.074-12.55,10.2-2.9-3.479-5.514-7.037-10.253-7.792a60.772,60.772,0,0,0,6.4-2.921,23.207,23.207,0,0,0,3.706,3.13,9.256,9.256,0,0,0,2.306-.361c1.787-.84,8.814-6.867,10.343-8.488.721-.732,1.559-1.381,2.344-2.046" transform="translate(-303.304 -512.251)" fill="#fe4f5a"/>
          <path id="Trazado_1001350" data-name="Trazado 1001350" d="M375.613,860.794a2.294,2.294,0,0,0,.287-.07c1.568-.6,3.5-2.882,5.411-2.392a1.518,1.518,0,0,1,.889.6,1.825,1.825,0,0,1-.218,1.5c-1.015,1.932-6.232,6.31-6.442,7.412-.569-.064-.871.229-1.328.568a2.424,2.424,0,0,0-.716.724c.1,1.916.418,13.542-.1,14.637a.8.8,0,0,1-.658.537,23.764,23.764,0,0,1-5.207.116l-10.018-.039c-2.59-.006-5.288.218-7.862.022a3.954,3.954,0,0,1-1.8-.507,2.853,2.853,0,0,1-.418-1.615c-.262-4.6.013-9.333.028-13.944a45.406,45.406,0,0,1-.118-5.152,2.046,2.046,0,0,1,.613-1.3,3.412,3.412,0,0,1,1.917-.624c2.865-.244,7.381.033,10.429.023l7.95-.047a28.448,28.448,0,0,1,4.735.08,2.465,2.465,0,0,1,.746,1.272,23.92,23.92,0,0,0,1.888-1.813" transform="translate(-286.826 -708.881)" fill="#fefefe"/>
          <path id="Trazado_1001351" data-name="Trazado 1001351" d="M391.543,860.794a2.292,2.292,0,0,0,.287-.07c1.568-.6,3.5-2.882,5.411-2.392a1.518,1.518,0,0,1,.889.6,1.825,1.825,0,0,1-.218,1.5c-1.015,1.932-6.232,6.31-6.442,7.412-.569-.064-.871.229-1.328.568a2.424,2.424,0,0,0-.716.724c-1.167.36-10.115,8.37-12.167,9.924-2.418-2.135-4.637-5.526-7.873-6.437a19.359,19.359,0,0,0-2.831-.419c2.171-.948,4.362-1.857,6.441-3a16.633,16.633,0,0,0,4.653,2.763,10.032,10.032,0,0,0,1.938-1.044c1.221-.855,9.336-7.4,10.067-8.326a23.919,23.919,0,0,0,1.888-1.813" transform="translate(-302.756 -708.881)" fill="#fe4f5a"/>
          <path id="Trazado_1001352" data-name="Trazado 1001352" d="M375.063,1104.246l.111.158,1.123-.763c.91-.625,2.683-1.546,3.836-1.261.5.123.545.213.81.614.081,1.274-.884,2.372-1.676,3.277-.959,1.1-3.1,3.514-4.363,4.157a28.375,28.375,0,0,0-2.344,1.986c.427,1.771.758,13.749.128,15a.807.807,0,0,1-.678.554c-1.935.467-12.437.068-15.15.061-2.6-.007-5.273.218-7.854.029a3.867,3.867,0,0,1-1.963-.533c-.708-1.81-.49-16.35-.445-19.292.012-.8.015-2.624.577-3.167a16.119,16.119,0,0,1,2.884-.34c2.518-.1,21.041-.284,22.31.1.476.146.671.639.888,1.049l.083.06a3.9,3.9,0,0,0,1-.711,3.882,3.882,0,0,0,.4-.464,3.832,3.832,0,0,0,.324-.521" transform="translate(-286.218 -910.465)" fill="#fefefe"/>
          <path id="Trazado_1001353" data-name="Trazado 1001353" d="M389.847,1104.246l.111.158,1.123-.763c.91-.625,2.683-1.546,3.836-1.261.5.123.545.213.81.614.081,1.274-.884,2.372-1.676,3.277-.959,1.1-3.1,3.514-4.363,4.157a28.375,28.375,0,0,0-2.344,1.986c-4.211,3.171-8.14,6.708-12.359,9.888-4.369-3.331-3.6-6.064-10.554-6.6a65.257,65.257,0,0,0,6.574-2.8,11.469,11.469,0,0,0,4.544,2.554c4.029-1.927,9.114-6.475,12.492-9.572l.083.06a3.9,3.9,0,0,0,1-.711,3.885,3.885,0,0,0,.726-.986" transform="translate(-301.002 -910.465)" fill="#fe4f5a"/>
          <path id="Trazado_1001354" data-name="Trazado 1001354" d="M377.611,381.645c1.125-.643,2.953-1.863,4.3-1.5a1.164,1.164,0,0,1,.708.495,1.427,1.427,0,0,1,.138,1.254c-.728,2.44-4.485,4.311-5.655,6.585a5.789,5.789,0,0,0-1.9,1.681c.076,2.642.436,12.7-.377,14.645a2.606,2.606,0,0,1-1.412.34c-2.712.154-5.532-.034-8.254-.054q-6.267-.023-12.533.038c-.932,0-2.356.03-3.05-.661a5.523,5.523,0,0,1-.372-1.715c-.192-2.669-.231-19.908.358-21.466,1.208-.639,22.777-.24,25.713-.107.055.741.062,1.486.083,2.228a26.235,26.235,0,0,0,2.253-1.761" transform="translate(-288.319 -313.924)" fill="#fefefe"/>
          <path id="Trazado_1001355" data-name="Trazado 1001355" d="M393.448,381.645c1.125-.643,2.953-1.863,4.3-1.5a1.164,1.164,0,0,1,.708.495,1.426,1.426,0,0,1,.138,1.254c-.728,2.44-4.485,4.311-5.655,6.585a5.79,5.79,0,0,0-1.9,1.681c-4.44,3.569-8.48,7.682-12.926,11.25a32.3,32.3,0,0,1-2.185-2.7,17.338,17.338,0,0,0-7.678-5.346,19.605,19.605,0,0,0,5.917-2.765c1.29,1.179,2.777,2.745,4.57,3.026a6.72,6.72,0,0,0,2.316-1.267c1.3-.966,9.574-8.1,10.139-8.951a26.248,26.248,0,0,0,2.253-1.761" transform="translate(-304.157 -313.924)" fill="#fe4f5a"/>
          <path id="Trazado_1001356" data-name="Trazado 1001356" d="M909.066,1259.105l.167-.3c.763,1.067,1.2,2.356,1.947,3.453,1.675,2.472,5.15,4.208,8.026,4.7a14.977,14.977,0,0,0,3.1.184c1.751,9.731,3.914,19.405,5.8,29.113.585,3.007,1.735,11.371,2.717,13.711.583,2.964.666,7.558,3.3,9.438a8.612,8.612,0,0,0,2.276,1.015c-1.7.2-3.3.823-5.034.9-4.4.189-9.807-2.783-12.976-5.636a21.087,21.087,0,0,1-5.446-7.291c-1.964-4.794-1.672-11.012-1.944-16.116l-.643-10.471-.1-1.745c-.2-6.971-.621-14-1.186-20.95" transform="translate(-750.841 -1039.707)" fill="#fe4f5a"/>
          <path id="Trazado_1001357" data-name="Trazado 1001357" d="M257.144,14.022A15.839,15.839,0,0,1,262.9,3.247,17.529,17.529,0,0,1,275.845.183a15.6,15.6,0,0,1,10.189,5.832,15.871,15.871,0,0,1,2.83,8.422q4.588.05,9.166.351c4.908.307,9.733.359,13.359,4.141l.24.256,1.767,0,.049.155c2.658-.173,5.374-.044,8.039-.034l12.857-.006,10.5-.008a44.447,44.447,0,0,1,6.839.2,11.756,11.756,0,0,1,6.046,2.693,11.591,11.591,0,0,1,4.071,8.382c.211,4.064-.03,8.206-.064,12.28l-.054,21.349-.128,79.135a55.9,55.9,0,0,0-10.647,5.117c.306-6.261.231-12.563.286-18.832l.248-27.393.484-65.921-34.777-.03v.852c-2.922-.112-5.913.081-8.841.1l-19.139.047q-30.9.081-61.8-.19l.089-.989-.521-.069q-15.309-.094-30.618-.025l-.763,161.234L195.062,263c-.027,6.379-.215,12.771-.164,19.148l103.438-.082,33.9.005,9.787-.03a73.816,73.816,0,0,1,8.651.109v.6c-1.243,2.788-1.537,6.063-2.367,9-3.585-.252-7.246-.091-10.843-.084l-20.722.008-84.432-.091H208.354c-3.94,0-8.2.308-12.117-.123a11.289,11.289,0,0,1-5.256-1.94,11.455,11.455,0,0,1-4.9-7.118,40.331,40.331,0,0,1-.288-7.538l.074-9.782q-.015-16.539.234-33.075l1.706-127.278.534-51.159q.046-6.9.16-13.8a61.69,61.69,0,0,1,.4-8.43c.494-3.166,3.248-8.419,5.734-10.448.867-.707,2.4-1.225,3.011-2.1-.317-.38-.822-.29-1.3-.334,2.715-.44,8.533-.072,11.494-.067l8.422.017a38.425,38.425,0,0,1,4.111.044c3.912-.243,7.907-.075,11.829-.108,4.753-4.366,11.974-4.322,18.01-4.322,2.308,0,4.623-.03,6.93.015" transform="translate(-153.429 0)" fill="#375963"/>
          <path id="Trazado_1001358" data-name="Trazado 1001358" d="M660.357,39.78a6.807,6.807,0,0,1,3.051.18,5.066,5.066,0,0,1,2.919,2.672,5.289,5.289,0,0,1,.008,4.248,5.528,5.528,0,0,1-3.421,2.909,6.587,6.587,0,0,1-2.939-.219,5.121,5.121,0,0,1-3.285-3.451,5.184,5.184,0,0,1-.12-.522,5.123,5.123,0,0,1-.066-.531,5.271,5.271,0,0,1-.01-.535,5.19,5.19,0,0,1,.5-2.067,5.258,5.258,0,0,1,3.361-2.685" transform="translate(-542.227 -32.786)" fill="#fefefe"/>
          <path id="Trazado_1001359" data-name="Trazado 1001359" d="M954.667,923.034l.141-.059c.027.075.051.151.083.225.511,1.174,2.839,1.686,3.535,3.353,1.631,3.906,2.719,10.053,3.7,14.341,1.246,5.431,2.644,10.829,3.824,16.275.176.813.2,2.662,1.043,3.007a2.775,2.775,0,0,0,.394.1l4.277-.3a50.641,50.641,0,0,1,6.644-.135c.949.055,2.013,1.179,2.7,1.789,2,1.772,3.811,3.8,5.71,5.686a104.012,104.012,0,0,0,14.139,12.154l.055.16c-.706,4.3-6.846,10.291-10.035,13.32-.413-.464-.794-.966-1.186-1.448a34.534,34.534,0,0,1-9.747-2.333c.835,2.9,1.38,5.881,2.215,8.775,1.089,5.8,2.658,11.559,4.06,17.287.717,2.93,1.923,6.352,1.924,9.351a5.437,5.437,0,0,1-.893,2.889,6.145,6.145,0,0,1-4.181,2.622c-.067.013-.135.02-.2.031l-33.555,6.865c-6.263,1.262-12.584,2.289-18.833,3.611-4.007.758-9.115,2.84-13.08,2.439a8.6,8.6,0,0,1-2.276-1.015c-2.631-1.88-2.714-6.474-3.3-9.438-.983-2.34-2.133-10.7-2.718-13.711-1.888-9.708-4.051-19.383-5.8-29.113a14.981,14.981,0,0,1-3.1-.185c-2.876-.49-6.351-2.226-8.026-4.7-.744-1.1-1.183-2.386-1.947-3.453l-.166.3a3.275,3.275,0,0,1-.123-.9c-.136-2.749-1.525-5.558-2.241-8.238a60.541,60.541,0,0,1-1.609-9.425,12.487,12.487,0,0,1,.022-1.907c.344-1.782.574-3.917,1.962-5.234,1.585-1.505,4.14-1.108,6.139-1.005-.49-5.542-2.366-11-2.762-16.572a4.524,4.524,0,0,1,1.465-3.825,64.67,64.67,0,0,1,7.159-1.226q4.963-.794,9.884-1.819a3.957,3.957,0,0,1,.388-1.266c1.239-2.106,4.98-1.895,7.11-2.461l.208-.058a8.623,8.623,0,0,0,.2-2.311c2.428-.6,4.922-.963,7.382-1.417,1.552-.286,3.119-.692,4.681-.9a4.709,4.709,0,0,0,.689,2.25,2.04,2.04,0,0,0,1.434-.094,16.715,16.715,0,0,1,7.523-1.255c.5.548.875,1.313,1.592,1.486a25.635,25.635,0,0,1,4.952-.954c2.863-.453,5.733-.862,8.547-1.572" transform="translate(-731.843 -762.33)" fill="#375963"/>
          <path id="Trazado_1001360" data-name="Trazado 1001360" d="M1047.475,930.305A16.714,16.714,0,0,1,1055,929.05c.5.548.875,1.313,1.591,1.486l.222.12a1.979,1.979,0,0,1-1.052-.193,1.523,1.523,0,0,0-.474-.109l-.035.4c.982,2.02,2.1,6.139,1.34,8.311a4.317,4.317,0,0,1-2.39,2.366c-2.283.941-5.885,1.113-8.376,1.579-4.518.844-9.149,2.064-13.71,2.58a6.762,6.762,0,0,1-3.078-.137c-1.348-.592-2.116-2.2-2.5-3.524a15.942,15.942,0,0,1-.708-5.193l.171-.262c.073-.115.142-.232.219-.345,1.279-1.9,5.23-2.139,7.333-2.517l.2.93c-.809,2.029-5.079.422-6.28,2.262-.717,1.1.312,3.8.633,4.972a2.9,2.9,0,0,0,1.377,1.914,3.1,3.1,0,0,0,1.806.286c3.592-.245,9.065-1.473,12.806-2.133,2.586-.456,7.534-1.008,9.834-1.884a1.972,1.972,0,0,0,.371-.192,1.915,1.915,0,0,0,.168-.124,1.938,1.938,0,0,0,.154-.141,2,2,0,0,0,.139-.156,1.955,1.955,0,0,0,.122-.17,1.914,1.914,0,0,0,.1-.182,1.95,1.95,0,0,0,.084-.192c.488-1.314-.19-5.205-.815-6.453-1.558-3.11-5.808.617-7.993-.182-.226-.326-.21-.3-.146-.7.456-.554.769-.531,1.451-.71Z" transform="translate(-847.264 -767.305)" fill="#fefefe"/>
          <path id="Trazado_1001361" data-name="Trazado 1001361" d="M1150.3,930.305a16.714,16.714,0,0,1,7.523-1.255c.5.548.875,1.313,1.591,1.486l.222.12a1.979,1.979,0,0,1-1.052-.193,1.525,1.525,0,0,0-.474-.109l-.034.4a3.793,3.793,0,0,0-.717-.547c-1.843-1.06-5.028.082-6.969.556Z" transform="translate(-950.085 -767.305)" fill="#192e35"/>
          <path id="Trazado_1001362" data-name="Trazado 1001362" d="M1096.357,1282.042c1.938,1.285,3.809,2.568,5.85,3.7.835,2.9,1.38,5.881,2.215,8.775,1.089,5.8,2.657,11.559,4.06,17.287.717,2.93,1.923,6.352,1.924,9.351a5.437,5.437,0,0,1-.893,2.888,6.144,6.144,0,0,1-4.181,2.622c-.067.013-.135.021-.2.031l-33.555,6.865c-6.263,1.262-12.584,2.289-18.833,3.611-4.008.758-9.115,2.84-13.08,2.439a8.611,8.611,0,0,1-2.276-1.015c-2.631-1.88-2.714-6.474-3.3-9.439,2.191.569,3.05,3.044,7.121,3.52,4.277.5,9.155-1.056,13.317-1.979,3.894-.863,7.827-1.656,11.688-2.654a212.374,212.374,0,0,0,29.627-10.01c2.562-1.1,5.448-2.139,7.658-3.861.076-3.948-1.564-8.22-2.539-12.038-.593-2.323-4.943-19.1-4.6-20.094" transform="translate(-854.102 -1058.9)" fill="#192e35"/>
          <path id="Trazado_1001363" data-name="Trazado 1001363" d="M894.217,1106.516c4.329.549,8.716.93,13.065,1.291,2.286.19,5.143.114,7.333.747a4.359,4.359,0,0,1,2.322,1.476,2.5,2.5,0,0,1,.541,1.8,2.18,2.18,0,0,1-1.071,1.51,5.875,5.875,0,0,1-3.822.549l-.313.4c2.02.172,4.842.21,6.255,1.878a2.6,2.6,0,0,1,.635,1.9,2.427,2.427,0,0,1-1,1.662,6.714,6.714,0,0,1-4.518,1l.009.379a2.756,2.756,0,0,1,1.881,1.251,2.714,2.714,0,0,1,.311.771,2.711,2.711,0,0,1,.07.551,2.758,2.758,0,0,1-.007.278,2.711,2.711,0,0,1-.036.276,2.651,2.651,0,0,1-.064.271,2.956,2.956,0,0,1-1.534,1.771c-1.8.932-4.088.864-6.058.906l-.1.3c1.236.257,3.347.485,4.038,1.726a1.645,1.645,0,0,1,.125,1.46,3.657,3.657,0,0,1-2.127,1.864,13.153,13.153,0,0,1-4.242.894c-1.038.392-3.356.428-4.063,1.058.5,2.251,1.025,4.5,1.46,6.766a14.977,14.977,0,0,1-3.1-.185c-2.876-.49-6.351-2.226-8.026-4.7-.744-1.1-1.183-2.386-1.947-3.453l-.166.3a3.277,3.277,0,0,1-.123-.9c-.136-2.749-1.525-5.558-2.241-8.238a60.541,60.541,0,0,1-1.609-9.425,12.486,12.486,0,0,1,.022-1.906c.344-1.782.574-3.917,1.962-5.234,1.585-1.505,4.14-1.108,6.139-1" transform="translate(-731.843 -913.822)" fill="#fe9d76"/>
          <path id="Trazado_1001364" data-name="Trazado 1001364" d="M952.758,1262.327c-.606-.637-3.87.408-4.912.188l-.144-.26.17-.258c1.079-.575,7.651-1.042,8.95-.729-1.038.392-3.356.428-4.064,1.059" transform="translate(-782.753 -1041.659)" fill="#cb7748"/>
          <path id="Trazado_1001365" data-name="Trazado 1001365" d="M937.624,1224.894c2.4-.039,6.551-.5,8.743-.029l-.1.3c-2.213.161-4.4.238-6.621.242a8.042,8.042,0,0,1-.913.087c-.882.039-5.618.334-6.164.1-.132-.058-.213-.2-.32-.293l.157.277.093.015-.153-.346c1.332-.582,3.767-.293,5.28-.35" transform="translate(-769.988 -1011.501)" fill="#bc333d"/>
          <path id="Trazado_1001366" data-name="Trazado 1001366" d="M951.051,1186.986c-5.6.256-13.033.043-18.647-.29a1.328,1.328,0,0,1-1.068-.472c.568-.263,17.562.223,19.707.383Z" transform="translate(-769.234 -979.696)" fill="#bc333d"/>
          <path id="Trazado_1001367" data-name="Trazado 1001367" d="M942.53,1143.27c-1.455.11-19.157-1.131-19.809-1.447l-.024-.247c1.577-.464,17.356.987,20.146,1.3Z" transform="translate(-762.1 -942.807)" fill="#bc333d"/>
          <path id="Trazado_1001368" data-name="Trazado 1001368" d="M1244.889,1134.647a50.642,50.642,0,0,1,6.644-.135c.949.055,2.013,1.179,2.7,1.789,2,1.772,3.811,3.8,5.71,5.686a104.029,104.029,0,0,0,14.14,12.154l.055.16c-.706,4.3-6.845,10.291-10.035,13.32-.413-.464-.794-.966-1.187-1.448a34.535,34.535,0,0,1-9.747-2.333c-2.041-1.13-3.912-2.413-5.85-3.7-6.06-1.85-12.716-2.389-18.94-3.615-1.963-.387-5.044-1.079-6.214-2.833-.033-.5.034-.51.339-.923l.21-.362a6.947,6.947,0,0,1-1.623-.067,1.89,1.89,0,0,1-1.36-.991c-.493-1.012-.038-2.216.263-3.215l-.133-.268a2.987,2.987,0,0,1-2.123-.327,2.006,2.006,0,0,1-.842-1.36,3.078,3.078,0,0,1,.588-2.228c.765-1.089,1.73-1.261,2.975-1.467v-.307c-.67-.3-1.662-.7-1.868-1.491a2.725,2.725,0,0,1,.534-2.175c1.437-1.681,18.2-3.345,21.49-3.568Z" transform="translate(-1005.065 -936.999)" fill="#fe9d76"/>
          <path id="Trazado_1001369" data-name="Trazado 1001369" d="M1331.8,1204.2c1.934-.017,8.583-.413,10.019.121-.958.719-9.236.4-10.869.439l-.112-.294Z" transform="translate(-1099.201 -994.476)" fill="#bc333d"/>
          <path id="Trazado_1001370" data-name="Trazado 1001370" d="M1234.086,1206.09c2.746-1.055,14.253-1.076,17.8-1.146l-.961.266.111.294c-1.707.224-3.49.165-5.214.218q-3.839.131-7.674.331a24.661,24.661,0,0,0-3.929.3Z" transform="translate(-1019.291 -995.221)" fill="#cb7748"/>
          <path id="Trazado_1001371" data-name="Trazado 1001371" d="M1249.487,1236.466c2.721-.533,6.128-.035,8.9.072,3,.034,14.548.505,16.712,1.347l-.011.065c-3.543.271-7.3-.256-10.851-.495-2.176-.147-4.432-.131-6.585-.432-2.761.1-5.6-.16-8.377-.2Z" transform="translate(-1031.838 -1021.057)" fill="#bc333d"/>
          <path id="Trazado_1001372" data-name="Trazado 1001372" d="M1237.517,1167.421a32.327,32.327,0,0,1,6.08-.877c6.227-.719,13.87-1.778,20.092-1.477a5.823,5.823,0,0,1-2.407.585c-1.112.137-2.224.1-3.339.181q-3.475.256-6.943.6c-4.342.43-8.858,1.252-13.21,1.3-.091,0-.182,0-.272-.005Z" transform="translate(-1022.125 -962.241)" fill="#bc333d"/>
        </g>
      </g>
    </g>
  </g>
</svg>
