<svg xmlns="http://www.w3.org/2000/svg" xmlns:xlink="http://www.w3.org/1999/xlink" width="103" height="103" viewBox="0 0 103 103">
  <defs>
    <filter id="Trazado_982547" x="0" y="0" width="103" height="103" filterUnits="userSpaceOnUse">
      <feOffset dy="3" input="SourceAlpha"/>
      <feGaussianBlur stdDeviation="3" result="blur"/>
      <feFlood flood-opacity="0.161"/>
      <feComposite operator="in" in2="blur"/>
      <feComposite in="SourceGraphic"/>
    </filter>
  </defs>
  <g id="Grupo_1165767" data-name="Grupo 1165767" transform="translate(-171 -4021.137)">
    <g id="Grupo_1165344" data-name="Grupo 1165344" transform="translate(180 4027.137)">
      <g id="Grupo_1163948" data-name="Grupo 1163948" transform="translate(0)">
        <g id="Grupo_1158168" data-name="Grupo 1158168" transform="translate(0)">
          <g id="Grupo_1152576" data-name="Grupo 1152576">
            <g id="Grupo_1148633" data-name="Grupo 1148633">
              <g id="Grupo_1148525" data-name="Grupo 1148525">
                <g transform="matrix(1, 0, 0, 1, -9, -6)" filter="url(#Trazado_982547)">
                  <g id="Trazado_982547-2" data-name="Trazado 982547" transform="translate(9 6)" fill="#e9f9fd">
                    <path d="M 42.5 83.5 C 36.96437835693359 83.5 31.59512901306152 82.41617584228516 26.54141235351562 80.27863311767578 C 21.65934181213379 78.21369171142578 17.27447128295898 75.25723266601562 13.50862312316895 71.49137878417969 C 9.742764472961426 67.72553253173828 6.786305904388428 63.34066009521484 4.721364498138428 58.45858764648438 C 2.583823442459106 53.40486907958984 1.5 48.03562164306641 1.5 42.5 C 1.5 36.96437835693359 2.583823442459106 31.59512901306152 4.721364498138428 26.54141235351562 C 6.786305904388428 21.65934181213379 9.742764472961426 17.27448272705078 13.50862312316895 13.50862312316895 C 17.27447128295898 9.742776870727539 21.65934181213379 6.786305904388428 26.54141235351562 4.721364498138428 C 31.59512901306152 2.583823442459106 36.96437835693359 1.5 42.5 1.5 C 48.03562164306641 1.5 53.40486907958984 2.583823442459106 58.45858764648438 4.721364498138428 C 63.34066009521484 6.786305904388428 67.72553253173828 9.742776870727539 71.49137878417969 13.50862312316895 C 75.25723266601562 17.27448272705078 78.21369171142578 21.65934181213379 80.27863311767578 26.54141235351562 C 82.41617584228516 31.59512901306152 83.5 36.96437835693359 83.5 42.5 C 83.5 48.03562164306641 82.41617584228516 53.40486907958984 80.27863311767578 58.45858764648438 C 78.21369171142578 63.34066009521484 75.25723266601562 67.72553253173828 71.49137878417969 71.49137878417969 C 67.72553253173828 75.25723266601562 63.34066009521484 78.21369171142578 58.45858764648438 80.27863311767578 C 53.40486907958984 82.41617584228516 48.03562164306641 83.5 42.5 83.5 Z" stroke="none"/>
                    <path d="M 42.5 3 C 37.16621398925781 3 31.99356079101562 4.043960571289062 27.125732421875 6.102882385253906 C 22.42246627807617 8.092185974121094 18.19785308837891 10.94070434570312 14.56928253173828 14.56928253173828 C 10.94070434570312 18.19785308837891 8.092185974121094 22.42246627807617 6.102882385253906 27.125732421875 C 4.043960571289062 31.99356079101562 3 37.16621398925781 3 42.5 C 3 47.83378601074219 4.043960571289062 53.00643920898438 6.102882385253906 57.87425231933594 C 8.092185974121094 62.57753372192383 10.94070434570312 66.80213165283203 14.56928253173828 70.43071746826172 C 18.19786834716797 74.05929565429688 22.42246627807617 76.90781402587891 27.125732421875 78.89711761474609 C 31.99356079101562 80.95603942871094 37.16621398925781 82 42.5 82 C 47.83378601074219 82 53.00642395019531 80.95603942871094 57.87425231933594 78.89711761474609 C 62.57753372192383 76.90781402587891 66.80213165283203 74.05929565429688 70.43071746826172 70.43071746826172 C 74.05929565429688 66.80213165283203 76.90781402587891 62.57753372192383 78.89711761474609 57.87425231933594 C 80.95603942871094 53.00642395019531 82 47.83378601074219 82 42.5 C 82 37.16621398925781 80.95603942871094 31.99356079101562 78.89711761474609 27.125732421875 C 76.90781402587891 22.42246627807617 74.05929565429688 18.19786834716797 70.43071746826172 14.56928253173828 C 66.80213165283203 10.94070434570312 62.57753372192383 8.092185974121094 57.87425231933594 6.102882385253906 C 53.00643920898438 4.043960571289062 47.83378601074219 3 42.5 3 M 42.5 0 C 65.97209167480469 0 85 19.02789306640625 85 42.5 C 85 65.97209167480469 65.97209167480469 85 42.5 85 C 19.02789306640625 85 0 65.97209167480469 0 42.5 C 0 19.02789306640625 19.02789306640625 0 42.5 0 Z" stroke="none" fill="#36ceef"/>
                  </g>
                </g>
              </g>
            </g>
          </g>
        </g>
      </g>
    </g>
    <g id="worker-insurance_15540148" transform="translate(172.607 4035.594)">
      <g id="Grupo_1165765" data-name="Grupo 1165765" transform="translate(18.323 4.744)">
        <g id="Grupo_1165761" data-name="Grupo 1165761" transform="translate(18.898 0)">
          <path id="Trazado_1001170" data-name="Trazado 1001170" d="M249.568,33.7a13.41,13.41,0,0,0-13.409-13.277h0A13.41,13.41,0,0,0,222.75,33.7Z" transform="translate(-217.931 -19.181)" fill="#ffd300"/>
          <path id="Trazado_1001171" data-name="Trazado 1001171" d="M215.618,297.249a5.68,5.68,0,0,0-4.007-4.121l-2.872-.791a5.4,5.4,0,0,1-3.967-5.208v-3.087h-8.5v3.087a5.4,5.4,0,0,1-3.967,5.208l-2.872.791a5.68,5.68,0,0,0-4.007,4.121l-3.13,12.744h36.455l-3.13-12.744Z" transform="translate(-182.293 -251.404)" fill="#fb5657"/>
          <path id="Trazado_1001172" data-name="Trazado 1001172" d="M232.727,314.6l1.746-1.565L233.8,310.3a5.68,5.68,0,0,0-4.007-4.121l-2.872-.791a5.4,5.4,0,0,1-3.555-3.142l-.37.392-.24.295-.131.244a10.48,10.48,0,0,1-3.922,3.782,10.43,10.43,0,0,1-3.586-3.257v-4.844l-.667.493v.83a5.4,5.4,0,0,1-3.967,5.208l-2.872.791a5.68,5.68,0,0,0-4.007,4.121l-.672,2.736,1.744,1.564.377,8.444H232.35Z" transform="translate(-200.476 -264.455)" fill="#d13b42"/>
          <path id="Trazado_1001173" data-name="Trazado 1001173" d="M294.248,291.561a16.684,16.684,0,0,0,5.555-.916,5.4,5.4,0,0,1-1.3-3.517v-3.087H290v3.087a5.4,5.4,0,0,1-1.3,3.517A16.684,16.684,0,0,0,294.248,291.561Z" transform="translate(-276.021 -251.403)" fill="#f7bfa9"/>
          <path id="Trazado_1001174" data-name="Trazado 1001174" d="M222.736,161.287v2.732a1.9,1.9,0,0,1,.416-.047h1.222a2.207,2.207,0,0,1,2.2,2.062h19.143a2.207,2.207,0,0,1,2.2-2.062h1.222a1.9,1.9,0,0,1,.416.047v-2.732Z" transform="translate(-217.919 -143.269)" fill="#417195"/>
          <path id="Trazado_1001175" data-name="Trazado 1001175" d="M298.855,284.042v3.087a5.4,5.4,0,0,1-.105,1.057l.15.055a10.8,10.8,0,0,0,3.758.673c.149,0,.3,0,.449-.009s.3.009.449.009a10.793,10.793,0,0,0,3.758-.673l.151-.056a5.4,5.4,0,0,1-.105-1.056v-3.087Z" transform="translate(-284.88 -251.403)" fill="#dd9b90"/>
          <path id="Trazado_1001176" data-name="Trazado 1001176" d="M259.121,161.287,257.64,171.6a5.654,5.654,0,0,1-3.634,4.5l-3.584,1.326a10.952,10.952,0,0,1-6.431,0l-3.584-1.326a5.654,5.654,0,0,1-3.634-4.5l-1.481-10.314Z" transform="translate(-228.979 -143.269)" fill="#ffd5ae"/>
          <path id="Trazado_1001177" data-name="Trazado 1001177" d="M259.121,161.287h-23.83l.411,2.858H258.71Z" transform="translate(-228.979 -143.269)" fill="#f7bfa9"/>
          <path id="Trazado_1001178" data-name="Trazado 1001178" d="M249.233,30.841h-6.509v-8.7a13.347,13.347,0,0,0-6.565-1.715h0a13.347,13.347,0,0,0-6.566,1.716v8.7h-6.508a13.445,13.445,0,0,0-.335,2.858h26.819a13.446,13.446,0,0,0-.335-2.858Z" transform="translate(-217.932 -19.18)" fill="#ffa400"/>
          <path id="Trazado_1001179" data-name="Trazado 1001179" d="M229.446,24.519h-9.7V11.429A1.429,1.429,0,0,0,218.313,10h-4.556a1.429,1.429,0,0,0-1.429,1.429v13.09h-9.7l-2.718,3.5h32.259l-2.718-3.5Z" transform="translate(-197.808 -10)" fill="#ffc200"/>
          <path id="Trazado_1001180" data-name="Trazado 1001180" d="M310,247.075h6.036v.412a3.019,3.019,0,0,1-3.018,3.018h0A3.019,3.019,0,0,1,310,247.487Z" transform="translate(-294.79 -218.839)" fill="#fb5657"/>
          <path id="Trazado_1001181" data-name="Trazado 1001181" d="M239.506,351.806a0,0,0,0,1,0,0l-3.76,3.372-.437,9.771H213.736l-.436-9.771-3.76-3.371a5.678,5.678,0,0,1,3.892-3.723l2.872-.792a5.527,5.527,0,0,0,.937-.354,5.408,5.408,0,0,0,.837-.509,13,13,0,0,0,6.443,5.544,12.992,12.992,0,0,0,6.443-5.544,0,0,0,0,0,0,0,5.368,5.368,0,0,0,1.776.863l2.872.792a5.681,5.681,0,0,1,3.892,3.721Z" transform="translate(-206.295 -306.361)" fill="#ffd300"/>
          <path id="Trazado_1001182" data-name="Trazado 1001182" d="M227.84,377.647l-.4-9.005L224,365.559a4.234,4.234,0,0,1,2.55-1.97l2.872-.792a6.964,6.964,0,0,0,.933-.331,14.014,14.014,0,0,0,6.427,4.982l.478.17.478-.17a14.009,14.009,0,0,0,6.427-4.982,6.805,6.805,0,0,0,.936.332l2.87.792a4.239,4.239,0,0,1,2.55,1.968l-3.439,3.084-.4,9.005Z" transform="translate(-219.032 -320.487)" fill="#ffe164"/>
          <g id="Grupo_1165760" data-name="Grupo 1165760" transform="translate(5.146 41.337)">
            <path id="Trazado_1001183" data-name="Trazado 1001183" d="M228.5,361.471l2.4-2.4-2-2-1.407.388a5.667,5.667,0,0,0-1.991,1.006Z" transform="translate(-225.499 -357.075)" fill="#fff9d6"/>
            <path id="Trazado_1001184" data-name="Trazado 1001184" d="M402.24,361.471l-2.4-2.4,2-2,1.407.388a5.668,5.668,0,0,1,1.991,1.006Z" transform="translate(-379.08 -357.075)" fill="#fff9d6"/>
            <path id="Trazado_1001185" data-name="Trazado 1001185" d="M264.246,440.3H242.019l.167,3.738H264.08Z" transform="translate(-240.051 -430.384)" fill="#fff9d6"/>
          </g>
          <path id="Trazado_1001186" data-name="Trazado 1001186" d="M428.911,183.828h-1.222a2.227,2.227,0,0,0-.246.015l-.632,4.4H428.6a2.209,2.209,0,0,0,2.209-2.209v-.312A1.9,1.9,0,0,0,428.911,183.828Z" transform="translate(-397.688 -163.125)" fill="#f7bfa9"/>
          <path id="Trazado_1001187" data-name="Trazado 1001187" d="M213.673,183.843a2.228,2.228,0,0,0-.245-.014h-1.222a1.9,1.9,0,0,0-1.9,1.9v.312a2.209,2.209,0,0,0,2.209,2.209h1.786Z" transform="translate(-206.973 -163.126)" fill="#f7bfa9"/>
          <path id="Trazado_1001188" data-name="Trazado 1001188" d="M1.429,0H4.361V4.361H1.429A1.43,1.43,0,0,1,0,2.932v-1.5A1.43,1.43,0,0,1,1.429,0Z" transform="matrix(-0.758, 0.653, -0.653, -0.758, 31.061, 7.302)" fill="#ffee93"/>
          <path id="Trazado_1001189" data-name="Trazado 1001189" d="M1.429,0H4.361V4.361H1.429A1.43,1.43,0,0,1,0,2.932v-1.5A1.43,1.43,0,0,1,1.429,0Z" transform="matrix(0.758, 0.653, -0.653, 0.758, 8.229, 3.994)" fill="#ffee93"/>
        </g>
        <g id="Grupo_1165764" data-name="Grupo 1165764" transform="translate(0 20.51)">
          <path id="Trazado_1001190" data-name="Trazado 1001190" d="M36.37,182.468a3.534,3.534,0,0,1,2.644,0l9.845,3.972a4.646,4.646,0,0,1,2.907,4.409c-.051,2.343-.163,5.642-.411,8.783a15.859,15.859,0,0,1-2.31,7.44,5.178,5.178,0,0,1-1.355,1.4c-1.872,1.322-7.333,5.012-10,5.012s-8.125-3.689-10-5.012a5.179,5.179,0,0,1-1.355-1.4,15.859,15.859,0,0,1-2.31-7.44c-.248-3.141-.36-6.44-.411-8.783a4.646,4.646,0,0,1,2.907-4.409Z" transform="translate(-23.617 -182.211)" fill="#3451c6"/>
          <path id="Trazado_1001191" data-name="Trazado 1001191" d="M48.262,222.629c-1.488,0-5.088-1.865-9.172-4.75a3.736,3.736,0,0,1-.982-1.015,14.49,14.49,0,0,1-2.084-6.773c-.249-3.149-.358-6.47-.407-8.7a3.233,3.233,0,0,1,2.013-3.053l9.845-3.972a2.1,2.1,0,0,1,1.575,0l9.845,3.972a3.233,3.233,0,0,1,2.013,3.053c-.048,2.231-.158,5.551-.407,8.7a14.49,14.49,0,0,1-2.084,6.773,3.736,3.736,0,0,1-.982,1.015c-4.084,2.886-7.685,4.75-9.172,4.75Z" transform="translate(-34.188 -192.782)" fill="#0087ff"/>
          <g id="Grupo_1165762" data-name="Grupo 1165762" transform="translate(0.66 0.001)">
            <path id="Trazado_1001192" data-name="Trazado 1001192" d="M136.507,188.371a.715.715,0,0,0,.715-.715v-5.366a3.533,3.533,0,0,0-1.429,0v5.366A.715.715,0,0,0,136.507,188.371Z" transform="translate(-123.092 -182.218)" fill="#0087ff"/>
            <path id="Trazado_1001193" data-name="Trazado 1001193" d="M33.229,227.75,30.077,224.6a4.651,4.651,0,0,0-.918,1.1l3.06,3.06a.715.715,0,0,0,1.011-1.011Z" transform="translate(-29.159 -219.551)" fill="#0087ff"/>
            <path id="Trazado_1001194" data-name="Trazado 1001194" d="M220.856,224.6l-3.287,3.287a.715.715,0,0,0,1.011,1.011l3.195-3.195A4.651,4.651,0,0,0,220.856,224.6Z" transform="translate(-194.945 -219.551)" fill="#0087ff"/>
            <path id="Trazado_1001195" data-name="Trazado 1001195" d="M136.507,401.314a.715.715,0,0,0-.715.715v4.392a3.482,3.482,0,0,0,1.429,0v-4.392a.715.715,0,0,0-.715-.715Z" transform="translate(-123.092 -375.219)" fill="#0087ff"/>
          </g>
          <path id="Trazado_1001196" data-name="Trazado 1001196" d="M59.036,231.946c-.04,0-1-.019-3.88-1.639-1.825-1.027-3.572-2.223-4.452-2.844a2.284,2.284,0,0,1-.6-.62,13.025,13.025,0,0,1-1.852-6.094c-.246-3.115-.355-6.406-.4-8.618a1.769,1.769,0,0,1,1.1-1.67l9.845-3.972a.647.647,0,0,1,.485,0l9.845,3.972a1.769,1.769,0,0,1,1.1,1.67c-.048,2.212-.157,5.5-.4,8.618a13.024,13.024,0,0,1-1.852,6.094,2.284,2.284,0,0,1-.6.62c-.879.621-2.627,1.817-4.452,2.844-2.879,1.62-3.84,1.639-3.88,1.639Z" transform="translate(-44.962 -203.556)" fill="#ffd300"/>
          <path id="Trazado_1001197" data-name="Trazado 1001197" d="M80.309,251.436a16.507,16.507,0,0,1-2.478-1.2c-1.658-.933-3.262-2.025-4.121-2.629a10.478,10.478,0,0,1-1.338-4.663c-.214-2.711-.322-5.568-.376-7.7l8.313-3.354,8.313,3.354c-.054,2.129-.163,4.986-.377,7.7a10.477,10.477,0,0,1-1.338,4.663c-.858.6-2.462,1.7-4.121,2.629A16.509,16.509,0,0,1,80.309,251.436Z" transform="translate(-66.234 -225.979)" fill="#ffee93"/>
          <g id="Grupo_1165763" data-name="Grupo 1165763" transform="translate(7.257 9.967)">
            <path id="Trazado_1001198" data-name="Trazado 1001198" d="M97.51,266.405a2.02,2.02,0,0,0-2.853.165l-4.869,5.469-1.776-1.776a2.021,2.021,0,0,0-2.858,2.858l3.291,3.29a2.033,2.033,0,0,0,2.938-.085l6.293-7.068a2.021,2.021,0,0,0-.165-2.853Z" transform="translate(-84.552 -265.894)" fill="#93cf00"/>
            <path id="Trazado_1001199" data-name="Trazado 1001199" d="M100.44,286.139a.544.544,0,0,1-.394-.147L96.758,282.7a.552.552,0,0,1-.162-.642.665.665,0,0,1,.559-.4.681.681,0,0,1,.439.206l2.824,2.824,5.877-6.6a.591.591,0,0,1,.883.787l-5.638,6.332-.021-.008-.654.767a.559.559,0,0,1-.425.17Z" transform="translate(-95.122 -276.464)" fill="#abe200"/>
          </g>
        </g>
      </g>
      <g id="Grupo_1165766" data-name="Grupo 1165766" transform="translate(17.608 4.033)">
        <path id="Trazado_1001200" data-name="Trazado 1001200" d="M79.377,268.412l3.286,3.286a2.76,2.76,0,0,0,3.992-.122l-.006-.005c.083-.082.17-.179.266-.287l6.023-6.765a2.748,2.748,0,0,0-.224-3.862h0a2.748,2.748,0,0,0-3.862.224l-4.366,4.9-1.241-1.241a2.735,2.735,0,0,0-3.868,3.868Zm1.018-2.85a1.264,1.264,0,0,1,1.85,0l1.766,1.766a.719.719,0,0,0,1.039-.03l4.869-5.469a1.306,1.306,0,1,1,1.951,1.737l-6.3,7.08a1.319,1.319,0,0,1-1.889.044l-3.28-3.28a1.264,1.264,0,0,1,0-1.85Z" transform="translate(-71.309 -229.488)" fill="#002356"/>
        <path id="Trazado_1001201" data-name="Trazado 1001201" d="M330.042,184.344a.715.715,0,0,0,.715-.715v-4.338h2.5a.715.715,0,0,0,0-1.429h-3.214a.715.715,0,0,0-.715.715v5.052A.715.715,0,0,0,330.042,184.344Z" transform="translate(-292.201 -157.16)" fill="#002356"/>
        <path id="Trazado_1001202" data-name="Trazado 1001202" d="M307.616,245.968a3.737,3.737,0,0,0,3.732-3.732v-.412a.715.715,0,0,0-.715-.715H304.6a.715.715,0,0,0-.715.715,3.782,3.782,0,0,0,3.732,4.144Zm2.283-3.429a2.305,2.305,0,0,1-4.567,0Z" transform="translate(-269.776 -212.873)" fill="#002356"/>
        <path id="Trazado_1001203" data-name="Trazado 1001203" d="M74.37,63.167c-.168-.5-3.3-13.95-3.551-13.934a6.4,6.4,0,0,0-3.38-3.207c-.968-.4-3.374-.871-4.328-1.31a4.715,4.715,0,0,1-2.627-3.441,16.735,16.735,0,0,1-.07-2.256l2.08-.77a6.363,6.363,0,0,0,4.094-5.067l.373-2.6H68.13a2.927,2.927,0,0,0,2.924-2.924,2.674,2.674,0,0,0-1.48-2.665V23.481h2a.715.715,0,0,0,.564-1.153l-2.576-3.316a14.155,14.155,0,0,0-1.494-5.951,2.146,2.146,0,0,0-.165-2.577l-.981-1.139A2.149,2.149,0,0,0,64.662,8.7a14.2,14.2,0,0,0-4.8-2.719,2.146,2.146,0,0,0-2.134-1.946H53.17A2.146,2.146,0,0,0,51.036,5.98a14.2,14.2,0,0,0-4.8,2.719,2.149,2.149,0,0,0-2.265.647l-.981,1.139a2.15,2.15,0,0,0-.165,2.579,14.157,14.157,0,0,0-1.493,5.947l-2.577,3.318a.715.715,0,0,0,.564,1.153h2v1.513a2.615,2.615,0,0,0-1.477,2.222l-5.86-2.364a4.228,4.228,0,0,0-3.179,0l-9.845,3.972a5.391,5.391,0,0,0-3.354,5.087c.049,2.259.161,5.624.413,8.824a16.651,16.651,0,0,0,2.424,7.774,5.867,5.867,0,0,0,1.542,1.6c6.333,4.475,9.24,5.143,10.409,5.143.868,0,2.7-.37,6.171-2.391l-2.041,8.309a.715.715,0,0,0,.694.885H73.676a.72.72,0,0,0,.694-.885ZM45.1,57.055l-.015-.344h9.652V59.02H45.184L45.1,57.055ZM39.584,52.55a24.045,24.045,0,0,1-6.473,3.184v-1.5a16.829,16.829,0,0,0,3.516-1.6c1.854-1.044,3.624-2.254,4.514-2.883a3,3,0,0,0,.788-.814A13.742,13.742,0,0,0,43.9,42.508c.247-3.132.357-6.438.4-8.659a2.448,2.448,0,0,0-.12-.807l1.1-1.1a4.489,4.489,0,0,1,.458,2.556c-.069,2.649-.171,5.24-.395,8.129a14.84,14.84,0,0,1-2.316,7.28,5.118,5.118,0,0,1-1.409,1.288c-.616.429-1.23.841-2.038,1.359ZM22.577,32.826l9.82-3.962,9.82,3.962a1.051,1.051,0,0,1,.654.992c-.048,2.2-.156,5.479-.4,8.578-.264,3.063-1.248,5.433-2.154,6.186-.868.613-2.592,1.793-4.39,2.8a11.722,11.722,0,0,1-3.53,1.545,11.721,11.721,0,0,1-3.529-1.545c-1.8-1.012-3.522-2.192-4.39-2.8-.908-.755-1.889-3.124-2.154-6.186-.245-3.1-.353-6.376-.4-8.578a1.051,1.051,0,0,1,.654-.992ZM60.8,44.813q.08.08.163.156A12.219,12.219,0,0,1,55.448,49.6a12.275,12.275,0,0,1-5.513-4.631q.083-.077.163-.156a18.19,18.19,0,0,0,10.7,0ZM50.477,40.677a4.719,4.719,0,0,1-3.437,4.315l-.6.167a57.377,57.377,0,0,0,.637-7.591,18.4,18.4,0,0,0,3.41,1.451c0,.13,0,1.572,0,1.658Zm-5.358,8.459a15.715,15.715,0,0,0,.773-1.912l.861.861L45.368,49.47l-.276-.276.027-.058Zm-1.83,2.59a5.89,5.89,0,0,0,1.074-1.24l.5.5a.719.719,0,0,0,1.011,0l2.4-2.4a.714.714,0,0,0,0-1.011l-1.132-1.132a6.774,6.774,0,0,0,1.638-.633,13.618,13.618,0,0,0,5.957,5.038v4.429H45.017l-.078-1.747a.715.715,0,0,0-.237-.5l-1.436-1.288.023-.021Zm12.873,4.985h9.652l-.1,2.309H56.162Zm10.031-3.677a.715.715,0,0,0-.237.5l-.078,1.747H56.162V50.853a13.618,13.618,0,0,0,5.957-5.039,6.765,6.765,0,0,0,1.638.633l-1.132,1.132a.714.714,0,0,0,0,1.011l2.4,2.4a.715.715,0,0,0,1.011,0l2.527-2.527a4.9,4.9,0,0,1,1.03,1.531Zm-.851-6.15a9.381,9.381,0,0,1,2.063.707L65.527,49.47l-1.385-1.385,1.2-1.2Zm-6.356-7.337c0,.334-.012,1.075.019,1.4a6.133,6.133,0,0,0,.846,2.663,16.9,16.9,0,0,1-8.8,0,6.133,6.133,0,0,0,.846-2.663c.031-.318.016-1.068.019-1.4a8.644,8.644,0,0,0,3.537.555,8.74,8.74,0,0,0,3.538-.556ZM69.625,27.659a1.5,1.5,0,0,1-1.495,1.495h-.963l.429-2.988a8.743,8.743,0,0,1,1.109.03,1.183,1.183,0,0,1,.92,1.151ZM61.681,11.033a.719.719,0,0,0-.075,1.008l2.846,3.3a.712.712,0,0,0,.546.248.721.721,0,0,0,.462-.173L66.989,14.1a12.733,12.733,0,0,1,1.126,4.448H59.87V7.5a12.777,12.777,0,0,1,3.559,2.033l-1.747,1.505Zm3.674-1a.71.71,0,0,1,.488.246l.981,1.139a.715.715,0,0,1-.075,1.008l-1.68,1.447L63.155,11.65l1.68-1.447a.719.719,0,0,1,.519-.171ZM53.17,5.463h4.556a.715.715,0,0,1,.715.715V18.552H52.455s0-12.045,0-12.045v-.33a.715.715,0,0,1,.715-.715Zm-9.1,5.954.981-1.139A.715.715,0,0,1,46.06,10.2l1.68,1.447-1.914,2.222-1.68-1.447a.718.718,0,0,1-.075-1.008Zm-.164,2.688,1.528,1.316a.716.716,0,0,0,1.008-.075l2.846-3.3a.719.719,0,0,0-.075-1.008l-1.747-1.5A12.78,12.78,0,0,1,51.026,7.5V18.552H42.782a12.734,12.734,0,0,1,1.126-4.447Zm-1.521,5.876H68.509l1.608,2.07H40.778Zm25.758,3.5v1.256h-.923c-.443-.024-.88.139-.954.628l-1.094,7.614A4.935,4.935,0,0,1,62,36.909c-.32.118-3.872,1.449-4.1,1.493a7.449,7.449,0,0,1-2.493.273,7.221,7.221,0,0,1-2.927-.439L48.9,36.909a4.955,4.955,0,0,1-1.761-1.125c.014-.908.079-1.621.031-2.437a5.379,5.379,0,0,0-1.92-3.678l-.618-4.305c-.075-.489-.51-.652-.952-.627h-.923V23.481H68.145ZM41.278,27.794c-.013-.089,0-.353-.006-.447a1.183,1.183,0,0,1,.919-1.151,8.728,8.728,0,0,1,1.108-.03l.373,2.594-2.394-.966ZM43.3,30.15a3.894,3.894,0,0,1,1.087.667L43.35,31.85a2.447,2.447,0,0,0-.6-.349l-9.64-3.889V26.068a2.837,2.837,0,0,1,.34.11L43.3,30.15Zm-21.8,0,9.845-3.972a2.843,2.843,0,0,1,.34-.11v1.544L22.043,31.5a2.446,2.446,0,0,0-.6.349L20.41,30.817A3.892,3.892,0,0,1,21.5,30.15Zm.146,19.58a15.21,15.21,0,0,1-2.2-7.107c-.25-3.166-.36-6.5-.409-8.742a3.916,3.916,0,0,1,.473-1.943l1.1,1.1a2.448,2.448,0,0,0-.12.807c.048,2.221.157,5.525.4,8.659a13.741,13.741,0,0,0,1.966,6.427,3,3,0,0,0,.788.814c.89.629,2.66,1.84,4.514,2.883a16.827,16.827,0,0,0,3.516,1.6v1.5c-2.169-.457-5.89-2.689-8.87-4.8a4.445,4.445,0,0,1-1.169-1.209ZM40.3,53.8q.841-.538,1.786-1.189l1.439,1.29.389,8.724H38.132Zm4.948,6.652h9.485v2.173H45.345Zm10.914,2.173V60.449h9.485l-.1,2.173Zm10.819,0L67.37,53.9l2.664-2.389,2.73,11.113Z" transform="translate(-17.608 -4.033)" fill="#002356"/>
      </g>
    </g>
  </g>
</svg>
