<svg xmlns="http://www.w3.org/2000/svg" xmlns:xlink="http://www.w3.org/1999/xlink" width="103" height="103" viewBox="0 0 103 103">
  <defs>
    <filter id="Trazado_982547" x="0" y="0" width="103" height="103" filterUnits="userSpaceOnUse">
      <feOffset dy="3" input="SourceAlpha"/>
      <feGaussianBlur stdDeviation="3" result="blur"/>
      <feFlood flood-opacity="0.161"/>
      <feComposite operator="in" in2="blur"/>
      <feComposite in="SourceGraphic"/>
    </filter>
  </defs>
  <g id="Grupo_1165833" data-name="Grupo 1165833" transform="translate(-171 -6326)">
    <g id="Grupo_1165366" data-name="Grupo 1165366" transform="translate(180 6332)">
      <g id="Grupo_1163948" data-name="Grupo 1163948" transform="translate(0)">
        <g id="Grupo_1158168" data-name="Grupo 1158168" transform="translate(0)">
          <g id="Grupo_1152576" data-name="Grupo 1152576">
            <g id="Grupo_1148633" data-name="Grupo 1148633">
              <g id="Grupo_1148525" data-name="Grupo 1148525">
                <g transform="matrix(1, 0, 0, 1, -9, -6)" filter="url(#Trazado_982547)">
                  <g id="Trazado_982547-2" data-name="Trazado 982547" transform="translate(9 6)" fill="#e9f9fd">
                    <path d="M 42.5 83.5 C 36.96437835693359 83.5 31.59512901306152 82.41617584228516 26.54141235351562 80.27863311767578 C 21.65934181213379 78.21369171142578 17.27447128295898 75.25723266601562 13.50862312316895 71.49137878417969 C 9.742764472961426 67.72553253173828 6.786305904388428 63.34066009521484 4.721364498138428 58.45858764648438 C 2.583823442459106 53.40486907958984 1.5 48.03562164306641 1.5 42.5 C 1.5 36.96437835693359 2.583823442459106 31.59512901306152 4.721364498138428 26.54141235351562 C 6.786305904388428 21.65934181213379 9.742764472961426 17.27448272705078 13.50862312316895 13.50862312316895 C 17.27447128295898 9.742776870727539 21.65934181213379 6.786305904388428 26.54141235351562 4.721364498138428 C 31.59512901306152 2.583823442459106 36.96437835693359 1.5 42.5 1.5 C 48.03562164306641 1.5 53.40486907958984 2.583823442459106 58.45858764648438 4.721364498138428 C 63.34066009521484 6.786305904388428 67.72553253173828 9.742776870727539 71.49137878417969 13.50862312316895 C 75.25723266601562 17.27448272705078 78.21369171142578 21.65934181213379 80.27863311767578 26.54141235351562 C 82.41617584228516 31.59512901306152 83.5 36.96437835693359 83.5 42.5 C 83.5 48.03562164306641 82.41617584228516 53.40486907958984 80.27863311767578 58.45858764648438 C 78.21369171142578 63.34066009521484 75.25723266601562 67.72553253173828 71.49137878417969 71.49137878417969 C 67.72553253173828 75.25723266601562 63.34066009521484 78.21369171142578 58.45858764648438 80.27863311767578 C 53.40486907958984 82.41617584228516 48.03562164306641 83.5 42.5 83.5 Z" stroke="none"/>
                    <path d="M 42.5 3 C 37.16621398925781 3 31.99356079101562 4.043960571289062 27.125732421875 6.102882385253906 C 22.42246627807617 8.092185974121094 18.19785308837891 10.94070434570312 14.56928253173828 14.56928253173828 C 10.94070434570312 18.19785308837891 8.092185974121094 22.42246627807617 6.102882385253906 27.125732421875 C 4.043960571289062 31.99356079101562 3 37.16621398925781 3 42.5 C 3 47.83378601074219 4.043960571289062 53.00643920898438 6.102882385253906 57.87425231933594 C 8.092185974121094 62.57753372192383 10.94070434570312 66.80213165283203 14.56928253173828 70.43071746826172 C 18.19786834716797 74.05929565429688 22.42246627807617 76.90781402587891 27.125732421875 78.89711761474609 C 31.99356079101562 80.95603942871094 37.16621398925781 82 42.5 82 C 47.83378601074219 82 53.00642395019531 80.95603942871094 57.87425231933594 78.89711761474609 C 62.57753372192383 76.90781402587891 66.80213165283203 74.05929565429688 70.43071746826172 70.43071746826172 C 74.05929565429688 66.80213165283203 76.90781402587891 62.57753372192383 78.89711761474609 57.87425231933594 C 80.95603942871094 53.00642395019531 82 47.83378601074219 82 42.5 C 82 37.16621398925781 80.95603942871094 31.99356079101562 78.89711761474609 27.125732421875 C 76.90781402587891 22.42246627807617 74.05929565429688 18.19786834716797 70.43071746826172 14.56928253173828 C 66.80213165283203 10.94070434570312 62.57753372192383 8.092185974121094 57.87425231933594 6.102882385253906 C 53.00643920898438 4.043960571289062 47.83378601074219 3 42.5 3 M 42.5 0 C 65.97209167480469 0 85 19.02789306640625 85 42.5 C 85 65.97209167480469 65.97209167480469 85 42.5 85 C 19.02789306640625 85 0 65.97209167480469 0 42.5 C 0 19.02789306640625 19.02789306640625 0 42.5 0 Z" stroke="none" fill="#36ceef"/>
                  </g>
                </g>
              </g>
            </g>
          </g>
        </g>
      </g>
    </g>
    <g id="evaluation_7650845" transform="translate(195.659 6346.455)">
      <g id="Grupo_1165809" data-name="Grupo 1165809" transform="translate(2.464 1.884)">
        <g id="Grupo_1165781" data-name="Grupo 1165781" transform="translate(0)">
          <path id="Trazado_1001373" data-name="Trazado 1001373" d="M6.758,9.527a3.342,3.342,0,0,1,3.34-3.34H37.82V5.34A3.331,3.331,0,0,0,34.479,2H5.929A3.344,3.344,0,0,0,2.58,5.34V46.906a3.342,3.342,0,0,0,3.34,3.34h.837Z" transform="translate(-2.58 -2)" fill="#8aba55"/>
        </g>
        <g id="Grupo_1165782" data-name="Grupo 1165782" transform="translate(21.802)" opacity="0.3">
          <path id="Trazado_1001374" data-name="Trazado 1001374" d="M38.457,2H28.36a2.887,2.887,0,0,0,2.884,2.884h7.67v5.607A2.887,2.887,0,0,0,41.8,13.374h.008V5.34A3.344,3.344,0,0,0,38.457,2Z" transform="translate(-28.36 -2)" fill="#fff"/>
        </g>
        <g id="Grupo_1165783" data-name="Grupo 1165783" transform="translate(4.186 4.178)">
          <path id="Trazado_1001375" data-name="Trazado 1001375" d="M39.421,6.94H10.87a3.342,3.342,0,0,0-3.34,3.34V51.846a3.342,3.342,0,0,0,3.34,3.34H39.429a3.342,3.342,0,0,0,3.34-3.34V10.289A3.346,3.346,0,0,0,39.421,6.94Z" transform="translate(-7.53 -6.94)" fill="#e2e2e2"/>
        </g>
        <g id="Grupo_1165784" data-name="Grupo 1165784" transform="translate(7.713 21.193)">
          <path id="Trazado_1001376" data-name="Trazado 1001376" d="M11.7,27.06h7.011v7.011H11.7Z" transform="translate(-11.7 -27.06)" fill="#ef4a51"/>
        </g>
        <g id="Grupo_1165785" data-name="Grupo 1165785" transform="translate(7.713 31.239)">
          <path id="Trazado_1001377" data-name="Trazado 1001377" d="M11.7,38.94h7.011v7.011H11.7Z" transform="translate(-11.7 -38.94)" fill="#ffab03"/>
        </g>
        <g id="Grupo_1165786" data-name="Grupo 1165786" transform="translate(7.713 41.295)">
          <path id="Trazado_1001378" data-name="Trazado 1001378" d="M11.7,50.83h7.011v7.011H11.7Z" transform="translate(-11.7 -50.83)" fill="#7cb5e8"/>
        </g>
        <g id="Grupo_1165787" data-name="Grupo 1165787" transform="translate(7.713 41.295)">
          <path id="Trazado_1001379" data-name="Trazado 1001379" d="M11.7,50.83h7.011v7.011H11.7Z" transform="translate(-11.7 -50.83)" fill="#7cb5e8"/>
        </g>
        <g id="Grupo_1165788" data-name="Grupo 1165788" transform="translate(10.25 41.295)" opacity="0.3">
          <path id="Trazado_1001380" data-name="Trazado 1001380" d="M14.7,53.612A1.7,1.7,0,0,0,16.391,55.3h2.782V50.83H14.7Z" transform="translate(-14.7 -50.83)" fill="#fff"/>
        </g>
        <g id="Grupo_1165789" data-name="Grupo 1165789" transform="translate(10.25 31.239)" opacity="0.3">
          <path id="Trazado_1001381" data-name="Trazado 1001381" d="M14.7,41.722a1.7,1.7,0,0,0,1.691,1.691h2.782V38.94H14.7Z" transform="translate(-14.7 -38.94)" fill="#fff"/>
        </g>
        <g id="Grupo_1165790" data-name="Grupo 1165790" transform="translate(10.25 21.184)" opacity="0.3">
          <path id="Trazado_1001382" data-name="Trazado 1001382" d="M14.7,29.832a1.7,1.7,0,0,0,1.691,1.691h2.782V27.05H14.7Z" transform="translate(-14.7 -27.05)" fill="#fff"/>
        </g>
        <g id="Grupo_1165791" data-name="Grupo 1165791" transform="translate(15.704 4.178)" opacity="0.3">
          <path id="Trazado_1001383" data-name="Trazado 1001383" d="M41.522,6.94H21.15V17.57a14,14,0,0,0,14,14h9.725V10.289A3.346,3.346,0,0,0,41.522,6.94Z" transform="translate(-21.15 -6.94)" fill="#fff"/>
        </g>
        <g id="Grupo_1165792" data-name="Grupo 1165792" transform="translate(23.332 4.186)" opacity="0.5">
          <path id="Trazado_1001384" data-name="Trazado 1001384" d="M42.914,6.95H30.17a3.454,3.454,0,0,0,3.45,3.45H42.8v6.715a3.454,3.454,0,0,0,3.45,3.45h.008V10.29A3.344,3.344,0,0,0,42.914,6.95Z" transform="translate(-30.17 -6.95)" fill="#fff"/>
        </g>
        <g id="Grupo_1165793" data-name="Grupo 1165793" transform="translate(22.115 19.07)">
          <circle id="Elipse_11728" data-name="Elipse 11728" cx="10.875" cy="10.875" r="10.875" fill="#fff"/>
        </g>
        <g id="Grupo_1165794" data-name="Grupo 1165794" transform="translate(24.876 21.835)">
          <path id="Trazado_1001385" data-name="Trazado 1001385" d="M40.109,44.057a8.119,8.119,0,1,0-5.742-2.376A8.066,8.066,0,0,0,40.109,44.057Z" transform="translate(-31.995 -27.82)" fill="#7cb5e8"/>
        </g>
        <g id="Grupo_1165795" data-name="Grupo 1165795" transform="translate(27.515 21.827)" opacity="0.3">
          <path id="Trazado_1001386" data-name="Trazado 1001386" d="M40.591,27.81a8.063,8.063,0,0,0-4.262,1.218A8.114,8.114,0,0,0,47.5,40.2,8.114,8.114,0,0,0,40.591,27.81Z" transform="translate(-35.116 -27.81)" fill="#fff"/>
        </g>
        <g id="Grupo_1165796" data-name="Grupo 1165796" transform="translate(41.227 38.174)">
          <path id="Trazado_1001387" data-name="Trazado 1001387" d="M54.129,47.622l-2.317,2.317a2.487,2.487,0,0,1-.482.364l6.4,6.4a2.236,2.236,0,0,0,3.163-3.163l-6.4-6.4A2.255,2.255,0,0,1,54.129,47.622Z" transform="translate(-51.33 -47.14)" fill="#ef4a51"/>
        </g>
        <g id="Grupo_1165797" data-name="Grupo 1165797" transform="translate(42.521 38.182)" opacity="0.3">
          <path id="Trazado_1001388" data-name="Trazado 1001388" d="M54.729,47.15a2.774,2.774,0,0,1-.364.482L52.86,49.137l5.116,5.116a2.241,2.241,0,0,0,3.163,0,2.716,2.716,0,0,0,.288-.347,2.235,2.235,0,0,0-.288-.347Z" transform="translate(-52.86 -47.15)" fill="#e2e2e2"/>
        </g>
        <g id="Grupo_1165798" data-name="Grupo 1165798" transform="translate(37.142 34.098)">
          <path id="Trazado_1001389" data-name="Trazado 1001389" d="M50.043,45.863A10.659,10.659,0,0,0,52.4,42.32l.981.981a2.537,2.537,0,0,1,0,3.586L51.067,49.2a2.537,2.537,0,0,1-3.586,0l-.981-.981a11.014,11.014,0,0,0,3.543-2.359Z" transform="translate(-46.5 -42.32)" fill="#4e6575"/>
        </g>
        <g id="Grupo_1165799" data-name="Grupo 1165799" transform="translate(38.326 34.089)" opacity="0.3">
          <path id="Trazado_1001390" data-name="Trazado 1001390" d="M51.274,47.452l2.317-2.317a2.546,2.546,0,0,0,.584-.922,2.546,2.546,0,0,0-.584-.922l-.981-.981a11.014,11.014,0,0,1-2.359,3.543A10.682,10.682,0,0,1,47.9,47.629a2.536,2.536,0,0,0,3.374-.178Z" transform="translate(-47.9 -42.31)" fill="#e2e2e2"/>
        </g>
        <g id="Grupo_1165802" data-name="Grupo 1165802" transform="translate(17.903 6.715)">
          <g id="Grupo_1165800" data-name="Grupo 1165800">
            <path id="Trazado_1001391" data-name="Trazado 1001391" d="M27.649,9.94l1.209,2.444,2.7.389-1.954,1.9.457,2.689L27.649,16.1l-2.41,1.269.457-2.689-1.945-1.9,2.689-.389Z" transform="translate(-23.75 -9.94)" fill="#ffab03"/>
          </g>
          <g id="Grupo_1165801" data-name="Grupo 1165801" transform="translate(2.03)" opacity="0.3">
            <path id="Trazado_1001392" data-name="Trazado 1001392" d="M29.228,12.384,28.019,9.94,26.81,12.384l-.66.093a3.918,3.918,0,0,0,3.78,2.935c.051,0,.1-.017.152-.017l-.127-.719,1.954-1.9Z" transform="translate(-26.15 -9.94)" fill="#fff"/>
          </g>
        </g>
        <g id="Grupo_1165805" data-name="Grupo 1165805" transform="translate(9.379 9.691)">
          <g id="Grupo_1165803" data-name="Grupo 1165803">
            <path id="Trazado_1001393" data-name="Trazado 1001393" d="M17.577,13.46l1.2,2.444,2.7.389-1.954,1.9.465,2.689-2.41-1.269-2.419,1.269.465-2.689-1.954-1.9,2.7-.389Z" transform="translate(-13.67 -13.46)" fill="#ffab03"/>
          </g>
          <g id="Grupo_1165804" data-name="Grupo 1165804" transform="translate(2.03)" opacity="0.3">
            <path id="Trazado_1001394" data-name="Trazado 1001394" d="M19.148,15.9,17.939,13.46,16.73,15.9,16.07,16a3.918,3.918,0,0,0,3.78,2.935c.051,0,.1-.017.152-.017l-.127-.719,1.954-1.9Z" transform="translate(-16.07 -13.46)" fill="#fff"/>
          </g>
        </g>
        <g id="Grupo_1165808" data-name="Grupo 1165808" transform="translate(26.419 9.691)">
          <g id="Grupo_1165806" data-name="Grupo 1165806">
            <path id="Trazado_1001395" data-name="Trazado 1001395" d="M37.727,13.46l1.2,2.444,2.7.389-1.954,1.9.465,2.689-2.41-1.269-2.419,1.269.465-2.689-1.954-1.9,2.7-.389Z" transform="translate(-33.82 -13.46)" fill="#ffab03"/>
          </g>
          <g id="Grupo_1165807" data-name="Grupo 1165807" transform="translate(2.03)" opacity="0.3">
            <path id="Trazado_1001396" data-name="Trazado 1001396" d="M39.3,15.9,38.089,13.46,36.88,15.9,36.22,16A3.918,3.918,0,0,0,40,18.932c.051,0,.1-.017.152-.017l-.127-.719,1.954-1.9Z" transform="translate(-36.22 -13.46)" fill="#fff"/>
          </g>
        </g>
      </g>
      <g id="Grupo_1165832" data-name="Grupo 1165832" transform="translate(1.83 1.25)">
        <g id="Grupo_1165810" data-name="Grupo 1165810" transform="translate(22.121 19.085)">
          <path id="Trazado_1001397" data-name="Trazado 1001397" d="M39.491,46.822a11.5,11.5,0,1,1,8.135-3.366A11.481,11.481,0,0,1,39.491,46.822Zm0-21.742a10.233,10.233,0,1,0,7.239,2.994A10.206,10.206,0,0,0,39.491,25.08Z" transform="translate(-27.988 -23.817)"/>
        </g>
        <g id="Grupo_1165811" data-name="Grupo 1165811" transform="translate(24.864 21.835)">
          <path id="Trazado_1001398" data-name="Trazado 1001398" d="M39.991,44.576A8.757,8.757,0,0,1,32.211,31.8a.634.634,0,1,1,1.125.584,7.472,7.472,0,1,0,1.353-1.852.634.634,0,0,1-.9-.9,8.755,8.755,0,1,1,6.2,14.943Z" transform="translate(-31.231 -27.07)"/>
        </g>
        <g id="Grupo_1165812" data-name="Grupo 1165812" transform="translate(41.23 38.186)">
          <path id="Trazado_1001399" data-name="Trazado 1001399" d="M59.2,57.893a2.819,2.819,0,0,1-2.03-.846l-6.4-6.4a.629.629,0,0,1-.178-.524.648.648,0,0,1,.3-.465,1.848,1.848,0,0,0,.355-.271l2.317-2.317a1.774,1.774,0,0,0,.271-.355.634.634,0,0,1,.989-.127l6.4,6.4a2.875,2.875,0,0,1-2.021,4.9Zm-7.036-7.636,5.9,5.9a1.634,1.634,0,0,0,2.266,0,1.6,1.6,0,0,0,0-2.266l-5.9-5.9Z" transform="translate(-50.584 -46.404)"/>
        </g>
        <g id="Grupo_1165813" data-name="Grupo 1165813" transform="translate(37.133 34.085)">
          <path id="Trazado_1001400" data-name="Trazado 1001400" d="M49.148,50.456a3.148,3.148,0,0,1-2.241-.93l-.981-.981a.655.655,0,0,1-.178-.575.645.645,0,0,1,.381-.465,10.244,10.244,0,0,0,5.556-5.556.645.645,0,0,1,.465-.381.632.632,0,0,1,.575.178l.981.981a3.175,3.175,0,0,1,0,4.482l-2.317,2.317A3.133,3.133,0,0,1,49.148,50.456ZM47.474,48.3l.338.338a1.946,1.946,0,0,0,2.689,0l2.317-2.317a1.9,1.9,0,0,0,0-2.689l-.338-.338a11.783,11.783,0,0,1-2.106,2.9A11.217,11.217,0,0,1,47.474,48.3Z" transform="translate(-45.739 -41.555)"/>
        </g>
        <g id="Grupo_1165814" data-name="Grupo 1165814" transform="translate(18.673 45.244)">
          <path id="Trazado_1001401" data-name="Trazado 1001401" d="M31.31,56.019H24.544a.634.634,0,0,1,0-1.269H31.31a.634.634,0,0,1,0,1.269Z" transform="translate(-23.91 -54.75)"/>
        </g>
        <g id="Grupo_1165815" data-name="Grupo 1165815" transform="translate(28.542 45.244)">
          <path id="Trazado_1001402" data-name="Trazado 1001402" d="M37.821,56.019H36.214a.634.634,0,0,1,0-1.269h1.607a.634.634,0,0,1,0,1.269Z" transform="translate(-35.58 -54.75)"/>
        </g>
        <g id="Grupo_1165816" data-name="Grupo 1165816" transform="translate(18.673 48.305)">
          <path id="Trazado_1001403" data-name="Trazado 1001403" d="M31.31,59.639H24.544a.634.634,0,0,1,0-1.269H31.31a.634.634,0,0,1,0,1.269Z" transform="translate(-23.91 -58.37)"/>
        </g>
        <g id="Grupo_1165817" data-name="Grupo 1165817" transform="translate(28.542 48.305)">
          <path id="Trazado_1001404" data-name="Trazado 1001404" d="M37.821,59.639H36.214a.634.634,0,0,1,0-1.269h1.607a.634.634,0,0,1,0,1.269Z" transform="translate(-35.58 -58.37)"/>
        </g>
        <g id="Grupo_1165818" data-name="Grupo 1165818" transform="translate(4.186 11.713)">
          <path id="Trazado_1001405" data-name="Trazado 1001405" d="M39.3,57.088H10.755A3.981,3.981,0,0,1,6.78,53.113V15.734a.634.634,0,1,1,1.269,0V53.113a2.709,2.709,0,0,0,2.706,2.706H39.313a2.709,2.709,0,0,0,2.706-2.706V47.4a.634.634,0,0,1,1.269,0v5.708A3.983,3.983,0,0,1,39.3,57.088Z" transform="translate(-6.78 -15.1)"/>
        </g>
        <g id="Grupo_1165819" data-name="Grupo 1165819" transform="translate(4.186 4.186)">
          <path id="Trazado_1001406" data-name="Trazado 1001406" d="M42.654,22.429a.639.639,0,0,1-.634-.634V10.175a2.709,2.709,0,0,0-2.706-2.706H10.755a2.709,2.709,0,0,0-2.706,2.706v1.218a.634.634,0,1,1-1.269,0V10.175A3.981,3.981,0,0,1,10.755,6.2H39.313a3.981,3.981,0,0,1,3.975,3.975V21.8A.632.632,0,0,1,42.654,22.429Z" transform="translate(-6.78 -6.2)"/>
        </g>
        <g id="Grupo_1165820" data-name="Grupo 1165820" transform="translate(0.008 42.656)">
          <path id="Trazado_1001407" data-name="Trazado 1001407" d="M6.643,58.557H5.815A3.981,3.981,0,0,1,1.84,54.582V52.324a.634.634,0,1,1,1.269,0v2.258a2.709,2.709,0,0,0,2.706,2.706h.837a.634.634,0,1,1-.008,1.269Z" transform="translate(-1.84 -51.69)"/>
        </g>
        <g id="Grupo_1165821" data-name="Grupo 1165821">
          <path id="Trazado_1001408" data-name="Trazado 1001408" d="M2.464,43.01a.639.639,0,0,1-.634-.634V5.225A3.981,3.981,0,0,1,5.8,1.25H34.363a3.981,3.981,0,0,1,3.975,3.975v.837a.634.634,0,0,1-1.269,0V5.225a2.709,2.709,0,0,0-2.706-2.706H5.813A2.709,2.709,0,0,0,3.107,5.225V42.375a.646.646,0,0,1-.643.634Z" transform="translate(-1.83 -1.25)"/>
        </g>
        <g id="Grupo_1165822" data-name="Grupo 1165822" transform="translate(9.373 9.723)">
          <path id="Trazado_1001409" data-name="Trazado 1001409" d="M15.042,21.409a.649.649,0,0,1-.372-.118.631.631,0,0,1-.254-.617l.406-2.359-1.717-1.666A.642.642,0,0,1,12.944,16a.633.633,0,0,1,.516-.431l2.368-.347,1.057-2.148a.658.658,0,0,1,1.133,0l1.057,2.148,2.368.347a.634.634,0,0,1,.355,1.082l-1.717,1.666.406,2.359a.625.625,0,0,1-.254.617.636.636,0,0,1-.668.051l-2.114-1.116-2.114,1.116a.721.721,0,0,1-.3.068Zm2.419-2.537a.617.617,0,0,1,.3.076l1.277.668L18.788,18.2a.628.628,0,0,1,.186-.558l1.032-1.006-1.429-.211a.632.632,0,0,1-.474-.347l-.634-1.294-.634,1.294a.647.647,0,0,1-.474.347l-1.429.211,1.032,1.006a.628.628,0,0,1,.186.558L15.9,19.617l1.277-.668a.511.511,0,0,1,.279-.076Z" transform="translate(-12.913 -12.748)"/>
        </g>
        <g id="Grupo_1165823" data-name="Grupo 1165823" transform="translate(17.897 6.746)">
          <path id="Trazado_1001410" data-name="Trazado 1001410" d="M25.122,17.889a.649.649,0,0,1-.372-.118.631.631,0,0,1-.254-.617l.406-2.359-1.717-1.666a.642.642,0,0,1-.161-.651.633.633,0,0,1,.516-.431l2.368-.347,1.057-2.148a.658.658,0,0,1,1.133,0L29.156,11.7l2.368.347a.634.634,0,0,1,.355,1.082l-1.717,1.666.406,2.359a.625.625,0,0,1-.254.617.636.636,0,0,1-.668.051l-2.114-1.116-2.114,1.116a.721.721,0,0,1-.3.068Zm2.41-2.537a.617.617,0,0,1,.3.076L29.1,16.1l-.245-1.421a.628.628,0,0,1,.186-.558l1.032-1.006L28.648,12.9a.632.632,0,0,1-.474-.347l-.634-1.294-.634,1.294a.647.647,0,0,1-.474.347L25,13.111l1.032,1.006a.628.628,0,0,1,.186.558L25.976,16.1l1.277-.668a.511.511,0,0,1,.279-.076Z" transform="translate(-22.993 -9.227)"/>
        </g>
        <g id="Grupo_1165824" data-name="Grupo 1165824" transform="translate(26.413 9.723)">
          <path id="Trazado_1001411" data-name="Trazado 1001411" d="M35.192,21.409a.649.649,0,0,1-.372-.118.631.631,0,0,1-.254-.617l.406-2.359-1.717-1.666A.642.642,0,0,1,33.094,16a.633.633,0,0,1,.516-.431l2.368-.347,1.057-2.148a.658.658,0,0,1,1.133,0l1.057,2.148,2.368.347a.634.634,0,0,1,.355,1.082l-1.717,1.666.406,2.359a.625.625,0,0,1-.254.617.636.636,0,0,1-.668.051L37.6,20.225l-2.114,1.116a.721.721,0,0,1-.3.068Zm2.419-2.537a.617.617,0,0,1,.3.076l1.277.668L38.93,18.2a.628.628,0,0,1,.186-.558l1.032-1.006-1.429-.211a.632.632,0,0,1-.474-.347l-.634-1.294-.634,1.294a.647.647,0,0,1-.474.347l-1.429.211L36.1,17.638a.628.628,0,0,1,.186.558l-.245,1.421,1.277-.668A.562.562,0,0,1,37.61,18.872Z" transform="translate(-33.063 -12.748)"/>
        </g>
        <g id="Grupo_1165825" data-name="Grupo 1165825" transform="translate(7.713 21.184)">
          <path id="Trazado_1001412" data-name="Trazado 1001412" d="M18.595,34.579H11.584a.639.639,0,0,1-.634-.634V26.934a.639.639,0,0,1,.634-.634h7.011a.639.639,0,0,1,.634.634v5.032a.634.634,0,0,1-1.269,0V27.577H12.219v5.742h6.376a.639.639,0,0,1,.634.634A.626.626,0,0,1,18.595,34.579Z" transform="translate(-10.95 -26.3)"/>
        </g>
        <g id="Grupo_1165826" data-name="Grupo 1165826" transform="translate(9.668 23.639)">
          <path id="Trazado_1001413" data-name="Trazado 1001413" d="M14.9,32.575a.627.627,0,0,1-.448-.186l-1.006-1.006a.634.634,0,0,1,.9-.9l.55.55,1.649-1.649a.634.634,0,1,1,.9.9l-2.1,2.1A.573.573,0,0,1,14.9,32.575Z" transform="translate(-13.263 -29.202)"/>
        </g>
        <g id="Grupo_1165827" data-name="Grupo 1165827" transform="translate(7.713 31.239)">
          <path id="Trazado_1001414" data-name="Trazado 1001414" d="M18.595,46.469H11.584a.639.639,0,0,1-.634-.634V38.824a.639.639,0,0,1,.634-.634h7.011a.639.639,0,0,1,.634.634v7.011A.628.628,0,0,1,18.595,46.469ZM12.219,45.2h5.742V39.459H12.219Z" transform="translate(-10.95 -38.19)"/>
        </g>
        <g id="Grupo_1165828" data-name="Grupo 1165828" transform="translate(9.668 33.694)">
          <path id="Trazado_1001415" data-name="Trazado 1001415" d="M14.9,44.465a.634.634,0,0,1-.448-.186l-1.006-1.006a.634.634,0,1,1,.9-.9l.55.55,1.649-1.649a.634.634,0,1,1,.9.9l-2.1,2.1A.577.577,0,0,1,14.9,44.465Z" transform="translate(-13.263 -41.093)"/>
        </g>
        <g id="Grupo_1165829" data-name="Grupo 1165829" transform="translate(7.713 41.295)">
          <path id="Trazado_1001416" data-name="Trazado 1001416" d="M18.595,58.359H13.538a.634.634,0,0,1,0-1.269h4.423V51.349H12.219v6.376a.634.634,0,1,1-1.269,0V50.714a.639.639,0,0,1,.634-.634h7.011a.639.639,0,0,1,.634.634v7.011A.633.633,0,0,1,18.595,58.359Z" transform="translate(-10.95 -50.08)"/>
        </g>
        <g id="Grupo_1165830" data-name="Grupo 1165830" transform="translate(9.668 43.749)">
          <path id="Trazado_1001417" data-name="Trazado 1001417" d="M14.9,56.355a.634.634,0,0,1-.448-.186l-1.006-1.006a.634.634,0,0,1,.9-.9l.55.55,1.649-1.649a.634.634,0,1,1,.9.9l-2.1,2.1A.577.577,0,0,1,14.9,56.355Z" transform="translate(-13.263 -52.983)"/>
        </g>
        <g id="Grupo_1165831" data-name="Grupo 1165831" transform="translate(29.44 27.377)">
          <path id="Trazado_1001418" data-name="Trazado 1001418" d="M39.22,40.048a.627.627,0,0,1-.448-.186l-1.945-1.945a.634.634,0,0,1,.9-.9l1.5,1.5,4.71-4.71a.634.634,0,0,1,.9.9l-5.159,5.159a.634.634,0,0,1-.448.186Z" transform="translate(-36.642 -33.622)"/>
        </g>
      </g>
    </g>
  </g>
</svg>
