<svg xmlns="http://www.w3.org/2000/svg" xmlns:xlink="http://www.w3.org/1999/xlink" width="103" height="103" viewBox="0 0 103 103">
  <defs>
    <filter id="Trazado_982547" x="0" y="0" width="103" height="103" filterUnits="userSpaceOnUse">
      <feOffset dy="3" input="SourceAlpha"/>
      <feGaussianBlur stdDeviation="3" result="blur"/>
      <feFlood flood-opacity="0.161"/>
      <feComposite operator="in" in2="blur"/>
      <feComposite in="SourceGraphic"/>
    </filter>
  </defs>
  <g id="Grupo_1165533" data-name="Grupo 1165533" transform="translate(-215 -2764)">
    <g id="Grupo_1165338" data-name="Grupo 1165338" transform="translate(224 2770)">
      <g id="Grupo_1163948" data-name="Grupo 1163948" transform="translate(0)">
        <g id="Grupo_1158168" data-name="Grupo 1158168" transform="translate(0)">
          <g id="Grupo_1152576" data-name="Grupo 1152576">
            <g id="Grupo_1148633" data-name="Grupo 1148633">
              <g id="Grupo_1148525" data-name="Grupo 1148525">
                <g transform="matrix(1, 0, 0, 1, -9, -6)" filter="url(#Trazado_982547)">
                  <g id="Trazado_982547-2" data-name="Trazado 982547" transform="translate(9 6)" fill="#e9f9fd">
                    <path d="M 42.5 83.5 C 36.96437835693359 83.5 31.59512901306152 82.41617584228516 26.54141235351562 80.27863311767578 C 21.65934181213379 78.21369171142578 17.27447128295898 75.25723266601562 13.50862312316895 71.49137878417969 C 9.742764472961426 67.72553253173828 6.786305904388428 63.34066009521484 4.721364498138428 58.45858764648438 C 2.583823442459106 53.40486907958984 1.5 48.03562164306641 1.5 42.5 C 1.5 36.96437835693359 2.583823442459106 31.59512901306152 4.721364498138428 26.54141235351562 C 6.786305904388428 21.65934181213379 9.742764472961426 17.27448272705078 13.50862312316895 13.50862312316895 C 17.27447128295898 9.742776870727539 21.65934181213379 6.786305904388428 26.54141235351562 4.721364498138428 C 31.59512901306152 2.583823442459106 36.96437835693359 1.5 42.5 1.5 C 48.03562164306641 1.5 53.40486907958984 2.583823442459106 58.45858764648438 4.721364498138428 C 63.34066009521484 6.786305904388428 67.72553253173828 9.742776870727539 71.49137878417969 13.50862312316895 C 75.25723266601562 17.27448272705078 78.21369171142578 21.65934181213379 80.27863311767578 26.54141235351562 C 82.41617584228516 31.59512901306152 83.5 36.96437835693359 83.5 42.5 C 83.5 48.03562164306641 82.41617584228516 53.40486907958984 80.27863311767578 58.45858764648438 C 78.21369171142578 63.34066009521484 75.25723266601562 67.72553253173828 71.49137878417969 71.49137878417969 C 67.72553253173828 75.25723266601562 63.34066009521484 78.21369171142578 58.45858764648438 80.27863311767578 C 53.40486907958984 82.41617584228516 48.03562164306641 83.5 42.5 83.5 Z" stroke="none"/>
                    <path d="M 42.5 3 C 37.16621398925781 3 31.99356079101562 4.043960571289062 27.125732421875 6.102882385253906 C 22.42246627807617 8.092185974121094 18.19785308837891 10.94070434570312 14.56928253173828 14.56928253173828 C 10.94070434570312 18.19785308837891 8.092185974121094 22.42246627807617 6.102882385253906 27.125732421875 C 4.043960571289062 31.99356079101562 3 37.16621398925781 3 42.5 C 3 47.83378601074219 4.043960571289062 53.00643920898438 6.102882385253906 57.87425231933594 C 8.092185974121094 62.57753372192383 10.94070434570312 66.80213165283203 14.56928253173828 70.43071746826172 C 18.19786834716797 74.05929565429688 22.42246627807617 76.90781402587891 27.125732421875 78.89711761474609 C 31.99356079101562 80.95603942871094 37.16621398925781 82 42.5 82 C 47.83378601074219 82 53.00642395019531 80.95603942871094 57.87425231933594 78.89711761474609 C 62.57753372192383 76.90781402587891 66.80213165283203 74.05929565429688 70.43071746826172 70.43071746826172 C 74.05929565429688 66.80213165283203 76.90781402587891 62.57753372192383 78.89711761474609 57.87425231933594 C 80.95603942871094 53.00642395019531 82 47.83378601074219 82 42.5 C 82 37.16621398925781 80.95603942871094 31.99356079101562 78.89711761474609 27.125732421875 C 76.90781402587891 22.42246627807617 74.05929565429688 18.19786834716797 70.43071746826172 14.56928253173828 C 66.80213165283203 10.94070434570312 62.57753372192383 8.092185974121094 57.87425231933594 6.102882385253906 C 53.00643920898438 4.043960571289062 47.83378601074219 3 42.5 3 M 42.5 0 C 65.97209167480469 0 85 19.02789306640625 85 42.5 C 85 65.97209167480469 65.97209167480469 85 42.5 85 C 19.02789306640625 85 0 65.97209167480469 0 42.5 C 0 19.02789306640625 19.02789306640625 0 42.5 0 Z" stroke="none" fill="#36ceef"/>
                  </g>
                </g>
              </g>
            </g>
          </g>
        </g>
      </g>
    </g>
    <g id="memorize_1281574" transform="translate(238.093 2786.094)">
      <path id="Trazado_1000873" data-name="Trazado 1000873" d="M23.332,138.59v-7.666h-9.37V119.85H8l5.963-12.777A11.073,11.073,0,0,1,25.036,96H29.3a11.073,11.073,0,0,1,11.073,11.073v11.073l-5.111,10.222V138.59" transform="translate(-7.147 -85.778)" fill="#ceb2aa"/>
      <path id="Trazado_1000874" data-name="Trazado 1000874" d="M37.813,118.147V107.073A11.073,11.073,0,0,0,26.74,96h-1.7a11.073,11.073,0,0,0-11.073,11.073L8,119.85h5.963v11.073h9.37v7.666H32.7V128.368Zm0,0" transform="translate(-7.147 -85.778)" fill="#e5c7bd"/>
      <path id="Trazado_1000875" data-name="Trazado 1000875" d="M263.332,33.554V25.036h10.222V8H263.539a2.552,2.552,0,0,0-1.807.749l-.956.955-.955-.955A2.555,2.555,0,0,0,258.014,8H248V25.036h10.222v8.518" transform="translate(-221.593 -7.148)" fill="#ed6863"/>
      <path id="Trazado_1000876" data-name="Trazado 1000876" d="M113.888,156.109H103.666V139.073H98.555a2.555,2.555,0,0,1,0-5.111,2.557,2.557,0,0,1,3.407-2.41v-.146a3.407,3.407,0,0,1,6.8-.349l0-.035a3.409,3.409,0,0,1,5.133,2.939v.456a3.408,3.408,0,0,1-1.7,6.359h-5.111V151h6.814" transform="translate(-85.777 -114.371)" fill="#afe26c"/>
      <path id="Trazado_1000877" data-name="Trazado 1000877" d="M168,232h1.7v17.036H168Zm0,0" transform="translate(-150.111 -207.298)" fill="#7ec95f"/>
      <path id="Trazado_1000878" data-name="Trazado 1000878" d="M273.554,263.332v-5.111h-2.012a10.992,10.992,0,0,0-1.426-3.376l1.734-1.734-3.407-3.407-1.734,1.734a10.988,10.988,0,0,0-3.376-1.426V248h-5.111v2.012a10.994,10.994,0,0,0-3.376,1.426l-1.734-1.734-3.407,3.407,1.734,1.734a10.991,10.991,0,0,0-1.426,3.376H248v5.111h2.012a10.988,10.988,0,0,0,1.426,3.376l-1.734,1.734,3.407,3.407,1.734-1.734a10.992,10.992,0,0,0,3.376,1.426v2.012h5.111v-2.012a10.989,10.989,0,0,0,3.376-1.426l1.734,1.734,3.407-3.407-1.734-1.734a10.988,10.988,0,0,0,1.426-3.376Zm0,0" transform="translate(-221.593 -221.594)" fill="#b3b6c2"/>
      <path id="Trazado_1000879" data-name="Trazado 1000879" d="M311.332,303.666A7.666,7.666,0,1,1,303.666,296,7.666,7.666,0,0,1,311.332,303.666Zm0,0" transform="translate(-264.482 -264.483)" fill="#d8d8e3"/>
      <path id="Trazado_1000880" data-name="Trazado 1000880" d="M336.518,332.259A4.259,4.259,0,1,1,332.259,328,4.259,4.259,0,0,1,336.518,332.259Zm0,0" transform="translate(-293.075 -293.076)" fill="#eef2f9"/>
      <path id="Trazado_1000881" data-name="Trazado 1000881" d="M17.037,131.442h-1.7v-6.814H6.816a.852.852,0,0,1-.852-.852V113.554H.853a.852.852,0,0,1-.772-1.212L5.965,99.733A11.939,11.939,0,0,1,17.889,88h4.259a11.837,11.837,0,0,1,4.587.915l-.657,1.572a10.157,10.157,0,0,0-3.93-.784H17.889A10.233,10.233,0,0,0,7.667,99.925a.848.848,0,0,1-.08.36l-5.4,11.565H6.816a.852.852,0,0,1,.852.852v10.222h8.518a.852.852,0,0,1,.852.852Zm0,0" transform="translate(0 -78.63)"/>
      <path id="Trazado_1000882" data-name="Trazado 1000882" d="M197.963,194.74h-5.111a.852.852,0,0,1-.852-.852V183.666a.852.852,0,0,1,.852-.852h5.111a2.555,2.555,0,0,0,0-5.111h-.852V176h.852a4.259,4.259,0,0,1,0,8.518H193.7v8.518h4.259Zm0,0" transform="translate(-171.556 -157.26)"/>
      <path id="Trazado_1000883" data-name="Trazado 1000883" d="M196.259,152.518a4.259,4.259,0,1,1,4.259-4.259h-1.7a2.555,2.555,0,1,0-2.555,2.555Zm0,0" transform="translate(-171.556 -128.667)"/>
      <path id="Trazado_1000884" data-name="Trazado 1000884" d="M152.518,124.259h-1.7a2.555,2.555,0,1,0-5.111,0H144a4.259,4.259,0,1,1,8.518,0Zm0,0" transform="translate(-128.666 -107.223)"/>
      <path id="Trazado_1000885" data-name="Trazado 1000885" d="M118.814,155.407h-1.7a1.7,1.7,0,0,0-3.407,0H112a3.407,3.407,0,1,1,6.814,0Zm0,0" transform="translate(-100.074 -135.816)"/>
      <path id="Trazado_1000886" data-name="Trazado 1000886" d="M250.012,180.443H248v-1.7h1.358a11.811,11.811,0,0,1,1.008-2.392l-1.265-1.265a.851.851,0,0,1,0-1.2l3.407-3.407a.851.851,0,0,1,1.2,0l1.265,1.265a11.81,11.81,0,0,1,2.392-1.008V161.7h-8.518V160h9.37a.852.852,0,0,1,.852.852v10.53a.851.851,0,0,1-.656.829,10.143,10.143,0,0,0-3.116,1.315.851.851,0,0,1-1.06-.116l-1.131-1.132-2.2,2.2,1.132,1.132a.851.851,0,0,1,.116,1.06,10.134,10.134,0,0,0-1.315,3.116A.852.852,0,0,1,250.012,180.443Zm0,0" transform="translate(-221.593 -142.964)"/>
      <path id="Trazado_1000887" data-name="Trazado 1000887" d="M120.368,52.812h-5.111a.852.852,0,0,1-.852-.852V50.6a11.87,11.87,0,0,1-2.389-1.011l-1.268,1.269a.851.851,0,0,1-1.2,0l-3.407-3.407a.851.851,0,0,1,0-1.2l1.269-1.268a11.848,11.848,0,0,1-1.011-2.389H96.518a.852.852,0,0,1-.852-.852V25.554H91.407a3.407,3.407,0,1,1,3.407-3.407h-1.7a1.7,1.7,0,1,0-1.7,1.7h5.111a.852.852,0,0,1,.852.852V40.887h9.678a.851.851,0,0,1,.829.656,10.156,10.156,0,0,0,1.318,3.112.852.852,0,0,1-.116,1.06l-1.135,1.135,2.2,2.2,1.135-1.135a.851.851,0,0,1,1.06-.116,10.164,10.164,0,0,0,3.112,1.318.852.852,0,0,1,.656.829v1.161h3.407v-1.16a.851.851,0,0,1,.656-.829,10.141,10.141,0,0,0,3.116-1.315.849.849,0,0,1,1.059.116l1.13,1.132,2.2-2.2-1.132-1.132a.85.85,0,0,1-.116-1.059,10.137,10.137,0,0,0,1.315-3.116.852.852,0,0,1,.829-.656h1.16V37.479h-1.16a.851.851,0,0,1-.829-.656,10.156,10.156,0,0,0-1.318-3.112.852.852,0,0,1,.116-1.06l1.135-1.134-2.2-2.2-1.135,1.135a.852.852,0,0,1-1.06.116,10.164,10.164,0,0,0-3.112-1.318.852.852,0,0,1-.656-.829V17.888a.852.852,0,0,1,.852-.852h9.37V1.7h-9.162a1.694,1.694,0,0,0-1.205.5l-.955.955a.851.851,0,0,1-1.2,0l-.955-.955a1.692,1.692,0,0,0-1.205-.5h-9.163V17.036h-1.7V.852A.852.852,0,0,1,105.036,0H115.05a3.386,3.386,0,0,1,2.41,1l.353.353L118.166,1a3.383,3.383,0,0,1,2.41-1H130.59a.852.852,0,0,1,.852.852V17.888a.852.852,0,0,1-.852.852h-9.37v9.025a11.894,11.894,0,0,1,2.389,1.011l1.268-1.269a.851.851,0,0,1,1.2,0l3.407,3.407a.851.851,0,0,1,0,1.2l-1.268,1.268a11.82,11.82,0,0,1,1.011,2.389h1.359a.852.852,0,0,1,.852.852v5.111a.852.852,0,0,1-.852.852h-1.358a11.788,11.788,0,0,1-1.009,2.392l1.265,1.265a.851.851,0,0,1,0,1.2l-3.407,3.407a.851.851,0,0,1-1.2,0l-1.265-1.265A11.788,11.788,0,0,1,121.22,50.6V51.96a.852.852,0,0,1-.852.852Zm0,0" transform="translate(-78.629)"/>
      <path id="Trazado_1000888" data-name="Trazado 1000888" d="M296.518,305.036a8.518,8.518,0,1,1,8.518-8.518A8.527,8.527,0,0,1,296.518,305.036Zm0-15.332a6.814,6.814,0,1,0,6.814,6.814A6.822,6.822,0,0,0,296.518,289.7Zm0,0" transform="translate(-257.334 -257.335)"/>
      <path id="Trazado_1000889" data-name="Trazado 1000889" d="M325.111,330.222a5.111,5.111,0,1,1,5.111-5.111A5.116,5.116,0,0,1,325.111,330.222Zm0-8.518a3.407,3.407,0,1,0,3.407,3.407A3.411,3.411,0,0,0,325.111,321.7Zm0,0" transform="translate(-285.927 -285.928)"/>
      <path id="Trazado_1000890" data-name="Trazado 1000890" d="M272,32h5.111v1.7H272Zm0,0" transform="translate(-243.038 -28.593)"/>
      <path id="Trazado_1000891" data-name="Trazado 1000891" d="M272,64h5.111v1.7H272Zm0,0" transform="translate(-243.038 -57.185)"/>
      <path id="Trazado_1000892" data-name="Trazado 1000892" d="M272,96h7.666v1.7H272Zm0,0" transform="translate(-243.038 -85.778)"/>
      <path id="Trazado_1000893" data-name="Trazado 1000893" d="M272,128h7.666v1.7H272Zm0,0" transform="translate(-243.038 -114.371)"/>
      <path id="Trazado_1000894" data-name="Trazado 1000894" d="M392,32h7.666v1.7H392Zm0,0" transform="translate(-350.261 -28.593)"/>
      <path id="Trazado_1000895" data-name="Trazado 1000895" d="M392,64h7.666v1.7H392Zm0,0" transform="translate(-350.261 -57.185)"/>
      <path id="Trazado_1000896" data-name="Trazado 1000896" d="M416,96h5.111v1.7H416Zm0,0" transform="translate(-371.705 -85.778)"/>
      <path id="Trazado_1000897" data-name="Trazado 1000897" d="M416,128h5.111v1.7H416Zm0,0" transform="translate(-371.705 -114.371)"/>
      <path id="Trazado_1000898" data-name="Trazado 1000898" d="M360,24h1.7V38.481H360Zm0,0" transform="translate(-321.668 -21.444)"/>
    </g>
  </g>
</svg>
