<svg xmlns="http://www.w3.org/2000/svg" xmlns:xlink="http://www.w3.org/1999/xlink" width="113" height="113" viewBox="0 0 113 113">
  <defs>
    <filter id="Trazado_982547" x="0" y="0" width="113" height="113" filterUnits="userSpaceOnUse">
      <feOffset dy="3" input="SourceAlpha"/>
      <feGaussianBlur stdDeviation="3" result="blur"/>
      <feFlood flood-opacity="0.161"/>
      <feComposite operator="in" in2="blur"/>
      <feComposite in="SourceGraphic"/>
    </filter>
  </defs>
  <g id="Grupo_1165538" data-name="Grupo 1165538" transform="translate(-324.895 -3070)">
    <g id="Grupo_1165341" data-name="Grupo 1165341" transform="translate(333.895 3076)">
      <g id="Grupo_1163948" data-name="Grupo 1163948" transform="translate(0)">
        <g id="Grupo_1158168" data-name="Grupo 1158168" transform="translate(0)">
          <g id="Grupo_1152576" data-name="Grupo 1152576">
            <g id="Grupo_1148633" data-name="Grupo 1148633">
              <g id="Grupo_1148525" data-name="Grupo 1148525">
                <g transform="matrix(1, 0, 0, 1, -9, -6)" filter="url(#Trazado_982547)">
                  <g id="Trazado_982547-2" data-name="Trazado 982547" transform="translate(9 6)" fill="#f2f7e5">
                    <path d="M 47.5 93.5 C 41.28937149047852 93.5 35.26533508300781 92.28397369384766 29.59518623352051 89.88570404052734 C 24.11771965026855 87.56893157958984 19.19813346862793 84.25196075439453 14.97309303283691 80.02691650390625 C 10.74804019927979 75.80186462402344 7.431066513061523 70.88229370117188 5.114293098449707 65.40481567382812 C 2.716026782989502 59.73468017578125 1.5 53.71062850952148 1.5 47.5 C 1.5 41.28937149047852 2.716026782989502 35.26533508300781 5.114293098449707 29.59518623352051 C 7.431066513061523 24.11771965026855 10.74804019927979 19.19813346862793 14.97309303283691 14.97309303283691 C 19.19813346862793 10.74804019927979 24.11771965026855 7.431066513061523 29.59518623352051 5.114293098449707 C 35.26533508300781 2.716026782989502 41.28937149047852 1.5 47.5 1.5 C 53.71062850952148 1.5 59.73468017578125 2.716026782989502 65.40481567382812 5.114293098449707 C 70.88229370117188 7.431066513061523 75.80186462402344 10.74804019927979 80.02691650390625 14.97309303283691 C 84.25196075439453 19.19813346862793 87.56893157958984 24.11771965026855 89.88570404052734 29.59518623352051 C 92.28397369384766 35.26533508300781 93.5 41.28937149047852 93.5 47.5 C 93.5 53.71062850952148 92.28397369384766 59.73468017578125 89.88570404052734 65.40481567382812 C 87.56893157958984 70.88229370117188 84.25196075439453 75.80186462402344 80.02691650390625 80.02691650390625 C 75.80186462402344 84.25196075439453 70.88229370117188 87.56893157958984 65.40481567382812 89.88570404052734 C 59.73468017578125 92.28397369384766 53.71062850952148 93.5 47.5 93.5 Z" stroke="none"/>
                    <path d="M 47.5 3 C 41.49121475219727 3 35.66376876831055 4.176155090332031 30.17950439453125 6.495796203613281 C 24.88084411621094 8.736953735351562 20.12152099609375 11.94598388671875 16.03375244140625 16.03375244140625 C 11.94598388671875 20.12152099609375 8.736953735351562 24.88084411621094 6.495796203613281 30.17950439453125 C 4.176155090332031 35.66376876831055 3 41.49121475219727 3 47.5 C 3 53.50878524780273 4.176155090332031 59.33623123168945 6.495796203613281 64.82049560546875 C 8.736953735351562 70.11915588378906 11.94598388671875 74.87847900390625 16.03375244140625 78.96624755859375 C 20.12152099609375 83.05401611328125 24.88084411621094 86.26304626464844 30.17950439453125 88.50419616699219 C 35.66376876831055 90.82384490966797 41.49121475219727 92 47.5 92 C 53.50878524780273 92 59.33623123168945 90.82384490966797 64.82049560546875 88.50419616699219 C 70.11915588378906 86.26304626464844 74.87847900390625 83.05401611328125 78.96624755859375 78.96624755859375 C 83.05401611328125 74.87847900390625 86.26304626464844 70.11915588378906 88.50419616699219 64.82049560546875 C 90.82384490966797 59.33623123168945 92 53.50878524780273 92 47.5 C 92 41.49121475219727 90.82384490966797 35.66376876831055 88.50419616699219 30.17950439453125 C 86.26304626464844 24.88084411621094 83.05401611328125 20.12152099609375 78.96624755859375 16.03375244140625 C 74.87847900390625 11.94598388671875 70.11915588378906 8.736953735351562 64.82049560546875 6.495796203613281 C 59.33623123168945 4.176155090332031 53.50878524780273 3 47.5 3 M 47.5 0 C 73.7335205078125 0 95 21.2664794921875 95 47.5 C 95 73.7335205078125 73.7335205078125 95 47.5 95 C 21.2664794921875 95 0 73.7335205078125 0 47.5 C 0 21.2664794921875 21.2664794921875 0 47.5 0 Z" stroke="none" fill="#86b60c"/>
                  </g>
                </g>
              </g>
            </g>
          </g>
        </g>
      </g>
    </g>
    <g id="chart_1041970" transform="translate(353.938 3092.416)">
      <g id="Grupo_1165536" data-name="Grupo 1165536" transform="translate(0.805 6.378)">
        <g id="Grupo_1165535" data-name="Grupo 1165535" transform="translate(0 0)">
          <path id="Trazado_1000899" data-name="Trazado 1000899" d="M9.26,78.92H19.483l-.016-.676-.311-13.685H9.875A14.294,14.294,0,0,0,7.843,75.234,13.882,13.882,0,0,0,9.26,78.92Z" transform="translate(-7.527 -59.052)" fill="#60bec8"/>
          <path id="Trazado_1000900" data-name="Trazado 1000900" d="M11.906,168.054H22.129l-.016-.676-1.88-3.009H10.489A13.881,13.881,0,0,0,11.906,168.054Z" transform="translate(-10.172 -148.186)" fill="#4aaaaf"/>
          <g id="Grupo_1165534" data-name="Grupo 1165534" transform="translate(8.905)">
            <path id="Trazado_1000901" data-name="Trazado 1000901" d="M104.466,13.4a10.44,10.44,0,0,1-3.745.638s-9.946.047-9.946,7.23v6.466c0,5.3,5.426,8.3,10.095,8.3h5.007a2.171,2.171,0,0,0,0-4.343h2.171a2.171,2.171,0,1,0,0-4.342h.554a2.171,2.171,0,0,0,0-4.342h7.686a2.171,2.171,0,0,0,0-4.342H104.639a7.456,7.456,0,0,0,2.231-.929,2.478,2.478,0,1,0-2.4-4.334Z" transform="translate(-90.775 -13.085)" fill="#f9ddb4"/>
            <path id="Trazado_1000902" data-name="Trazado 1000902" d="M90.775,137.363v1.353c0,5.3,5.426,8.3,10.095,8.3h5.007a2.172,2.172,0,0,0,2.063-2.848,2.17,2.17,0,0,1-2.063,1.495H100.87C96.2,145.659,90.775,142.664,90.775,137.363Z" transform="translate(-90.775 -124.07)" fill="#e0c096"/>
            <path id="Trazado_1000903" data-name="Trazado 1000903" d="M221.357,162.519a.677.677,0,0,0,.677.677h2.628a2.172,2.172,0,0,0,2.063-2.848,2.17,2.17,0,0,1-2.063,1.495h-2.628a.677.677,0,0,0-.677.677Z" transform="translate(-207.389 -144.596)" fill="#e0c096"/>
            <path id="Trazado_1000904" data-name="Trazado 1000904" d="M222.219,121.93a.677.677,0,0,0,.677.677h3.089a2.172,2.172,0,0,0,2.063-2.848,2.17,2.17,0,0,1-2.063,1.495H222.9a.677.677,0,0,0-.677.677Z" transform="translate(-208.159 -108.349)" fill="#e0c096"/>
            <path id="Trazado_1000905" data-name="Trazado 1000905" d="M223.245,81.341a.677.677,0,0,0,.677.677h10.665a2.172,2.172,0,0,0,2.063-2.848,2.17,2.17,0,0,1-2.063,1.495H223.922a.677.677,0,0,0-.677.677Z" transform="translate(-209.075 -72.101)" fill="#e0c096"/>
          </g>
          <path id="Trazado_1000906" data-name="Trazado 1000906" d="M191.034,25.022c.513,1.863-2.919,2.9-6.464,3.007a.647.647,0,0,0-.631.635h0a.646.646,0,0,0,.646.656h3.254a7.456,7.456,0,0,0,2.231-.929A2.477,2.477,0,0,0,191.034,25.022Z" transform="translate(-165.069 -23.745)" fill="#e0c096"/>
        </g>
        <circle id="Elipse_11725" data-name="Elipse 11725" cx="1.444" cy="1.444" r="1.444" transform="translate(3.425 7.877)" fill="#efefef"/>
        <rect id="Rectángulo_412804" data-name="Rectángulo 412804" width="9.98" height="10.689" transform="translate(0.65 40.533)" fill="#fc6947"/>
        <rect id="Rectángulo_412805" data-name="Rectángulo 412805" width="9.98" height="17.088" transform="translate(14.578 34.134)" fill="#60bec8"/>
        <rect id="Rectángulo_412806" data-name="Rectángulo 412806" width="9.98" height="29.455" transform="translate(28.505 21.767)" fill="#efcf4a"/>
        <rect id="Rectángulo_412807" data-name="Rectángulo 412807" width="9.98" height="47.494" transform="translate(42.432 3.728)" fill="#40d39b"/>
      </g>
      <g id="Grupo_1165537" data-name="Grupo 1165537" transform="translate(0 5.574)">
        <path id="Trazado_1000907" data-name="Trazado 1000907" d="M2.539,73.023H8.86a.8.8,0,1,0,0-1.6H3.021A13.014,13.014,0,0,1,1.9,68.36a13.583,13.583,0,0,1,1.685-9.7H7.624a.8.8,0,1,0,0-1.6H3.154a.8.8,0,0,0-.651.333A15,15,0,0,0,.34,68.712a14.746,14.746,0,0,0,1.5,3.9A.8.8,0,0,0,2.539,73.023Z" transform="translate(0 -51.55)"/>
        <path id="Trazado_1000908" data-name="Trazado 1000908" d="M143.511,8.608a16.1,16.1,0,0,1,3.412-.479h0a10.726,10.726,0,0,0,4.131-.739A1.677,1.677,0,0,1,153.4,9.534a.8.8,0,1,0,1.468.647,3.281,3.281,0,0,0-4.593-4.193,9.233,9.233,0,0,1-3.36.537,17.43,17.43,0,0,0-3.8.528.8.8,0,1,0,.394,1.555Z" transform="translate(-127.268 -5.574)"/>
        <path id="Trazado_1000909" data-name="Trazado 1000909" d="M104.324,43.548a2.96,2.96,0,0,0-.7-1.916,2.97,2.97,0,0,0,.921-3.794h5.047a2.973,2.973,0,0,0,0-5.946H94.034a.8.8,0,0,0,0,1.6h15.555a1.368,1.368,0,0,1,0,2.737H98.249a.8.8,0,0,0,0,1.6H101.9a1.369,1.369,0,0,1,0,2.737H98.956a.8.8,0,1,0,0,1.6h2.4a1.369,1.369,0,0,1,0,2.737h-3.3a.8.8,0,1,0,0,1.6H99.18a1.369,1.369,0,0,1,0,2.737H94.173a11.119,11.119,0,0,1-6.326-2.006,6.7,6.7,0,0,1-2.966-5.487V35.3a5.391,5.391,0,0,1,3.166-4.989.8.8,0,1,0-.754-1.416,6.978,6.978,0,0,0-4.016,6.4v6.466A8.294,8.294,0,0,0,86.9,48.55a12.6,12.6,0,0,0,7.27,2.313H99.18a2.972,2.972,0,0,0,2.621-4.376A2.978,2.978,0,0,0,104.324,43.548Z" transform="translate(-74.369 -26.316)"/>
        <path id="Trazado_1000910" data-name="Trazado 1000910" d="M34.3,79.222a2.246,2.246,0,1,0,2.246,2.246A2.249,2.249,0,0,0,34.3,79.222Zm0,2.888a.642.642,0,1,1,.642-.642A.642.642,0,0,1,34.3,82.11Z" transform="translate(-28.622 -71.344)"/>
        <path id="Trazado_1000911" data-name="Trazado 1000911" d="M16.889,384.525H6.909a.8.8,0,0,0-.8.8v10.689a.8.8,0,0,0,.8.8h9.98a.8.8,0,0,0,.8-.8V385.327A.8.8,0,0,0,16.889,384.525Zm-.8,10.689H7.711V386.13h8.376v9.084Z" transform="translate(-5.454 -343.991)"/>
        <path id="Trazado_1000912" data-name="Trazado 1000912" d="M147.094,324.7h-9.98a.8.8,0,0,0-.8.8v17.088a.8.8,0,0,0,.8.8h9.98a.8.8,0,0,0,.8-.8V325.5A.8.8,0,0,0,147.094,324.7Zm-.8,17.088h-8.376V326.3h8.376Z" transform="translate(-121.731 -290.563)"/>
        <path id="Trazado_1000913" data-name="Trazado 1000913" d="M277.3,209.081h-9.98a.8.8,0,0,0-.8.8v29.455a.8.8,0,0,0,.8.8h9.98a.8.8,0,0,0,.8-.8V227.687a.8.8,0,0,0-1.6,0v10.848H268.12v-27.85H276.5v14.328a.8.8,0,1,0,1.6,0v-15.13A.8.8,0,0,0,277.3,209.081Z" transform="translate(-238.008 -187.313)"/>
        <path id="Trazado_1000914" data-name="Trazado 1000914" d="M407.5,40.433h-9.98a.8.8,0,0,0-.8.8V88.73a.8.8,0,0,0,.8.8h9.98a.8.8,0,0,0,.8-.8V41.235A.8.8,0,0,0,407.5,40.433Zm-.8,47.494h-8.376V42.037H406.7Z" transform="translate(-354.286 -36.704)"/>
      </g>
    </g>
  </g>
</svg>
