<svg xmlns="http://www.w3.org/2000/svg" xmlns:xlink="http://www.w3.org/1999/xlink" width="113" height="113" viewBox="0 0 113 113">
  <defs>
    <filter id="Trazado_982547" x="0" y="0" width="113" height="113" filterUnits="userSpaceOnUse">
      <feOffset dy="3" input="SourceAlpha"/>
      <feGaussianBlur stdDeviation="3" result="blur"/>
      <feFlood flood-opacity="0.161"/>
      <feComposite operator="in" in2="blur"/>
      <feComposite in="SourceGraphic"/>
    </filter>
  </defs>
  <g id="Grupo_1165544" data-name="Grupo 1165544" transform="translate(-744.645 -3070)">
    <g id="Grupo_1165340" data-name="Grupo 1165340" transform="translate(753.645 3076)">
      <g id="Grupo_1163948" data-name="Grupo 1163948" transform="translate(0)">
        <g id="Grupo_1158168" data-name="Grupo 1158168" transform="translate(0)">
          <g id="Grupo_1152576" data-name="Grupo 1152576">
            <g id="Grupo_1148633" data-name="Grupo 1148633">
              <g id="Grupo_1148525" data-name="Grupo 1148525">
                <g transform="matrix(1, 0, 0, 1, -9, -6)" filter="url(#Trazado_982547)">
                  <g id="Trazado_982547-2" data-name="Trazado 982547" transform="translate(9 6)" fill="#f2f7e5">
                    <path d="M 47.5 93.5 C 41.28937149047852 93.5 35.26533508300781 92.28397369384766 29.59518623352051 89.88570404052734 C 24.11771965026855 87.56893157958984 19.19813346862793 84.25196075439453 14.97309303283691 80.02691650390625 C 10.74804019927979 75.80186462402344 7.431066513061523 70.88229370117188 5.114293098449707 65.40481567382812 C 2.716026782989502 59.73468017578125 1.5 53.71062850952148 1.5 47.5 C 1.5 41.28937149047852 2.716026782989502 35.26533508300781 5.114293098449707 29.59518623352051 C 7.431066513061523 24.11771965026855 10.74804019927979 19.19813346862793 14.97309303283691 14.97309303283691 C 19.19813346862793 10.74804019927979 24.11771965026855 7.431066513061523 29.59518623352051 5.114293098449707 C 35.26533508300781 2.716026782989502 41.28937149047852 1.5 47.5 1.5 C 53.71062850952148 1.5 59.73468017578125 2.716026782989502 65.40481567382812 5.114293098449707 C 70.88229370117188 7.431066513061523 75.80186462402344 10.74804019927979 80.02691650390625 14.97309303283691 C 84.25196075439453 19.19813346862793 87.56893157958984 24.11771965026855 89.88570404052734 29.59518623352051 C 92.28397369384766 35.26533508300781 93.5 41.28937149047852 93.5 47.5 C 93.5 53.71062850952148 92.28397369384766 59.73468017578125 89.88570404052734 65.40481567382812 C 87.56893157958984 70.88229370117188 84.25196075439453 75.80186462402344 80.02691650390625 80.02691650390625 C 75.80186462402344 84.25196075439453 70.88229370117188 87.56893157958984 65.40481567382812 89.88570404052734 C 59.73468017578125 92.28397369384766 53.71062850952148 93.5 47.5 93.5 Z" stroke="none"/>
                    <path d="M 47.5 3 C 41.49121475219727 3 35.66376876831055 4.176155090332031 30.17950439453125 6.495796203613281 C 24.88084411621094 8.736953735351562 20.12152099609375 11.94598388671875 16.03375244140625 16.03375244140625 C 11.94598388671875 20.12152099609375 8.736953735351562 24.88084411621094 6.495796203613281 30.17950439453125 C 4.176155090332031 35.66376876831055 3 41.49121475219727 3 47.5 C 3 53.50878524780273 4.176155090332031 59.33623123168945 6.495796203613281 64.82049560546875 C 8.736953735351562 70.11915588378906 11.94598388671875 74.87847900390625 16.03375244140625 78.96624755859375 C 20.12152099609375 83.05401611328125 24.88084411621094 86.26304626464844 30.17950439453125 88.50419616699219 C 35.66376876831055 90.82384490966797 41.49121475219727 92 47.5 92 C 53.50878524780273 92 59.33623123168945 90.82384490966797 64.82049560546875 88.50419616699219 C 70.11915588378906 86.26304626464844 74.87847900390625 83.05401611328125 78.96624755859375 78.96624755859375 C 83.05401611328125 74.87847900390625 86.26304626464844 70.11915588378906 88.50419616699219 64.82049560546875 C 90.82384490966797 59.33623123168945 92 53.50878524780273 92 47.5 C 92 41.49121475219727 90.82384490966797 35.66376876831055 88.50419616699219 30.17950439453125 C 86.26304626464844 24.88084411621094 83.05401611328125 20.12152099609375 78.96624755859375 16.03375244140625 C 74.87847900390625 11.94598388671875 70.11915588378906 8.736953735351562 64.82049560546875 6.495796203613281 C 59.33623123168945 4.176155090332031 53.50878524780273 3 47.5 3 M 47.5 0 C 73.7335205078125 0 95 21.2664794921875 95 47.5 C 95 73.7335205078125 73.7335205078125 95 47.5 95 C 21.2664794921875 95 0 73.7335205078125 0 47.5 C 0 21.2664794921875 21.2664794921875 0 47.5 0 Z" stroke="none" fill="#86b60c"/>
                  </g>
                </g>
              </g>
            </g>
          </g>
        </g>
      </g>
    </g>
    <g id="instruction-book_16939373" transform="translate(770.011 3075.303)">
      <g id="Grupo_1165543" data-name="Grupo 1165543" transform="translate(1.627 24.232)">
        <g id="Grupo_1165539" data-name="Grupo 1165539" transform="translate(0 0)">
          <path id="Trazado_1000915" data-name="Trazado 1000915" d="M59.44,33.115l3.619,4.837V75.237c-8.522-2.509-17.586-5.3-25.95-.435a4.8,4.8,0,0,1-4.852,0c-8.364-4.866-17.428-2.074-25.95.435V37.952l3.619-4.837q15.049-4.43,24.757,1.641,9.709-6.07,24.757-1.641Z" transform="translate(-6.307 -31.246)" fill="#64b5f6" fill-rule="evenodd"/>
          <path id="Trazado_1000916" data-name="Trazado 1000916" d="M63.058,360.887v2.3c-8.522-2.509-17.586-5.3-25.95-.435a4.8,4.8,0,0,1-4.852,0c-8.364-4.866-17.428-2.074-25.95.435v-2.3c8.522-2.509,17.586-5.3,25.95-.435a4.8,4.8,0,0,0,4.852,0C45.472,355.586,54.536,358.378,63.058,360.887Z" transform="translate(-6.306 -319.193)" fill="#42a5f5" fill-rule="evenodd"/>
          <path id="Trazado_1000917" data-name="Trazado 1000917" d="M61.078,71.675Q51.509,66.108,36.927,70.4V33.115q15.049-4.43,24.757,1.641,9.709-6.07,24.757-1.641V70.4q-14.583-4.292-24.151,1.275a1.178,1.178,0,0,1-1.213,0Z" transform="translate(-33.308 -31.246)" fill="#dee8ee" fill-rule="evenodd"/>
          <path id="Trazado_1000918" data-name="Trazado 1000918" d="M61.078,337.123q-9.568-5.567-24.151-1.275v-1.713q14.583-4.292,24.151,1.275a1.179,1.179,0,0,0,1.213,0q9.568-5.567,24.151-1.275v1.713q-14.583-4.292-24.151,1.275a1.178,1.178,0,0,1-1.213,0Z" transform="translate(-33.308 -296.694)" fill="#cedde5" fill-rule="evenodd"/>
          <path id="Trazado_1000919" data-name="Trazado 1000919" d="M246.431,34.755q9.709-6.07,24.757-1.641V70.4q-14.583-4.292-24.151,1.275a1.2,1.2,0,0,1-.607.168Z" transform="translate(-218.055 -31.246)" fill="#eff4f7" fill-rule="evenodd"/>
          <path id="Trazado_1000920" data-name="Trazado 1000920" d="M271.187,47.06V84.345Q256.6,80.052,247.037,85.62a1.2,1.2,0,0,1-.607.168V84.075a1.2,1.2,0,0,0,.607-.168q9.568-5.567,24.151-1.275Z" transform="translate(-218.054 -45.191)" fill="#dee8ee" fill-rule="evenodd"/>
        </g>
        <g id="Grupo_1165540" data-name="Grupo 1165540" transform="translate(7.669 3.61)">
          <path id="Trazado_1000921" data-name="Trazado 1000921" d="M79.53,78.451A8.328,8.328,0,1,0,71.2,70.122,8.344,8.344,0,0,0,79.53,78.451Z" transform="translate(-71.202 -61.794)" fill="#ffda2d" fill-rule="evenodd"/>
          <path id="Trazado_1000922" data-name="Trazado 1000922" d="M74.262,76.572A8.328,8.328,0,1,1,85.98,64.854,8.328,8.328,0,0,0,74.262,76.572Z" transform="translate(-71.202 -61.794)" fill="#ffc700" fill-rule="evenodd"/>
          <path id="Trazado_1000923" data-name="Trazado 1000923" d="M131.615,85.53a1.095,1.095,0,1,0-1.095-1.095A1.095,1.095,0,0,0,131.615,85.53Zm.529,1.793h-1.059a.344.344,0,0,0-.344.321l-.475,6.894a.343.343,0,0,0,.344.368h2.008a.343.343,0,0,0,.344-.368l-.475-6.894a.344.344,0,0,0-.344-.321Z" transform="translate(-123.287 -80.795)" fill="#eff4f7" fill-rule="evenodd"/>
          <path id="Trazado_1000924" data-name="Trazado 1000924" d="M132.539,85.53a1.095,1.095,0,1,0-.12-2.183,1.095,1.095,0,0,1-.305,2.1,1.091,1.091,0,0,0,.425.086Zm.529,1.793h-.326a.343.343,0,0,1,.124.242l.475,6.894a.343.343,0,0,1-.344.368h-1.683a.342.342,0,0,0,.221.079h2.008a.343.343,0,0,0,.344-.368l-.475-6.894a.344.344,0,0,0-.344-.321Z" transform="translate(-124.21 -80.795)" fill="#dee8ee" fill-rule="evenodd"/>
        </g>
        <g id="Grupo_1165542" data-name="Grupo 1165542" transform="translate(32.212 22.157)">
          <path id="Trazado_1000925" data-name="Trazado 1000925" d="M304.276,243.825c-.021-.076-13.684,3.308-13.706,3.234-1.484-5.013-3.9-4.913-10.059-11.113-3.234-3.256-1.151-7.644,2.079-5.217l4.958,3.724-3.488-13.018a2.137,2.137,0,0,1,4.127-1.112l2.56,9.555a2.137,2.137,0,0,1,4.129-1.106l.212.79a2.137,2.137,0,0,1,4.131-1.1l.281,1.05a2.137,2.137,0,1,1,4.129-1.106l.855,3.193c.652,2.433,1.809,8.176-.209,12.224Z" transform="translate(-278.891 -218.746)" fill="#ffd6bd" fill-rule="evenodd"/>
          <g id="Grupo_1165541" data-name="Grupo 1165541" transform="translate(0 0)">
            <path id="Trazado_1000926" data-name="Trazado 1000926" d="M325.581,234.454l-3.488-13.018a2.135,2.135,0,0,1,3.209-2.355,2.137,2.137,0,0,0-1.925,2.686l3.7,13.811-1.5-1.124Z" transform="translate(-316.924 -218.746)" fill="#f9c6aa" fill-rule="evenodd"/>
            <path id="Trazado_1000927" data-name="Trazado 1000927" d="M291.674,331.011c-.684.16-1.1.251-1.1.239-1.484-5.013-3.9-4.913-10.059-11.113-3.037-3.058-1.385-7.114,1.5-5.585-2.014.083-2.768,3.35-.219,5.916,5.915,5.955,8.378,6.1,9.878,10.544Z" transform="translate(-278.891 -302.936)" fill="#f9c6aa" fill-rule="evenodd"/>
            <path id="Trazado_1000928" data-name="Trazado 1000928" d="M378.748,293.111l-.061-.228a2.135,2.135,0,0,1,3.209-2.355,2.137,2.137,0,0,0-1.925,2.686l.274,1.022Z" transform="translate(-366.829 -281.75)" fill="#f9c6aa" fill-rule="evenodd"/>
            <path id="Trazado_1000929" data-name="Trazado 1000929" d="M415.5,290.505l-.061-.228a2.135,2.135,0,0,1,3.209-2.355,2.137,2.137,0,0,0-1.925,2.686L417,291.63l-1.5-1.124Z" transform="translate(-399.237 -279.452)" fill="#f9c6aa" fill-rule="evenodd"/>
            <path id="Trazado_1000930" data-name="Trazado 1000930" d="M452.818,290.026l-.061-.228a2.135,2.135,0,0,1,3.209-2.355,2.119,2.119,0,0,0-.414.068,2.143,2.143,0,0,0-1.511,2.618l.274,1.022-1.5-1.124Z" transform="translate(-432.147 -279.029)" fill="#f9c6aa" fill-rule="evenodd"/>
          </g>
          <path id="Trazado_1000931" data-name="Trazado 1000931" d="M390.784,419.8,377.1,423.469a.408.408,0,0,0-.288.5l.729,2.722a.409.409,0,0,0,.5.288l13.688-3.668a.409.409,0,0,0,.288-.5l-.729-2.722a.409.409,0,0,0-.5-.288Z" transform="translate(-365.225 -396.03)" fill="#64b5f6" fill-rule="evenodd"/>
          <path id="Trazado_1000932" data-name="Trazado 1000932" d="M377.708,441.422l-.612.164a.409.409,0,0,0-.288.5l.729,2.722a.408.408,0,0,0,.5.288l13.688-3.668a.409.409,0,0,0,.288-.5l-.16-.6-13.076,3.5a.408.408,0,0,1-.5-.288l-.57-2.126Z" transform="translate(-365.224 -414.147)" fill="#42a5f5" fill-rule="evenodd"/>
        </g>
      </g>
      <path id="Trazado_1000933" data-name="Trazado 1000933" d="M59.163,73l-.4-1.506L46.847,74.683l.4,1.5Zm-.505-3.435L46.217,72.894c-.964-2.211-2.3-3.31-4.288-4.942A59.882,59.882,0,0,1,37,63.529c-1.462-1.471-1.482-3.127-.934-3.757.488-.559,1.329-.027,1.668.227l4.706,3.536a.945.945,0,0,0,1.481-1L40.216,48.693a1.083,1.083,0,0,1,2.092-.565l3.151,11.759a.946.946,0,0,0,.913.7.98.98,0,0,0,.245-.032.947.947,0,0,0,.669-1.158l-.323-1.206s0,0,0,0a1.084,1.084,0,0,1,2.094-.56l.2.749a.945.945,0,0,0,1.827-.485,1.083,1.083,0,0,1,2.094-.557l.266.992a.041.041,0,0,1,0,.006.946.946,0,0,0,1.827-.489,1.083,1.083,0,0,1,2.093-.561l.812,3.031c.448,1.67,1.352,5.8.482,9.245Zm-22.6-4.3c-.129-.128-.261-.259-.395-.394a7.006,7.006,0,0,1-.822-.994,21.293,21.293,0,0,0-3.437,1.6,2.128,2.128,0,0,1-2.164,0c-6.115-3.558-13.991-3.958-23.409-1.185a.946.946,0,0,1-1.212-.906V28.938L2.891,31.247V66.954a63.078,63.078,0,0,1,12.225-2.68,21.824,21.824,0,0,1,13.255,2.692,3.833,3.833,0,0,0,3.9,0A20.4,20.4,0,0,1,36.055,65.256ZM6.509,26.81c9.185-2.575,16.871-2.084,22.867,1.46V63.39C23.2,60.125,15.515,59.7,6.509,62.133ZM46.245,55.516a2.981,2.981,0,0,1,3.674.118,2.945,2.945,0,0,1,1.441-.887c.037-.011.072-.018.108-.026h-.007a1.011,1.011,0,0,1-.2-.02,41.179,41.179,0,0,0-5.446-.774l.133.5.292,1.09ZM31.267,28.27V63.389a23.446,23.446,0,0,1,2.765-1.238,3.911,3.911,0,0,1,.611-3.618c.783-.9,2.36-1.449,4.231-.044l2.516,1.891-3-11.2a2.974,2.974,0,0,1,5.457-2.243,39.5,39.5,0,0,1,7.813.931.945.945,0,0,1-.4,1.848,38.2,38.2,0,0,0-6.8-.874L45.3,52a42.353,42.353,0,0,1,6.349.85.946.946,0,0,1,.125,1.816,2.978,2.978,0,0,1,2.355.756V26.81c-9.184-2.575-16.871-2.084-22.866,1.46Zm26.485,2.977-1.728-2.309V54.606a2.963,2.963,0,0,1,1.728.357Zm3.389,42.889a.944.944,0,0,1-.575.44l-13.74,3.682a1,1,0,0,1-.246.032.946.946,0,0,1-.912-.7l-.691-2.577h0c-.828-2.792-1.9-3.673-4.245-5.6-.877-.72-1.9-1.558-3.1-2.661A18.43,18.43,0,0,0,33.223,68.6a5.7,5.7,0,0,1-5.8,0c-7.874-4.581-16.472-2.048-24.786.4l-.421.124A.945.945,0,0,1,1,68.218V30.933a.947.947,0,0,1,.188-.566l3.619-4.838a.942.942,0,0,1,.489-.341c10-2.944,18.417-2.458,25.025,1.441,6.607-3.9,15.022-4.385,25.024-1.441a.951.951,0,0,1,.49.341l3.618,4.838a.947.947,0,0,1,.188.566V58.484L60,59.827c.5,1.866,1.517,6.559.405,10.508l.827,3.084a.946.946,0,0,1-.094.717ZM17.793,31.478a.149.149,0,1,1,.3,0,.149.149,0,1,1-.3,0ZM18.3,41h-.721l.361-5.23L18.3,41ZM16,42.484a1.291,1.291,0,0,1-.344-.97l.475-6.893a1.292,1.292,0,0,1,1.2-1.2,2.041,2.041,0,1,1,1.224,0,1.294,1.294,0,0,1,1.2,1.2l.475,6.894a1.288,1.288,0,0,1-1.287,1.378H16.939A1.293,1.293,0,0,1,16,42.484ZM9.382,49.72a.945.945,0,0,1-.4-1.848c6.732-1.456,12.805-1.2,18.052.764a.945.945,0,0,1-.332,1.83.935.935,0,0,1-.331-.06c-4.9-1.833-10.617-2.064-16.989-.686ZM9.376,54.7a.946.946,0,1,1-.386-1.851c6.7-1.4,12.765-1.165,18.028.692a.945.945,0,1,1-.63,1.783C21.455,53.584,15.732,53.375,9.376,54.7ZM27,58.452a.946.946,0,0,1-.3,1.843.982.982,0,0,1-.3-.048c-4.956-1.65-10.688-1.839-17.035-.563A.946.946,0,1,1,9,57.829c6.674-1.34,12.733-1.131,18,.623ZM10.56,36.166a7.383,7.383,0,1,1,7.382,7.383,7.391,7.391,0,0,1-7.382-7.383Zm-1.891,0a9.273,9.273,0,1,1,9.273,9.274,9.284,9.284,0,0,1-9.273-9.274Zm31.675-7.181A.945.945,0,0,1,40.1,27.11a31.2,31.2,0,0,1,11.588.848.945.945,0,0,1-.448,1.836,29.357,29.357,0,0,0-10.892-.81Zm-.016,15.007a.946.946,0,1,1-.215-1.879,34.977,34.977,0,0,1,11.553.781.946.946,0,1,1-.412,1.846,33.04,33.04,0,0,0-10.926-.748Zm.012-10a.945.945,0,1,1-.238-1.875,32.182,32.182,0,0,1,11.577.824A.946.946,0,0,1,51.46,34.8a.983.983,0,0,1-.219-.026,30.31,30.31,0,0,0-10.9-.788Zm-.006,5a.946.946,0,0,1-.227-1.878,33.75,33.75,0,0,1,11.567.8.945.945,0,1,1-.425,1.842,31.847,31.847,0,0,0-10.915-.767Zm-4.193,14.7-1.534,1.547-.551-.537a.946.946,0,1,0-1.32,1.354l1.223,1.192a.947.947,0,0,0,1.332-.012l2.192-2.214a.945.945,0,1,0-1.342-1.33ZM33.957,36.574l-1.223-1.192a.945.945,0,1,1,1.32-1.353l.551.538,1.534-1.548a.945.945,0,1,1,1.342,1.331l-2.192,2.213a.95.95,0,0,1-.672.28.94.94,0,0,1-.66-.27Zm0,10.337-1.223-1.192a.946.946,0,1,1,1.32-1.354l.551.538,1.534-1.547a.945.945,0,1,1,1.342,1.331L35.289,46.9a.945.945,0,0,1-1.332.012Zm0-15.5-1.223-1.193a.945.945,0,1,1,1.32-1.353l.551.537,1.534-1.548a.945.945,0,1,1,1.342,1.33l-2.192,2.213a.946.946,0,0,1-1.332.012Zm0,20.671a.947.947,0,0,0,1.332-.012l2.192-2.213a.945.945,0,1,0-1.342-1.331l-1.534,1.547-.551-.537a.946.946,0,1,0-1.32,1.354l1.223,1.192ZM32.735,40.551a.946.946,0,1,1,1.32-1.354l.551.538,1.534-1.547a.945.945,0,1,1,1.342,1.331l-2.192,2.213a.945.945,0,0,1-1.332.012l-1.223-1.192Z" transform="translate(0 0)" fill-rule="evenodd"/>
    </g>
  </g>
</svg>
