<svg xmlns="http://www.w3.org/2000/svg" xmlns:xlink="http://www.w3.org/1999/xlink" width="113" height="113" viewBox="0 0 113 113">
  <defs>
    <filter id="Trazado_982547" x="0" y="0" width="113" height="113" filterUnits="userSpaceOnUse">
      <feOffset dy="3" input="SourceAlpha"/>
      <feGaussianBlur stdDeviation="3" result="blur"/>
      <feFlood flood-opacity="0.161"/>
      <feComposite operator="in" in2="blur"/>
      <feComposite in="SourceGraphic"/>
    </filter>
  </defs>
  <g id="Grupo_1165546" data-name="Grupo 1165546" transform="translate(-1164.895 -3070)">
    <g id="Grupo_1165339" data-name="Grupo 1165339" transform="translate(1173.895 3076)">
      <g id="Grupo_1163948" data-name="Grupo 1163948" transform="translate(0)">
        <g id="Grupo_1158168" data-name="Grupo 1158168" transform="translate(0)">
          <g id="Grupo_1152576" data-name="Grupo 1152576">
            <g id="Grupo_1148633" data-name="Grupo 1148633">
              <g id="Grupo_1148525" data-name="Grupo 1148525">
                <g transform="matrix(1, 0, 0, 1, -9, -6)" filter="url(#Trazado_982547)">
                  <g id="Trazado_982547-2" data-name="Trazado 982547" transform="translate(9 6)" fill="#f2f7e5">
                    <path d="M 47.5 93.5 C 41.28937149047852 93.5 35.26533508300781 92.28397369384766 29.59518623352051 89.88570404052734 C 24.11771965026855 87.56893157958984 19.19813346862793 84.25196075439453 14.97309303283691 80.02691650390625 C 10.74804019927979 75.80186462402344 7.431066513061523 70.88229370117188 5.114293098449707 65.40481567382812 C 2.716026782989502 59.73468017578125 1.5 53.71062850952148 1.5 47.5 C 1.5 41.28937149047852 2.716026782989502 35.26533508300781 5.114293098449707 29.59518623352051 C 7.431066513061523 24.11771965026855 10.74804019927979 19.19813346862793 14.97309303283691 14.97309303283691 C 19.19813346862793 10.74804019927979 24.11771965026855 7.431066513061523 29.59518623352051 5.114293098449707 C 35.26533508300781 2.716026782989502 41.28937149047852 1.5 47.5 1.5 C 53.71062850952148 1.5 59.73468017578125 2.716026782989502 65.40481567382812 5.114293098449707 C 70.88229370117188 7.431066513061523 75.80186462402344 10.74804019927979 80.02691650390625 14.97309303283691 C 84.25196075439453 19.19813346862793 87.56893157958984 24.11771965026855 89.88570404052734 29.59518623352051 C 92.28397369384766 35.26533508300781 93.5 41.28937149047852 93.5 47.5 C 93.5 53.71062850952148 92.28397369384766 59.73468017578125 89.88570404052734 65.40481567382812 C 87.56893157958984 70.88229370117188 84.25196075439453 75.80186462402344 80.02691650390625 80.02691650390625 C 75.80186462402344 84.25196075439453 70.88229370117188 87.56893157958984 65.40481567382812 89.88570404052734 C 59.73468017578125 92.28397369384766 53.71062850952148 93.5 47.5 93.5 Z" stroke="none"/>
                    <path d="M 47.5 3 C 41.49121475219727 3 35.66376876831055 4.176155090332031 30.17950439453125 6.495796203613281 C 24.88084411621094 8.736953735351562 20.12152099609375 11.94598388671875 16.03375244140625 16.03375244140625 C 11.94598388671875 20.12152099609375 8.736953735351562 24.88084411621094 6.495796203613281 30.17950439453125 C 4.176155090332031 35.66376876831055 3 41.49121475219727 3 47.5 C 3 53.50878524780273 4.176155090332031 59.33623123168945 6.495796203613281 64.82049560546875 C 8.736953735351562 70.11915588378906 11.94598388671875 74.87847900390625 16.03375244140625 78.96624755859375 C 20.12152099609375 83.05401611328125 24.88084411621094 86.26304626464844 30.17950439453125 88.50419616699219 C 35.66376876831055 90.82384490966797 41.49121475219727 92 47.5 92 C 53.50878524780273 92 59.33623123168945 90.82384490966797 64.82049560546875 88.50419616699219 C 70.11915588378906 86.26304626464844 74.87847900390625 83.05401611328125 78.96624755859375 78.96624755859375 C 83.05401611328125 74.87847900390625 86.26304626464844 70.11915588378906 88.50419616699219 64.82049560546875 C 90.82384490966797 59.33623123168945 92 53.50878524780273 92 47.5 C 92 41.49121475219727 90.82384490966797 35.66376876831055 88.50419616699219 30.17950439453125 C 86.26304626464844 24.88084411621094 83.05401611328125 20.12152099609375 78.96624755859375 16.03375244140625 C 74.87847900390625 11.94598388671875 70.11915588378906 8.736953735351562 64.82049560546875 6.495796203613281 C 59.33623123168945 4.176155090332031 53.50878524780273 3 47.5 3 M 47.5 0 C 73.7335205078125 0 95 21.2664794921875 95 47.5 C 95 73.7335205078125 73.7335205078125 95 47.5 95 C 21.2664794921875 95 0 73.7335205078125 0 47.5 C 0 21.2664794921875 21.2664794921875 0 47.5 0 Z" stroke="none" fill="#86b60c"/>
                  </g>
                </g>
              </g>
            </g>
          </g>
        </g>
      </g>
    </g>
    <g id="branding_16807667" transform="translate(1132.298 3086.451)">
      <g id="Grupo_1165545" data-name="Grupo 1165545" transform="translate(64.696 4.798)">
        <path id="Trazado_1000934" data-name="Trazado 1000934" d="M256,271.507l14.754-3.954,7.176,26.783-9.2-4.82-5.556,8.774Z" transform="translate(-231.602 -233.787)" fill="#ee2b39" fill-rule="evenodd"/>
        <path id="Trazado_1000935" data-name="Trazado 1000935" d="M256,284.61l7.377-1.977,5.355,19.986-5.556,8.774Z" transform="translate(-231.602 -246.89)" fill="#cd212d" fill-rule="evenodd"/>
        <path id="Trazado_1000936" data-name="Trazado 1000936" d="M110.636,271.507l-14.753-3.954L88.7,294.336l9.2-4.82,5.556,8.774Z" transform="translate(-86.235 -233.787)" fill="#ee2b39" fill-rule="evenodd"/>
        <path id="Trazado_1000937" data-name="Trazado 1000937" d="M103.26,269.53l-7.377-1.977L88.7,294.336l9.2-4.82Z" transform="translate(-86.235 -233.787)" fill="#cd212d" fill-rule="evenodd"/>
        <path id="Trazado_1000938" data-name="Trazado 1000938" d="M90.38,11.227a6.8,6.8,0,0,1,7.8,0,6.278,6.278,0,0,0,4.307,1.156,6.8,6.8,0,0,1,6.756,3.9,6.276,6.276,0,0,0,3.155,3.155,6.8,6.8,0,0,1,3.9,6.756,6.277,6.277,0,0,0,1.156,4.307,6.8,6.8,0,0,1,0,7.8,6.268,6.268,0,0,0-1.156,4.307,6.8,6.8,0,0,1-3.9,6.753,6.29,6.29,0,0,0-3.155,3.155,6.8,6.8,0,0,1-6.756,3.9,6.277,6.277,0,0,0-4.307,1.156,6.8,6.8,0,0,1-7.8,0,6.268,6.268,0,0,0-4.307-1.156,6.795,6.795,0,0,1-6.752-3.9,6.3,6.3,0,0,0-3.155-3.155,6.8,6.8,0,0,1-3.9-6.753A6.267,6.267,0,0,0,71.111,38.3a6.8,6.8,0,0,1,0-7.8,6.277,6.277,0,0,0,1.156-4.307,6.8,6.8,0,0,1,3.9-6.756,6.29,6.29,0,0,0,3.155-3.155,6.8,6.8,0,0,1,6.752-3.9,6.267,6.267,0,0,0,4.307-1.156Z" transform="translate(-69.881 -9.997)" fill="#ffcb5b" fill-rule="evenodd"/>
        <path id="Trazado_1000939" data-name="Trazado 1000939" d="M148.3,104.663a16.251,16.251,0,1,0-16.251-16.251A16.285,16.285,0,0,0,148.3,104.663Z" transform="translate(-123.894 -64.011)" fill="#1b6fab" fill-rule="evenodd"/>
        <path id="Trazado_1000940" data-name="Trazado 1000940" d="M183.232,73.578a16.252,16.252,0,0,1,0,32.131,16.252,16.252,0,0,1,0-32.131Z" transform="translate(-156.382 -65.242)" fill="#3589c9" fill-rule="evenodd"/>
        <path id="Trazado_1000941" data-name="Trazado 1000941" d="M204.855,151.623a25.183,25.183,0,0,0-2.375-4.17,7.161,7.161,0,1,1,12.123,0,25.188,25.188,0,0,0-2.375,4.17h-7.373Z" transform="translate(-184.14 -119.897)" fill="#ffcb5b" fill-rule="evenodd"/>
        <path id="Trazado_1000942" data-name="Trazado 1000942" d="M220.513,136.847a7.161,7.161,0,0,1,5.221,10.926,25.188,25.188,0,0,0-2.375,4.17h-5.693a24.92,24.92,0,0,0-2.375-4.17,7.161,7.161,0,0,1,5.221-10.926Z" transform="translate(-195.273 -120.217)" fill="#ffcb5b" fill-rule="evenodd"/>
        <path id="Trazado_1000943" data-name="Trazado 1000943" d="M235.692,278.687h4.66a.385.385,0,0,0,.383-.387v-2.215h-5.426V278.3a.385.385,0,0,0,.383.387Z" transform="translate(-213.621 -241.201)" fill="#494a52" fill-rule="evenodd"/>
        <path id="Trazado_1000944" data-name="Trazado 1000944" d="M248.506,278.687h2.98a.385.385,0,0,0,.383-.387v-2.215h-3.746V278.3A.388.388,0,0,0,248.506,278.687Z" transform="translate(-224.755 -241.201)" fill="#595a66" fill-rule="evenodd"/>
        <path id="Trazado_1000945" data-name="Trazado 1000945" d="M228.348,255.15h6.444a.465.465,0,0,0,.464-.465v-2.694h-7.373v2.694A.465.465,0,0,0,228.348,255.15Z" transform="translate(-207.17 -220.265)" fill="#595a66" fill-rule="evenodd"/>
        <path id="Trazado_1000946" data-name="Trazado 1000946" d="M241.161,255.15h4.764a.465.465,0,0,0,.464-.465v-2.694H240.7v2.694a.465.465,0,0,0,.465.465Z" transform="translate(-218.302 -220.265)" fill="#676873" fill-rule="evenodd"/>
      </g>
      <path id="Trazado_1000947" data-name="Trazado 1000947" d="M225.5,187.213v-5.537h-.87v5.537h-1.572v-5.537h-.546a2.118,2.118,0,1,1,2.118-2.118v.546h.87v-.546a2.115,2.115,0,1,1,2.115,2.118h-.543v5.537Zm1.572-7.656v.546h.543a.548.548,0,0,0,.386-.16.539.539,0,0,0,.16-.386.544.544,0,0,0-1.089,0Zm-4.56.546h.546v-.546a.544.544,0,0,0-1.089,0,.538.538,0,0,0,.16.386A.545.545,0,0,0,222.515,180.1Z" transform="translate(-135.971 -150.69)" fill="#faa845"/>
      <path id="Trazado_1000948" data-name="Trazado 1000948" d="M193.426,96.284a.784.784,0,1,1,.78,1.36l-1.9,1.1a.784.784,0,0,1-.78-1.36l1.9-1.1ZM182.9,91.119a.788.788,0,1,1,1.576,0v2.193a.788.788,0,0,1-1.576,0Zm-5.738,1.958a.784.784,0,1,1,1.357-.788l1.1,1.9a.784.784,0,1,1-1.357.788Zm-3.991,4.567a.784.784,0,1,1,.78-1.36l1.9,1.1a.784.784,0,0,1-.78,1.36Zm15.686-5.355a.784.784,0,1,1,1.357.788l-1.1,1.9a.784.784,0,1,1-1.357-.788Z" transform="translate(-94.592 -75.002)" fill="#ffcb5b"/>
      <path id="Trazado_1000949" data-name="Trazado 1000949" d="M82.563,18.072a.788.788,0,0,1,1.368-.784l1.093,1.9a.792.792,0,0,1-.286,1.074.811.811,0,0,1-.394.1.779.779,0,0,1-.68-.394Zm5.745.234V16.114a.788.788,0,1,1,1.576,0v2.193a.788.788,0,0,1-1.576,0Zm-7.444,5.537a.791.791,0,0,1-.394-.1l-1.9-1.1a.787.787,0,0,1,.791-1.36l1.892,1.1a.783.783,0,0,1-.39,1.464ZM99.9,21.569a.79.79,0,0,1-.29,1.074l-1.9,1.1a.781.781,0,0,1-.394.1.8.8,0,0,1-.68-.394.784.784,0,0,1,.29-1.07l1.9-1.1A.784.784,0,0,1,99.9,21.569Zm-6.741-2.382,1.1-1.9a.787.787,0,1,1,1.364.784l-1.093,1.9a.8.8,0,0,1-.687.394.774.774,0,0,1-.386-.1.787.787,0,0,1-.294-1.074ZM91.1,29.41v-.543a.545.545,0,0,1,.546-.546.544.544,0,1,1,0,1.089Zm3.393,2.523c-.178.282-.353.554-.52.81a22.125,22.125,0,0,0-1.709,2.988H91.1V30.982h.546a2.116,2.116,0,1,0-2.122-2.115v.543h-.862v-.543a2.12,2.12,0,1,0-2.118,2.115h.55v4.749H85.93a23.018,23.018,0,0,0-1.717-2.988c-.16-.256-.334-.528-.513-.81a6.311,6.311,0,0,1-.981-3.393,6.373,6.373,0,1,1,12.747,0,6.3,6.3,0,0,1-.974,3.393Zm-7.328,9.558V40.466h3.858v1.026ZM92,37.3v1.591H86.2V37.3Zm-2.471-1.572h-.862V30.982h.862Zm-2.43-6.321h-.55a.544.544,0,1,1,0-1.089.55.55,0,0,1,.55.546Zm2-8.822a7.959,7.959,0,0,0-6.726,12.186c.186.286.357.557.524.818a19.024,19.024,0,0,1,1.732,3.085v2.538a1.259,1.259,0,0,0,.974,1.223V41.9a1.171,1.171,0,0,0,1.167,1.167h4.664A1.172,1.172,0,0,0,92.6,41.9v-1.46a1.256,1.256,0,0,0,.97-1.223V36.676A18.78,18.78,0,0,1,95.3,33.591c.16-.26.338-.531.517-.818a7.95,7.95,0,0,0-6.726-12.186Zm0,24.07A15.463,15.463,0,1,1,104.556,29.2,15.476,15.476,0,0,1,89.093,44.658Zm0-32.5A17.035,17.035,0,1,0,106.128,29.2,17.061,17.061,0,0,0,89.093,12.159Zm22.528,20.484a7.022,7.022,0,0,0-1.29,4.827,6.037,6.037,0,0,1-3.449,5.976,7.008,7.008,0,0,0-3.538,3.534,6.017,6.017,0,0,1-5.976,3.449,6.991,6.991,0,0,0-4.827,1.3,6.021,6.021,0,0,1-6.894,0,6.957,6.957,0,0,0-4.114-1.33c-.238,0-.476.011-.717.033a6.013,6.013,0,0,1-5.968-3.449,7.024,7.024,0,0,0-3.538-3.534,6.021,6.021,0,0,1-3.449-5.976,6.99,6.99,0,0,0-1.3-4.827,6.027,6.027,0,0,1,0-6.9,6.975,6.975,0,0,0,1.3-4.827,6.027,6.027,0,0,1,3.449-5.976,7.03,7.03,0,0,0,3.538-3.53A6.022,6.022,0,0,1,80.817,7.96a7.028,7.028,0,0,0,4.831-1.29,6.027,6.027,0,0,1,6.9,0,7.008,7.008,0,0,0,4.824,1.29,6.032,6.032,0,0,1,5.976,3.452,7.029,7.029,0,0,0,3.53,3.53,6.038,6.038,0,0,1,3.456,5.976,7.008,7.008,0,0,0,1.29,4.827,6.027,6.027,0,0,1,0,6.9Zm-9.432,27.184a.785.785,0,0,0-1.026.279l-4.6,7.258L92.824,53.4a6.643,6.643,0,0,0,.617-.39,5.53,5.53,0,0,1,3.787-1.018,7.6,7.6,0,0,0,7.544-4.348,5.815,5.815,0,0,1,.476-.844L109.8,63.815l-7.615-3.988ZM81.627,67.364l-4.6-7.258A.793.793,0,0,0,76,59.828L68.39,63.815,72.946,46.8a6.6,6.6,0,0,1,.476.844,7.588,7.588,0,0,0,7.537,4.348,5.49,5.49,0,0,1,3.787,1.018,6.286,6.286,0,0,0,.624.39L81.627,67.365ZM112.91,24.843a5.532,5.532,0,0,1-1.018-3.787,7.591,7.591,0,0,0-4.348-7.537,5.5,5.5,0,0,1-2.772-2.769A7.6,7.6,0,0,0,97.228,6.4a5.544,5.544,0,0,1-3.787-1.011,7.585,7.585,0,0,0-8.7,0A5.527,5.527,0,0,1,80.951,6.4a7.6,7.6,0,0,0-7.529,4.352,5.508,5.508,0,0,1-2.772,2.772A7.585,7.585,0,0,0,66.3,21.056a5.536,5.536,0,0,1-1.022,3.787,7.616,7.616,0,0,0,0,8.7A5.545,5.545,0,0,1,66.3,37.333a7.585,7.585,0,0,0,4.348,7.537,6.463,6.463,0,0,1,1.026.606l-5.27,19.666a.783.783,0,0,0,1.122.9l8.559-4.482,5.169,8.161a.783.783,0,0,0,.665.364c.037,0,.074,0,.119-.007a.8.8,0,0,0,.643-.576l4.144-15.467a7.633,7.633,0,0,0,4.541,0L95.511,69.5a.79.79,0,0,0,.643.576c.037,0,.082.007.119.007a.793.793,0,0,0,.665-.364L102.1,61.56l8.555,4.482a.794.794,0,0,0,.858-.082.774.774,0,0,0,.264-.818l-5.262-19.666a5.919,5.919,0,0,1,1.026-.606,7.583,7.583,0,0,0,4.348-7.533,5.547,5.547,0,0,1,1.018-3.791,7.6,7.6,0,0,0,0-8.7Z" fill="#070202"/>
    </g>
  </g>
</svg>
