<svg xmlns="http://www.w3.org/2000/svg" xmlns:xlink="http://www.w3.org/1999/xlink" width="110" height="110" viewBox="0 0 110 110">
  <defs>
    <filter id="Trazado_982547" x="0" y="0" width="110" height="110" filterUnits="userSpaceOnUse">
      <feOffset dy="3" input="SourceAlpha"/>
      <feGaussianBlur stdDeviation="3" result="blur"/>
      <feFlood flood-opacity="0.161"/>
      <feComposite operator="in" in2="blur"/>
      <feComposite in="SourceGraphic"/>
    </filter>
  </defs>
  <g id="Grupo_1165502" data-name="Grupo 1165502" transform="translate(-1030 -2008)">
    <g id="Grupo_1164286" data-name="Grupo 1164286" transform="translate(230 -1788)">
      <g id="Grupo_1159364" data-name="Grupo 1159364" transform="translate(0 -542)">
        <g id="Grupo_1157015" data-name="Grupo 1157015" transform="translate(0 3549)">
          <g id="Grupo_1155792" data-name="Grupo 1155792" transform="translate(-1 -3894.666)">
            <g id="Grupo_1154703" data-name="Grupo 1154703" transform="translate(0 1465.666)">
              <g id="Grupo_1150789" data-name="Grupo 1150789" transform="translate(3 2320)">
                <g id="Grupo_1154212" data-name="Grupo 1154212" transform="translate(-236 -5809)">
                  <g id="Grupo_1152583" data-name="Grupo 1152583" transform="translate(1043 6713)">
                    <g id="Grupo_1146973" data-name="Grupo 1146973" transform="translate(0 0)">
                      <g id="Grupo_1146954" data-name="Grupo 1146954">
                        <g transform="matrix(1, 0, 0, 1, -9, -6)" filter="url(#Trazado_982547)">
                          <g id="Trazado_982547-2" data-name="Trazado 982547" transform="translate(9 6)" fill="#fff4e6">
                            <path d="M 46 90.49987030029297 C 39.99187850952148 90.49987030029297 34.16426849365234 89.32350921630859 28.67905426025391 87.00345611572266 C 23.38019943237305 84.76224517822266 18.62104034423828 81.55341339111328 14.53374671936035 77.46613311767578 C 10.44646644592285 73.37885284423828 7.237639904022217 68.61969757080078 4.996413230895996 63.32085418701172 C 2.676359891891479 57.83565521240234 1.5 52.008056640625 1.5 45.99993515014648 C 1.5 39.99181365966797 2.676359891891479 34.16421508789062 4.996413230895996 28.67901420593262 C 7.237639904022217 23.38017463684082 10.44646644592285 18.62101554870605 14.53374671936035 14.53373527526855 C 18.62104034423828 10.44645500183105 23.38019943237305 7.23762845993042 28.67905426025391 4.996415138244629 C 34.16426849365234 2.676361799240112 39.99187850952148 1.500001788139343 46 1.500001788139343 C 52.00812149047852 1.500001788139343 57.83573150634766 2.676361799240112 63.32094573974609 4.996415138244629 C 68.61979675292969 7.23762845993042 73.37895965576172 10.44645500183105 77.46625518798828 14.53373527526855 C 81.55353546142578 18.62101554870605 84.76235961914062 23.38017463684082 87.00358581542969 28.67901420593262 C 89.32363891601562 34.16421508789062 90.5 39.99181365966797 90.5 45.99993515014648 C 90.5 52.008056640625 89.32363891601562 57.83565521240234 87.00358581542969 63.32085418701172 C 84.76235961914062 68.61969757080078 81.55353546142578 73.37885284423828 77.46625518798828 77.46613311767578 C 73.37895965576172 81.55341339111328 68.61979675292969 84.76224517822266 63.32094573974609 87.00345611572266 C 57.83573150634766 89.32350921630859 52.00812149047852 90.49987030029297 46 90.49987030029297 Z" stroke="none"/>
                            <path d="M 46 2.999992370605469 C 40.1937141418457 2.999992370605469 34.56269836425781 4.136489868164062 29.26337051391602 6.377906799316406 C 24.14332580566406 8.543502807617188 19.54441070556641 11.64437866210938 15.59439849853516 15.59437561035156 C 11.64440155029297 19.54439544677734 8.54351806640625 24.14329528808594 6.377914428710938 29.26333618164062 C 4.136497497558594 34.56264877319336 3 40.19366455078125 3 45.99993515014648 C 3 51.80620574951172 4.136497497558594 57.43720626831055 6.377914428710938 62.73651885986328 C 8.54351806640625 67.8565673828125 11.64440155029297 72.45545959472656 15.59439849853516 76.40547943115234 C 19.54441070556641 80.35547637939453 24.14332580566406 83.45635223388672 29.26337051391602 85.6219482421875 C 34.56269836425781 87.86336517333984 40.1937141418457 88.99986267089844 46 88.99986267089844 C 51.8062858581543 88.99986267089844 57.43730163574219 87.86336517333984 62.73661422729492 85.6219482421875 C 67.85667419433594 83.45635223388672 72.45557403564453 80.35547637939453 76.40558624267578 76.40547943115234 C 80.35559844970703 72.45545959472656 83.45647430419922 67.8565673828125 85.6220703125 62.73651885986328 C 87.86350250244141 57.43720626831055 89 51.80620574951172 89 45.99993515014648 C 89 40.19366455078125 87.86350250244141 34.56264877319336 85.6220703125 29.26333618164062 C 83.45647430419922 24.14329528808594 80.35559844970703 19.54439544677734 76.40558624267578 15.59437561035156 C 72.45557403564453 11.64437866210938 67.85667419433594 8.543502807617188 62.73661422729492 6.377906799316406 C 57.43730163574219 4.136489868164062 51.8062858581543 2.999992370605469 46 2.999992370605469 M 46 -7.62939453125e-06 C 71.40509033203125 -7.62939453125e-06 92 20.59486389160156 92 45.99993515014648 C 92 71.40499114990234 71.40509033203125 91.99986267089844 46 91.99986267089844 C 20.59490203857422 91.99986267089844 0 71.40499114990234 0 45.99993515014648 C 0 20.59486389160156 20.59490203857422 -7.62939453125e-06 46 -7.62939453125e-06 Z" stroke="none" fill="#ff9d1c"/>
                          </g>
                        </g>
                      </g>
                    </g>
                  </g>
                </g>
              </g>
            </g>
          </g>
        </g>
      </g>
    </g>
    <g id="development_9551677" transform="translate(1024.462 2014.35)">
      <g id="Grupo_1165501" data-name="Grupo 1165501" transform="translate(36.782 26.682)">
        <path id="Trazado_1000698" data-name="Trazado 1000698" d="M80,265.9H93.376v12.424H80Z" transform="translate(-80 -245.624)" fill="#7292cb" fill-rule="evenodd"/>
        <path id="Trazado_1000699" data-name="Trazado 1000699" d="M282.3,112.5h13.376v32.7H282.3Z" transform="translate(-255.561 -112.5)" fill="#85449a" fill-rule="evenodd"/>
        <path id="Trazado_1000700" data-name="Trazado 1000700" d="M181.2,196.8h13.376v21.558H181.2Z" transform="translate(-167.824 -185.658)" fill="#9070b2" fill-rule="evenodd"/>
        <path id="Trazado_1000701" data-name="Trazado 1000701" d="M216.451,217.6h5.578v3.635a14.52,14.52,0,0,1,5.565,2.313l2.564-2.577,3.939,3.952-2.564,2.564a14.817,14.817,0,0,1,2.313,5.565h3.635v5.578h-3.635a14.64,14.64,0,0,1-2.313,5.565l2.564,2.564-3.939,3.952-2.564-2.564a15.035,15.035,0,0,1-5.565,2.313v3.635h-5.578v-3.635a14.64,14.64,0,0,1-5.565-2.313l-2.577,2.564-3.939-3.939,2.564-2.577a14.817,14.817,0,0,1-2.313-5.565H201v-5.578h3.635a14.64,14.64,0,0,1,2.313-5.565l-2.577-2.564,3.939-3.952,2.564,2.577a14.788,14.788,0,0,1,5.578-2.313Z" transform="translate(-185.007 -203.708)" fill="#f6851f" fill-rule="evenodd"/>
        <path id="Trazado_1000702" data-name="Trazado 1000702" d="M268.88,274.9a10.667,10.667,0,1,1-10.68,10.667A10.661,10.661,0,0,1,268.88,274.9Z" transform="translate(-234.646 -253.435)" fill="#fdb614" fill-rule="evenodd"/>
        <path id="Trazado_1000703" data-name="Trazado 1000703" d="M319.151,325.823v1.242H312v-1.242c0-1.375,2.472.04,1.467-3.516l.978-3.37c-1.427-.846-1.309-2.736-1.309-4.137h4.877c0,1.414.119,3.3-1.309,4.137l.978,3.37C316.679,325.863,319.151,324.449,319.151,325.823Z" transform="translate(-281.335 -288.061)" fill="#e6e6e6" fill-rule="evenodd"/>
      </g>
      <path id="Trazado_1000704" data-name="Trazado 1000704" d="M73.038,51.954a.628.628,0,0,1,1.256,0v1.269a.64.64,0,0,1-.211.476c-.013,1.348.053,3.08-1.2,4.124l.859,2.948a.754.754,0,0,1,0,.344c-.476,1.679-.026,1.837.357,1.983.595.211,1.137.423,1.137,1.361V65.7a.632.632,0,0,1-.621.634H67.46a.623.623,0,0,1-.621-.634V64.458c0-.952.542-1.15,1.137-1.361.383-.145.833-.3.357-1.983a.63.63,0,0,1,.013-.383l.846-2.908c-1.269-1.057-1.2-2.776-1.2-4.124a.64.64,0,0,1-.211-.476V51.954a.628.628,0,0,1,1.256,0V52.8h1.388v-.846a.628.628,0,0,1,1.256,0V52.8h1.388v-.846Zm.925,13.112c0-.74.079-.661-.3-.806-.872-.317-1.877-.687-1.176-3.318l-.912-3.159a.635.635,0,0,1,.264-.753c.925-.555,1-1.837,1-2.974H69.2c0,1.137.079,2.432,1,2.974a.66.66,0,0,1,.291.714l-.925,3.2c.7,2.63-.3,3-1.176,3.318-.4.145-.3.066-.3.806ZM71.016,47.513a11.3,11.3,0,1,1-11.3,11.3A11.3,11.3,0,0,1,71.016,47.513Zm7.1,4.2a10.047,10.047,0,1,0,0,14.209A10.044,10.044,0,0,0,78.113,51.716ZM68.227,39.953H73.8a.623.623,0,0,1,.621.634v3.119a17.272,17.272,0,0,1,1.837.542V27.33H64.143V44.936a15.075,15.075,0,0,1,3.45-1.216V40.6a.646.646,0,0,1,.634-.648Zm9.305,4.8a14.133,14.133,0,0,1,1.758.965L81.5,43.508a.615.615,0,0,1,.886,0l3.939,3.939a.615.615,0,0,1,0,.886L84.127,50.54A15.4,15.4,0,0,1,86.136,55.4h3.119a.621.621,0,0,1,.621.621V61.6a.623.623,0,0,1-.687.621H86.123a15.4,15.4,0,0,1-2.009,4.864L86.321,69.3a.615.615,0,0,1,0,.886l-3.939,3.952a.639.639,0,0,1-.886,0L79.29,71.926a15.274,15.274,0,0,1-4.864,2.009v3.119a.632.632,0,0,1-.621.634H68.227a.635.635,0,0,1-.634-.634V73.935a15.713,15.713,0,0,1-4.864-2.009l-2.207,2.207a.639.639,0,0,1-.886,0l-3.952-3.952a.615.615,0,0,1,0-.886l2.207-2.207a15.4,15.4,0,0,1-2.009-4.864H52.775a.623.623,0,0,1-.621-.634v-1.6H36.782a.632.632,0,0,1-.634-.621V46.945a.623.623,0,0,1,.634-.621H49.524V37.812a.623.623,0,0,1,.634-.621H62.9V26.682a.621.621,0,0,1,.621-.621H76.9a.632.632,0,0,1,.634.621Zm-25.391,14V56.025a.621.621,0,0,1,.621-.621h3.119a15.4,15.4,0,0,1,2.009-4.864l-2.207-2.207a.615.615,0,0,1,0-.886l3.939-3.939a.615.615,0,0,1,.886,0l2.207,2.207c.053-.04.106-.066.159-.106V38.446H50.753v20.3ZM73.17,41.208H68.848v2.974a.628.628,0,0,1-.515.648,14.031,14.031,0,0,0-2.776.833,15.125,15.125,0,0,0-2.525,1.361.627.627,0,0,1-.833-.053l-2.128-2.128L57.032,47.9l2.128,2.128a.6.6,0,0,1,.066.793,14.379,14.379,0,0,0-1.375,2.551,14.547,14.547,0,0,0-.819,2.736.639.639,0,0,1-.621.555h-3v4.322h3a.646.646,0,0,1,.621.515,14.219,14.219,0,0,0,2.194,5.3.627.627,0,0,1-.053.833l-2.128,2.128L60.1,72.812l2.128-2.128a.622.622,0,0,1,.793-.079,14.842,14.842,0,0,0,2.551,1.388,14.547,14.547,0,0,0,2.736.819.628.628,0,0,1,.555.621v3h4.322v-3a.646.646,0,0,1,.515-.621,14.031,14.031,0,0,0,2.776-.833A14.977,14.977,0,0,0,79,70.617a.627.627,0,0,1,.833.053L81.96,72.8l3.053-3.053-2.128-2.128a.622.622,0,0,1-.079-.793A14.123,14.123,0,0,0,85.013,61.5a.627.627,0,0,1,.621-.515h3V56.66h-3a.646.646,0,0,1-.621-.515,14.219,14.219,0,0,0-2.194-5.3.627.627,0,0,1,.053-.833L85,47.883,81.947,44.83l-2.128,2.128a.622.622,0,0,1-.793.079,13.922,13.922,0,0,0-5.287-2.207.628.628,0,0,1-.555-.621v-3ZM58.657,22.863a.628.628,0,0,1-1.256,0v-4.89a2.846,2.846,0,0,1,2.842-2.842h7.362l-.595-.344a.625.625,0,0,1,.621-1.084l2.6,1.507a.621.621,0,0,1,0,1.084l-2.6,1.507a.625.625,0,0,1-.621-1.084l.568-.33H60.243a1.591,1.591,0,0,0-1.586,1.586Zm-13.6,12.623a.628.628,0,0,1-1.256,0V30.066a2.846,2.846,0,0,1,2.842-2.842H54l-.595-.344a.625.625,0,0,1,.621-1.084l2.6,1.507a.626.626,0,0,1,.013,1.084l-2.6,1.507a.625.625,0,0,1-.621-1.084l.568-.33H46.656a1.591,1.591,0,0,0-1.586,1.586v5.419ZM31.456,47.91a.628.628,0,0,1-1.256,0V42.134a2.846,2.846,0,0,1,2.842-2.842H40.4l-.595-.344a.625.625,0,0,1,.621-1.084l2.6,1.507a.626.626,0,0,1,.013,1.084l-2.6,1.507a.625.625,0,0,1-.621-1.084l.568-.33H33.055a1.591,1.591,0,0,0-1.586,1.586V47.91Zm18.068-.317H37.417V58.761H49.524Z"/>
    </g>
  </g>
</svg>
