<svg xmlns="http://www.w3.org/2000/svg" xmlns:xlink="http://www.w3.org/1999/xlink" width="110" height="110" viewBox="0 0 110 110">
  <defs>
    <filter id="Trazado_982547" x="0" y="0" width="110" height="110" filterUnits="userSpaceOnUse">
      <feOffset dy="3" input="SourceAlpha"/>
      <feGaussianBlur stdDeviation="3" result="blur"/>
      <feFlood flood-opacity="0.161"/>
      <feComposite operator="in" in2="blur"/>
      <feComposite in="SourceGraphic"/>
    </filter>
  </defs>
  <g id="Grupo_1165503" data-name="Grupo 1165503" transform="translate(-1372 -2008)">
    <g id="Grupo_1164287" data-name="Grupo 1164287" transform="translate(572 -1788)">
      <g id="Grupo_1159364" data-name="Grupo 1159364" transform="translate(0 -542)">
        <g id="Grupo_1157015" data-name="Grupo 1157015" transform="translate(0 3549)">
          <g id="Grupo_1155792" data-name="Grupo 1155792" transform="translate(-1 -3894.666)">
            <g id="Grupo_1154703" data-name="Grupo 1154703" transform="translate(0 1465.666)">
              <g id="Grupo_1150789" data-name="Grupo 1150789" transform="translate(3 2320)">
                <g id="Grupo_1154212" data-name="Grupo 1154212" transform="translate(-236 -5809)">
                  <g id="Grupo_1152583" data-name="Grupo 1152583" transform="translate(1043 6713)">
                    <g id="Grupo_1146973" data-name="Grupo 1146973" transform="translate(0 0)">
                      <g id="Grupo_1146954" data-name="Grupo 1146954">
                        <g transform="matrix(1, 0, 0, 1, -9, -6)" filter="url(#Trazado_982547)">
                          <g id="Trazado_982547-2" data-name="Trazado 982547" transform="translate(9 6)" fill="#fff4e6">
                            <path d="M 46 90.49987030029297 C 39.99187850952148 90.49987030029297 34.16426849365234 89.32350921630859 28.67905426025391 87.00345611572266 C 23.38019943237305 84.76224517822266 18.62104034423828 81.55341339111328 14.53374671936035 77.46613311767578 C 10.44646644592285 73.37885284423828 7.237639904022217 68.61969757080078 4.996413230895996 63.32085418701172 C 2.676359891891479 57.83565521240234 1.5 52.008056640625 1.5 45.99993515014648 C 1.5 39.99181365966797 2.676359891891479 34.16421508789062 4.996413230895996 28.67901420593262 C 7.237639904022217 23.38017463684082 10.44646644592285 18.62101554870605 14.53374671936035 14.53373527526855 C 18.62104034423828 10.44645500183105 23.38019943237305 7.23762845993042 28.67905426025391 4.996415138244629 C 34.16426849365234 2.676361799240112 39.99187850952148 1.500001788139343 46 1.500001788139343 C 52.00812149047852 1.500001788139343 57.83573150634766 2.676361799240112 63.32094573974609 4.996415138244629 C 68.61979675292969 7.23762845993042 73.37895965576172 10.44645500183105 77.46625518798828 14.53373527526855 C 81.55353546142578 18.62101554870605 84.76235961914062 23.38017463684082 87.00358581542969 28.67901420593262 C 89.32363891601562 34.16421508789062 90.5 39.99181365966797 90.5 45.99993515014648 C 90.5 52.008056640625 89.32363891601562 57.83565521240234 87.00358581542969 63.32085418701172 C 84.76235961914062 68.61969757080078 81.55353546142578 73.37885284423828 77.46625518798828 77.46613311767578 C 73.37895965576172 81.55341339111328 68.61979675292969 84.76224517822266 63.32094573974609 87.00345611572266 C 57.83573150634766 89.32350921630859 52.00812149047852 90.49987030029297 46 90.49987030029297 Z" stroke="none"/>
                            <path d="M 46 2.999992370605469 C 40.1937141418457 2.999992370605469 34.56269836425781 4.136489868164062 29.26337051391602 6.377906799316406 C 24.14332580566406 8.543502807617188 19.54441070556641 11.64437866210938 15.59439849853516 15.59437561035156 C 11.64440155029297 19.54439544677734 8.54351806640625 24.14329528808594 6.377914428710938 29.26333618164062 C 4.136497497558594 34.56264877319336 3 40.19366455078125 3 45.99993515014648 C 3 51.80620574951172 4.136497497558594 57.43720626831055 6.377914428710938 62.73651885986328 C 8.54351806640625 67.8565673828125 11.64440155029297 72.45545959472656 15.59439849853516 76.40547943115234 C 19.54441070556641 80.35547637939453 24.14332580566406 83.45635223388672 29.26337051391602 85.6219482421875 C 34.56269836425781 87.86336517333984 40.1937141418457 88.99986267089844 46 88.99986267089844 C 51.8062858581543 88.99986267089844 57.43730163574219 87.86336517333984 62.73661422729492 85.6219482421875 C 67.85667419433594 83.45635223388672 72.45557403564453 80.35547637939453 76.40558624267578 76.40547943115234 C 80.35559844970703 72.45545959472656 83.45647430419922 67.8565673828125 85.6220703125 62.73651885986328 C 87.86350250244141 57.43720626831055 89 51.80620574951172 89 45.99993515014648 C 89 40.19366455078125 87.86350250244141 34.56264877319336 85.6220703125 29.26333618164062 C 83.45647430419922 24.14329528808594 80.35559844970703 19.54439544677734 76.40558624267578 15.59437561035156 C 72.45557403564453 11.64437866210938 67.85667419433594 8.543502807617188 62.73661422729492 6.377906799316406 C 57.43730163574219 4.136489868164062 51.8062858581543 2.999992370605469 46 2.999992370605469 M 46 -7.62939453125e-06 C 71.40509033203125 -7.62939453125e-06 92 20.59486389160156 92 45.99993515014648 C 92 71.40499114990234 71.40509033203125 91.99986267089844 46 91.99986267089844 C 20.59490203857422 91.99986267089844 0 71.40499114990234 0 45.99993515014648 C 0 20.59486389160156 20.59490203857422 -7.62939453125e-06 46 -7.62939453125e-06 Z" stroke="none" fill="#ff9d1c"/>
                          </g>
                        </g>
                      </g>
                    </g>
                  </g>
                </g>
              </g>
            </g>
          </g>
        </g>
      </g>
    </g>
    <g id="headquarter_6291957" transform="translate(1394 2028)">
      <rect id="Rectángulo_412798" data-name="Rectángulo 412798" width="13" height="34" transform="translate(43 9)" fill="#989eb3"/>
      <rect id="Rectángulo_412799" data-name="Rectángulo 412799" width="13" height="34" transform="translate(9 9)" fill="#989eb3"/>
      <rect id="Rectángulo_412800" data-name="Rectángulo 412800" width="21" height="41" transform="translate(22 2)" fill="#adb5cc"/>
      <path id="Trazado_1000705" data-name="Trazado 1000705" d="M32.082,5l1.261,2.687,2.821.432-2.041,2.092.482,2.954-2.523-1.4-2.523,1.4.482-2.954L28,8.119l2.821-.432Z" transform="translate(0.474 0.082)" fill="#ffd766"/>
      <circle id="Elipse_11712" data-name="Elipse 11712" cx="3" cy="3" r="3" transform="translate(19 18)" fill="#5496e4"/>
      <path id="Trazado_1000706" data-name="Trazado 1000706" d="M23.124,24H21.082A4.082,4.082,0,0,0,17,28.082v5.1l2.041,1.021v8.165h6.124V34.206l2.041-1.021v-5.1A4.082,4.082,0,0,0,23.124,24Z" transform="translate(0.247 0.474)" fill="#5496e4"/>
      <ellipse id="Elipse_11713" data-name="Elipse 11713" cx="3.5" cy="3" rx="3.5" ry="3" transform="translate(29 18)" fill="#5496e4"/>
      <path id="Trazado_1000707" data-name="Trazado 1000707" d="M33.124,24H31.082A4.082,4.082,0,0,0,27,28.082v5.1l2.041,1.021v8.165h6.124V34.206l2.041-1.021v-5.1A4.082,4.082,0,0,0,33.124,24Z" transform="translate(0.453 0.474)" fill="#5496e4"/>
      <circle id="Elipse_11714" data-name="Elipse 11714" cx="3" cy="3" r="3" transform="translate(40 18)" fill="#5496e4"/>
      <path id="Trazado_1000708" data-name="Trazado 1000708" d="M43.124,24H41.082A4.082,4.082,0,0,0,37,28.082v5.1l2.041,1.021v8.165h6.124V34.206l2.041-1.021v-5.1A4.082,4.082,0,0,0,43.124,24Z" transform="translate(0.659 0.474)" fill="#5496e4"/>
      <path id="Trazado_1000709" data-name="Trazado 1000709" d="M6,42C8.119,53.586,19.2,62.412,32.535,62.412S56.952,53.586,59.071,42Z" transform="translate(0.021 0.844)" fill="#7bcc8f"/>
      <path id="Trazado_1000710" data-name="Trazado 1000710" d="M44.393,59.462c-2.712-1.715-7.145-2.84-12.148-2.84s-9.437,1.125-12.148,2.84a29.18,29.18,0,0,0,24.3,0Z" transform="translate(0.311 1.145)" fill="#dae6e4"/>
      <path id="Trazado_1000711" data-name="Trazado 1000711" d="M28.971,10.575l-.4,2.446a1.02,1.02,0,0,0,1.5,1.057L32.1,12.957l2.029,1.122a1.02,1.02,0,0,0,1.5-1.057l-.4-2.446,1.681-1.723a1.02,1.02,0,0,0-.577-1.721l-2.282-.349-1.03-2.195a1.021,1.021,0,0,0-1.848,0l-1.03,2.195-2.282.349a1.02,1.02,0,0,0-.577,1.721ZM31,8.717a1.022,1.022,0,0,0,.77-.576l.337-.719.337.719a1.022,1.022,0,0,0,.77.576l.858.131-.654.671a1.02,1.02,0,0,0-.277.877l.144.88L32.6,10.9a1.02,1.02,0,0,0-.988,0l-.684.378.144-.88a1.02,1.02,0,0,0-.277-.877l-.654-.671Z" transform="translate(0.453 0.062)"/>
      <path id="Trazado_1000712" data-name="Trazado 1000712" d="M59.875,42.191a1.02,1.02,0,0,0-.784-.367H57.05V9.165A1.021,1.021,0,0,0,56.03,8.144H43.782V2.021A1.021,1.021,0,0,0,42.762,1H22.35a1.021,1.021,0,0,0-1.021,1.021V8.144H9.082A1.021,1.021,0,0,0,8.062,9.165V41.824H6.021a1.021,1.021,0,0,0-1,1.2C7.268,55.34,18.85,64.277,32.556,64.277S57.843,55.34,60.1,43.028A1.021,1.021,0,0,0,59.875,42.191ZM43.782,10.185H55.009v3.062H50.927v2.041h4.082V18.35H50.927v2.041h4.082v3.062H50.927v2.041h4.082v3.062H50.927V30.6h4.082V41.824H46.844V35.31l1.477-.739a1.02,1.02,0,0,0,.564-.913v-5.1a5.1,5.1,0,0,0-2.949-4.609,4.041,4.041,0,0,0-2.154-6.472ZM20.139,49.976a24.644,24.644,0,0,1-1.4-6.111h12.8v4.791a56.265,56.265,0,0,0-11.4,1.32Zm11.4.721v6.077A30.161,30.161,0,0,0,25,57.65a20.565,20.565,0,0,1-4.049-5.761A54.375,54.375,0,0,1,31.535,50.7Zm-5.1-17.669-1.477.739a1.02,1.02,0,0,0-.564.913v7.144H20.309V34.68a1.021,1.021,0,0,0-.564-.913l-1.477-.738V28.556a3.065,3.065,0,0,1,3.062-3.062h2.041a3.065,3.065,0,0,1,3.062,3.062ZM27.453,34.8l1.021.51v6.513H26.432V35.31Zm3.062,7.024V34.68a1.021,1.021,0,0,0-.564-.913l-1.477-.738V28.556a3.065,3.065,0,0,1,3.062-3.062h2.041a3.065,3.065,0,0,1,3.062,3.062v4.472l-1.477.739a1.02,1.02,0,0,0-.564.913v7.144Zm0-20.412a2.041,2.041,0,1,1,2.041,2.041,2.041,2.041,0,0,1-2.041-2.041ZM37.659,34.8l1.021.51v6.513H36.638V35.31ZM33.577,50.694a54.609,54.609,0,0,1,10.457,1.138l.06.015a20.309,20.309,0,0,1-4.061,5.783,30.248,30.248,0,0,0-6.456-.855Zm0-2.041V43.865H46.291A24.488,24.488,0,0,1,44.9,49.944c-.15-.034-.291-.075-.442-.108a56.65,56.65,0,0,0-10.885-1.183ZM45.367,33.767a1.02,1.02,0,0,0-.564.913v7.144H40.721V34.68a1.021,1.021,0,0,0-.564-.913l-1.477-.738V28.556a3.065,3.065,0,0,1,3.062-3.062h2.041a3.065,3.065,0,0,1,3.062,3.062v4.472ZM44.8,21.412a2.041,2.041,0,1,1-2.041-2.041A2.041,2.041,0,0,1,44.8,21.412ZM23.371,3.041H41.741V17.474a4.041,4.041,0,0,0-2.154,6.472,5.115,5.115,0,0,0-1.929,1.579,5.115,5.115,0,0,0-1.928-1.579,4.042,4.042,0,0,0,.908-2.535,4.082,4.082,0,0,0-8.165,0,4.042,4.042,0,0,0,.908,2.535,5.115,5.115,0,0,0-1.928,1.579,5.115,5.115,0,0,0-1.928-1.579,4.041,4.041,0,0,0-2.154-6.472ZM22.35,19.371a2.041,2.041,0,1,1-2.041,2.041A2.041,2.041,0,0,1,22.35,19.371ZM10.1,30.6h4.082V28.556H10.1V25.494h4.082V23.453H10.1V20.391h4.082V18.35H10.1V15.288h4.082V13.247H10.1V10.185H21.329v7.289a4.041,4.041,0,0,0-2.154,6.472,5.1,5.1,0,0,0-2.949,4.609v5.1a1.021,1.021,0,0,0,.564.913l1.477.738v6.513H10.1Zm1.641,22.177A22.37,22.37,0,0,1,7.28,43.865h9.41a26.751,26.751,0,0,0,1.456,6.6,38.9,38.9,0,0,0-6.4,2.312Zm8.6,6.7a25.54,25.54,0,0,1-7.181-5.108,37.856,37.856,0,0,1,5.74-2,23.018,23.018,0,0,0,3.905,5.961,16.288,16.288,0,0,0-2.464,1.143Zm12.212,2.761a28.347,28.347,0,0,1-9.723-1.717,25.919,25.919,0,0,1,9.723-1.731,25.919,25.919,0,0,1,9.723,1.731,28.348,28.348,0,0,1-9.723,1.717Zm12.212-2.761a16.379,16.379,0,0,0-2.532-1.167,22.868,22.868,0,0,0,3.9-5.963,37.906,37.906,0,0,1,5.807,2.027,25.543,25.543,0,0,1-7.176,5.1Zm8.6-6.7A38.956,38.956,0,0,0,46.9,50.43a26.607,26.607,0,0,0,1.444-6.565h9.492a22.37,22.37,0,0,1-4.466,8.912Z"/>
    </g>
  </g>
</svg>
