<svg xmlns="http://www.w3.org/2000/svg" xmlns:xlink="http://www.w3.org/1999/xlink" width="110" height="110" viewBox="0 0 110 110">
  <defs>
    <filter id="Trazado_982547" x="0" y="0" width="110" height="110" filterUnits="userSpaceOnUse">
      <feOffset dy="3" input="SourceAlpha"/>
      <feGaussianBlur stdDeviation="3" result="blur"/>
      <feFlood flood-opacity="0.161"/>
      <feComposite operator="in" in2="blur"/>
      <feComposite in="SourceGraphic"/>
    </filter>
  </defs>
  <g id="Grupo_1165504" data-name="Grupo 1165504" transform="translate(-1714 -2011.665)">
    <g id="Grupo_1164283" data-name="Grupo 1164283" transform="translate(914 -1784.335)">
      <g id="Grupo_1159364" data-name="Grupo 1159364" transform="translate(0 -542)">
        <g id="Grupo_1157015" data-name="Grupo 1157015" transform="translate(0 3549)">
          <g id="Grupo_1155792" data-name="Grupo 1155792" transform="translate(-1 -3894.666)">
            <g id="Grupo_1154703" data-name="Grupo 1154703" transform="translate(0 1465.666)">
              <g id="Grupo_1150789" data-name="Grupo 1150789" transform="translate(3 2320)">
                <g id="Grupo_1154212" data-name="Grupo 1154212" transform="translate(-236 -5809)">
                  <g id="Grupo_1152583" data-name="Grupo 1152583" transform="translate(1043 6713)">
                    <g id="Grupo_1146973" data-name="Grupo 1146973" transform="translate(0 0)">
                      <g id="Grupo_1146954" data-name="Grupo 1146954">
                        <g transform="matrix(1, 0, 0, 1, -9, -6)" filter="url(#Trazado_982547)">
                          <g id="Trazado_982547-2" data-name="Trazado 982547" transform="translate(9 6)" fill="#fff4e6">
                            <path d="M 46 90.49987030029297 C 39.99187850952148 90.49987030029297 34.16426849365234 89.32350921630859 28.67905426025391 87.00345611572266 C 23.38019943237305 84.76224517822266 18.62104034423828 81.55341339111328 14.53374671936035 77.46613311767578 C 10.44646644592285 73.37885284423828 7.237639904022217 68.61969757080078 4.996413230895996 63.32085418701172 C 2.676359891891479 57.83565521240234 1.5 52.008056640625 1.5 45.99993515014648 C 1.5 39.99181365966797 2.676359891891479 34.16421508789062 4.996413230895996 28.67901420593262 C 7.237639904022217 23.38017463684082 10.44646644592285 18.62101554870605 14.53374671936035 14.53373527526855 C 18.62104034423828 10.44645500183105 23.38019943237305 7.23762845993042 28.67905426025391 4.996415138244629 C 34.16426849365234 2.676361799240112 39.99187850952148 1.500001788139343 46 1.500001788139343 C 52.00812149047852 1.500001788139343 57.83573150634766 2.676361799240112 63.32094573974609 4.996415138244629 C 68.61979675292969 7.23762845993042 73.37895965576172 10.44645500183105 77.46625518798828 14.53373527526855 C 81.55353546142578 18.62101554870605 84.76235961914062 23.38017463684082 87.00358581542969 28.67901420593262 C 89.32363891601562 34.16421508789062 90.5 39.99181365966797 90.5 45.99993515014648 C 90.5 52.008056640625 89.32363891601562 57.83565521240234 87.00358581542969 63.32085418701172 C 84.76235961914062 68.61969757080078 81.55353546142578 73.37885284423828 77.46625518798828 77.46613311767578 C 73.37895965576172 81.55341339111328 68.61979675292969 84.76224517822266 63.32094573974609 87.00345611572266 C 57.83573150634766 89.32350921630859 52.00812149047852 90.49987030029297 46 90.49987030029297 Z" stroke="none"/>
                            <path d="M 46 2.999992370605469 C 40.1937141418457 2.999992370605469 34.56269836425781 4.136489868164062 29.26337051391602 6.377906799316406 C 24.14332580566406 8.543502807617188 19.54441070556641 11.64437866210938 15.59439849853516 15.59437561035156 C 11.64440155029297 19.54439544677734 8.54351806640625 24.14329528808594 6.377914428710938 29.26333618164062 C 4.136497497558594 34.56264877319336 3 40.19366455078125 3 45.99993515014648 C 3 51.80620574951172 4.136497497558594 57.43720626831055 6.377914428710938 62.73651885986328 C 8.54351806640625 67.8565673828125 11.64440155029297 72.45545959472656 15.59439849853516 76.40547943115234 C 19.54441070556641 80.35547637939453 24.14332580566406 83.45635223388672 29.26337051391602 85.6219482421875 C 34.56269836425781 87.86336517333984 40.1937141418457 88.99986267089844 46 88.99986267089844 C 51.8062858581543 88.99986267089844 57.43730163574219 87.86336517333984 62.73661422729492 85.6219482421875 C 67.85667419433594 83.45635223388672 72.45557403564453 80.35547637939453 76.40558624267578 76.40547943115234 C 80.35559844970703 72.45545959472656 83.45647430419922 67.8565673828125 85.6220703125 62.73651885986328 C 87.86350250244141 57.43720626831055 89 51.80620574951172 89 45.99993515014648 C 89 40.19366455078125 87.86350250244141 34.56264877319336 85.6220703125 29.26333618164062 C 83.45647430419922 24.14329528808594 80.35559844970703 19.54439544677734 76.40558624267578 15.59437561035156 C 72.45557403564453 11.64437866210938 67.85667419433594 8.543502807617188 62.73661422729492 6.377906799316406 C 57.43730163574219 4.136489868164062 51.8062858581543 2.999992370605469 46 2.999992370605469 M 46 -7.62939453125e-06 C 71.40509033203125 -7.62939453125e-06 92 20.59486389160156 92 45.99993515014648 C 92 71.40499114990234 71.40509033203125 91.99986267089844 46 91.99986267089844 C 20.59490203857422 91.99986267089844 0 71.40499114990234 0 45.99993515014648 C 0 20.59486389160156 20.59490203857422 -7.62939453125e-06 46 -7.62939453125e-06 Z" stroke="none" fill="#ff9d1c"/>
                          </g>
                        </g>
                      </g>
                    </g>
                  </g>
                </g>
              </g>
            </g>
          </g>
        </g>
      </g>
    </g>
    <g id="Layer_32" data-name="Layer 32" transform="translate(1736.841 2031.92)">
      <path id="Trazado_1000713" data-name="Trazado 1000713" d="M53.5,28.693V18.807l-2.688-.244A19.615,19.615,0,0,0,48.9,13.936l1.725-2.07L43.635,4.875,41.564,6.6a19.615,19.615,0,0,0-4.627-1.912L36.693,2H26.807l-.244,2.688A19.615,19.615,0,0,0,21.936,6.6l-2.07-1.725-6.991,6.991,1.725,2.07a19.615,19.615,0,0,0-1.912,4.627L10,18.807v9.886l2.688.244A19.615,19.615,0,0,0,14.6,33.564l-1.725,2.07,6.991,6.991,2.07-1.725a19.615,19.615,0,0,0,4.627,1.912l.244,2.688h9.886l.244-2.688A19.615,19.615,0,0,0,41.564,40.9l2.07,1.725,6.991-6.991L48.9,33.564a19.614,19.614,0,0,0,1.912-4.627Z" transform="translate(-0.091 -0.011)" fill="#f79b31"/>
      <path id="Trazado_1000714" data-name="Trazado 1000714" d="M48.957,13.936l1.725-2.07L43.691,4.875,41.621,6.6a19.615,19.615,0,0,0-4.627-1.912L36.75,2H31.694a5.7,5.7,0,0,1-4.228,5.515,16.807,16.807,0,0,0,0,32.471A5.7,5.7,0,0,1,31.694,45.5H36.75l.244-2.688A19.615,19.615,0,0,0,41.621,40.9l2.07,1.725,6.991-6.991-1.725-2.07a19.614,19.614,0,0,0,1.912-4.627l2.688-.244V18.807l-2.688-.244a19.615,19.615,0,0,0-1.912-4.627Z" transform="translate(-0.148 -0.011)" fill="#fcb732"/>
      <circle id="Elipse_11715" data-name="Elipse 11715" cx="14.83" cy="14.83" r="14.83" transform="translate(16.83 8.909)" fill="#66c3e9"/>
      <path id="Trazado_1000715" data-name="Trazado 1000715" d="M31.864,9a14.741,14.741,0,0,0-8.888,2.979,14.809,14.809,0,0,0,20.74,20.736A14.809,14.809,0,0,0,31.864,9Z" transform="translate(-0.204 -0.091)" fill="#8adef9"/>
      <path id="Trazado_1000716" data-name="Trazado 1000716" d="M24.75,56.278v6.347h-9.1l.119-.613a3.9,3.9,0,0,0,.079-.761,3.847,3.847,0,0,0-1.127-2.719L7.943,51.75,4.77,45.4A16.739,16.739,0,0,1,3,37.909V32.155a2.158,2.158,0,0,1,4.281-.385l1.127,6.248a1.993,1.993,0,0,1,.643-.109,2.1,2.1,0,0,1,1.483.613l3.994,3.994a6.723,6.723,0,0,0,3.144,1.78,6.786,6.786,0,0,1,3.549,2.224,15.225,15.225,0,0,1,3.529,9.758Z" transform="translate(-0.011 -0.329)" fill="#fec99c"/>
      <path id="Trazado_1000717" data-name="Trazado 1000717" d="M21.243,46.523A6.786,6.786,0,0,0,17.694,44.3a6.723,6.723,0,0,1-3.144-1.78l-3.994-3.994a2.1,2.1,0,0,0-1.483-.613,1.993,1.993,0,0,0-.643.109L7.3,31.773a2.149,2.149,0,0,0-1.132-1.521A2.112,2.112,0,0,0,5,32.158v5.754a16.742,16.742,0,0,0,1.771,7.5l3.172,6.344,6.782,6.782a3.847,3.847,0,0,1,1.127,2.719,3.9,3.9,0,0,1-.079.761l-.119.613h7.118V56.281A15.225,15.225,0,0,0,21.243,46.523Z" transform="translate(-0.034 -0.332)" fill="#fedab6"/>
      <path id="Trazado_1000718" data-name="Trazado 1000718" d="M14.926,53.058a13.683,13.683,0,0,0-3.614-6.381L6.9,42.268A3.065,3.065,0,0,1,6,40.086,3.107,3.107,0,0,1,6.9,37.9a3.011,3.011,0,0,1,1.253-.751l.573,1.892A1.03,1.03,0,0,0,8.3,39.3a1.115,1.115,0,0,0-.323.784,1.1,1.1,0,0,0,.323.784L12.71,45.28a15.673,15.673,0,0,1,4.136,7.3Z" transform="translate(-0.045 -0.411)" fill="#fec99c"/>
      <path id="Trazado_1000719" data-name="Trazado 1000719" d="M39,56.278v6.347h9.1l-.119-.613a3.9,3.9,0,0,1-.079-.761,3.847,3.847,0,0,1,1.127-2.719l6.782-6.782L58.98,45.4a16.739,16.739,0,0,0,1.77-7.494V32.155a2.158,2.158,0,0,0-4.281-.385l-1.127,6.248a1.993,1.993,0,0,0-.643-.109,2.1,2.1,0,0,0-1.483.613l-3.994,3.994a6.723,6.723,0,0,1-3.144,1.78,6.786,6.786,0,0,0-3.549,2.224A15.225,15.225,0,0,0,39,56.278Z" transform="translate(-0.42 -0.329)" fill="#fec99c"/>
      <path id="Trazado_1000720" data-name="Trazado 1000720" d="M42.529,46.523A6.786,6.786,0,0,1,46.079,44.3a6.723,6.723,0,0,0,3.144-1.78l3.994-3.994a2.1,2.1,0,0,1,1.483-.613,1.993,1.993,0,0,1,.643.109l1.127-6.248A2.149,2.149,0,0,1,57.6,30.252a2.112,2.112,0,0,1,1.172,1.906v5.754A16.742,16.742,0,0,1,57,45.409L53.83,51.753l-6.782,6.782a3.847,3.847,0,0,0-1.127,2.719,3.9,3.9,0,0,0,.079.761l.119.613H39V56.281a15.225,15.225,0,0,1,3.529-9.758Z" transform="translate(-0.42 -0.332)" fill="#fedab6"/>
      <path id="Trazado_1000721" data-name="Trazado 1000721" d="M48.949,53.058a13.683,13.683,0,0,1,3.614-6.381l4.409-4.409a3.065,3.065,0,0,0,.9-2.182,3.107,3.107,0,0,0-.9-2.182,3.011,3.011,0,0,0-1.253-.751l-.573,1.892a1.03,1.03,0,0,1,.428.257,1.115,1.115,0,0,1,.323.784,1.1,1.1,0,0,1-.323.784L51.165,45.28a15.673,15.673,0,0,0-4.136,7.3Z" transform="translate(-0.511 -0.411)" fill="#fec99c"/>
      <path id="Trazado_1000722" data-name="Trazado 1000722" d="M29.123,16.909a5.227,5.227,0,0,1,4.959,3.575A3.447,3.447,0,0,0,40.8,19.4h0a2.484,2.484,0,0,1,2.48-2.487h1.729a14.8,14.8,0,0,0-21.668-5.179l.011.088A5.811,5.811,0,0,0,29.123,16.909Z" transform="translate(-0.242 -0.091)" fill="#a6d305"/>
      <path id="Trazado_1000723" data-name="Trazado 1000723" d="M23.971,28.714a4.115,4.115,0,0,1,3.9-2.814,1.977,1.977,0,1,0,0-3.955A11.525,11.525,0,0,1,18.6,17.258a14.731,14.731,0,0,0,.7,14.575h.344a4.56,4.56,0,0,0,4.326-3.119Z" transform="translate(-0.17 -0.185)" fill="#8dbf00"/>
      <path id="Trazado_1000724" data-name="Trazado 1000724" d="M36.966,27a6.711,6.711,0,0,0-6.453,4.867,4.234,4.234,0,0,1-2.586,2.8L23.577,36.3a14.816,14.816,0,0,0,21.531-5.536l-4.687-2.813A6.71,6.71,0,0,0,36.966,27Z" transform="translate(-0.245 -0.295)" fill="#8dbf00"/>
      <path id="Trazado_1000725" data-name="Trazado 1000725" d="M27.909,25.92a1.977,1.977,0,1,0,0-3.955,11.511,11.511,0,0,1-7.754-3.022A14.983,14.983,0,0,0,20,20.977a14.751,14.751,0,0,0,3.2,9.194,4.5,4.5,0,0,0,.8-1.433,4.115,4.115,0,0,1,3.9-2.819Z" transform="translate(-0.204 -0.204)" fill="#a6d305"/>
      <path id="Trazado_1000726" data-name="Trazado 1000726" d="M40.474,27.956a6.711,6.711,0,0,0-9.905,3.911,4.216,4.216,0,0,1-2.083,2.548A14.725,14.725,0,0,0,43.8,32.932a14.944,14.944,0,0,0,1.359-2.159Z" transform="translate(-0.301 -0.295)" fill="#a6d305"/>
      <path id="Trazado_1000727" data-name="Trazado 1000727" d="M7.047,52.181a1.016,1.016,0,0,0,.186.257l6.78,6.78a2.844,2.844,0,0,1,.839,2.026,2.884,2.884,0,0,1-.055.562l-.124.615,1.939.388.124-.614a4.868,4.868,0,0,0,.094-.95,4.807,4.807,0,0,0-1.419-3.424L8.745,51.154l-3.1-6.207A15.825,15.825,0,0,1,3.977,37.9V32.144a1.168,1.168,0,0,1,2.315-.209l1,5.519a3.082,3.082,0,0,0-.437,4.723l4.412,4.413a13.726,13.726,0,0,1,3.612,6.378l1.918-.48a15.719,15.719,0,0,0-4.131-7.3L8.256,40.779a1.109,1.109,0,0,1,1.568-1.568l4,4a7.733,7.733,0,0,0,3.6,2.037,5.725,5.725,0,0,1,3.032,1.9,14.28,14.28,0,0,1,3.3,9.121v6.347h1.977V56.267a16.259,16.259,0,0,0-3.757-10.388,7.7,7.7,0,0,0-4.07-2.555,5.772,5.772,0,0,1-2.679-1.517l-4-4a3.052,3.052,0,0,0-2.013-.89l-.975-5.341A3.145,3.145,0,0,0,2,32.144V37.9a17.818,17.818,0,0,0,1.878,7.934Z" transform="translate(0 -0.318)"/>
      <path id="Trazado_1000728" data-name="Trazado 1000728" d="M55.489,31.582l-.971,5.344a3.052,3.052,0,0,0-2.013.89l-4,4a5.772,5.772,0,0,1-2.679,1.517,7.7,7.7,0,0,0-4.074,2.552A16.259,16.259,0,0,0,38,56.267v6.347h1.977V56.267a14.28,14.28,0,0,1,3.3-9.121,5.725,5.725,0,0,1,3.032-1.9,7.733,7.733,0,0,0,3.6-2.037l4-4a1.109,1.109,0,0,1,1.568,1.568l-4.413,4.412a15.719,15.719,0,0,0-4.131,7.3l1.918.48a13.726,13.726,0,0,1,3.612-6.378l4.412-4.413a3.082,3.082,0,0,0-.437-4.723l1-5.519a1.168,1.168,0,0,1,2.315.209V37.9a15.825,15.825,0,0,1-1.665,7.049l-3.1,6.207L48.316,57.82A4.807,4.807,0,0,0,46.9,61.244a4.868,4.868,0,0,0,.094.95l.124.614,1.939-.388-.124-.615a2.884,2.884,0,0,1-.055-.562,2.844,2.844,0,0,1,.839-2.026l6.78-6.78a1.016,1.016,0,0,0,.186-.257l3.174-6.349A17.818,17.818,0,0,0,61.727,37.9V32.144a3.145,3.145,0,0,0-6.238-.562Z" transform="translate(-0.409 -0.318)"/>
      <path id="Trazado_1000729" data-name="Trazado 1000729" d="M12.164,36.322l6.992,6.992a.989.989,0,0,0,1.332.06l1.552-1.293a20.609,20.609,0,0,0,3.589,1.483l.179,2.014a.989.989,0,0,0,.989.9h9.886a.989.989,0,0,0,.989-.9l.183-2.016a20.609,20.609,0,0,0,3.589-1.483l1.552,1.293a.989.989,0,0,0,1.332-.06l6.988-6.99a.989.989,0,0,0,.06-1.332l-1.293-1.552a20.61,20.61,0,0,0,1.483-3.589l2.014-.179a.989.989,0,0,0,.9-.989V18.8a.989.989,0,0,0-.9-.989l-2.016-.183a20.609,20.609,0,0,0-1.483-3.589l1.293-1.552a.989.989,0,0,0-.06-1.332l-6.99-6.988a.989.989,0,0,0-1.332-.06L41.438,5.4A20.533,20.533,0,0,0,37.85,3.914L37.671,1.9a.989.989,0,0,0-.989-.9H26.8a.989.989,0,0,0-.989.9l-.183,2.016A20.533,20.533,0,0,0,22.035,5.4L20.487,4.1a.989.989,0,0,0-1.332.06l-6.992,6.991a.989.989,0,0,0-.06,1.332L13.4,14.039a20.609,20.609,0,0,0-1.483,3.589L9.9,17.807A.989.989,0,0,0,9,18.8v9.886a.989.989,0,0,0,.9.989l2.016.183A20.61,20.61,0,0,0,13.4,33.442l-1.293,1.552A.989.989,0,0,0,12.164,36.322Zm.6-8.381-1.788-.162V19.7l1.789-.162a.989.989,0,0,0,.864-.726,18.652,18.652,0,0,1,1.816-4.394.989.989,0,0,0-.1-1.125L14.2,11.916,19.916,6.2l1.376,1.147a.989.989,0,0,0,1.125.1A18.67,18.67,0,0,1,26.81,5.631a.989.989,0,0,0,.726-.864L27.7,2.977h8.081l.162,1.789a.989.989,0,0,0,.726.864,18.67,18.67,0,0,1,4.394,1.816.989.989,0,0,0,1.125-.1L43.562,6.2l5.714,5.714L48.13,13.292a.989.989,0,0,0-.1,1.125,18.652,18.652,0,0,1,1.816,4.394.989.989,0,0,0,.864.726L52.5,19.7v8.081l-1.789.162a.989.989,0,0,0-.864.726,18.652,18.652,0,0,1-1.816,4.394.989.989,0,0,0,.1,1.125l1.147,1.376-5.714,5.714L42.186,40.13a.989.989,0,0,0-1.125-.1,18.652,18.652,0,0,1-4.394,1.816.989.989,0,0,0-.726.864L35.779,44.5H27.7l-.162-1.789a.989.989,0,0,0-.726-.864,18.652,18.652,0,0,1-4.394-1.816.989.989,0,0,0-1.125.1l-1.376,1.147L14.2,35.562l1.147-1.376a.989.989,0,0,0,.1-1.125,18.652,18.652,0,0,1-1.816-4.394.989.989,0,0,0-.864-.726Z" transform="translate(-0.079 0)"/>
      <path id="Trazado_1000730" data-name="Trazado 1000730" d="M31.818,39.637A15.818,15.818,0,1,0,16,23.818,15.818,15.818,0,0,0,31.818,39.637Zm0-1.977a13.728,13.728,0,0,1-6-1.384l2.373-.89a5.248,5.248,0,0,0,3.189-3.46,5.722,5.722,0,0,1,8.449-3.337L43.682,30.9a13.832,13.832,0,0,1-11.864,6.754Zm11.346-21.75a3.475,3.475,0,0,0-3.437,3.473,2.459,2.459,0,0,1-4.791.777,6.211,6.211,0,0,0-5.9-4.25,4.817,4.817,0,0,1-4.676-3.733,13.787,13.787,0,0,1,18.8,3.733ZM22.673,13.456a6.809,6.809,0,0,0,6.365,4.43,4.232,4.232,0,0,1,4.022,2.9,4.436,4.436,0,0,0,8.645-1.4,1.5,1.5,0,0,1,1.5-1.5h1.1a13.734,13.734,0,0,1,.287,11.257l-3.751-2.25a7.7,7.7,0,0,0-11.363,4.486,3.263,3.263,0,0,1-1.983,2.149l-3.841,1.44a13.952,13.952,0,0,1-2.589-2.451,5.529,5.529,0,0,0,3.834-3.6,3.123,3.123,0,0,1,2.966-2.137,2.966,2.966,0,1,0,0-5.932,10.563,10.563,0,0,1-8.1-3.821,13.924,13.924,0,0,1,2.9-3.575Zm-3.806,5.537a12.563,12.563,0,0,0,9,3.836.989.989,0,1,1,0,1.977,5.094,5.094,0,0,0-4.844,3.49,3.559,3.559,0,0,1-3.182,2.425,13.673,13.673,0,0,1-.97-11.728Z" transform="translate(-0.159 -0.079)"/>
    </g>
  </g>
</svg>
