<svg xmlns="http://www.w3.org/2000/svg" xmlns:xlink="http://www.w3.org/1999/xlink" width="530.371" height="534.859" viewBox="0 0 530.371 534.859">
  <defs>
    <radialGradient id="radial-gradient" cx="0.843" cy="0.858" r="0.973" gradientUnits="objectBoundingBox">
      <stop offset="0" stop-color="#faed38"/>
      <stop offset="0.384" stop-color="#f9eb37"/>
      <stop offset="0.579" stop-color="#f7e336"/>
      <stop offset="0.732" stop-color="#f3d634"/>
      <stop offset="0.862" stop-color="#edc331"/>
      <stop offset="0.978" stop-color="#e5ab2e"/>
      <stop offset="1" stop-color="#e3a52d"/>
    </radialGradient>
    <radialGradient id="radial-gradient-2" cx="0.183" cy="0.184" r="0.922" gradientUnits="objectBoundingBox">
      <stop offset="0" stop-color="#a91863"/>
      <stop offset="0.476" stop-color="#a71963"/>
      <stop offset="0.648" stop-color="#a01a64"/>
      <stop offset="0.77" stop-color="#951e64"/>
      <stop offset="0.869" stop-color="#842266"/>
      <stop offset="0.952" stop-color="#6e2867"/>
      <stop offset="1" stop-color="#5e2c68"/>
    </radialGradient>
    <radialGradient id="radial-gradient-3" cx="0.161" cy="0.847" r="0.971" gradientUnits="objectBoundingBox">
      <stop offset="0" stop-color="#9dbe39"/>
      <stop offset="1" stop-color="#579b48"/>
    </radialGradient>
    <radialGradient id="radial-gradient-4" cx="0.85" cy="0.147" r="0.988" gradientUnits="objectBoundingBox">
      <stop offset="0" stop-color="#6eb9d8"/>
      <stop offset="0.266" stop-color="#6cb5d6"/>
      <stop offset="0.472" stop-color="#66acd1"/>
      <stop offset="0.656" stop-color="#5b9bc9"/>
      <stop offset="0.828" stop-color="#4d84bd"/>
      <stop offset="0.991" stop-color="#3a67ae"/>
      <stop offset="1" stop-color="#3965ad"/>
    </radialGradient>
    <radialGradient id="radial-gradient-5" cx="0.241" cy="0.765" r="0.875" gradientTransform="matrix(0.707, -0.708, 0.465, 0.464, -0.285, 0.581)" xlink:href="#radial-gradient-3"/>
    <radialGradient id="radial-gradient-6" cx="4.401" cy="11.438" r="18.302" gradientTransform="translate(0.005) scale(0.99 1)" xlink:href="#radial-gradient-3"/>
    <radialGradient id="radial-gradient-7" cx="-1.4" cy="-3.286" r="18.126" xlink:href="#radial-gradient-3"/>
    <radialGradient id="radial-gradient-8" cx="0.805" cy="0.754" r="0.853" gradientTransform="matrix(-0.727, -0.743, 0.542, -0.45, 0.982, 1.691)" xlink:href="#radial-gradient"/>
    <radialGradient id="radial-gradient-9" cx="-2.104" cy="4.7" r="18.163" gradientTransform="translate(0)" xlink:href="#radial-gradient"/>
    <radialGradient id="radial-gradient-10" cx="-1.685" cy="8.59" r="18.159" gradientTransform="translate(0)" xlink:href="#radial-gradient"/>
    <radialGradient id="radial-gradient-11" cx="4.588" cy="-0.144" r="2.821" gradientTransform="translate(-2.791) scale(6.582 1)" xlink:href="#radial-gradient"/>
    <radialGradient id="radial-gradient-12" cx="8.578" cy="-0.226" r="4.062" gradientTransform="translate(-1.786) scale(4.571 1)" xlink:href="#radial-gradient"/>
    <radialGradient id="radial-gradient-13" cx="0.261" cy="0.255" r="0.848" gradientTransform="matrix(0.686, 0.727, -0.513, 0.486, 0.213, -0.059)" xlink:href="#radial-gradient-2"/>
    <radialGradient id="radial-gradient-14" cx="-7.819" cy="4.871" r="17.2" gradientTransform="translate(0)" xlink:href="#radial-gradient-2"/>
    <radialGradient id="radial-gradient-15" cx="-3.926" cy="5.4" r="17.199" gradientTransform="translate(0)" xlink:href="#radial-gradient-2"/>
    <radialGradient id="radial-gradient-16" cx="4.82" cy="-1.087" r="17.367" gradientTransform="translate(0.005) scale(0.99 1)" xlink:href="#radial-gradient-2"/>
    <radialGradient id="radial-gradient-17" cx="0.812" cy="0.265" r="0.843" gradientTransform="matrix(-0.77, 0.724, -0.588, -0.502, 1.594, -0.19)" xlink:href="#radial-gradient-4"/>
    <radialGradient id="radial-gradient-18" cx="-1.964" cy="-8.614" r="18.44" gradientTransform="translate(0)" xlink:href="#radial-gradient-4"/>
    <radialGradient id="radial-gradient-19" cx="-1.545" cy="-4.721" r="18.437" gradientTransform="translate(0)" xlink:href="#radial-gradient-4"/>
  </defs>
  <g id="Grupo_1167341" data-name="Grupo 1167341" transform="translate(-535 -5441)">
    <g id="OBJECTS" transform="translate(446.589 5355.777)">
      <circle id="Elipse_11789" data-name="Elipse 11789" cx="143.794" cy="143.794" r="143.794" transform="translate(89.362 85.67)" fill="url(#radial-gradient)"/>
      <circle id="Elipse_11790" data-name="Elipse 11790" cx="143.794" cy="143.794" r="143.794" transform="translate(330.585 330.123)" fill="url(#radial-gradient-2)"/>
      <circle id="Elipse_11791" data-name="Elipse 11791" cx="143.794" cy="143.794" r="143.794" transform="translate(330.585 85.67)" fill="url(#radial-gradient-3)"/>
      <circle id="Elipse_11792" data-name="Elipse 11792" cx="143.794" cy="143.794" r="143.794" transform="translate(89.362 330.123)" fill="url(#radial-gradient-4)"/>
      <path id="Trazado_1004374" data-name="Trazado 1004374" d="M269.491,224.072A145.307,145.307,0,0,1,225.1,267.211a145.325,145.325,0,0,1,44.391,43.139,145.307,145.307,0,0,1,44.391-43.139A145.308,145.308,0,0,1,269.491,224.072Z" transform="translate(84.109 85.438)" fill="none"/>
      <g id="Grupo_1167318" data-name="Grupo 1167318" transform="translate(300.131 85.225)">
        <path id="Trazado_1004375" data-name="Trazado 1004375" d="M258.513,155a7.523,7.523,0,0,0-.275,15.042h22.6a7.534,7.534,0,0,1,7.534,7.534h0a7.534,7.534,0,0,1-7.534,7.534H227.016a7.535,7.535,0,1,0,0,15.069h35.293a7.535,7.535,0,1,1,0,15.069h-14.7a7.532,7.532,0,0,0-6.07,7.387h0A7.529,7.529,0,0,0,249,230.158v.008h45.678a7.534,7.534,0,0,1,0,15.068H230.868a7.535,7.535,0,0,0,0,15.069h42.149a7.535,7.535,0,0,1,0,15.069H249.073a7.535,7.535,0,0,0,0,15.069h53.2a7.534,7.534,0,1,1,0,15.068H270.39q1.245,2.023,2.557,4a145.308,145.308,0,0,0,44.391,43.139c.229-.142.457-.288.686-.43V365.28a7.522,7.522,0,0,0,15.04.276V330.913a7.535,7.535,0,0,1,7.534-7.535h0a7.534,7.534,0,0,1,7.534,7.535v7.309h0v58.556a7.534,7.534,0,0,0,15.068,0V330.032a7.534,7.534,0,1,1,15.068,0v46.153a7.532,7.532,0,0,0,14.921-1.465V317.073a7.535,7.535,0,0,1,15.069,0v14.6h0v61.255a7.534,7.534,0,0,0,15.068,0v-59a7.534,7.534,0,1,1,15.068,0v4.1h0v36.687a7.534,7.534,0,0,0,15.068,0V343.9h0V309.469a7.534,7.534,0,1,1,15.068,0v42.4c.418.255.83.519,1.245.779A144.577,144.577,0,1,0,272.938,150.08c-1.071,1.619-2.118,3.255-3.126,4.919h-11.3ZM430.869,308.111a7.7,7.7,0,1,1-7.7,7.7A7.7,7.7,0,0,1,430.869,308.111Zm-59.959-8.153a7.7,7.7,0,1,1-7.705,7.7A7.7,7.7,0,0,1,370.909,299.958Zm-93.933-92.079a7.7,7.7,0,1,1,7.705,7.705A7.7,7.7,0,0,1,276.976,207.879Zm6.452,59.959a7.7,7.7,0,1,1,7.705,7.7A7.7,7.7,0,0,1,283.428,267.839Z" transform="translate(-219.48 -85.224)" fill="url(#radial-gradient-5)"/>
        <path id="Trazado_1004376" data-name="Trazado 1004376" d="M231.265,143.542h2.929a7.706,7.706,0,1,0-2.929,0Z" transform="translate(-216.069 -58.729)" fill="url(#radial-gradient-6)"/>
        <path id="Trazado_1004377" data-name="Trazado 1004377" d="M288.055,283.089a7.7,7.7,0,1,0-7.7-7.705A7.7,7.7,0,0,0,288.055,283.089Z" transform="translate(-182.024 27.047)" fill="url(#radial-gradient-7)"/>
      </g>
      <g id="Grupo_1167319" data-name="Grupo 1167319" transform="translate(88.414 85.223)">
        <path id="Trazado_1004378" data-name="Trazado 1004378" d="M157.216,311.465a7.535,7.535,0,1,1,15.069,0V335.3c0,.1-.027.183-.027.279V389.4a7.535,7.535,0,0,0,7.534,7.536h0a7.534,7.534,0,0,0,7.534-7.536V312.663a7.535,7.535,0,0,1,15.069,0v21.524l.092-.019a7.681,7.681,0,1,0,14.827-3.538V290.608a7.535,7.535,0,1,1,15.069,0v92.334a7.535,7.535,0,0,0,15.069,0V308.816a7.535,7.535,0,0,1,15.069,0V333.96l.205.045a7.61,7.61,0,0,0-.375,2.255,7.7,7.7,0,0,0,15.208,1.69l.031.01v-.107a7.579,7.579,0,0,0,0-3.189V290.6a7.535,7.535,0,1,1,15.069,0V405.632a7.535,7.535,0,0,0,15.069,0v-53.9c.5.3.985.609,1.476.914A145.325,145.325,0,0,0,353.6,309.51q-1.308-1.977-2.557-4H382.93a7.534,7.534,0,1,0,0-15.068H329.723a7.535,7.535,0,0,1,0-15.069h23.942a7.535,7.535,0,0,0,0-15.069H311.516a7.535,7.535,0,0,1,0-15.069h63.807a7.534,7.534,0,1,0,0-15.068H329.645v-.008a7.53,7.53,0,0,1-7.458-7.526h0a7.534,7.534,0,0,1,6.07-7.387h14.7a7.535,7.535,0,1,0,0-15.069H307.664a7.535,7.535,0,1,1,0-15.069h53.818a7.534,7.534,0,0,0,7.534-7.534h0a7.534,7.534,0,0,0-7.534-7.534h-22.6A7.523,7.523,0,0,1,339.161,155h11.311q1.512-2.5,3.126-4.919A144.576,144.576,0,1,0,156.759,352.649c.152-.1.3-.191.456-.284v-40.9ZM316.79,154.778a7.7,7.7,0,0,1,1.465,15.26h-2.929a7.7,7.7,0,0,1,1.463-15.26Z" transform="translate(-88.413 -85.223)" fill="url(#radial-gradient-8)"/>
        <path id="Trazado_1004379" data-name="Trazado 1004379" d="M274.476,201.21a7.7,7.7,0,1,0-7.7,7.7A7.7,7.7,0,0,0,274.476,201.21Z" transform="translate(16.596 -18.593)" fill="url(#radial-gradient-9)"/>
        <path id="Trazado_1004380" data-name="Trazado 1004380" d="M270.482,164.091a7.7,7.7,0,1,0-7.7,7.705A7.7,7.7,0,0,0,270.482,164.091Z" transform="translate(14.138 -41.434)" fill="url(#radial-gradient-10)"/>
        <path id="Trazado_1004381" data-name="Trazado 1004381" d="M196.2,338.832a7.535,7.535,0,0,0,15.069,0V254.719a7.535,7.535,0,1,0-15.069,0v84.114Z" transform="translate(-22.089 14.436)" fill="url(#radial-gradient-11)"/>
        <path id="Trazado_1004382" data-name="Trazado 1004382" d="M174.044,255.487a7.535,7.535,0,0,0-15.069,0v53.82a7.535,7.535,0,0,0,15.069,0Z" transform="translate(-44.994 14.91)" fill="url(#radial-gradient-12)"/>
      </g>
      <g id="Grupo_1167320" data-name="Grupo 1167320" transform="translate(300.142 299.959)">
        <path id="Trazado_1004383" data-name="Trazado 1004383" d="M469.783,270.1c-.417-.258-.827-.523-1.245-.779v-42.4a7.534,7.534,0,1,0-15.068,0v34.428h0v30.824a7.534,7.534,0,1,1-15.068,0V255.482h0v-4.1a7.534,7.534,0,0,0-15.068,0v59a7.534,7.534,0,1,1-15.068,0V249.122h0v-14.6a7.535,7.535,0,0,0-15.069,0v57.648a7.532,7.532,0,0,1-14.921,1.465V247.483a7.534,7.534,0,1,0-15.068,0v66.746a7.534,7.534,0,0,1-15.068,0V255.673h0v-7.309a7.535,7.535,0,0,0-7.534-7.536h0a7.534,7.534,0,0,0-7.534,7.536v34.644a7.522,7.522,0,0,1-15.04-.276V269.669c-.231.141-.459.286-.686.43a145.326,145.326,0,0,0-44.391,43.139q-1.367,2.064-2.667,4.176H258.52a7.523,7.523,0,0,0-.275,15.042h22.6a7.534,7.534,0,0,1,7.534,7.534h0a7.534,7.534,0,0,1-7.534,7.534H227.023a7.534,7.534,0,1,0,0,15.068h35.293a7.534,7.534,0,1,1,0,15.068h-14.7a7.532,7.532,0,0,0-6.07,7.387h0A7.528,7.528,0,0,0,249,392.572v.008h45.678a7.534,7.534,0,1,1,0,15.068H230.875a7.535,7.535,0,0,0,0,15.069h42.149a7.534,7.534,0,0,1,0,15.068H249.069a7.534,7.534,0,0,0,0,15.068h53.2a7.535,7.535,0,1,1,0,15.069h-32.35c.974,1.6,1.987,3.181,3.021,4.741A144.575,144.575,0,1,0,469.783,270.1ZM325.506,297.4a7.7,7.7,0,1,1-7.7,7.7A7.7,7.7,0,0,1,325.506,297.4Zm-48.534,72.9A7.7,7.7,0,1,1,284.677,378,7.7,7.7,0,0,1,276.972,370.3Zm6.452,59.959a7.7,7.7,0,1,1,7.705,7.7A7.7,7.7,0,0,1,283.423,430.256Z" transform="translate(-219.487 -217.407)" fill="url(#radial-gradient-13)"/>
        <path id="Trazado_1004384" data-name="Trazado 1004384" d="M345.574,230.91a7.7,7.7,0,1,0,7.7-7.7A7.7,7.7,0,0,0,345.574,230.91Z" transform="translate(-141.902 -215.053)" fill="url(#radial-gradient-14)"/>
        <path id="Trazado_1004385" data-name="Trazado 1004385" d="M316.16,233.568a7.7,7.7,0,1,0-7.705-7.705A7.7,7.7,0,0,0,316.16,233.568Z" transform="translate(-164.742 -218.159)" fill="url(#radial-gradient-15)"/>
        <path id="Trazado_1004386" data-name="Trazado 1004386" d="M231.262,295.194h2.932a7.7,7.7,0,1,0-2.932,0Z" transform="translate(-216.08 -180.147)" fill="url(#radial-gradient-16)"/>
      </g>
      <g id="Grupo_1167321" data-name="Grupo 1167321" transform="translate(88.411 283.075)">
        <path id="Trazado_1004387" data-name="Trazado 1004387" d="M382.93,475.111a7.535,7.535,0,1,0,0-15.069H329.724a7.534,7.534,0,1,1,0-15.068h23.942a7.534,7.534,0,1,0,0-15.068H311.517a7.535,7.535,0,0,1,0-15.069h63.807a7.534,7.534,0,1,0,0-15.068H329.646v-.008a7.53,7.53,0,0,1-7.458-7.526h0a7.534,7.534,0,0,1,6.07-7.387h14.7a7.534,7.534,0,1,0,0-15.068H307.665a7.534,7.534,0,1,1,0-15.068h53.818a7.534,7.534,0,0,0,7.534-7.534h0a7.534,7.534,0,0,0-7.534-7.534h-22.6a7.523,7.523,0,0,1,.275-15.042H350.93q1.3-2.113,2.667-4.176a145.306,145.306,0,0,0-44.391-43.139c-.491-.305-.98-.615-1.476-.914v53.9a7.535,7.535,0,0,1-15.069,0V215.243a7.535,7.535,0,1,0-15.069,0V259.3a7.579,7.579,0,0,1,0,3.189v.107l-.031-.01a7.7,7.7,0,0,1-15.208-1.69,7.609,7.609,0,0,1,.375-2.255l-.205-.045V233.454a7.535,7.535,0,0,0-15.069,0V307.58a7.535,7.535,0,0,1-15.069,0V215.246a7.535,7.535,0,1,0-15.069,0v40.023a7.619,7.619,0,0,1,.488,2.618,7.684,7.684,0,0,1-15.315.919l-.092.019V237.3a7.535,7.535,0,0,0-15.069,0v76.736a7.536,7.536,0,0,1-7.534,7.536h0a7.534,7.534,0,0,1-7.534-7.536V260.22c0-.1.024-.184.027-.279V236.1a7.535,7.535,0,1,0-15.069,0V277c-.152.094-.3.189-.455.284A144.577,144.577,0,1,0,353.6,479.858c-1.034-1.562-2.047-3.139-3.021-4.741H382.93ZM316.791,324.378a7.7,7.7,0,0,1,1.465,15.26h-2.932a7.7,7.7,0,0,1,1.467-15.26ZM209.931,341.605a7.533,7.533,0,0,1-7.534-7.532v-53.82a7.535,7.535,0,0,1,15.069,0v53.82A7.537,7.537,0,0,1,209.931,341.605Zm52.594-62.6a7.535,7.535,0,1,1,15.069,0v84.113a7.535,7.535,0,0,1-15.069,0V279.008Z" transform="translate(-88.411 -207.707)" fill="url(#radial-gradient-17)"/>
        <path id="Trazado_1004388" data-name="Trazado 1004388" d="M274.476,352.862a7.7,7.7,0,1,0-7.7,7.7A7.7,7.7,0,0,0,274.476,352.862Z" transform="translate(16.599 -123.129)" fill="url(#radial-gradient-18)"/>
        <path id="Trazado_1004389" data-name="Trazado 1004389" d="M270.482,315.743a7.7,7.7,0,1,0-7.7,7.705A7.7,7.7,0,0,0,270.482,315.743Z" transform="translate(14.141 -145.97)" fill="url(#radial-gradient-19)"/>
      </g>
    </g>
    <path id="Trazado_1004445" data-name="Trazado 1004445" d="M-54.506,0V-15.4h5.457q8.207,0,8.207,7.509a7.593,7.593,0,0,1-2.24,5.747A8.259,8.259,0,0,1-49.049,0Zm3.47-12.579v9.765h1.719a4.644,4.644,0,0,0,3.54-1.354,5.136,5.136,0,0,0,1.284-3.685,4.659,4.659,0,0,0-1.273-3.464,4.853,4.853,0,0,0-3.572-1.262Zm22.3,8.046h-7.176q.172,2.4,3.019,2.4A5.893,5.893,0,0,0-29.7-3V-.548a8.381,8.381,0,0,1-3.964.816A5.58,5.58,0,0,1-37.8-1.208a5.58,5.58,0,0,1-1.472-4.12,5.887,5.887,0,0,1,1.59-4.34,5.3,5.3,0,0,1,3.91-1.6A4.807,4.807,0,0,1-30.051-9.84a5.5,5.5,0,0,1,1.316,3.878Zm-3.147-2.084q0-2.363-1.912-2.363a1.826,1.826,0,0,0-1.413.677,3.072,3.072,0,0,0-.725,1.687ZM-27.436-.29V-3.04a7.227,7.227,0,0,0,1.67.752,5.538,5.538,0,0,0,1.574.247,3.375,3.375,0,0,0,1.423-.247.8.8,0,0,0,.521-.752.7.7,0,0,0-.236-.537,2.2,2.2,0,0,0-.607-.376,6.888,6.888,0,0,0-.811-.29q-.44-.129-.849-.29A8.131,8.131,0,0,1-25.9-5.065a3.338,3.338,0,0,1-.838-.661,2.6,2.6,0,0,1-.516-.87,3.472,3.472,0,0,1-.177-1.171,3.014,3.014,0,0,1,.4-1.59,3.29,3.29,0,0,1,1.074-1.09,4.908,4.908,0,0,1,1.536-.623,8.01,8.01,0,0,1,1.8-.2,9.984,9.984,0,0,1,1.482.113,11.064,11.064,0,0,1,1.482.328v2.621a5.357,5.357,0,0,0-1.38-.564,5.823,5.823,0,0,0-1.445-.188,3.2,3.2,0,0,0-.628.059,2.07,2.07,0,0,0-.521.172.957.957,0,0,0-.354.29.668.668,0,0,0-.129.4.744.744,0,0,0,.193.516,1.679,1.679,0,0,0,.5.371,4.984,4.984,0,0,0,.693.279q.381.124.757.252a9.846,9.846,0,0,1,1.225.516,3.916,3.916,0,0,1,.94.655,2.573,2.573,0,0,1,.6.881,3.131,3.131,0,0,1,.209,1.2,3.138,3.138,0,0,1-.424,1.67A3.4,3.4,0,0,1-20.544-.564,5.115,5.115,0,0,1-22.167.07a8.992,8.992,0,0,1-1.907.2A9.83,9.83,0,0,1-27.436-.29ZM-7.885,0H-11.1V-1.579h-.043A3.585,3.585,0,0,1-14.416.269a3.427,3.427,0,0,1-2.519-.908,3.253,3.253,0,0,1-.918-2.422q0-3.2,3.792-3.7l2.986-.4q0-1.8-1.955-1.8a6.673,6.673,0,0,0-3.738,1.171v-2.557a8.41,8.41,0,0,1,1.939-.645,10.192,10.192,0,0,1,2.24-.279q4.705,0,4.705,4.694Zm-3.19-4.469V-5.21l-2,.258q-1.654.215-1.654,1.493a1.234,1.234,0,0,0,.4.951,1.548,1.548,0,0,0,1.09.371A2.01,2.01,0,0,0-11.677-2.8,2.386,2.386,0,0,0-11.075-4.469ZM1.977-7.938A2.945,2.945,0,0,0,.548-8.271a2.058,2.058,0,0,0-1.729.811A3.538,3.538,0,0,0-1.8-5.253V0H-5.2V-11H-1.8v2.041h.043a2.937,2.937,0,0,1,2.9-2.234,2.186,2.186,0,0,1,.838.129Zm8.755,0A2.945,2.945,0,0,0,9.3-8.271a2.058,2.058,0,0,0-1.729.811A3.538,3.538,0,0,0,6.95-5.253V0H3.556V-11H6.95v2.041h.043a2.937,2.937,0,0,1,2.9-2.234,2.186,2.186,0,0,1,.838.129ZM17.467.269a5.913,5.913,0,0,1-4.324-1.542,5.589,5.589,0,0,1-1.574-4.184A5.589,5.589,0,0,1,13.2-9.727a6.17,6.17,0,0,1,4.415-1.542,5.842,5.842,0,0,1,4.3,1.542A5.48,5.48,0,0,1,23.472-5.65a5.816,5.816,0,0,1-1.606,4.329A5.979,5.979,0,0,1,17.467.269Zm.086-8.937a2.264,2.264,0,0,0-1.869.827A3.647,3.647,0,0,0,15.018-5.5q0,3.169,2.557,3.169,2.438,0,2.438-3.255Q20.013-8.669,17.553-8.669ZM29.068,0H25.674V-16.285h3.395ZM35.32,0H31.926V-16.285H35.32Zm8.1.269A5.913,5.913,0,0,1,39.1-1.273a5.589,5.589,0,0,1-1.574-4.184,5.589,5.589,0,0,1,1.633-4.27,6.17,6.17,0,0,1,4.415-1.542,5.842,5.842,0,0,1,4.3,1.542A5.48,5.48,0,0,1,49.425-5.65a5.816,5.816,0,0,1-1.606,4.329A5.979,5.979,0,0,1,43.42.269Zm.086-8.937a2.264,2.264,0,0,0-1.869.827A3.647,3.647,0,0,0,40.971-5.5q0,3.169,2.557,3.169,2.438,0,2.438-3.255Q45.966-8.669,43.506-8.669Zm-88.73,30.536H-52.4q.172,2.4,3.019,2.4a5.893,5.893,0,0,0,3.19-.859v2.449a8.381,8.381,0,0,1-3.964.816,5.58,5.58,0,0,1-4.136-1.477,5.58,5.58,0,0,1-1.472-4.12,5.887,5.887,0,0,1,1.59-4.34,5.3,5.3,0,0,1,3.91-1.6,4.807,4.807,0,0,1,3.722,1.429,5.5,5.5,0,0,1,1.316,3.878Zm-3.147-2.084q0-2.363-1.912-2.363A1.826,1.826,0,0,0-51.7,18.1a3.072,3.072,0,0,0-.725,1.687Zm13.5,6.22a6.712,6.712,0,0,1-3.319.666,5.614,5.614,0,0,1-4.1-1.536,5.305,5.305,0,0,1-1.568-3.964,5.844,5.844,0,0,1,1.681-4.42,6.213,6.213,0,0,1,4.5-1.617,5.768,5.768,0,0,1,2.814.516v2.879a3.87,3.87,0,0,0-2.374-.795,3.128,3.128,0,0,0-2.315.854,3.187,3.187,0,0,0-.854,2.358,3.135,3.135,0,0,0,.816,2.293,3,3,0,0,0,2.245.833,4.48,4.48,0,0,0,2.481-.795Zm7.466.666a5.913,5.913,0,0,1-4.324-1.542A5.589,5.589,0,0,1-33.3,20.943a5.589,5.589,0,0,1,1.633-4.27,6.17,6.17,0,0,1,4.415-1.542,5.842,5.842,0,0,1,4.3,1.542A5.48,5.48,0,0,1-21.4,20.75,5.816,5.816,0,0,1-23,25.079,5.979,5.979,0,0,1-27.4,26.669Zm.086-8.937a2.264,2.264,0,0,0-1.869.827,3.647,3.647,0,0,0-.666,2.342q0,3.169,2.557,3.169,2.438,0,2.438-3.255Q-24.857,17.731-27.317,17.731ZM-8.572,26.4h-3.384V20.288q0-2.557-1.826-2.557a1.812,1.812,0,0,0-1.45.677,2.578,2.578,0,0,0-.569,1.719V26.4H-19.2v-11H-15.8v1.74h.043a3.89,3.89,0,0,1,3.534-2.009q3.652,0,3.652,4.533Zm7.928.269a5.913,5.913,0,0,1-4.324-1.542,5.589,5.589,0,0,1-1.574-4.184,5.589,5.589,0,0,1,1.633-4.27A6.17,6.17,0,0,1-.494,15.131a5.842,5.842,0,0,1,4.3,1.542A5.48,5.48,0,0,1,5.36,20.75a5.816,5.816,0,0,1-1.606,4.329A5.979,5.979,0,0,1-.645,26.669Zm.086-8.937a2.264,2.264,0,0,0-1.869.827A3.647,3.647,0,0,0-3.094,20.9q0,3.169,2.557,3.169,2.438,0,2.438-3.255Q1.9,17.731-.559,17.731ZM3.083,10.19-.279,13.66H-2.729L.064,10.19ZM25.019,26.4H21.635V20.127q0-2.4-1.762-2.4a1.619,1.619,0,0,0-1.364.72,2.958,2.958,0,0,0-.526,1.794V26.4H14.588V20.062q0-2.331-1.729-2.331a1.658,1.658,0,0,0-1.391.688,3.025,3.025,0,0,0-.521,1.869V26.4H7.552v-11h3.395v1.719h.043a4.168,4.168,0,0,1,3.556-1.987,3.167,3.167,0,0,1,3.19,2.052,4.069,4.069,0,0,1,3.7-2.052q3.588,0,3.588,4.426Zm4.4-12.74a1.983,1.983,0,0,1-1.407-.51,1.644,1.644,0,0,1-.548-1.251,1.586,1.586,0,0,1,.548-1.246,2.3,2.3,0,0,1,2.82,0,1.593,1.593,0,0,1,.542,1.246,1.637,1.637,0,0,1-.542,1.268A2.016,2.016,0,0,1,29.423,13.66ZM31.1,26.4H27.7v-11H31.1ZM42.292,26a6.712,6.712,0,0,1-3.319.666,5.614,5.614,0,0,1-4.1-1.536A5.305,5.305,0,0,1,33.3,21.169a5.844,5.844,0,0,1,1.681-4.42,6.213,6.213,0,0,1,4.5-1.617,5.768,5.768,0,0,1,2.814.516v2.879a3.87,3.87,0,0,0-2.374-.795,3.128,3.128,0,0,0-2.315.854,3.187,3.187,0,0,0-.854,2.358,3.135,3.135,0,0,0,.816,2.293,3,3,0,0,0,2.245.833,4.48,4.48,0,0,0,2.481-.795Zm7.466.666a5.913,5.913,0,0,1-4.324-1.542,5.589,5.589,0,0,1-1.574-4.184,5.589,5.589,0,0,1,1.633-4.27,6.17,6.17,0,0,1,4.415-1.542,5.842,5.842,0,0,1,4.3,1.542,5.48,5.48,0,0,1,1.558,4.077,5.816,5.816,0,0,1-1.606,4.329A5.979,5.979,0,0,1,49.758,26.669Zm.086-8.937a2.264,2.264,0,0,0-1.869.827,3.647,3.647,0,0,0-.666,2.342q0,3.169,2.557,3.169,2.438,0,2.438-3.255Q52.3,17.731,49.844,17.731Z" transform="translate(680.871 5598.859)" fill="#212429"/>
    <g id="XMLID_1215_" transform="translate(637.515 5486.28)">
      <g id="XMLID_638_" transform="translate(0 0.127)">
        <path id="XMLID_665_" d="M210.214,291.746a6.675,6.675,0,0,0-6.885-1.461,7.452,7.452,0,0,0-4.935,7v2.5a6.118,6.118,0,0,0,11.482,2.943l1.592-2.9A6.717,6.717,0,0,0,210.214,291.746Zm-1.511,6.568-1.592,2.9a2.965,2.965,0,0,1-5.565-1.426v-2.5a4.292,4.292,0,0,1,2.842-4.033,3.556,3.556,0,0,1,4.314,5.06Z" transform="translate(-167.118 -244.21)" fill="#0b0a0a"/>
        <path id="XMLID_673_" d="M391.519,464.373l-4.4,4.4a1.577,1.577,0,1,0,2.229,2.23l4.4-4.4a1.576,1.576,0,0,0-2.229-2.23Z" transform="translate(-325.701 -390.798)" fill="#0b0a0a"/>
        <path id="XMLID_682_" d="M78.793,39.36a5.39,5.39,0,0,0-8.86,4.125v3.1a32.649,32.649,0,0,0-8-10.745l2.8-3.551a9.241,9.241,0,0,0,4.32,1.068,9.344,9.344,0,0,0,9.192-7.892,7.505,7.505,0,1,0-10.6-10.6,9.293,9.293,0,0,0-5.413,15.505l-2.757,3.5a32.545,32.545,0,0,0-17.536-6.156V23.336A9.478,9.478,0,1,0,49.76,6.165a10.342,10.342,0,0,0-18.807,0A9.477,9.477,0,1,0,38.78,23.336v4.375a32.546,32.546,0,0,0-17.536,6.156l-2.756-3.5a9.293,9.293,0,0,0-5.413-15.505,7.505,7.505,0,1,0-10.6,10.6,9.345,9.345,0,0,0,9.192,7.892,9.241,9.241,0,0,0,4.32-1.068l2.8,3.551a32.648,32.648,0,0,0-8,10.745v-3.1a5.39,5.39,0,1,0-10.78,0v8.963A25.945,25.945,0,0,0,7.649,70.916l9.419,9.419A1.576,1.576,0,0,0,19.3,78.1L9.879,68.686A22.814,22.814,0,0,1,3.153,52.448V43.485a2.237,2.237,0,0,1,4.474,0V53.494a11.967,11.967,0,0,0,3.528,8.517l8.55,8.55.635.635a1.577,1.577,0,0,0,2.23-2.23l-8.945-8.945a2.69,2.69,0,1,1,3.8-3.8L24.6,63.386a1.577,1.577,0,0,0,1.115.462A11.36,11.36,0,0,1,33.8,67.2a16.9,16.9,0,0,1,4.982,12.027,1.576,1.576,0,0,0,3.153,0A16.9,16.9,0,0,1,46.915,67.2,11.359,11.359,0,0,1,55,63.848a1.577,1.577,0,0,0,1.115-.462l7.168-7.168a2.69,2.69,0,0,1,3.8,3.8l-8.945,8.945a1.576,1.576,0,1,0,2.229,2.23l.635-.635,8.55-8.55a11.967,11.967,0,0,0,3.528-8.517V43.485a2.237,2.237,0,0,1,4.474,0v8.963A23.037,23.037,0,0,1,74.8,63.363a1.576,1.576,0,1,0,2.774,1.5,26.2,26.2,0,0,0,3.138-12.413V43.485a5.378,5.378,0,0,0-1.92-4.125ZM68.57,17.928a1.577,1.577,0,0,0,1.142-.628A4.353,4.353,0,1,1,75.8,23.391a1.577,1.577,0,0,0-.628,1.142,6.147,6.147,0,1,1-6.606-6.606ZM27.727,15.121A6.31,6.31,0,0,1,32.507,8.99,1.576,1.576,0,0,0,33.6,8a7.189,7.189,0,0,1,13.5,0,1.577,1.577,0,0,0,1.1.989,6.322,6.322,0,1,1-5.971,10.64l2.854-2.854a1.577,1.577,0,0,0-2.23-2.23l-.928.928v-5.3a1.576,1.576,0,1,0-3.153,0v6.893l-2.511-2.511a1.577,1.577,0,0,0-2.23,2.23l3.566,3.566a6.324,6.324,0,0,1-9.878-5.228ZM5.538,24.534a1.577,1.577,0,0,0-.628-1.142A4.353,4.353,0,1,1,11,17.3a1.576,1.576,0,0,0,1.142.628,6.147,6.147,0,1,1-6.606,6.606Zm6.118,29.212a29.158,29.158,0,0,1,5.166-11.123h4.551a3.891,3.891,0,0,1,2.316,7.017A9.334,9.334,0,0,0,20.276,54.6l-.616-.616a5.85,5.85,0,0,0-8-.243ZM54.333,60.71a14.482,14.482,0,0,0-9.647,4.258,20.135,20.135,0,0,0-4.329,6.416,20.136,20.136,0,0,0-4.329-6.416,14.483,14.483,0,0,0-9.647-4.258l-3.3-3.3v-.294a6.171,6.171,0,0,1,2.488-4.939,7.044,7.044,0,0,0-4.192-12.7H19.566a29.29,29.29,0,0,1,35.927-4.422,11.03,11.03,0,0,0-2.8,19.837L55.968,57a4.5,4.5,0,0,1,1.089.989Zm6.721-6.721-1.759,1.759a7.651,7.651,0,0,0-1.619-1.4L54.4,52.234a7.879,7.879,0,0,1,4.268-14.5h.587a29.373,29.373,0,0,1,9.806,16.013A5.85,5.85,0,0,0,61.054,53.989Z" transform="translate(0 -0.127)" fill="#0b0a0a"/>
        <path id="XMLID_1075_" d="M447.983,432.1a1.574,1.574,0,1,0,1.115.46A1.588,1.588,0,0,0,447.983,432.1Z" transform="translate(-376.033 -363.999)" fill="#0b0a0a"/>
      </g>
    </g>
    <path id="Trazado_1004446" data-name="Trazado 1004446" d="M-75.421-.591V-4.028a6.605,6.605,0,0,0,2.03,1.176,6.526,6.526,0,0,0,2.213.392,4.907,4.907,0,0,0,1.144-.118,2.68,2.68,0,0,0,.816-.328,1.429,1.429,0,0,0,.489-.494,1.233,1.233,0,0,0,.161-.618,1.335,1.335,0,0,0-.258-.806,2.774,2.774,0,0,0-.7-.655,7.352,7.352,0,0,0-1.058-.58q-.612-.279-1.321-.569A6.744,6.744,0,0,1-74.6-8.465a4.01,4.01,0,0,1-.886-2.621A4.175,4.175,0,0,1-75-13.154a4.105,4.105,0,0,1,1.316-1.423,5.9,5.9,0,0,1,1.928-.822,9.908,9.908,0,0,1,2.32-.263,13.956,13.956,0,0,1,2.132.145,8.386,8.386,0,0,1,1.713.446v3.212a5.181,5.181,0,0,0-.843-.473,6.681,6.681,0,0,0-.94-.338,7.17,7.17,0,0,0-.961-.2,6.8,6.8,0,0,0-.908-.064,4.734,4.734,0,0,0-1.074.113,2.755,2.755,0,0,0-.816.317,1.577,1.577,0,0,0-.516.489,1.159,1.159,0,0,0-.183.639,1.221,1.221,0,0,0,.2.693,2.341,2.341,0,0,0,.58.58,6.156,6.156,0,0,0,.913.537q.537.263,1.214.542a13.527,13.527,0,0,1,1.66.822A5.9,5.9,0,0,1-66-7.219a3.829,3.829,0,0,1,.806,1.251,4.422,4.422,0,0,1,.279,1.638A4.388,4.388,0,0,1-65.4-2.165,3.968,3.968,0,0,1-66.73-.747a5.753,5.753,0,0,1-1.95.779,11.268,11.268,0,0,1-2.347.236A13.051,13.051,0,0,1-73.439.054,7.28,7.28,0,0,1-75.421-.591Zm17.95.859a5.913,5.913,0,0,1-4.324-1.542,5.589,5.589,0,0,1-1.574-4.184,5.589,5.589,0,0,1,1.633-4.27,6.17,6.17,0,0,1,4.415-1.542,5.842,5.842,0,0,1,4.3,1.542A5.48,5.48,0,0,1-51.466-5.65a5.816,5.816,0,0,1-1.606,4.329A5.979,5.979,0,0,1-57.471.269Zm.086-8.937a2.264,2.264,0,0,0-1.869.827A3.647,3.647,0,0,0-59.92-5.5q0,3.169,2.557,3.169,2.438,0,2.438-3.255Q-54.925-8.669-57.385-8.669Zm7.4,8.379V-3.04a7.227,7.227,0,0,0,1.67.752,5.538,5.538,0,0,0,1.574.247,3.375,3.375,0,0,0,1.423-.247.8.8,0,0,0,.521-.752.7.7,0,0,0-.236-.537,2.2,2.2,0,0,0-.607-.376,6.887,6.887,0,0,0-.811-.29q-.44-.129-.849-.29a8.131,8.131,0,0,1-1.155-.532,3.338,3.338,0,0,1-.838-.661,2.6,2.6,0,0,1-.516-.87,3.472,3.472,0,0,1-.177-1.171,3.014,3.014,0,0,1,.4-1.59,3.29,3.29,0,0,1,1.074-1.09,4.908,4.908,0,0,1,1.536-.623,8.01,8.01,0,0,1,1.8-.2,9.984,9.984,0,0,1,1.482.113,11.064,11.064,0,0,1,1.482.328v2.621a5.357,5.357,0,0,0-1.38-.564,5.823,5.823,0,0,0-1.445-.188,3.2,3.2,0,0,0-.628.059,2.07,2.07,0,0,0-.521.172.957.957,0,0,0-.354.29.668.668,0,0,0-.129.4.744.744,0,0,0,.193.516,1.679,1.679,0,0,0,.5.371,4.984,4.984,0,0,0,.693.279q.381.124.757.252a9.846,9.846,0,0,1,1.225.516,3.916,3.916,0,0,1,.94.655,2.573,2.573,0,0,1,.6.881,3.131,3.131,0,0,1,.209,1.2,3.138,3.138,0,0,1-.424,1.67A3.4,3.4,0,0,1-43.092-.564,5.115,5.115,0,0,1-44.714.07a8.992,8.992,0,0,1-1.907.2A9.83,9.83,0,0,1-49.983-.29Zm17.048.161a5.017,5.017,0,0,1-2.267.4q-3.588,0-3.588-3.728V-8.5h-1.783V-11h1.783v-2.374l3.384-.967V-11h2.471v2.5h-2.471V-4.05q0,1.719,1.364,1.719a2.3,2.3,0,0,0,1.106-.312Zm11.709-4.4H-28.4q.172,2.4,3.019,2.4A5.893,5.893,0,0,0-22.193-3V-.548a8.381,8.381,0,0,1-3.964.816,5.58,5.58,0,0,1-4.136-1.477,5.58,5.58,0,0,1-1.472-4.12,5.887,5.887,0,0,1,1.59-4.34,5.3,5.3,0,0,1,3.91-1.6A4.807,4.807,0,0,1-22.542-9.84a5.5,5.5,0,0,1,1.316,3.878Zm-3.147-2.084q0-2.363-1.912-2.363A1.826,1.826,0,0,0-27.7-8.3a3.072,3.072,0,0,0-.725,1.687ZM-8.583,0h-3.384V-6.112q0-2.557-1.826-2.557a1.812,1.812,0,0,0-1.45.677,2.578,2.578,0,0,0-.569,1.719V0h-3.395V-11h3.395v1.74h.043a3.89,3.89,0,0,1,3.534-2.009q3.652,0,3.652,4.533Zm4.4-12.74a1.983,1.983,0,0,1-1.407-.51A1.644,1.644,0,0,1-6.134-14.5a1.586,1.586,0,0,1,.548-1.246,2.048,2.048,0,0,1,1.407-.483,2.044,2.044,0,0,1,1.413.483A1.593,1.593,0,0,1-2.224-14.5a1.637,1.637,0,0,1-.542,1.268A2.016,2.016,0,0,1-4.179-12.74ZM-2.5,0H-5.9V-11H-2.5ZM3.792-1.278H3.749V0H.354V-16.285H3.749v6.939h.043a4.028,4.028,0,0,1,3.577-1.923,3.925,3.925,0,0,1,3.276,1.461,6.3,6.3,0,0,1,1.149,4A6.823,6.823,0,0,1,10.452-1.4,4.374,4.374,0,0,1,6.864.269,3.466,3.466,0,0,1,3.792-1.278ZM3.7-5.919v1.128a2.575,2.575,0,0,0,.612,1.762,1.992,1.992,0,0,0,1.568.7,2.081,2.081,0,0,0,1.8-.9,4.331,4.331,0,0,0,.639-2.541A3.446,3.446,0,0,0,7.729-7.9a1.976,1.976,0,0,0-1.67-.768,2.158,2.158,0,0,0-1.692.763A2.9,2.9,0,0,0,3.7-5.919ZM15.716-12.74a1.983,1.983,0,0,1-1.407-.51,1.644,1.644,0,0,1-.548-1.251,1.586,1.586,0,0,1,.548-1.246,2.048,2.048,0,0,1,1.407-.483,2.044,2.044,0,0,1,1.413.483,1.593,1.593,0,0,1,.542,1.246,1.637,1.637,0,0,1-.542,1.268A2.016,2.016,0,0,1,15.716-12.74ZM17.392,0H14V-11h3.395Zm6.252,0H20.249V-16.285h3.395ZM28.22-12.74a1.983,1.983,0,0,1-1.407-.51,1.644,1.644,0,0,1-.548-1.251,1.586,1.586,0,0,1,.548-1.246,2.048,2.048,0,0,1,1.407-.483,2.044,2.044,0,0,1,1.413.483,1.593,1.593,0,0,1,.542,1.246,1.637,1.637,0,0,1-.542,1.268A2.016,2.016,0,0,1,28.22-12.74ZM29.9,0H26.5V-11H29.9ZM43.517,0H40.122V-1.515h-.043A3.806,3.806,0,0,1,36.674.269a4.17,4.17,0,0,1-3.319-1.456A6.025,6.025,0,0,1,32.1-5.253a6.558,6.558,0,0,1,1.386-4.372,4.52,4.52,0,0,1,3.631-1.644,3.089,3.089,0,0,1,2.965,1.525h.043v-6.542h3.395Zm-3.33-5.35v-.827a2.6,2.6,0,0,0-.623-1.783,2.058,2.058,0,0,0-1.622-.709,2.045,2.045,0,0,0-1.762.886,4.115,4.115,0,0,0-.634,2.433,3.561,3.561,0,0,0,.612,2.234,2.033,2.033,0,0,0,1.7.784,2.041,2.041,0,0,0,1.681-.827A3.448,3.448,0,0,0,40.187-5.35ZM55.526,0H52.314V-1.579h-.043A3.585,3.585,0,0,1,49,.269a3.427,3.427,0,0,1-2.519-.908,3.253,3.253,0,0,1-.918-2.422q0-3.2,3.792-3.7l2.986-.4q0-1.8-1.955-1.8a6.673,6.673,0,0,0-3.738,1.171v-2.557a8.41,8.41,0,0,1,1.939-.645,10.193,10.193,0,0,1,2.24-.279q4.705,0,4.705,4.694Zm-3.19-4.469V-5.21l-2,.258q-1.654.215-1.654,1.493a1.234,1.234,0,0,0,.4.951,1.548,1.548,0,0,0,1.09.371A2.01,2.01,0,0,0,51.734-2.8,2.386,2.386,0,0,0,52.336-4.469ZM68.976,0H65.581V-1.515h-.043A3.806,3.806,0,0,1,62.133.269a4.17,4.17,0,0,1-3.319-1.456,6.025,6.025,0,0,1-1.257-4.066,6.558,6.558,0,0,1,1.386-4.372,4.52,4.52,0,0,1,3.631-1.644,3.089,3.089,0,0,1,2.965,1.525h.043v-6.542h3.395Zm-3.33-5.35v-.827a2.6,2.6,0,0,0-.623-1.783A2.058,2.058,0,0,0,63.4-8.669a2.045,2.045,0,0,0-1.762.886A4.115,4.115,0,0,0,61-5.35a3.561,3.561,0,0,0,.612,2.234,2.033,2.033,0,0,0,1.7.784A2.041,2.041,0,0,0,65-3.158,3.448,3.448,0,0,0,65.646-5.35ZM-41.293,26.4H-44.5V24.821h-.043a3.585,3.585,0,0,1-3.276,1.848,3.427,3.427,0,0,1-2.519-.908,3.253,3.253,0,0,1-.918-2.422q0-3.2,3.792-3.7l2.986-.4q0-1.8-1.955-1.8a6.673,6.673,0,0,0-3.738,1.171V16.055a8.41,8.41,0,0,1,1.939-.645A10.193,10.193,0,0,1-46,15.131q4.705,0,4.705,4.694Zm-3.19-4.469V21.19l-2,.258q-1.654.215-1.654,1.493a1.234,1.234,0,0,0,.4.951,1.548,1.548,0,0,0,1.09.371,2.01,2.01,0,0,0,1.558-.661A2.386,2.386,0,0,0-44.483,21.931ZM-21.141,26.4h-3.384V20.127q0-2.4-1.762-2.4a1.619,1.619,0,0,0-1.364.72,2.958,2.958,0,0,0-.526,1.794V26.4h-3.395V20.062q0-2.331-1.729-2.331a1.658,1.658,0,0,0-1.391.688,3.025,3.025,0,0,0-.521,1.869V26.4h-3.395v-11h3.395v1.719h.043a4.059,4.059,0,0,1,1.477-1.434,4.06,4.06,0,0,1,2.079-.553,3.167,3.167,0,0,1,3.19,2.052,4.069,4.069,0,0,1,3.7-2.052q3.588,0,3.588,4.426Zm6.123-1.278h-.043V26.4h-3.395V10.115h3.395v6.939h.043a4.028,4.028,0,0,1,3.577-1.923,3.925,3.925,0,0,1,3.276,1.461,6.3,6.3,0,0,1,1.149,4A6.823,6.823,0,0,1-8.357,25a4.374,4.374,0,0,1-3.588,1.665A3.466,3.466,0,0,1-15.018,25.122Zm-.1-4.641v1.128a2.575,2.575,0,0,0,.612,1.762,1.992,1.992,0,0,0,1.568.7,2.081,2.081,0,0,0,1.8-.9,4.331,4.331,0,0,0,.639-2.541,3.446,3.446,0,0,0-.585-2.132,1.976,1.976,0,0,0-1.67-.768,2.158,2.158,0,0,0-1.692.763A2.9,2.9,0,0,0-15.114,20.481ZM-3.094,13.66A1.983,1.983,0,0,1-4.5,13.15,1.644,1.644,0,0,1-5.049,11.9,1.586,1.586,0,0,1-4.5,10.652a2.048,2.048,0,0,1,1.407-.483,2.044,2.044,0,0,1,1.413.483A1.593,1.593,0,0,1-1.139,11.9a1.637,1.637,0,0,1-.542,1.268A2.016,2.016,0,0,1-3.094,13.66ZM-1.418,26.4H-4.812v-11h3.395Zm12.74-4.533H4.146q.172,2.4,3.019,2.4a5.893,5.893,0,0,0,3.19-.859v2.449a8.381,8.381,0,0,1-3.964.816,5.58,5.58,0,0,1-4.136-1.477,5.58,5.58,0,0,1-1.472-4.12,5.887,5.887,0,0,1,1.59-4.34,5.3,5.3,0,0,1,3.91-1.6,4.807,4.807,0,0,1,3.722,1.429,5.5,5.5,0,0,1,1.316,3.878ZM8.175,19.783q0-2.363-1.912-2.363A1.826,1.826,0,0,0,4.85,18.1a3.072,3.072,0,0,0-.725,1.687ZM23.966,26.4H20.582V20.288q0-2.557-1.826-2.557a1.812,1.812,0,0,0-1.45.677,2.578,2.578,0,0,0-.569,1.719V26.4H13.342v-11h3.395v1.74h.043a3.89,3.89,0,0,1,3.534-2.009q3.652,0,3.652,4.533Zm9.335-.129a5.017,5.017,0,0,1-2.267.4q-3.588,0-3.588-3.728V17.9H25.663V15.4h1.783V13.026l3.384-.967V15.4H33.3v2.5H30.83V22.35q0,1.719,1.364,1.719a2.3,2.3,0,0,0,1.106-.312Zm11.064.129H41.153V24.821H41.11a3.585,3.585,0,0,1-3.276,1.848,3.427,3.427,0,0,1-2.519-.908,3.253,3.253,0,0,1-.918-2.422q0-3.2,3.792-3.7l2.986-.4q0-1.8-1.955-1.8a6.673,6.673,0,0,0-3.738,1.171V16.055a8.41,8.41,0,0,1,1.939-.645,10.193,10.193,0,0,1,2.24-.279q4.705,0,4.705,4.694Zm-3.19-4.469V21.19l-2,.258q-1.654.215-1.654,1.493a1.234,1.234,0,0,0,.4.951,1.548,1.548,0,0,0,1.09.371,2.01,2.01,0,0,0,1.558-.661A2.386,2.386,0,0,0,41.175,21.931ZM50.445,26.4H47.051V10.115h3.395Z" transform="translate(925.871 5598.859)" fill="#fff"/>
    <g id="XMLID_1215_2" data-name="XMLID_1215_" transform="translate(885.515 5486.28)">
      <g id="XMLID_638_2" data-name="XMLID_638_" transform="translate(0 0.127)">
        <path id="XMLID_665_2" data-name="XMLID_665_" d="M210.214,291.746a6.675,6.675,0,0,0-6.885-1.461,7.452,7.452,0,0,0-4.935,7v2.5a6.118,6.118,0,0,0,11.482,2.943l1.592-2.9A6.717,6.717,0,0,0,210.214,291.746Zm-1.511,6.568-1.592,2.9a2.965,2.965,0,0,1-5.565-1.426v-2.5a4.292,4.292,0,0,1,2.842-4.033,3.556,3.556,0,0,1,4.314,5.06Z" transform="translate(-167.118 -244.21)" fill="#fff"/>
        <path id="XMLID_673_2" data-name="XMLID_673_" d="M391.519,464.373l-4.4,4.4a1.577,1.577,0,1,0,2.229,2.23l4.4-4.4a1.576,1.576,0,0,0-2.229-2.23Z" transform="translate(-325.701 -390.798)" fill="#fff"/>
        <path id="XMLID_682_2" data-name="XMLID_682_" d="M78.793,39.36a5.39,5.39,0,0,0-8.86,4.125v3.1a32.649,32.649,0,0,0-8-10.745l2.8-3.551a9.241,9.241,0,0,0,4.32,1.068,9.344,9.344,0,0,0,9.192-7.892,7.505,7.505,0,1,0-10.6-10.6,9.293,9.293,0,0,0-5.413,15.505l-2.757,3.5a32.545,32.545,0,0,0-17.536-6.156V23.336A9.478,9.478,0,1,0,49.76,6.165a10.342,10.342,0,0,0-18.807,0A9.477,9.477,0,1,0,38.78,23.336v4.375a32.546,32.546,0,0,0-17.536,6.156l-2.756-3.5a9.293,9.293,0,0,0-5.413-15.505,7.505,7.505,0,1,0-10.6,10.6,9.345,9.345,0,0,0,9.192,7.892,9.241,9.241,0,0,0,4.32-1.068l2.8,3.551a32.648,32.648,0,0,0-8,10.745v-3.1a5.39,5.39,0,1,0-10.78,0v8.963A25.945,25.945,0,0,0,7.649,70.916l9.419,9.419A1.576,1.576,0,0,0,19.3,78.1L9.879,68.686A22.814,22.814,0,0,1,3.153,52.448V43.485a2.237,2.237,0,0,1,4.474,0V53.494a11.967,11.967,0,0,0,3.528,8.517l8.55,8.55.635.635a1.577,1.577,0,0,0,2.23-2.23l-8.945-8.945a2.69,2.69,0,1,1,3.8-3.8L24.6,63.386a1.577,1.577,0,0,0,1.115.462A11.36,11.36,0,0,1,33.8,67.2a16.9,16.9,0,0,1,4.982,12.027,1.576,1.576,0,0,0,3.153,0A16.9,16.9,0,0,1,46.915,67.2,11.359,11.359,0,0,1,55,63.848a1.577,1.577,0,0,0,1.115-.462l7.168-7.168a2.69,2.69,0,0,1,3.8,3.8l-8.945,8.945a1.576,1.576,0,1,0,2.229,2.23l.635-.635,8.55-8.55a11.967,11.967,0,0,0,3.528-8.517V43.485a2.237,2.237,0,0,1,4.474,0v8.963A23.037,23.037,0,0,1,74.8,63.363a1.576,1.576,0,1,0,2.774,1.5,26.2,26.2,0,0,0,3.138-12.413V43.485a5.378,5.378,0,0,0-1.92-4.125ZM68.57,17.928a1.577,1.577,0,0,0,1.142-.628A4.353,4.353,0,1,1,75.8,23.391a1.577,1.577,0,0,0-.628,1.142,6.147,6.147,0,1,1-6.606-6.606ZM27.727,15.121A6.31,6.31,0,0,1,32.507,8.99,1.576,1.576,0,0,0,33.6,8a7.189,7.189,0,0,1,13.5,0,1.577,1.577,0,0,0,1.1.989,6.322,6.322,0,1,1-5.971,10.64l2.854-2.854a1.577,1.577,0,0,0-2.23-2.23l-.928.928v-5.3a1.576,1.576,0,1,0-3.153,0v6.893l-2.511-2.511a1.577,1.577,0,0,0-2.23,2.23l3.566,3.566a6.324,6.324,0,0,1-9.878-5.228ZM5.538,24.534a1.577,1.577,0,0,0-.628-1.142A4.353,4.353,0,1,1,11,17.3a1.576,1.576,0,0,0,1.142.628,6.147,6.147,0,1,1-6.606,6.606Zm6.118,29.212a29.158,29.158,0,0,1,5.166-11.123h4.551a3.891,3.891,0,0,1,2.316,7.017A9.334,9.334,0,0,0,20.276,54.6l-.616-.616a5.85,5.85,0,0,0-8-.243ZM54.333,60.71a14.482,14.482,0,0,0-9.647,4.258,20.135,20.135,0,0,0-4.329,6.416,20.136,20.136,0,0,0-4.329-6.416,14.483,14.483,0,0,0-9.647-4.258l-3.3-3.3v-.294a6.171,6.171,0,0,1,2.488-4.939,7.044,7.044,0,0,0-4.192-12.7H19.566a29.29,29.29,0,0,1,35.927-4.422,11.03,11.03,0,0,0-2.8,19.837L55.968,57a4.5,4.5,0,0,1,1.089.989Zm6.721-6.721-1.759,1.759a7.651,7.651,0,0,0-1.619-1.4L54.4,52.234a7.879,7.879,0,0,1,4.268-14.5h.587a29.373,29.373,0,0,1,9.806,16.013A5.85,5.85,0,0,0,61.054,53.989Z" transform="translate(0 -0.127)" fill="#fff"/>
        <path id="XMLID_1075_2" data-name="XMLID_1075_" d="M447.983,432.1a1.574,1.574,0,1,0,1.115.46A1.588,1.588,0,0,0,447.983,432.1Z" transform="translate(-376.033 -363.999)" fill="#fff"/>
      </g>
    </g>
    <path id="Trazado_1004447" data-name="Trazado 1004447" d="M-66.747-.548a10.158,10.158,0,0,1-4.4.816,7.424,7.424,0,0,1-5.575-2.084,7.618,7.618,0,0,1-2.03-5.554,8.139,8.139,0,0,1,2.283-5.994,7.985,7.985,0,0,1,5.924-2.3,11.079,11.079,0,0,1,3.8.569v3.341a6.738,6.738,0,0,0-3.523-.924,4.674,4.674,0,0,0-3.5,1.364,5.062,5.062,0,0,0-1.332,3.7,4.965,4.965,0,0,0,1.257,3.561,4.44,4.44,0,0,0,3.384,1.327,7.218,7.218,0,0,0,3.717-.988Zm7.595.816a5.913,5.913,0,0,1-4.324-1.542,5.589,5.589,0,0,1-1.574-4.184,5.589,5.589,0,0,1,1.633-4.27A6.17,6.17,0,0,1-59-11.269a5.842,5.842,0,0,1,4.3,1.542A5.48,5.48,0,0,1-53.147-5.65a5.816,5.816,0,0,1-1.606,4.329A5.979,5.979,0,0,1-59.152.269Zm.086-8.937a2.264,2.264,0,0,0-1.869.827A3.647,3.647,0,0,0-61.6-5.5q0,3.169,2.557,3.169,2.438,0,2.438-3.255Q-56.606-8.669-59.066-8.669ZM-40.385,0h-3.384V-6.252q0-2.417-1.762-2.417a1.8,1.8,0,0,0-1.461.677,2.61,2.61,0,0,0-.559,1.719V0h-3.395V-16.285h3.395v6.918h.043a3.857,3.857,0,0,1,3.384-1.9q3.738,0,3.738,4.512Zm12.568-4.533h-7.176q.172,2.4,3.019,2.4A5.893,5.893,0,0,0-28.784-3V-.548a8.381,8.381,0,0,1-3.964.816,5.58,5.58,0,0,1-4.136-1.477,5.58,5.58,0,0,1-1.472-4.12,5.887,5.887,0,0,1,1.59-4.34,5.3,5.3,0,0,1,3.91-1.6A4.807,4.807,0,0,1-29.133-9.84a5.5,5.5,0,0,1,1.316,3.878Zm-3.147-2.084q0-2.363-1.912-2.363a1.826,1.826,0,0,0-1.413.677,3.072,3.072,0,0,0-.725,1.687ZM-26.517-.29V-3.04a7.227,7.227,0,0,0,1.67.752,5.538,5.538,0,0,0,1.574.247,3.375,3.375,0,0,0,1.423-.247.8.8,0,0,0,.521-.752.7.7,0,0,0-.236-.537,2.2,2.2,0,0,0-.607-.376,6.888,6.888,0,0,0-.811-.29q-.44-.129-.849-.29a8.131,8.131,0,0,1-1.155-.532,3.338,3.338,0,0,1-.838-.661,2.6,2.6,0,0,1-.516-.87,3.472,3.472,0,0,1-.177-1.171,3.014,3.014,0,0,1,.4-1.59,3.29,3.29,0,0,1,1.074-1.09A4.908,4.908,0,0,1-23.5-11.07a8.01,8.01,0,0,1,1.8-.2,9.984,9.984,0,0,1,1.482.113,11.064,11.064,0,0,1,1.482.328v2.621a5.357,5.357,0,0,0-1.38-.564,5.823,5.823,0,0,0-1.445-.188,3.2,3.2,0,0,0-.628.059,2.07,2.07,0,0,0-.521.172.957.957,0,0,0-.354.29.668.668,0,0,0-.129.4A.744.744,0,0,0-23-7.52a1.679,1.679,0,0,0,.5.371,4.984,4.984,0,0,0,.693.279q.381.124.757.252a9.846,9.846,0,0,1,1.225.516,3.916,3.916,0,0,1,.94.655,2.573,2.573,0,0,1,.6.881,3.131,3.131,0,0,1,.209,1.2,3.138,3.138,0,0,1-.424,1.67A3.4,3.4,0,0,1-19.626-.564,5.115,5.115,0,0,1-21.248.07a8.992,8.992,0,0,1-1.907.2A9.83,9.83,0,0,1-26.517-.29ZM-14.4-12.74a1.983,1.983,0,0,1-1.407-.51,1.644,1.644,0,0,1-.548-1.251,1.586,1.586,0,0,1,.548-1.246,2.048,2.048,0,0,1,1.407-.483,2.044,2.044,0,0,1,1.413.483,1.593,1.593,0,0,1,.542,1.246,1.637,1.637,0,0,1-.542,1.268A2.016,2.016,0,0,1-14.4-12.74ZM-12.724,0h-3.395V-11h3.395Zm8.1.269A5.913,5.913,0,0,1-8.948-1.273a5.589,5.589,0,0,1-1.574-4.184,5.589,5.589,0,0,1,1.633-4.27,6.17,6.17,0,0,1,4.415-1.542,5.842,5.842,0,0,1,4.3,1.542A5.48,5.48,0,0,1,1.38-5.65,5.816,5.816,0,0,1-.226-1.321,5.979,5.979,0,0,1-4.625.269Zm.086-8.937a2.264,2.264,0,0,0-1.869.827A3.647,3.647,0,0,0-7.074-5.5q0,3.169,2.557,3.169,2.438,0,2.438-3.255Q-2.079-8.669-4.539-8.669ZM-.9-16.21l-3.362,3.47H-6.708l2.793-3.47ZM14.2,0H10.812V-6.112q0-2.557-1.826-2.557a1.812,1.812,0,0,0-1.45.677,2.578,2.578,0,0,0-.569,1.719V0H3.572V-11H6.966v1.74h.043a3.89,3.89,0,0,1,3.534-2.009q3.652,0,3.652,4.533Zm8.035-.29V-3.04a7.227,7.227,0,0,0,1.67.752,5.538,5.538,0,0,0,1.574.247A3.375,3.375,0,0,0,26.9-2.288a.8.8,0,0,0,.521-.752.7.7,0,0,0-.236-.537,2.2,2.2,0,0,0-.607-.376,6.888,6.888,0,0,0-.811-.29q-.44-.129-.849-.29a8.131,8.131,0,0,1-1.155-.532,3.338,3.338,0,0,1-.838-.661,2.6,2.6,0,0,1-.516-.87,3.472,3.472,0,0,1-.177-1.171,3.014,3.014,0,0,1,.4-1.59,3.29,3.29,0,0,1,1.074-1.09,4.908,4.908,0,0,1,1.536-.623,8.01,8.01,0,0,1,1.8-.2,9.984,9.984,0,0,1,1.482.113,11.064,11.064,0,0,1,1.482.328v2.621a5.357,5.357,0,0,0-1.38-.564,5.823,5.823,0,0,0-1.445-.188,3.2,3.2,0,0,0-.628.059,2.07,2.07,0,0,0-.521.172.957.957,0,0,0-.354.29.668.668,0,0,0-.129.4.744.744,0,0,0,.193.516,1.679,1.679,0,0,0,.5.371,4.984,4.984,0,0,0,.693.279q.381.124.757.252a9.846,9.846,0,0,1,1.225.516,3.916,3.916,0,0,1,.94.655,2.573,2.573,0,0,1,.6.881,3.131,3.131,0,0,1,.209,1.2,3.138,3.138,0,0,1-.424,1.67A3.4,3.4,0,0,1,29.122-.564,5.115,5.115,0,0,1,27.5.07a8.992,8.992,0,0,1-1.907.2A9.83,9.83,0,0,1,22.231-.29ZM37.872.269a5.913,5.913,0,0,1-4.324-1.542,5.589,5.589,0,0,1-1.574-4.184,5.589,5.589,0,0,1,1.633-4.27,6.17,6.17,0,0,1,4.415-1.542,5.842,5.842,0,0,1,4.3,1.542A5.48,5.48,0,0,1,43.876-5.65a5.816,5.816,0,0,1-1.606,4.329A5.979,5.979,0,0,1,37.872.269Zm.086-8.937a2.264,2.264,0,0,0-1.869.827A3.647,3.647,0,0,0,35.422-5.5q0,3.169,2.557,3.169,2.438,0,2.438-3.255Q40.417-8.669,37.958-8.669ZM54.415-.4A6.712,6.712,0,0,1,51.1.269a5.614,5.614,0,0,1-4.1-1.536,5.305,5.305,0,0,1-1.568-3.964A5.844,5.844,0,0,1,47.1-9.652a6.213,6.213,0,0,1,4.5-1.617,5.768,5.768,0,0,1,2.814.516v2.879a3.87,3.87,0,0,0-2.374-.795,3.128,3.128,0,0,0-2.315.854,3.187,3.187,0,0,0-.854,2.358,3.135,3.135,0,0,0,.816,2.293,3,3,0,0,0,2.245.833,4.48,4.48,0,0,0,2.481-.795ZM58.357-12.74a1.983,1.983,0,0,1-1.407-.51A1.644,1.644,0,0,1,56.4-14.5a1.586,1.586,0,0,1,.548-1.246,2.048,2.048,0,0,1,1.407-.483,2.044,2.044,0,0,1,1.413.483,1.593,1.593,0,0,1,.542,1.246,1.638,1.638,0,0,1-.542,1.268A2.016,2.016,0,0,1,58.357-12.74ZM60.033,0H56.638V-11h3.395Zm12.01,0H68.831V-1.579h-.043A3.585,3.585,0,0,1,65.511.269a3.427,3.427,0,0,1-2.519-.908,3.253,3.253,0,0,1-.918-2.422q0-3.2,3.792-3.7l2.986-.4q0-1.8-1.955-1.8a6.673,6.673,0,0,0-3.738,1.171v-2.557a8.41,8.41,0,0,1,1.939-.645,10.192,10.192,0,0,1,2.24-.279q4.705,0,4.705,4.694Zm-3.19-4.469V-5.21l-2,.258Q65.2-4.737,65.2-3.459a1.234,1.234,0,0,0,.4.951,1.548,1.548,0,0,0,1.09.371A2.01,2.01,0,0,0,68.25-2.8,2.386,2.386,0,0,0,68.852-4.469ZM78.123,0H74.728V-16.285h3.395Z" transform="translate(680.871 5902.859)" fill="#0b0a0a"/>
    <g id="XMLID_1215_3" data-name="XMLID_1215_" transform="translate(637.515 5790.28)">
      <g id="XMLID_638_3" data-name="XMLID_638_" transform="translate(0 0.127)">
        <path id="XMLID_665_3" data-name="XMLID_665_" d="M210.214,291.746a6.675,6.675,0,0,0-6.885-1.461,7.452,7.452,0,0,0-4.935,7v2.5a6.118,6.118,0,0,0,11.482,2.943l1.592-2.9A6.717,6.717,0,0,0,210.214,291.746Zm-1.511,6.568-1.592,2.9a2.965,2.965,0,0,1-5.565-1.426v-2.5a4.292,4.292,0,0,1,2.842-4.033,3.556,3.556,0,0,1,4.314,5.06Z" transform="translate(-167.118 -244.21)" fill="#0b0a0a"/>
        <path id="XMLID_673_3" data-name="XMLID_673_" d="M391.519,464.373l-4.4,4.4a1.577,1.577,0,1,0,2.229,2.23l4.4-4.4a1.576,1.576,0,0,0-2.229-2.23Z" transform="translate(-325.701 -390.798)" fill="#0b0a0a"/>
        <path id="XMLID_682_3" data-name="XMLID_682_" d="M78.793,39.36a5.39,5.39,0,0,0-8.86,4.125v3.1a32.649,32.649,0,0,0-8-10.745l2.8-3.551a9.241,9.241,0,0,0,4.32,1.068,9.344,9.344,0,0,0,9.192-7.892,7.505,7.505,0,1,0-10.6-10.6,9.293,9.293,0,0,0-5.413,15.505l-2.757,3.5a32.545,32.545,0,0,0-17.536-6.156V23.336A9.478,9.478,0,1,0,49.76,6.165a10.342,10.342,0,0,0-18.807,0A9.477,9.477,0,1,0,38.78,23.336v4.375a32.546,32.546,0,0,0-17.536,6.156l-2.756-3.5a9.293,9.293,0,0,0-5.413-15.505,7.505,7.505,0,1,0-10.6,10.6,9.345,9.345,0,0,0,9.192,7.892,9.241,9.241,0,0,0,4.32-1.068l2.8,3.551a32.648,32.648,0,0,0-8,10.745v-3.1a5.39,5.39,0,1,0-10.78,0v8.963A25.945,25.945,0,0,0,7.649,70.916l9.419,9.419A1.576,1.576,0,0,0,19.3,78.1L9.879,68.686A22.814,22.814,0,0,1,3.153,52.448V43.485a2.237,2.237,0,0,1,4.474,0V53.494a11.967,11.967,0,0,0,3.528,8.517l8.55,8.55.635.635a1.577,1.577,0,0,0,2.23-2.23l-8.945-8.945a2.69,2.69,0,1,1,3.8-3.8L24.6,63.386a1.577,1.577,0,0,0,1.115.462A11.36,11.36,0,0,1,33.8,67.2a16.9,16.9,0,0,1,4.982,12.027,1.576,1.576,0,0,0,3.153,0A16.9,16.9,0,0,1,46.915,67.2,11.359,11.359,0,0,1,55,63.848a1.577,1.577,0,0,0,1.115-.462l7.168-7.168a2.69,2.69,0,0,1,3.8,3.8l-8.945,8.945a1.576,1.576,0,1,0,2.229,2.23l.635-.635,8.55-8.55a11.967,11.967,0,0,0,3.528-8.517V43.485a2.237,2.237,0,0,1,4.474,0v8.963A23.037,23.037,0,0,1,74.8,63.363a1.576,1.576,0,1,0,2.774,1.5,26.2,26.2,0,0,0,3.138-12.413V43.485a5.378,5.378,0,0,0-1.92-4.125ZM68.57,17.928a1.577,1.577,0,0,0,1.142-.628A4.353,4.353,0,1,1,75.8,23.391a1.577,1.577,0,0,0-.628,1.142,6.147,6.147,0,1,1-6.606-6.606ZM27.727,15.121A6.31,6.31,0,0,1,32.507,8.99,1.576,1.576,0,0,0,33.6,8a7.189,7.189,0,0,1,13.5,0,1.577,1.577,0,0,0,1.1.989,6.322,6.322,0,1,1-5.971,10.64l2.854-2.854a1.577,1.577,0,0,0-2.23-2.23l-.928.928v-5.3a1.576,1.576,0,1,0-3.153,0v6.893l-2.511-2.511a1.577,1.577,0,0,0-2.23,2.23l3.566,3.566a6.324,6.324,0,0,1-9.878-5.228ZM5.538,24.534a1.577,1.577,0,0,0-.628-1.142A4.353,4.353,0,1,1,11,17.3a1.576,1.576,0,0,0,1.142.628,6.147,6.147,0,1,1-6.606,6.606Zm6.118,29.212a29.158,29.158,0,0,1,5.166-11.123h4.551a3.891,3.891,0,0,1,2.316,7.017A9.334,9.334,0,0,0,20.276,54.6l-.616-.616a5.85,5.85,0,0,0-8-.243ZM54.333,60.71a14.482,14.482,0,0,0-9.647,4.258,20.135,20.135,0,0,0-4.329,6.416,20.136,20.136,0,0,0-4.329-6.416,14.483,14.483,0,0,0-9.647-4.258l-3.3-3.3v-.294a6.171,6.171,0,0,1,2.488-4.939,7.044,7.044,0,0,0-4.192-12.7H19.566a29.29,29.29,0,0,1,35.927-4.422,11.03,11.03,0,0,0-2.8,19.837L55.968,57a4.5,4.5,0,0,1,1.089.989Zm6.721-6.721-1.759,1.759a7.651,7.651,0,0,0-1.619-1.4L54.4,52.234a7.879,7.879,0,0,1,4.268-14.5h.587a29.373,29.373,0,0,1,9.806,16.013A5.85,5.85,0,0,0,61.054,53.989Z" transform="translate(0 -0.127)" fill="#0b0a0a"/>
        <path id="XMLID_1075_3" data-name="XMLID_1075_" d="M447.983,432.1a1.574,1.574,0,1,0,1.115.46A1.588,1.588,0,0,0,447.983,432.1Z" transform="translate(-376.033 -363.999)" fill="#0b0a0a"/>
      </g>
    </g>
    <path id="Trazado_1004448" data-name="Trazado 1004448" d="M-66.419-.548a10.158,10.158,0,0,1-4.4.816A7.424,7.424,0,0,1-76.4-1.815a7.618,7.618,0,0,1-2.03-5.554,8.139,8.139,0,0,1,2.283-5.994,7.985,7.985,0,0,1,5.924-2.3,11.079,11.079,0,0,1,3.8.569v3.341a6.738,6.738,0,0,0-3.523-.924,4.674,4.674,0,0,0-3.5,1.364,5.062,5.062,0,0,0-1.332,3.7A4.965,4.965,0,0,0-73.52-4.055a4.44,4.44,0,0,0,3.384,1.327,7.218,7.218,0,0,0,3.717-.988Zm11.5.548h-3.212V-1.579h-.043A3.585,3.585,0,0,1-61.445.269a3.427,3.427,0,0,1-2.519-.908,3.253,3.253,0,0,1-.918-2.422q0-3.2,3.792-3.7l2.986-.4q0-1.8-1.955-1.8A6.673,6.673,0,0,0-63.8-7.788v-2.557a8.41,8.41,0,0,1,1.939-.645,10.193,10.193,0,0,1,2.24-.279q4.705,0,4.705,4.694ZM-58.1-4.469V-5.21l-2,.258q-1.654.215-1.654,1.493a1.234,1.234,0,0,0,.4.951,1.548,1.548,0,0,0,1.09.371A2.01,2.01,0,0,0-58.706-2.8,2.386,2.386,0,0,0-58.1-4.469ZM-48.834,0h-3.395V-16.285h3.395Zm4.576-12.74a1.983,1.983,0,0,1-1.407-.51,1.644,1.644,0,0,1-.548-1.251,1.586,1.586,0,0,1,.548-1.246,2.048,2.048,0,0,1,1.407-.483,2.044,2.044,0,0,1,1.413.483A1.593,1.593,0,0,1-42.3-14.5a1.638,1.638,0,0,1-.542,1.268A2.016,2.016,0,0,1-44.258-12.74ZM-42.582,0h-3.395V-11h3.395Zm13.621,0h-3.395V-1.515H-32.4A3.806,3.806,0,0,1-35.8.269a4.17,4.17,0,0,1-3.319-1.456A6.025,6.025,0,0,1-40.38-5.253a6.558,6.558,0,0,1,1.386-4.372,4.52,4.52,0,0,1,3.631-1.644A3.089,3.089,0,0,1-32.4-9.743h.043v-6.542h3.395Zm-3.33-5.35v-.827a2.6,2.6,0,0,0-.623-1.783,2.058,2.058,0,0,0-1.622-.709,2.045,2.045,0,0,0-1.762.886,4.115,4.115,0,0,0-.634,2.433,3.561,3.561,0,0,0,.612,2.234,2.033,2.033,0,0,0,1.7.784,2.041,2.041,0,0,0,1.681-.827A3.448,3.448,0,0,0-32.291-5.35ZM-16.951,0h-3.212V-1.579h-.043A3.585,3.585,0,0,1-23.482.269,3.427,3.427,0,0,1-26-.639a3.253,3.253,0,0,1-.918-2.422q0-3.2,3.792-3.7l2.986-.4q0-1.8-1.955-1.8a6.673,6.673,0,0,0-3.738,1.171v-2.557a8.41,8.41,0,0,1,1.939-.645,10.192,10.192,0,0,1,2.24-.279q4.705,0,4.705,4.694Zm-3.19-4.469V-5.21l-2,.258q-1.654.215-1.654,1.493a1.234,1.234,0,0,0,.4.951,1.548,1.548,0,0,0,1.09.371A2.01,2.01,0,0,0-20.743-2.8,2.386,2.386,0,0,0-20.142-4.469ZM-3.5,0H-6.9V-1.515h-.043A3.806,3.806,0,0,1-10.345.269a4.17,4.17,0,0,1-3.319-1.456,6.025,6.025,0,0,1-1.257-4.066,6.558,6.558,0,0,1,1.386-4.372A4.52,4.52,0,0,1-9.9-11.269,3.089,3.089,0,0,1-6.939-9.743H-6.9v-6.542H-3.5Zm-3.33-5.35v-.827A2.6,2.6,0,0,0-7.455-7.96a2.058,2.058,0,0,0-1.622-.709,2.045,2.045,0,0,0-1.762.886,4.115,4.115,0,0,0-.634,2.433,3.561,3.561,0,0,0,.612,2.234,2.033,2.033,0,0,0,1.7.784,2.041,2.041,0,0,0,1.681-.827A3.448,3.448,0,0,0-6.832-5.35ZM16.188,0H12.794V-1.515h-.043A3.806,3.806,0,0,1,9.346.269,4.17,4.17,0,0,1,6.026-1.187,6.025,6.025,0,0,1,4.77-5.253,6.558,6.558,0,0,1,6.155-9.625a4.52,4.52,0,0,1,3.631-1.644,3.089,3.089,0,0,1,2.965,1.525h.043v-6.542h3.395Zm-3.33-5.35v-.827a2.6,2.6,0,0,0-.623-1.783,2.058,2.058,0,0,0-1.622-.709,2.045,2.045,0,0,0-1.762.886A4.115,4.115,0,0,0,8.218-5.35,3.561,3.561,0,0,0,8.83-3.115a2.033,2.033,0,0,0,1.7.784,2.041,2.041,0,0,0,1.681-.827A3.448,3.448,0,0,0,12.858-5.35Zm16.07.816H21.753q.172,2.4,3.019,2.4A5.893,5.893,0,0,0,27.962-3V-.548A8.381,8.381,0,0,1,24,.269a5.58,5.58,0,0,1-4.136-1.477,5.58,5.58,0,0,1-1.472-4.12,5.887,5.887,0,0,1,1.59-4.34,5.3,5.3,0,0,1,3.91-1.6A4.807,4.807,0,0,1,27.613-9.84a5.5,5.5,0,0,1,1.316,3.878ZM25.781-6.617q0-2.363-1.912-2.363a1.826,1.826,0,0,0-1.413.677,3.072,3.072,0,0,0-.725,1.687ZM47.491-11,43.4,0H39.531l-3.9-11h3.631l1.912,6.778a9.9,9.9,0,0,1,.376,1.955h.043a11.1,11.1,0,0,1,.4-1.891L43.946-11Zm3.169-1.74a1.983,1.983,0,0,1-1.407-.51,1.644,1.644,0,0,1-.548-1.251,1.586,1.586,0,0,1,.548-1.246,2.048,2.048,0,0,1,1.407-.483,2.044,2.044,0,0,1,1.413.483,1.593,1.593,0,0,1,.542,1.246,1.638,1.638,0,0,1-.542,1.268A2.016,2.016,0,0,1,50.66-12.74ZM52.336,0H48.941V-11h3.395ZM65.957,0H62.563V-1.515H62.52A3.806,3.806,0,0,1,59.114.269a4.17,4.17,0,0,1-3.319-1.456,6.025,6.025,0,0,1-1.257-4.066,6.558,6.558,0,0,1,1.386-4.372,4.52,4.52,0,0,1,3.631-1.644A3.089,3.089,0,0,1,62.52-9.743h.043v-6.542h3.395Zm-3.33-5.35v-.827A2.6,2.6,0,0,0,62-7.96a2.058,2.058,0,0,0-1.622-.709,2.045,2.045,0,0,0-1.762.886,4.115,4.115,0,0,0-.634,2.433A3.561,3.561,0,0,0,58.6-3.115a2.033,2.033,0,0,0,1.7.784,2.041,2.041,0,0,0,1.681-.827A3.448,3.448,0,0,0,62.627-5.35ZM77.967,0H74.755V-1.579h-.043A3.585,3.585,0,0,1,71.436.269a3.427,3.427,0,0,1-2.519-.908A3.253,3.253,0,0,1,68-3.062q0-3.2,3.792-3.7l2.986-.4q0-1.8-1.955-1.8a6.673,6.673,0,0,0-3.738,1.171v-2.557a8.41,8.41,0,0,1,1.939-.645,10.192,10.192,0,0,1,2.24-.279q4.705,0,4.705,4.694Zm-3.19-4.469V-5.21l-2,.258q-1.654.215-1.654,1.493a1.234,1.234,0,0,0,.4.951,1.548,1.548,0,0,0,1.09.371A2.01,2.01,0,0,0,74.175-2.8,2.386,2.386,0,0,0,74.776-4.469Z" transform="translate(925.871 5902.859)" fill="#fff"/>
    <g id="XMLID_1215_4" data-name="XMLID_1215_" transform="translate(885.515 5790.28)">
      <g id="XMLID_638_4" data-name="XMLID_638_" transform="translate(0 0.127)">
        <path id="XMLID_665_4" data-name="XMLID_665_" d="M210.214,291.746a6.675,6.675,0,0,0-6.885-1.461,7.452,7.452,0,0,0-4.935,7v2.5a6.118,6.118,0,0,0,11.482,2.943l1.592-2.9A6.717,6.717,0,0,0,210.214,291.746Zm-1.511,6.568-1.592,2.9a2.965,2.965,0,0,1-5.565-1.426v-2.5a4.292,4.292,0,0,1,2.842-4.033,3.556,3.556,0,0,1,4.314,5.06Z" transform="translate(-167.118 -244.21)" fill="#fff"/>
        <path id="XMLID_673_4" data-name="XMLID_673_" d="M391.519,464.373l-4.4,4.4a1.577,1.577,0,1,0,2.229,2.23l4.4-4.4a1.576,1.576,0,0,0-2.229-2.23Z" transform="translate(-325.701 -390.798)" fill="#fff"/>
        <path id="XMLID_682_4" data-name="XMLID_682_" d="M78.793,39.36a5.39,5.39,0,0,0-8.86,4.125v3.1a32.649,32.649,0,0,0-8-10.745l2.8-3.551a9.241,9.241,0,0,0,4.32,1.068,9.344,9.344,0,0,0,9.192-7.892,7.505,7.505,0,1,0-10.6-10.6,9.293,9.293,0,0,0-5.413,15.505l-2.757,3.5a32.545,32.545,0,0,0-17.536-6.156V23.336A9.478,9.478,0,1,0,49.76,6.165a10.342,10.342,0,0,0-18.807,0A9.477,9.477,0,1,0,38.78,23.336v4.375a32.546,32.546,0,0,0-17.536,6.156l-2.756-3.5a9.293,9.293,0,0,0-5.413-15.505,7.505,7.505,0,1,0-10.6,10.6,9.345,9.345,0,0,0,9.192,7.892,9.241,9.241,0,0,0,4.32-1.068l2.8,3.551a32.648,32.648,0,0,0-8,10.745v-3.1a5.39,5.39,0,1,0-10.78,0v8.963A25.945,25.945,0,0,0,7.649,70.916l9.419,9.419A1.576,1.576,0,0,0,19.3,78.1L9.879,68.686A22.814,22.814,0,0,1,3.153,52.448V43.485a2.237,2.237,0,0,1,4.474,0V53.494a11.967,11.967,0,0,0,3.528,8.517l8.55,8.55.635.635a1.577,1.577,0,0,0,2.23-2.23l-8.945-8.945a2.69,2.69,0,1,1,3.8-3.8L24.6,63.386a1.577,1.577,0,0,0,1.115.462A11.36,11.36,0,0,1,33.8,67.2a16.9,16.9,0,0,1,4.982,12.027,1.576,1.576,0,0,0,3.153,0A16.9,16.9,0,0,1,46.915,67.2,11.359,11.359,0,0,1,55,63.848a1.577,1.577,0,0,0,1.115-.462l7.168-7.168a2.69,2.69,0,0,1,3.8,3.8l-8.945,8.945a1.576,1.576,0,1,0,2.229,2.23l.635-.635,8.55-8.55a11.967,11.967,0,0,0,3.528-8.517V43.485a2.237,2.237,0,0,1,4.474,0v8.963A23.037,23.037,0,0,1,74.8,63.363a1.576,1.576,0,1,0,2.774,1.5,26.2,26.2,0,0,0,3.138-12.413V43.485a5.378,5.378,0,0,0-1.92-4.125ZM68.57,17.928a1.577,1.577,0,0,0,1.142-.628A4.353,4.353,0,1,1,75.8,23.391a1.577,1.577,0,0,0-.628,1.142,6.147,6.147,0,1,1-6.606-6.606ZM27.727,15.121A6.31,6.31,0,0,1,32.507,8.99,1.576,1.576,0,0,0,33.6,8a7.189,7.189,0,0,1,13.5,0,1.577,1.577,0,0,0,1.1.989,6.322,6.322,0,1,1-5.971,10.64l2.854-2.854a1.577,1.577,0,0,0-2.23-2.23l-.928.928v-5.3a1.576,1.576,0,1,0-3.153,0v6.893l-2.511-2.511a1.577,1.577,0,0,0-2.23,2.23l3.566,3.566a6.324,6.324,0,0,1-9.878-5.228ZM5.538,24.534a1.577,1.577,0,0,0-.628-1.142A4.353,4.353,0,1,1,11,17.3a1.576,1.576,0,0,0,1.142.628,6.147,6.147,0,1,1-6.606,6.606Zm6.118,29.212a29.158,29.158,0,0,1,5.166-11.123h4.551a3.891,3.891,0,0,1,2.316,7.017A9.334,9.334,0,0,0,20.276,54.6l-.616-.616a5.85,5.85,0,0,0-8-.243ZM54.333,60.71a14.482,14.482,0,0,0-9.647,4.258,20.135,20.135,0,0,0-4.329,6.416,20.136,20.136,0,0,0-4.329-6.416,14.483,14.483,0,0,0-9.647-4.258l-3.3-3.3v-.294a6.171,6.171,0,0,1,2.488-4.939,7.044,7.044,0,0,0-4.192-12.7H19.566a29.29,29.29,0,0,1,35.927-4.422,11.03,11.03,0,0,0-2.8,19.837L55.968,57a4.5,4.5,0,0,1,1.089.989Zm6.721-6.721-1.759,1.759a7.651,7.651,0,0,0-1.619-1.4L54.4,52.234a7.879,7.879,0,0,1,4.268-14.5h.587a29.373,29.373,0,0,1,9.806,16.013A5.85,5.85,0,0,0,61.054,53.989Z" transform="translate(0 -0.127)" fill="#fff"/>
        <path id="XMLID_1075_4" data-name="XMLID_1075_" d="M447.983,432.1a1.574,1.574,0,1,0,1.115.46A1.588,1.588,0,0,0,447.983,432.1Z" transform="translate(-376.033 -363.999)" fill="#fff"/>
      </g>
    </g>
  </g>
</svg>
