<svg xmlns="http://www.w3.org/2000/svg" xmlns:xlink="http://www.w3.org/1999/xlink" width="113" height="113" viewBox="0 0 113 113">
  <defs>
    <filter id="Trazado_982547" x="0" y="0" width="113" height="113" filterUnits="userSpaceOnUse">
      <feOffset dy="3" input="SourceAlpha"/>
      <feGaussianBlur stdDeviation="3" result="blur"/>
      <feFlood flood-opacity="0.161"/>
      <feComposite operator="in" in2="blur"/>
      <feComposite in="SourceGraphic"/>
    </filter>
  </defs>
  <g id="Grupo_1165522" data-name="Grupo 1165522" transform="translate(-324.895 -3257)">
    <g id="Grupo_1164305" data-name="Grupo 1164305" transform="translate(333.895 3263)">
      <g id="Grupo_1163948" data-name="Grupo 1163948" transform="translate(0)">
        <g id="Grupo_1158168" data-name="Grupo 1158168" transform="translate(0)">
          <g id="Grupo_1152576" data-name="Grupo 1152576">
            <g id="Grupo_1148633" data-name="Grupo 1148633">
              <g id="Grupo_1148525" data-name="Grupo 1148525">
                <g transform="matrix(1, 0, 0, 1, -9, -6)" filter="url(#Trazado_982547)">
                  <g id="Trazado_982547-2" data-name="Trazado 982547" transform="translate(9 6)" fill="#f2f7e5">
                    <path d="M 47.5 93.5 C 41.28937149047852 93.5 35.26533508300781 92.28397369384766 29.59518623352051 89.88570404052734 C 24.11771965026855 87.56893157958984 19.19813346862793 84.25196075439453 14.97309303283691 80.02691650390625 C 10.74804019927979 75.80186462402344 7.431066513061523 70.88229370117188 5.114293098449707 65.40481567382812 C 2.716026782989502 59.73468017578125 1.5 53.71062850952148 1.5 47.5 C 1.5 41.28937149047852 2.716026782989502 35.26533508300781 5.114293098449707 29.59518623352051 C 7.431066513061523 24.11771965026855 10.74804019927979 19.19813346862793 14.97309303283691 14.97309303283691 C 19.19813346862793 10.74804019927979 24.11771965026855 7.431066513061523 29.59518623352051 5.114293098449707 C 35.26533508300781 2.716026782989502 41.28937149047852 1.5 47.5 1.5 C 53.71062850952148 1.5 59.73468017578125 2.716026782989502 65.40481567382812 5.114293098449707 C 70.88229370117188 7.431066513061523 75.80186462402344 10.74804019927979 80.02691650390625 14.97309303283691 C 84.25196075439453 19.19813346862793 87.56893157958984 24.11771965026855 89.88570404052734 29.59518623352051 C 92.28397369384766 35.26533508300781 93.5 41.28937149047852 93.5 47.5 C 93.5 53.71062850952148 92.28397369384766 59.73468017578125 89.88570404052734 65.40481567382812 C 87.56893157958984 70.88229370117188 84.25196075439453 75.80186462402344 80.02691650390625 80.02691650390625 C 75.80186462402344 84.25196075439453 70.88229370117188 87.56893157958984 65.40481567382812 89.88570404052734 C 59.73468017578125 92.28397369384766 53.71062850952148 93.5 47.5 93.5 Z" stroke="none"/>
                    <path d="M 47.5 3 C 41.49121475219727 3 35.66376876831055 4.176155090332031 30.17950439453125 6.495796203613281 C 24.88084411621094 8.736953735351562 20.12152099609375 11.94598388671875 16.03375244140625 16.03375244140625 C 11.94598388671875 20.12152099609375 8.736953735351562 24.88084411621094 6.495796203613281 30.17950439453125 C 4.176155090332031 35.66376876831055 3 41.49121475219727 3 47.5 C 3 53.50878524780273 4.176155090332031 59.33623123168945 6.495796203613281 64.82049560546875 C 8.736953735351562 70.11915588378906 11.94598388671875 74.87847900390625 16.03375244140625 78.96624755859375 C 20.12152099609375 83.05401611328125 24.88084411621094 86.26304626464844 30.17950439453125 88.50419616699219 C 35.66376876831055 90.82384490966797 41.49121475219727 92 47.5 92 C 53.50878524780273 92 59.33623123168945 90.82384490966797 64.82049560546875 88.50419616699219 C 70.11915588378906 86.26304626464844 74.87847900390625 83.05401611328125 78.96624755859375 78.96624755859375 C 83.05401611328125 74.87847900390625 86.26304626464844 70.11915588378906 88.50419616699219 64.82049560546875 C 90.82384490966797 59.33623123168945 92 53.50878524780273 92 47.5 C 92 41.49121475219727 90.82384490966797 35.66376876831055 88.50419616699219 30.17950439453125 C 86.26304626464844 24.88084411621094 83.05401611328125 20.12152099609375 78.96624755859375 16.03375244140625 C 74.87847900390625 11.94598388671875 70.11915588378906 8.736953735351562 64.82049560546875 6.495796203613281 C 59.33623123168945 4.176155090332031 53.50878524780273 3 47.5 3 M 47.5 0 C 73.7335205078125 0 95 21.2664794921875 95 47.5 C 95 73.7335205078125 73.7335205078125 95 47.5 95 C 21.2664794921875 95 0 73.7335205078125 0 47.5 C 0 21.2664794921875 21.2664794921875 0 47.5 0 Z" stroke="none" fill="#86b60c"/>
                  </g>
                </g>
              </g>
            </g>
          </g>
        </g>
      </g>
    </g>
    <g id="management_9874689" transform="translate(344.238 3303.226)">
      <g id="Grupo_1165520" data-name="Grupo 1165520" transform="translate(6.537 -28.593)">
        <g id="Grupo_1165505" data-name="Grupo 1165505" transform="translate(9.948 15.485)">
          <path id="Trazado_1000731" data-name="Trazado 1000731" d="M132.368,111.708H129.4a1.955,1.955,0,0,1-1.829-1.241q-.136-.352-.288-.7a1.956,1.956,0,0,1,.416-2.171l2.1-2.1c.025-.025.046-.051.069-.076a10.833,10.833,0,0,1-6.755-5.152l-1.373,1.373a1.956,1.956,0,0,1-2.171.416q-.344-.152-.7-.288a1.955,1.955,0,0,1-1.241-1.829V96.969A1.969,1.969,0,0,0,115.66,95h-4.486a1.969,1.969,0,0,0-1.969,1.969v2.972a1.955,1.955,0,0,1-1.241,1.829q-.352.136-.7.288a1.956,1.956,0,0,1-2.171-.416l-2.1-2.1a1.969,1.969,0,0,0-2.785,0l-3.172,3.172a1.969,1.969,0,0,0,0,2.785l2.1,2.1a1.956,1.956,0,0,1,.416,2.171q-.152.344-.288.7a1.955,1.955,0,0,1-1.829,1.241H94.465a1.969,1.969,0,0,0-1.969,1.969v4.486a1.969,1.969,0,0,0,1.969,1.969h2.972a1.955,1.955,0,0,1,1.829,1.242q.136.352.288.7a1.956,1.956,0,0,1-.416,2.171l-1.29,1.29a10.851,10.851,0,0,1,5.756,6.158L105.1,130.2a1.956,1.956,0,0,1,2.171-.416q.344.152.7.288A1.955,1.955,0,0,1,109.2,131.9v2.972a1.969,1.969,0,0,0,1.969,1.969h4.486a1.969,1.969,0,0,0,1.969-1.969V131.9a1.955,1.955,0,0,1,1.241-1.829q.352-.136.7-.288a1.956,1.956,0,0,1,2.171.416l2.1,2.1a1.969,1.969,0,0,0,2.785,0l3.172-3.172a1.969,1.969,0,0,0,0-2.785l-2.1-2.1a1.956,1.956,0,0,1-.416-2.171q.152-.344.288-.7a1.955,1.955,0,0,1,1.829-1.242h2.972a1.969,1.969,0,0,0,1.969-1.969v-4.486A1.969,1.969,0,0,0,132.368,111.708Z" transform="translate(-92.496 -95)" fill="#cdbfba"/>
        </g>
        <g id="Grupo_1165506" data-name="Grupo 1165506" transform="translate(26.658 15.485)">
          <path id="Trazado_1000732" data-name="Trazado 1000732" d="M249.021,111.708h-2.972a1.955,1.955,0,0,1-1.829-1.241q-.136-.352-.288-.7a1.956,1.956,0,0,1,.416-2.171l2.1-2.1c.025-.025.046-.051.069-.076a10.833,10.833,0,0,1-6.755-5.152l-1.373,1.373a1.956,1.956,0,0,1-2.171.416q-.344-.152-.7-.288a1.955,1.955,0,0,1-1.241-1.829V96.969A1.969,1.969,0,0,0,232.312,95h-4.486a1.969,1.969,0,0,0-1.968,1.951,20.947,20.947,0,0,1,9.93,9.554,11.017,11.017,0,0,1,0,18.831,20.948,20.948,0,0,1-9.93,9.554,1.969,1.969,0,0,0,1.968,1.951h4.486a1.969,1.969,0,0,0,1.969-1.969V131.9a1.955,1.955,0,0,1,1.241-1.829q.352-.136.7-.288a1.956,1.956,0,0,1,2.171.416l2.1,2.1a1.969,1.969,0,0,0,2.785,0l3.172-3.172a1.969,1.969,0,0,0,0-2.785l-2.1-2.1a1.956,1.956,0,0,1-.416-2.171q.152-.344.288-.7a1.955,1.955,0,0,1,1.829-1.242h2.972a1.969,1.969,0,0,0,1.969-1.969v-4.486A1.969,1.969,0,0,0,249.021,111.708Z" transform="translate(-225.858 -95)" fill="#b9acac"/>
        </g>
        <g id="Grupo_1165509" data-name="Grupo 1165509" transform="translate(0 44.956)">
          <g id="Grupo_1165507" data-name="Grupo 1165507">
            <circle id="Elipse_11716" data-name="Elipse 11716" cx="10.918" cy="10.918" r="10.918" fill="#fff"/>
          </g>
          <g id="Grupo_1165508" data-name="Grupo 1165508" transform="translate(8.782 0)">
            <path id="Trazado_1000733" data-name="Trazado 1000733" d="M85.327,330.215a10.965,10.965,0,0,0-2.136.21,10.92,10.92,0,0,1,0,21.418,10.919,10.919,0,1,0,2.136-21.627Z" transform="translate(-83.191 -330.215)" fill="#f9f3f1"/>
          </g>
        </g>
        <g id="Grupo_1165512" data-name="Grupo 1165512" transform="translate(34.509 0)">
          <g id="Grupo_1165510" data-name="Grupo 1165510">
            <circle id="Elipse_11717" data-name="Elipse 11717" cx="10.918" cy="10.918" r="10.918" transform="translate(0 15.441) rotate(-45)" fill="#ffe177"/>
          </g>
          <g id="Grupo_1165511" data-name="Grupo 1165511" transform="translate(12.816 4.522)">
            <path id="Trazado_1000734" data-name="Trazado 1000734" d="M393.434,7.5a10.94,10.94,0,0,0-2.625.318,10.921,10.921,0,0,1,0,21.2A10.919,10.919,0,1,0,393.434,7.5Z" transform="translate(-390.809 -7.5)" fill="#ffd15b"/>
          </g>
        </g>
        <g id="Grupo_1165519" data-name="Grupo 1165519" transform="translate(19.855 25.391)">
          <g id="Grupo_1165518" data-name="Grupo 1165518">
            <g id="Grupo_1165517" data-name="Grupo 1165517">
              <g id="Grupo_1165513" data-name="Grupo 1165513">
                <circle id="Elipse_11718" data-name="Elipse 11718" cx="11.014" cy="11.014" r="11.014" fill="#ffe177"/>
              </g>
              <g id="Grupo_1165514" data-name="Grupo 1165514" transform="translate(9.049)">
                <path id="Trazado_1000735" data-name="Trazado 1000735" d="M245.747,174.062a11.07,11.07,0,0,0-1.966.175,11.016,11.016,0,0,1,0,21.678,11.015,11.015,0,1,0,1.966-21.854Z" transform="translate(-243.781 -174.062)" fill="#ffd15b"/>
              </g>
              <path id="Trazado_1000736" data-name="Trazado 1000736" d="M205.257,294.78a5.14,5.14,0,0,1-6.171,0,11.019,11.019,0,0,0-5.122,3.232,11.01,11.01,0,0,0,16.415,0A11.019,11.019,0,0,0,205.257,294.78Z" transform="translate(-191.157 -279.655)" fill="#0182fc"/>
              <g id="Grupo_1165515" data-name="Grupo 1165515" transform="translate(5.874 5.874)">
                <circle id="Elipse_11719" data-name="Elipse 11719" cx="5.14" cy="5.14" r="5.14" fill="#26a6fe"/>
              </g>
              <g id="Grupo_1165516" data-name="Grupo 1165516" transform="translate(9.044 5.874)">
                <path id="Trazado_1000737" data-name="Trazado 1000737" d="M245.717,220.947a5.125,5.125,0,0,0-1.97.392,5.141,5.141,0,0,1,0,9.5,5.14,5.14,0,1,0,1.97-9.888Z" transform="translate(-243.747 -220.947)" fill="#0593fc"/>
              </g>
            </g>
          </g>
        </g>
      </g>
      <g id="Grupo_1165521" data-name="Grupo 1165521" transform="translate(5.597 -25.01)">
        <path id="Trazado_1000738" data-name="Trazado 1000738" d="M226.542,414.976a26.051,26.051,0,0,1-23.4,5.928.94.94,0,0,0-.435,1.828,27.931,27.931,0,0,0,25.089-6.357.94.94,0,1,0-1.254-1.4Z" transform="translate(-177.379 -362.772)"/>
        <path id="Trazado_1000739" data-name="Trazado 1000739" d="M425.212,195.983a.94.94,0,0,0-.649,1.159,26.071,26.071,0,0,1,.975,7.077,25.727,25.727,0,0,1-5.747,16.308.94.94,0,1,0,1.463,1.179,27.94,27.94,0,0,0,5.118-25.075A.939.939,0,0,0,425.212,195.983Z" transform="translate(-367.712 -171.396)"/>
        <path id="Trazado_1000740" data-name="Trazado 1000740" d="M38.354,73.781a.941.941,0,0,0,.92-1.135A26.035,26.035,0,0,1,69.415,41.628a.94.94,0,0,0,.337-1.849,28.149,28.149,0,0,0-5.029-.453,27.9,27.9,0,0,0-27.9,27.9,28.075,28.075,0,0,0,.609,5.814A.94.94,0,0,0,38.354,73.781Z" transform="translate(-32.914 -34.399)"/>
        <path id="Trazado_1000741" data-name="Trazado 1000741" d="M59.266,35.066V30.58a2.912,2.912,0,0,0-2.909-2.909H53.384a1.019,1.019,0,0,1-.952-.639c-.1-.248-.2-.5-.306-.739a1.021,1.021,0,0,1,.221-1.126l1.7-1.7A11.858,11.858,0,1,0,49.9,1.994a.94.94,0,0,0,1.044,1.562,9.978,9.978,0,1,1-2.821,2.85.94.94,0,1,0-1.573-1.028,11.852,11.852,0,0,0-.706,11.716l-.788.787a1.021,1.021,0,0,1-1.126.221c-.243-.108-.492-.211-.739-.306a1.019,1.019,0,0,1-.639-.952V13.872a2.912,2.912,0,0,0-2.909-2.909H35.163a2.912,2.912,0,0,0-2.909,2.909v2.972a1.019,1.019,0,0,1-.639.952c-.248.1-.5.2-.739.306a1.021,1.021,0,0,1-1.126-.221l-2.1-2.1a2.912,2.912,0,0,0-4.114,0l-3.172,3.172a2.909,2.909,0,0,0,0,4.114l2.1,2.1a1.021,1.021,0,0,1,.221,1.126c-.107.242-.21.491-.306.739a1.019,1.019,0,0,1-.952.639H18.455a2.912,2.912,0,0,0-2.909,2.909v4.486a2.912,2.912,0,0,0,2.909,2.909h2.972a1.019,1.019,0,0,1,.952.639c.1.249.2.5.306.739a1.02,1.02,0,0,1-.221,1.126l-.747.747a11.852,11.852,0,1,0,7.054,7.517l.979-.979a1.021,1.021,0,0,1,1.126-.221c.242.107.491.21.739.306a1.019,1.019,0,0,1,.639.952v2.972a2.912,2.912,0,0,0,2.909,2.909h4.486a2.912,2.912,0,0,0,2.909-2.909V48.8a1.019,1.019,0,0,1,.639-.952c.248-.1.5-.2.739-.306a1.02,1.02,0,0,1,1.126.221l2.1,2.1a2.909,2.909,0,0,0,4.114,0l3.172-3.172a2.909,2.909,0,0,0,0-4.114l-2.1-2.1a1.021,1.021,0,0,1-.221-1.126c.107-.242.21-.491.306-.739a1.019,1.019,0,0,1,.952-.639h2.972A2.912,2.912,0,0,0,59.266,35.066Zm-41.811,27.2a9.979,9.979,0,1,1,9.979-9.979A9.99,9.99,0,0,1,17.455,62.271Zm39.931-27.2a1.031,1.031,0,0,1-1.03,1.029H53.384a2.91,2.91,0,0,0-2.706,1.844c-.084.22-.175.439-.27.653a2.911,2.911,0,0,0,.61,3.216l2.1,2.1a1.031,1.031,0,0,1,0,1.456l-3.172,3.172a1.029,1.029,0,0,1-1.456,0l-2.1-2.1a2.911,2.911,0,0,0-3.216-.61c-.214.095-.433.186-.653.27A2.909,2.909,0,0,0,40.678,48.8v2.972a1.031,1.031,0,0,1-1.03,1.029H35.163a1.031,1.031,0,0,1-1.029-1.029V48.8A2.909,2.909,0,0,0,32.289,46.1c-.22-.084-.439-.175-.652-.27a2.911,2.911,0,0,0-3.216.61l-.426.426A11.943,11.943,0,0,0,23.5,42.1l.289-.289a2.911,2.911,0,0,0,.61-3.216c-.095-.213-.185-.433-.27-.652A2.909,2.909,0,0,0,21.427,36.1H18.455a1.031,1.031,0,0,1-1.03-1.029V30.58a1.031,1.031,0,0,1,1.03-1.03h2.972a2.909,2.909,0,0,0,2.706-1.844c.084-.219.175-.439.27-.652a2.911,2.911,0,0,0-.61-3.216l-2.1-2.1a1.03,1.03,0,0,1,0-1.456l3.172-3.172a1.031,1.031,0,0,1,1.456,0l2.1,2.1a2.911,2.911,0,0,0,3.216.61c.214-.095.434-.186.652-.27a2.909,2.909,0,0,0,1.844-2.706V13.872a1.031,1.031,0,0,1,1.029-1.03h4.486a1.031,1.031,0,0,1,1.03,1.03v2.972a2.909,2.909,0,0,0,1.844,2.706c.218.084.438.175.652.27a2.911,2.911,0,0,0,3.216-.61l.456-.456a11.925,11.925,0,0,0,5.17,4.086l-1,1a2.911,2.911,0,0,0-.61,3.216c.095.214.185.433.27.653a2.91,2.91,0,0,0,2.706,1.844h2.972a1.031,1.031,0,0,1,1.03,1.03Z" transform="translate(-5.597)"/>
        <path id="Trazado_1000742" data-name="Trazado 1000742" d="M94.618,357.452v-6.567a.94.94,0,0,0-1.879,0v7.507a.94.94,0,0,0,.94.94h6.71a.94.94,0,0,0,0-1.879Z" transform="translate(-81.821 -306.1)"/>
        <path id="Trazado_1000743" data-name="Trazado 1000743" d="M383.3,45.838h-5.768a.94.94,0,0,0,0,1.879h2.527v.943a.94.94,0,0,0,1.879,0v-.943H383.3a2.107,2.107,0,0,0,2.1-2.1V43.235a2.107,2.107,0,0,0-2.1-2.1h-4.6a.226.226,0,0,1-.225-.225V38.527a.226.226,0,0,1,.225-.225h5.768a.94.94,0,0,0,0-1.879h-2.527v-.943a.94.94,0,1,0-1.879,0v.943H378.7a2.107,2.107,0,0,0-2.1,2.1V40.9a2.107,2.107,0,0,0,2.1,2.1h4.6a.226.226,0,0,1,.225.225v2.378A.225.225,0,0,1,383.3,45.838Z" transform="translate(-330.109 -30.211)"/>
        <path id="Trazado_1000744" data-name="Trazado 1000744" d="M345.949,83.676a.94.94,0,1,0,1.879,0V83a.94.94,0,1,0-1.879,0Z" transform="translate(-303.305 -71.777)"/>
        <path id="Trazado_1000745" data-name="Trazado 1000745" d="M464.452,83.676V83a.94.94,0,1,0-1.879,0v.678a.94.94,0,1,0,1.879,0Z" transform="translate(-405.317 -71.777)"/>
        <path id="Trazado_1000746" data-name="Trazado 1000746" d="M177.541,166.563a11.984,11.984,0,0,0-11.717,9.575.94.94,0,0,0,1.842.372,10.075,10.075,0,1,1,18.011,7.938,11.944,11.944,0,0,0-3.344-2.2,6.08,6.08,0,1,0-9.585,0,11.943,11.943,0,0,0-3.347,2.2,9.98,9.98,0,0,1-1.736-3.928.94.94,0,1,0-1.842.372,11.955,11.955,0,1,0,11.717-14.333Zm0,7.754a4.2,4.2,0,1,1-4.2,4.2A4.2,4.2,0,0,1,177.541,174.317Zm-6.891,11.54a10.059,10.059,0,0,1,3.656-2.2,6.059,6.059,0,0,0,6.469,0,10.061,10.061,0,0,1,3.656,2.2,10.048,10.048,0,0,1-13.781,0Z" transform="translate(-145.732 -145.694)"/>
      </g>
    </g>
  </g>
</svg>
