<svg xmlns="http://www.w3.org/2000/svg" xmlns:xlink="http://www.w3.org/1999/xlink" width="113" height="113" viewBox="0 0 113 113">
  <defs>
    <filter id="Trazado_982547" x="0" y="0" width="113" height="113" filterUnits="userSpaceOnUse">
      <feOffset dy="3" input="SourceAlpha"/>
      <feGaussianBlur stdDeviation="3" result="blur"/>
      <feFlood flood-opacity="0.161"/>
      <feComposite operator="in" in2="blur"/>
      <feComposite in="SourceGraphic"/>
    </filter>
  </defs>
  <g id="Grupo_1165523" data-name="Grupo 1165523" transform="translate(-744.645 -3257)">
    <g id="Grupo_1164306" data-name="Grupo 1164306" transform="translate(753.645 3263)">
      <g id="Grupo_1163948" data-name="Grupo 1163948" transform="translate(0)">
        <g id="Grupo_1158168" data-name="Grupo 1158168" transform="translate(0)">
          <g id="Grupo_1152576" data-name="Grupo 1152576">
            <g id="Grupo_1148633" data-name="Grupo 1148633">
              <g id="Grupo_1148525" data-name="Grupo 1148525">
                <g transform="matrix(1, 0, 0, 1, -9, -6)" filter="url(#Trazado_982547)">
                  <g id="Trazado_982547-2" data-name="Trazado 982547" transform="translate(9 6)" fill="#f2f7e5">
                    <path d="M 47.5 93.5 C 41.28937149047852 93.5 35.26533508300781 92.28397369384766 29.59518623352051 89.88570404052734 C 24.11771965026855 87.56893157958984 19.19813346862793 84.25196075439453 14.97309303283691 80.02691650390625 C 10.74804019927979 75.80186462402344 7.431066513061523 70.88229370117188 5.114293098449707 65.40481567382812 C 2.716026782989502 59.73468017578125 1.5 53.71062850952148 1.5 47.5 C 1.5 41.28937149047852 2.716026782989502 35.26533508300781 5.114293098449707 29.59518623352051 C 7.431066513061523 24.11771965026855 10.74804019927979 19.19813346862793 14.97309303283691 14.97309303283691 C 19.19813346862793 10.74804019927979 24.11771965026855 7.431066513061523 29.59518623352051 5.114293098449707 C 35.26533508300781 2.716026782989502 41.28937149047852 1.5 47.5 1.5 C 53.71062850952148 1.5 59.73468017578125 2.716026782989502 65.40481567382812 5.114293098449707 C 70.88229370117188 7.431066513061523 75.80186462402344 10.74804019927979 80.02691650390625 14.97309303283691 C 84.25196075439453 19.19813346862793 87.56893157958984 24.11771965026855 89.88570404052734 29.59518623352051 C 92.28397369384766 35.26533508300781 93.5 41.28937149047852 93.5 47.5 C 93.5 53.71062850952148 92.28397369384766 59.73468017578125 89.88570404052734 65.40481567382812 C 87.56893157958984 70.88229370117188 84.25196075439453 75.80186462402344 80.02691650390625 80.02691650390625 C 75.80186462402344 84.25196075439453 70.88229370117188 87.56893157958984 65.40481567382812 89.88570404052734 C 59.73468017578125 92.28397369384766 53.71062850952148 93.5 47.5 93.5 Z" stroke="none"/>
                    <path d="M 47.5 3 C 41.49121475219727 3 35.66376876831055 4.176155090332031 30.17950439453125 6.495796203613281 C 24.88084411621094 8.736953735351562 20.12152099609375 11.94598388671875 16.03375244140625 16.03375244140625 C 11.94598388671875 20.12152099609375 8.736953735351562 24.88084411621094 6.495796203613281 30.17950439453125 C 4.176155090332031 35.66376876831055 3 41.49121475219727 3 47.5 C 3 53.50878524780273 4.176155090332031 59.33623123168945 6.495796203613281 64.82049560546875 C 8.736953735351562 70.11915588378906 11.94598388671875 74.87847900390625 16.03375244140625 78.96624755859375 C 20.12152099609375 83.05401611328125 24.88084411621094 86.26304626464844 30.17950439453125 88.50419616699219 C 35.66376876831055 90.82384490966797 41.49121475219727 92 47.5 92 C 53.50878524780273 92 59.33623123168945 90.82384490966797 64.82049560546875 88.50419616699219 C 70.11915588378906 86.26304626464844 74.87847900390625 83.05401611328125 78.96624755859375 78.96624755859375 C 83.05401611328125 74.87847900390625 86.26304626464844 70.11915588378906 88.50419616699219 64.82049560546875 C 90.82384490966797 59.33623123168945 92 53.50878524780273 92 47.5 C 92 41.49121475219727 90.82384490966797 35.66376876831055 88.50419616699219 30.17950439453125 C 86.26304626464844 24.88084411621094 83.05401611328125 20.12152099609375 78.96624755859375 16.03375244140625 C 74.87847900390625 11.94598388671875 70.11915588378906 8.736953735351562 64.82049560546875 6.495796203613281 C 59.33623123168945 4.176155090332031 53.50878524780273 3 47.5 3 M 47.5 0 C 73.7335205078125 0 95 21.2664794921875 95 47.5 C 95 73.7335205078125 73.7335205078125 95 47.5 95 C 21.2664794921875 95 0 73.7335205078125 0 47.5 C 0 21.2664794921875 21.2664794921875 0 47.5 0 Z" stroke="none" fill="#86b60c"/>
                  </g>
                </g>
              </g>
            </g>
          </g>
        </g>
      </g>
    </g>
    <g id="strategy_2081936" transform="translate(771 3279)">
      <path id="Trazado_1000747" data-name="Trazado 1000747" d="M46,56v6H2V2H45l-.63,2.56a12.03,12.03,0,0,0-1.88.79L40.22,3.98,35.98,8.22l1.37,2.27a12.029,12.029,0,0,0-.79,1.88L34,13v6l2.56.63a12.029,12.029,0,0,0,.79,1.88l-1.37,2.27,4.24,4.24L42,26.95V50Z" fill="#e6e9ed"/>
      <path id="Trazado_1000748" data-name="Trazado 1000748" d="M12,18V6H30V18H12Z" fill="#b4dd7f"/>
      <path id="Trazado_1000749" data-name="Trazado 1000749" d="M20,46V34H38V46H20Z" fill="#b4dd7f"/>
      <path id="Trazado_1000750" data-name="Trazado 1000750" d="M18,54v4H6V50H18Z" fill="#ffeaa7"/>
      <path id="Trazado_1000751" data-name="Trazado 1000751" d="M18,26v4H6V22H18Z" fill="#ffeaa7"/>
      <path id="Trazado_1000752" data-name="Trazado 1000752" d="M54,50l-4,6H46l-4-6Z" fill="#4fc1e9"/>
      <path id="Trazado_1000753" data-name="Trazado 1000753" d="M54,26.95V42H42V26.94l.49-.29a12.029,12.029,0,0,0,1.88.79L45,30h6l.63-2.56a12.029,12.029,0,0,0,1.88-.79l.49.29Z" fill="#4fc1e9"/>
      <path id="Trazado_1000754" data-name="Trazado 1000754" d="M50,56v4l-3,2H46V56Z" fill="#aab2bd"/>
      <path id="Trazado_1000755" data-name="Trazado 1000755" d="M42,46H54v4H42Z" fill="#ff826e"/>
      <path id="Trazado_1000756" data-name="Trazado 1000756" d="M42,42H54v4H42Z" fill="#ff826e"/>
      <path id="Trazado_1000757" data-name="Trazado 1000757" d="M62,13v6l-2.56.63a12.029,12.029,0,0,1-.79,1.88l1.37,2.27L58,25.8l-2.22,2.22L54,26.95v-.01l-.49-.29a12.029,12.029,0,0,1-1.88.79L51,30H45l-.63-2.56a12.029,12.029,0,0,1-1.88-.79l-.49.29v.01l-1.78,1.07-4.24-4.24,1.37-2.27a12.029,12.029,0,0,1-.79-1.88L34,19V13l2.56-.63a12.029,12.029,0,0,1,.79-1.88L35.98,8.22l4.24-4.24,2.27,1.37a12.029,12.029,0,0,1,1.88-.79L45,2h6l.63,2.56a12.03,12.03,0,0,1,1.88.79l2.27-1.37,4.24,4.24-1.37,2.27a12.029,12.029,0,0,1,.79,1.88Zm-6,3a8,8,0,1,0-8,8A8,8,0,0,0,56,16Z" fill="#ffc729"/>
      <path id="Trazado_1000758" data-name="Trazado 1000758" d="M48,8a8,8,0,1,1-8,8A8,8,0,0,1,48,8Zm4,8a4,4,0,1,0-4,4A4,4,0,0,0,52,16Z" fill="#fcd770"/>
      <path id="Trazado_1000759" data-name="Trazado 1000759" d="M63,19.784V12.217l-2.794-.687q-.185-.5-.417-.995l1.493-2.466L55.93,2.718,53.465,4.21q-.5-.231-.995-.416L51.784,1H1V63H47.3L51,60.535V56.3l4-6V28.719l.931.564L57,28.214V34a3,3,0,0,0,6,0V30H61v4a1,1,0,0,1-2,0V26.214l2.283-2.283L59.79,21.465q.231-.495.417-1ZM43.725,3l-.195.794q-.5.184-.995.417L40.536,3ZM3,61V3H39.786L34.717,8.069l1.493,2.466q-.231.5-.417.995L33,12.216v7.567l2.794.687q.185.5.416,1l-1.492,2.466,5.351,5.351L41,28.719V50.3l4,6V61Zm43.535-6-2.667-4h8.263l-2.667,4ZM43,49V47H53v2Zm0-4V43H53v2Zm0-4V27.984c.177.074.353.156.529.222L44.216,31h7.567l.687-2.794c.177-.065.353-.147.529-.222V41Zm4,19.8V57h2v2.465ZM58.655,18.792l-.17.535a11,11,0,0,1-.722,1.727l-.259.5,1.255,2.073L55.625,26.76l-2.073-1.255-.5.258a11.008,11.008,0,0,1-1.727.722l-.535.17L50.216,29H45.783l-.576-2.345-.535-.17a11.058,11.058,0,0,1-1.728-.722l-.5-.258L40.373,26.76l-3.134-3.134,1.255-2.073-.258-.5a10.945,10.945,0,0,1-.722-1.727l-.17-.535L35,18.216V13.783l2.345-.576.17-.535a11.1,11.1,0,0,1,.722-1.727l.258-.5L37.24,8.374,40.374,5.24,42.447,6.5l.5-.258a11.008,11.008,0,0,1,1.727-.722l.535-.17L45.784,3h4.432l.576,2.345.535.17a10.945,10.945,0,0,1,1.727.722l.5.258L55.625,5.24l3.134,3.134L57.5,10.447l.259.5a11.056,11.056,0,0,1,.722,1.727l.17.535L61,13.784v4.433Z"/>
      <path id="Trazado_1000760" data-name="Trazado 1000760" d="M48,7a9,9,0,1,0,9,9A9.011,9.011,0,0,0,48,7Zm0,16a7,7,0,1,1,7-7A7.008,7.008,0,0,1,48,23Z"/>
      <path id="Trazado_1000761" data-name="Trazado 1000761" d="M48,11a5,5,0,1,0,5,5A5.006,5.006,0,0,0,48,11Zm0,8a3,3,0,1,1,3-3A3,3,0,0,1,48,19Z"/>
      <path id="Trazado_1000762" data-name="Trazado 1000762" d="M15,9H27v2H15Z"/>
      <path id="Trazado_1000763" data-name="Trazado 1000763" d="M15,13H27v2H15Z"/>
      <path id="Trazado_1000764" data-name="Trazado 1000764" d="M9,25h2v2H9Z"/>
      <path id="Trazado_1000765" data-name="Trazado 1000765" d="M13,25h2v2H13Z"/>
      <path id="Trazado_1000766" data-name="Trazado 1000766" d="M19,39H11V31h8V27h8V19h4V5H11V19H25v6H19V21H5V31H9V41H19v6h6v6H19V49H5V59H19V55h8V47H39V33H19ZM13,7H29V17H13ZM7,23H17v6H7ZM17,57H7V51H17Zm4-22H37V45H21Z"/>
      <path id="Trazado_1000767" data-name="Trazado 1000767" d="M23,37H35v2H23Z"/>
      <path id="Trazado_1000768" data-name="Trazado 1000768" d="M23,41H35v2H23Z"/>
      <path id="Trazado_1000769" data-name="Trazado 1000769" d="M9,53h2v2H9Z"/>
      <path id="Trazado_1000770" data-name="Trazado 1000770" d="M13,53h2v2H13Z"/>
      <path id="Trazado_1000771" data-name="Trazado 1000771" d="M41,57h2v2H41Z"/>
      <path id="Trazado_1000772" data-name="Trazado 1000772" d="M37,57h2v2H37Z"/>
      <path id="Trazado_1000773" data-name="Trazado 1000773" d="M33,57h2v2H33Z"/>
    </g>
  </g>
</svg>
