<svg xmlns="http://www.w3.org/2000/svg" xmlns:xlink="http://www.w3.org/1999/xlink" width="113" height="113" viewBox="0 0 113 113">
  <defs>
    <filter id="Trazado_982547" x="0" y="0" width="113" height="113" filterUnits="userSpaceOnUse">
      <feOffset dy="3" input="SourceAlpha"/>
      <feGaussianBlur stdDeviation="3" result="blur"/>
      <feFlood flood-opacity="0.161"/>
      <feComposite operator="in" in2="blur"/>
      <feComposite in="SourceGraphic"/>
    </filter>
  </defs>
  <g id="Grupo_1165526" data-name="Grupo 1165526" transform="translate(-1164.895 -3257)">
    <g id="Grupo_1164307" data-name="Grupo 1164307" transform="translate(1173.895 3263)">
      <g id="Grupo_1163948" data-name="Grupo 1163948" transform="translate(0)">
        <g id="Grupo_1158168" data-name="Grupo 1158168" transform="translate(0)">
          <g id="Grupo_1152576" data-name="Grupo 1152576">
            <g id="Grupo_1148633" data-name="Grupo 1148633">
              <g id="Grupo_1148525" data-name="Grupo 1148525">
                <g transform="matrix(1, 0, 0, 1, -9, -6)" filter="url(#Trazado_982547)">
                  <g id="Trazado_982547-2" data-name="Trazado 982547" transform="translate(9 6)" fill="#f2f7e5">
                    <path d="M 47.5 93.5 C 41.28937149047852 93.5 35.26533508300781 92.28397369384766 29.59518623352051 89.88570404052734 C 24.11771965026855 87.56893157958984 19.19813346862793 84.25196075439453 14.97309303283691 80.02691650390625 C 10.74804019927979 75.80186462402344 7.431066513061523 70.88229370117188 5.114293098449707 65.40481567382812 C 2.716026782989502 59.73468017578125 1.5 53.71062850952148 1.5 47.5 C 1.5 41.28937149047852 2.716026782989502 35.26533508300781 5.114293098449707 29.59518623352051 C 7.431066513061523 24.11771965026855 10.74804019927979 19.19813346862793 14.97309303283691 14.97309303283691 C 19.19813346862793 10.74804019927979 24.11771965026855 7.431066513061523 29.59518623352051 5.114293098449707 C 35.26533508300781 2.716026782989502 41.28937149047852 1.5 47.5 1.5 C 53.71062850952148 1.5 59.73468017578125 2.716026782989502 65.40481567382812 5.114293098449707 C 70.88229370117188 7.431066513061523 75.80186462402344 10.74804019927979 80.02691650390625 14.97309303283691 C 84.25196075439453 19.19813346862793 87.56893157958984 24.11771965026855 89.88570404052734 29.59518623352051 C 92.28397369384766 35.26533508300781 93.5 41.28937149047852 93.5 47.5 C 93.5 53.71062850952148 92.28397369384766 59.73468017578125 89.88570404052734 65.40481567382812 C 87.56893157958984 70.88229370117188 84.25196075439453 75.80186462402344 80.02691650390625 80.02691650390625 C 75.80186462402344 84.25196075439453 70.88229370117188 87.56893157958984 65.40481567382812 89.88570404052734 C 59.73468017578125 92.28397369384766 53.71062850952148 93.5 47.5 93.5 Z" stroke="none"/>
                    <path d="M 47.5 3 C 41.49121475219727 3 35.66376876831055 4.176155090332031 30.17950439453125 6.495796203613281 C 24.88084411621094 8.736953735351562 20.12152099609375 11.94598388671875 16.03375244140625 16.03375244140625 C 11.94598388671875 20.12152099609375 8.736953735351562 24.88084411621094 6.495796203613281 30.17950439453125 C 4.176155090332031 35.66376876831055 3 41.49121475219727 3 47.5 C 3 53.50878524780273 4.176155090332031 59.33623123168945 6.495796203613281 64.82049560546875 C 8.736953735351562 70.11915588378906 11.94598388671875 74.87847900390625 16.03375244140625 78.96624755859375 C 20.12152099609375 83.05401611328125 24.88084411621094 86.26304626464844 30.17950439453125 88.50419616699219 C 35.66376876831055 90.82384490966797 41.49121475219727 92 47.5 92 C 53.50878524780273 92 59.33623123168945 90.82384490966797 64.82049560546875 88.50419616699219 C 70.11915588378906 86.26304626464844 74.87847900390625 83.05401611328125 78.96624755859375 78.96624755859375 C 83.05401611328125 74.87847900390625 86.26304626464844 70.11915588378906 88.50419616699219 64.82049560546875 C 90.82384490966797 59.33623123168945 92 53.50878524780273 92 47.5 C 92 41.49121475219727 90.82384490966797 35.66376876831055 88.50419616699219 30.17950439453125 C 86.26304626464844 24.88084411621094 83.05401611328125 20.12152099609375 78.96624755859375 16.03375244140625 C 74.87847900390625 11.94598388671875 70.11915588378906 8.736953735351562 64.82049560546875 6.495796203613281 C 59.33623123168945 4.176155090332031 53.50878524780273 3 47.5 3 M 47.5 0 C 73.7335205078125 0 95 21.2664794921875 95 47.5 C 95 73.7335205078125 73.7335205078125 95 47.5 95 C 21.2664794921875 95 0 73.7335205078125 0 47.5 C 0 21.2664794921875 21.2664794921875 0 47.5 0 Z" stroke="none" fill="#86b60c"/>
                  </g>
                </g>
              </g>
            </g>
          </g>
        </g>
      </g>
    </g>
    <g id="natural-resources_18132737" transform="translate(1190.541 3279.798)">
      <g id="Grupo_1165524" data-name="Grupo 1165524" transform="translate(0.938 3.447)">
        <path id="Trazado_1000774" data-name="Trazado 1000774" d="M190.65,44.393a7.015,7.015,0,0,1,7.318,8.032c-2.03.108-4.7.447-5.564-2.28C191.742,47.617,192.151,46.233,190.65,44.393Z" transform="translate(-169.627 -40.485)" fill="#70da40" fill-rule="evenodd"/>
        <path id="Trazado_1000775" data-name="Trazado 1000775" d="M302.63,10.52a8.362,8.362,0,0,1-8.822,9.491c-.329-2.4-.994-5.539,2.159-6.837,2.935-1.039,4.624-.688,6.663-2.654Z" transform="translate(-260.652 -10.52)" fill="#70da40" fill-rule="evenodd"/>
        <path id="Trazado_1000776" data-name="Trazado 1000776" d="M173.809,173.87a16.179,16.179,0,0,1-32.359,0Z" transform="translate(-126.09 -155.069)" fill="#0593fc" fill-rule="evenodd"/>
        <path id="Trazado_1000777" data-name="Trazado 1000777" d="M160.161,214.3a16.249,16.249,0,0,1-7.321-7.923c3.623-4.022,3.958-3.052,8.978-2.385,7.321.646,4.972,4.893.472,7.775A5.235,5.235,0,0,0,160.161,214.3Z" transform="translate(-136.169 -181.183)" fill="#70da40" fill-rule="evenodd"/>
        <path id="Trazado_1000778" data-name="Trazado 1000778" d="M300.752,173.87a16.137,16.137,0,0,1-5.365,12.034,37.952,37.952,0,0,1-1.83-7.654c-1.457-1.137-2.014-.11-3.126.307-1.168.434-5.766-2.6-5.517-4.687Z" transform="translate(-253.033 -155.069)" fill="#70da40" fill-rule="evenodd"/>
        <path id="Trazado_1000779" data-name="Trazado 1000779" d="M404.816,28.49C419.52,43.421,390.113,43.421,404.816,28.49Z" transform="translate(-355.387 -26.422)" fill="#8bd7fa" fill-rule="evenodd"/>
        <path id="Trazado_1000780" data-name="Trazado 1000780" d="M438.817,53.91c3.522,5.057,1.162,7.8-1.694,8.215a4.034,4.034,0,0,1-.8-1.6C435.748,58.166,437.233,55.737,438.817,53.91Z" transform="translate(-386.914 -48.916)" fill="#7dc2e1" fill-rule="evenodd"/>
        <path id="Trazado_1000781" data-name="Trazado 1000781" d="M453.309,54.84C464.032,65.728,442.589,65.728,453.309,54.84Z" transform="translate(-399.317 -49.739)" fill="#8bd7fa" fill-rule="evenodd"/>
        <path id="Trazado_1000782" data-name="Trazado 1000782" d="M354.753,191.438l.437-17.339a2.618,2.618,0,1,0-5.235-.132l-.228,8.956a2.624,2.624,0,0,0-2.774.468q-3.506,3.173-7.018,6.35a8.607,8.607,0,0,0-2.924,6.372l-.262,10.517,11.106.275.1-3.92a6.242,6.242,0,0,1,2.119-4.614l2.566-2.318A6.24,6.24,0,0,0,354.753,191.438Z" transform="translate(-298.911 -152.895)" fill="#fbbd80" fill-rule="evenodd"/>
        <path id="Trazado_1000783" data-name="Trazado 1000783" d="M336.835,447.64l-.085,3.423,11.106.275.094-3.7Z" transform="translate(-298.911 -397.328)" fill="#e2aa73" fill-rule="evenodd"/>
        <path id="Trazado_1000784" data-name="Trazado 1000784" d="M328.949,455.51H313.621a.685.685,0,0,0-.681.684v3.924a.685.685,0,0,0,.681.684h15.328a.687.687,0,0,0,.684-.684v-3.924A.686.686,0,0,0,328.949,455.51Z" transform="translate(-277.842 -404.292)" fill="#0593fc" fill-rule="evenodd"/>
        <path id="Trazado_1000785" data-name="Trazado 1000785" d="M67.51,191.438,67.073,174.1a2.618,2.618,0,1,1,5.235-.132l.224,8.956a2.623,2.623,0,0,1,2.774.468q3.51,3.173,7.018,6.35a8.6,8.6,0,0,1,2.924,6.372l.266,10.517L74.4,206.9l-.1-3.92a6.23,6.23,0,0,0-2.116-4.614l-2.566-2.318A6.227,6.227,0,0,1,67.51,191.438Z" transform="translate(-60.273 -152.895)" fill="#fbbd80" fill-rule="evenodd"/>
        <path id="Trazado_1000786" data-name="Trazado 1000786" d="M141.1,447.64l.085,3.423-11.108.275-.092-3.7Z" transform="translate(-115.94 -397.328)" fill="#e2aa73" fill-rule="evenodd"/>
        <path id="Trazado_1000787" data-name="Trazado 1000787" d="M106.754,455.51h15.324a.685.685,0,0,1,.684.684v3.924a.685.685,0,0,1-.684.684H106.754a.685.685,0,0,1-.684-.684v-3.924A.684.684,0,0,1,106.754,455.51Z" transform="translate(-94.782 -404.292)" fill="#0593fc" fill-rule="evenodd"/>
        <path id="Trazado_1000788" data-name="Trazado 1000788" d="M21.814,46.637a4.081,4.081,0,0,0,0-8.162,4.164,4.164,0,0,0-.9.1,4.085,4.085,0,0,0-3.638-2.233h-.665a4.077,4.077,0,0,0-3.638,2.233,4.18,4.18,0,0,0-.9-.1,4.081,4.081,0,0,0,0,8.162Z" transform="translate(-8 -33.368)" fill="#edf6ff" fill-rule="evenodd"/>
        <path id="Trazado_1000789" data-name="Trazado 1000789" d="M144.934,178.136a16.192,16.192,0,0,1-.567-4.266H141.45a16.18,16.18,0,0,0,16.179,16.179c.49,0,.978-.022,1.457-.067a16.074,16.074,0,0,1-8.215-3.145,8.33,8.33,0,0,0-.788,1.346,16.249,16.249,0,0,1-7.321-7.923A17.334,17.334,0,0,1,144.934,178.136Z" transform="translate(-126.09 -155.069)" fill="#0584e3" fill-rule="evenodd"/>
        <path id="Trazado_1000790" data-name="Trazado 1000790" d="M155.022,210.93a17.248,17.248,0,0,0-2.172,2.125,16.249,16.249,0,0,0,7.321,7.923,8.416,8.416,0,0,1,.788-1.345A16.19,16.19,0,0,1,155.022,210.93Z" transform="translate(-136.178 -187.863)" fill="#65c43a" fill-rule="evenodd"/>
        <path id="Trazado_1000791" data-name="Trazado 1000791" d="M193.4,50.144c-.662-2.517-.253-3.9-1.739-5.732a6.7,6.7,0,0,0-1.02-.018c1.5,1.84,1.092,3.224,1.754,5.751.707,2.226,2.618,2.41,4.4,2.343A3.305,3.305,0,0,1,193.4,50.144Z" transform="translate(-169.618 -40.485)" fill="#65c43a" fill-rule="evenodd"/>
        <path id="Trazado_1000792" data-name="Trazado 1000792" d="M295.954,13.183c-2.772,1.141-2.6,3.7-2.287,5.929a.909.909,0,0,1,.608.127.921.921,0,0,1,.437.792c.041,0,.079-.006.121-.006a.118.118,0,0,0-.035,0c-.329-2.4-.994-5.539,2.159-6.837,2.479-.877,4.066-.763,5.728-1.888-.013-.257-.035-.51-.07-.767-2.038,1.965-3.727,1.614-6.662,2.653Z" transform="translate(-260.64 -10.529)" fill="#65c43a" fill-rule="evenodd"/>
        <path id="Trazado_1000793" data-name="Trazado 1000793" d="M405.365,39.663c-3.383-.336-6.3-3.873,0-10.612-.174-.186-.351-.371-.539-.561C397.118,36.321,401.536,40.045,405.365,39.663Z" transform="translate(-355.397 -26.422)" fill="#7dc2e1" fill-rule="evenodd"/>
      </g>
      <g id="Grupo_1165525" data-name="Grupo 1165525" transform="translate(0.02 2.527)">
        <path id="Trazado_1000794" data-name="Trazado 1000794" d="M28.234,53.744h-1.22l-.18-7.1a9.495,9.495,0,0,0-3.225-7.03l-3.568-3.227-3.45-3.12a3.524,3.524,0,0,0-2.5-.913l-.2-7.858a3.539,3.539,0,0,0-7.076.182l.437,17.337a7.105,7.105,0,0,0,2.417,5.273L12.235,49.6a5.334,5.334,0,0,1,1.815,3.956l0,.185H12.908a1.6,1.6,0,0,0-1.6,1.6v3.925a1.606,1.606,0,0,0,1.6,1.606H28.232a1.608,1.608,0,0,0,1.606-1.606V55.346a1.6,1.6,0,0,0-1.6-1.6Zm-12.342-.231a7.108,7.108,0,0,0-2.421-5.273l-2.564-2.319A5.331,5.331,0,0,1,9.1,41.966L8.658,24.629a1.7,1.7,0,1,1,3.4-.087l.211,8.39a3.583,3.583,0,0,0-.674.578,3.543,3.543,0,0,0,.25,5l2.938,2.66q1.509,1.364,3.016,2.73a.92.92,0,1,0,1.235-1.363q-1.507-1.367-3.017-2.731l-2.937-2.659a1.694,1.694,0,0,1,.451-2.812l.058-.023a1.7,1.7,0,0,1,1.771.317l3.451,3.121,3.567,3.227A7.713,7.713,0,0,1,25,46.689l.178,7.057H15.9ZM28,59.036H13.148V55.585H28ZM54.688,21.046a3.539,3.539,0,0,0-3.624,3.447l-.2,7.857a3.5,3.5,0,0,0-2.5.91l-3.422,3.1-3.6,3.254a9.486,9.486,0,0,0-3.225,7.03l-.18,7.1h-1.22a1.606,1.606,0,0,0-1.606,1.6v3.925a1.608,1.608,0,0,0,1.606,1.606H52.046a1.608,1.608,0,0,0,1.606-1.606V55.344a1.606,1.606,0,0,0-1.606-1.6H50.9l0-.185A5.333,5.333,0,0,1,52.718,49.6l2.566-2.32A7.1,7.1,0,0,0,57.7,42.011l.437-17.336a3.542,3.542,0,0,0-3.448-3.629ZM51.811,59.036H36.955V55.585H51.81v3.452Zm4.049-17.07a5.33,5.33,0,0,1-1.812,3.954l-2.566,2.32a7.111,7.111,0,0,0-2.419,5.272l-.006.232H39.782l.178-7.057a7.713,7.713,0,0,1,2.621-5.714q1.8-1.628,3.6-3.253l3.423-3.1a1.676,1.676,0,0,1,1.222-.434,1.722,1.722,0,0,1,.549.12l.033.014a1.666,1.666,0,0,1,.6.42,1.707,1.707,0,0,1-.121,2.4q-1.474,1.336-2.95,2.67l-3.005,2.72A.92.92,0,1,0,47.159,43.9q1.5-1.36,3-2.719,1.476-1.335,2.949-2.67a3.547,3.547,0,0,0,.252-5,3.572,3.572,0,0,0-.674-.579l.214-8.39a1.7,1.7,0,0,1,1.739-1.655A1.7,1.7,0,0,1,56.3,24.626ZM43.975,34.894a17.059,17.059,0,0,0,5.6-12.647.919.919,0,0,0-.92-.92H32.867a14.92,14.92,0,0,1,1.744-7.454h.032A9.282,9.282,0,0,0,43.828,3.323a.92.92,0,0,0-1.55-.538A6.565,6.565,0,0,1,38.6,4.5a23.109,23.109,0,0,0-2.654.733l-.046.017c-3.621,1.5-3.115,5.033-2.778,7.374.006.043.012.084.018.127a15.335,15.335,0,0,0-1.7,4.426,17.89,17.89,0,0,0-1.206-2.027,7.93,7.93,0,0,0-8.318-8.711.92.92,0,0,0-.664,1.5,5.383,5.383,0,0,1,1.142,3.115,19.461,19.461,0,0,0,.433,2.289c0,.015.008.03.014.046.822,2.582,2.929,2.993,4.775,2.993.421,0,.826-.022,1.2-.044a13.382,13.382,0,0,1,2.14,4.993H16.3a.92.92,0,0,0-.92.92,17.006,17.006,0,0,0,1.367,6.7,1.082,1.082,0,0,0,.049.113,17.21,17.21,0,0,0,7.621,8.265.9.9,0,0,0,.121.071c.02.009.04.017.061.025a17.07,17.07,0,0,0,19.226-2.388.982.982,0,0,0,.153-.138ZM36.58,6.956a21.41,21.41,0,0,1,2.431-.666,10.47,10.47,0,0,0,3.035-1.034,7.441,7.441,0,0,1-7.15,6.771C34.553,9.522,34.552,7.806,36.58,6.956ZM24.6,12.847a17.591,17.591,0,0,1-.386-2.059,9.713,9.713,0,0,0-.552-2.383,6.1,6.1,0,0,1,4.771,6.1c-2.025.1-3.306-.04-3.833-1.663ZM43.706,32.572a35.083,35.083,0,0,1-1.327-6.055.919.919,0,0,0-.348-.613,2.6,2.6,0,0,0-3.386-.16,4.33,4.33,0,0,1-.593.312h-.01a7.308,7.308,0,0,1-3.386-2.089,4.872,4.872,0,0,1-.642-.8h13.7A15.2,15.2,0,0,1,43.706,32.572ZM18.7,28.808c2.327-2.526,2.814-2.447,5.6-1.977.62.1,1.322.223,2.165.335l.04,0c2.241.2,3.637.765,3.832,1.557.222.9-.993,2.737-3.743,4.506a5.366,5.366,0,0,0-2.028,2.058A15.378,15.378,0,0,1,18.7,28.808Zm7.5,7.344a3.419,3.419,0,0,1,1.289-1.31c.023-.013.046-.025.068-.039,3.338-2.137,5.046-4.573,4.569-6.515-.411-1.672-2.24-2.665-5.437-2.95-.8-.107-1.481-.221-2.082-.322-3.031-.511-4.184-.569-6.653,1.916a15.1,15.1,0,0,1-.709-3.766H32a6.785,6.785,0,0,0,2.37,3.008c.405.318,2.273,1.72,3.694,1.718a1.674,1.674,0,0,0,.593-.1,5.7,5.7,0,0,0,.924-.466c.51-.3.672-.4,1.022-.184a38.454,38.454,0,0,0,1.619,6.839A15.233,15.233,0,0,1,26.2,36.152Zm24.18-18.511a5.93,5.93,0,0,0,2.435-.516,4.582,4.582,0,0,0,2.118.505,4.28,4.28,0,0,0,3.013-1.156,3.658,3.658,0,0,0,.864-3.59A11.475,11.475,0,0,0,55.589,7.9a.92.92,0,0,0-1.312,0c-.139.142-.273.281-.4.421a22.886,22.886,0,0,0-2.85-3.455.92.92,0,0,0-1.312,0,16.151,16.151,0,0,0-4.233,6.322,4.827,4.827,0,0,0,.635,4.546,5.4,5.4,0,0,0,4.266,1.906Zm6.268-2.47a2.677,2.677,0,0,1-3.43,0c-1-.991-.336-2.975,1.715-5.28,2.051,2.3,2.712,4.289,1.715,5.28ZM50.369,6.847A18.021,18.021,0,0,1,52.628,9.8a8.728,8.728,0,0,0-1.572,3.085,3.9,3.9,0,0,0,.277,2.806,3.838,3.838,0,0,1-3.766-1.085C46.31,12.992,47.359,10.126,50.369,6.847ZM14.812,17.633a5.013,5.013,0,0,0-.076-10.026,5.128,5.128,0,0,0-.979.094,5.013,5.013,0,0,0-8.3-.077c-.142-.012-.283-.017-.427-.017a5.013,5.013,0,0,0,0,10.026h9.781ZM5.03,15.793a3.173,3.173,0,0,1-.388-6.321,5.729,5.729,0,0,0-.076,1.006.92.92,0,1,0,1.839,0,2.309,2.309,0,0,1,.321-1.394l.009-.017c0-.009.01-.017.015-.026a3.174,3.174,0,0,1,5.719.121l.01.021.009.02a2.383,2.383,0,0,1,.266,1.275.92.92,0,1,0,1.839,0,5.436,5.436,0,0,0-.083-1.021c.074,0,.148-.009.223-.009a3.173,3.173,0,0,1,.055,6.345H5.03Z" transform="translate(-0.02 -2.527)"/>
      </g>
    </g>
  </g>
</svg>
