<svg xmlns="http://www.w3.org/2000/svg" xmlns:xlink="http://www.w3.org/1999/xlink" width="110" height="110" viewBox="0 0 110 110">
  <defs>
    <filter id="Trazado_982547" x="0" y="0" width="110" height="110" filterUnits="userSpaceOnUse">
      <feOffset dy="3" input="SourceAlpha"/>
      <feGaussianBlur stdDeviation="3" result="blur"/>
      <feFlood flood-opacity="0.161"/>
      <feComposite operator="in" in2="blur"/>
      <feComposite in="SourceGraphic"/>
    </filter>
  </defs>
  <g id="Grupo_1166922" data-name="Grupo 1166922" transform="translate(-192 -804)">
    <g id="Grupo_1166722" data-name="Grupo 1166722" transform="translate(-608.5 -1246.665)">
      <g id="Grupo_1164284" data-name="Grupo 1164284" transform="translate(0.5 -1745.335)">
        <g id="Grupo_1159364" data-name="Grupo 1159364" transform="translate(0 -542)">
          <g id="Grupo_1157015" data-name="Grupo 1157015" transform="translate(0 3549)">
            <g id="Grupo_1155792" data-name="Grupo 1155792" transform="translate(-1 -3894.666)">
              <g id="Grupo_1154703" data-name="Grupo 1154703" transform="translate(0 1465.666)">
                <g id="Grupo_1150789" data-name="Grupo 1150789" transform="translate(3 2320)">
                  <g id="Grupo_1154212" data-name="Grupo 1154212" transform="translate(-236 -5809)">
                    <g id="Grupo_1152583" data-name="Grupo 1152583" transform="translate(1043 6713)">
                      <g id="Grupo_1146973" data-name="Grupo 1146973" transform="translate(0 0)">
                        <g id="Grupo_1146954" data-name="Grupo 1146954">
                          <g transform="matrix(1, 0, 0, 1, -9, -6)" filter="url(#Trazado_982547)">
                            <g id="Trazado_982547-2" data-name="Trazado 982547" transform="translate(9 6)" fill="#fff4e6">
                              <path d="M 46 90.49987030029297 C 39.99187850952148 90.49987030029297 34.16426849365234 89.32350921630859 28.67905426025391 87.00345611572266 C 23.38019943237305 84.76224517822266 18.62104034423828 81.55341339111328 14.53374671936035 77.46613311767578 C 10.44646644592285 73.37885284423828 7.237639904022217 68.61969757080078 4.996413230895996 63.32085418701172 C 2.676359891891479 57.83565521240234 1.5 52.008056640625 1.5 45.99993515014648 C 1.5 39.99181365966797 2.676359891891479 34.16421508789062 4.996413230895996 28.67901420593262 C 7.237639904022217 23.38017463684082 10.44646644592285 18.62101554870605 14.53374671936035 14.53373527526855 C 18.62104034423828 10.44645500183105 23.38019943237305 7.23762845993042 28.67905426025391 4.996415138244629 C 34.16426849365234 2.676361799240112 39.99187850952148 1.500001788139343 46 1.500001788139343 C 52.00812149047852 1.500001788139343 57.83573150634766 2.676361799240112 63.32094573974609 4.996415138244629 C 68.61979675292969 7.23762845993042 73.37895965576172 10.44645500183105 77.46625518798828 14.53373527526855 C 81.55353546142578 18.62101554870605 84.76235961914062 23.38017463684082 87.00358581542969 28.67901420593262 C 89.32363891601562 34.16421508789062 90.5 39.99181365966797 90.5 45.99993515014648 C 90.5 52.008056640625 89.32363891601562 57.83565521240234 87.00358581542969 63.32085418701172 C 84.76235961914062 68.61969757080078 81.55353546142578 73.37885284423828 77.46625518798828 77.46613311767578 C 73.37895965576172 81.55341339111328 68.61979675292969 84.76224517822266 63.32094573974609 87.00345611572266 C 57.83573150634766 89.32350921630859 52.00812149047852 90.49987030029297 46 90.49987030029297 Z" stroke="none"/>
                              <path d="M 46 2.999992370605469 C 40.1937141418457 2.999992370605469 34.56269836425781 4.136489868164062 29.26337051391602 6.377906799316406 C 24.14332580566406 8.543502807617188 19.54441070556641 11.64437866210938 15.59439849853516 15.59437561035156 C 11.64440155029297 19.54439544677734 8.54351806640625 24.14329528808594 6.377914428710938 29.26333618164062 C 4.136497497558594 34.56264877319336 3 40.19366455078125 3 45.99993515014648 C 3 51.80620574951172 4.136497497558594 57.43720626831055 6.377914428710938 62.73651885986328 C 8.54351806640625 67.8565673828125 11.64440155029297 72.45545959472656 15.59439849853516 76.40547943115234 C 19.54441070556641 80.35547637939453 24.14332580566406 83.45635223388672 29.26337051391602 85.6219482421875 C 34.56269836425781 87.86336517333984 40.1937141418457 88.99986267089844 46 88.99986267089844 C 51.8062858581543 88.99986267089844 57.43730163574219 87.86336517333984 62.73661422729492 85.6219482421875 C 67.85667419433594 83.45635223388672 72.45557403564453 80.35547637939453 76.40558624267578 76.40547943115234 C 80.35559844970703 72.45545959472656 83.45647430419922 67.8565673828125 85.6220703125 62.73651885986328 C 87.86350250244141 57.43720626831055 89 51.80620574951172 89 45.99993515014648 C 89 40.19366455078125 87.86350250244141 34.56264877319336 85.6220703125 29.26333618164062 C 83.45647430419922 24.14329528808594 80.35559844970703 19.54439544677734 76.40558624267578 15.59437561035156 C 72.45557403564453 11.64437866210938 67.85667419433594 8.543502807617188 62.73661422729492 6.377906799316406 C 57.43730163574219 4.136489868164062 51.8062858581543 2.999992370605469 46 2.999992370605469 M 46 -7.62939453125e-06 C 71.40509033203125 -7.62939453125e-06 92 20.59486389160156 92 45.99993515014648 C 92 71.40499114990234 71.40509033203125 91.99986267089844 46 91.99986267089844 C 20.59490203857422 91.99986267089844 0 71.40499114990234 0 45.99993515014648 C 0 20.59486389160156 20.59490203857422 -7.62939453125e-06 46 -7.62939453125e-06 Z" stroke="none" fill="#ff9d1c"/>
                            </g>
                          </g>
                        </g>
                      </g>
                    </g>
                  </g>
                </g>
              </g>
            </g>
          </g>
        </g>
      </g>
    </g>
    <g id="hogar-sostenible" transform="translate(215.143 823.987)">
      <g id="Grupo_1166920" data-name="Grupo 1166920">
        <g id="Grupo_1166907" data-name="Grupo 1166907">
          <path id="Trazado_1003595" data-name="Trazado 1003595" d="M56,36H2A29.276,29.276,0,0,0,6.42,48a30.369,30.369,0,0,0,51.16,0A29.276,29.276,0,0,0,62,36Z" fill="#69d6f4"/>
        </g>
        <g id="Grupo_1166908" data-name="Grupo 1166908">
          <path id="Trazado_1003596" data-name="Trazado 1003596" d="M45,18H19l-5,8H50Z" fill="#ff826e"/>
        </g>
        <g id="Grupo_1166909" data-name="Grupo 1166909">
          <path id="Trazado_1003597" data-name="Trazado 1003597" d="M43.03,8.29a2,2,0,1,1-2.06,3.42L40,11.13l-8-4.8-8,4.8-.97.58A1.98,1.98,0,0,1,22,12a2,2,0,0,1-1.03-3.71l9.18-5.76a3.494,3.494,0,0,1,3.7,0Z" fill="#fcd770"/>
        </g>
        <g id="Grupo_1166910" data-name="Grupo 1166910">
          <path id="Trazado_1003598" data-name="Trazado 1003598" d="M32,6.33l-8,4.8V20H40V11.13Z" fill="#e6e9ed"/>
        </g>
        <g id="Grupo_1166911" data-name="Grupo 1166911">
          <path id="Trazado_1003599" data-name="Trazado 1003599" d="M30,14h4v6H30Z" fill="#b27946"/>
        </g>
        <g id="Grupo_1166912" data-name="Grupo 1166912">
          <path id="Trazado_1003600" data-name="Trazado 1003600" d="M17,26H47V36H17Z" fill="#e6e9ed"/>
        </g>
        <g id="Grupo_1166913" data-name="Grupo 1166913">
          <path id="Trazado_1003601" data-name="Trazado 1003601" d="M25,30v6H21V30Z" fill="#aab2bd"/>
        </g>
        <g id="Grupo_1166914" data-name="Grupo 1166914">
          <path id="Trazado_1003602" data-name="Trazado 1003602" d="M29,30h6v6H29Z" fill="#aab2bd"/>
        </g>
        <g id="Grupo_1166915" data-name="Grupo 1166915">
          <path id="Trazado_1003603" data-name="Trazado 1003603" d="M43,30v6H39V30Z" fill="#aab2bd"/>
        </g>
        <g id="Grupo_1166916" data-name="Grupo 1166916">
          <ellipse id="Elipse_11748" data-name="Elipse 11748" cx="6" cy="8" rx="6" ry="8" transform="translate(2 6)" fill="#b4dd7f"/>
        </g>
        <g id="Grupo_1166917" data-name="Grupo 1166917">
          <ellipse id="Elipse_11749" data-name="Elipse 11749" cx="6" cy="8" rx="6" ry="8" transform="translate(50 6)" fill="#b4dd7f"/>
        </g>
        <g id="Grupo_1166918" data-name="Grupo 1166918">
          <path id="Trazado_1003604" data-name="Trazado 1003604" d="M8,30H6a3.995,3.995,0,0,1-4-4H4a3.995,3.995,0,0,1,4,4Z" fill="#a0d468"/>
        </g>
        <g id="Grupo_1166919" data-name="Grupo 1166919">
          <path id="Trazado_1003605" data-name="Trazado 1003605" d="M60,26h2a3.995,3.995,0,0,1-4,4H56a3.995,3.995,0,0,1,4-4Z" fill="#a0d468"/>
        </g>
      </g>
      <g id="Grupo_1166921" data-name="Grupo 1166921">
        <path id="Trazado_1003606" data-name="Trazado 1003606" d="M32,39h2v2H32Z"/>
        <path id="Trazado_1003607" data-name="Trazado 1003607" d="M28,39h2v2H28Z"/>
        <path id="Trazado_1003608" data-name="Trazado 1003608" d="M24,39h2v2H24Z"/>
        <path id="Trazado_1003609" data-name="Trazado 1003609" d="M57,35V31h1a5.006,5.006,0,0,0,5-5V25H60a4.948,4.948,0,0,0-3,1.026V22.9c3.386-.627,6-4.372,6-8.9,0-4.963-3.141-9-7-9s-7,4.037-7,9c0,4.525,2.614,8.27,6,8.9V35H48V27h3.805l-6.25-10H41V12.806a2.988,2.988,0,0,0,2.56-5.368L34.38,1.685a4.551,4.551,0,0,0-4.759,0L20.455,7.428A3,3,0,0,0,22,13a2.972,2.972,0,0,0,1-.195V17H18.445l-6.25,10H16v8H9V22.9c3.386-.627,6-4.372,6-8.9,0-4.963-3.141-9-7-9S1,9.037,1,14c0,4.525,2.614,8.27,6,8.9v3.128A4.954,4.954,0,0,0,4,25H1v1a5.006,5.006,0,0,0,5,5H7v4H.857l.151,1.132a31.308,31.308,0,0,0,61.983,0L63.143,35Zm3-8h.829A3.006,3.006,0,0,1,58,29h-.829A3.006,3.006,0,0,1,60,27ZM51,14c0-3.859,2.243-7,5-7s5,3.141,5,7c0,3.38-1.721,6.208-4,6.859V11H55v9.859c-2.279-.651-4-3.479-4-6.859ZM6,29a3.006,3.006,0,0,1-2.829-2H4a3.006,3.006,0,0,1,2.829,2ZM3,14c0-3.859,2.243-7,5-7s5,3.141,5,7c0,3.38-1.721,6.208-4,6.859V11H7v9.859C4.721,20.208,3,17.38,3,14Zm30,5H31V15h2Zm-4-6v6H25V11.7l7-4.2,7,4.2V19H35V13Zm-7.858-2.485A1.006,1.006,0,0,1,21.5,9.133l9.184-5.755a2.518,2.518,0,0,1,2.632,0l9.2,5.764a1,1,0,0,1,.343,1.372,1.028,1.028,0,0,1-1.372.343L32,5.166l-9.486,5.691a1.026,1.026,0,0,1-1.372-.342ZM19.555,19H23v2H41V19h3.445l3.75,6H15.805ZM18,27H46v8H44V29H38v6H36V29H28v6H26V29H20v6H18ZM32,61c-3.2,0-6.172-4.754-8.031-12H40.031C38.172,56.246,35.2,61,32,61ZM23.5,47A67.957,67.957,0,0,1,22.16,37H41.84A68.227,68.227,0,0,1,40.5,47ZM24,35H22V31h2Zm10,0H30V31h4Zm8,0H40V31h2ZM20.157,37a69.714,69.714,0,0,0,1.3,10H6.955a28.467,28.467,0,0,1-3.79-10ZM8.3,49H21.911c1.294,5.193,3.17,9.239,5.4,11.618A29.442,29.442,0,0,1,8.3,49ZM36.692,60.618c2.227-2.379,4.1-6.425,5.4-11.618H55.7a29.442,29.442,0,0,1-19.01,11.618ZM57.045,47h-14.5a69.856,69.856,0,0,0,1.3-10H60.836A28.488,28.488,0,0,1,57.045,47Z"/>
        <path id="Trazado_1003610" data-name="Trazado 1003610" d="M47.777,51.514l1.238,1.57c.536-.423,1.067-.877,1.579-1.349l-1.355-1.471c-.474.438-.966.858-1.462,1.25Z"/>
        <path id="Trazado_1003611" data-name="Trazado 1003611" d="M41.114,55.313l.717,1.867c.645-.247,1.287-.522,1.908-.817l-.857-1.807C42.307,54.829,41.712,55.083,41.114,55.313Z"/>
        <path id="Trazado_1003612" data-name="Trazado 1003612" d="M44.589,53.667l.992,1.736c.6-.339,1.188-.707,1.762-1.1L46.224,52.65c-.533.36-1.083.7-1.635,1.017Z"/>
      </g>
    </g>
  </g>
</svg>
