<svg xmlns="http://www.w3.org/2000/svg" xmlns:xlink="http://www.w3.org/1999/xlink" width="113" height="113" viewBox="0 0 113 113">
  <defs>
    <filter id="Trazado_982547" x="0" y="0" width="113" height="113" filterUnits="userSpaceOnUse">
      <feOffset dy="3" input="SourceAlpha"/>
      <feGaussianBlur stdDeviation="3" result="blur"/>
      <feFlood flood-opacity="0.161"/>
      <feComposite operator="in" in2="blur"/>
      <feComposite in="SourceGraphic"/>
    </filter>
    <clipPath id="clip-path">
      <path id="path12048" d="M0-682.665H56.962V-625.7H0Z" transform="translate(0 682.665)"/>
    </clipPath>
  </defs>
  <g id="Grupo_1165457" data-name="Grupo 1165457" transform="translate(-272 -1027)">
    <g id="Grupo_1164237" data-name="Grupo 1164237" transform="translate(0 -80)">
      <g id="Grupo_1163948" data-name="Grupo 1163948" transform="translate(0 -1371)">
        <g id="Grupo_1158168" data-name="Grupo 1158168" transform="translate(281 2484)">
          <g id="Grupo_1152576" data-name="Grupo 1152576" transform="translate(0)">
            <g id="Grupo_1148633" data-name="Grupo 1148633">
              <g id="Grupo_1148525" data-name="Grupo 1148525">
                <g transform="matrix(1, 0, 0, 1, -9, -6)" filter="url(#Trazado_982547)">
                  <g id="Trazado_982547-2" data-name="Trazado 982547" transform="translate(9 6)" fill="#fff4e6">
                    <path d="M 47.5 93.5 C 41.28937149047852 93.5 35.26533508300781 92.28397369384766 29.59518623352051 89.88570404052734 C 24.11771965026855 87.56893157958984 19.19813346862793 84.25196075439453 14.97309303283691 80.02691650390625 C 10.74804019927979 75.80186462402344 7.431066513061523 70.88229370117188 5.114293098449707 65.40481567382812 C 2.716026782989502 59.73468017578125 1.5 53.71062850952148 1.5 47.5 C 1.5 41.28937149047852 2.716026782989502 35.26533508300781 5.114293098449707 29.59518623352051 C 7.431066513061523 24.11771965026855 10.74804019927979 19.19813346862793 14.97309303283691 14.97309303283691 C 19.19813346862793 10.74804019927979 24.11771965026855 7.431066513061523 29.59518623352051 5.114293098449707 C 35.26533508300781 2.716026782989502 41.28937149047852 1.5 47.5 1.5 C 53.71062850952148 1.5 59.73468017578125 2.716026782989502 65.40481567382812 5.114293098449707 C 70.88229370117188 7.431066513061523 75.80186462402344 10.74804019927979 80.02691650390625 14.97309303283691 C 84.25196075439453 19.19813346862793 87.56893157958984 24.11771965026855 89.88570404052734 29.59518623352051 C 92.28397369384766 35.26533508300781 93.5 41.28937149047852 93.5 47.5 C 93.5 53.71062850952148 92.28397369384766 59.73468017578125 89.88570404052734 65.40481567382812 C 87.56893157958984 70.88229370117188 84.25196075439453 75.80186462402344 80.02691650390625 80.02691650390625 C 75.80186462402344 84.25196075439453 70.88229370117188 87.56893157958984 65.40481567382812 89.88570404052734 C 59.73468017578125 92.28397369384766 53.71062850952148 93.5 47.5 93.5 Z" stroke="none"/>
                    <path d="M 47.5 3 C 41.49121475219727 3 35.66376876831055 4.176155090332031 30.17950439453125 6.495796203613281 C 24.88084411621094 8.736953735351562 20.12152099609375 11.94598388671875 16.03375244140625 16.03375244140625 C 11.94598388671875 20.12152099609375 8.736953735351562 24.88084411621094 6.495796203613281 30.17950439453125 C 4.176155090332031 35.66376876831055 3 41.49121475219727 3 47.5 C 3 53.50878524780273 4.176155090332031 59.33623123168945 6.495796203613281 64.82049560546875 C 8.736953735351562 70.11915588378906 11.94598388671875 74.87847900390625 16.03375244140625 78.96624755859375 C 20.12152099609375 83.05401611328125 24.88084411621094 86.26304626464844 30.17950439453125 88.50419616699219 C 35.66376876831055 90.82384490966797 41.49121475219727 92 47.5 92 C 53.50878524780273 92 59.33623123168945 90.82384490966797 64.82049560546875 88.50419616699219 C 70.11915588378906 86.26304626464844 74.87847900390625 83.05401611328125 78.96624755859375 78.96624755859375 C 83.05401611328125 74.87847900390625 86.26304626464844 70.11915588378906 88.50419616699219 64.82049560546875 C 90.82384490966797 59.33623123168945 92 53.50878524780273 92 47.5 C 92 41.49121475219727 90.82384490966797 35.66376876831055 88.50419616699219 30.17950439453125 C 86.26304626464844 24.88084411621094 83.05401611328125 20.12152099609375 78.96624755859375 16.03375244140625 C 74.87847900390625 11.94598388671875 70.11915588378906 8.736953735351562 64.82049560546875 6.495796203613281 C 59.33623123168945 4.176155090332031 53.50878524780273 3 47.5 3 M 47.5 0 C 73.7335205078125 0 95 21.2664794921875 95 47.5 C 95 73.7335205078125 73.7335205078125 95 47.5 95 C 21.2664794921875 95 0 73.7335205078125 0 47.5 C 0 21.2664794921875 21.2664794921875 0 47.5 0 Z" stroke="none" fill="#ff9d1c"/>
                  </g>
                </g>
              </g>
            </g>
          </g>
        </g>
      </g>
    </g>
    <g id="g12042" transform="translate(300.019 1733.684)">
      <g id="g12044" transform="translate(0 -682.665)">
        <g id="g12046" clip-path="url(#clip-path)">
          <g id="g12052" transform="translate(2.979 26.574)">
            <path id="path12054" d="M-276.111,0h-24.58a.556.556,0,0,0-.556.556v29h25.025l.111-.409Z" transform="translate(301.247)" fill="#8379c1"/>
          </g>
          <g id="g12056" transform="translate(2.979 26.574)">
            <path id="path12058" d="M-46.786,0h-3.7a.556.556,0,0,0-.556.556v29h3.7v-29A.556.556,0,0,1-46.786,0" transform="translate(51.045)" fill="#6e61b6"/>
          </g>
          <g id="g12060" transform="translate(2.979 26.574)">
            <path id="path12062" d="M-276.111,0h-24.58a.556.556,0,0,0-.556.556v29h25.025l.111-.409Z" transform="translate(301.247)" fill="none" stroke="#000" stroke-linecap="round" stroke-linejoin="round" stroke-miterlimit="10" stroke-width="1"/>
          </g>
          <g id="g12064" transform="translate(6.554 22.999)">
            <path id="path12066" d="M-190.238-124.355H-207a.556.556,0,0,1-.556-.556v-10.208a.556.556,0,0,1,.556-.556h16.762a.556.556,0,0,1,.556.556v10.208a.556.556,0,0,1-.556.556" transform="translate(207.557 135.676)" fill="#fed402"/>
          </g>
          <g id="g12068" transform="translate(6.554 22.999)">
            <path id="path12070" d="M-30.657-118.243v-10.208a.556.556,0,0,1,.556-.556h-2.791a.556.556,0,0,0-.556.556v10.208a.556.556,0,0,0,.556.556H-30.1a.556.556,0,0,1-.556-.556" transform="translate(33.448 129.008)" fill="#fac600"/>
          </g>
          <g id="g12072" transform="translate(6.554 22.999)">
            <path id="path12074" d="M-119.869,0h-10.356a.556.556,0,0,0-.556.556V10.765a.556.556,0,0,0,.556.556h16.762a.556.556,0,0,0,.556-.556V.556A.556.556,0,0,0-113.462,0h-2.512" transform="translate(130.781)" fill="none" stroke="#000" stroke-linecap="round" stroke-linejoin="round" stroke-miterlimit="10" stroke-width="1"/>
          </g>
          <g id="g12076" transform="translate(9.626 25.922)">
            <path id="path12078" d="M-127.139-52.022l-2.017-.738a.239.239,0,0,1-.153-.265l.37-2.116a.239.239,0,0,0-.317-.266l-2.02.731a.239.239,0,0,1-.288-.1l-1.077-1.858a.239.239,0,0,0-.413,0l-1.077,1.858a.239.239,0,0,1-.288.1l-2.02-.731a.239.239,0,0,0-.317.266l.37,2.116a.239.239,0,0,1-.153.265l-2.017.738a.239.239,0,0,0-.072.407l1.643,1.383a.239.239,0,0,1,.053.3l-.9,1.57h9.974l-.9-1.57a.239.239,0,0,1,.053-.3l1.643-1.383a.239.239,0,0,0-.072-.407" transform="translate(138.714 56.758)" fill="#fff"/>
          </g>
          <g id="g12080" transform="translate(9.626 27.259)">
            <path id="path12082" d="M-9.65-77.568h4.963A5.221,5.221,0,0,1-6.916-81.85a5.21,5.21,0,0,1,.448-2.118l-1.787-.647a.239.239,0,0,0-.317.266l.369,2.116a.239.239,0,0,1-.153.265l-2.017.738a.239.239,0,0,0-.072.407L-8.8-79.44a.239.239,0,0,1,.053.3Z" transform="translate(10.529 84.63)" fill="#eaf6ff"/>
          </g>
          <g id="g12084" transform="translate(9.626 25.922)">
            <path id="path12086" d="M-127.139-52.022l-2.017-.738a.239.239,0,0,1-.153-.265l.37-2.116a.239.239,0,0,0-.317-.266l-2.02.731a.239.239,0,0,1-.288-.1l-1.077-1.858a.239.239,0,0,0-.413,0l-1.077,1.858a.239.239,0,0,1-.288.1l-2.02-.731a.239.239,0,0,0-.317.266l.37,2.116a.239.239,0,0,1-.153.265l-2.017.738a.239.239,0,0,0-.072.407l1.643,1.383a.239.239,0,0,1,.053.3l-.9,1.57h9.974l-.9-1.57a.239.239,0,0,1,.053-.3l1.643-1.383A.239.239,0,0,0-127.139-52.022Z" transform="translate(138.714 56.758)" fill="none" stroke="#000" stroke-linecap="round" stroke-linejoin="round" stroke-miterlimit="10" stroke-width="1"/>
          </g>
          <g id="g12088" transform="translate(13.893 31.262)">
            <path id="path12090" d="M0,0H3.2" fill="none" stroke="#000" stroke-linecap="round" stroke-linejoin="round" stroke-miterlimit="10" stroke-width="1"/>
          </g>
          <g id="g12092" transform="translate(6.554 38.28)">
            <path id="path12094" d="M-37.24-40.907H-40.3a.334.334,0,0,1-.334-.334V-44.3a.334.334,0,0,1,.334-.334h3.056a.334.334,0,0,1,.334.334v3.056a.334.334,0,0,1-.334.334" transform="translate(40.631 44.631)" fill="#fff"/>
          </g>
          <g id="g12096" transform="translate(6.554 38.28)">
            <path id="path12098" d="M-20.3-37.24V-40.3a.334.334,0,0,1,.334-.334h-1.848a.334.334,0,0,0-.334.334v3.056a.334.334,0,0,0,.334.334h1.848a.334.334,0,0,1-.334-.334" transform="translate(22.151 40.631)" fill="#eaf6ff"/>
          </g>
          <g id="g12100" transform="translate(6.554 38.28)">
            <path id="path12102" d="M-37.24-40.907H-40.3a.334.334,0,0,1-.334-.334V-44.3a.334.334,0,0,1,.334-.334h3.056a.334.334,0,0,1,.334.334v3.056A.334.334,0,0,1-37.24-40.907Z" transform="translate(40.631 44.631)" fill="none" stroke="#000" stroke-linecap="round" stroke-linejoin="round" stroke-miterlimit="10" stroke-width="1"/>
          </g>
          <g id="g12104" transform="translate(13.63 38.28)">
            <path id="path12106" d="M-37.24-40.907H-40.3a.334.334,0,0,1-.334-.334V-44.3a.334.334,0,0,1,.334-.334h3.056a.334.334,0,0,1,.334.334v3.056a.334.334,0,0,1-.334.334" transform="translate(40.631 44.631)" fill="#fed402"/>
          </g>
          <g id="g12108" transform="translate(13.63 38.28)">
            <path id="path12110" d="M-20.3-37.24V-40.3a.334.334,0,0,1,.334-.334h-1.848a.334.334,0,0,0-.334.334v3.056a.334.334,0,0,0,.334.334h1.848a.334.334,0,0,1-.334-.334" transform="translate(22.151 40.631)" fill="#fac600"/>
          </g>
          <g id="g12112" transform="translate(20.705 38.28)">
            <path id="path12114" d="M-37.24-40.907H-40.3a.334.334,0,0,1-.334-.334V-44.3a.334.334,0,0,1,.334-.334h3.056a.334.334,0,0,1,.334.334v3.056a.334.334,0,0,1-.334.334" transform="translate(40.631 44.631)" fill="#fff"/>
          </g>
          <g id="g12116" transform="translate(20.705 38.28)">
            <path id="path12118" d="M-20.3-37.24V-40.3a.334.334,0,0,1,.334-.334h-1.848a.334.334,0,0,0-.334.334v3.056a.334.334,0,0,0,.334.334h1.848a.334.334,0,0,1-.334-.334" transform="translate(22.151 40.631)" fill="#eaf6ff"/>
          </g>
          <g id="g12120" transform="translate(20.705 38.28)">
            <path id="path12122" d="M-37.24-40.907H-40.3a.334.334,0,0,1-.334-.334V-44.3a.334.334,0,0,1,.334-.334h3.056a.334.334,0,0,1,.334.334v3.056A.334.334,0,0,1-37.24-40.907Z" transform="translate(40.631 44.631)" fill="none" stroke="#000" stroke-linecap="round" stroke-linejoin="round" stroke-miterlimit="10" stroke-width="1"/>
          </g>
          <g id="g12124" transform="translate(6.554 45.107)">
            <path id="path12126" d="M-37.24-40.907H-40.3a.334.334,0,0,1-.334-.334V-44.3a.334.334,0,0,1,.334-.334h3.056a.334.334,0,0,1,.334.334v3.056a.334.334,0,0,1-.334.334" transform="translate(40.631 44.631)" fill="#fff"/>
          </g>
          <g id="g12128" transform="translate(6.554 45.107)">
            <path id="path12130" d="M-20.3-37.24V-40.3a.334.334,0,0,1,.334-.334h-1.848a.334.334,0,0,0-.334.334v3.056a.334.334,0,0,0,.334.334h1.848a.334.334,0,0,1-.334-.334" transform="translate(22.151 40.631)" fill="#eaf6ff"/>
          </g>
          <g id="g12132" transform="translate(13.63 45.107)">
            <path id="path12134" d="M-37.24-40.907H-40.3a.334.334,0,0,1-.334-.334V-44.3a.334.334,0,0,1,.334-.334h3.056a.334.334,0,0,1,.334.334v3.056a.334.334,0,0,1-.334.334" transform="translate(40.631 44.631)" fill="#fff"/>
          </g>
          <g id="g12136" transform="translate(13.63 45.107)">
            <path id="path12138" d="M-20.3-37.24V-40.3a.334.334,0,0,1,.334-.334h-1.848a.334.334,0,0,0-.334.334v3.056a.334.334,0,0,0,.334.334h1.848a.334.334,0,0,1-.334-.334" transform="translate(22.151 40.631)" fill="#eaf6ff"/>
          </g>
          <g id="g12140" transform="translate(6.554 45.107)">
            <path id="path12142" d="M-37.24-40.907H-40.3a.334.334,0,0,1-.334-.334V-44.3a.334.334,0,0,1,.334-.334h3.056a.334.334,0,0,1,.334.334v3.056A.334.334,0,0,1-37.24-40.907Z" transform="translate(40.631 44.631)" fill="none" stroke="#000" stroke-linecap="round" stroke-linejoin="round" stroke-miterlimit="10" stroke-width="1"/>
          </g>
          <g id="g12144" transform="translate(13.63 45.107)">
            <path id="path12146" d="M-37.24-40.907H-40.3a.334.334,0,0,1-.334-.334V-44.3a.334.334,0,0,1,.334-.334h3.056a.334.334,0,0,1,.334.334v3.056A.334.334,0,0,1-37.24-40.907Z" transform="translate(40.631 44.631)" fill="none" stroke="#000" stroke-linecap="round" stroke-linejoin="round" stroke-miterlimit="10" stroke-width="1"/>
          </g>
          <g id="g12148" transform="translate(20.705 45.107)">
            <path id="path12150" d="M-37.24-40.907H-40.3a.334.334,0,0,1-.334-.334V-44.3a.334.334,0,0,1,.334-.334h3.056a.334.334,0,0,1,.334.334v3.056a.334.334,0,0,1-.334.334" transform="translate(40.631 44.631)" fill="#fed402"/>
          </g>
          <g id="g12152" transform="translate(20.705 45.107)">
            <path id="path12154" d="M-20.3-37.24V-40.3a.334.334,0,0,1,.334-.334h-1.848a.334.334,0,0,0-.334.334v3.056a.334.334,0,0,0,.334.334h1.848a.334.334,0,0,1-.334-.334" transform="translate(22.151 40.631)" fill="#fac600"/>
          </g>
          <g id="g12156" transform="translate(13.63 38.28)">
            <path id="path12158" d="M-37.24-40.907H-40.3a.334.334,0,0,1-.334-.334V-44.3a.334.334,0,0,1,.334-.334h3.056a.334.334,0,0,1,.334.334v3.056A.334.334,0,0,1-37.24-40.907Z" transform="translate(40.631 44.631)" fill="none" stroke="#000" stroke-linecap="round" stroke-linejoin="round" stroke-miterlimit="10" stroke-width="1"/>
          </g>
          <g id="g12160" transform="translate(20.705 45.107)">
            <path id="path12162" d="M-37.24-40.907H-40.3a.334.334,0,0,1-.334-.334V-44.3a.334.334,0,0,1,.334-.334h3.056a.334.334,0,0,1,.334.334v3.056A.334.334,0,0,1-37.24-40.907Z" transform="translate(40.631 44.631)" fill="none" stroke="#000" stroke-linecap="round" stroke-linejoin="round" stroke-miterlimit="10" stroke-width="1"/>
          </g>
          <path id="path12164" d="M398.244-588.392H380.607v-8.58h17.637Z" transform="translate(-348.849 604.122)" fill="none" stroke="#000" stroke-linecap="round" stroke-linejoin="round" stroke-miterlimit="10" stroke-width="1"/>
          <g id="g12166" transform="translate(28.004 12.751)">
            <path id="path12168" d="M-274.888-476.473h-25.025v-42.82a.556.556,0,0,1,.556-.556h23.912a.556.556,0,0,1,.556.556Z" transform="translate(299.913 519.849)" fill="#53469c"/>
          </g>
          <g id="g12170" transform="translate(28.004 12.751)">
            <path id="path12172" d="M-40.755,0h-3.154a.556.556,0,0,0-.556.556v42.82h3.154V.556A.556.556,0,0,1-40.755,0" transform="translate(44.465)" fill="#463a84"/>
          </g>
          <g id="g12174" transform="translate(28.004 12.751)">
            <path id="path12176" d="M-274.888-368.319v-32.974a.556.556,0,0,0-.556-.556h-23.912a.556.556,0,0,0-.556.556v42.82h25.025v-5.952" transform="translate(299.913 401.85)" fill="none" stroke="#000" stroke-linecap="round" stroke-linejoin="round" stroke-miterlimit="10" stroke-width="1"/>
          </g>
          <g id="g12178" transform="translate(32.77 24.057)">
            <path id="path12180" d="M-39.538-43.205H-42.8a.334.334,0,0,1-.334-.334V-46.8a.334.334,0,0,1,.334-.334h3.266a.334.334,0,0,1,.334.334v3.266a.334.334,0,0,1-.334.334" transform="translate(43.137 47.139)" fill="#fed402"/>
          </g>
          <g id="g12182" transform="translate(32.77 24.057)">
            <path id="path12184" d="M-20.3-37.24V-40.3a.334.334,0,0,1,.334-.334h-1.848a.334.334,0,0,0-.334.334v3.056a.334.334,0,0,0,.334.334h1.848a.334.334,0,0,1-.334-.334" transform="translate(22.151 40.631)" fill="#fac600"/>
          </g>
          <g id="g12186" transform="translate(32.77 30.954)">
            <path id="path12188" d="M-39.538-43.205H-42.8a.334.334,0,0,1-.334-.334V-46.8a.334.334,0,0,1,.334-.334h3.266a.334.334,0,0,1,.334.334v3.266a.334.334,0,0,1-.334.334" transform="translate(43.137 47.139)" fill="#fff"/>
          </g>
          <g id="g12190" transform="translate(32.77 17.16)">
            <path id="path12192" d="M-39.538-43.205H-42.8a.334.334,0,0,1-.334-.334V-46.8a.334.334,0,0,1,.334-.334h3.266a.334.334,0,0,1,.334.334v3.266a.334.334,0,0,1-.334.334" transform="translate(43.137 47.139)" fill="#fff"/>
          </g>
          <g id="g12194" transform="translate(32.77 17.16)">
            <path id="path12196" d="M-20.3-37.24V-40.3a.334.334,0,0,1,.334-.334h-1.848a.334.334,0,0,0-.334.334v3.056a.334.334,0,0,0,.334.334h1.848a.334.334,0,0,1-.334-.334" transform="translate(22.151 40.631)" fill="#eaf6ff"/>
          </g>
          <g id="g12198" transform="translate(32.77 31.164)">
            <path id="path12200" d="M-20.3-37.24V-40.3a.334.334,0,0,1,.334-.334h-1.848a.334.334,0,0,0-.334.334v3.056a.334.334,0,0,0,.334.334h1.848a.334.334,0,0,1-.334-.334" transform="translate(22.151 40.631)" fill="#eaf6ff"/>
          </g>
          <g id="g12202" transform="translate(32.77 24.057)">
            <path id="path12204" d="M-39.538-43.205H-42.8a.334.334,0,0,1-.334-.334V-46.8a.334.334,0,0,1,.334-.334h3.266a.334.334,0,0,1,.334.334v3.266A.334.334,0,0,1-39.538-43.205Z" transform="translate(43.137 47.139)" fill="none" stroke="#000" stroke-linecap="round" stroke-linejoin="round" stroke-miterlimit="10" stroke-width="1"/>
          </g>
          <g id="g12206" transform="translate(32.77 30.954)">
            <path id="path12208" d="M-39.538-43.205H-42.8a.334.334,0,0,1-.334-.334V-46.8a.334.334,0,0,1,.334-.334h3.266a.334.334,0,0,1,.334.334v3.266A.334.334,0,0,1-39.538-43.205Z" transform="translate(43.137 47.139)" fill="none" stroke="#000" stroke-linecap="round" stroke-linejoin="round" stroke-miterlimit="10" stroke-width="1"/>
          </g>
          <g id="g12210" transform="translate(32.77 17.16)">
            <path id="path12212" d="M-39.538-43.205H-42.8a.334.334,0,0,1-.334-.334V-46.8a.334.334,0,0,1,.334-.334h3.266a.334.334,0,0,1,.334.334v3.266A.334.334,0,0,1-39.538-43.205Z" transform="translate(43.137 47.139)" fill="none" stroke="#000" stroke-linecap="round" stroke-linejoin="round" stroke-miterlimit="10" stroke-width="1"/>
          </g>
          <g id="g12214" transform="translate(35.57 45.107)">
            <path id="path12216" d="M0-121.055H10.013v-10.464a.556.556,0,0,0-.556-.556H.556a.556.556,0,0,0-.556.556Z" transform="translate(0 132.076)" fill="#60b8fe"/>
          </g>
          <g id="g12218" transform="translate(35.57 45.107)">
            <path id="path12220" d="M0-121.055H10.013v-10.464a.556.556,0,0,0-.556-.556H.556a.556.556,0,0,0-.556.556Z" transform="translate(0 132.076)" fill="none" stroke="#000" stroke-linecap="round" stroke-linejoin="round" stroke-miterlimit="10" stroke-width="1"/>
          </g>
          <g id="g12222" transform="translate(35.57 45.107)">
            <path id="path12224" d="M-6.11,0a.556.556,0,0,0-.556.556V11.02H-1.66V0Z" transform="translate(6.667)" fill="#27a5fe"/>
          </g>
          <g id="g12226" transform="translate(35.57 45.107)">
            <path id="path12228" d="M-26.007,0h-1.811a.556.556,0,0,0-.556.556V11.02h1.811V.556A.556.556,0,0,1-26.007,0" transform="translate(28.375)" fill="#0593fc"/>
          </g>
          <g id="g12230" transform="translate(35.57 45.107)">
            <path id="path12232" d="M-6.11,0a.556.556,0,0,0-.556.556V11.02H-1.66V0Z" transform="translate(6.667)" fill="none" stroke="#000" stroke-linecap="round" stroke-linejoin="round" stroke-miterlimit="10" stroke-width="1"/>
          </g>
          <g id="g12234" transform="translate(28.064 0.834)">
            <path id="path12236" d="M-268.779-94.248h-23.913a.556.556,0,0,1-.556-.556v-7.467a.556.556,0,0,1,.556-.556h23.913a.556.556,0,0,1,.556.556V-94.8a.556.556,0,0,1-.556.556" transform="translate(293.247 102.828)" fill="#0ed290"/>
          </g>
          <g id="g12238" transform="translate(28.064 0.834)">
            <path id="path12240" d="M-31.467-88.137V-95.6a.556.556,0,0,1,.556-.556h-2.865a.556.556,0,0,0-.556.556v7.467a.556.556,0,0,0,.556.556h2.865a.556.556,0,0,1-.556-.556" transform="translate(34.332 96.161)" fill="#00c285"/>
          </g>
          <g id="g12242" transform="translate(28.064 0.834)">
            <path id="path12244" d="M-219.667-94.248h4.471a.556.556,0,0,0,.556-.556v-7.467a.556.556,0,0,0-.556-.556h-23.913a.556.556,0,0,0-.556.556V-94.8a.556.556,0,0,0,.556.556h15.548" transform="translate(239.665 102.828)" fill="none" stroke="#000" stroke-linecap="round" stroke-linejoin="round" stroke-miterlimit="10" stroke-width="1"/>
          </g>
          <g id="g12246" transform="translate(40.786 17.16)">
            <path id="path12248" d="M-157.181-240.855h-13.753a.556.556,0,0,1-.556-.556v-20.814a.556.556,0,0,1,.556-.556h13.753a.556.556,0,0,1,.556.556v20.814a.556.556,0,0,1-.556.556" transform="translate(171.49 262.782)" fill="#eaf6ff"/>
          </g>
          <g id="g12250" transform="translate(40.786 17.16)">
            <path id="path12252" d="M-35.177-234.744v-20.814a.556.556,0,0,1,.556-.556h-3.2a.556.556,0,0,0-.556.556v20.814a.556.556,0,0,0,.556.556h3.2a.556.556,0,0,1-.556-.556" transform="translate(38.38 256.114)" fill="#d8ecfe"/>
          </g>
          <g id="g12254" transform="translate(40.786 17.16)">
            <path id="path12256" d="M-157.181-240.855h-13.753a.556.556,0,0,1-.556-.556v-20.814a.556.556,0,0,1,.556-.556h13.753a.556.556,0,0,1,.556.556v20.814A.556.556,0,0,1-157.181-240.855Z" transform="translate(171.49 262.782)" fill="none" stroke="#000" stroke-linecap="round" stroke-linejoin="round" stroke-miterlimit="10" stroke-width="1"/>
          </g>
          <g id="g12258" transform="translate(44.874 35.123)">
            <path id="path12260" d="M-73.481,0H-80.17" transform="translate(80.17)" fill="none" stroke="#000" stroke-linecap="round" stroke-linejoin="round" stroke-miterlimit="10" stroke-width="1"/>
          </g>
          <g id="g12262" transform="translate(44.874 32.15)">
            <path id="path12264" d="M0,0H6.689" transform="translate(0 0)" fill="none" stroke="#000" stroke-linecap="round" stroke-linejoin="round" stroke-miterlimit="10" stroke-width="1"/>
          </g>
          <g id="g12266" transform="translate(43.882 20.753)">
            <path id="path12268" d="M-42.272-3.328l-.919,1.862a.543.543,0,0,1-.409.3l-2.054.3a.544.544,0,0,0-.3.927l1.487,1.449a.544.544,0,0,1,.156.481l-.351,2.046a.544.544,0,0,0,.789.573l1.837-.966a.544.544,0,0,1,.506,0l1.838.966a.544.544,0,0,0,.789-.573l-.351-2.046a.544.544,0,0,1,.156-.481L-37.614.057a.543.543,0,0,0-.3-.927l-2.054-.3a.543.543,0,0,1-.409-.3L-41.3-3.328a.544.544,0,0,0-.975,0" transform="translate(46.121 3.631)" fill="#fed402"/>
          </g>
          <g id="g12270" transform="translate(43.882 23.211)">
            <path id="path12272" d="M-43.578-46.012l.351-2.046a.543.543,0,0,0-.156-.481l-1.487-1.449A.54.54,0,0,1-45-50.2l-.02,0-2.054.3a.543.543,0,0,0-.3.927l1.487,1.449a.544.544,0,0,1,.156.481L-46.088-45a.543.543,0,0,0,.789.573l1.837-.966a.543.543,0,0,1,.162-.054.54.54,0,0,1-.277-.57" transform="translate(47.545 50.201)" fill="#fac600"/>
          </g>
          <g id="g12274" transform="translate(43.882 20.753)">
            <path id="path12276" d="M-42.272-3.328l-.919,1.862a.543.543,0,0,1-.409.3l-2.054.3a.544.544,0,0,0-.3.927l1.487,1.449a.544.544,0,0,1,.156.481l-.351,2.046a.544.544,0,0,0,.789.573l1.837-.966a.544.544,0,0,1,.506,0l1.838.966a.544.544,0,0,0,.789-.573l-.351-2.046a.544.544,0,0,1,.156-.481L-37.614.057a.543.543,0,0,0-.3-.927l-2.054-.3a.543.543,0,0,1-.409-.3L-41.3-3.328A.544.544,0,0,0-42.272-3.328Z" transform="translate(46.121 3.631)" fill="none" stroke="#000" stroke-linecap="round" stroke-linejoin="round" stroke-miterlimit="10" stroke-width="1"/>
          </g>
          <g id="g12278" transform="translate(1.311 56.128)">
            <path id="path12280" d="M0,0H53.387" fill="none" stroke="#000" stroke-linecap="round" stroke-linejoin="round" stroke-miterlimit="10" stroke-width="1"/>
          </g>
          <g id="g12282" transform="translate(36.977 6.515)">
            <path id="path12284" d="M-79.662,0h-7.252" transform="translate(86.914)" fill="none" stroke="#000" stroke-linecap="round" stroke-linejoin="round" stroke-miterlimit="10" stroke-width="1"/>
          </g>
          <g id="g12286" transform="translate(33.87 3.734)">
            <path id="path12288" d="M0,0H13.413" fill="none" stroke="#000" stroke-linecap="round" stroke-linejoin="round" stroke-miterlimit="10" stroke-width="1"/>
          </g>
        </g>
      </g>
    </g>
  </g>
</svg>
