<svg xmlns="http://www.w3.org/2000/svg" xmlns:xlink="http://www.w3.org/1999/xlink" width="113" height="113" viewBox="0 0 113 113">
  <defs>
    <filter id="Trazado_982547" x="0" y="0" width="113" height="113" filterUnits="userSpaceOnUse">
      <feOffset dy="3" input="SourceAlpha"/>
      <feGaussianBlur stdDeviation="3" result="blur"/>
      <feFlood flood-opacity="0.161"/>
      <feComposite operator="in" in2="blur"/>
      <feComposite in="SourceGraphic"/>
    </filter>
  </defs>
  <g id="Grupo_1165527" data-name="Grupo 1165527" transform="translate(-195.895 -4174)">
    <g id="Grupo_1164308" data-name="Grupo 1164308" transform="translate(204.895 4180)">
      <g id="Grupo_1163948" data-name="Grupo 1163948" transform="translate(0)">
        <g id="Grupo_1158168" data-name="Grupo 1158168" transform="translate(0)">
          <g id="Grupo_1152576" data-name="Grupo 1152576">
            <g id="Grupo_1148633" data-name="Grupo 1148633">
              <g id="Grupo_1148525" data-name="Grupo 1148525">
                <g transform="matrix(1, 0, 0, 1, -9, -6)" filter="url(#Trazado_982547)">
                  <g id="Trazado_982547-2" data-name="Trazado 982547" transform="translate(9 6)" fill="#e9f9fd">
                    <path d="M 47.5 93.5 C 41.28937149047852 93.5 35.26533508300781 92.28397369384766 29.59518623352051 89.88570404052734 C 24.11771965026855 87.56893157958984 19.19813346862793 84.25196075439453 14.97309303283691 80.02691650390625 C 10.74804019927979 75.80186462402344 7.431066513061523 70.88229370117188 5.114293098449707 65.40481567382812 C 2.716026782989502 59.73468017578125 1.5 53.71062850952148 1.5 47.5 C 1.5 41.28937149047852 2.716026782989502 35.26533508300781 5.114293098449707 29.59518623352051 C 7.431066513061523 24.11771965026855 10.74804019927979 19.19813346862793 14.97309303283691 14.97309303283691 C 19.19813346862793 10.74804019927979 24.11771965026855 7.431066513061523 29.59518623352051 5.114293098449707 C 35.26533508300781 2.716026782989502 41.28937149047852 1.5 47.5 1.5 C 53.71062850952148 1.5 59.73468017578125 2.716026782989502 65.40481567382812 5.114293098449707 C 70.88229370117188 7.431066513061523 75.80186462402344 10.74804019927979 80.02691650390625 14.97309303283691 C 84.25196075439453 19.19813346862793 87.56893157958984 24.11771965026855 89.88570404052734 29.59518623352051 C 92.28397369384766 35.26533508300781 93.5 41.28937149047852 93.5 47.5 C 93.5 53.71062850952148 92.28397369384766 59.73468017578125 89.88570404052734 65.40481567382812 C 87.56893157958984 70.88229370117188 84.25196075439453 75.80186462402344 80.02691650390625 80.02691650390625 C 75.80186462402344 84.25196075439453 70.88229370117188 87.56893157958984 65.40481567382812 89.88570404052734 C 59.73468017578125 92.28397369384766 53.71062850952148 93.5 47.5 93.5 Z" stroke="none"/>
                    <path d="M 47.5 3 C 41.49121475219727 3 35.66376876831055 4.176155090332031 30.17950439453125 6.495796203613281 C 24.88084411621094 8.736953735351562 20.12152099609375 11.94598388671875 16.03375244140625 16.03375244140625 C 11.94598388671875 20.12152099609375 8.736953735351562 24.88084411621094 6.495796203613281 30.17950439453125 C 4.176155090332031 35.66376876831055 3 41.49121475219727 3 47.5 C 3 53.50878524780273 4.176155090332031 59.33623123168945 6.495796203613281 64.82049560546875 C 8.736953735351562 70.11915588378906 11.94598388671875 74.87847900390625 16.03375244140625 78.96624755859375 C 20.12152099609375 83.05401611328125 24.88084411621094 86.26304626464844 30.17950439453125 88.50419616699219 C 35.66376876831055 90.82384490966797 41.49121475219727 92 47.5 92 C 53.50878524780273 92 59.33623123168945 90.82384490966797 64.82049560546875 88.50419616699219 C 70.11915588378906 86.26304626464844 74.87847900390625 83.05401611328125 78.96624755859375 78.96624755859375 C 83.05401611328125 74.87847900390625 86.26304626464844 70.11915588378906 88.50419616699219 64.82049560546875 C 90.82384490966797 59.33623123168945 92 53.50878524780273 92 47.5 C 92 41.49121475219727 90.82384490966797 35.66376876831055 88.50419616699219 30.17950439453125 C 86.26304626464844 24.88084411621094 83.05401611328125 20.12152099609375 78.96624755859375 16.03375244140625 C 74.87847900390625 11.94598388671875 70.11915588378906 8.736953735351562 64.82049560546875 6.495796203613281 C 59.33623123168945 4.176155090332031 53.50878524780273 3 47.5 3 M 47.5 0 C 73.7335205078125 0 95 21.2664794921875 95 47.5 C 95 73.7335205078125 73.7335205078125 95 47.5 95 C 21.2664794921875 95 0 73.7335205078125 0 47.5 C 0 21.2664794921875 21.2664794921875 0 47.5 0 Z" stroke="none" fill="#36ceef"/>
                  </g>
                </g>
              </g>
            </g>
          </g>
        </g>
      </g>
    </g>
    <g id="graphic_1289079" transform="translate(222.08 4197.5)">
      <path id="Trazado_1000795" data-name="Trazado 1000795" d="M19.252,29.806H13.445L16.349,24Zm0,0" transform="translate(-11.379 -21.097)" fill="#fcd770"/>
      <path id="Trazado_1000796" data-name="Trazado 1000796" d="M288.542,21.548A13.548,13.548,0,1,1,274.993,8,13.548,13.548,0,0,1,288.542,21.548Zm0,0" transform="translate(-229.379 -7.032)" fill="#fcd770"/>
      <path id="Trazado_1000797" data-name="Trazado 1000797" d="M267.162,83.467l1.513-2.272-4.98-4.98-1.558,1.039a13.514,13.514,0,0,0,5.2,15.43c.046-.114.1-.225.141-.341l2.677-.535V84.763l-2.678-.536q-.143-.385-.315-.76Zm0,0" transform="translate(-229.379 -66.995)" fill="#ffc729"/>
      <path id="Trazado_1000798" data-name="Trazado 1000798" d="M312.8,49.677A9.677,9.677,0,1,1,303.122,40,9.678,9.678,0,0,1,312.8,49.677Zm0,0" transform="translate(-257.508 -35.161)" fill="#ffc729"/>
      <path id="Trazado_1000799" data-name="Trazado 1000799" d="M295.291,99.108l1.514-2.272-2.828-2.828a9.638,9.638,0,0,0,4.307,11.516V100.4l-2.678-.536q-.143-.385-.315-.76Zm0,0" transform="translate(-257.508 -82.636)" fill="#f7b81c"/>
      <path id="Trazado_1000800" data-name="Trazado 1000800" d="M147.251,298.9a2.9,2.9,0,1,1-2.9-2.9A2.9,2.9,0,0,1,147.251,298.9Zm0,0" transform="translate(-123.895 -260.194)" fill="#ffc729"/>
      <path id="Trazado_1000801" data-name="Trazado 1000801" d="M293.187,291.871A3.871,3.871,0,1,1,289.316,288,3.871,3.871,0,0,1,293.187,291.871Zm0,0" transform="translate(-250.476 -253.162)" fill="#ffc729"/>
      <path id="Trazado_1000802" data-name="Trazado 1000802" d="M148.671,93.548V89.677l-2.244-.449a9.612,9.612,0,0,0-1.058-2.555l1.269-1.9L143.9,82.032,142,83.3a9.614,9.614,0,0,0-2.555-1.058L138.993,80h-3.871l-.449,2.243a9.61,9.61,0,0,0-2.554,1.058l-1.9-1.269-2.736,2.737,1.268,1.9a9.582,9.582,0,0,0-1.058,2.555l-2.244.45v3.871l2.243.449a9.612,9.612,0,0,0,1.058,2.555l-1.269,1.9,2.737,2.737,1.9-1.269a9.594,9.594,0,0,0,2.554,1.058l.45,2.244h3.871l.449-2.243A9.613,9.613,0,0,0,142,99.925l1.9,1.269,2.737-2.737-1.269-1.9A9.581,9.581,0,0,0,146.426,94Zm0,0" transform="translate(-109.831 -70.323)" fill="#a0d468"/>
      <path id="Trazado_1000803" data-name="Trazado 1000803" d="M185.058,133.806A5.806,5.806,0,1,1,179.251,128,5.807,5.807,0,0,1,185.058,133.806Zm0,0" transform="translate(-152.024 -112.516)" fill="#8cc152"/>
      <path id="Trazado_1000804" data-name="Trazado 1000804" d="M58.195,34.338l1.526-1.077L58.6,31.68,43.37,42.433a4.826,4.826,0,0,0-9.271.682H24.186A3.862,3.862,0,1,0,17.2,46.172L5.937,61.461V55.7H7.872V53.76H5.937V51.825H9.808V49.889H5.937V47.954H7.872V46.019H5.937V44.083H9.808V42.148H5.937V40.212H7.872V38.277H5.937V36.341H9.808V34.406H5.937V32.47H7.872V30.535H5.937V28.6H9.808V26.664H5.937V24.728H7.872V22.793H5.937V20.857H9.808V18.922H5.937V15.051h3.5L4.969,6.113.5,15.051H4V65.373H60.13V63.438H58.195ZM4.969,10.44l1.337,2.675H3.631Zm51.29,53H52.388v-25L56.259,35.7ZM43.624,44.623l1.022-.721V63.438H40.775V48.511a4.833,4.833,0,0,0,2.849-3.888Zm2.958-2.088L50.453,39.8V63.438H46.582ZM38.84,41.18a2.9,2.9,0,1,1-2.9,2.9A2.907,2.907,0,0,1,38.84,41.18Zm0,7.742V63.438H34.969V46.956a4.822,4.822,0,0,0,3.871,1.965Zm-27.1,7.921,3.871-5.254V63.438H11.743Zm-1.935,6.6H6.884L9.808,59.47ZM17.55,48.963l1.091-1.48a3.635,3.635,0,0,0,2.78.334V63.438H17.55Zm5.806-2.347a3.848,3.848,0,0,0,.83-1.566h3.041V63.438H23.356Zm5.806-1.566h3.871V63.438H29.163Zm-8.71-2.9a1.935,1.935,0,1,1-1.935,1.935A1.937,1.937,0,0,1,20.453,42.148Zm0,0" transform="translate(0 -5.374)"/>
      <path id="Trazado_1000805" data-name="Trazado 1000805" d="M120.583,26.184,119.2,28.257l3.858,3.859,2.073-1.382a10.514,10.514,0,0,0,1.676.694l.489,2.442h5.458l.489-2.442a10.584,10.584,0,0,0,1.676-.694l2.073,1.382,3.859-3.859-1.382-2.073c.029-.056.052-.115.08-.172a14.515,14.515,0,1,0-5.343-14.5c-.316-.135-.636-.258-.964-.363l-.488-2.442H127.3l-.489,2.442a10.6,10.6,0,0,0-1.676.694l-2.073-1.382L119.2,14.322l1.382,2.073a10.53,10.53,0,0,0-.694,1.676l-2.443.49v5.458l2.443.489a10.659,10.659,0,0,0,.695,1.676Zm27.83-24.249A12.581,12.581,0,1,1,140.65,24.41l1.957-.391v-.583a10.639,10.639,0,0,0,12.543-.679l-1.226-1.5a8.687,8.687,0,0,1-11.317-.264V18.561l-2.442-.489a10.666,10.666,0,0,0-.694-1.676l1.382-2.073-1.041-1.04A8.644,8.644,0,0,1,141.671,9l-1.5-1.226a10.6,10.6,0,0,0-2,3.861l-1.176-1.176-.625.416a12.564,12.564,0,0,1,12.045-8.945ZM119.381,20.148l2.063-.413.15-.59a8.678,8.678,0,0,1,.952-2.3l.312-.525L121.69,14.57l1.615-1.615,1.752,1.168.525-.313a8.642,8.642,0,0,1,2.3-.951l.59-.15.414-2.064h2.284l.413,2.063.59.15a8.667,8.667,0,0,1,2.3.951l.525.312,1.752-1.168,1.615,1.615-1.168,1.752.313.525a8.63,8.63,0,0,1,.951,2.3l.15.59,2.064.414v2.284l-2.064.413-.15.59a8.661,8.661,0,0,1-.951,2.3l-.313.525,1.168,1.752-1.615,1.615L135,28.457l-.525.313a8.636,8.636,0,0,1-2.3.951l-.59.15-.414,2.064h-2.284l-.413-2.063-.591-.15a8.674,8.674,0,0,1-2.3-.951l-.525-.312-1.752,1.168-1.615-1.615,1.168-1.752-.312-.525a8.646,8.646,0,0,1-.952-2.3l-.15-.59-2.064-.414Zm0,0" transform="translate(-102.799)"/>
      <path id="Trazado_1000806" data-name="Trazado 1000806" d="M192.942,121.935a4.832,4.832,0,0,1,3.94,7.638l1.576,1.123a6.768,6.768,0,0,0-9.439-9.44l1.123,1.577A4.8,4.8,0,0,1,192.942,121.935Zm0,0" transform="translate(-165.715 -105.484)"/>
      <path id="Trazado_1000807" data-name="Trazado 1000807" d="M172.219,154.271a6.726,6.726,0,0,0,3.922-1.257l-1.122-1.577a4.833,4.833,0,0,1-6.741-6.74l-1.576-1.123a6.768,6.768,0,0,0,5.517,10.7Zm0,0" transform="translate(-144.992 -126.207)"/>
      <path id="Trazado_1000808" data-name="Trazado 1000808" d="M336.348,66.9h3.871a.97.97,0,0,1,.968.968h1.935a2.907,2.907,0,0,0-2.9-2.9h-.968V64h-1.935v.968h-.968a2.907,2.907,0,0,0-2.9,2.9v.968a2.907,2.907,0,0,0,2.9,2.9h3.871a.97.97,0,0,1,.968.968v.968a.97.97,0,0,1-.968.968h-3.871a.969.969,0,0,1-.968-.968h-1.935a2.907,2.907,0,0,0,2.9,2.9h.968v.968h1.935v-.968h.968a2.907,2.907,0,0,0,2.9-2.9V72.71a2.907,2.907,0,0,0-2.9-2.9h-3.871a.969.969,0,0,1-.968-.968v-.968A.969.969,0,0,1,336.348,66.9Zm0,0" transform="translate(-292.67 -56.258)"/>
      <path id="Trazado_1000809" data-name="Trazado 1000809" d="M324.494,33.935a8.708,8.708,0,0,1,6.743,14.22l1.5,1.226A10.644,10.644,0,0,0,317.758,34.4l1.226,1.5A8.726,8.726,0,0,1,324.494,33.935Zm0,0" transform="translate(-278.88 -28.129)"/>
    </g>
  </g>
</svg>
