<svg xmlns="http://www.w3.org/2000/svg" xmlns:xlink="http://www.w3.org/1999/xlink" width="445.922" height="419.996" viewBox="0 0 445.922 419.996">
  <defs>
    <filter id="Trazado_1001891" x="204" y="180.458" width="234" height="234" filterUnits="userSpaceOnUse">
      <feOffset dy="3" input="SourceAlpha"/>
      <feGaussianBlur stdDeviation="3" result="blur"/>
      <feFlood flood-opacity="0.161"/>
      <feComposite operator="in" in2="blur"/>
      <feComposite in="SourceGraphic"/>
    </filter>
    <clipPath id="clip-path">
      <path id="Trazado_999266" data-name="Trazado 999266" d="M288.411,124.827a71.6,71.6,0,1,1,109.17,60.958q-1.909,1.18-3.9,2.241a71.617,71.617,0,0,1-105.273-63.2M360.012,0a124.827,124.827,0,1,0,60.166,234.214q1.916-1.182,3.91-2.249A124.835,124.835,0,0,0,360.012,0Z" transform="translate(-235.185)" fill="#ff9d1c"/>
    </clipPath>
    <clipPath id="clip-path-2">
      <path id="Trazado_999267" data-name="Trazado 999267" d="M168.178,332.053a71.6,71.6,0,1,1,71.6,71.6,71.6,71.6,0,0,1-71.6-71.6m-53.226,0A124.826,124.826,0,1,0,239.78,207.228,124.828,124.828,0,0,0,114.952,332.053" transform="translate(-114.952 -207.228)" fill="#2fcbec"/>
    </clipPath>
    <clipPath id="clip-path-3">
      <path id="Trazado_999270" data-name="Trazado 999270" d="M445.623,269.779a71.607,71.607,0,1,1-37.936,63.2c0-.176.007-.352.007-.529H354.469c0,.177-.007.352-.007.529A124.826,124.826,0,1,0,497.288,209.452a125.276,125.276,0,0,1-51.665,60.327" transform="translate(-354.462 -209.452)" fill="#1d7083"/>
    </clipPath>
    <filter id="Trazado_1001892" x="142" y="46.458" width="162" height="162" filterUnits="userSpaceOnUse">
      <feOffset dy="3" input="SourceAlpha"/>
      <feGaussianBlur stdDeviation="3" result="blur-2"/>
      <feFlood flood-opacity="0.161"/>
      <feComposite operator="in" in2="blur-2"/>
      <feComposite in="SourceGraphic"/>
    </filter>
    <filter id="Trazado_1001893" x="44" y="216.458" width="162" height="162" filterUnits="userSpaceOnUse">
      <feOffset dy="3" input="SourceAlpha"/>
      <feGaussianBlur stdDeviation="3" result="blur-3"/>
      <feFlood flood-opacity="0.161"/>
      <feComposite operator="in" in2="blur-3"/>
      <feComposite in="SourceGraphic"/>
    </filter>
    <filter id="Trazado_999271" x="240" y="216.458" width="162" height="162" filterUnits="userSpaceOnUse">
      <feOffset dy="3" input="SourceAlpha"/>
      <feGaussianBlur stdDeviation="3" result="blur-4"/>
      <feFlood flood-opacity="0.161"/>
      <feComposite operator="in" in2="blur-4"/>
      <feComposite in="SourceGraphic"/>
    </filter>
  </defs>
  <g id="Grupo_1166721" data-name="Grupo 1166721" transform="translate(-577 -4502.542)">
    <g transform="matrix(1, 0, 0, 1, 577, 4502.54)" filter="url(#Trazado_1001891)">
      <path id="Trazado_1001891-2" data-name="Trazado 1001891" d="M108,0A108,108,0,1,1,0,108,108,108,0,0,1,108,0Z" transform="translate(213 186.46)" fill="#fff"/>
    </g>
    <g id="Grupo_1165238" data-name="Grupo 1165238" transform="translate(-65.389 4.801)">
      <g id="Grupo_1164310" data-name="Grupo 1164310" transform="translate(740.916 4497.741)">
        <g id="Grupo_1165231" data-name="Grupo 1165231" clip-path="url(#clip-path)">
          <rect id="Rectángulo_412714" data-name="Rectángulo 412714" width="249.653" height="249.653" transform="translate(0 0)" fill="#ff9d1c"/>
        </g>
      </g>
      <g id="Grupo_1164311" data-name="Grupo 1164311" transform="translate(642.389 4667.557)">
        <g id="Grupo_1165233" data-name="Grupo 1165233" clip-path="url(#clip-path-2)">
          <rect id="Rectángulo_412715" data-name="Rectángulo 412715" width="249.653" height="249.652" transform="translate(0 0)" fill="#2fcbec"/>
        </g>
      </g>
      <g id="Grupo_1164312" data-name="Grupo 1164312" transform="translate(838.659 4669.379)">
        <g id="Grupo_1165237" data-name="Grupo 1165237" clip-path="url(#clip-path-3)">
          <rect id="Rectángulo_412717" data-name="Rectángulo 412717" width="351.438" height="351.318" transform="translate(-123.095 107.809) rotate(-41.212)" fill="#1d7083"/>
        </g>
      </g>
    </g>
    <g transform="matrix(1, 0, 0, 1, 577, 4502.54)" filter="url(#Trazado_1001892)">
      <path id="Trazado_1001892-2" data-name="Trazado 1001892" d="M72,0A72,72,0,1,1,0,72,72,72,0,0,1,72,0Z" transform="translate(151 52.46)" fill="#fff"/>
    </g>
    <g transform="matrix(1, 0, 0, 1, 577, 4502.54)" filter="url(#Trazado_1001893)">
      <path id="Trazado_1001893-2" data-name="Trazado 1001893" d="M72,0A72,72,0,1,1,0,72,72,72,0,0,1,72,0Z" transform="translate(53 222.46)" fill="#fff"/>
    </g>
    <g transform="matrix(1, 0, 0, 1, 577, 4502.54)" filter="url(#Trazado_999271)">
      <path id="Trazado_999271-2" data-name="Trazado 999271" d="M72,0A71.967,71.967,0,1,1,9.645,35.979,72,72,0,0,1,72,0Z" transform="translate(249 222.46)" fill="#fff"/>
    </g>
    <path id="Trazado_1001894" data-name="Trazado 1001894" d="M-43.777,0V-12.6h4.465q6.715,0,6.715,6.144a6.212,6.212,0,0,1-1.833,4.7A6.757,6.757,0,0,1-39.312,0Zm2.839-10.292V-2.3h1.406a3.8,3.8,0,0,0,2.9-1.107,4.2,4.2,0,0,0,1.05-3.015,3.812,3.812,0,0,0-1.042-2.834,3.971,3.971,0,0,0-2.922-1.033Zm11.568-.132a1.622,1.622,0,0,1-1.151-.417,1.345,1.345,0,0,1-.448-1.024,1.3,1.3,0,0,1,.448-1.02,1.676,1.676,0,0,1,1.151-.4,1.672,1.672,0,0,1,1.156.4,1.3,1.3,0,0,1,.444,1.02,1.34,1.34,0,0,1-.444,1.037A1.65,1.65,0,0,1-29.37-10.424ZM-28,0h-2.777V-9H-28Zm16.631,0h-2.769V-5.133q0-1.96-1.441-1.96a1.324,1.324,0,0,0-1.116.589,2.42,2.42,0,0,0-.431,1.468V0H-19.9V-5.186q0-1.907-1.415-1.907a1.356,1.356,0,0,0-1.138.563A2.475,2.475,0,0,0-22.882-5V0h-2.777V-9h2.777v1.406h.035a3.321,3.321,0,0,1,1.208-1.173,3.321,3.321,0,0,1,1.7-.453,2.592,2.592,0,0,1,2.61,1.679A3.329,3.329,0,0,1-14.3-9.22q2.936,0,2.936,3.621ZM-1.083-3.709H-6.954q.141,1.96,2.47,1.96a4.822,4.822,0,0,0,2.61-.7v2A6.858,6.858,0,0,1-5.117.22,4.565,4.565,0,0,1-8.5-.989,4.566,4.566,0,0,1-9.7-4.359,4.816,4.816,0,0,1-8.4-7.91,4.334,4.334,0,0,1-5.2-9.22,3.933,3.933,0,0,1-2.16-8.051,4.5,4.5,0,0,1-1.083-4.878ZM-3.658-5.414q0-1.934-1.564-1.934a1.494,1.494,0,0,0-1.156.554,2.513,2.513,0,0,0-.593,1.38ZM9.264,0H6.5V-5Q6.5-7.093,5-7.093a1.483,1.483,0,0,0-1.187.554,2.109,2.109,0,0,0-.466,1.406V0H.571V-9H3.349v1.424h.035A3.183,3.183,0,0,1,6.275-9.22q2.988,0,2.988,3.709Zm1.61-.237v-2.25a5.913,5.913,0,0,0,1.367.615,4.531,4.531,0,0,0,1.288.2,2.762,2.762,0,0,0,1.165-.2.653.653,0,0,0,.426-.615.569.569,0,0,0-.193-.439,1.8,1.8,0,0,0-.5-.308,5.635,5.635,0,0,0-.664-.237q-.36-.105-.694-.237a6.653,6.653,0,0,1-.945-.435,2.731,2.731,0,0,1-.686-.541,2.125,2.125,0,0,1-.422-.712,2.841,2.841,0,0,1-.145-.958,2.466,2.466,0,0,1,.33-1.3,2.692,2.692,0,0,1,.879-.892,4.016,4.016,0,0,1,1.257-.51,6.553,6.553,0,0,1,1.472-.163,8.168,8.168,0,0,1,1.213.092,9.053,9.053,0,0,1,1.213.268v2.145a4.383,4.383,0,0,0-1.129-.461,4.764,4.764,0,0,0-1.182-.154,2.619,2.619,0,0,0-.514.048,1.693,1.693,0,0,0-.426.141.783.783,0,0,0-.29.237.546.546,0,0,0-.105.33.609.609,0,0,0,.158.422,1.374,1.374,0,0,0,.413.3,4.078,4.078,0,0,0,.567.229q.312.1.62.207a8.056,8.056,0,0,1,1,.422,3.2,3.2,0,0,1,.769.536,2.105,2.105,0,0,1,.492.721,2.562,2.562,0,0,1,.171.984,2.568,2.568,0,0,1-.347,1.367,2.78,2.78,0,0,1-.923.923,4.185,4.185,0,0,1-1.327.519,7.357,7.357,0,0,1-1.56.163A8.042,8.042,0,0,1,10.874-.237ZM20.79-10.424a1.622,1.622,0,0,1-1.151-.417,1.345,1.345,0,0,1-.448-1.024,1.3,1.3,0,0,1,.448-1.02,1.676,1.676,0,0,1,1.151-.4,1.672,1.672,0,0,1,1.156.4,1.3,1.3,0,0,1,.444,1.02,1.34,1.34,0,0,1-.444,1.037A1.65,1.65,0,0,1,20.79-10.424ZM22.161,0H19.383V-9h2.777ZM28.79.22a4.838,4.838,0,0,1-3.538-1.261,4.573,4.573,0,0,1-1.288-3.423A4.573,4.573,0,0,1,25.3-7.958,5.048,5.048,0,0,1,28.913-9.22a4.78,4.78,0,0,1,3.516,1.261A4.483,4.483,0,0,1,33.7-4.623a4.759,4.759,0,0,1-1.314,3.542A4.892,4.892,0,0,1,28.79.22Zm.07-7.312a1.852,1.852,0,0,0-1.529.677A2.984,2.984,0,0,0,26.786-4.5q0,2.593,2.092,2.593,2,0,2-2.663Q30.873-7.093,28.86-7.093Zm2.979-6.17-2.751,2.839h-2l2.285-2.839ZM44.19,0H41.421V-5q0-2.092-1.494-2.092a1.483,1.483,0,0,0-1.187.554,2.109,2.109,0,0,0-.466,1.406V0H35.5V-9h2.777v1.424h.035A3.183,3.183,0,0,1,41.2-9.22q2.988,0,2.988,3.709ZM-36.526,27h-7.559V14.4h7.269v2.312h-4.43v2.8h4.122v2.3h-4.122V24.7h4.72Zm8.571-.325a5.492,5.492,0,0,1-2.716.545,4.593,4.593,0,0,1-3.357-1.257,4.341,4.341,0,0,1-1.283-3.243A4.782,4.782,0,0,1-33.936,19.1a5.083,5.083,0,0,1,3.678-1.323,4.72,4.72,0,0,1,2.3.422v2.355a3.166,3.166,0,0,0-1.942-.65,2.559,2.559,0,0,0-1.894.7,2.607,2.607,0,0,0-.7,1.929,2.565,2.565,0,0,0,.668,1.876,2.455,2.455,0,0,0,1.837.681,3.666,3.666,0,0,0,2.03-.65Zm6.11.545a4.838,4.838,0,0,1-3.538-1.261,4.573,4.573,0,0,1-1.288-3.423,4.573,4.573,0,0,1,1.336-3.494,5.048,5.048,0,0,1,3.612-1.261,4.78,4.78,0,0,1,3.516,1.261,4.483,4.483,0,0,1,1.274,3.335,4.759,4.759,0,0,1-1.314,3.542A4.892,4.892,0,0,1-21.844,27.22Zm.07-7.312a1.852,1.852,0,0,0-1.529.677,2.984,2.984,0,0,0-.545,1.916q0,2.593,2.092,2.593,2,0,2-2.663Q-19.761,19.907-21.774,19.907ZM-6.435,27H-9.2V22q0-2.092-1.494-2.092a1.483,1.483,0,0,0-1.187.554,2.109,2.109,0,0,0-.466,1.406V27h-2.777V18h2.777v1.424h.035A3.183,3.183,0,0,1-9.424,17.78q2.988,0,2.988,3.709Zm6.488.22a4.838,4.838,0,0,1-3.538-1.261,4.573,4.573,0,0,1-1.288-3.423,4.573,4.573,0,0,1,1.336-3.494A5.048,5.048,0,0,1,.176,17.78a4.78,4.78,0,0,1,3.516,1.261,4.483,4.483,0,0,1,1.274,3.335,4.759,4.759,0,0,1-1.314,3.542A4.892,4.892,0,0,1,.053,27.22Zm.07-7.312a1.852,1.852,0,0,0-1.529.677A2.984,2.984,0,0,0-1.951,22.5q0,2.593,2.092,2.593,2,0,2-2.663Q2.136,19.907.123,19.907ZM3.1,13.737.352,16.576h-2L.633,13.737ZM21.052,27H18.283V21.867q0-1.96-1.441-1.96a1.324,1.324,0,0,0-1.116.589,2.42,2.42,0,0,0-.431,1.468V27H12.517V21.814q0-1.907-1.415-1.907a1.356,1.356,0,0,0-1.138.563A2.475,2.475,0,0,0,9.538,22v5H6.761V18H9.538v1.406h.035a3.41,3.41,0,0,1,2.909-1.626,2.592,2.592,0,0,1,2.61,1.679,3.329,3.329,0,0,1,3.023-1.679q2.936,0,2.936,3.621Zm3.605-10.424a1.622,1.622,0,0,1-1.151-.417,1.345,1.345,0,0,1-.448-1.024,1.3,1.3,0,0,1,.448-1.02,1.88,1.88,0,0,1,2.307,0,1.3,1.3,0,0,1,.444,1.02,1.34,1.34,0,0,1-.444,1.037A1.65,1.65,0,0,1,24.657,16.576ZM26.028,27H23.251V18h2.777Zm9.16-.325a5.492,5.492,0,0,1-2.716.545,4.593,4.593,0,0,1-3.357-1.257,4.341,4.341,0,0,1-1.283-3.243A4.782,4.782,0,0,1,29.207,19.1a5.083,5.083,0,0,1,3.678-1.323,4.72,4.72,0,0,1,2.3.422v2.355a3.166,3.166,0,0,0-1.942-.65,2.559,2.559,0,0,0-1.894.7,2.607,2.607,0,0,0-.7,1.929,2.565,2.565,0,0,0,.668,1.876,2.455,2.455,0,0,0,1.837.681,3.666,3.666,0,0,0,2.03-.65ZM44.5,27H41.87V25.708h-.035a2.933,2.933,0,0,1-2.681,1.512,2.8,2.8,0,0,1-2.061-.743,2.661,2.661,0,0,1-.751-1.982q0-2.619,3.1-3.023l2.443-.325q0-1.477-1.6-1.477a5.46,5.46,0,0,0-3.059.958V18.536a6.881,6.881,0,0,1,1.586-.527,8.339,8.339,0,0,1,1.833-.229q3.85,0,3.85,3.841Zm-2.61-3.656v-.606l-1.635.211Q38.9,23.124,38.9,24.17a1.01,1.01,0,0,0,.33.778,1.266,1.266,0,0,0,.892.3,1.644,1.644,0,0,0,1.274-.541A1.952,1.952,0,0,0,41.887,23.344Z" transform="translate(800 4618)" fill="#212429"/>
    <path id="Trazado_1001895" data-name="Trazado 1001895" d="M-43.777,0V-12.6h4.465q6.715,0,6.715,6.144a6.212,6.212,0,0,1-1.833,4.7A6.757,6.757,0,0,1-39.312,0Zm2.839-10.292V-2.3h1.406a3.8,3.8,0,0,0,2.9-1.107,4.2,4.2,0,0,0,1.05-3.015,3.812,3.812,0,0,0-1.042-2.834,3.971,3.971,0,0,0-2.922-1.033Zm11.568-.132a1.622,1.622,0,0,1-1.151-.417,1.345,1.345,0,0,1-.448-1.024,1.3,1.3,0,0,1,.448-1.02,1.676,1.676,0,0,1,1.151-.4,1.672,1.672,0,0,1,1.156.4,1.3,1.3,0,0,1,.444,1.02,1.34,1.34,0,0,1-.444,1.037A1.65,1.65,0,0,1-29.37-10.424ZM-28,0h-2.777V-9H-28Zm16.631,0h-2.769V-5.133q0-1.96-1.441-1.96a1.324,1.324,0,0,0-1.116.589,2.42,2.42,0,0,0-.431,1.468V0H-19.9V-5.186q0-1.907-1.415-1.907a1.356,1.356,0,0,0-1.138.563A2.475,2.475,0,0,0-22.882-5V0h-2.777V-9h2.777v1.406h.035a3.321,3.321,0,0,1,1.208-1.173,3.321,3.321,0,0,1,1.7-.453,2.592,2.592,0,0,1,2.61,1.679A3.329,3.329,0,0,1-14.3-9.22q2.936,0,2.936,3.621ZM-1.083-3.709H-6.954q.141,1.96,2.47,1.96a4.822,4.822,0,0,0,2.61-.7v2A6.858,6.858,0,0,1-5.117.22,4.565,4.565,0,0,1-8.5-.989,4.566,4.566,0,0,1-9.7-4.359,4.816,4.816,0,0,1-8.4-7.91,4.334,4.334,0,0,1-5.2-9.22,3.933,3.933,0,0,1-2.16-8.051,4.5,4.5,0,0,1-1.083-4.878ZM-3.658-5.414q0-1.934-1.564-1.934a1.494,1.494,0,0,0-1.156.554,2.513,2.513,0,0,0-.593,1.38ZM9.264,0H6.5V-5Q6.5-7.093,5-7.093a1.483,1.483,0,0,0-1.187.554,2.109,2.109,0,0,0-.466,1.406V0H.571V-9H3.349v1.424h.035A3.183,3.183,0,0,1,6.275-9.22q2.988,0,2.988,3.709Zm1.61-.237v-2.25a5.913,5.913,0,0,0,1.367.615,4.531,4.531,0,0,0,1.288.2,2.762,2.762,0,0,0,1.165-.2.653.653,0,0,0,.426-.615.569.569,0,0,0-.193-.439,1.8,1.8,0,0,0-.5-.308,5.635,5.635,0,0,0-.664-.237q-.36-.105-.694-.237a6.653,6.653,0,0,1-.945-.435,2.731,2.731,0,0,1-.686-.541,2.125,2.125,0,0,1-.422-.712,2.841,2.841,0,0,1-.145-.958,2.466,2.466,0,0,1,.33-1.3,2.692,2.692,0,0,1,.879-.892,4.016,4.016,0,0,1,1.257-.51,6.553,6.553,0,0,1,1.472-.163,8.168,8.168,0,0,1,1.213.092,9.053,9.053,0,0,1,1.213.268v2.145a4.383,4.383,0,0,0-1.129-.461,4.764,4.764,0,0,0-1.182-.154,2.619,2.619,0,0,0-.514.048,1.693,1.693,0,0,0-.426.141.783.783,0,0,0-.29.237.546.546,0,0,0-.105.33.609.609,0,0,0,.158.422,1.374,1.374,0,0,0,.413.3,4.078,4.078,0,0,0,.567.229q.312.1.62.207a8.056,8.056,0,0,1,1,.422,3.2,3.2,0,0,1,.769.536,2.105,2.105,0,0,1,.492.721,2.562,2.562,0,0,1,.171.984,2.568,2.568,0,0,1-.347,1.367,2.78,2.78,0,0,1-.923.923,4.185,4.185,0,0,1-1.327.519,7.357,7.357,0,0,1-1.56.163A8.042,8.042,0,0,1,10.874-.237ZM20.79-10.424a1.622,1.622,0,0,1-1.151-.417,1.345,1.345,0,0,1-.448-1.024,1.3,1.3,0,0,1,.448-1.02,1.676,1.676,0,0,1,1.151-.4,1.672,1.672,0,0,1,1.156.4,1.3,1.3,0,0,1,.444,1.02,1.34,1.34,0,0,1-.444,1.037A1.65,1.65,0,0,1,20.79-10.424ZM22.161,0H19.383V-9h2.777ZM28.79.22a4.838,4.838,0,0,1-3.538-1.261,4.573,4.573,0,0,1-1.288-3.423A4.573,4.573,0,0,1,25.3-7.958,5.048,5.048,0,0,1,28.913-9.22a4.78,4.78,0,0,1,3.516,1.261A4.483,4.483,0,0,1,33.7-4.623a4.759,4.759,0,0,1-1.314,3.542A4.892,4.892,0,0,1,28.79.22Zm.07-7.312a1.852,1.852,0,0,0-1.529.677A2.984,2.984,0,0,0,26.786-4.5q0,2.593,2.092,2.593,2,0,2-2.663Q30.873-7.093,28.86-7.093Zm2.979-6.17-2.751,2.839h-2l2.285-2.839ZM44.19,0H41.421V-5q0-2.092-1.494-2.092a1.483,1.483,0,0,0-1.187.554,2.109,2.109,0,0,0-.466,1.406V0H35.5V-9h2.777v1.424h.035A3.183,3.183,0,0,1,41.2-9.22q2.988,0,2.988,3.709ZM-33.792,27H-36.42V25.708h-.035a2.933,2.933,0,0,1-2.681,1.512,2.8,2.8,0,0,1-2.061-.743,2.661,2.661,0,0,1-.751-1.982q0-2.619,3.1-3.023l2.443-.325q0-1.477-1.6-1.477a5.46,5.46,0,0,0-3.059.958V18.536a6.881,6.881,0,0,1,1.586-.527,8.339,8.339,0,0,1,1.833-.229q3.85,0,3.85,3.841Zm-2.61-3.656v-.606l-1.635.211q-1.354.176-1.354,1.222a1.01,1.01,0,0,0,.33.778,1.266,1.266,0,0,0,.892.3,1.644,1.644,0,0,0,1.274-.541A1.952,1.952,0,0,0-36.4,23.344ZM-17.3,27h-2.769V21.867q0-1.96-1.441-1.96a1.324,1.324,0,0,0-1.116.589,2.42,2.42,0,0,0-.431,1.468V27h-2.777V21.814q0-1.907-1.415-1.907a1.356,1.356,0,0,0-1.138.563A2.475,2.475,0,0,0-28.816,22v5h-2.777V18h2.777v1.406h.035a3.321,3.321,0,0,1,1.208-1.173,3.321,3.321,0,0,1,1.7-.453,2.592,2.592,0,0,1,2.61,1.679,3.329,3.329,0,0,1,3.023-1.679q2.936,0,2.936,3.621Zm5.012-1.046h-.035V27H-15.1V13.676h2.777v5.678h.035A3.3,3.3,0,0,1-9.364,17.78a3.211,3.211,0,0,1,2.681,1.2,5.155,5.155,0,0,1,.94,3.27,5.582,5.582,0,0,1-1.1,3.612A3.579,3.579,0,0,1-9.777,27.22,2.836,2.836,0,0,1-12.291,25.954Zm-.079-3.8v.923a2.107,2.107,0,0,0,.5,1.441,1.63,1.63,0,0,0,1.283.571,1.7,1.7,0,0,0,1.472-.734,3.543,3.543,0,0,0,.523-2.079,2.819,2.819,0,0,0-.479-1.745,1.616,1.616,0,0,0-1.367-.628,1.766,1.766,0,0,0-1.384.624A2.37,2.37,0,0,0-12.37,22.157Zm9.837-5.581a1.622,1.622,0,0,1-1.151-.417,1.345,1.345,0,0,1-.448-1.024,1.3,1.3,0,0,1,.448-1.02,1.676,1.676,0,0,1,1.151-.4,1.672,1.672,0,0,1,1.156.4,1.3,1.3,0,0,1,.444,1.02,1.34,1.34,0,0,1-.444,1.037A1.65,1.65,0,0,1-2.533,16.576ZM-1.162,27H-3.939V18h2.777ZM9.264,23.291H3.393q.141,1.96,2.47,1.96a4.822,4.822,0,0,0,2.61-.7v2a6.858,6.858,0,0,1-3.243.668,4.565,4.565,0,0,1-3.384-1.208,4.566,4.566,0,0,1-1.2-3.371,4.816,4.816,0,0,1,1.3-3.551,4.334,4.334,0,0,1,3.2-1.31,3.933,3.933,0,0,1,3.045,1.169,4.5,4.5,0,0,1,1.077,3.173ZM6.688,21.586q0-1.934-1.564-1.934a1.494,1.494,0,0,0-1.156.554,2.513,2.513,0,0,0-.593,1.38ZM19.61,27H16.842V22q0-2.092-1.494-2.092a1.483,1.483,0,0,0-1.187.554,2.109,2.109,0,0,0-.466,1.406V27H10.918V18H13.7v1.424h.035a3.183,3.183,0,0,1,2.892-1.644q2.988,0,2.988,3.709Zm7.639-.105a4.105,4.105,0,0,1-1.854.325q-2.936,0-2.936-3.05V20.048H21V18H22.46V16.058l2.769-.791V18H27.25v2.048H25.228v3.639q0,1.406,1.116,1.406a1.882,1.882,0,0,0,.905-.255ZM36.3,27H33.676V25.708h-.035A2.933,2.933,0,0,1,30.96,27.22a2.8,2.8,0,0,1-2.061-.743,2.661,2.661,0,0,1-.751-1.982q0-2.619,3.1-3.023l2.443-.325q0-1.477-1.6-1.477a5.46,5.46,0,0,0-3.059.958V18.536a6.881,6.881,0,0,1,1.586-.527,8.339,8.339,0,0,1,1.833-.229q3.85,0,3.85,3.841Zm-2.61-3.656v-.606l-1.635.211q-1.354.176-1.354,1.222a1.01,1.01,0,0,0,.33.778,1.266,1.266,0,0,0,.892.3A1.644,1.644,0,0,0,33.2,24.71,1.952,1.952,0,0,0,33.694,23.344ZM41.281,27H38.5V13.676h2.777Z" transform="translate(897 4796)" fill="#212429"/>
    <path id="Trazado_1001896" data-name="Trazado 1001896" d="M-43.777,0V-12.6h4.465q6.715,0,6.715,6.144a6.212,6.212,0,0,1-1.833,4.7A6.757,6.757,0,0,1-39.312,0Zm2.839-10.292V-2.3h1.406a3.8,3.8,0,0,0,2.9-1.107,4.2,4.2,0,0,0,1.05-3.015,3.812,3.812,0,0,0-1.042-2.834,3.971,3.971,0,0,0-2.922-1.033Zm11.568-.132a1.622,1.622,0,0,1-1.151-.417,1.345,1.345,0,0,1-.448-1.024,1.3,1.3,0,0,1,.448-1.02,1.676,1.676,0,0,1,1.151-.4,1.672,1.672,0,0,1,1.156.4,1.3,1.3,0,0,1,.444,1.02,1.34,1.34,0,0,1-.444,1.037A1.65,1.65,0,0,1-29.37-10.424ZM-28,0h-2.777V-9H-28Zm16.631,0h-2.769V-5.133q0-1.96-1.441-1.96a1.324,1.324,0,0,0-1.116.589,2.42,2.42,0,0,0-.431,1.468V0H-19.9V-5.186q0-1.907-1.415-1.907a1.356,1.356,0,0,0-1.138.563A2.475,2.475,0,0,0-22.882-5V0h-2.777V-9h2.777v1.406h.035a3.321,3.321,0,0,1,1.208-1.173,3.321,3.321,0,0,1,1.7-.453,2.592,2.592,0,0,1,2.61,1.679A3.329,3.329,0,0,1-14.3-9.22q2.936,0,2.936,3.621ZM-1.083-3.709H-6.954q.141,1.96,2.47,1.96a4.822,4.822,0,0,0,2.61-.7v2A6.858,6.858,0,0,1-5.117.22,4.565,4.565,0,0,1-8.5-.989,4.566,4.566,0,0,1-9.7-4.359,4.816,4.816,0,0,1-8.4-7.91,4.334,4.334,0,0,1-5.2-9.22,3.933,3.933,0,0,1-2.16-8.051,4.5,4.5,0,0,1-1.083-4.878ZM-3.658-5.414q0-1.934-1.564-1.934a1.494,1.494,0,0,0-1.156.554,2.513,2.513,0,0,0-.593,1.38ZM9.264,0H6.5V-5Q6.5-7.093,5-7.093a1.483,1.483,0,0,0-1.187.554,2.109,2.109,0,0,0-.466,1.406V0H.571V-9H3.349v1.424h.035A3.183,3.183,0,0,1,6.275-9.22q2.988,0,2.988,3.709Zm1.61-.237v-2.25a5.913,5.913,0,0,0,1.367.615,4.531,4.531,0,0,0,1.288.2,2.762,2.762,0,0,0,1.165-.2.653.653,0,0,0,.426-.615.569.569,0,0,0-.193-.439,1.8,1.8,0,0,0-.5-.308,5.635,5.635,0,0,0-.664-.237q-.36-.105-.694-.237a6.653,6.653,0,0,1-.945-.435,2.731,2.731,0,0,1-.686-.541,2.125,2.125,0,0,1-.422-.712,2.841,2.841,0,0,1-.145-.958,2.466,2.466,0,0,1,.33-1.3,2.692,2.692,0,0,1,.879-.892,4.016,4.016,0,0,1,1.257-.51,6.553,6.553,0,0,1,1.472-.163,8.168,8.168,0,0,1,1.213.092,9.053,9.053,0,0,1,1.213.268v2.145a4.383,4.383,0,0,0-1.129-.461,4.764,4.764,0,0,0-1.182-.154,2.619,2.619,0,0,0-.514.048,1.693,1.693,0,0,0-.426.141.783.783,0,0,0-.29.237.546.546,0,0,0-.105.33.609.609,0,0,0,.158.422,1.374,1.374,0,0,0,.413.3,4.078,4.078,0,0,0,.567.229q.312.1.62.207a8.056,8.056,0,0,1,1,.422,3.2,3.2,0,0,1,.769.536,2.105,2.105,0,0,1,.492.721,2.562,2.562,0,0,1,.171.984,2.568,2.568,0,0,1-.347,1.367,2.78,2.78,0,0,1-.923.923,4.185,4.185,0,0,1-1.327.519,7.357,7.357,0,0,1-1.56.163A8.042,8.042,0,0,1,10.874-.237ZM20.79-10.424a1.622,1.622,0,0,1-1.151-.417,1.345,1.345,0,0,1-.448-1.024,1.3,1.3,0,0,1,.448-1.02,1.676,1.676,0,0,1,1.151-.4,1.672,1.672,0,0,1,1.156.4,1.3,1.3,0,0,1,.444,1.02,1.34,1.34,0,0,1-.444,1.037A1.65,1.65,0,0,1,20.79-10.424ZM22.161,0H19.383V-9h2.777ZM28.79.22a4.838,4.838,0,0,1-3.538-1.261,4.573,4.573,0,0,1-1.288-3.423A4.573,4.573,0,0,1,25.3-7.958,5.048,5.048,0,0,1,28.913-9.22a4.78,4.78,0,0,1,3.516,1.261A4.483,4.483,0,0,1,33.7-4.623a4.759,4.759,0,0,1-1.314,3.542A4.892,4.892,0,0,1,28.79.22Zm.07-7.312a1.852,1.852,0,0,0-1.529.677A2.984,2.984,0,0,0,26.786-4.5q0,2.593,2.092,2.593,2,0,2-2.663Q30.873-7.093,28.86-7.093Zm2.979-6.17-2.751,2.839h-2l2.285-2.839ZM44.19,0H41.421V-5q0-2.092-1.494-2.092a1.483,1.483,0,0,0-1.187.554,2.109,2.109,0,0,0-.466,1.406V0H35.5V-9h2.777v1.424h.035A3.183,3.183,0,0,1,41.2-9.22q2.988,0,2.988,3.709ZM-23.164,26.763v-2.25a5.913,5.913,0,0,0,1.367.615,4.531,4.531,0,0,0,1.288.2,2.762,2.762,0,0,0,1.165-.2.653.653,0,0,0,.426-.615.569.569,0,0,0-.193-.439,1.8,1.8,0,0,0-.5-.308,5.635,5.635,0,0,0-.664-.237q-.36-.105-.694-.237a6.653,6.653,0,0,1-.945-.435,2.731,2.731,0,0,1-.686-.541,2.125,2.125,0,0,1-.422-.712,2.841,2.841,0,0,1-.145-.958,2.466,2.466,0,0,1,.33-1.3,2.692,2.692,0,0,1,.879-.892,4.016,4.016,0,0,1,1.257-.51,6.553,6.553,0,0,1,1.472-.163,8.168,8.168,0,0,1,1.213.092,9.053,9.053,0,0,1,1.213.268v2.145a4.383,4.383,0,0,0-1.129-.461,4.764,4.764,0,0,0-1.182-.154,2.619,2.619,0,0,0-.514.048,1.693,1.693,0,0,0-.426.141.783.783,0,0,0-.29.237.546.546,0,0,0-.105.33.609.609,0,0,0,.158.422,1.374,1.374,0,0,0,.413.3,4.078,4.078,0,0,0,.567.229q.312.1.62.207a8.056,8.056,0,0,1,1,.422,3.2,3.2,0,0,1,.769.536,2.105,2.105,0,0,1,.492.721,2.562,2.562,0,0,1,.171.984,2.568,2.568,0,0,1-.347,1.367,2.78,2.78,0,0,1-.923.923,4.185,4.185,0,0,1-1.327.519,7.357,7.357,0,0,1-1.56.163A8.042,8.042,0,0,1-23.164,26.763Zm12.8.457A4.838,4.838,0,0,1-13.9,25.958a4.573,4.573,0,0,1-1.288-3.423,4.573,4.573,0,0,1,1.336-3.494,5.048,5.048,0,0,1,3.612-1.261,4.78,4.78,0,0,1,3.516,1.261,4.483,4.483,0,0,1,1.274,3.335,4.759,4.759,0,0,1-1.314,3.542A4.892,4.892,0,0,1-10.365,27.22Zm.07-7.312a1.852,1.852,0,0,0-1.529.677,2.984,2.984,0,0,0-.545,1.916q0,2.593,2.092,2.593,2,0,2-2.663Q-8.282,19.907-10.295,19.907ZM3.172,26.675a5.492,5.492,0,0,1-2.716.545A4.593,4.593,0,0,1-2.9,25.963,4.341,4.341,0,0,1-4.184,22.72,4.782,4.782,0,0,1-2.809,19.1,5.083,5.083,0,0,1,.869,17.78a4.72,4.72,0,0,1,2.3.422v2.355a3.166,3.166,0,0,0-1.942-.65,2.559,2.559,0,0,0-1.894.7,2.607,2.607,0,0,0-.7,1.929A2.565,2.565,0,0,0-.7,24.412a2.455,2.455,0,0,0,1.837.681,3.666,3.666,0,0,0,2.03-.65ZM6.4,16.576a1.622,1.622,0,0,1-1.151-.417A1.345,1.345,0,0,1,4.8,15.135a1.3,1.3,0,0,1,.448-1.02,1.676,1.676,0,0,1,1.151-.4,1.672,1.672,0,0,1,1.156.4A1.3,1.3,0,0,1,8,15.135a1.34,1.34,0,0,1-.444,1.037A1.65,1.65,0,0,1,6.4,16.576ZM7.77,27H4.993V18H7.77ZM17.6,27H14.97V25.708h-.035a2.933,2.933,0,0,1-2.681,1.512,2.8,2.8,0,0,1-2.061-.743A2.661,2.661,0,0,1,9.442,24.5q0-2.619,3.1-3.023l2.443-.325q0-1.477-1.6-1.477a5.46,5.46,0,0,0-3.059.958V18.536a6.881,6.881,0,0,1,1.586-.527,8.339,8.339,0,0,1,1.833-.229q3.85,0,3.85,3.841Zm-2.61-3.656v-.606l-1.635.211Q12,23.124,12,24.17a1.01,1.01,0,0,0,.33.778,1.266,1.266,0,0,0,.892.3A1.644,1.644,0,0,0,14.5,24.71,1.952,1.952,0,0,0,14.988,23.344ZM22.575,27H19.8V13.676h2.777Z" transform="translate(702 4796)" fill="#212429"/>
  </g>
</svg>
