<svg xmlns="http://www.w3.org/2000/svg" xmlns:xlink="http://www.w3.org/1999/xlink" width="113" height="113" viewBox="0 0 113 113">
  <defs>
    <filter id="Trazado_982547" x="0" y="0" width="113" height="113" filterUnits="userSpaceOnUse">
      <feOffset dy="3" input="SourceAlpha"/>
      <feGaussianBlur stdDeviation="3" result="blur"/>
      <feFlood flood-opacity="0.161"/>
      <feComposite operator="in" in2="blur"/>
      <feComposite in="SourceGraphic"/>
    </filter>
  </defs>
  <g id="Grupo_1165530" data-name="Grupo 1165530" transform="translate(-195.895 -5769)">
    <g id="Grupo_1165241" data-name="Grupo 1165241" transform="translate(204.895 5775)">
      <g id="Grupo_1163948" data-name="Grupo 1163948" transform="translate(0)">
        <g id="Grupo_1158168" data-name="Grupo 1158168" transform="translate(0)">
          <g id="Grupo_1152576" data-name="Grupo 1152576">
            <g id="Grupo_1148633" data-name="Grupo 1148633">
              <g id="Grupo_1148525" data-name="Grupo 1148525">
                <g transform="matrix(1, 0, 0, 1, -9, -6)" filter="url(#Trazado_982547)">
                  <g id="Trazado_982547-2" data-name="Trazado 982547" transform="translate(9 6)" fill="#e9f9fd">
                    <path d="M 47.5 93.5 C 41.28937149047852 93.5 35.26533508300781 92.28397369384766 29.59518623352051 89.88570404052734 C 24.11771965026855 87.56893157958984 19.19813346862793 84.25196075439453 14.97309303283691 80.02691650390625 C 10.74804019927979 75.80186462402344 7.431066513061523 70.88229370117188 5.114293098449707 65.40481567382812 C 2.716026782989502 59.73468017578125 1.5 53.71062850952148 1.5 47.5 C 1.5 41.28937149047852 2.716026782989502 35.26533508300781 5.114293098449707 29.59518623352051 C 7.431066513061523 24.11771965026855 10.74804019927979 19.19813346862793 14.97309303283691 14.97309303283691 C 19.19813346862793 10.74804019927979 24.11771965026855 7.431066513061523 29.59518623352051 5.114293098449707 C 35.26533508300781 2.716026782989502 41.28937149047852 1.5 47.5 1.5 C 53.71062850952148 1.5 59.73468017578125 2.716026782989502 65.40481567382812 5.114293098449707 C 70.88229370117188 7.431066513061523 75.80186462402344 10.74804019927979 80.02691650390625 14.97309303283691 C 84.25196075439453 19.19813346862793 87.56893157958984 24.11771965026855 89.88570404052734 29.59518623352051 C 92.28397369384766 35.26533508300781 93.5 41.28937149047852 93.5 47.5 C 93.5 53.71062850952148 92.28397369384766 59.73468017578125 89.88570404052734 65.40481567382812 C 87.56893157958984 70.88229370117188 84.25196075439453 75.80186462402344 80.02691650390625 80.02691650390625 C 75.80186462402344 84.25196075439453 70.88229370117188 87.56893157958984 65.40481567382812 89.88570404052734 C 59.73468017578125 92.28397369384766 53.71062850952148 93.5 47.5 93.5 Z" stroke="none"/>
                    <path d="M 47.5 3 C 41.49121475219727 3 35.66376876831055 4.176155090332031 30.17950439453125 6.495796203613281 C 24.88084411621094 8.736953735351562 20.12152099609375 11.94598388671875 16.03375244140625 16.03375244140625 C 11.94598388671875 20.12152099609375 8.736953735351562 24.88084411621094 6.495796203613281 30.17950439453125 C 4.176155090332031 35.66376876831055 3 41.49121475219727 3 47.5 C 3 53.50878524780273 4.176155090332031 59.33623123168945 6.495796203613281 64.82049560546875 C 8.736953735351562 70.11915588378906 11.94598388671875 74.87847900390625 16.03375244140625 78.96624755859375 C 20.12152099609375 83.05401611328125 24.88084411621094 86.26304626464844 30.17950439453125 88.50419616699219 C 35.66376876831055 90.82384490966797 41.49121475219727 92 47.5 92 C 53.50878524780273 92 59.33623123168945 90.82384490966797 64.82049560546875 88.50419616699219 C 70.11915588378906 86.26304626464844 74.87847900390625 83.05401611328125 78.96624755859375 78.96624755859375 C 83.05401611328125 74.87847900390625 86.26304626464844 70.11915588378906 88.50419616699219 64.82049560546875 C 90.82384490966797 59.33623123168945 92 53.50878524780273 92 47.5 C 92 41.49121475219727 90.82384490966797 35.66376876831055 88.50419616699219 30.17950439453125 C 86.26304626464844 24.88084411621094 83.05401611328125 20.12152099609375 78.96624755859375 16.03375244140625 C 74.87847900390625 11.94598388671875 70.11915588378906 8.736953735351562 64.82049560546875 6.495796203613281 C 59.33623123168945 4.176155090332031 53.50878524780273 3 47.5 3 M 47.5 0 C 73.7335205078125 0 95 21.2664794921875 95 47.5 C 95 73.7335205078125 73.7335205078125 95 47.5 95 C 21.2664794921875 95 0 73.7335205078125 0 47.5 C 0 21.2664794921875 21.2664794921875 0 47.5 0 Z" stroke="none" fill="#36ceef"/>
                  </g>
                </g>
              </g>
            </g>
          </g>
        </g>
      </g>
    </g>
    <g id="civil-rights_18278713" transform="translate(218.918 5789.021)">
      <path id="Trazado_1000829" data-name="Trazado 1000829" d="M212.135,61.707a6.064,6.064,0,0,1,.554-1.56c1.532-3.012,3.163-3.7,3.659-7.568a6.638,6.638,0,0,0-.536-4.091,2.633,2.633,0,0,0-2.468-1.2h-4.211l-7.293.4-.882,1.9c-1.188,9.829,1.378,7.834,1.329,11.077l-.015.976a1.449,1.449,0,0,1,.4-.056h8.867a1.446,1.446,0,0,1,.6.128Z" transform="translate(-173.642 -38.222)" fill="#ffcec0" fill-rule="evenodd"/>
      <path id="Trazado_1000830" data-name="Trazado 1000830" d="M204.493,24.353V27.1a1.487,1.487,0,1,1-2.974,0V24.353a1.487,1.487,0,0,1,2.974,0Z" transform="translate(-174.415 -16.659)" fill="#fdc0b1" fill-rule="evenodd"/>
      <path id="Trazado_1000831" data-name="Trazado 1000831" d="M284.874,17.57v2.006l3.33.026V17.57a1.665,1.665,0,0,0-3.33,0Z" transform="translate(-248.02 -10.512)" fill="#fdc0b1" fill-rule="evenodd"/>
      <path id="Trazado_1000832" data-name="Trazado 1000832" d="M255.271,16.5a1.73,1.73,0,0,1-.227-.858v-2.9a1.745,1.745,0,1,1,3.489,0v2.306a3.73,3.73,0,0,0-3.143,1.258Q255.325,16.406,255.271,16.5Z" transform="translate(-221.679 -6.185)" fill="#fdc0b1" fill-rule="evenodd"/>
      <path id="Trazado_1000833" data-name="Trazado 1000833" d="M228.588,15.258a1.648,1.648,0,0,1,1.644,1.644v3.3a1.644,1.644,0,0,1-3.287,0V16.9A1.648,1.648,0,0,1,228.588,15.258Z" transform="translate(-196.866 -9.941)" fill="#fdc0b1" fill-rule="evenodd"/>
      <path id="Trazado_1000834" data-name="Trazado 1000834" d="M307.208,311.653c0-7.136,5.613-8.684,11.351-8.614,5.594.068,11.317,1.574,11.317,8.614v10.269a2.55,2.55,0,0,1-4.357,1.8v2.469H311.565v-2.469a2.55,2.55,0,0,1-4.357-1.8Z" transform="translate(-267.741 -264.056)" fill="#85caff" fill-rule="evenodd"/>
      <path id="Trazado_1000835" data-name="Trazado 1000835" d="M366.808,198.559a4.94,4.94,0,1,1-4.94,4.94A4.94,4.94,0,0,1,366.808,198.559Z" transform="translate(-316.007 -171.8)" fill="#ffcec0" fill-rule="evenodd"/>
      <path id="Trazado_1000836" data-name="Trazado 1000836" d="M10.99,311.653c0-7.136,5.613-8.684,11.351-8.614,5.594.068,11.317,1.574,11.317,8.614v10.269a2.55,2.55,0,0,1-4.357,1.8v2.469H15.347v-2.469a2.55,2.55,0,0,1-4.357-1.8Z" transform="translate(-6.174 -264.056)" fill="#85caff" fill-rule="evenodd"/>
      <path id="Trazado_1000837" data-name="Trazado 1000837" d="M70.59,198.559a4.94,4.94,0,1,1-4.94,4.94A4.94,4.94,0,0,1,70.59,198.559Z" transform="translate(-54.44 -171.8)" fill="#ffcec0" fill-rule="evenodd"/>
      <path id="Trazado_1000838" data-name="Trazado 1000838" d="M215.984,167.612h-8.845a1.459,1.459,0,0,0-1.454,1.454v22.583h11.753V169.066a1.459,1.459,0,0,0-1.454-1.454Z" transform="translate(-178.094 -144.473)" fill="#85caff" fill-rule="evenodd"/>
      <circle id="Elipse_11724" data-name="Elipse 11724" cx="9.465" cy="9.465" r="9.465" transform="matrix(0.999, -0.036, 0.036, 0.999, 23.681, 31.104)" fill="#b8e739"/>
      <g id="Grupo_1165529" data-name="Grupo 1165529" transform="translate(3.998 4)">
        <path id="Trazado_1000839" data-name="Trazado 1000839" d="M56.753,121.447a5.939,5.939,0,0,1-11.877,0Z" transform="translate(-40.094 -107.708)" fill="#ffeb87" fill-rule="evenodd"/>
        <path id="Trazado_1000840" data-name="Trazado 1000840" d="M377.449,121.447a5.938,5.938,0,1,1-11.877,0Z" transform="translate(-323.276 -107.708)" fill="#ffeb87" fill-rule="evenodd"/>
        <path id="Trazado_1000841" data-name="Trazado 1000841" d="M319.35,320.828H305.394a.819.819,0,0,1-.819-.819v-1.047a3.373,3.373,0,0,1-4.356-3.226v-7.172a.819.819,0,0,1,1.638,0v7.172a1.731,1.731,0,0,0,2.958,1.224.819.819,0,0,1,1.4.579v1.65h12.318v-1.65a.819.819,0,0,1,1.4-.579,1.731,1.731,0,0,0,2.958-1.224V305.468c0-5.232-3.338-7.709-10.508-7.8a18.68,18.68,0,0,0-5.171.56.819.819,0,1,1-.441-1.577,20,20,0,0,1,5.632-.621c3.517.042,6.188.634,8.164,1.807,2.629,1.561,3.962,4.127,3.962,7.626v10.269a3.373,3.373,0,0,1-4.356,3.226v1.047a.819.819,0,0,1-.819.819Z" transform="translate(-265.568 -261.872)" fill="#242222" fill-rule="evenodd"/>
        <path id="Trazado_1000842" data-name="Trazado 1000842" d="M360.639,193.193a4.121,4.121,0,1,0,4.121,4.121A4.125,4.125,0,0,0,360.639,193.193Zm0,9.88a5.759,5.759,0,1,1,5.759-5.759A5.765,5.765,0,0,1,360.639,203.073Z" transform="translate(-313.834 -169.615)" fill="#242222" fill-rule="evenodd"/>
        <path id="Trazado_1000843" data-name="Trazado 1000843" d="M338.279,387.111a.819.819,0,0,1-.819-.819V374.712a.819.819,0,0,1,1.638,0v11.581A.818.818,0,0,1,338.279,387.111Z" transform="translate(-298.452 -330.624)" fill="#242222" fill-rule="evenodd"/>
        <path id="Trazado_1000844" data-name="Trazado 1000844" d="M457.581,387.111a.818.818,0,0,1-.819-.819V374.712a.819.819,0,0,1,1.638,0v11.581A.819.819,0,0,1,457.581,387.111Z" transform="translate(-403.798 -330.624)" fill="#242222" fill-rule="evenodd"/>
        <path id="Trazado_1000845" data-name="Trazado 1000845" d="M23.128,320.83H9.174a.819.819,0,0,1-.819-.819v-1.046A3.374,3.374,0,0,1,4,315.738V305.47a8.808,8.808,0,0,1,2.4-6.536c2.029-2,5.23-2.951,9.784-2.9a21.009,21.009,0,0,1,5.555.707.819.819,0,0,1-.453,1.574,19.409,19.409,0,0,0-5.122-.643c-4.035-.05-6.936.767-8.614,2.425a7.153,7.153,0,0,0-1.908,5.371v10.269a1.731,1.731,0,0,0,2.958,1.224.819.819,0,0,1,1.4.579v1.65H22.31v-1.65a.819.819,0,0,1,1.4-.579,1.731,1.731,0,0,0,2.959-1.224V308.99a.819.819,0,0,1,1.638,0v6.748a3.374,3.374,0,0,1-4.356,3.226v1.047a.819.819,0,0,1-.819.819Z" transform="translate(-3.998 -261.873)" fill="#242222" fill-rule="evenodd"/>
        <path id="Trazado_1000846" data-name="Trazado 1000846" d="M64.419,193.193a4.121,4.121,0,1,0,4.121,4.121A4.126,4.126,0,0,0,64.419,193.193Zm0,9.88a5.759,5.759,0,1,1,5.759-5.759,5.765,5.765,0,0,1-5.759,5.759Z" transform="translate(-52.266 -169.615)" fill="#242222" fill-rule="evenodd"/>
        <path id="Trazado_1000847" data-name="Trazado 1000847" d="M42.063,387.111a.819.819,0,0,1-.819-.819V374.712a.819.819,0,0,1,1.638,0v11.581A.819.819,0,0,1,42.063,387.111Z" transform="translate(-36.887 -330.624)" fill="#242222" fill-rule="evenodd"/>
        <path id="Trazado_1000848" data-name="Trazado 1000848" d="M161.356,387.111a.819.819,0,0,1-.819-.819V374.712a.819.819,0,0,1,1.638,0v11.581A.819.819,0,0,1,161.356,387.111Z" transform="translate(-142.225 -330.624)" fill="#242222" fill-rule="evenodd"/>
        <path id="Trazado_1000849" data-name="Trazado 1000849" d="M61.662,41.826H47.075a.819.819,0,0,1,0-1.637H61.662a.819.819,0,1,1,0,1.637Zm32.847,0H81.983a.819.819,0,1,1,0-1.637H94.509a.819.819,0,1,1,0,1.637Z" transform="translate(-41.313 -35.956)" fill="#242222" fill-rule="evenodd"/>
        <path id="Trazado_1000850" data-name="Trazado 1000850" d="M282.805,13.393h-1.638V11.367a.842.842,0,1,0-1.684,0h-1.638a2.48,2.48,0,1,1,4.959,0Z" transform="translate(-245.812 -8.315)" fill="#242222" fill-rule="evenodd"/>
        <path id="Trazado_1000851" data-name="Trazado 1000851" d="M253.212,9.052h-1.638V6.559a.921.921,0,1,0-1.843,0v.4h-1.638v-.4a2.559,2.559,0,1,1,5.118,0V9.052Z" transform="translate(-219.54 -4)" fill="#242222" fill-rule="evenodd"/>
        <path id="Trazado_1000852" data-name="Trazado 1000852" d="M197.007,23.175a2.3,2.3,0,0,1-2.3-2.3V18.134a2.3,2.3,0,0,1,4.6,0h-1.638a.664.664,0,0,0-1.329,0v2.739a.664.664,0,1,0,1.329,0h1.638A2.3,2.3,0,0,1,197.007,23.175Z" transform="translate(-172.396 -14.448)" fill="#242222" fill-rule="evenodd"/>
        <path id="Trazado_1000853" data-name="Trazado 1000853" d="M222.522,9.879a.822.822,0,0,0-.82.821v3.288a.821.821,0,0,0,1.641,0V10.7A.822.822,0,0,0,222.522,9.879Zm0,6.567a2.461,2.461,0,0,1-2.458-2.458V10.7a2.458,2.458,0,1,1,4.916,0v3.288A2.461,2.461,0,0,1,222.522,16.445Z" transform="translate(-194.789 -7.745)" fill="#242222" fill-rule="evenodd"/>
        <path id="Trazado_1000854" data-name="Trazado 1000854" d="M196.278,56.213h-.013a.819.819,0,0,1-.806-.831l.016-1.048a2.7,2.7,0,0,0-.508-1.755c-.722-1.2-1.62-2.695-.812-9.38a.819.819,0,1,1,1.626.2c-.741,6.126,0,7.353.59,8.339a4.271,4.271,0,0,1,.742,2.623l-.016,1.048a.818.818,0,0,1-.818.806Zm9.826.066a.839.839,0,0,1-.154-.015.819.819,0,0,1-.651-.958,6.835,6.835,0,0,1,.641-1.842,19.9,19.9,0,0,1,1.6-2.574,8.966,8.966,0,0,0,1.963-4.707,5.9,5.9,0,0,0-.426-3.559,1.857,1.857,0,0,0-1.758-.8h-4.2a.921.921,0,1,0,0,1.843H205.3c.8,0,1.107.371,1.222.682a1.153,1.153,0,0,1-.479,1.321l-.271.231a6.71,6.71,0,0,0-2.76,4.277.819.819,0,1,1-1.616-.262,7.728,7.728,0,0,1,2.569-4.61h-.842a2.559,2.559,0,1,1,0-5.118h4.2a3.405,3.405,0,0,1,3.166,1.6,7.387,7.387,0,0,1,.643,4.6,10.562,10.562,0,0,1-2.249,5.443,18.323,18.323,0,0,0-1.483,2.373,5.227,5.227,0,0,0-.492,1.406A.819.819,0,0,1,206.1,56.279Z" transform="translate(-171.629 -35.954)" fill="#242222" fill-rule="evenodd"/>
        <path id="Trazado_1000855" data-name="Trazado 1000855" d="M199.514,170.775a.819.819,0,0,1-.819-.819v-4.978a2.276,2.276,0,0,1,2.273-2.274h8.845a2.276,2.276,0,0,1,2.273,2.274v4.965a.819.819,0,1,1-1.638,0v-4.965a.636.636,0,0,0-.636-.636h-8.845a.644.644,0,0,0-.636.636v4.978a.819.819,0,0,1-.819.819Z" transform="translate(-175.92 -144.14)" fill="#242222" fill-rule="evenodd"/>
        <path id="Trazado_1000856" data-name="Trazado 1000856" d="M178.37,227.544a8.646,8.646,0,1,0,8.646,8.646A8.656,8.656,0,0,0,178.37,227.544Zm0,18.93a10.284,10.284,0,1,1,10.284-10.284A10.3,10.3,0,0,1,178.37,246.474Z" transform="translate(-148.891 -199.948)" fill="#242222" fill-rule="evenodd"/>
        <path id="Trazado_1000857" data-name="Trazado 1000857" d="M47.7,50.492l-1.431-.8,5.062-9.085a.819.819,0,0,1,1.431,0l5.061,9.085-1.431.8-4.346-7.8-4.346,7.8Z" transform="translate(-41.324 -35.956)" fill="#242222" fill-rule="evenodd"/>
        <path id="Trazado_1000858" data-name="Trazado 1000858" d="M39.59,116.08a5.121,5.121,0,0,0,10.109,0Zm5.055,5.938a6.765,6.765,0,0,1-6.758-6.757.819.819,0,0,1,.819-.819H50.583a.819.819,0,0,1,.819.819,6.765,6.765,0,0,1-6.757,6.757Z" transform="translate(-33.923 -101.523)" fill="#242222" fill-rule="evenodd"/>
        <path id="Trazado_1000859" data-name="Trazado 1000859" d="M218.287,287.14h-9.63a.819.819,0,0,1,0-1.638h9.63a.819.819,0,1,1,0,1.638Zm0,4.987h-9.63a.819.819,0,0,1,0-1.638h9.63a.819.819,0,0,1,0,1.638Z" transform="translate(-183.993 -252.572)" fill="#242222" fill-rule="evenodd"/>
        <path id="Trazado_1000860" data-name="Trazado 1000860" d="M360.285,116.08a5.121,5.121,0,0,0,10.109,0Zm5.055,5.938a6.765,6.765,0,0,1-6.758-6.757.819.819,0,0,1,.819-.819h11.877a.818.818,0,0,1,.819.819,6.764,6.764,0,0,1-6.757,6.757Z" transform="translate(-317.103 -101.523)" fill="#242222" fill-rule="evenodd"/>
        <path id="Trazado_1000861" data-name="Trazado 1000861" d="M377.091,50.492l-4.346-7.8-4.346,7.8-1.431-.8,5.061-9.085a.819.819,0,0,1,1.431,0l5.062,9.085Z" transform="translate(-324.509 -35.956)" fill="#242222" fill-rule="evenodd"/>
      </g>
    </g>
  </g>
</svg>
