<svg xmlns="http://www.w3.org/2000/svg" xmlns:xlink="http://www.w3.org/1999/xlink" width="113" height="113" viewBox="0 0 113 113">
  <defs>
    <filter id="Trazado_982547" x="0" y="0" width="113" height="113" filterUnits="userSpaceOnUse">
      <feOffset dy="3" input="SourceAlpha"/>
      <feGaussianBlur stdDeviation="3" result="blur"/>
      <feFlood flood-opacity="0.161"/>
      <feComposite operator="in" in2="blur"/>
      <feComposite in="SourceGraphic"/>
    </filter>
  </defs>
  <g id="Grupo_1165532" data-name="Grupo 1165532" transform="translate(-825.895 -5769)">
    <g id="Grupo_1165242" data-name="Grupo 1165242" transform="translate(834.895 5775)">
      <g id="Grupo_1163948" data-name="Grupo 1163948" transform="translate(0)">
        <g id="Grupo_1158168" data-name="Grupo 1158168" transform="translate(0)">
          <g id="Grupo_1152576" data-name="Grupo 1152576">
            <g id="Grupo_1148633" data-name="Grupo 1148633">
              <g id="Grupo_1148525" data-name="Grupo 1148525">
                <g transform="matrix(1, 0, 0, 1, -9, -6)" filter="url(#Trazado_982547)">
                  <g id="Trazado_982547-2" data-name="Trazado 982547" transform="translate(9 6)" fill="#e9f9fd">
                    <path d="M 47.5 93.5 C 41.28937149047852 93.5 35.26533508300781 92.28397369384766 29.59518623352051 89.88570404052734 C 24.11771965026855 87.56893157958984 19.19813346862793 84.25196075439453 14.97309303283691 80.02691650390625 C 10.74804019927979 75.80186462402344 7.431066513061523 70.88229370117188 5.114293098449707 65.40481567382812 C 2.716026782989502 59.73468017578125 1.5 53.71062850952148 1.5 47.5 C 1.5 41.28937149047852 2.716026782989502 35.26533508300781 5.114293098449707 29.59518623352051 C 7.431066513061523 24.11771965026855 10.74804019927979 19.19813346862793 14.97309303283691 14.97309303283691 C 19.19813346862793 10.74804019927979 24.11771965026855 7.431066513061523 29.59518623352051 5.114293098449707 C 35.26533508300781 2.716026782989502 41.28937149047852 1.5 47.5 1.5 C 53.71062850952148 1.5 59.73468017578125 2.716026782989502 65.40481567382812 5.114293098449707 C 70.88229370117188 7.431066513061523 75.80186462402344 10.74804019927979 80.02691650390625 14.97309303283691 C 84.25196075439453 19.19813346862793 87.56893157958984 24.11771965026855 89.88570404052734 29.59518623352051 C 92.28397369384766 35.26533508300781 93.5 41.28937149047852 93.5 47.5 C 93.5 53.71062850952148 92.28397369384766 59.73468017578125 89.88570404052734 65.40481567382812 C 87.56893157958984 70.88229370117188 84.25196075439453 75.80186462402344 80.02691650390625 80.02691650390625 C 75.80186462402344 84.25196075439453 70.88229370117188 87.56893157958984 65.40481567382812 89.88570404052734 C 59.73468017578125 92.28397369384766 53.71062850952148 93.5 47.5 93.5 Z" stroke="none"/>
                    <path d="M 47.5 3 C 41.49121475219727 3 35.66376876831055 4.176155090332031 30.17950439453125 6.495796203613281 C 24.88084411621094 8.736953735351562 20.12152099609375 11.94598388671875 16.03375244140625 16.03375244140625 C 11.94598388671875 20.12152099609375 8.736953735351562 24.88084411621094 6.495796203613281 30.17950439453125 C 4.176155090332031 35.66376876831055 3 41.49121475219727 3 47.5 C 3 53.50878524780273 4.176155090332031 59.33623123168945 6.495796203613281 64.82049560546875 C 8.736953735351562 70.11915588378906 11.94598388671875 74.87847900390625 16.03375244140625 78.96624755859375 C 20.12152099609375 83.05401611328125 24.88084411621094 86.26304626464844 30.17950439453125 88.50419616699219 C 35.66376876831055 90.82384490966797 41.49121475219727 92 47.5 92 C 53.50878524780273 92 59.33623123168945 90.82384490966797 64.82049560546875 88.50419616699219 C 70.11915588378906 86.26304626464844 74.87847900390625 83.05401611328125 78.96624755859375 78.96624755859375 C 83.05401611328125 74.87847900390625 86.26304626464844 70.11915588378906 88.50419616699219 64.82049560546875 C 90.82384490966797 59.33623123168945 92 53.50878524780273 92 47.5 C 92 41.49121475219727 90.82384490966797 35.66376876831055 88.50419616699219 30.17950439453125 C 86.26304626464844 24.88084411621094 83.05401611328125 20.12152099609375 78.96624755859375 16.03375244140625 C 74.87847900390625 11.94598388671875 70.11915588378906 8.736953735351562 64.82049560546875 6.495796203613281 C 59.33623123168945 4.176155090332031 53.50878524780273 3 47.5 3 M 47.5 0 C 73.7335205078125 0 95 21.2664794921875 95 47.5 C 95 73.7335205078125 73.7335205078125 95 47.5 95 C 21.2664794921875 95 0 73.7335205078125 0 47.5 C 0 21.2664794921875 21.2664794921875 0 47.5 0 Z" stroke="none" fill="#36ceef"/>
                  </g>
                </g>
              </g>
            </g>
          </g>
        </g>
      </g>
    </g>
    <g id="collaboration_16856810" transform="translate(820.17 5761.025)">
      <g id="Grupo_1165531" data-name="Grupo 1165531" transform="translate(28.86 28.614)">
        <path id="Trazado_1000862" data-name="Trazado 1000862" d="M56.353,99.139a33.356,33.356,0,1,1,43.01-19.378,33.356,33.356,0,0,1-43.01,19.378Z" transform="translate(-34.807 -34.582)" fill="#a9dff0" fill-rule="evenodd"/>
        <path id="Trazado_1000863" data-name="Trazado 1000863" d="M45.576,227.093a33.373,33.373,0,0,1-9.407-33.954c3.577-1.2,7.893-.328,6.461,2.745-4.569,9.794-.467,13.639,6.154,9.4,4.426-2.837,7.061,7.247,2.811,8.3C43.89,215.484,45.181,223.672,45.576,227.093Z" transform="translate(-34.807 -169.187)" fill="#99cc67" fill-rule="evenodd"/>
        <path id="Trazado_1000864" data-name="Trazado 1000864" d="M263.163,343.3a33.372,33.372,0,0,1-18.393,4.11,7.59,7.59,0,0,1,6.848-5.111c3.851-.16,3.1-4.561,1.429-5.595-7.9-4.871,2.605-14.14,6.482-12.984C265.53,325.518,254.6,331.965,263.163,343.3Z" transform="translate(-213.636 -280.762)" fill="#99cc67" fill-rule="evenodd"/>
        <path id="Trazado_1000865" data-name="Trazado 1000865" d="M276.748,35.33A33.39,33.39,0,0,1,306.706,75.3c-2.27-2.476-4.729-4.039-7.684-1.084-.463.467-2.055.55-2.16-.071-3.354-1.441,5.73-8.243,2.287-9.7-4.96-2.094,1.8-7.057-3.964-9.34-4.624-1.833-10.929,10.248-10.929-3.5,0-4.447-9.247-6.75-7.537-16.124.009-.053.022-.1.03-.154Z" transform="translate(-240.667 -35.219)" fill="#99cc67" fill-rule="evenodd"/>
        <path id="Trazado_1000866" data-name="Trazado 1000866" d="M220.8,195.506a2.223,2.223,0,0,1-.387-2.325l-1.845,1.842c-1.164,1.164-2.846,1.391-3.732.5a2.229,2.229,0,0,1-.387-2.328l-2.261,2.257c-1.164,1.169-2.846,1.391-3.732.5s-.664-2.573.5-3.737l1.849-1.849a2.226,2.226,0,0,1-2.328-.387c-.891-.891-.664-2.573.5-3.737l5.964-5.964c-1.315,1.315-3.212,1.572-4.211.568s-.744-3.035.571-4.351l7.343-7.343c7.041-7.041,13.765-8.457,19.886-2.337l.025.021c3.888,3.892,2.9,11.244-2.195,16.338l-.807.807-8.457,8.457L224.532,195C223.368,196.17,221.687,196.4,220.8,195.506Z" transform="translate(-182.238 -143.921)" fill="#f3c7ad" fill-rule="evenodd"/>
        <path id="Trazado_1000867" data-name="Trazado 1000867" d="M383.108,136.379l-2.5,2.5a1.043,1.043,0,0,1-1.475,0l-9.865-9.861a1.051,1.051,0,0,1,0-1.475l2.5-2.5a1.051,1.051,0,0,1,1.475,0l9.865,9.865A1.045,1.045,0,0,1,383.108,136.379Z" transform="translate(-319.41 -111.371)" fill="#a9dff0" fill-rule="evenodd"/>
        <path id="Trazado_1000868" data-name="Trazado 1000868" d="M122.1,183.639a2.223,2.223,0,0,1-2.325.387l1.842,1.845c1.164,1.164,1.391,2.846.5,3.737a2.221,2.221,0,0,1-2.325.387l2.257,2.257c1.164,1.164,1.391,2.846.5,3.737s-2.573.664-3.737-.5l-1.849-1.849a2.223,2.223,0,0,1-.387,2.325c-.891.891-2.573.664-3.737-.5l-5.964-5.964c1.315,1.315,1.572,3.212.568,4.216s-3.035.744-4.351-.572L95.75,185.8c-7.041-7.045-8.457-13.77-2.337-19.891l.021-.021c3.892-3.892,11.24-2.9,16.338,2.19l.807.811,8.457,8.452,2.559,2.559c1.167,1.168,1.394,2.85.5,3.737Z" transform="translate(-81.43 -144.391)" fill="#f3c7ad" fill-rule="evenodd"/>
        <path id="Trazado_1000869" data-name="Trazado 1000869" d="M62.97,128.012l2.5,2.5a1.037,1.037,0,0,1,0,1.471l-9.861,9.865a1.051,1.051,0,0,1-1.475,0l-2.506-2.5a1.045,1.045,0,0,1,0-1.471l9.865-9.865A1.047,1.047,0,0,1,62.97,128.012Z" transform="translate(-48.88 -113.901)" fill="#99cc67" fill-rule="evenodd"/>
        <path id="Trazado_1000870" data-name="Trazado 1000870" d="M190.01,163.9a2.227,2.227,0,0,1,1.917,1.37v-2.61c0-1.647,1.029-2.992,2.287-2.992a2.227,2.227,0,0,1,1.92,1.37v-3.194c0-1.647,1.029-3,2.287-3s2.287,1.349,2.287,3v2.614a2.225,2.225,0,0,1,1.92-1.37c1.257,0,2.287,1.349,2.287,3v8.431c0-1.858,1.16-3.379,2.58-3.379s2.669,1.618,2.669,3.48V181c0,9.962-3.753,15.721-12.408,15.721h-.034c-5.5,0-10-5.9-10-13.1V166.9C187.723,165.248,188.748,163.9,190.01,163.9Z" transform="translate(-165.045 -137.016)" fill="#f3c7ad" fill-rule="evenodd"/>
        <path id="Trazado_1000871" data-name="Trazado 1000871" d="M210.02,436.136v-3.544a1.046,1.046,0,0,1,1.042-1.042h13.946a1.045,1.045,0,0,1,1.042,1.042v3.544a1.046,1.046,0,0,1-1.042,1.042H211.062A1.044,1.044,0,0,1,210.02,436.136Z" transform="translate(-184.039 -372.686)" fill="#ffcd05" fill-rule="evenodd"/>
      </g>
      <path id="Trazado_1000872" data-name="Trazado 1000872" d="M68.7,72.435A9.269,9.269,0,0,0,60.268,79.3a1.034,1.034,0,0,1-2-.525,11.321,11.321,0,0,1,9.423-8.323V53.68c0-1.257-.882-2.4-1.736-1.787a1.474,1.474,0,0,0-.394.424V65.4a1.038,1.038,0,1,1-2.076,0V49.444c0-1.5-1.16-2.639-2.039-1.487a2.466,2.466,0,0,0-.458,1.487V66.4a1.038,1.038,0,1,1-2.076,0V52.9a.947.947,0,0,0-1.5-.319,2.358,2.358,0,0,0-.63,1.682v14.43a1.036,1.036,0,1,1-2.072,0V57.132a.951.951,0,0,0-1.677-.126,2.464,2.464,0,0,0-.454,1.487V75.214a14.918,14.918,0,0,0,1.656,6.952,10.13,10.13,0,0,0,4.044,4.275h8.163A8.96,8.96,0,0,0,71.215,81.9a21.545,21.545,0,0,0,1.728-9.3V62.214c0-1.741-1.505-3.329-2.631-1.858a2.907,2.907,0,0,0-.543,1.762V71.4A1.041,1.041,0,0,1,68.7,72.435ZM53.8,92.065V88.521a2.082,2.082,0,0,1,1.228-1.9,14.8,14.8,0,0,1-4.145-7.7,5.156,5.156,0,0,1-1.093-.832L45.746,74.05c-6.355,1.686-5.528,8.63-5.132,11.937v.03A32.274,32.274,0,0,0,50.773,92.2a32.636,32.636,0,0,0,3.43,1.084,2.044,2.044,0,0,1-.4-1.219ZM70.6,86.589a2.078,2.078,0,0,1,1.315,1.934v3.544a2,2,0,0,1-.16.795,32.127,32.127,0,0,0,5.107-2.069c-2.77-4.073-3.187-7.52-2.854-10.353a13.005,13.005,0,0,1-3.471,5.842Zm-5.183,7.554H61.74c-.034.05-.067.105-.1.156A32.273,32.273,0,0,0,65.413,94.142Zm-6.053,0h-.332c.105.012.211.021.316.034Zm-3.48-5.62v3.544c.009,0,13.946,0,13.955,0V88.519H55.884ZM50.512,75.878c-.009-.218-.013-.442-.013-.664V71.376l-3.489-3.485a1.041,1.041,0,0,1,0-1.471,9.264,9.264,0,0,0,1.123-10.84,1.035,1.035,0,0,1,1.79-1.038,11.347,11.347,0,0,1,.946,2.089,3.148,3.148,0,0,1,3.833-2.03,4.8,4.8,0,0,1,.589-2.631,14.435,14.435,0,0,0-5.2-2.761,10.013,10.013,0,0,0-5.6-.08l-5.776,5.776a8.969,8.969,0,0,0-.165,6.582,21.562,21.562,0,0,0,5.355,7.8ZM50.5,68.443V64.8a11.218,11.218,0,0,1-1.354,2.3Zm6.287-17.928a2.817,2.817,0,0,1,2.122-.147v-.925c0-2.021,1.32-4.035,3.325-4.035s3.325,2.014,3.325,4.035v.348a2.823,2.823,0,0,1,2.417.307,20.693,20.693,0,0,1,3.556-2.181c-.369-3.867.669-3.418-2.809-6.926-2.559-2.58-5.624-5.675-4.976-11.307A32.342,32.342,0,0,0,31.879,50.855l8.869-8.864a2.077,2.077,0,0,1,2.938,0l2.5,2.5a2.06,2.06,0,0,1,.609,1.471h0a2.1,2.1,0,0,1-.135.735A15.355,15.355,0,0,1,56.787,50.516Zm12.539,1.16a4.663,4.663,0,0,1,.442,2v4.435c1.858-1.068,3.876,0,4.77,1.925A9.154,9.154,0,0,0,79.7,58.8,1.036,1.036,0,1,1,80.738,60.6a11.361,11.361,0,0,1-5.721,1.53V72.6c0,.618-.012,1.223-.042,1.812l7.272-7.272a14.9,14.9,0,0,0,3.741-6.083,10.165,10.165,0,0,0,.168-5.885L80.381,49.4a8.745,8.745,0,0,0-5.43-.492A15.27,15.27,0,0,0,69.326,51.675ZM34.539,57.884a2.064,2.064,0,0,1-1.152-.584l-2.5-2.5c-.05-.046-.092-.1-.139-.147a32.347,32.347,0,0,0,7.563,29.07c-.252-3.922.236-9.247,5.792-11.316a45.868,45.868,0,0,1-4.665-5.091c-3.5.719-5.737-1.345-5.716-5.006a14.533,14.533,0,0,1,.823-4.422ZM44.724,45.963l-2.5-2.5h0l-9.865,9.87,2.509,2.5,9.87-9.865h0Zm-6.6,19.415a14.83,14.83,0,0,1-2.046-5.334C35.595,62.12,35.372,65.383,38.124,65.378ZM93.289,54.358l-2.5,2.5a2.08,2.08,0,0,1-2.206.47.766.766,0,0,1,0,.1,2.21,2.21,0,0,1,.463,2.367,9.484,9.484,0,0,1-1.286,2.493,16.468,16.468,0,0,1-2.3,4.291,1.017,1.017,0,0,1,.449.362l.58-.067c1.778-1.778,3.471-2.186,5.091-1.762a6.822,6.822,0,0,1,2.644,1.475,32.109,32.109,0,0,0-.664-12.56,2.2,2.2,0,0,1-.267.325Zm-15.6-7.723a2.086,2.086,0,0,1,.291-2.58l2.5-2.5a2.074,2.074,0,0,1,1.471-.6v0a2.069,2.069,0,0,1,1.471.6l9.045,9.05A32.322,32.322,0,0,0,65.812,29.848c-.538,4.72,2.144,7.428,4.38,9.684,1.766,1.782,3.295,3.325,3.295,5.473l.059,2.131a11.745,11.745,0,0,1,4.145-.5Zm11.627,8.756,2.5-2.5-9.865-9.87v0l0,0-2.5,2.5v.009L81.622,47.7a1.112,1.112,0,0,1,.243.243l7.448,7.448Zm-5.2,12.8c-.832.887-6.52,6.5-6.557,6.57a18.988,18.988,0,0,1-.538,1.929c-.937,3-2.3,7.359,1.665,13.1A32.282,32.282,0,0,0,93.774,69.01a6.424,6.424,0,0,0-2.715-1.892c-.916-.236-1.934.055-3.107,1.232a2.88,2.88,0,0,1-3.519.13ZM49.966,94.108a34.389,34.389,0,1,1,44.45-20.026c-.016.05-.039.1-.059.151A34.385,34.385,0,0,1,50.12,94.162.949.949,0,0,1,49.966,94.108Z" transform="translate(0)"/>
    </g>
  </g>
</svg>
