<svg xmlns="http://www.w3.org/2000/svg" xmlns:xlink="http://www.w3.org/1999/xlink" width="113" height="113" viewBox="0 0 113 113">
  <defs>
    <filter id="Trazado_982547" x="0" y="0" width="113" height="113" filterUnits="userSpaceOnUse">
      <feOffset dy="3" input="SourceAlpha"/>
      <feGaussianBlur stdDeviation="3" result="blur"/>
      <feFlood flood-opacity="0.161"/>
      <feComposite operator="in" in2="blur"/>
      <feComposite in="SourceGraphic"/>
    </filter>
  </defs>
  <g id="Grupo_1165490" data-name="Grupo 1165490" transform="translate(-588 -1027)">
    <g id="Grupo_1164260" data-name="Grupo 1164260" transform="translate(0 -80)">
      <g id="Grupo_1164259" data-name="Grupo 1164259" transform="translate(1)">
        <g id="Grupo_1163949" data-name="Grupo 1163949" transform="translate(0 -1371)">
          <g id="Grupo_1161819" data-name="Grupo 1161819" transform="translate(596 2484)">
            <g id="Grupo_1152576" data-name="Grupo 1152576" transform="translate(0)">
              <g id="Grupo_1148633" data-name="Grupo 1148633">
                <g id="Grupo_1148525" data-name="Grupo 1148525">
                  <g transform="matrix(1, 0, 0, 1, -9, -6)" filter="url(#Trazado_982547)">
                    <g id="Trazado_982547-2" data-name="Trazado 982547" transform="translate(9 6)" fill="#fff4e6">
                      <path d="M 47.5 93.5 C 41.28937149047852 93.5 35.26533508300781 92.28397369384766 29.59518623352051 89.88570404052734 C 24.11771965026855 87.56893157958984 19.19813346862793 84.25196075439453 14.97309303283691 80.02691650390625 C 10.74804019927979 75.80186462402344 7.431066513061523 70.88229370117188 5.114293098449707 65.40481567382812 C 2.716026782989502 59.73468017578125 1.5 53.71062850952148 1.5 47.5 C 1.5 41.28937149047852 2.716026782989502 35.26533508300781 5.114293098449707 29.59518623352051 C 7.431066513061523 24.11771965026855 10.74804019927979 19.19813346862793 14.97309303283691 14.97309303283691 C 19.19813346862793 10.74804019927979 24.11771965026855 7.431066513061523 29.59518623352051 5.114293098449707 C 35.26533508300781 2.716026782989502 41.28937149047852 1.5 47.5 1.5 C 53.71062850952148 1.5 59.73468017578125 2.716026782989502 65.40481567382812 5.114293098449707 C 70.88229370117188 7.431066513061523 75.80186462402344 10.74804019927979 80.02691650390625 14.97309303283691 C 84.25196075439453 19.19813346862793 87.56893157958984 24.11771965026855 89.88570404052734 29.59518623352051 C 92.28397369384766 35.26533508300781 93.5 41.28937149047852 93.5 47.5 C 93.5 53.71062850952148 92.28397369384766 59.73468017578125 89.88570404052734 65.40481567382812 C 87.56893157958984 70.88229370117188 84.25196075439453 75.80186462402344 80.02691650390625 80.02691650390625 C 75.80186462402344 84.25196075439453 70.88229370117188 87.56893157958984 65.40481567382812 89.88570404052734 C 59.73468017578125 92.28397369384766 53.71062850952148 93.5 47.5 93.5 Z" stroke="none"/>
                      <path d="M 47.5 3 C 41.49121475219727 3 35.66376876831055 4.176155090332031 30.17950439453125 6.495796203613281 C 24.88084411621094 8.736953735351562 20.12152099609375 11.94598388671875 16.03375244140625 16.03375244140625 C 11.94598388671875 20.12152099609375 8.736953735351562 24.88084411621094 6.495796203613281 30.17950439453125 C 4.176155090332031 35.66376876831055 3 41.49121475219727 3 47.5 C 3 53.50878524780273 4.176155090332031 59.33623123168945 6.495796203613281 64.82049560546875 C 8.736953735351562 70.11915588378906 11.94598388671875 74.87847900390625 16.03375244140625 78.96624755859375 C 20.12152099609375 83.05401611328125 24.88084411621094 86.26304626464844 30.17950439453125 88.50419616699219 C 35.66376876831055 90.82384490966797 41.49121475219727 92 47.5 92 C 53.50878524780273 92 59.33623123168945 90.82384490966797 64.82049560546875 88.50419616699219 C 70.11915588378906 86.26304626464844 74.87847900390625 83.05401611328125 78.96624755859375 78.96624755859375 C 83.05401611328125 74.87847900390625 86.26304626464844 70.11915588378906 88.50419616699219 64.82049560546875 C 90.82384490966797 59.33623123168945 92 53.50878524780273 92 47.5 C 92 41.49121475219727 90.82384490966797 35.66376876831055 88.50419616699219 30.17950439453125 C 86.26304626464844 24.88084411621094 83.05401611328125 20.12152099609375 78.96624755859375 16.03375244140625 C 74.87847900390625 11.94598388671875 70.11915588378906 8.736953735351562 64.82049560546875 6.495796203613281 C 59.33623123168945 4.176155090332031 53.50878524780273 3 47.5 3 M 47.5 0 C 73.7335205078125 0 95 21.2664794921875 95 47.5 C 95 73.7335205078125 73.7335205078125 95 47.5 95 C 21.2664794921875 95 0 73.7335205078125 0 47.5 C 0 21.2664794921875 21.2664794921875 0 47.5 0 Z" stroke="none" fill="#ff9d1c"/>
                    </g>
                  </g>
                </g>
              </g>
            </g>
          </g>
        </g>
      </g>
    </g>
    <g id="customer-satisfaction_3957720" transform="translate(613 1049)">
      <g id="Grupo_1165488" data-name="Grupo 1165488">
        <g id="Grupo_1165458" data-name="Grupo 1165458">
          <path id="Trazado_1000589" data-name="Trazado 1000589" d="M56.97,42.88l.55,2.19A1.766,1.766,0,0,0,57,45H51V43.47A2.458,2.458,0,0,0,48.53,41H50l2-2a5.108,5.108,0,0,1,3.15,1.08A5.162,5.162,0,0,1,56.97,42.88Z" fill="#ef7385"/>
        </g>
        <g id="Grupo_1165459" data-name="Grupo 1165459">
          <path id="Trazado_1000590" data-name="Trazado 1000590" d="M48,41h.53a2.466,2.466,0,0,0-2.21,1.37L45,45a6.43,6.43,0,0,0-3.15.82l-.07-.54a9.916,9.916,0,0,0-.69-2.62A5.118,5.118,0,0,1,46,39Z" fill="#ef7385"/>
        </g>
        <g id="Grupo_1165460" data-name="Grupo 1165460">
          <path id="Trazado_1000591" data-name="Trazado 1000591" d="M14,41l1,6H11l1-6Z" fill="#ef7385"/>
        </g>
        <g id="Grupo_1165461" data-name="Grupo 1165461">
          <path id="Trazado_1000592" data-name="Trazado 1000592" d="M16,39a5.1,5.1,0,0,1,4.87,3.54l.08.03a10.234,10.234,0,0,0-.73,2.71L20,47H15l-1-6Z" fill="#fcd770"/>
        </g>
        <g id="Grupo_1165462" data-name="Grupo 1165462">
          <path id="Trazado_1000593" data-name="Trazado 1000593" d="M12,41l-1,6H4l1.03-4.12a5.162,5.162,0,0,1,1.82-2.8A5.108,5.108,0,0,1,10,39Z" fill="#fcd770"/>
        </g>
        <g id="Grupo_1165463" data-name="Grupo 1165463">
          <path id="Trazado_1000594" data-name="Trazado 1000594" d="M41.85,45.82a6.46,6.46,0,0,0-2.64,2.76L39,49a2.006,2.006,0,0,0-2-2H33l-1-4,.88-1.75L34,42l2.59-4.31a9.989,9.989,0,0,1,5.19,7.59Z" fill="#e6e9ed"/>
        </g>
        <g id="Grupo_1165464" data-name="Grupo 1165464">
          <path id="Trazado_1000595" data-name="Trazado 1000595" d="M20.95,42.57a9.7,9.7,0,0,1,1.46-2.41,9.976,9.976,0,0,1,3-2.47L28,42l1.13-.75L30,43l-1,4H20l.22-1.72a10.234,10.234,0,0,1,.73-2.71Z" fill="#e6e9ed"/>
        </g>
        <g id="Grupo_1165465" data-name="Grupo 1165465">
          <path id="Trazado_1000596" data-name="Trazado 1000596" d="M28,42l-2.59-4.31A8.683,8.683,0,0,1,27,37l4,2,4-2a8.682,8.682,0,0,1,1.59.69L34,42l-1.12-.75L31,40l-1.87,1.25Z" fill="#ccd1d9"/>
        </g>
        <g id="Grupo_1165466" data-name="Grupo 1165466">
          <path id="Trazado_1000597" data-name="Trazado 1000597" d="M32,43l1,4H29l1-4Z" fill="#ef7385"/>
        </g>
        <g id="Grupo_1165467" data-name="Grupo 1165467">
          <path id="Trazado_1000598" data-name="Trazado 1000598" d="M29.13,41.25,31,40l1.88,1.25L32,43H30Z" fill="#ed5565"/>
        </g>
        <g id="Grupo_1165468" data-name="Grupo 1165468">
          <path id="Trazado_1000599" data-name="Trazado 1000599" d="M59,23v4H57V24.59a2,2,0,0,0-1.55-1.95l-8.48-1.95A2,2,0,0,0,45,19l1.22-3.05a10.857,10.857,0,0,0,.7-2.73A9.536,9.536,0,0,1,49,13,10,10,0,0,1,59,23Z" fill="#656d78"/>
        </g>
        <g id="Grupo_1165469" data-name="Grupo 1165469">
          <path id="Trazado_1000600" data-name="Trazado 1000600" d="M15.78,15.95,17,19a2.006,2.006,0,0,0-2,2,1.956,1.956,0,0,0,.11.64L8,20,5.59,22.41A2.006,2.006,0,0,0,5,23.83V27H3L1.81,24.62a7.689,7.689,0,0,1,1.44-8.87L6,13l3,2,4-4,2.03,2.03h.03a10.587,10.587,0,0,0,.72,2.92Z" fill="#656d78"/>
        </g>
        <g id="Grupo_1165470" data-name="Grupo 1165470">
          <path id="Trazado_1000601" data-name="Trazado 1000601" d="M26.35,11.24l-.01.01-5.39,2.02A3.007,3.007,0,0,0,19,16.08V19H17l-1.22-3.05A10.993,10.993,0,0,1,15,11.9,10.9,10.9,0,0,1,25.9,1H36.1A10.891,10.891,0,0,1,47,11.9a11.689,11.689,0,0,1-.08,1.32,10.857,10.857,0,0,1-.7,2.73L45,19H43V15.61a2.993,2.993,0,0,0-1.34-2.5l-1.48-.99a2.923,2.923,0,0,1-2.09.88h-.21a2.9,2.9,0,0,1-1.61-.49l-1.6-1.07A2.911,2.911,0,0,1,32.09,13H32a9.894,9.894,0,0,1-5.65-1.76Z" fill="#b27946"/>
        </g>
        <g id="Grupo_1165471" data-name="Grupo 1165471">
          <path id="Trazado_1000602" data-name="Trazado 1000602" d="M5,27v2a8.239,8.239,0,0,0,.25,2H3a1.955,1.955,0,0,1-1.41-.59A1.955,1.955,0,0,1,1,29a2.006,2.006,0,0,1,2-2Z" fill="#f0d0b4"/>
        </g>
        <g id="Grupo_1165472" data-name="Grupo 1165472">
          <path id="Trazado_1000603" data-name="Trazado 1000603" d="M20.99,29.62l-.01.01a8.02,8.02,0,0,1-5.75,7.05,7.93,7.93,0,0,1-4.46,0L7.34,34.66A8.122,8.122,0,0,1,5.25,31,8.239,8.239,0,0,1,5,29V23.83a2.006,2.006,0,0,1,.59-1.42L8,20l7.11,1.64a1.827,1.827,0,0,0,.48.77A1.955,1.955,0,0,0,17,23h2a11.9,11.9,0,0,0,1.99,6.62Z" fill="#f0d0b4"/>
        </g>
        <g id="Grupo_1165473" data-name="Grupo 1165473">
          <path id="Trazado_1000604" data-name="Trazado 1000604" d="M15.23,36.69,16,39l-2,2H12l-2-2,.77-2.31v-.01a7.93,7.93,0,0,0,4.46,0Z" fill="#f0d0b4"/>
        </g>
        <g id="Grupo_1165474" data-name="Grupo 1165474">
          <path id="Trazado_1000605" data-name="Trazado 1000605" d="M51.23,36.69,52,39l-2,2H48l-2-2,.77-2.31v-.01a7.93,7.93,0,0,0,4.46,0Z" fill="#f0d0b4"/>
        </g>
        <g id="Grupo_1165475" data-name="Grupo 1165475">
          <path id="Trazado_1000606" data-name="Trazado 1000606" d="M57,29V27h2a2.006,2.006,0,0,1,2,2,2.015,2.015,0,0,1-2,2H56.75A8.239,8.239,0,0,0,57,29Z" fill="#f0d0b4"/>
        </g>
        <g id="Grupo_1165476" data-name="Grupo 1165476">
          <path id="Trazado_1000607" data-name="Trazado 1000607" d="M57,27v2a8.239,8.239,0,0,1-.25,2,8.028,8.028,0,0,1-5.52,5.68,7.93,7.93,0,0,1-4.46,0l-3.21-1.82a7.984,7.984,0,0,1-2.54-5.23l-.01-.01A11.9,11.9,0,0,0,43,23h2a2.015,2.015,0,0,0,2-2,1.553,1.553,0,0,0-.03-.31l8.48,1.95A2,2,0,0,1,57,24.59Z" fill="#f0d0b4"/>
        </g>
        <g id="Grupo_1165477" data-name="Grupo 1165477">
          <path id="Trazado_1000608" data-name="Trazado 1000608" d="M45,19a2,2,0,0,1,1.97,1.69A1.553,1.553,0,0,1,47,21a2.015,2.015,0,0,1-2,2H43V19Z" fill="#f0d0b4"/>
        </g>
        <g id="Grupo_1165478" data-name="Grupo 1165478">
          <path id="Trazado_1000609" data-name="Trazado 1000609" d="M31,35a11.982,11.982,0,0,0,3.19-.43L35,37l-4,2-4-2,.81-2.43A11.927,11.927,0,0,0,31,35Z" fill="#f0d0b4"/>
        </g>
        <g id="Grupo_1165479" data-name="Grupo 1165479">
          <path id="Trazado_1000610" data-name="Trazado 1000610" d="M43,19v4A12.006,12.006,0,0,1,27.81,34.57l-5.3-3.08a11.4,11.4,0,0,1-1.52-1.87A11.9,11.9,0,0,1,19,23V16.08a3.007,3.007,0,0,1,1.95-2.81l5.39-2.02.01-.01A9.894,9.894,0,0,0,32,13h.09a2.911,2.911,0,0,0,2.58-1.56l1.6,1.07a2.9,2.9,0,0,0,1.61.49h.21a2.923,2.923,0,0,0,2.09-.88l1.48.99A2.993,2.993,0,0,1,43,15.61Z" fill="#f0d0b4"/>
        </g>
        <g id="Grupo_1165480" data-name="Grupo 1165480">
          <path id="Trazado_1000611" data-name="Trazado 1000611" d="M19,19v4H17a1.955,1.955,0,0,1-1.41-.59,1.827,1.827,0,0,1-.48-.77A1.956,1.956,0,0,1,15,21a2.006,2.006,0,0,1,2-2Z" fill="#f0d0b4"/>
        </g>
        <g id="Grupo_1165483" data-name="Grupo 1165483">
          <path id="Trazado_1000612" data-name="Trazado 1000612" d="M39,49V59a2.006,2.006,0,0,1-2,2H1V47H37A2.006,2.006,0,0,1,39,49Z" fill="#b4dd7f"/>
        </g>
        <g id="Grupo_1165484" data-name="Grupo 1165484">
          <path id="Trazado_1000613" data-name="Trazado 1000613" d="M57,49a2.006,2.006,0,0,1,2,2,2.015,2.015,0,0,1-2,2,2.006,2.006,0,0,1,2,2,2.015,2.015,0,0,1-2,2,2.015,2.015,0,0,1,2,2,2.006,2.006,0,0,1-2,2H45.6A11.935,11.935,0,0,1,39,59V49l.21-.42A6.481,6.481,0,0,1,45,45l1.32-2.63A2.466,2.466,0,0,1,48.53,41,2.458,2.458,0,0,1,51,43.47V45h6a1.766,1.766,0,0,1,.52.07A2.007,2.007,0,0,1,59,47a2.015,2.015,0,0,1-2,2Z" fill="#f0d0b4"/>
        </g>
        <g id="Grupo_1165485" data-name="Grupo 1165485">
          <path id="Trazado_1000614" data-name="Trazado 1000614" d="M30,53h2l-1,2v2l-2-1-2,1V55l-1-2h2l1-2Z" fill="#fcd770"/>
        </g>
        <g id="Grupo_1165486" data-name="Grupo 1165486">
          <path id="Trazado_1000615" data-name="Trazado 1000615" d="M20,53h2l-1,2v2l-2-1-2,1V55l-1-2h2l1-2Z" fill="#fcd770"/>
        </g>
        <g id="Grupo_1165487" data-name="Grupo 1165487">
          <path id="Trazado_1000616" data-name="Trazado 1000616" d="M8,53l1-2,1,2h2l-1,2v2L9,56,7,57V55L6,53Z" fill="#fcd770"/>
        </g>
      </g>
      <g id="Grupo_1165489" data-name="Grupo 1165489">
        <path id="Trazado_1000622" data-name="Trazado 1000622" d="M57.475,32H59a2.993,2.993,0,0,0,1-5.816V23A11.013,11.013,0,0,0,49,12c-.336,0-.672.022-1.007.052,0-.051.007-.1.007-.152A11.914,11.914,0,0,0,36.1,0H25.9A11.917,11.917,0,0,0,14.066,10.653L13,9.586,8.873,13.713l-3-2L2.545,15.041A8.628,8.628,0,0,0,0,21.185a8.74,8.74,0,0,0,.917,3.886l.654,1.308A2.989,2.989,0,0,0,3,32H4.525a9.044,9.044,0,0,0,4.989,5.3l-.249.747a6.11,6.11,0,0,0-5.2,4.6L3.22,46H0V62H37a2.993,2.993,0,0,0,2.583-1.5A12.852,12.852,0,0,0,45.6,62H57a2.987,2.987,0,0,0,2.22-5,2.954,2.954,0,0,0,0-4,2.954,2.954,0,0,0,0-4,2.967,2.967,0,0,0-.853-4.655l-.426-1.706a6.113,6.113,0,0,0-5.205-4.6l-.249-.747A9.045,9.045,0,0,0,57.475,32ZM59,30H57.941A8.935,8.935,0,0,0,58,29V28h1a1,1,0,0,1,0,2ZM49,14a9.01,9.01,0,0,1,9,9v1.591a2.986,2.986,0,0,0-2.325-2.923l-7.908-1.825a3.007,3.007,0,0,0-1.423-1.51l.805-2.012a11.9,11.9,0,0,0,.646-2.23A9.012,9.012,0,0,1,49,14Zm-5,6h1a1,1,0,0,1,0,2H44ZM25.9,2H36.1a9.9,9.9,0,0,1,9.192,13.578L44.323,18H44V15.6a3.991,3.991,0,0,0-1.781-3.328l-.651-.434A3.859,3.859,0,0,0,42,10.095a3.9,3.9,0,0,0-2.671-3.7l-1.013-.338-.633,1.9,1.013.338a1.906,1.906,0,0,1-.6,3.714H37.88a1.9,1.9,0,0,1-1.058-.32l-.953-.635A3.847,3.847,0,0,0,33.328,6.39l-1.013-.338-.633,1.9,1.013.338A1.9,1.9,0,0,1,34,10.095,1.929,1.929,0,0,1,32,12a9.043,9.043,0,0,1-7.2-3.6L23.2,9.6a10.864,10.864,0,0,0,1.186,1.311l-3.791,1.422A4.021,4.021,0,0,0,18,16.079V18h-.323l-.969-2.422A9.9,9.9,0,0,1,25.9,2ZM39.121,46.88a3,3,0,0,0-1.121-.7v-.77a2.4,2.4,0,0,1,.707-1.707l-1.414-1.414A4.384,4.384,0,0,0,36,45.414V46H33.78l-.721-2.883.2-.407,1.055.7,2.606-4.345A9.083,9.083,0,0,1,40.771,45.3a7.417,7.417,0,0,0-1.65,1.575ZM24.707,42.293l-1.414,1.414A2.4,2.4,0,0,1,24,45.414V46H21.133l.075-.6a9.083,9.083,0,0,1,3.867-6.33l2.606,4.345,1.055-.7.2.407L28.22,46H26v-.586a4.384,4.384,0,0,0-1.293-3.121ZM12.847,42h.306l.667,4H12.18ZM32.095,14a3.882,3.882,0,0,0,2.8-1.2l.814.542A3.887,3.887,0,0,0,37.88,14h.215a3.88,3.88,0,0,0,2.137-.643l.878.585A2,2,0,0,1,42,15.6V23a11,11,0,1,1-22,0V16.079a2.009,2.009,0,0,1,1.3-1.873l4.95-1.856A11.2,11.2,0,0,0,32.095,14Zm-.713,28h-.764l-.2-.408L31,41.2l.586.39Zm-4.424-3.9,2.91,1.455-1.55,1.034-1.467-2.444c.036-.015.071-.031.107-.045Zm6.724,2.489-1.55-1.034,2.91-1.455.107.044Zm.1-4.093L31,37.882l-2.777-1.388.248-.745a12.866,12.866,0,0,0,5.058,0ZM26.547,35.2l-.342,1.026a11.056,11.056,0,0,0-5.259,4.3,6.09,6.09,0,0,0-4.211-2.48l-.253-.759a9.077,9.077,0,0,0,5.038-5.418,13.034,13.034,0,0,0,5.027,3.33ZM15.847,46l-.776-4.657,1.313-1.313a4.1,4.1,0,0,1,3.47,2.654,10.818,10.818,0,0,0-.629,2.467L19.117,46ZM30.78,44h.439l.5,2H30.28Zm11.847.388a10.993,10.993,0,0,0-.478-1.7,4.136,4.136,0,0,1,3.469-2.658l.734.734a3.478,3.478,0,0,0-.93,1.152l-1.055,2.106A7.553,7.553,0,0,0,42.627,44.388Zm2.638-6.343a6.173,6.173,0,0,0-4.2,2.49A11.066,11.066,0,0,0,35.8,36.223L35.453,35.2a13.014,13.014,0,0,0,5.027-3.331,9.08,9.08,0,0,0,5.038,5.418ZM18,22H17a1,1,0,0,1,0-2h1ZM3.959,16.455l2.168-2.168,3,2L13,12.414l1.126,1.126a11.9,11.9,0,0,0,.724,2.78l.805,2.012a3,3,0,0,0-1.588,2.041L7.684,18.9,4.878,21.706A2.989,2.989,0,0,0,4,23.828V26H3.618l-.912-1.824a6.689,6.689,0,0,1,1.253-7.721ZM3,30a1,1,0,1,1,0-2H4v1a8.935,8.935,0,0,0,.059,1Zm3-1V23.828a1,1,0,0,1,.293-.707L8.315,21.1l6.106,1.41A2.993,2.993,0,0,0,17,24h1.051a12.878,12.878,0,0,0,1.9,5.808A7,7,0,0,1,6,29Zm7,9a8.9,8.9,0,0,0,1.565-.144l.291.874L13.586,40H12.414l-1.27-1.27.292-.875A9.061,9.061,0,0,0,13,38ZM6,43.123a4.1,4.1,0,0,1,3.617-3.091l1.311,1.311L10.153,46H5.281ZM38,59a1,1,0,0,1-1,1H2V48H37a1,1,0,0,1,1,1Zm19,1H45.6A10.861,10.861,0,0,1,40,58.442V49.237l.106-.213A5.443,5.443,0,0,1,45,46h.617l1.6-3.185A1.472,1.472,0,0,1,50,43.473V46h7a1,1,0,0,1,0,2H54v2h3a1,1,0,0,1,0,2H54v2h3a1,1,0,0,1,0,2H54v2h3a1,1,0,0,1,0,2ZM56,43.124l.219.876H52v-.527a3.441,3.441,0,0,0-.831-2.228l1.213-1.213A4.106,4.106,0,0,1,56,43.124ZM50.856,38.73,49.586,40H48.414l-1.27-1.27.291-.874A8.9,8.9,0,0,0,49,38a9.061,9.061,0,0,0,1.564-.145ZM49,36a7.027,7.027,0,0,1-6.946-6.193A12.885,12.885,0,0,0,43.949,24H45a2.994,2.994,0,0,0,2.843-2.087l7.383,1.7a.994.994,0,0,1,.774.974V29a7.009,7.009,0,0,1-7,7Z"/>
        <path id="Trazado_1000623" data-name="Trazado 1000623" d="M9,48.764,7.382,52h-3L6,55.236v3.382l3-1.5,3,1.5V55.236L13.618,52h-3Zm1,6v.618l-1-.5-1,.5v-.618L7.618,54h1L9,53.236,9.382,54h1Z"/>
        <path id="Trazado_1000624" data-name="Trazado 1000624" d="M19,48.764,17.382,52h-3L16,55.236v3.382l3-1.5,3,1.5V55.236L23.618,52h-3Zm1,6v.618l-1-.5-1,.5v-.618L17.618,54h1L19,53.236l.382.764h1Z"/>
        <path id="Trazado_1000625" data-name="Trazado 1000625" d="M29,48.764,27.382,52h-3L26,55.236v3.382l3-1.5,3,1.5V55.236L33.618,52h-3Zm1,6v.618l-1-.5-1,.5v-.618L27.618,54h1L29,53.236l.382.764h1Z"/>
      </g>
    </g>
  </g>
</svg>
