<svg xmlns="http://www.w3.org/2000/svg" xmlns:xlink="http://www.w3.org/1999/xlink" width="113" height="113" viewBox="0 0 113 113">
  <defs>
    <filter id="Trazado_982547" x="0" y="0" width="113" height="113" filterUnits="userSpaceOnUse">
      <feOffset dy="3" input="SourceAlpha"/>
      <feGaussianBlur stdDeviation="3" result="blur"/>
      <feFlood flood-opacity="0.161"/>
      <feComposite operator="in" in2="blur"/>
      <feComposite in="SourceGraphic"/>
    </filter>
  </defs>
  <g id="Grupo_1165492" data-name="Grupo 1165492" transform="translate(-902.234 -1027.467)">
    <g id="Grupo_1164264" data-name="Grupo 1164264" transform="translate(0 -80)">
      <g id="Grupo_1163950" data-name="Grupo 1163950" transform="translate(0 -1371)">
        <g id="Grupo_1161820" data-name="Grupo 1161820" transform="translate(911.234 2484.467)">
          <g id="Grupo_1152576" data-name="Grupo 1152576" transform="translate(0)">
            <g id="Grupo_1148633" data-name="Grupo 1148633">
              <g id="Grupo_1148525" data-name="Grupo 1148525">
                <g transform="matrix(1, 0, 0, 1, -9, -6)" filter="url(#Trazado_982547)">
                  <g id="Trazado_982547-2" data-name="Trazado 982547" transform="translate(9 6)" fill="#fff4e6">
                    <path d="M 47.5 93.5 C 41.28937149047852 93.5 35.26533508300781 92.28397369384766 29.59518623352051 89.88570404052734 C 24.11771965026855 87.56893157958984 19.19813346862793 84.25196075439453 14.97309303283691 80.02691650390625 C 10.74804019927979 75.80186462402344 7.431066513061523 70.88229370117188 5.114293098449707 65.40481567382812 C 2.716026782989502 59.73468017578125 1.5 53.71062850952148 1.5 47.5 C 1.5 41.28937149047852 2.716026782989502 35.26533508300781 5.114293098449707 29.59518623352051 C 7.431066513061523 24.11771965026855 10.74804019927979 19.19813346862793 14.97309303283691 14.97309303283691 C 19.19813346862793 10.74804019927979 24.11771965026855 7.431066513061523 29.59518623352051 5.114293098449707 C 35.26533508300781 2.716026782989502 41.28937149047852 1.5 47.5 1.5 C 53.71062850952148 1.5 59.73468017578125 2.716026782989502 65.40481567382812 5.114293098449707 C 70.88229370117188 7.431066513061523 75.80186462402344 10.74804019927979 80.02691650390625 14.97309303283691 C 84.25196075439453 19.19813346862793 87.56893157958984 24.11771965026855 89.88570404052734 29.59518623352051 C 92.28397369384766 35.26533508300781 93.5 41.28937149047852 93.5 47.5 C 93.5 53.71062850952148 92.28397369384766 59.73468017578125 89.88570404052734 65.40481567382812 C 87.56893157958984 70.88229370117188 84.25196075439453 75.80186462402344 80.02691650390625 80.02691650390625 C 75.80186462402344 84.25196075439453 70.88229370117188 87.56893157958984 65.40481567382812 89.88570404052734 C 59.73468017578125 92.28397369384766 53.71062850952148 93.5 47.5 93.5 Z" stroke="none"/>
                    <path d="M 47.5 3 C 41.49121475219727 3 35.66376876831055 4.176155090332031 30.17950439453125 6.495796203613281 C 24.88084411621094 8.736953735351562 20.12152099609375 11.94598388671875 16.03375244140625 16.03375244140625 C 11.94598388671875 20.12152099609375 8.736953735351562 24.88084411621094 6.495796203613281 30.17950439453125 C 4.176155090332031 35.66376876831055 3 41.49121475219727 3 47.5 C 3 53.50878524780273 4.176155090332031 59.33623123168945 6.495796203613281 64.82049560546875 C 8.736953735351562 70.11915588378906 11.94598388671875 74.87847900390625 16.03375244140625 78.96624755859375 C 20.12152099609375 83.05401611328125 24.88084411621094 86.26304626464844 30.17950439453125 88.50419616699219 C 35.66376876831055 90.82384490966797 41.49121475219727 92 47.5 92 C 53.50878524780273 92 59.33623123168945 90.82384490966797 64.82049560546875 88.50419616699219 C 70.11915588378906 86.26304626464844 74.87847900390625 83.05401611328125 78.96624755859375 78.96624755859375 C 83.05401611328125 74.87847900390625 86.26304626464844 70.11915588378906 88.50419616699219 64.82049560546875 C 90.82384490966797 59.33623123168945 92 53.50878524780273 92 47.5 C 92 41.49121475219727 90.82384490966797 35.66376876831055 88.50419616699219 30.17950439453125 C 86.26304626464844 24.88084411621094 83.05401611328125 20.12152099609375 78.96624755859375 16.03375244140625 C 74.87847900390625 11.94598388671875 70.11915588378906 8.736953735351562 64.82049560546875 6.495796203613281 C 59.33623123168945 4.176155090332031 53.50878524780273 3 47.5 3 M 47.5 0 C 73.7335205078125 0 95 21.2664794921875 95 47.5 C 95 73.7335205078125 73.7335205078125 95 47.5 95 C 21.2664794921875 95 0 73.7335205078125 0 47.5 C 0 21.2664794921875 21.2664794921875 0 47.5 0 Z" stroke="none" fill="#ff9d1c"/>
                  </g>
                </g>
              </g>
            </g>
          </g>
        </g>
      </g>
    </g>
    <g id="competition_12650038" transform="translate(918.698 1033.731)">
      <path id="Trazado_1000626" data-name="Trazado 1000626" d="M215.171,46.463l-.929,2.83,2.418-1.754a1.588,1.588,0,0,1,1.883,0l2.414,1.754-.925-2.83a1.6,1.6,0,0,1,.578-1.8l2.414-1.747-2.974.007h-.011a1.6,1.6,0,0,1-1.521-1.112l-.918-2.837-.918,2.837a1.6,1.6,0,0,1-1.521,1.112h-.007l-2.977-.007,2.414,1.747A1.6,1.6,0,0,1,215.171,46.463Z" transform="translate(-177.772 -20.501)" fill="#f7cb7f"/>
      <path id="Trazado_1000627" data-name="Trazado 1000627" d="M68.8,160.075l-.477,1.464,1.241-.908a1.461,1.461,0,0,1,.868-.283,1.437,1.437,0,0,1,.857.283l1.241.908-.47-1.464a1.453,1.453,0,0,1,.527-1.643l1.248-.9H72.287a1.454,1.454,0,0,1-1.388-1.015l-.47-1.464-.481,1.464a1.448,1.448,0,0,1-1.388,1.015H67.014l1.248.9A1.455,1.455,0,0,1,68.8,160.075Z" transform="translate(-50.98 -121.891)" fill="#f7cb7f"/>
      <path id="Trazado_1000628" data-name="Trazado 1000628" d="M393.757,160.075l-.481,1.464,1.248-.908a1.464,1.464,0,0,1,1.729,0l1.241.908-.481-1.464a1.462,1.462,0,0,1,.538-1.643l1.248-.9h-1.546a1.448,1.448,0,0,1-1.388-1.015l-.481-1.464-.47,1.464a1.459,1.459,0,0,1-1.392,1.015h-1.546l1.252.9a1.475,1.475,0,0,1,.527,1.643Z" transform="translate(-334.821 -121.891)" fill="#f7cb7f"/>
      <path id="Trazado_1000629" data-name="Trazado 1000629" d="M464.084,361.9h-2.457a.521.521,0,0,0-.513.517v13.75a.523.523,0,0,0,.513.517h2.457a.529.529,0,0,0,.52-.517v-13.75A.527.527,0,0,0,464.084,361.9Z" transform="translate(-395.208 -302.559)" fill="#c2591d"/>
      <path id="Trazado_1000630" data-name="Trazado 1000630" d="M355.813,352c-.918-1.363-2.185-3.232-5.431-3.232H346.5a1.2,1.2,0,0,0-1.1,1.252v1.126c0,.032.007.065.007.1s-.007.065-.007.1v3.975c2.041-.083,2.2-1.155,2.2-2.647v-.689a1.013,1.013,0,1,1,2.027,0v.689c0,.136,0,.3-.007.5,0,0,.007.007.007.011,0,2.952,1.065,3.612,2.547,4.52.1.057.19.118.287.176a1.013,1.013,0,1,1-1.073,1.718c-.093-.057-.183-.111-.273-.169a6.438,6.438,0,0,1-2.927-2.941,3.686,3.686,0,0,1-.918.513,2.882,2.882,0,0,1-.685,1.74,2.878,2.878,0,0,1,0,3.745,2.892,2.892,0,0,1,.692,1.873,2.975,2.975,0,0,1-.133.861h3.236a5.073,5.073,0,0,0,3.975-1.564,4.627,4.627,0,0,1,3.293-1.5h.37V353.5h-.344c-.854,0-1.324-.692-1.862-1.492Z" transform="translate(-294.14 -291.096)" fill="#ffbcab"/>
      <path id="Trazado_1000631" data-name="Trazado 1000631" d="M381.665,267.942V257.03a.388.388,0,0,0-.38-.384H369.437a.4.4,0,0,0-.391.384v9.248h1.987a7.984,7.984,0,0,1,7.11,4.125c.133.2.3.456.42.6h.108v-.52a2.542,2.542,0,0,1,2.54-2.54h.456Z" transform="translate(-314.791 -210.628)" fill="#60b7ff"/>
      <path id="Trazado_1000632" data-name="Trazado 1000632" d="M214.54,204.823a2.891,2.891,0,0,1,.4-1.453,2.9,2.9,0,0,1-1.134-2.292,2.845,2.845,0,0,1,.936-2.12,2.92,2.92,0,0,1-.488-1.625,2.84,2.84,0,0,1,2.787-2.884h2.188V170.8a.387.387,0,0,0-.38-.387H207a.389.389,0,0,0-.38.387V194.5h2.249a2.839,2.839,0,0,1,2.787,2.884,2.915,2.915,0,0,1-.481,1.625,2.89,2.89,0,0,1-.2,4.412,2.876,2.876,0,0,1-.868,3.835,2.534,2.534,0,0,1,.14.3h5.406a3.1,3.1,0,0,1,.158-.352,2.886,2.886,0,0,1-1.266-2.382Z" transform="translate(-172.918 -135.309)" fill="#0baa79"/>
      <g id="Grupo_1165491" data-name="Grupo 1165491" transform="translate(16.188 57.723)">
        <path id="Trazado_1000633" data-name="Trazado 1000633" d="M291.832,435.512h-5.747a.861.861,0,1,0,0,1.722h5.747a.861.861,0,1,0,0-1.722Z" transform="translate(-257.765 -424.582)" fill="#ffbcab"/>
        <path id="Trazado_1000634" data-name="Trazado 1000634" d="M177.551,406.287H172.02a1.774,1.774,0,0,1-1.654,1.345.852.852,0,0,0,.71.377h6.475a.861.861,0,0,0,0-1.722Z" transform="translate(-157.441 -399.055)" fill="#ffbcab"/>
        <path id="Trazado_1000635" data-name="Trazado 1000635" d="M174.881,465.474H170.06a.861.861,0,0,0,0,1.722h4.821a.861.861,0,1,0,0-1.722Z" transform="translate(-156.425 -450.752)" fill="#ffbcab"/>
        <path id="Trazado_1000636" data-name="Trazado 1000636" d="M79.749,349.139H75.872c-3.25,0-4.513,1.869-5.431,3.232-.538.8-1.008,1.492-1.862,1.492h-.348v8.656H68.6a4.611,4.611,0,0,1,3.289,1.5,5.081,5.081,0,0,0,3.978,1.564h3.243a2.652,2.652,0,0,1-.133-.861,2.874,2.874,0,0,1,.685-1.872,2.9,2.9,0,0,1,0-3.745,2.942,2.942,0,0,1-.685-1.74,3.754,3.754,0,0,1-.911-.506,6.145,6.145,0,0,1-2.859,2.891c-.115.072-.233.14-.348.215a1.014,1.014,0,0,1-1.076-1.718c.126-.079.248-.151.373-.226,1.431-.872,2.464-1.5,2.472-4.473v-.011c-.007-.194-.007-.362-.007-.5v-.689a1.013,1.013,0,0,1,2.027,0v.689c0,1.492.154,2.568,2.2,2.647v-5.291a1.2,1.2,0,0,0-1.1-1.255Z" transform="translate(-68.231 -349.139)" fill="#ffbcab"/>
        <path id="Trazado_1000637" data-name="Trazado 1000637" d="M298.221,465.106h-4.828a.861.861,0,0,0,0,1.722h4.828a.861.861,0,1,0,0-1.722Z" transform="translate(-264.154 -450.431)" fill="#ffbcab"/>
        <path id="Trazado_1000638" data-name="Trazado 1000638" d="M286.757,407.64a.871.871,0,0,0,.71-.38,1.765,1.765,0,0,1-1.661-1.342h-5.531a.861.861,0,0,0,0,1.722h6.482Z" transform="translate(-252.69 -398.733)" fill="#ffbcab"/>
        <path id="Trazado_1000639" data-name="Trazado 1000639" d="M175.8,435.881h-5.739a.861.861,0,0,0,0,1.722H175.8a.861.861,0,0,0,0-1.722Z" transform="translate(-156.426 -424.904)" fill="#ffbcab"/>
        <path id="Trazado_1000640" data-name="Trazado 1000640" d="M189.822,377.578a.823.823,0,0,0-.76-.857h-5.119v1.718h5.119A.826.826,0,0,0,189.822,377.578Z" transform="translate(-169.3 -373.231)" fill="#ffbcab"/>
        <path id="Trazado_1000641" data-name="Trazado 1000641" d="M282.928,377.186a.827.827,0,0,0,.764.861h5.115v-1.722h-5.115A.827.827,0,0,0,282.928,377.186Z" transform="translate(-255.759 -372.885)" fill="#ffbcab"/>
      </g>
      <path id="Trazado_1000642" data-name="Trazado 1000642" d="M47.187,271.047h.108c.118-.143.291-.4.423-.6a7.983,7.983,0,0,1,7.11-4.125h1.926v-9.3a.392.392,0,0,0-.387-.384H44.518a.386.386,0,0,0-.38.384v10.959h.513a2.537,2.537,0,0,1,2.536,2.54v.52Z" transform="translate(-30.999 -210.627)" fill="#ff7577"/>
      <path id="Trazado_1000643" data-name="Trazado 1000643" d="M27.641,362.265H25.184a.527.527,0,0,0-.52.517v13.75a.527.527,0,0,0,.52.517h2.457a.521.521,0,0,0,.513-.517v-13.75a.521.521,0,0,0-.513-.517Z" transform="translate(-13.989 -302.881)" fill="#c2591d"/>
      <path id="Trazado_1000644" data-name="Trazado 1000644" d="M371.452,134.851h.007a1.459,1.459,0,0,0,1.392-1.015l.47-1.464.481,1.464a1.448,1.448,0,0,0,1.388,1.015h1.546l-1.248.9a1.462,1.462,0,0,0-.538,1.643l.481,1.464-1.241-.908a1.464,1.464,0,0,0-1.729,0l-1.248.908.481-1.464a1.475,1.475,0,0,0-.527-1.643l-1.252-.9Zm-4.125.624,2.314,1.679-.882,2.723a1.448,1.448,0,0,0,.527,1.639,1.464,1.464,0,0,0,1.722,0l2.314-1.69,2.314,1.69a1.484,1.484,0,0,0,.872.28,1.464,1.464,0,0,0,1.388-1.919L377,137.154l2.324-1.679a1.467,1.467,0,0,0-.861-2.654l-2.87.007-.875-2.726a1.467,1.467,0,0,0-1.4-1.015,1.448,1.448,0,0,0-1.388,1.015l-.886,2.726-2.859-.007h-.011a1.465,1.465,0,0,0-.85,2.654Z" transform="translate(-312.756 -99.211)" fill="#030403"/>
      <path id="Trazado_1000645" data-name="Trazado 1000645" d="M69.4,194.948a.529.529,0,0,1-.52.517H66.419a.523.523,0,0,1-.513-.517V181.2a.521.521,0,0,1,.513-.517h2.457a.527.527,0,0,1,.52.517ZM63.879,181.2v.52h-.108c-.115-.143-.287-.4-.42-.6a7.983,7.983,0,0,0-7.11-4.125H54.255v-9.248a.4.4,0,0,1,.391-.384H66.494a.388.388,0,0,1,.38.384v10.912h-.456a2.542,2.542,0,0,0-2.54,2.54Zm0,11.2h-.37a4.627,4.627,0,0,0-3.293,1.5,5.073,5.073,0,0,1-3.975,1.564H53.007a2.978,2.978,0,0,0,.133-.861,2.892,2.892,0,0,0-.692-1.872,2.878,2.878,0,0,0,0-3.745,2.882,2.882,0,0,0,.685-1.74,3.679,3.679,0,0,0,.918-.513,6.438,6.438,0,0,0,2.927,2.941c.09.057.179.111.273.169a1.013,1.013,0,1,0,1.073-1.718c-.1-.057-.19-.118-.287-.176-1.481-.907-2.547-1.568-2.547-4.52,0,0-.007-.007-.007-.011.007-.194.007-.362.007-.5v-.689a1.013,1.013,0,1,0-2.027,0v.689c0,1.492-.158,2.565-2.2,2.647v-3.975c0-.032.007-.065.007-.1s-.007-.065-.007-.1v-1.126a1.2,1.2,0,0,1,1.1-1.252h3.878c3.246,0,4.513,1.869,5.431,3.232.538.8,1.008,1.492,1.862,1.492h.344V192.4Zm-13.624-.682H44.509a.861.861,0,0,1,0-1.722h5.747a.861.861,0,0,1,0,1.722Zm0,3.745H45.427a.861.861,0,0,1,0-1.722h4.828a.861.861,0,1,1,0,1.722Zm-7.343-8.351a.859.859,0,0,1,.861-.861H49.3a1.765,1.765,0,0,0,1.661,1.342.871.871,0,0,1-.71.38H43.773a.859.859,0,0,1-.861-.861Zm-.183,6.478H37.324a2.6,2.6,0,0,0-.14-.3,2.876,2.876,0,0,0,.868-3.835,2.89,2.89,0,0,0,.2-4.412,2.915,2.915,0,0,0,.481-1.625,2.839,2.839,0,0,0-2.787-2.884H33.7V156.839a.389.389,0,0,1,.38-.387H45.929a.387.387,0,0,1,.38.387v23.646H44.121a2.839,2.839,0,0,0-2.787,2.884,2.92,2.92,0,0,0,.488,1.625,2.845,2.845,0,0,0-.936,2.12,2.9,2.9,0,0,0,1.134,2.292,2.865,2.865,0,0,0,.868,3.835,3.1,3.1,0,0,0-.158.352ZM36.3,188.022H29.823a.852.852,0,0,1-.71-.377,1.774,1.774,0,0,0,1.654-1.345H36.3a.861.861,0,0,1,0,1.722Zm-.735,3.745H29.823a.861.861,0,0,1,0-1.722h5.739a.861.861,0,1,1,0,1.722Zm-.918,3.745H29.823a.861.861,0,0,1,0-1.722h4.821a.861.861,0,0,1,0,1.722ZM28.808,181.45v4.165c-2.045-.079-2.2-1.155-2.2-2.647v-.689a1.013,1.013,0,0,0-2.027,0v.689c0,.136,0,.3.007.5v.011c-.007,2.97-1.04,3.6-2.472,4.473-.126.075-.248.147-.373.226a1.014,1.014,0,0,0,1.076,1.718c.115-.075.233-.144.348-.215a6.144,6.144,0,0,0,2.859-2.891,3.755,3.755,0,0,0,.911.506,2.94,2.94,0,0,0,.685,1.74,2.9,2.9,0,0,0,0,3.745,2.874,2.874,0,0,0-.685,1.873,2.652,2.652,0,0,0,.133.861H23.829a5.081,5.081,0,0,1-3.978-1.564,4.611,4.611,0,0,0-3.289-1.5h-.373v-8.656h.348c.854,0,1.324-.692,1.862-1.492.918-1.363,2.181-3.232,5.431-3.232h3.878a1.2,1.2,0,0,1,1.1,1.255v1.126Zm-15.156-2.744h-.513V167.747a.386.386,0,0,1,.38-.384H25.368a.392.392,0,0,1,.387.384v9.3H23.829a7.983,7.983,0,0,0-7.11,4.125c-.133.2-.3.452-.423.6h-.108v-.52a2.537,2.537,0,0,0-2.536-2.54ZM14.165,195a.521.521,0,0,1-.513.517H11.195a.527.527,0,0,1-.52-.517V181.246a.527.527,0,0,1,.52-.517h2.457a.521.521,0,0,1,.513.517Zm16.666-12.437H35.95a.866.866,0,0,1,0,1.718H30.831Zm18.406-.05v1.722H44.121a.867.867,0,0,1,0-1.722ZM68.9,178.659V167.747a2.412,2.412,0,0,0-2.407-2.407H54.646a2.407,2.407,0,0,0-2.407,2.407V177a3.213,3.213,0,0,0-3,3.271v.212h-.9V156.839a2.413,2.413,0,0,0-2.407-2.411H34.081a2.4,2.4,0,0,0-2.4,2.411v23.693h-.847v-.208a3.213,3.213,0,0,0-3.056-3.279v-9.3a2.407,2.407,0,0,0-2.407-2.407H13.519a2.412,2.412,0,0,0-2.407,2.407v10.962a2.545,2.545,0,0,0-2.464,2.536v13.75a2.546,2.546,0,0,0,2.547,2.54h2.457a2.537,2.537,0,0,0,2.536-2.54v-.52h.373c.793,0,1.2.319,1.951.99a7.071,7.071,0,0,0,5.316,2.07H34.644a2.887,2.887,0,0,0,2.712-1.919h5.374a2.888,2.888,0,0,0,2.7,1.873H56.242a7.1,7.1,0,0,0,5.323-2.073c.753-.667,1.148-.986,1.944-.986h.37v.52a2.544,2.544,0,0,0,2.54,2.54h2.457a2.548,2.548,0,0,0,2.547-2.54V181.2a2.545,2.545,0,0,0-2.522-2.54Z" transform="translate(0 -121.345)" fill="#030403"/>
      <path id="Trazado_1000646" data-name="Trazado 1000646" d="M195.1,22.422h.007a1.6,1.6,0,0,0,1.521-1.112l.918-2.837.918,2.837a1.6,1.6,0,0,0,1.521,1.112h.011l2.974-.007-2.414,1.747a1.6,1.6,0,0,0-.578,1.8l.925,2.83-2.414-1.754a1.588,1.588,0,0,0-1.883,0l-2.418,1.754.929-2.83a1.6,1.6,0,0,0-.581-1.8l-2.414-1.747Zm-5.216.872,3.214,2.328-1.23,3.781a1.6,1.6,0,0,0,1.521,2.1,1.623,1.623,0,0,0,.951-.309l3.207-2.342,3.21,2.342a1.6,1.6,0,0,0,2.471-1.794l-1.234-3.781,3.218-2.328a1.6,1.6,0,0,0-.933-2.906h-.011l-3.975.007-1.216-3.781v0a1.609,1.609,0,0,0-3.06,0L194.8,20.395l-3.978-.007h-.007a1.6,1.6,0,0,0-.933,2.906Z" transform="translate(-157.714 0)" fill="#030403"/>
      <path id="Trazado_1000647" data-name="Trazado 1000647" d="M46.46,134.851h.011a1.448,1.448,0,0,0,1.388-1.015l.481-1.464.47,1.464a1.454,1.454,0,0,0,1.388,1.015h1.546l-1.248.9a1.453,1.453,0,0,0-.527,1.643l.47,1.464-1.241-.908a1.437,1.437,0,0,0-.857-.283,1.46,1.46,0,0,0-.868.283l-1.241.908.477-1.464a1.455,1.455,0,0,0-.535-1.643l-1.248-.9Zm-4.125.624,2.325,1.679-.893,2.723a1.466,1.466,0,0,0,2.256,1.639l2.317-1.69,2.307,1.69a1.47,1.47,0,0,0,1.725,0,1.45,1.45,0,0,0,.531-1.639l-.886-2.723,2.317-1.682a1.464,1.464,0,0,0-.854-2.651h-.007l-2.863.007-.882-2.726a1.464,1.464,0,0,0-2.787,0l-.875,2.726-2.87-.007a1.465,1.465,0,0,0-.861,2.654Z" transform="translate(-28.891 -99.211)" fill="#030403"/>
    </g>
  </g>
</svg>
