<svg xmlns="http://www.w3.org/2000/svg" xmlns:xlink="http://www.w3.org/1999/xlink" width="113" height="113" viewBox="0 0 113 113">
  <defs>
    <filter id="Trazado_982547" x="0" y="0" width="113" height="113" filterUnits="userSpaceOnUse">
      <feOffset dy="3" input="SourceAlpha"/>
      <feGaussianBlur stdDeviation="3" result="blur"/>
      <feFlood flood-opacity="0.161"/>
      <feComposite operator="in" in2="blur"/>
      <feComposite in="SourceGraphic"/>
    </filter>
  </defs>
  <g id="Grupo_1165493" data-name="Grupo 1165493" transform="translate(-1217 -1027)">
    <g id="Grupo_1164265" data-name="Grupo 1164265" transform="translate(0 -80)">
      <g id="Grupo_1163951" data-name="Grupo 1163951" transform="translate(0 -1371)">
        <g id="Grupo_1161821" data-name="Grupo 1161821" transform="translate(1226 2484)">
          <g id="Grupo_1152576" data-name="Grupo 1152576" transform="translate(0)">
            <g id="Grupo_1148633" data-name="Grupo 1148633">
              <g id="Grupo_1148525" data-name="Grupo 1148525">
                <g transform="matrix(1, 0, 0, 1, -9, -6)" filter="url(#Trazado_982547)">
                  <g id="Trazado_982547-2" data-name="Trazado 982547" transform="translate(9 6)" fill="#fff4e6">
                    <path d="M 47.5 93.5 C 41.28937149047852 93.5 35.26533508300781 92.28397369384766 29.59518623352051 89.88570404052734 C 24.11771965026855 87.56893157958984 19.19813346862793 84.25196075439453 14.97309303283691 80.02691650390625 C 10.74804019927979 75.80186462402344 7.431066513061523 70.88229370117188 5.114293098449707 65.40481567382812 C 2.716026782989502 59.73468017578125 1.5 53.71062850952148 1.5 47.5 C 1.5 41.28937149047852 2.716026782989502 35.26533508300781 5.114293098449707 29.59518623352051 C 7.431066513061523 24.11771965026855 10.74804019927979 19.19813346862793 14.97309303283691 14.97309303283691 C 19.19813346862793 10.74804019927979 24.11771965026855 7.431066513061523 29.59518623352051 5.114293098449707 C 35.26533508300781 2.716026782989502 41.28937149047852 1.5 47.5 1.5 C 53.71062850952148 1.5 59.73468017578125 2.716026782989502 65.40481567382812 5.114293098449707 C 70.88229370117188 7.431066513061523 75.80186462402344 10.74804019927979 80.02691650390625 14.97309303283691 C 84.25196075439453 19.19813346862793 87.56893157958984 24.11771965026855 89.88570404052734 29.59518623352051 C 92.28397369384766 35.26533508300781 93.5 41.28937149047852 93.5 47.5 C 93.5 53.71062850952148 92.28397369384766 59.73468017578125 89.88570404052734 65.40481567382812 C 87.56893157958984 70.88229370117188 84.25196075439453 75.80186462402344 80.02691650390625 80.02691650390625 C 75.80186462402344 84.25196075439453 70.88229370117188 87.56893157958984 65.40481567382812 89.88570404052734 C 59.73468017578125 92.28397369384766 53.71062850952148 93.5 47.5 93.5 Z" stroke="none"/>
                    <path d="M 47.5 3 C 41.49121475219727 3 35.66376876831055 4.176155090332031 30.17950439453125 6.495796203613281 C 24.88084411621094 8.736953735351562 20.12152099609375 11.94598388671875 16.03375244140625 16.03375244140625 C 11.94598388671875 20.12152099609375 8.736953735351562 24.88084411621094 6.495796203613281 30.17950439453125 C 4.176155090332031 35.66376876831055 3 41.49121475219727 3 47.5 C 3 53.50878524780273 4.176155090332031 59.33623123168945 6.495796203613281 64.82049560546875 C 8.736953735351562 70.11915588378906 11.94598388671875 74.87847900390625 16.03375244140625 78.96624755859375 C 20.12152099609375 83.05401611328125 24.88084411621094 86.26304626464844 30.17950439453125 88.50419616699219 C 35.66376876831055 90.82384490966797 41.49121475219727 92 47.5 92 C 53.50878524780273 92 59.33623123168945 90.82384490966797 64.82049560546875 88.50419616699219 C 70.11915588378906 86.26304626464844 74.87847900390625 83.05401611328125 78.96624755859375 78.96624755859375 C 83.05401611328125 74.87847900390625 86.26304626464844 70.11915588378906 88.50419616699219 64.82049560546875 C 90.82384490966797 59.33623123168945 92 53.50878524780273 92 47.5 C 92 41.49121475219727 90.82384490966797 35.66376876831055 88.50419616699219 30.17950439453125 C 86.26304626464844 24.88084411621094 83.05401611328125 20.12152099609375 78.96624755859375 16.03375244140625 C 74.87847900390625 11.94598388671875 70.11915588378906 8.736953735351562 64.82049560546875 6.495796203613281 C 59.33623123168945 4.176155090332031 53.50878524780273 3 47.5 3 M 47.5 0 C 73.7335205078125 0 95 21.2664794921875 95 47.5 C 95 73.7335205078125 73.7335205078125 95 47.5 95 C 21.2664794921875 95 0 73.7335205078125 0 47.5 C 0 21.2664794921875 21.2664794921875 0 47.5 0 Z" stroke="none" fill="#ff9d1c"/>
                  </g>
                </g>
              </g>
            </g>
          </g>
        </g>
      </g>
    </g>
    <g id="puzzle_1332012" transform="translate(1242.322 1049.765)">
      <path id="Trazado_1000648" data-name="Trazado 1000648" d="M125.945,83.556a4.41,4.41,0,0,1,0-8.762.568.568,0,0,0,.509-.562V72.452a2.607,2.607,0,0,0-2.6-2.6h-1.789a.568.568,0,0,0-.562.508,4.41,4.41,0,0,1-8.761,0,.568.568,0,0,0-.562-.508h-1.789a2.606,2.606,0,0,0-2.6,2.6,2.607,2.607,0,0,0-2.6-2.6l-1.877,0a.466.466,0,0,1-.464-.421,4.41,4.41,0,0,0-8.78,0,.466.466,0,0,1-.464.421l-1.877,0a2.607,2.607,0,0,0-2.6,2.6v1.869a.466.466,0,0,1-.421.465,4.41,4.41,0,0,0,0,8.78.466.466,0,0,1,.421.465v1.882a2.607,2.607,0,0,0,2.6,2.6l2.321-.008a4.409,4.409,0,0,1,8.8-.42.466.466,0,0,0,.463.421l1.877.007a2.608,2.608,0,0,0,2.6-2.6,2.608,2.608,0,0,0,2.6,2.6l1.79-.006a.568.568,0,0,0,.56-.509,4.41,4.41,0,0,1,8.762,0,.568.568,0,0,0,.56.509l1.789.006a2.607,2.607,0,0,0,2.6-2.6V84.119a.568.568,0,0,0-.509-.562Zm0,0" transform="translate(-74.408 -57.468)" fill="#6990d7"/>
      <path id="Trazado_1000649" data-name="Trazado 1000649" d="M256.6,111.014a4.411,4.411,0,0,1,3.9-4.381.569.569,0,0,0,.509-.562V104.29a2.607,2.607,0,0,0-2.6-2.6h-1.789a.569.569,0,0,0-.562.508,4.41,4.41,0,0,1-8.76,0,.568.568,0,0,0-.562-.508h-1.788a2.606,2.606,0,0,0-2.6,2.6v1.781a.569.569,0,0,1-.509.562,4.41,4.41,0,0,0,0,8.761.569.569,0,0,1,.509.562v1.794a2.608,2.608,0,0,0,2.6,2.6l1.79-.006a.569.569,0,0,0,.56-.509,4.41,4.41,0,0,1,8.762,0,.569.569,0,0,0,.56.509l1.79.006a2.608,2.608,0,0,0,2.6-2.6v-1.794a.568.568,0,0,0-.509-.562,4.41,4.41,0,0,1-3.9-4.381Zm0,0" transform="translate(-208.967 -89.306)" fill="#6990d7"/>
      <path id="Trazado_1000650" data-name="Trazado 1000650" d="M103.385,79.171a4.41,4.41,0,0,1,3.988-4.39.466.466,0,0,0,.421-.464v-1.87a2.607,2.607,0,0,0-2.6-2.6l-1.877,0a.467.467,0,0,1-.464-.421,4.41,4.41,0,0,0-8.78,0,.466.466,0,0,1-.464.421l-1.877,0a2.607,2.607,0,0,0-2.6,2.6v1.87a.466.466,0,0,1-.421.465,4.41,4.41,0,0,0,0,8.78.466.466,0,0,1,.421.465v1.882a2.607,2.607,0,0,0,2.6,2.6l2.321-.008a4.409,4.409,0,0,1,8.8-.42.466.466,0,0,0,.463.421l1.877.006a2.607,2.607,0,0,0,2.6-2.6V84.026a.466.466,0,0,0-.421-.464,4.409,4.409,0,0,1-3.988-4.39Zm0,0" transform="translate(-74.408 -57.464)" fill="#1ed688"/>
      <path id="Trazado_1000651" data-name="Trazado 1000651" d="M140.067,331.1l-21.006,10.651a8.525,8.525,0,0,1-9.19-.024c-1.3-.841-1.713-.922-8.569-4.312-3.047-1.49-5.822-1.965-10.345-2.522V321.739h15a3.511,3.511,0,0,1,2.483,1.029l6.748,6.746a3.069,3.069,0,0,1,.9,2.254l.144-.1,22.018-5.543a2.715,2.715,0,0,1,1.816,4.978Zm0,0" transform="translate(-79.88 -282.555)" fill="#f2bb88"/>
      <path id="Trazado_1000652" data-name="Trazado 1000652" d="M115.273,333.732a2.972,2.972,0,0,1-4.244.037l-5.61-5.611a1.6,1.6,0,0,0-1.129-.468H90.956v-5.951h15a3.51,3.51,0,0,1,2.482,1.029l6.748,6.747a3.022,3.022,0,0,1,.084,4.218Zm0,0" transform="translate(-79.879 -282.555)" fill="#f2d1a5"/>
      <path id="Trazado_1000653" data-name="Trazado 1000653" d="M18.439,291.96v16.267a3.8,3.8,0,0,1-.062.679h0a3.726,3.726,0,0,1-3.65,3.035H11.241a3.725,3.725,0,0,1-3.714-3.714V291.96a3.727,3.727,0,0,1,3.061-3.656,3.613,3.613,0,0,1,.653-.059h3.483a3.725,3.725,0,0,1,3.714,3.714Zm0,0" transform="translate(-6.611 -253.141)" fill="#919196"/>
      <path id="Trazado_1000654" data-name="Trazado 1000654" d="M40.054,291.96v16.267a3.8,3.8,0,0,1-.062.679h0a3.618,3.618,0,0,1-.654.059H35.855a3.725,3.725,0,0,1-3.714-3.714V288.983a3.676,3.676,0,0,1,.064-.678,3.613,3.613,0,0,1,.653-.059H36.34a3.725,3.725,0,0,1,3.714,3.714Zm0,0" transform="translate(-28.226 -253.141)" fill="#a0a0a5"/>
      <path id="Trazado_1000655" data-name="Trazado 1000655" d="M38.682,418.924a2.2,2.2,0,1,1-2.2-2.2A2.2,2.2,0,0,1,38.682,418.924Zm0,0" transform="translate(-30.113 -365.975)" fill="#5a5f64"/>
      <path id="Trazado_1000656" data-name="Trazado 1000656" d="M58.736,289.376c-.836,0,.7-.214-21.723,5.372a3.964,3.964,0,0,0-1-1.7l-6.734-6.734a4.392,4.392,0,0,0-3.126-1.295H12.717a4.637,4.637,0,0,0-4.6-4.123H4.631A4.636,4.636,0,0,0,0,285.529V301.8a4.637,4.637,0,0,0,4.631,4.632H8.114a4.637,4.637,0,0,0,4.631-4.632v-1.622c2.225.473,4.833.513,8.355,2.236,6.966,3.441,7.227,3.457,8.456,4.249a9.421,9.421,0,0,0,10.121.052l17.44-8.842a.917.917,0,1,0-.829-1.636c-18.238,9.248-17.485,8.861-17.557,8.907a7.588,7.588,0,0,1-8.182-.022c-1.374-.886-1.8-.972-8.644-4.355-3.846-1.882-6.724-1.932-9.161-2.45V286.856h13.4a2.572,2.572,0,0,1,1.83.758l6.733,6.733a2.052,2.052,0,1,1-2.854,2.949l-6.065-6.068a.917.917,0,0,0-1.3,1.3l6.067,6.067a3.872,3.872,0,0,0,6.54-1.976l21.44-5.4a1.789,1.789,0,0,1,1.98,1.78,1.722,1.722,0,0,1-.962,1.573.917.917,0,0,0,.83,1.636l.21-.107a3.622,3.622,0,0,0-1.863-6.726ZM10.911,301.8a2.8,2.8,0,0,1-2.8,2.8H4.631a2.8,2.8,0,0,1-2.8-2.8V285.529a2.8,2.8,0,0,1,2.8-2.8H8.114a2.8,2.8,0,0,1,2.751,2.29c.069.375.046,16.761.046,16.774Zm0,0" transform="translate(0 -246.689)"/>
      <path id="Trazado_1000657" data-name="Trazado 1000657" d="M31.085,410.915a.917.917,0,1,0-.725,1.685,1.28,1.28,0,1,1-1.725.789.917.917,0,1,0-1.748-.555,3.114,3.114,0,1,0,4.2-1.919Zm0,0" transform="translate(-23.484 -360.805)"/>
      <path id="Trazado_1000658" data-name="Trazado 1000658" d="M78.378,74.34a.916.916,0,0,0,.716-1.081,3.5,3.5,0,0,1,3.422-4.19.917.917,0,0,0,.917-.917V65.838a1.684,1.684,0,0,1,1.682-1.682h2.321a.917.917,0,0,0,.917-.917V63.22a3.493,3.493,0,0,1,6.985.005v.014a.917.917,0,0,0,.917.917h2.321a1.684,1.684,0,0,1,1.683,1.682v1.476a5.326,5.326,0,0,0-3.793,2.757.941.941,0,0,0-.042.092,5.311,5.311,0,0,0-.29,4.108.923.923,0,0,0,.028.092,5.36,5.36,0,0,0,4.1,3.446V79.3a1.685,1.685,0,0,1-1.683,1.683H97.094a5.326,5.326,0,0,0-10.5,0H85.115A1.684,1.684,0,0,1,83.433,79.3V76.971a.917.917,0,0,0-.917-.917,3.487,3.487,0,0,1-1.79-.493.917.917,0,0,0-.942,1.574,5.3,5.3,0,0,0,1.815.674V79.3a3.52,3.52,0,0,0,3.516,3.517h2.321a.924.924,0,0,0,.917-.925,3.492,3.492,0,1,1,6.985.008.917.917,0,0,0,.917.917h2.321a3.509,3.509,0,0,0,2.6-1.151,3.508,3.508,0,0,0,2.6,1.151H106.1a.924.924,0,0,0,.917-.925A3.493,3.493,0,1,1,114,81.9a.917.917,0,0,0,.917.917h2.321a3.52,3.52,0,0,0,3.516-3.517V76.971a.918.918,0,0,0-.918-.917,3.493,3.493,0,0,1,0-6.986h0a.917.917,0,0,0,.917-.917V65.838a3.52,3.52,0,0,0-3.516-3.516h-2.321a.916.916,0,0,0-.917.916,3.493,3.493,0,0,1-6.986,0,.917.917,0,0,0-.917-.915h-2.321a3.507,3.507,0,0,0-2.6,1.15,3.509,3.509,0,0,0-2.6-1.15H97.094a5.327,5.327,0,0,0-10.5,0H85.115A3.52,3.52,0,0,0,81.6,65.838v1.476a5.335,5.335,0,0,0-4.3,6.31.917.917,0,0,0,1.081.716Zm22.8-5.271a.917.917,0,0,0,.917-.917V65.838a1.684,1.684,0,0,1,1.682-1.682h1.484a5.327,5.327,0,0,0,10.493,0h1.484a1.684,1.684,0,0,1,1.682,1.682v1.476a5.327,5.327,0,0,0,0,10.5V79.3a1.684,1.684,0,0,1-1.682,1.683h-1.482a5.327,5.327,0,0,0-10.5,0h-1.483a1.684,1.684,0,0,1-1.682-1.683V76.971a.917.917,0,0,0-.931-.917,3.492,3.492,0,0,1,.015-6.985Zm0,0" transform="translate(-67.789 -50.854)"/>
      <path id="Trazado_1000659" data-name="Trazado 1000659" d="M248.516,289.57v2.343a.917.917,0,0,0,1.834,0V289.57a.917.917,0,1,0-1.834,0Zm0,0" transform="translate(-218.25 -253.499)"/>
      <path id="Trazado_1000660" data-name="Trazado 1000660" d="M249.432,4.177a.917.917,0,0,0,.917-.917V.917a.917.917,0,1,0-1.834,0V3.261A.917.917,0,0,0,249.432,4.177Zm0,0" transform="translate(-218.25)"/>
      <path id="Trazado_1000661" data-name="Trazado 1000661" d="M27,129.908h2.343a.917.917,0,1,0,0-1.834H27a.917.917,0,1,0,0,1.834Zm0,0" transform="translate(-22.906 -112.477)"/>
      <path id="Trazado_1000662" data-name="Trazado 1000662" d="M91.243,25.77c1.709,1.352,1.818,1.721,2.384,1.721a.918.918,0,0,0,.59-1.619l-1.8-1.506a.917.917,0,1,0-1.179,1.4Zm0,0" transform="translate(-79.843 -21.21)"/>
      <path id="Trazado_1000663" data-name="Trazado 1000663" d="M47.682,238.572c.306,0,.3-.072,2.517-.931a.917.917,0,0,0-.677-1.7l-2.178.866a.918.918,0,0,0,.339,1.769Zm0,0" transform="translate(-41.072 -207.145)"/>
      <path id="Trazado_1000664" data-name="Trazado 1000664" d="M465.772,139.888h2.343a.917.917,0,1,0,0-1.834h-2.343a.917.917,0,0,0,0,1.834Zm0,0" transform="translate(-408.242 -121.241)"/>
      <path id="Trazado_1000665" data-name="Trazado 1000665" d="M434.965,276.9l1.8,1.507a.917.917,0,0,0,1.179-1.4l-1.8-1.507a.917.917,0,0,0-1.178,1.4Zm0,0" transform="translate(-381.704 -241.756)"/>
      <path id="Trazado_1000666" data-name="Trazado 1000666" d="M382.141,22.857l1.846-1.443a.917.917,0,1,0-1.129-1.445l-1.847,1.443a.917.917,0,0,0,1.129,1.445Zm0,0" transform="translate(-334.3 -17.366)"/>
    </g>
  </g>
</svg>
