<svg xmlns="http://www.w3.org/2000/svg" xmlns:xlink="http://www.w3.org/1999/xlink" width="110" height="110" viewBox="0 0 110 110">
  <defs>
    <filter id="Trazado_982547" x="0" y="0" width="110" height="110" filterUnits="userSpaceOnUse">
      <feOffset dy="3" input="SourceAlpha"/>
      <feGaussianBlur stdDeviation="3" result="blur"/>
      <feFlood flood-opacity="0.161"/>
      <feComposite operator="in" in2="blur"/>
      <feComposite in="SourceGraphic"/>
    </filter>
  </defs>
  <g id="Grupo_1165500" data-name="Grupo 1165500" transform="translate(-1113 -2050.665)">
    <g id="Grupo_1164285" data-name="Grupo 1164285" transform="translate(313 -1745.335)">
      <g id="Grupo_1159364" data-name="Grupo 1159364" transform="translate(0 -542)">
        <g id="Grupo_1157015" data-name="Grupo 1157015" transform="translate(0 3549)">
          <g id="Grupo_1155792" data-name="Grupo 1155792" transform="translate(-1 -3894.666)">
            <g id="Grupo_1154703" data-name="Grupo 1154703" transform="translate(0 1465.666)">
              <g id="Grupo_1150789" data-name="Grupo 1150789" transform="translate(3 2320)">
                <g id="Grupo_1154212" data-name="Grupo 1154212" transform="translate(-236 -5809)">
                  <g id="Grupo_1152583" data-name="Grupo 1152583" transform="translate(1043 6713)">
                    <g id="Grupo_1146973" data-name="Grupo 1146973" transform="translate(0 0)">
                      <g id="Grupo_1146954" data-name="Grupo 1146954">
                        <g transform="matrix(1, 0, 0, 1, -9, -6)" filter="url(#Trazado_982547)">
                          <g id="Trazado_982547-2" data-name="Trazado 982547" transform="translate(9 6)" fill="#fff4e6">
                            <path d="M 46 90.49987030029297 C 39.99187850952148 90.49987030029297 34.16426849365234 89.32350921630859 28.67905426025391 87.00345611572266 C 23.38019943237305 84.76224517822266 18.62104034423828 81.55341339111328 14.53374671936035 77.46613311767578 C 10.44646644592285 73.37885284423828 7.237639904022217 68.61969757080078 4.996413230895996 63.32085418701172 C 2.676359891891479 57.83565521240234 1.5 52.008056640625 1.5 45.99993515014648 C 1.5 39.99181365966797 2.676359891891479 34.16421508789062 4.996413230895996 28.67901420593262 C 7.237639904022217 23.38017463684082 10.44646644592285 18.62101554870605 14.53374671936035 14.53373527526855 C 18.62104034423828 10.44645500183105 23.38019943237305 7.23762845993042 28.67905426025391 4.996415138244629 C 34.16426849365234 2.676361799240112 39.99187850952148 1.500001788139343 46 1.500001788139343 C 52.00812149047852 1.500001788139343 57.83573150634766 2.676361799240112 63.32094573974609 4.996415138244629 C 68.61979675292969 7.23762845993042 73.37895965576172 10.44645500183105 77.46625518798828 14.53373527526855 C 81.55353546142578 18.62101554870605 84.76235961914062 23.38017463684082 87.00358581542969 28.67901420593262 C 89.32363891601562 34.16421508789062 90.5 39.99181365966797 90.5 45.99993515014648 C 90.5 52.008056640625 89.32363891601562 57.83565521240234 87.00358581542969 63.32085418701172 C 84.76235961914062 68.61969757080078 81.55353546142578 73.37885284423828 77.46625518798828 77.46613311767578 C 73.37895965576172 81.55341339111328 68.61979675292969 84.76224517822266 63.32094573974609 87.00345611572266 C 57.83573150634766 89.32350921630859 52.00812149047852 90.49987030029297 46 90.49987030029297 Z" stroke="none"/>
                            <path d="M 46 2.999992370605469 C 40.1937141418457 2.999992370605469 34.56269836425781 4.136489868164062 29.26337051391602 6.377906799316406 C 24.14332580566406 8.543502807617188 19.54441070556641 11.64437866210938 15.59439849853516 15.59437561035156 C 11.64440155029297 19.54439544677734 8.54351806640625 24.14329528808594 6.377914428710938 29.26333618164062 C 4.136497497558594 34.56264877319336 3 40.19366455078125 3 45.99993515014648 C 3 51.80620574951172 4.136497497558594 57.43720626831055 6.377914428710938 62.73651885986328 C 8.54351806640625 67.8565673828125 11.64440155029297 72.45545959472656 15.59439849853516 76.40547943115234 C 19.54441070556641 80.35547637939453 24.14332580566406 83.45635223388672 29.26337051391602 85.6219482421875 C 34.56269836425781 87.86336517333984 40.1937141418457 88.99986267089844 46 88.99986267089844 C 51.8062858581543 88.99986267089844 57.43730163574219 87.86336517333984 62.73661422729492 85.6219482421875 C 67.85667419433594 83.45635223388672 72.45557403564453 80.35547637939453 76.40558624267578 76.40547943115234 C 80.35559844970703 72.45545959472656 83.45647430419922 67.8565673828125 85.6220703125 62.73651885986328 C 87.86350250244141 57.43720626831055 89 51.80620574951172 89 45.99993515014648 C 89 40.19366455078125 87.86350250244141 34.56264877319336 85.6220703125 29.26333618164062 C 83.45647430419922 24.14329528808594 80.35559844970703 19.54439544677734 76.40558624267578 15.59437561035156 C 72.45557403564453 11.64437866210938 67.85667419433594 8.543502807617188 62.73661422729492 6.377906799316406 C 57.43730163574219 4.136489868164062 51.8062858581543 2.999992370605469 46 2.999992370605469 M 46 -7.62939453125e-06 C 71.40509033203125 -7.62939453125e-06 92 20.59486389160156 92 45.99993515014648 C 92 71.40499114990234 71.40509033203125 91.99986267089844 46 91.99986267089844 C 20.59490203857422 91.99986267089844 0 71.40499114990234 0 45.99993515014648 C 0 20.59486389160156 20.59490203857422 -7.62939453125e-06 46 -7.62939453125e-06 Z" stroke="none" fill="#ff9d1c"/>
                          </g>
                        </g>
                      </g>
                    </g>
                  </g>
                </g>
              </g>
            </g>
          </g>
        </g>
      </g>
    </g>
    <g id="report_2659998" transform="translate(1120.207 2071.806)">
      <g id="Grupo_1165498" data-name="Grupo 1165498" transform="translate(20.171 0.908)">
        <g id="Grupo_1165497" data-name="Grupo 1165497" transform="translate(0)">
          <path id="Trazado_1000680" data-name="Trazado 1000680" d="M130.093,11.837A4.573,4.573,0,0,0,125.6,7.5h-.088a4.5,4.5,0,0,0-4.416,4.5V61.924h41.065V11.837Z" transform="translate(-109.685 -7.502)" fill="#f9f7f8"/>
          <path id="Trazado_1000681" data-name="Trazado 1000681" d="M267.8,451.611v3.4a2.789,2.789,0,0,0,5.578,0v-3.4Z" transform="translate(-238.643 -397.896)" fill="#d7d0d6"/>
          <path id="Trazado_1000682" data-name="Trazado 1000682" d="M132.848,24.814l-6.188-1.884a2.194,2.194,0,0,1-1.555-2.1v-8.4A4.5,4.5,0,0,1,128,8.219a4.392,4.392,0,0,0-2.4-.717h-.088a4.5,4.5,0,0,0-4.416,4.5V61.924H125.1v-10.3a2.145,2.145,0,0,1,1.668-2.092,11.257,11.257,0,0,0,8.754-10.975V28.429a3.759,3.759,0,0,0-2.679-3.616Z" transform="translate(-109.685 -7.502)" fill="#e5e1e5"/>
          <path id="Trazado_1000683" data-name="Trazado 1000683" d="M43.181,169.8l-4.314.984a3.116,3.116,0,0,1-1.386,0l-4.314-.984a8.234,8.234,0,0,1-6.4-8.027V151.639a.756.756,0,0,1,.536-.723l10.49-3.194a1.317,1.317,0,0,1,.767,0l10.49,3.194a.756.756,0,0,1,.536.723V161.77A8.234,8.234,0,0,1,43.181,169.8Z" transform="translate(-26.765 -130.711)" fill="#9cf8d2"/>
          <path id="Trazado_1000684" data-name="Trazado 1000684" d="M43.929,182.251a3.117,3.117,0,0,1-1.386,0l-4.314-.984a8.234,8.234,0,0,1-6.4-8.027V163.108a.755.755,0,0,1,.233-.545l-4.76,1.449a.756.756,0,0,0-.536.723v10.131a8.233,8.233,0,0,0,6.4,8.027l4.314.984a3.117,3.117,0,0,0,1.386,0l4.314-.984a8.222,8.222,0,0,0,2.545-1.053Z" transform="translate(-26.765 -143.808)" fill="#6cf5c2"/>
          <path id="Trazado_1000685" data-name="Trazado 1000685" d="M60.347,193.392a4.582,4.582,0,0,1-3.581-4.49v-8l7.781-2.369,7.781,2.369v8a4.582,4.582,0,0,1-3.581,4.49l-4.2.958Z" transform="translate(-53.137 -157.844)" fill="#00f2a6"/>
          <path id="Trazado_1000686" data-name="Trazado 1000686" d="M61.126,207.619a8.229,8.229,0,0,1-2.927-6.295v-6.813l-1.433.437v8a4.582,4.582,0,0,0,3.581,4.49Z" transform="translate(-53.136 -171.893)" fill="#05e39c"/>
          <g id="XMLID_149_" transform="translate(8.642 51.64)">
            <g id="Grupo_1165496" data-name="Grupo 1165496">
              <path id="Trazado_1000687" data-name="Trazado 1000687" d="M142.638,434.452a2.177,2.177,0,1,1,0,4.354H100.391a2.177,2.177,0,1,1,0-4.354h42.247Z" transform="translate(-98.214 -434.452)" fill="#fff"/>
            </g>
          </g>
          <path id="Trazado_1000688" data-name="Trazado 1000688" d="M158.313,7.5h0v3.024a1.549,1.549,0,0,1,1.482,1.569V16.5a3.418,3.418,0,0,0,3.414,3.414h31.667v-8.08H162.808A4.572,4.572,0,0,0,158.313,7.5Z" transform="translate(-142.4 -7.502)" fill="#e5e1e5"/>
          <path id="Trazado_1000689" data-name="Trazado 1000689" d="M197.561,12.006v4.5a.39.39,0,0,1-.391.391H163.228a.391.391,0,0,1-.391-.391V12.095a4.577,4.577,0,0,0-4.5-4.593h34.723A4.5,4.5,0,0,1,197.561,12.006Z" transform="translate(-142.421 -7.502)" fill="#f9f7f8"/>
        </g>
      </g>
      <g id="Grupo_1165499" data-name="Grupo 1165499" transform="translate(19.264 0.001)">
        <path id="Trazado_1000690" data-name="Trazado 1000690" d="M57.952,188.664a.908.908,0,0,1-.2-.023l-4.2-.958a5.484,5.484,0,0,1-4.286-5.374v-2.982a.907.907,0,1,1,1.814,0v2.982a3.679,3.679,0,0,0,2.875,3.605l4,.912,4-.912a3.679,3.679,0,0,0,2.875-3.605v-7.331l-6.874-2.093-6.874,2.093v.483a.907.907,0,0,1-1.814,0v-1.155a.907.907,0,0,1,.643-.868l7.781-2.369a.907.907,0,0,1,.529,0L66,173.438a.907.907,0,0,1,.643.868v8a5.484,5.484,0,0,1-4.286,5.374l-4.2.958a.9.9,0,0,1-.2.023Z" transform="translate(-45.635 -150.343)"/>
        <path id="Trazado_1000691" data-name="Trazado 1000691" d="M93.99,222.763a.9.9,0,0,1-.51-.157l-2.373-1.615a.907.907,0,0,1,1.021-1.5l1.65,1.124,3.015-4.092a.907.907,0,1,1,1.461,1.076l-3.534,4.8A.906.906,0,0,1,93.99,222.763Z" transform="translate(-82.069 -190.009)"/>
        <path id="Trazado_1000692" data-name="Trazado 1000692" d="M73.553,51.657V11.206h1.368a1.3,1.3,0,0,0,1.3-1.3v-4.5A5.417,5.417,0,0,0,70.808,0H35.979a5.438,5.438,0,0,0-5.306,5.41V17.129L20.443,20.244a1.654,1.654,0,0,0-1.179,1.591V31.967a9.141,9.141,0,0,0,7.108,8.912l4.3.981v9.8a3.084,3.084,0,0,0,.317,6.152H48.417v.212a3.7,3.7,0,0,0,7.393,0v-.212H73.237a3.084,3.084,0,0,0,.317-6.152ZM70.808,1.815a3.6,3.6,0,0,1,3.6,3.6v3.98H41.5V5.5a5.572,5.572,0,0,0-1.411-3.686ZM21.078,31.967V21.947l10.383-3.162a.408.408,0,0,1,.238,0l10.383,3.162V31.967a7.29,7.29,0,0,1-5.7,7.143l-4.314.984a2.223,2.223,0,0,1-.983,0l-4.314-.984a7.29,7.29,0,0,1-5.7-7.143ZM54,58.022a1.882,1.882,0,1,1-3.764,0V57.81H54v.212ZM73.237,56H30.99a1.27,1.27,0,0,1,0-2.54h12a.907.907,0,0,0,0-1.814h-10.5V41.86l4.3-.981A9.141,9.141,0,0,0,43.9,31.967V21.835a1.654,1.654,0,0,0-1.179-1.591L32.488,17.129V5.412a3.614,3.614,0,0,1,3.526-3.6,3.522,3.522,0,0,1,2.547,1.028A3.746,3.746,0,0,1,39.681,5.5V9.908a1.3,1.3,0,0,0,1.3,1.3H71.739V51.641H46.855a.907.907,0,1,0,0,1.814H73.237a1.27,1.27,0,0,1,0,2.54Z" transform="translate(-19.264 -0.001)"/>
        <path id="Trazado_1000693" data-name="Trazado 1000693" d="M267.074,133.5H247.261a.907.907,0,0,1,0-1.814h19.813a.907.907,0,1,1,0,1.814Z" transform="translate(-218.887 -115.762)"/>
        <path id="Trazado_1000694" data-name="Trazado 1000694" d="M267.074,191.925H247.261a.907.907,0,1,1,0-1.814h19.813a.907.907,0,1,1,0,1.814Z" transform="translate(-218.887 -167.117)"/>
        <path id="Trazado_1000695" data-name="Trazado 1000695" d="M267.074,250.346H247.261a.907.907,0,1,1,0-1.814h19.813a.907.907,0,1,1,0,1.814Z" transform="translate(-218.887 -218.472)"/>
        <path id="Trazado_1000696" data-name="Trazado 1000696" d="M256.525,308.767H235.261a.907.907,0,0,1,0-1.814h21.264a.907.907,0,1,1,0,1.814Z" transform="translate(-208.339 -269.827)"/>
        <path id="Trazado_1000697" data-name="Trazado 1000697" d="M185.47,367.187H154.429a.907.907,0,0,1,0-1.814H185.47a.907.907,0,0,1,0,1.814Z" transform="translate(-137.283 -321.181)"/>
      </g>
    </g>
  </g>
</svg>
