<svg xmlns="http://www.w3.org/2000/svg" xmlns:xlink="http://www.w3.org/1999/xlink" width="103" height="103" viewBox="0 0 103 103">
  <defs>
    <filter id="Trazado_982547" x="0" y="0" width="103" height="103" filterUnits="userSpaceOnUse">
      <feOffset dy="3" input="SourceAlpha"/>
      <feGaussianBlur stdDeviation="3" result="blur"/>
      <feFlood flood-opacity="0.161"/>
      <feComposite operator="in" in2="blur"/>
      <feComposite in="SourceGraphic"/>
    </filter>
  </defs>
  <g id="Grupo_1166718" data-name="Grupo 1166718" transform="translate(-171 -1951)">
    <g id="Grupo_1165244" data-name="Grupo 1165244" transform="translate(180 1957)">
      <g id="Grupo_1163948" data-name="Grupo 1163948" transform="translate(0)">
        <g id="Grupo_1158168" data-name="Grupo 1158168" transform="translate(0)">
          <g id="Grupo_1152576" data-name="Grupo 1152576">
            <g id="Grupo_1148633" data-name="Grupo 1148633">
              <g id="Grupo_1148525" data-name="Grupo 1148525">
                <g transform="matrix(1, 0, 0, 1, -9, -6)" filter="url(#Trazado_982547)">
                  <g id="Trazado_982547-2" data-name="Trazado 982547" transform="translate(9 6)" fill="#e9f9fd">
                    <path d="M 42.5 83.5 C 36.96437835693359 83.5 31.59512901306152 82.41617584228516 26.54141235351562 80.27863311767578 C 21.65934181213379 78.21369171142578 17.27447128295898 75.25723266601562 13.50862312316895 71.49137878417969 C 9.742764472961426 67.72553253173828 6.786305904388428 63.34066009521484 4.721364498138428 58.45858764648438 C 2.583823442459106 53.40486907958984 1.5 48.03562164306641 1.5 42.5 C 1.5 36.96437835693359 2.583823442459106 31.59512901306152 4.721364498138428 26.54141235351562 C 6.786305904388428 21.65934181213379 9.742764472961426 17.27448272705078 13.50862312316895 13.50862312316895 C 17.27447128295898 9.742776870727539 21.65934181213379 6.786305904388428 26.54141235351562 4.721364498138428 C 31.59512901306152 2.583823442459106 36.96437835693359 1.5 42.5 1.5 C 48.03562164306641 1.5 53.40486907958984 2.583823442459106 58.45858764648438 4.721364498138428 C 63.34066009521484 6.786305904388428 67.72553253173828 9.742776870727539 71.49137878417969 13.50862312316895 C 75.25723266601562 17.27448272705078 78.21369171142578 21.65934181213379 80.27863311767578 26.54141235351562 C 82.41617584228516 31.59512901306152 83.5 36.96437835693359 83.5 42.5 C 83.5 48.03562164306641 82.41617584228516 53.40486907958984 80.27863311767578 58.45858764648438 C 78.21369171142578 63.34066009521484 75.25723266601562 67.72553253173828 71.49137878417969 71.49137878417969 C 67.72553253173828 75.25723266601562 63.34066009521484 78.21369171142578 58.45858764648438 80.27863311767578 C 53.40486907958984 82.41617584228516 48.03562164306641 83.5 42.5 83.5 Z" stroke="none"/>
                    <path d="M 42.5 3 C 37.16621398925781 3 31.99356079101562 4.043960571289062 27.125732421875 6.102882385253906 C 22.42246627807617 8.092185974121094 18.19785308837891 10.94070434570312 14.56928253173828 14.56928253173828 C 10.94070434570312 18.19785308837891 8.092185974121094 22.42246627807617 6.102882385253906 27.125732421875 C 4.043960571289062 31.99356079101562 3 37.16621398925781 3 42.5 C 3 47.83378601074219 4.043960571289062 53.00643920898438 6.102882385253906 57.87425231933594 C 8.092185974121094 62.57753372192383 10.94070434570312 66.80213165283203 14.56928253173828 70.43071746826172 C 18.19786834716797 74.05929565429688 22.42246627807617 76.90781402587891 27.125732421875 78.89711761474609 C 31.99356079101562 80.95603942871094 37.16621398925781 82 42.5 82 C 47.83378601074219 82 53.00642395019531 80.95603942871094 57.87425231933594 78.89711761474609 C 62.57753372192383 76.90781402587891 66.80213165283203 74.05929565429688 70.43071746826172 70.43071746826172 C 74.05929565429688 66.80213165283203 76.90781402587891 62.57753372192383 78.89711761474609 57.87425231933594 C 80.95603942871094 53.00642395019531 82 47.83378601074219 82 42.5 C 82 37.16621398925781 80.95603942871094 31.99356079101562 78.89711761474609 27.125732421875 C 76.90781402587891 22.42246627807617 74.05929565429688 18.19786834716797 70.43071746826172 14.56928253173828 C 66.80213165283203 10.94070434570312 62.57753372192383 8.092185974121094 57.87425231933594 6.102882385253906 C 53.00643920898438 4.043960571289062 47.83378601074219 3 42.5 3 M 42.5 0 C 65.97209167480469 0 85 19.02789306640625 85 42.5 C 85 65.97209167480469 65.97209167480469 85 42.5 85 C 19.02789306640625 85 0 65.97209167480469 0 42.5 C 0 19.02789306640625 19.02789306640625 0 42.5 0 Z" stroke="none" fill="#36ceef"/>
                  </g>
                </g>
              </g>
            </g>
          </g>
        </g>
      </g>
    </g>
    <g id="internet_307235" transform="translate(192.497 1969.997)">
      <path id="Trazado_1001845" data-name="Trazado 1001845" d="M125.337,105.335a20,20,0,1,1-5.473-13.745A19.931,19.931,0,0,1,125.337,105.335Z" transform="translate(-75.332 -75.332)" fill="#2196f3"/>
      <g id="Grupo_1166717" data-name="Grupo 1166717">
        <path id="Trazado_1001846" data-name="Trazado 1001846" d="M110.789,109.953a21.333,21.333,0,1,0-15.5,6.673A21.247,21.247,0,0,0,110.789,109.953ZM76.67,96.625h7.325a37.3,37.3,0,0,0,1.212,8.505,24.222,24.222,0,0,0-4.241,2.131A18.569,18.569,0,0,1,76.67,96.625Zm4.3-13.3a24.233,24.233,0,0,0,4.241,2.131,37.3,37.3,0,0,0-1.212,8.505H76.67A18.568,18.568,0,0,1,80.966,83.322Zm32.947,10.636h-7.326a37.277,37.277,0,0,0-1.217-8.521A24.211,24.211,0,0,0,109.6,83.3,18.565,18.565,0,0,1,113.913,93.958ZM109.6,107.28a24.2,24.2,0,0,0-4.229-2.134,37.29,37.29,0,0,0,1.217-8.521h7.326A18.567,18.567,0,0,1,109.6,107.28Zm-13-3.956v-6.7h7.316a34.783,34.783,0,0,1-1.084,7.681A28.262,28.262,0,0,0,96.6,103.324Zm5.421,3.524a21.413,21.413,0,0,1-.864,1.992c-1.287,2.578-2.9,4.284-4.557,4.882v-7.728A25.581,25.581,0,0,1,102.023,106.847ZM96.6,93.958v-6.7a28.256,28.256,0,0,0,6.233-.982,34.776,34.776,0,0,1,1.084,7.681H96.6Zm0-9.368V76.861c1.66.6,3.27,2.3,4.557,4.882a21.381,21.381,0,0,1,.864,1.992A25.592,25.592,0,0,1,96.6,84.59Zm-2.667,0a25.6,25.6,0,0,1-5.38-.843,21.335,21.335,0,0,1,.868-2c1.275-2.555,2.868-4.253,4.511-4.866Zm0,2.669v6.7H86.664a34.8,34.8,0,0,1,1.081-7.669A28.3,28.3,0,0,0,93.935,87.259Zm0,9.366v6.7a28.263,28.263,0,0,0-6.189.971,34.79,34.79,0,0,1-1.081-7.67h7.27Zm0,9.368v7.712c-1.644-.613-3.236-2.311-4.511-4.866a21.359,21.359,0,0,1-.868-2A25.578,25.578,0,0,1,93.935,105.993Zm10.624,1.7a21.683,21.683,0,0,1,3.141,1.548,18.471,18.471,0,0,1-5.852,3.546A20.069,20.069,0,0,0,104.558,107.691Zm0-24.8a20.062,20.062,0,0,0-2.711-5.095,18.476,18.476,0,0,1,5.852,3.546A21.646,21.646,0,0,1,104.558,82.891Zm-18.541.016a21.7,21.7,0,0,1-3.153-1.547A18.476,18.476,0,0,1,88.735,77.8,20.079,20.079,0,0,0,86.018,82.907Zm0,24.769a20.077,20.077,0,0,0,2.717,5.11,18.481,18.481,0,0,1-5.87-3.563A21.708,21.708,0,0,1,86.018,107.676Z" transform="translate(-65.288 -65.288)" fill="#231f20"/>
        <path id="Trazado_1001847" data-name="Trazado 1001847" d="M439.863,94.632a1.333,1.333,0,1,0-2.1,1.643q.149.19.294.383a1.333,1.333,0,1,0,2.13-1.605Q440.026,94.841,439.863,94.632Z" transform="translate(-386.207 -83.089)" fill="#231f20"/>
        <path id="Trazado_1001848" data-name="Trazado 1001848" d="M468.776,141.679a1.333,1.333,0,1,0-2.415,1.132,27.1,27.1,0,0,1,2.57,11.589,27.491,27.491,0,0,1-.7,6.165,1.333,1.333,0,1,0,2.6.6,30.163,30.163,0,0,0,.766-6.764A29.746,29.746,0,0,0,468.776,141.679Z" transform="translate(-411.592 -124.396)" fill="#231f20"/>
        <path id="Trazado_1001849" data-name="Trazado 1001849" d="M80.771,424.546c-.27-.233-.54-.475-.8-.72a1.333,1.333,0,0,0-1.82,1.95c.287.268.584.534.88.79a1.333,1.333,0,0,0,1.742-2.019Z" transform="translate(-68.616 -373.838)" fill="#231f20"/>
        <path id="Trazado_1001850" data-name="Trazado 1001850" d="M2.667,197.261a27.5,27.5,0,0,1,.7-6.165,1.333,1.333,0,1,0-2.6-.6,30.1,30.1,0,0,0,3.219,21.715A1.333,1.333,0,1,0,6.3,210.882,27.328,27.328,0,0,1,2.667,197.261Z" transform="translate(0 -167.258)" fill="#231f20"/>
        <path id="Trazado_1001851" data-name="Trazado 1001851" d="M180.346,415.635l-4.979-.075a1.333,1.333,0,0,0-.04,2.667l1.35.02a27.362,27.362,0,0,1-27.945,3.679,1.333,1.333,0,0,0-1.067,2.444,30.028,30.028,0,0,0,30.632-4.005l-.242,1.231a1.333,1.333,0,1,0,2.617.515l.962-4.886a1.333,1.333,0,0,0-1.288-1.591Z" transform="translate(-129.653 -366.856)" fill="#231f20"/>
        <path id="Trazado_1001852" data-name="Trazado 1001852" d="M74.977,11.39H75a1.333,1.333,0,0,0,.02-2.667L73.509,8.7a27.335,27.335,0,0,1,34.446.149,1.333,1.333,0,0,0,1.691-2.063,30,30,0,0,0-37.569-.354l.213-1.08a1.333,1.333,0,0,0-2.617-.515L68.71,9.724A1.334,1.334,0,0,0,70,11.315Z" transform="translate(-60.635)" fill="#231f20"/>
      </g>
    </g>
  </g>
</svg>
