<svg xmlns="http://www.w3.org/2000/svg" width="29.609" height="29.589" viewBox="0 0 29.609 29.589">
  <g id="layer1" transform="translate(-0.523 -280.596)">
    <path id="path7325" d="M6.945,280.6a6.41,6.41,0,0,0-3.659,1.147.493.493,0,1,0,.562.81,5.42,5.42,0,1,1-1.357,1.356.493.493,0,1,0-.81-.562A6.411,6.411,0,1,0,6.945,280.6Zm0,1.967a.474.474,0,0,0-.493.493v.567a1.969,1.969,0,0,0,.491,3.876.987.987,0,1,1-.982.986.493.493,0,1,0-.986,0,1.975,1.975,0,0,0,1.477,1.9v.561a.493.493,0,1,0,.986,0v-.562a1.968,1.968,0,0,0-.5-3.875.987.987,0,1,1,.986-.986.494.494,0,1,0,.987,0,1.979,1.979,0,0,0-1.478-1.9v-.568a.474.474,0,0,0-.493-.493Zm16.765.99h2.821c-1.19,1.507-10.924,13.316-24.025,13.316a.493.493,0,1,0,0,.986c13.112,0,22.79-11.187,24.659-13.508v2.66a.493.493,0,0,0,.986,0v-3.946a.493.493,0,0,0-.5-.491h-3.97a.492.492,0,0,0,.024.982ZM1.027,310.184h28.6a.493.493,0,1,0,0-.986H28.151V296.869a.493.493,0,1,0-.986,0V309.2H24.2v-15.78h2.96V294.9a.493.493,0,1,0,.986,0v-1.973a.493.493,0,0,0-.5-.491H23.71a.494.494,0,0,0-.492.491V309.2H21.245V296.869a.493.493,0,0,0-.491-.491H16.783a.5.5,0,0,0-.47.491V309.2H14.34v-8.383a.493.493,0,0,0-.491-.5H9.9a.493.493,0,0,0-.491.5V309.2H7.438v-4.437a.493.493,0,0,0-.5-.5H3a.493.493,0,0,0-.5.5V309.2H1a.493.493,0,0,0,.025.986ZM17.3,297.364h2.96V309.2H17.3Zm-6.9,3.942h2.96V309.2H10.4Zm-6.906,3.946h2.96V309.2H3.492Z" transform="translate(0 0)"/>
  </g>
</svg>
