<svg xmlns="http://www.w3.org/2000/svg" width="31.399" height="31.896" viewBox="0 0 31.399 31.896">
  <path id="social_4596324" d="M11.812,17.554a7.882,7.882,0,1,0,7.882-7.882,7.891,7.891,0,0,0-7.882,7.882Zm14.767,0a6.885,6.885,0,1,1-6.885-6.885,6.893,6.893,0,0,1,6.885,6.885ZM5.886,19.044h.036a.5.5,0,0,0,.462-.532c-.023-.323-.034-.644-.034-.956a13.287,13.287,0,0,1,9.769-12.86,3.709,3.709,0,1,0-.133-1A14.346,14.346,0,0,0,5.352,17.554c0,.335.012.68.037,1.026a.5.5,0,0,0,.5.463ZM19.694,1A2.713,2.713,0,1,1,16.981,3.71,2.716,2.716,0,0,1,19.694,1ZM27.179,28.6a13.345,13.345,0,0,1-16.832-1.527,3.712,3.712,0,1,0-.8.615,14.343,14.343,0,0,0,18.188,1.737.5.5,0,0,0-.56-.825ZM4.992,24.476a2.713,2.713,0,1,1,2.713,2.713A2.716,2.716,0,0,1,4.992,24.476Zm12.236-8.869a2.46,2.46,0,0,0,.787,1.8A4.4,4.4,0,0,0,15.3,21.469a.5.5,0,0,0,.5.5h7.787a.5.5,0,0,0,.5-.5,4.4,4.4,0,0,0-2.712-4.058,2.466,2.466,0,1,0-4.146-1.8Zm5.826,5.364H16.336a3.4,3.4,0,0,1,6.718,0Zm-3.359-6.834a1.47,1.47,0,1,1-1.47,1.47A1.472,1.472,0,0,1,19.694,14.137Zm13.855,7.134A14.349,14.349,0,0,0,25.958,4.649a.5.5,0,0,0-.436.9,13.364,13.364,0,0,1,7.1,15.34,3.721,3.721,0,1,0,.929.385Zm-1.866,5.918A2.713,2.713,0,1,1,34.4,24.476,2.716,2.716,0,0,1,31.683,27.189Z" transform="translate(-3.995)"/>
</svg>
