<svg xmlns="http://www.w3.org/2000/svg" width="27.992" height="29.589" viewBox="0 0 27.992 29.589">
  <path id="execution_12134560" d="M45.288,22.781a1.642,1.642,0,0,0-2.111-.153,52.446,52.446,0,0,1-6.022,2.812A1.641,1.641,0,0,0,35.5,23.482a13.718,13.718,0,0,1-5.762-1.314,6.067,6.067,0,0,0-3.893-.709c-1.392.337-2.873,1.49-4.784,3.729a1.331,1.331,0,0,0-1.514.257l-1.819,1.819a.411.411,0,0,0,0,.581l5.624,5.624a.411.411,0,0,0,.581,0l1.819-1.819a1.33,1.33,0,0,0,.3-1.413,9.057,9.057,0,0,1,4.107-.428c.372.022.762.054,1.175.087a29.447,29.447,0,0,0,2.975.139,9.951,9.951,0,0,0,4.954-1.5c1.687-.894,5.285-3.028,5.958-3.912a1.417,1.417,0,0,0,.07-1.841Zm-20.12,8.288L23.639,32.6,18.6,27.555l1.529-1.529a.508.508,0,0,1,.718,0l4.325,4.325a.51.51,0,0,1,0,.718Zm19.4-6.944a30.732,30.732,0,0,1-5.688,3.683,9.271,9.271,0,0,1-4.587,1.405,28.891,28.891,0,0,1-2.891-.137c-.418-.034-.812-.065-1.192-.088a9.707,9.707,0,0,0-4.664.575l-3.851-3.851c3.777-4.424,5.192-3.838,7.73-2.785A14.607,14.607,0,0,0,35.505,24.3h.016a.814.814,0,0,1,.729,1.227c-.281.472-1.3.717-2.72.655a9.358,9.358,0,0,1-3.2-.651.411.411,0,0,0-.379.729,10.018,10.018,0,0,0,3.548.743c.15.007.3.01.462.01a5.6,5.6,0,0,0,2.093-.335,46.079,46.079,0,0,0,7.54-3.342c.5-.289.912-.211,1.083-.016s.129.491-.107.8ZM34.1,21.184V17.093a.411.411,0,0,0-.411-.411H31.1a.411.411,0,0,0-.411.411v4.091H29.54a.411.411,0,1,0,0,.822H43.962a.411.411,0,1,0,0-.822H42.814V13.458a.411.411,0,0,0-.411-.411h-.9v-.665a4.129,4.129,0,0,0,3.839-4.232.411.411,0,0,0-.325-.4,3.577,3.577,0,0,0-2.275.185,3.593,3.593,0,0,0-1.414-3.856.411.411,0,0,0-.472,0A3.593,3.593,0,0,0,39.44,7.932a3.578,3.578,0,0,0-2.275-.185.411.411,0,0,0-.325.4,4.129,4.129,0,0,0,3.839,4.232v.665h-.9a.411.411,0,0,0-.411.411v7.727h-.928V15.2a.411.411,0,0,0-.411-.411h-2.59a.411.411,0,0,0-.411.411v5.988ZM44.5,8.493a3.277,3.277,0,0,1-2.989,3.06,3.611,3.611,0,0,1,1.127-2.6A2.244,2.244,0,0,1,44.1,8.467a3.277,3.277,0,0,1,.407.026ZM41.09,4.934A2.773,2.773,0,0,1,41.5,8.658V7.332a.411.411,0,0,0-.822,0V8.658a2.773,2.773,0,0,1,.411-3.724ZM37.676,8.493a2.376,2.376,0,0,1,1.861.46,3.611,3.611,0,0,1,1.127,2.6A3.277,3.277,0,0,1,37.676,8.493ZM31.51,17.5h1.768v3.68H31.51Zm8.679-3.636h1.8v7.316h-1.8Zm-4.339,1.739h1.768v5.577H35.849Zm-12.9-4.195.765.151.384.928-.434.647a.411.411,0,0,0,.051.52l1.313,1.313a.411.411,0,0,0,.519.051l.647-.434.928.384.151.765a.411.411,0,0,0,.4.331h1.857a.411.411,0,0,0,.4-.331l.151-.765.928-.384.647.434a.411.411,0,0,0,.519-.051l1.313-1.313a.411.411,0,0,0,.051-.52l-.434-.647.384-.928.765-.151a.411.411,0,0,0,.331-.4V9.153a.411.411,0,0,0-.331-.4L33.494,8.6l-.384-.928.434-.647a.411.411,0,0,0-.051-.52L32.18,5.191a.411.411,0,0,0-.519-.051l-.647.434-.928-.384-.151-.765a.411.411,0,0,0-.4-.331H27.675a.411.411,0,0,0-.4.331l-.151.765-.928.384-.647-.434a.411.411,0,0,0-.519.051L23.713,6.5a.411.411,0,0,0-.051.52l.434.647-.384.928-.765.151a.411.411,0,0,0-.331.4V11.01a.411.411,0,0,0,.331.4Zm.49-1.922.649-.128a.411.411,0,0,0,.3-.246l.553-1.334A.411.411,0,0,0,24.9,7.4l-.369-.55.835-.835.55.369a.411.411,0,0,0,.386.038l1.334-.553a.411.411,0,0,0,.246-.3l.128-.649h1.181l.128.649a.411.411,0,0,0,.246.3l1.334.553a.411.411,0,0,0,.386-.038l.55-.369.835.835L32.3,7.4a.411.411,0,0,0-.038.386l.553,1.334a.411.411,0,0,0,.3.246l.649.128v1.181l-.649.128a.411.411,0,0,0-.3.246l-.553,1.334a.411.411,0,0,0,.038.386l.369.55-.835.835-.55-.369a.411.411,0,0,0-.386-.038l-1.334.553a.411.411,0,0,0-.246.3l-.128.649H28.013l-.128-.649a.411.411,0,0,0-.246-.3L26.3,13.744a.41.41,0,0,0-.386.038l-.55.369-.835-.835.369-.55a.411.411,0,0,0,.038-.386l-.553-1.334a.411.411,0,0,0-.3-.246l-.649-.128ZM28.6,13.352a3.271,3.271,0,1,0-3.271-3.271A3.274,3.274,0,0,0,28.6,13.352Zm0-5.72a2.449,2.449,0,1,1-2.449,2.449A2.452,2.452,0,0,1,28.6,7.632ZM27.075,10.15a.411.411,0,0,1,.712-.411l.318.552,1.379-1.38a.411.411,0,0,1,.581.581l-1.758,1.758a.411.411,0,0,1-.646-.085l-.586-1.015Z" transform="translate(-17.604 -4.001)"/>
</svg>
