<svg xmlns="http://www.w3.org/2000/svg" width="25.171" height="29.615" viewBox="0 0 25.171 29.615">
  <g id="b" transform="translate(-6)">
    <path id="Trazado_999274" data-name="Trazado 999274" d="M27.7,21.652l0-.006-.01-.007a6.469,6.469,0,1,0,.015.013ZM23.416,31.846a5.429,5.429,0,1,1,3.191-9.812l-4.034,4.034a.494.494,0,1,0,.7.7l4.079-4.079a5.422,5.422,0,0,1-3.935,9.16Z" transform="translate(-5.571 -10.128)"/>
    <path id="Trazado_999275" data-name="Trazado 999275" d="M32.106,31.144l-2.961,2.961a.494.494,0,1,0,.7.7L32.8,31.842a.494.494,0,1,0-.7-.7Z" transform="translate(-11.648 -15.699)"/>
    <path id="Trazado_999276" data-name="Trazado 999276" d="M23.625,29.144l-1.481,1.481a.494.494,0,1,0,.7.7l1.481-1.481a.494.494,0,1,0-.7-.7Z" transform="translate(-8.103 -14.686)"/>
    <path id="Trazado_999277" data-name="Trazado 999277" d="M29.113,5.633,24.058.579A1.986,1.986,0,0,0,22.663,0H8.468A2.471,2.471,0,0,0,6,2.468V27.147a2.471,2.471,0,0,0,2.468,2.468H27.224a2.354,2.354,0,0,0,.734-.126A2.461,2.461,0,0,0,30.449,25.4l-.758-.758V7.029a1.989,1.989,0,0,0-.579-1.4Zm-1.106.29H24.262a.494.494,0,0,1-.494-.494V1.685ZM6.987,27.147V2.468A1.483,1.483,0,0,1,8.468.987h14.2A.953.953,0,0,1,22.782,1v4.43A1.483,1.483,0,0,0,24.262,6.91h4.43a.954.954,0,0,1,.012.118V23.657L27.658,22.61a1.479,1.479,0,0,0-1.68-.285l-1.25-1.249a8.413,8.413,0,1,0-2.1,2.095l1.249,1.249a1.463,1.463,0,0,0,.286,1.681L26.7,28.628H8.468a1.483,1.483,0,0,1-1.481-1.481Zm10.859-3.455a7.4,7.4,0,1,1,7.4-7.4A7.412,7.412,0,0,1,17.846,23.692Zm6.263-1.839,1.1,1.1-.7.7-1.1-1.1A8.413,8.413,0,0,0,24.109,21.853Zm5.643,6.341a1.516,1.516,0,0,1-2.094,0L24.865,25.4a.493.493,0,0,1,0-.7l1.4-1.4a.5.5,0,0,1,.7,0L29.751,26.1a1.482,1.482,0,0,1,0,2.094Z" transform="translate(0 0)"/>
  </g>
</svg>
