<svg xmlns="http://www.w3.org/2000/svg" width="28.154" height="31.286" viewBox="0 0 28.154 31.286">
  <path id="creative-team_12343360" d="M55.815,31.444a1.555,1.555,0,0,0-.755.195l-1.371-1.371V25.49a.435.435,0,0,0-.127-.307L51.077,22.7a9.385,9.385,0,0,0,1.708-5.436,9.483,9.483,0,1,0-18.966,0A9.385,9.385,0,0,0,35.527,22.7l-2.484,2.484a.435.435,0,0,0-.127.307v4.779l-1.371,1.371a1.566,1.566,0,1,0,.615.615l1.5-1.5a.435.435,0,0,0,.127-.307V25.67l2.28-2.28a9.737,9.737,0,0,0,.74.778,5.692,5.692,0,0,1,.6.663l-2.292,2.292a.435.435,0,0,0-.127.307v4.789a1.564,1.564,0,1,0,.869,0V27.61l2.032-2.032a5.011,5.011,0,0,1,.532,1.687,1.363,1.363,0,0,0,1.364,1.195h7.034a1.363,1.363,0,0,0,1.364-1.195,5.009,5.009,0,0,1,.532-1.687l2.032,2.032v4.609a1.565,1.565,0,1,0,.869,0V27.43a.435.435,0,0,0-.127-.307L49.2,24.831a5.693,5.693,0,0,1,.6-.663,9.736,9.736,0,0,0,.74-.778l2.28,2.28v4.779a.435.435,0,0,0,.127.307l1.5,1.5a1.564,1.564,0,1,0,1.37-.809ZM30.79,33.7a.7.7,0,1,1,.7-.7A.7.7,0,0,1,30.79,33.7Zm5.329.017a.7.7,0,1,1-.7-.7A.7.7,0,0,1,36.118,33.721Zm15.759,0a.7.7,0,1,1-.7-.7A.7.7,0,0,1,51.877,33.721ZM43.3,24.368a.7.7,0,1,1,.7-.7A.7.7,0,0,1,43.3,24.368Zm5.9-.833a5.936,5.936,0,0,0-1.883,3.615.5.5,0,0,1-.5.44H43.737V25.175a1.568,1.568,0,1,0-.869,0V27.59H39.785a.5.5,0,0,1-.5-.44A5.935,5.935,0,0,0,37.4,23.535a8.533,8.533,0,0,1-2.711-6.273,8.614,8.614,0,1,1,17.228,0A8.533,8.533,0,0,1,49.2,23.535ZM55.815,33.7a.7.7,0,1,1,.7-.7A.7.7,0,0,1,55.815,33.7ZM36.182,6.464a.435.435,0,0,1,.753-.435l.845,1.464a.435.435,0,1,1-.753.434l-.845-1.464Zm6.686-.334v-1.7a.435.435,0,1,1,.869,0v1.7a.435.435,0,1,1-.869,0ZM31.261,10.975a.435.435,0,0,1,.594-.159l1.448.836a.435.435,0,1,1-.435.753l-1.448-.836a.435.435,0,0,1-.159-.594ZM48.824,7.493,49.67,6.03a.435.435,0,0,1,.753.435l-.845,1.464a.435.435,0,1,1-.753-.434Zm4.318,4.753a.434.434,0,0,1,.159-.594l1.448-.836a.435.435,0,1,1,.435.753l-1.448.836a.434.434,0,0,1-.594-.159ZM46.542,31.8H40.062a.435.435,0,1,0,0,.869H41.24v.55a2.062,2.062,0,1,0,4.125,0v-.55h1.177a.435.435,0,0,0,0-.869ZM44.5,33.223a1.193,1.193,0,1,1-2.387,0v-.55H44.5ZM47.4,30.834a.435.435,0,0,1-.435.435H39.638a.435.435,0,0,1,0-.869h7.328A.435.435,0,0,1,47.4,30.834Zm.328-1.4a.435.435,0,0,1-.435.435H39.31a.435.435,0,0,1,0-.869h7.983A.435.435,0,0,1,47.728,29.429Zm3.183-9.344a3.516,3.516,0,0,0-2.11-2.91,1.978,1.978,0,0,0-2.625-2.952,3.536,3.536,0,0,0-1.486-1.2,1.979,1.979,0,1,0-2.778,0,3.536,3.536,0,0,0-1.486,1.2A1.978,1.978,0,0,0,37.8,17.176a3.516,3.516,0,0,0-2.11,2.91q0,.019,0,.039v.656a.435.435,0,0,0,.435.435h6.136a.435.435,0,0,0,.435-.435v-.656c0-.013,0-.026,0-.039a3.516,3.516,0,0,0-2.11-2.91c.038-.038.075-.077.11-.118h5.217c.035.041.072.08.11.118a3.516,3.516,0,0,0-2.11,2.91c0,.013,0,.026,0,.039v.656a.435.435,0,0,0,.435.435h6.136a.435.435,0,0,0,.435-.435v-.656c0-.013,0-.026,0-.039Zm-3.5-5.426a1.11,1.11,0,1,1-1.11,1.11A1.111,1.111,0,0,1,47.411,14.659ZM43.3,10.5a1.11,1.11,0,1,1-1.11,1.11A1.111,1.111,0,0,1,43.3,10.5Zm-4.109,4.157a1.11,1.11,0,1,1-1.11,1.11A1.111,1.111,0,0,1,39.193,14.659Zm2.633,5.486v.2H36.56v-.2a2.646,2.646,0,0,1,5.267,0Zm-.7-3.956a1.971,1.971,0,0,0-.132-1.237,2.646,2.646,0,0,1,4.615,0,1.971,1.971,0,0,0-.132,1.237h-4.35Zm8.917,4.157H44.778v-.2a2.646,2.646,0,0,1,5.267,0Z" transform="translate(-29.225 -4)"/>
</svg>
