<svg xmlns="http://www.w3.org/2000/svg" xmlns:xlink="http://www.w3.org/1999/xlink" width="113" height="113" viewBox="0 0 113 113">
  <defs>
    <filter id="Trazado_982547" x="0" y="0" width="113" height="113" filterUnits="userSpaceOnUse">
      <feOffset dy="3" input="SourceAlpha"/>
      <feGaussianBlur stdDeviation="3" result="blur"/>
      <feFlood flood-opacity="0.161"/>
      <feComposite operator="in" in2="blur"/>
      <feComposite in="SourceGraphic"/>
    </filter>
  </defs>
  <g id="Grupo_1166126" data-name="Grupo 1166126" transform="translate(-825.645 -1472)">
    <g id="Grupo_1164309" data-name="Grupo 1164309" transform="translate(834.645 1478)">
      <g id="Grupo_1163948" data-name="Grupo 1163948" transform="translate(0)">
        <g id="Grupo_1158168" data-name="Grupo 1158168" transform="translate(0)">
          <g id="Grupo_1152576" data-name="Grupo 1152576">
            <g id="Grupo_1148633" data-name="Grupo 1148633">
              <g id="Grupo_1148525" data-name="Grupo 1148525">
                <g transform="matrix(1, 0, 0, 1, -9, -6)" filter="url(#Trazado_982547)">
                  <g id="Trazado_982547-2" data-name="Trazado 982547" transform="translate(9 6)" fill="#e9f9fd">
                    <path d="M 47.5 93.5 C 41.28937149047852 93.5 35.26533508300781 92.28397369384766 29.59518623352051 89.88570404052734 C 24.11771965026855 87.56893157958984 19.19813346862793 84.25196075439453 14.97309303283691 80.02691650390625 C 10.74804019927979 75.80186462402344 7.431066513061523 70.88229370117188 5.114293098449707 65.40481567382812 C 2.716026782989502 59.73468017578125 1.5 53.71062850952148 1.5 47.5 C 1.5 41.28937149047852 2.716026782989502 35.26533508300781 5.114293098449707 29.59518623352051 C 7.431066513061523 24.11771965026855 10.74804019927979 19.19813346862793 14.97309303283691 14.97309303283691 C 19.19813346862793 10.74804019927979 24.11771965026855 7.431066513061523 29.59518623352051 5.114293098449707 C 35.26533508300781 2.716026782989502 41.28937149047852 1.5 47.5 1.5 C 53.71062850952148 1.5 59.73468017578125 2.716026782989502 65.40481567382812 5.114293098449707 C 70.88229370117188 7.431066513061523 75.80186462402344 10.74804019927979 80.02691650390625 14.97309303283691 C 84.25196075439453 19.19813346862793 87.56893157958984 24.11771965026855 89.88570404052734 29.59518623352051 C 92.28397369384766 35.26533508300781 93.5 41.28937149047852 93.5 47.5 C 93.5 53.71062850952148 92.28397369384766 59.73468017578125 89.88570404052734 65.40481567382812 C 87.56893157958984 70.88229370117188 84.25196075439453 75.80186462402344 80.02691650390625 80.02691650390625 C 75.80186462402344 84.25196075439453 70.88229370117188 87.56893157958984 65.40481567382812 89.88570404052734 C 59.73468017578125 92.28397369384766 53.71062850952148 93.5 47.5 93.5 Z" stroke="none"/>
                    <path d="M 47.5 3 C 41.49121475219727 3 35.66376876831055 4.176155090332031 30.17950439453125 6.495796203613281 C 24.88084411621094 8.736953735351562 20.12152099609375 11.94598388671875 16.03375244140625 16.03375244140625 C 11.94598388671875 20.12152099609375 8.736953735351562 24.88084411621094 6.495796203613281 30.17950439453125 C 4.176155090332031 35.66376876831055 3 41.49121475219727 3 47.5 C 3 53.50878524780273 4.176155090332031 59.33623123168945 6.495796203613281 64.82049560546875 C 8.736953735351562 70.11915588378906 11.94598388671875 74.87847900390625 16.03375244140625 78.96624755859375 C 20.12152099609375 83.05401611328125 24.88084411621094 86.26304626464844 30.17950439453125 88.50419616699219 C 35.66376876831055 90.82384490966797 41.49121475219727 92 47.5 92 C 53.50878524780273 92 59.33623123168945 90.82384490966797 64.82049560546875 88.50419616699219 C 70.11915588378906 86.26304626464844 74.87847900390625 83.05401611328125 78.96624755859375 78.96624755859375 C 83.05401611328125 74.87847900390625 86.26304626464844 70.11915588378906 88.50419616699219 64.82049560546875 C 90.82384490966797 59.33623123168945 92 53.50878524780273 92 47.5 C 92 41.49121475219727 90.82384490966797 35.66376876831055 88.50419616699219 30.17950439453125 C 86.26304626464844 24.88084411621094 83.05401611328125 20.12152099609375 78.96624755859375 16.03375244140625 C 74.87847900390625 11.94598388671875 70.11915588378906 8.736953735351562 64.82049560546875 6.495796203613281 C 59.33623123168945 4.176155090332031 53.50878524780273 3 47.5 3 M 47.5 0 C 73.7335205078125 0 95 21.2664794921875 95 47.5 C 95 73.7335205078125 73.7335205078125 95 47.5 95 C 21.2664794921875 95 0 73.7335205078125 0 47.5 C 0 21.2664794921875 21.2664794921875 0 47.5 0 Z" stroke="none" fill="#36ceef"/>
                  </g>
                </g>
              </g>
            </g>
          </g>
        </g>
      </g>
    </g>
    <g id="csr_18147772" transform="translate(846.733 1490.833)">
      <g id="Grupo_1166125" data-name="Grupo 1166125" transform="translate(5.663 4.815)">
        <path id="Trazado_1001638" data-name="Trazado 1001638" d="M16.6,191.506l.416-10.753c.089-2.4-3.637-2.736-4.016-.361l-1.958,12.295a7.207,7.207,0,0,0,2,6.449l9.391,9.391a3.85,3.85,0,0,1,1.149,3.069l-.117,1.676H36.787l-.093-7.639a6.767,6.767,0,0,0-2.027-4.893L31.9,197.971a6.625,6.625,0,0,0-3.1-1.789l-1.339-.358L21.337,189.7a2.779,2.779,0,0,0-4.735,1.807Z" transform="translate(-10.937 -158.296)" fill="#e2b698" fill-rule="evenodd"/>
        <path id="Trazado_1001639" data-name="Trazado 1001639" d="M26.854,191.509l.416-10.753a1.926,1.926,0,0,0-2.109-1.979,1.879,1.879,0,0,0-.489,1.022l-1.958,12.3a7.208,7.208,0,0,0,2,6.448l9.391,9.391a4.065,4.065,0,0,1,1.149,3.069l-.028,2.268H47.039l-.093-7.639a6.767,6.767,0,0,0-2.027-4.893l-2.767-2.767a6.626,6.626,0,0,0-3.1-1.789l-1.339-.358L31.589,189.7a2.779,2.779,0,0,0-4.735,1.807Z" transform="translate(-21.189 -158.299)" fill="#efc9ae" fill-rule="evenodd"/>
        <path id="Trazado_1001640" data-name="Trazado 1001640" d="M103.111,463.527H116.6a1.434,1.434,0,0,0,1.431-1.428v-2.443a1.435,1.435,0,0,0-1.431-1.431H103.111a1.434,1.434,0,0,0-1.428,1.431V462.1A1.433,1.433,0,0,0,103.111,463.527Z" transform="translate(-90.667 -403.824)" fill="#00ade6" fill-rule="evenodd"/>
        <path id="Trazado_1001641" data-name="Trazado 1001641" d="M126.089,463.527h11.958a1.434,1.434,0,0,0,1.431-1.428v-2.443a1.435,1.435,0,0,0-1.431-1.431H126.154Z" transform="translate(-112.11 -403.824)" fill="#11bef7" fill-rule="evenodd"/>
        <path id="Trazado_1001642" data-name="Trazado 1001642" d="M308.3,191.506l-.416-10.753c-.093-2.4,3.637-2.736,4.016-.361l1.958,12.295a7.216,7.216,0,0,1-2,6.449l-9.391,9.391a3.838,3.838,0,0,0-1.149,3.069l.117,1.676H288.116l.093-7.639a6.767,6.767,0,0,1,2.027-4.893L293,197.971a6.637,6.637,0,0,1,3.1-1.789l1.339-.358,6.125-6.125a2.779,2.779,0,0,1,4.735,1.807Z" transform="translate(-254.469 -158.296)" fill="#e2b698" fill-rule="evenodd"/>
        <path id="Trazado_1001643" data-name="Trazado 1001643" d="M308.3,191.509l-.416-10.753a1.924,1.924,0,0,1,2.106-1.979,1.881,1.881,0,0,1,.492,1.022l1.958,12.3a7.208,7.208,0,0,1-2,6.448l-9.394,9.391a4.062,4.062,0,0,0-1.146,3.069l.028,2.268H288.118l.093-7.639a6.767,6.767,0,0,1,2.027-4.893L293,197.974a6.637,6.637,0,0,1,3.1-1.789l1.339-.358,6.125-6.125a2.779,2.779,0,0,1,4.735,1.807Z" transform="translate(-254.47 -158.299)" fill="#efc9ae" fill-rule="evenodd"/>
        <path id="Trazado_1001644" data-name="Trazado 1001644" d="M290.541,463.527h-13.5a1.433,1.433,0,0,1-1.428-1.428v-2.443a1.434,1.434,0,0,1,1.428-1.431h13.5a1.434,1.434,0,0,1,1.428,1.431V462.1A1.433,1.433,0,0,1,290.541,463.527Z" transform="translate(-243.487 -403.824)" fill="#00ade6" fill-rule="evenodd"/>
        <path id="Trazado_1001645" data-name="Trazado 1001645" d="M289.006,463.527H277.045a1.433,1.433,0,0,1-1.428-1.428v-2.443a1.434,1.434,0,0,1,1.428-1.431h11.9l.065,5.3Z" transform="translate(-243.487 -403.824)" fill="#11bef7" fill-rule="evenodd"/>
        <path id="Trazado_1001646" data-name="Trazado 1001646" d="M95.787,29.539V32.1a1.381,1.381,0,0,0,1.38,1.376h1.927a16.46,16.46,0,0,0,1.944,4.694l-1.363,1.363a1.383,1.383,0,0,0,0,1.951l3.617,3.617a1.383,1.383,0,0,0,1.951,0l1.363-1.363a16.565,16.565,0,0,0,4.694,1.948v1.923a1.381,1.381,0,0,0,1.376,1.38h5.12a1.381,1.381,0,0,0,1.376-1.38V45.681a16.46,16.46,0,0,0,4.694-1.944l1.363,1.363a1.379,1.379,0,0,0,1.948,0l3.62-3.617a1.383,1.383,0,0,0,0-1.951l-1.363-1.363a16.459,16.459,0,0,0,1.944-4.694h1.927a1.381,1.381,0,0,0,1.38-1.376V26.982a1.382,1.382,0,0,0-1.38-1.38h-1.927a16.459,16.459,0,0,0-1.944-4.694l1.363-1.363a1.379,1.379,0,0,0,0-1.948l-3.62-3.62a1.379,1.379,0,0,0-1.948,0l-1.363,1.363a16.558,16.558,0,0,0-4.694-1.944V11.469a1.378,1.378,0,0,0-1.376-1.376h-5.12a1.378,1.378,0,0,0-1.376,1.376V13.4a16.46,16.46,0,0,0-4.694,1.944l-1.363-1.363a1.383,1.383,0,0,0-1.951,0L99.675,17.6a1.379,1.379,0,0,0,0,1.948l1.363,1.363A16.5,16.5,0,0,0,99.094,25.6H97.167a1.382,1.382,0,0,0-1.38,1.38v2.557Z" transform="translate(-85.487 -10.093)" fill="#ffcb5b" fill-rule="evenodd"/>
        <path id="Trazado_1001647" data-name="Trazado 1001647" d="M182.074,88.024a11.785,11.785,0,1,1-8.334-14.435A11.785,11.785,0,0,1,182.074,88.024Z" transform="translate(-140.942 -65.526)" fill="#00ade6" fill-rule="evenodd"/>
        <path id="Trazado_1001648" data-name="Trazado 1001648" d="M199.647,88.481a11.788,11.788,0,0,1-10.165,8.671,12.014,12.014,0,0,1-1.841-.341A11.787,11.787,0,0,1,189.472,73.7a12.356,12.356,0,0,1,1.841.341,11.789,11.789,0,0,1,8.334,14.435Z" transform="translate(-158.515 -65.983)" fill="#11bef7" fill-rule="evenodd"/>
        <path id="Trazado_1001649" data-name="Trazado 1001649" d="M184.2,77.036a11.78,11.78,0,0,1,11.765-3.451,11.908,11.908,0,0,1,1.425.482c1.359.943,1.593,2.67-1.676,1.793-1.4-.372-2.381-.317-1.648,1.555.981,2.5,1.435,2.237-.385,5.265-.575.95-1.194.6-1.965.065-2.553-1.779-2.718-1.648-3.857.193-1.5,2.419-4.384.423-3.41-1.146,3.131-5.055.2-2.57-.248-4.756Z" transform="translate(-163.167 -65.522)" fill="#0f9347" fill-rule="evenodd"/>
        <path id="Trazado_1001650" data-name="Trazado 1001650" d="M194.5,73.7a12.4,12.4,0,0,1,1.838.341,11.908,11.908,0,0,1,1.425.482c1.359.943,1.593,2.67-1.676,1.793-1.4-.372-2.381-.317-1.648,1.555.981,2.5,1.435,2.237-.385,5.265-.575.95-1.194.6-1.965.065-2.553-1.779-2.718-1.648-3.857.193-1.5,2.419-4.384.423-3.41-1.146,1.624-2.622,1.617-3.214,1.173-3.486A11.821,11.821,0,0,1,194.5,73.7Z" transform="translate(-163.539 -65.982)" fill="#3cb54b" fill-rule="evenodd"/>
        <path id="Trazado_1001651" data-name="Trazado 1001651" d="M160.954,190.165c1.05-.052,4.628.9,4.721,2.388.475,1.652,3.2,2.581,4.663,1.844.378-.189-.213-.643-.785-1.056-1.321-.96-.551-1.122.44-1.084,2.319.086,5.736,3.08,7.453,3.149,1.087.045.282,1.376.788,2.632a11.787,11.787,0,0,1-17.281-7.873Z" transform="translate(-142.743 -168.303)" fill="#0f9347" fill-rule="evenodd"/>
        <path id="Trazado_1001652" data-name="Trazado 1001652" d="M182.045,194.743c1.1.42,2.113,1.053,2.161,1.834.475,1.652,3.2,2.581,4.663,1.844.378-.189-.213-.643-.785-1.056-1.321-.96-.551-1.122.44-1.084,2.319.086,5.736,3.08,7.453,3.149,1.087.045.282,1.376.788,2.632a11.81,11.81,0,0,1-4.522,1.435,12.058,12.058,0,0,1-1.844-.341,11.776,11.776,0,0,1-8.355-8.413Z" transform="translate(-161.274 -172.328)" fill="#3cb54b" fill-rule="evenodd"/>
        <path id="Trazado_1001653" data-name="Trazado 1001653" d="M314.943,115.254c-.785,2.932-3.7.138-4.59-1.882a2.651,2.651,0,0,1,1.294-3.31c1.61-1.091-.268-3.283-.626-4.315-.327-.939.12-1.5,1.17-1.569A11.788,11.788,0,0,1,314.943,115.254Z" transform="translate(-273.811 -92.756)" fill="#3cb54b" fill-rule="evenodd"/>
      </g>
      <path id="Trazado_1001654" data-name="Trazado 1001654" d="M63.565,46.174a7.967,7.967,0,0,0,2.208-7.083L63.814,26.8a2.665,2.665,0,0,0-3-2.216,2.626,2.626,0,0,0-2.466,2.72l.306,7.96a3.6,3.6,0,0,0-.684-.348,3.465,3.465,0,0,0-3.73.791l-5.987,5.987L47.106,42a7.376,7.376,0,0,0-3.426,1.981l-2.766,2.766a7.5,7.5,0,0,0-2.241,5.4l-.078,6.438a2.161,2.161,0,0,0-1.532,2.064v2.443a2.162,2.162,0,0,0,2.161,2.158H52.716a2.16,2.16,0,0,0,2.158-2.158V60.646a2.16,2.16,0,0,0-1.6-2.082l-.036-.5a3.111,3.111,0,0,1,.937-2.5l9.39-9.39ZM53.414,63.09a.7.7,0,0,1-.7.7H39.223a.7.7,0,0,1-.7-.7V60.646a.7.7,0,0,1,.7-.7H52.716a.708.708,0,0,1,.7.7Zm-.272-8.557a4.574,4.574,0,0,0-1.361,3.638l.023.319H40.055l.077-6.326a6.014,6.014,0,0,1,1.813-4.387l2.767-2.767a5.892,5.892,0,0,1,2.773-1.6l1.339-.358a.729.729,0,0,0,.327-.189l6.125-6.125a2.028,2.028,0,0,1,2.178-.459,1.993,1.993,0,0,1,1.312,1.79,2.056,2.056,0,0,1-.592,1.563h0L52.43,45.372A.73.73,0,1,0,53.462,46.4l5.743-5.743h0A3.516,3.516,0,0,0,60.224,38V38l-.413-10.754a1.164,1.164,0,0,1,1.152-1.212,1.2,1.2,0,0,1,1.411.993l1.958,12.3a6.46,6.46,0,0,1-1.8,5.821l-9.391,9.391Zm-20.916,4.05-.078-6.436a7.5,7.5,0,0,0-2.237-5.4l-2.767-2.767A7.371,7.371,0,0,0,23.714,42l-1.15-.307L16.578,35.7a3.461,3.461,0,0,0-3.728-.792,3.615,3.615,0,0,0-.686.348l.308-7.959A2.626,2.626,0,0,0,10,24.58a2.666,2.666,0,0,0-3,2.216l-1.958,12.3a7.986,7.986,0,0,0,2.207,7.082l9.392,9.392a3.09,3.09,0,0,1,.936,2.5l-.034.5a2.16,2.16,0,0,0-1.6,2.082v2.443a2.162,2.162,0,0,0,2.161,2.158H31.6a2.16,2.16,0,0,0,2.158-2.158V60.646a2.161,2.161,0,0,0-1.532-2.064ZM8.288,45.141a6.478,6.478,0,0,1-1.8-5.821L8.448,27.025a1.2,1.2,0,0,1,1.413-.994,1.165,1.165,0,0,1,1.154,1.212L10.6,38V38a3.507,3.507,0,0,0,1.022,2.659L17.359,46.4a.729.729,0,1,0,1.032-1.031L12.652,39.63l0,0a2.047,2.047,0,0,1-.594-1.562,1.993,1.993,0,0,1,1.314-1.791,2.025,2.025,0,0,1,2.176.46l6.125,6.125a.73.73,0,0,0,.327.189l1.338.358a5.889,5.889,0,0,1,2.777,1.6l2.767,2.767a6.008,6.008,0,0,1,1.81,4.386l.077,6.326H19.018l.022-.321a4.548,4.548,0,0,0-1.361-3.636L8.288,45.142ZM32.3,63.09a.7.7,0,0,1-.7.7H18.109a.7.7,0,0,1-.7-.7V60.646a.7.7,0,0,1,.7-.7H31.6a.708.708,0,0,1,.7.7V63.09ZM17.342,28.93h1.364A17.284,17.284,0,0,0,20.3,32.774l-.965.967a2.109,2.109,0,0,0,0,2.979l3.62,3.62a2.108,2.108,0,0,0,2.979,0l.964-.964a17.265,17.265,0,0,0,3.847,1.593v1.364a2.11,2.11,0,0,0,2.109,2.106h5.117a2.108,2.108,0,0,0,2.106-2.106V40.969a17.177,17.177,0,0,0,3.847-1.6l.964.966a2.113,2.113,0,0,0,2.983,0l3.616-3.62a2.109,2.109,0,0,0,0-2.979l-.964-.964a17.33,17.33,0,0,0,1.6-3.846h1.36a2.112,2.112,0,0,0,2.109-2.109V21.7A2.11,2.11,0,0,0,53.479,19.6h-1.36a17.272,17.272,0,0,0-1.6-3.848l.964-.967a2.109,2.109,0,0,0,0-2.979L47.868,8.183a2.119,2.119,0,0,0-2.982,0l-.964.967a17.26,17.26,0,0,0-3.846-1.6V6.192a2.108,2.108,0,0,0-2.106-2.106H32.854a2.11,2.11,0,0,0-2.109,2.106V7.556a17.177,17.177,0,0,0-3.847,1.6l-.966-.968a2.117,2.117,0,0,0-2.978,0l-3.62,3.62a2.109,2.109,0,0,0,0,2.979l.965.968A17.26,17.26,0,0,0,18.705,19.6H17.342A2.108,2.108,0,0,0,15.236,21.7v5.117a2.11,2.11,0,0,0,2.106,2.109ZM16.695,21.7a.648.648,0,0,1,.647-.647h1.927a.729.729,0,0,0,.709-.557,15.815,15.815,0,0,1,1.859-4.487.73.73,0,0,0-.106-.895l-1.363-1.367a.649.649,0,0,1,0-.916l3.618-3.618a.653.653,0,0,1,.917,0l1.363,1.366a.73.73,0,0,0,.9.107,15.725,15.725,0,0,1,4.486-1.861.729.729,0,0,0,.557-.709V6.192a.649.649,0,0,1,.65-.647h5.117a.648.648,0,0,1,.647.647V8.119a.729.729,0,0,0,.557.709,15.825,15.825,0,0,1,4.487,1.862.73.73,0,0,0,.9-.108l1.36-1.364a.656.656,0,0,1,.921,0l3.617,3.62a.649.649,0,0,1,0,.917l-1.363,1.366a.729.729,0,0,0-.106.895A15.819,15.819,0,0,1,50.847,20.5a.73.73,0,0,0,.709.557h1.924a.649.649,0,0,1,.65.647v5.117a.651.651,0,0,1-.65.65H51.556a.729.729,0,0,0-.709.557,15.875,15.875,0,0,1-1.862,4.488.73.73,0,0,0,.108.895l1.363,1.363a.648.648,0,0,1,0,.916l-3.616,3.62a.653.653,0,0,1-.919,0l-1.363-1.366a.73.73,0,0,0-.9-.107A15.725,15.725,0,0,1,39.174,39.7a.729.729,0,0,0-.557.709v1.927a.648.648,0,0,1-.647.647H32.854a.649.649,0,0,1-.65-.647V40.406a.729.729,0,0,0-.557-.709,15.815,15.815,0,0,1-4.487-1.859.729.729,0,0,0-.9.107L24.9,39.309a.649.649,0,0,1-.916,0l-3.62-3.62a.649.649,0,0,1,0-.917l1.363-1.366a.729.729,0,0,0,.106-.895,15.831,15.831,0,0,1-1.859-4.484.729.729,0,0,0-.709-.556H17.341a.649.649,0,0,1-.647-.65V21.7ZM32.173,36.349a12.444,12.444,0,0,0,9.245-1.118l.013,0a.727.727,0,0,0,.167-.1,12.477,12.477,0,0,0,5.853-7.466c.016-.053.032-.107.047-.163a12.52,12.52,0,0,0-2.869-11.7.726.726,0,0,0-.118-.127A12.422,12.422,0,0,0,40.2,12.7a.737.737,0,0,0-.1-.039,12.517,12.517,0,0,0-13.893,3.117.724.724,0,0,0-.1.111,12.511,12.511,0,0,0,6.061,20.457Zm.378-1.409a10.979,10.979,0,0,1-6.713-5.149,11.144,11.144,0,0,1-.993-2.277c1.278.276,2.987,1.018,3.025,1.6a.738.738,0,0,0,.026.153,3.633,3.633,0,0,0,2.144,2.2,4.315,4.315,0,0,0,3.548.1.907.907,0,0,0,.516-.741c.041-.513-.349-.91-.819-1.276a13.707,13.707,0,0,1,3.531,1.617,9.772,9.772,0,0,0,3.432,1.482c0,.113,0,.265,0,.388A5.71,5.71,0,0,0,40.3,34.17,11.005,11.005,0,0,1,32.55,34.939Zm13.539-7.815h0v0c-.006.021-.012.041-.017.062-.078.265-.23.643-.47.662-.709.051-2.134-1.365-2.73-2.712-.144-.326-.581-1.319,1.039-2.416,1.778-1.207.647-3.268.04-4.375a6.475,6.475,0,0,1-.389-.777.61.61,0,0,1-.042-.427.439.439,0,0,1,.237-.126,11.057,11.057,0,0,1,2.333,10.106ZM35.413,13.208a11.1,11.1,0,0,1,4.122.8,1.629,1.629,0,0,1,.54.621,3.5,3.5,0,0,1-1.675-.176c-.9-.241-1.893-.4-2.476.253a2.207,2.207,0,0,0-.041,2.273c.155.4.295.718.418,1,.32.737.428,1.01.375,1.345A8.24,8.24,0,0,1,35.549,21.6a.776.776,0,0,1-.194.242,2.034,2.034,0,0,1-.726-.4c-1.514-1.054-2.316-1.532-3.123-1.364-.777.161-1.216.87-1.771,1.768s-1.294.907-1.79.6c-.247-.153-.646-.555-.384-.978,1.344-2.168,1.715-3.139,1.467-3.848a1.461,1.461,0,0,0-1.022-.858.96.96,0,0,1-.468-.256,11.1,11.1,0,0,1,7.874-3.3ZM24.732,21.4a11,11,0,0,1,1.848-3.787,2.539,2.539,0,0,0,.935.522l.114.042A10.209,10.209,0,0,1,26.322,20.7a2.153,2.153,0,0,0,.856,2.987,2.69,2.69,0,0,0,1.408.406,2.8,2.8,0,0,0,2.39-1.479c.248-.4.665-1.074.827-1.108.282-.059,1.438.747,1.994,1.134a2.458,2.458,0,0,0,1.862.625,1.8,1.8,0,0,0,1.141-.917c1.629-2.705,1.624-3.143.841-4.949-.118-.273-.252-.582-.4-.954a2.46,2.46,0,0,1-.2-.742,3.163,3.163,0,0,1,.979.157c1.852.5,3,.3,3.412-.591a1.3,1.3,0,0,0,.078-.225,10.984,10.984,0,0,1,1.17.9,1.6,1.6,0,0,0-.382.4,1.865,1.865,0,0,0-.12,1.708,7.037,7.037,0,0,0,.489,1c.745,1.358,1,2.074.421,2.466-1.67,1.13-2.237,2.665-1.556,4.213.635,1.436,2.211,3.319,3.723,3.557a11.028,11.028,0,0,1-3.56,4.061c0-.092,0-.185.005-.276.016-.593.049-1.828-1.309-1.88a9.318,9.318,0,0,1-2.859-1.3c-1.558-.884-3.17-1.8-4.6-1.854-.511-.02-1.577-.06-1.85.731s.583,1.4.951,1.669a3.639,3.639,0,0,1-1.416-.312,2.3,2.3,0,0,1-1.309-1.2c-.223-1.816-3.295-2.728-4.826-2.932a11.028,11.028,0,0,1,.242-4.59Z"/>
    </g>
  </g>
</svg>
