<svg xmlns="http://www.w3.org/2000/svg" xmlns:xlink="http://www.w3.org/1999/xlink" width="108" height="108" viewBox="0 0 108 108">
  <defs>
    <filter id="Trazado_904820" x="0" y="0" width="108" height="108" filterUnits="userSpaceOnUse">
      <feOffset dy="3" input="SourceAlpha"/>
      <feGaussianBlur stdDeviation="3" result="blur"/>
      <feFlood flood-opacity="0.161"/>
      <feComposite operator="in" in2="blur"/>
      <feComposite in="SourceGraphic"/>
    </filter>
    <clipPath id="clip-path">
      <path id="path4380" d="M0-682.665H58.665V-624H0Z" transform="translate(0 682.665)"/>
    </clipPath>
  </defs>
  <g id="Grupo_1166716" data-name="Grupo 1166716" transform="translate(-201.459 -2138)">
    <g transform="matrix(1, 0, 0, 1, 201.46, 2138)" filter="url(#Trazado_904820)">
      <g id="Trazado_904820-2" data-name="Trazado 904820" transform="translate(9 6)" fill="#fbfbf9">
        <path d="M 45 88.5 C 39.12687683105469 88.5 33.43022537231445 87.35007476806641 28.06830024719238 85.08217620849609 C 22.88852500915527 82.89131164550781 18.23629951477051 79.75458526611328 14.2408504486084 75.75914764404297 C 10.24541282653809 71.76370239257812 7.108687400817871 67.11147308349609 4.917825222015381 61.93170166015625 C 2.649924993515015 56.56977462768555 1.5 50.87312316894531 1.5 45 C 1.5 39.12687683105469 2.649924993515015 33.43022537231445 4.917825222015381 28.06830024719238 C 7.108687400817871 22.88852500915527 10.24541282653809 18.23629951477051 14.2408504486084 14.2408504486084 C 18.23629951477051 10.24541282653809 22.88852500915527 7.108687400817871 28.06830024719238 4.917825222015381 C 33.43022537231445 2.649924993515015 39.12687683105469 1.5 45 1.5 C 50.87312316894531 1.5 56.56977462768555 2.649924993515015 61.93170166015625 4.917825222015381 C 67.11147308349609 7.108687400817871 71.76370239257812 10.24541282653809 75.75914764404297 14.2408504486084 C 79.75458526611328 18.23629951477051 82.89131164550781 22.88852500915527 85.08217620849609 28.06830024719238 C 87.35007476806641 33.43022537231445 88.5 39.12687683105469 88.5 45 C 88.5 50.87312316894531 87.35007476806641 56.56977462768555 85.08217620849609 61.93170166015625 C 82.89131164550781 67.11147308349609 79.75458526611328 71.76370239257812 75.75914764404297 75.75914764404297 C 71.76370239257812 79.75458526611328 67.11147308349609 82.89131164550781 61.93170166015625 85.08217620849609 C 56.56977462768555 87.35007476806641 50.87312316894531 88.5 45 88.5 Z" stroke="none"/>
        <path d="M 45 3 C 39.32871246337891 3 33.82865524291992 4.110054016113281 28.65262985229492 6.299339294433594 C 23.65165710449219 8.414573669433594 19.15968322753906 11.44334411621094 15.301513671875 15.301513671875 C 11.44334411621094 19.15968322753906 8.414573669433594 23.65165710449219 6.299339294433594 28.65262985229492 C 4.110054016113281 33.82865524291992 3 39.32871246337891 3 45 C 3 50.67128753662109 4.110054016113281 56.17134475708008 6.299339294433594 61.34737396240234 C 8.414573669433594 66.34834289550781 11.44334411621094 70.84031677246094 15.301513671875 74.698486328125 C 19.15968322753906 78.55665588378906 23.65165710449219 81.58542633056641 28.65262985229492 83.70066070556641 C 33.82865524291992 85.88994598388672 39.32871246337891 87 45 87 C 50.67128753662109 87 56.17134475708008 85.88994598388672 61.34737396240234 83.70066070556641 C 66.34834289550781 81.58542633056641 70.84031677246094 78.55665588378906 74.698486328125 74.698486328125 C 78.55665588378906 70.84031677246094 81.58542633056641 66.34834289550781 83.70066070556641 61.34737396240234 C 85.88994598388672 56.17134475708008 87 50.67128753662109 87 45 C 87 39.32871246337891 85.88994598388672 33.82865524291992 83.70066070556641 28.65262985229492 C 81.58542633056641 23.65165710449219 78.55665588378906 19.15968322753906 74.698486328125 15.301513671875 C 70.84031677246094 11.44334411621094 66.34834289550781 8.414573669433594 61.34737396240234 6.299339294433594 C 56.17134475708008 4.110054016113281 50.67128753662109 3 45 3 M 45 0 C 69.85281372070312 0 90 20.14718627929688 90 45 C 90 69.85281372070312 69.85281372070312 90 45 90 C 20.14718627929688 90 0 69.85281372070312 0 45 C 0 20.14718627929688 20.14718627929688 0 45 0 Z" stroke="none" fill="#ff9d1c"/>
      </g>
    </g>
    <g id="g4374" transform="translate(226.335 2842.333)">
      <g id="g4376" transform="translate(0 -682.665)">
        <g id="g4378" clip-path="url(#clip-path)">
          <g id="g4384" transform="translate(19.407 27.04)">
            <path id="path4386" d="M-211.141,0h-19.85a11.454,11.454,0,0,0,9.925,5.729A11.453,11.453,0,0,0-211.141,0" transform="translate(230.991)" fill="#ff5a58" fill-rule="evenodd"/>
          </g>
          <g id="g4388" transform="translate(8.708 1.145)">
            <path id="path4390" d="M-414.375,0h-38.957V56.374h38.957a2.3,2.3,0,0,0,2.292-2.292V2.292A2.3,2.3,0,0,0-414.375,0m-8.408,25.9a11.453,11.453,0,0,1-9.925,5.729,11.453,11.453,0,0,1-9.925-5.729,11.406,11.406,0,0,1-1.533-5.729A11.458,11.458,0,0,1-432.708,8.708,11.458,11.458,0,0,1-421.25,20.166a11.406,11.406,0,0,1-1.533,5.729" transform="translate(453.332 0)" fill="#cbe558" fill-rule="evenodd"/>
          </g>
          <g id="g4392" transform="translate(17.875 9.853)">
            <path id="path4394" d="M0-121.874H22.916a11.458,11.458,0,0,0-11.458-11.458A11.458,11.458,0,0,0,0-121.874" transform="translate(0 133.332)" fill="#ffc144" fill-rule="evenodd"/>
          </g>
          <g id="g4396" transform="translate(17.874 21.311)">
            <path id="path4398" d="M-243.75,0h-22.916a11.406,11.406,0,0,0,1.533,5.729h19.85A11.406,11.406,0,0,0-243.75,0" transform="translate(266.666)" fill="#60a4ff" fill-rule="evenodd"/>
          </g>
          <g id="g4400" transform="translate(8.708 1.146)">
            <path id="path4402" d="M-134.062,0h26.353a2.3,2.3,0,0,1,2.292,2.291V54.082a2.3,2.3,0,0,1-2.292,2.292h-38.957V0h2.292" transform="translate(146.666)" fill="none" stroke="#000" stroke-linecap="round" stroke-linejoin="round" stroke-miterlimit="22.926" stroke-width="1"/>
          </g>
          <g id="g4404" transform="translate(17.875 9.853)">
            <path id="path4406" d="M-121.875,0a11.458,11.458,0,0,1,11.458,11.458,11.458,11.458,0,0,1-11.458,11.458,11.458,11.458,0,0,1-11.458-11.458A11.458,11.458,0,0,1-121.875,0Z" transform="translate(133.333)" fill="none" stroke="#000" stroke-linecap="round" stroke-linejoin="round" stroke-miterlimit="22.926" stroke-width="1"/>
          </g>
          <g id="g4408" transform="translate(18.242 21.311)">
            <path id="path4410" d="M0,0H22.182" fill="none" stroke="#000" stroke-linecap="round" stroke-linejoin="round" stroke-miterlimit="22.926" stroke-width="1"/>
          </g>
          <g id="g4412" transform="translate(18.526 43.082)">
            <path id="path4414" d="M0,0H21.612" fill="none" stroke="#000" stroke-linecap="round" stroke-linejoin="round" stroke-miterlimit="22.926" stroke-width="1"/>
          </g>
          <g id="g4416" transform="translate(18.526 48.811)">
            <path id="path4418" d="M0,0H21.612" fill="none" stroke="#000" stroke-linecap="round" stroke-linejoin="round" stroke-miterlimit="22.926" stroke-width="1"/>
          </g>
          <g id="g4420" transform="translate(19.725 27.04)">
            <path id="path4422" d="M0,0H19.214" fill="none" stroke="#000" stroke-linecap="round" stroke-linejoin="round" stroke-miterlimit="22.926" stroke-width="1"/>
          </g>
          <g id="g4424" transform="translate(16.155 1.146)">
            <path id="path4426" d="M0,0H0" fill="none" stroke="#000" stroke-linecap="round" stroke-linejoin="round" stroke-miterlimit="2.613" stroke-width="1"/>
          </g>
        </g>
      </g>
    </g>
  </g>
</svg>
