<svg xmlns="http://www.w3.org/2000/svg" xmlns:xlink="http://www.w3.org/1999/xlink" width="610" height="507" viewBox="0 0 610 507">
  <defs>
    <clipPath id="clip-path">
      <rect id="Rectángulo_413459" data-name="Rectángulo 413459" width="610" height="507" transform="translate(180 5065)" fill="#fff" stroke="#707070" stroke-width="1" opacity="0.68"/>
    </clipPath>
    <clipPath id="clip-path-2">
      <path id="Trazado_1004026" data-name="Trazado 1004026" d="M80.715,168.382C80.53,94.547,140.005,35.09,213.143,34.918c75.022-.175,133.363,59.834,133.363,133.544S284.379,301.923,213.143,301.846C140.005,301.767,80.887,236.966,80.715,168.382Z" transform="translate(-80.715 -34.918)"/>
    </clipPath>
  </defs>
  <g id="Enmascarar_grupo_1098774" data-name="Enmascarar grupo 1098774" transform="translate(-180 -5065)" clip-path="url(#clip-path)">
    <g id="OBJECTS" transform="translate(215.881 5066.831)">
      <path id="Trazado_1004014" data-name="Trazado 1004014" d="M504.645,428.782v75.659H158.739a74.666,74.666,0,0,1,21.267-37.77c12.32-11.636,28.827-19.239,37.722-33.673,12.792-20.748,4.84-49.156-11.666-67.083S166.436,338,144.225,328.026s-45.064-21.1-59.984-40.369c-15.409-19.911-20.357-46.814-16.028-71.631,3.242-18.612,16.956-39.559,35.543-36.391,15.658-24.384,41.828-49.931,68.016-62.274,23.775-11.21,51.361-9.654,77.509-7.055,36.169,3.6,73.419,9.169,104.241,28.47,42.614,26.692,67.2,79.638,60.126,129.483-3.163,22.293-11.939,45.605-3.527,66.485s30.862,31.541,49.165,44.6C476.9,391.912,492.53,409.162,504.645,428.782Z" transform="translate(0.473 0.815)" fill="#ff9d1c" opacity="0.34"/>
      <g id="Grupo_1167027" data-name="Grupo 1167027" transform="translate(23.951 259.293)">
        <path id="Trazado_1004015" data-name="Trazado 1004015" d="M87.915,257.663c14.564,2.771,28.419,11.134,35.856,23.959s7.448,30.167-1.634,41.887c-8.693,11.218-23.94,15.708-38.111,14.906-20.173-1.142-47.5-7.128-56.775-27.442C11,275.354,58.541,252.075,87.915,257.663Z" transform="translate(-23.951 -256.836)" fill="#86d888"/>
        <path id="Trazado_1004016" data-name="Trazado 1004016" d="M78.573,257.432l41.418,47.223L75.826,336.887" transform="translate(-23.377 -256.83)" fill="none" stroke="#2d201b" stroke-linecap="round" stroke-linejoin="round" stroke-miterlimit="10" stroke-width="2.045"/>
        <path id="Trazado_1004017" data-name="Trazado 1004017" d="M58.159,261.187l37.485,35.955L52.568,331.324" transform="translate(-23.634 -256.788)" fill="none" stroke="#2d201b" stroke-linecap="round" stroke-linejoin="round" stroke-miterlimit="10" stroke-width="2.045"/>
        <path id="Trazado_1004018" data-name="Trazado 1004018" d="M44.691,291.871c19.413,1.487,41.405,1.227,59.993,7.021s37.184,10.036,77.608,37.87" transform="translate(-23.721 -256.448)" fill="none" stroke="#2d201b" stroke-linecap="round" stroke-linejoin="round" stroke-miterlimit="10" stroke-width="2.22"/>
      </g>
      <g id="Grupo_1167030" data-name="Grupo 1167030" transform="translate(81.342 34.845)">
        <path id="Trazado_1004019" data-name="Trazado 1004019" d="M177.088,318.952H253.1l-.053-5.491a27.091,27.091,0,0,1,15.942-24.84,132.925,132.925,0,0,0-59.876-253.7c-70.942,2.373-128.033,61.14-128.4,132.119a132.891,132.891,0,0,0,76.706,121.178A34.438,34.438,0,0,1,177.088,318.952Z" transform="translate(-80.713 -34.845)" fill="#e3ad2a"/>
        <path id="Trazado_1004020" data-name="Trazado 1004020" d="M176.427,318.756h76.009l-.053-5.491a27.094,27.094,0,0,1,15.941-24.841A132.939,132.939,0,0,0,279.732,52.61c18.455,39.49,19.8,83.012,1.4,123.921-13.611,30.258-36.158,57.336-64.121,75.289-23.138,14.857-49.614,23.044-76.642,27.076a132.831,132.831,0,0,0,16.391,9.126A34.432,34.432,0,0,1,176.427,318.756Z" transform="translate(-80.053 -34.648)" fill="#c66718" opacity="0.6"/>
        <path id="Trazado_1004021" data-name="Trazado 1004021" d="M162.954,299.527l.1,12.361c.256,31.394,22.188,56.831,48.738,56.528l.613-.007c26.55-.3,48.063-26.235,47.806-57.63l-.1-12.36Z" transform="translate(-79.803 -31.927)"/>
        <line id="Línea_1139" data-name="Línea 1139" y1="49.199" x2="75.739" transform="translate(93.464 264.642)" fill="none" stroke="#fff" stroke-linecap="round" stroke-linejoin="round" stroke-miterlimit="10" stroke-width="3.095"/>
        <line id="Línea_1140" data-name="Línea 1140" y1="37.988" x2="57.638" transform="translate(117.598 296.236)" fill="none" stroke="#fff" stroke-linecap="round" stroke-linejoin="round" stroke-miterlimit="10" stroke-width="3.095"/>
        <g id="Grupo_1167029" data-name="Grupo 1167029" transform="translate(0.001 0.074)">
          <g id="Grupo_1167028" data-name="Grupo 1167028" clip-path="url(#clip-path-2)">
            <path id="Trazado_1004022" data-name="Trazado 1004022" d="M90.886,92.708c-4.509-.73-9.719.54-12.154,4.318-1.638,2.541-1.757,5.74-1.439,8.727a16.3,16.3,0,0,0,2.9,8.371c1.844,2.378,4.986,3.974,7.973,3.351.883-.183.954.225,1.216,1.069.326,1.051-.908,1.881-1.939,2.319l-6.412,2.725a6.7,6.7,0,0,0-2.074,1.191,2.183,2.183,0,0,0-.706,2.139c.409,1.306,2.2,1.565,3.578,1.348a19.613,19.613,0,0,0,8.84-4.373,6.617,6.617,0,0,1,2.305-1.383c1.516-.4,3.06.367,4.58.752s3.562.111,4.021-1.356a16.6,16.6,0,0,0,.114-2.172c.123-.718.951-1.431,1.556-1.006a12.207,12.207,0,0,0,6.939,1.867,8.98,8.98,0,0,1,2.533.11c3.014.84,3.089,5.129,5.355,7.245,1.184,1.106,2.9,1.535,4.082,2.648,1.849,1.748,1.851,4.64,1.314,7.1s-1.487,4.929-1.087,7.412c.512,3.174,3.074,5.58,4.953,8.218a21.437,21.437,0,0,1,3.482,7.853,22.036,22.036,0,0,0,1.336,5.149,4.634,4.634,0,0,0,4.231,2.827c1.465-2.367.567-5.433-.684-7.914s-2.863-4.987-2.736-7.749c1.826-.913,3.745,1.057,4.7,2.832a39.129,39.129,0,0,1,3.931,11.055,20.946,20.946,0,0,0,1.341,5.179A5.43,5.43,0,0,0,147,175.8a23.1,23.1,0,0,0,3.08-.22,6.114,6.114,0,0,1,5.5,3.171c.012-.305-.287.469.83,1.055,1.439.754,3.238.489,4.74,1.119a8.035,8.035,0,0,1,3.1,2.882,9,9,0,0,0,3.021,2.978c1.291.634,3.123.467,3.866-.744.363-.591,1.062-.4,1.662-.031a4.331,4.331,0,0,1,1.34,1.576l2.5,4.141c.3-.119,1-.963,1.3-1.083q-1.647-3.453-3.451-6.831c-.644-1.205-1.65-2.589-3.029-2.4-.667.089-1.23.551-1.894.661s-1.513-.5-1.182-1.073c-.867-.294-.537-.763-.409-1.651a16.636,16.636,0,0,0,.514-2.635,3.108,3.108,0,0,0-3.97-2.671,9.927,9.927,0,0,0,1.579-4.559,3.8,3.8,0,0,0-2.513-3.789c-2.223-.587-4.661,1.486-6.75.541-1.753-.794-1.916-3.417-.649-4.843a6.362,6.362,0,0,1,5.32-1.651,7.689,7.689,0,0,1,3.81,1.245c2.576,1.822,3.3,5.613,6.152,6.987a6.533,6.533,0,0,0,2.781.563,6.052,6.052,0,0,0,4.36-1.49,5.337,5.337,0,0,0,.938-5.429,15.068,15.068,0,0,0-3.172-4.847c-.446-2.445.913-5.021,2.856-6.622,1.648-1.357,4.133-1.409,5.754-2.8,1.794-1.537,1.965-4.213,1.548-6.507-.284-1.564,1.551-2.108,3.165-2.308a22.688,22.688,0,0,1,4.857.291c4.127.381,8.65-.7,11.283-3.829s2.465-8.511-1.016-10.711c-1.758-1.111-3.947-1.264-5.99-1.716s-4.223-1.442-4.927-3.369a12.915,12.915,0,0,1-.388-3.015,6.774,6.774,0,0,0-3.455-5.286,5.2,5.2,0,0,0-6.11.967c-.6-1.57-2.505-2.1-3.979-2.96-2.5-1.458-6.051-1.909-8.084.123a4.323,4.323,0,0,0-.608,5.209c-1.119.281-1.572,1.766-1.465,2.891a4.911,4.911,0,0,0,1.628,2.912c.662.646,1.464,1.638.852,2.33-.245.276-.657.383-.867.685-.334.478.013,1.112.329,1.6a5.416,5.416,0,0,1,1.089,3.421,2.464,2.464,0,0,1-2.446,2.264c-1.511-.148-2.217-1.9-2.362-3.381a14.234,14.234,0,0,1,.193-4.09,2.621,2.621,0,0,1-3.07-1.339c-.692-1.08-1.237-2.375-2.405-2.939-1.206-.583-2.714-.189-3.941-.728-1.418-.624-2.017-2.288-2.127-3.8-.158-2.184.665-4.714,2.755-5.505.555-.21,1.156-.279,1.726-.447a5.218,5.218,0,0,0,3.532-5.91,5.567,5.567,0,0,0-5.657-4.129,9.046,9.046,0,0,1-2.836.12,11.157,11.157,0,0,1-2.076-1.09,4.624,4.624,0,0,0-5.409,1.074c-.478.561-.879,1.288-1.6,1.468a2.373,2.373,0,0,1-1.282-.141c-2.3-.737-4.582-2.14-6.956-1.667-1.652.33-3.13,1.556-4.808,1.383-2.328-.241-3.6-2.992-5.864-3.58-1.466-.381-3.011.235-4.525.137-2.572-.165-4.637-2.333-7.2-2.608-2.122-.229-4.126.875-6.2,1.381C103.356,96.236,97.931,93.849,90.886,92.708Z" transform="translate(-80.754 -34.28)" fill="#252222" fill-rule="evenodd"/>
            <path id="Trazado_1004023" data-name="Trazado 1004023" d="M180.1,178.493a4.951,4.951,0,0,1-4.072,3.034c.225.78-.625,1.446-1.4,1.725s-1.711.517-2.036,1.262c-.121.279-.136.6-.279.866-.264.5-.877.695-1.307,1.063-1.241,1.061-.649,3-.173,4.545a3.243,3.243,0,0,1,.194,1.172,2.936,2.936,0,0,1-1.957,2.207,22.427,22.427,0,0,0-2.9,1.166,2.309,2.309,0,0,0-1.212,2.576,5.006,5.006,0,0,0-.249,5c.594,1.224,1.706,2.138,2.382,3.321,1.668,2.916.577,7.168,3.184,9.331,1.7,1.406,4.3,1.257,6.1,2.533,2.231,1.58,2.453,4.915,1.23,7.326a19.337,19.337,0,0,0-1.535,2.967,2.614,2.614,0,0,0,.825,2.995c-1.369,1.838-2.549,3.888-2.5,6.16.04,1.885.6,3.726.733,5.606.188,2.64-.461,5.26-.7,7.9a19.209,19.209,0,0,0,2.112,11.149,13.418,13.418,0,0,0,9.089,6.714,3.6,3.6,0,0,0,2.221-.157,1.467,1.467,0,0,0,.794-1.841,5.292,5.292,0,0,1-5.063-2.212,14.851,14.851,0,0,1-2.2-5.269,2.222,2.222,0,0,0,2.525-.336,2.1,2.1,0,0,0,.375-2.462c-.441-.8-1.435-1.391-1.363-2.294.085-1.058,1.588-1.539,1.782-2.582.172-.93-.791-1.882-.4-2.747.679-1.507,3.591.2,4.6-1.124.473-.623.16-1.514.351-2.266a5.542,5.542,0,0,1,1.221-1.8,4.725,4.725,0,0,0-.563-6.156c.746,1.326,3.1,1.928,4.627,1.694a3.854,3.854,0,0,0,3.137-2.96c.19-.964,0-2.021.472-2.886.668-1.217,2.452-1.651,2.868-2.971a11.141,11.141,0,0,0,.165-1.564c.289-1.775,2.307-2.726,4.118-3.049s3.8-.369,5.231-1.5c3.289-2.6.929-8.31,3.51-11.583,1.252-1.586,3.411-2.235,4.818-3.692a5.536,5.536,0,0,0,.927-6.246,5.807,5.807,0,0,0-5.7-2.971A2.753,2.753,0,0,0,213,197.5a2.98,2.98,0,0,0-2.936-.177,4.516,4.516,0,0,1-1.412.671c-.925.111-1.624-.745-2.273-1.4a7.3,7.3,0,0,0-6.283-1.992c.917-1.435-.057-4.137-1.244-5.368a8,8,0,0,0-4.636-2.072,3.111,3.111,0,0,1-1.644-.544c-.91-.8-.389-2.309-.863-3.414-.528-1.232-2.087-1.623-3.435-1.855-1.3-.225-2.876-.357-3.712.643-.3.356-.533.869-1,.9a1.468,1.468,0,0,1-.685-.2,3.736,3.736,0,0,0-2.223-.256,2.144,2.144,0,0,1,.436-1.681,2.805,2.805,0,0,0,.612-1.651C181.638,178.511,180.592,178.145,180.1,178.493Z" transform="translate(-79.791 -33.33)" fill="#252222" fill-rule="evenodd"/>
            <path id="Trazado_1004024" data-name="Trazado 1004024" d="M250.621,152.736a4.371,4.371,0,0,0-3.061.028c.432.644-.058,1.515-.67,2s-1.384.835-1.76,1.513c-.5.9-.115,2.053-.444,3.031a4.184,4.184,0,0,1-1.46,1.769c-2.854,2.335-6.418,4.99-6.041,8.606a9.382,9.382,0,0,1,.291,2.864,5.924,5.924,0,0,1-1.193,2.094,10.537,10.537,0,0,0-1.219,10.569c1.649,3.35,5.824,5.486,9.465,4.4,1.284-.382,2.509-1.124,3.849-1.047,2.553.147,4.745,3.2,7.078,2.182.923-.4,1.457-1.343,2.215-2s2.143-.9,2.644-.044a4.315,4.315,0,0,0,4.642,2.008c1.871,2.578-1.788,6.454.08,9.034.527.729,1.392,1.191,1.847,1.965.67,1.139.262,2.564.3,3.877.1,3.407,3.306,6.412,2.63,9.757-.413,2.047-2.23,3.658-2.482,5.73-.27,2.23,1.325,4.22,2.823,5.924l2.66,3.023a3.777,3.777,0,0,0,1.143,4.3c.534.464,1.222.871,1.375,1.552a3.516,3.516,0,0,1-.36,1.734,4.065,4.065,0,0,0,3.562,4.978,3.07,3.07,0,0,0,2.287-.743,12.735,12.735,0,0,0,1.123-1.562,3.868,3.868,0,0,1,3.233-1.443,7.872,7.872,0,0,0,2.482.16c1.3-.346,1.818-1.845,2.118-3.129q1.471-6.3,2.521-12.687a5.776,5.776,0,0,1,.478-1.751c.88-1.7,3.155-2.153,4.543-3.487,1.932-1.857,1.739-4.949.994-7.5s-1.913-5.123-1.466-7.736a4.306,4.306,0,0,1,1.438-2.677c1.539-1.228,3.926-.895,5.523-2.049a6.742,6.742,0,0,0,1.951-2.861l4.789-10.616a1.3,1.3,0,0,0,.134-1.133,1.109,1.109,0,0,0-.853-.466c-1.826-.255-3.648,1.189-5.419.688-2.921-.826-2.381-5.583-5-7.1a15.907,15.907,0,0,1-2.314-1.077c-1.476-1.216-.692-3.572-1.272-5.372-.522-1.617-2.1-2.635-3.417-3.734s-2.557-2.737-2.045-4.356a4.545,4.545,0,0,0,.457-1.5,1.884,1.884,0,0,0-.793-1.291c-2.434-1.978-6.289-.912-9.04-2.443-1.236-.689-2.788-1.873-3.826-.921-.734.673-.433,1.9-.926,2.76-.715,1.244-2.771,1.026-3.749-.032a7.832,7.832,0,0,1-1.477-3.966c-.277-1.4-.741-2.915-1.969-3.686-1.3-.819-3-.524-4.518-.2l-6.889,1.477C255.321,152.656,252.836,153.553,250.621,152.736Z" transform="translate(-79.016 -33.64)" fill="#252222" fill-rule="evenodd"/>
            <path id="Trazado_1004025" data-name="Trazado 1004025" d="M263.424,125.255c.313.288.9-.234.64-.567a3.018,3.018,0,0,0-3.729,2.7,6.956,6.956,0,0,1,.024,1.412,2.318,2.318,0,0,1-1.835,1.583,13.92,13.92,0,0,1-2.576.16,9.409,9.409,0,0,0-3.845,1.018c-1.49.763-2.866,2.546-1.961,3.931.8,1.216,2.7,1.093,3.856,1.99a2.493,2.493,0,0,1,.775,2.844,2.6,2.6,0,0,1-2.573,1.533c-1.329-.122-2.327-1.219-3.559-1.721-2.683-1.093-5.958,1.251-6.235,4.078s1.9,5.512,4.628,6.507c3.069,1.119,7.184-.061,8.194-3.1.341-1.026.305-2.134.551-3.186a2.959,2.959,0,0,1,1.984-2.373c1.608-.348,2.995,1.342,4.641,1.387a2.423,2.423,0,0,0,2.4-2.612c.639,2.992,6.1,2.7,6.79,5.681.154.659.04,1.357.194,2.017s.75,1.324,1.428,1.182c.716-.15.954-1.055.834-1.76a5.829,5.829,0,0,1-.306-2.107c.17.588.656,1.247,1.264,1.1.642-.158.692-1.115.247-1.593a4.4,4.4,0,0,0-1.753-.87,5.838,5.838,0,0,1-2.779-2.231c-.663-1.014-.753-2.712.413-3.1a2.126,2.126,0,0,1,1.075-.007,6.431,6.431,0,0,1,4.453,3.342c.757,1.5.885,3.277,1.832,4.669a4.96,4.96,0,0,0,4.492,2.074c.446-.044,1.014-.4.788-.781a5.924,5.924,0,0,0,5.268,3.5,7.339,7.339,0,0,0,4.564-1.719.989.989,0,0,1,.564-.277c.3,0,.524.27.669.529a4.68,4.68,0,0,1-1.011,5.677,9.582,9.582,0,0,1-3.078,1.559L281.693,161a16.958,16.958,0,0,1,2.982,2.078,5.535,5.535,0,0,1,10.106.15c.5,1.217.563,2.64,1.411,3.658.782.938,2.07,1.324,2.964,2.161,2.12,1.981,1.409,5.756,3.533,7.733,2.4,2.233,6.286.611,9.6.694,1.671.041,3.471.536,4.935-.253,1.585-.854,2.179-2.937,3.8-3.718,1.166-.56,2.763-.4,3.541-1.416.834-1.09-.076-2.778-1.386-3.241a6.331,6.331,0,0,0-4.078.371,8.58,8.58,0,0,1-4.062.737c-2.4-.391-3.807-2.794-4.868-4.935-.627-1.263-1.143-3.03.017-3.859,1.451-1.036,3.173.767,4.476,1.977a8.038,8.038,0,0,0,7.989,1.606c1.312-.473,2.617-1.31,3.989-1.047a16.776,16.776,0,0,1,2.635,1.225c2.64,1.007,5.579-1.312,6.353-3.976s.083-5.489-.337-8.228a3.406,3.406,0,0,1,.15-2.121,3.71,3.71,0,0,1,1.441-1.276c2.353-1.447,4.764-3.026,6.145-5.383s1.377-5.717-.749-7.468a23.406,23.406,0,0,1-2.012-1.475c-1.741-1.782-.846-4.748.525-6.815s3.2-4.139,3.074-6.6c-.176-3.414-4.163-5.53-7.662-5.448s-6.778,1.612-10.211,2.283A11.389,11.389,0,0,1,319.3,118c-3.262-1.419-5.259-4.961-8.652-6.044-2.553-.814-5.308-.054-7.957.373s-5.744.365-7.536-1.588a4.989,4.989,0,0,0-1.283-1.251c-1.279-.64-3.232.4-4.094-.72-.785-1.022.441-2.526,0-3.728-.609-1.646-3.847-1.655-3.724-3.4.069-.975,1.354-1.463,2.314-1.19a8.314,8.314,0,0,1,2.489,1.6,5.123,5.123,0,0,0,4.118,1.091,2.724,2.724,0,0,0,2.115-3.233c-.6-1.766-3.042-1.97-4.944-1.84s-4.335-.055-4.962-1.814a4.233,4.233,0,0,1,.345-2.821c-1.951-1.069-3.893,1.375-5.956,2.22-1.516.621-3.235.338-4.878.386s-3.53.662-4.042,2.188c-.316.937-.017,1.99-.323,2.931a3.965,3.965,0,0,1-1.248,1.675c-1.952,1.714-4.46,2.671-6.72,3.978s-4.429,3.2-4.886,5.722,1.7,5.5,4.282,5.051c1.833-.317,3.3-2.152,5.144-1.9a7.772,7.772,0,0,0,.635,3.877,2.817,2.817,0,0,0,3.385,1.427,4.025,4.025,0,0,0,1.39-1.276c.965-1.22,1.976-2.815,1.265-4.192a15.767,15.767,0,0,0-1.059-1.378c-1.155-1.73-.08-4,.993-5.781a7.028,7.028,0,0,1,3.087-3.237c1.428-.562,3.476.268,3.458,1.77-.018,1.461-1.755,2.238-2.575,3.46a3.138,3.138,0,0,0,.3,3.787,3.331,3.331,0,0,0,3.83.664,11.99,11.99,0,0,0,1.491-1.066,4.728,4.728,0,0,1,4.261-.826,2.772,2.772,0,0,1,1.734,3.553c-.637,1.326-2.391,1.709-3.888,1.631s-3.042-.446-4.462.021-2.5,2.288-1.539,3.412a3.5,3.5,0,0,0-3.665,2.9c-.092.752.044,1.626-.5,2.169a2.389,2.389,0,0,1-1.163.518c-1.379.335-2.98.629-4.1-.218-1.059-.8-1.475-2.468-2.794-2.68-.9-.145-1.7.5-2.479.967S263.929,126,263.424,125.255Z" transform="translate(-78.925 -34.273)" fill="#252222" fill-rule="evenodd"/>
          </g>
        </g>
        <path id="Trazado_1004027" data-name="Trazado 1004027" d="M112.084,144.221a96.443,96.443,0,0,0-2.52,25.913" transform="translate(-80.395 -33.634)" fill="none" stroke="#fafafa" stroke-linecap="round" stroke-linejoin="round" stroke-miterlimit="10" stroke-width="9"/>
        <path id="Trazado_1004028" data-name="Trazado 1004028" d="M170.936,76.225c-17.847,8.043-32.926,21.557-43.6,37.9" transform="translate(-80.197 -34.387)" fill="none" stroke="#fafafa" stroke-linecap="round" stroke-linejoin="round" stroke-miterlimit="10" stroke-width="9"/>
        <path id="Trazado_1004029" data-name="Trazado 1004029" d="M290.955,235.653a111.633,111.633,0,0,1-33.086,28.963" transform="translate(-78.752 -32.622)" fill="none" stroke="#fafafa" stroke-linecap="round" stroke-linejoin="round" stroke-miterlimit="10" stroke-width="9"/>
        <line id="Línea_1141" data-name="Línea 1141" x2="171.132" y2="198.844" transform="translate(47.917 31.823)" fill="none" stroke="#fff" stroke-linecap="round" stroke-linejoin="round" stroke-miterlimit="10" stroke-width="1.121"/>
        <line id="Línea_1142" data-name="Línea 1142" x1="117.198" y2="236.203" transform="translate(73.216 13.753)" fill="none" stroke="#fff" stroke-linecap="round" stroke-linejoin="round" stroke-miterlimit="10" stroke-width="1.121"/>
        <line id="Línea_1143" data-name="Línea 1143" x1="237.57" y1="117.443" transform="translate(14.799 71.849)" fill="none" stroke="#fff" stroke-linecap="round" stroke-linejoin="round" stroke-miterlimit="10" stroke-width="1.121"/>
        <line id="Línea_1144" data-name="Línea 1144" y1="105.581" x2="241.882" transform="translate(11.519 77.773)" fill="none" stroke="#fff" stroke-linecap="round" stroke-linejoin="round" stroke-miterlimit="10" stroke-width="1.121"/>
        <line id="Línea_1145" data-name="Línea 1145" x2="85.157" y2="244.72" transform="translate(90.238 7.91)" fill="none" stroke="#fff" stroke-linecap="round" stroke-linejoin="round" stroke-miterlimit="10" stroke-width="1.121"/>
        <line id="Línea_1146" data-name="Línea 1146" x1="200.381" y2="172.771" transform="translate(31.595 44.988)" fill="none" stroke="#fff" stroke-linecap="round" stroke-linejoin="round" stroke-miterlimit="10" stroke-width="1.121"/>
        <line id="Línea_1147" data-name="Línea 1147" x1="0.11" y2="255.065" transform="translate(132.761 1.221)" fill="none" stroke="#fff" stroke-linecap="round" stroke-linejoin="round" stroke-miterlimit="10" stroke-width="1.121"/>
        <line id="Línea_1148" data-name="Línea 1148" x1="264.376" y2="0.035" transform="translate(0.628 130.252)" fill="none" stroke="#fff" stroke-linecap="round" stroke-linejoin="round" stroke-miterlimit="10" stroke-width="1.121"/>
        <circle id="Elipse_11773" data-name="Elipse 11773" cx="60.074" cy="60.074" r="60.074" transform="translate(72.742 70.197)" fill="none" stroke="#fff" stroke-linecap="round" stroke-linejoin="round" stroke-miterlimit="10" stroke-width="1.121"/>
        <path id="Trazado_1004030" data-name="Trazado 1004030" d="M312.791,183.736a109.03,109.03,0,0,1-5.642,22.237" transform="translate(-78.207 -33.196)" fill="none" stroke="#fafafa" stroke-linecap="round" stroke-linejoin="round" stroke-miterlimit="10" stroke-width="9"/>
        <path id="Trazado_1004031" data-name="Trazado 1004031" d="M261.7,314.684l-95.861.925a15.158,15.158,0,0,1-15.259-14.968h0a15.159,15.159,0,0,1,14.968-15.259l95.862-.924a15.158,15.158,0,0,1,15.259,14.968h0A15.158,15.158,0,0,1,261.7,314.684Z" transform="translate(-79.94 -32.082)" fill="#9797fb"/>
      </g>
      <path id="Trazado_1004032" data-name="Trazado 1004032" d="M259.146,315.343" transform="translate(2.603 3.105)" fill="none" stroke="#fff" stroke-linecap="round" stroke-linejoin="round" stroke-miterlimit="10" stroke-width="2.846"/>
      <path id="Trazado_1004033" data-name="Trazado 1004033" d="M201.954,355.858" transform="translate(1.97 3.553)" fill="none" stroke="#fff" stroke-linecap="round" stroke-linejoin="round" stroke-miterlimit="10" stroke-width="2.846"/>
      <circle id="Elipse_11774" data-name="Elipse 11774" cx="20.097" cy="20.097" r="20.097" transform="matrix(0.922, -0.387, 0.387, 0.922, 324.039, 67.05)" fill="#ff9d1c" opacity="0.27"/>
      <g id="Grupo_1167031" data-name="Grupo 1167031" transform="translate(57.999 368.408)">
        <path id="Trazado_1004034" data-name="Trazado 1004034" d="M77.674,453.088a52.678,52.678,0,0,1-14.022-1.843,8.215,8.215,0,0,1,4.38-15.834c10.295,2.847,22.718.855,33.232-5.328a44.924,44.924,0,0,0,8.56-6.476c-9.973-8.379-17.193-20.105-17.9-33.937-.431-8.412,3.075-16.3,9.149-20.579,3.525-2.486,12.715-7.593,21.891-1.354,12.254,8.333,15.067,32.773,12.516,43.3a47.6,47.6,0,0,1-2.519,7.557,40.14,40.14,0,0,0,10.142,2.32c20.159,1.925,37.162-9.471,45.5-16.434,1.6-1.335,3.173-2.75,4.68-4.208A8.214,8.214,0,0,1,204.7,412.086c-1.793,1.734-3.667,3.418-5.57,5.007-17.8,14.859-38.248,22.022-57.592,20.178a56.044,56.044,0,0,1-17.5-4.759,60.166,60.166,0,0,1-14.443,11.732A63.707,63.707,0,0,1,77.674,453.088Zm35.637-71.876a6.614,6.614,0,0,0-2.774,1.3c-1.439,1.014-2.347,3.611-2.208,6.314.363,7.086,4.185,14.754,10.466,20.837q.411-1.234.718-2.5c.657-2.714.644-8.611-.654-14.63-1.35-6.257-3.551-10.144-5.133-11.22A.73.73,0,0,0,113.312,381.212Z" transform="translate(-57.627 -364.756)" fill="#de9ac2"/>
      </g>
      <g id="Grupo_1167032" data-name="Grupo 1167032" transform="translate(164.491 401.619)">
        <path id="Trazado_1004035" data-name="Trazado 1004035" d="M203.731,400.107a8.215,8.215,0,0,0-11.614-.2c-1.508,1.458-3.082,2.872-4.68,4.208a76.285,76.285,0,0,1-24.485,13.928,107.664,107.664,0,0,0,3.441,16.123,89.952,89.952,0,0,0,31.573-17.441c1.9-1.588,3.777-3.273,5.57-5.007A8.215,8.215,0,0,0,203.731,400.107Z" transform="translate(-162.952 -397.603)"/>
      </g>
      <g id="Grupo_1167033" data-name="Grupo 1167033" transform="translate(301.701 388.995)">
        <path id="Trazado_1004036" data-name="Trazado 1004036" d="M418.466,445.136a8.207,8.207,0,0,1-6.768-3.549c-10.617-15.386-26.8-27.561-45.577-34.278s-39.009-7.578-56.978-2.42a8.214,8.214,0,0,1-4.532-15.791c43.93-12.609,94.651,5.545,120.608,43.16a8.214,8.214,0,0,1-6.754,12.879Z" transform="translate(-298.661 -385.118)"/>
      </g>
      <g id="Grupo_1167034" data-name="Grupo 1167034" transform="translate(301.701 388.996)">
        <path id="Trazado_1004037" data-name="Trazado 1004037" d="M380.8,413.957a150.368,150.368,0,0,0,5.552-15.673c-24.88-13.023-54.6-16.976-81.74-9.188a8.214,8.214,0,0,0,4.532,15.791c17.969-5.156,38.2-4.3,56.978,2.421A98.948,98.948,0,0,1,380.8,413.957Z" transform="translate(-298.66 -385.118)" fill="#de9ac2"/>
      </g>
      <circle id="Elipse_11775" data-name="Elipse 11775" cx="105.641" cy="105.641" r="105.641" transform="translate(107.102 64.512)" fill="none" stroke="#fff" stroke-linecap="round" stroke-linejoin="round" stroke-miterlimit="10" stroke-width="1.121"/>
      <g id="Grupo_1167035" data-name="Grupo 1167035" transform="translate(325.371 93.214)">
        <path id="Trazado_1004038" data-name="Trazado 1004038" d="M367.792,105.5c-11.541,9.306-19.823,23.209-20.34,38.026s7.643,30.119,21.174,36.177c12.953,5.8,28.517,2.577,40.64-4.807,17.256-10.511,38.544-28.668,37.151-50.953C443.973,84.867,391.069,86.732,367.792,105.5Z" transform="translate(-321.79 -92.575)" fill="#86d888"/>
        <path id="Trazado_1004039" data-name="Trazado 1004039" d="M375.269,101.077l-14.286,61.168,54.143,7.623" transform="translate(-321.64 -92.481)" fill="none" stroke="#2d201b" stroke-linecap="round" stroke-linejoin="round" stroke-miterlimit="10" stroke-width="2.045"/>
        <path id="Trazado_1004040" data-name="Trazado 1004040" d="M395.093,94.758l-16.126,49.374,54.1,9.858" transform="translate(-321.441 -92.551)" fill="none" stroke="#2d201b" stroke-linecap="round" stroke-linejoin="round" stroke-miterlimit="10" stroke-width="2.045"/>
        <path id="Trazado_1004041" data-name="Trazado 1004041" d="M422.3,115.506c-16.423,10.457-35.945,20.589-49.61,34.456s-28.071,26.371-50.614,69.966" transform="translate(-322.071 -92.322)" fill="none" stroke="#2d201b" stroke-linecap="round" stroke-linejoin="round" stroke-miterlimit="10" stroke-width="2.22"/>
      </g>
      <circle id="Elipse_11776" data-name="Elipse 11776" cx="20.097" cy="20.097" r="20.097" transform="translate(422.936 270.57)" fill="#adedcd" opacity="0.27"/>
      <circle id="Elipse_11777" data-name="Elipse 11777" cx="8.134" cy="8.134" r="8.134" transform="translate(381.507 66.554)" fill="#ff9d1c"/>
      <circle id="Elipse_11778" data-name="Elipse 11778" cx="6.22" cy="6.22" r="6.22" transform="translate(45.08 238.579)" fill="none" stroke="#2d201b" stroke-linecap="round" stroke-linejoin="round" stroke-miterlimit="10" stroke-width="1.386"/>
      <path id="Trazado_1004042" data-name="Trazado 1004042" d="M402.47,361.075H301.719c-.712-10.8,7.976-22.18,18.6-24.27s22.264,4.681,25.7,14.946c2.9-4.873,10.494-6.256,16.044-5.087s10.222,5.059,13.516,9.677a16.255,16.255,0,0,1,9.424-5.2C391.318,350.319,397.709,356.836,402.47,361.075Z" transform="translate(3.074 3.338)" fill="#ff9d1c"/>
      <path id="Trazado_1004043" data-name="Trazado 1004043" d="M480,198.168h-75.85c-.536-8.131,6-16.7,14-18.271A17.534,17.534,0,0,1,437.5,191.149c2.184-3.669,7.9-4.71,12.078-3.829s7.7,3.81,10.175,7.286a12.236,12.236,0,0,1,7.095-3.915C471.606,190.07,476.417,194.977,480,198.168Z" transform="translate(4.208 1.603)" fill="#ff9d1c"/>
      <g id="Grupo_1167036" data-name="Grupo 1167036" transform="translate(390.118 316.041)">
        <path id="Trazado_1004044" data-name="Trazado 1004044" d="M409.065,321.035a3.979,3.979,0,1,1-3.979-3.979A3.979,3.979,0,0,1,409.065,321.035Z" transform="translate(-385.943 -312.917)" fill="none" stroke="#2d201b" stroke-linecap="round" stroke-linejoin="round" stroke-miterlimit="10" stroke-width="1.609"/>
        <path id="Trazado_1004045" data-name="Trazado 1004045" d="M392.493,321.893A3.192,3.192,0,1,1,389.3,318.7,3.192,3.192,0,0,1,392.493,321.893Z" transform="translate(-386.109 -312.898)" fill="#252222" fill-rule="evenodd"/>
        <path id="Trazado_1004046" data-name="Trazado 1004046" d="M417.14,314.7a1.741,1.741,0,1,1-1.741-1.741A1.741,1.741,0,0,1,417.14,314.7Z" transform="translate(-385.804 -312.962)" fill="#252222" fill-rule="evenodd"/>
      </g>
      <g id="Grupo_1167037" data-name="Grupo 1167037" transform="translate(48.163 404.532)">
        <path id="Trazado_1004047" data-name="Trazado 1004047" d="M70.853,408.558a3.979,3.979,0,1,1-3.979-3.979A3.979,3.979,0,0,1,70.853,408.558Z" transform="translate(-47.732 -400.44)" fill="none" stroke="#2d201b" stroke-linecap="round" stroke-linejoin="round" stroke-miterlimit="10" stroke-width="1.609"/>
        <path id="Trazado_1004048" data-name="Trazado 1004048" d="M54.281,409.416a3.191,3.191,0,1,1-3.192-3.191A3.192,3.192,0,0,1,54.281,409.416Z" transform="translate(-47.898 -400.421)" fill="#252222" fill-rule="evenodd"/>
        <path id="Trazado_1004049" data-name="Trazado 1004049" d="M78.928,402.226a1.741,1.741,0,1,1-1.741-1.741A1.741,1.741,0,0,1,78.928,402.226Z" transform="translate(-47.593 -400.485)" fill="#252222" fill-rule="evenodd"/>
      </g>
      <path id="Trazado_1004050" data-name="Trazado 1004050" d="M445.151,169.656a4.758,4.758,0,1,1-4.758-4.758A4.758,4.758,0,0,1,445.151,169.656Z" transform="translate(4.557 1.44)" fill="none" stroke="#2d201b" stroke-linecap="round" stroke-linejoin="round" stroke-miterlimit="10" stroke-width="1.386"/>
      <path id="Trazado_1004051" data-name="Trazado 1004051" d="M460.838,243.389a4.758,4.758,0,1,1-4.758-4.758A4.758,4.758,0,0,1,460.838,243.389Z" transform="translate(4.731 2.256)" fill="none" stroke="#2d201b" stroke-linecap="round" stroke-linejoin="round" stroke-miterlimit="10" stroke-width="1.386"/>
      <path id="Trazado_1004052" data-name="Trazado 1004052" d="M404.274,447.583a4.758,4.758,0,1,1-4.758-4.758A4.758,4.758,0,0,1,404.274,447.583Z" transform="translate(4.105 4.516)" fill="none" stroke="#2d201b" stroke-linecap="round" stroke-linejoin="round" stroke-miterlimit="10" stroke-width="1.386"/>
      <path id="Trazado_1004053" data-name="Trazado 1004053" d="M317.3,52.394a5.155,5.155,0,1,1-5.154-5.154A5.155,5.155,0,0,1,317.3,52.394Z" transform="translate(3.133 0.137)" fill="none" stroke="#2d201b" stroke-linecap="round" stroke-linejoin="round" stroke-miterlimit="10" stroke-width="1.386"/>
      <path id="Trazado_1004054" data-name="Trazado 1004054" d="M64.278,135.925a5.155,5.155,0,1,1-5.155-5.154A5.155,5.155,0,0,1,64.278,135.925Z" transform="translate(0.332 1.062)" fill="none" stroke="#2d201b" stroke-linecap="round" stroke-linejoin="round" stroke-miterlimit="10" stroke-width="1.386"/>
      <path id="Trazado_1004055" data-name="Trazado 1004055" d="M330.569,44.516a1.983,1.983,0,1,1-1.983-1.983A1.983,1.983,0,0,1,330.569,44.516Z" transform="translate(3.35 0.085)" fill="#252222"/>
      <path id="Trazado_1004056" data-name="Trazado 1004056" d="M73.2,88.222a1.983,1.983,0,1,1-1.983-1.983A1.983,1.983,0,0,1,73.2,88.222Z" transform="translate(0.501 0.569)" fill="#252222"/>
      <path id="Trazado_1004057" data-name="Trazado 1004057" d="M77.211,235.515a1.983,1.983,0,1,1-1.983-1.983A1.983,1.983,0,0,1,77.211,235.515Z" transform="translate(0.546 2.199)" fill="#252222"/>
      <path id="Trazado_1004058" data-name="Trazado 1004058" d="M351.355,88.05a1.983,1.983,0,1,1-1.983-1.983A1.983,1.983,0,0,1,351.355,88.05Z" transform="translate(3.58 0.567)" fill="#252222"/>
      <path id="Trazado_1004059" data-name="Trazado 1004059" d="M346.649,111.973a1.983,1.983,0,1,1-1.983-1.983A1.983,1.983,0,0,1,346.649,111.973Z" transform="translate(3.528 0.832)" fill="#252222"/>
      <path id="Trazado_1004060" data-name="Trazado 1004060" d="M453.326,162.567a1.983,1.983,0,1,1-1.983-1.983A1.983,1.983,0,0,1,453.326,162.567Z" transform="translate(4.709 1.392)" fill="#252222"/>
      <path id="Trazado_1004061" data-name="Trazado 1004061" d="M453.718,229.24a1.983,1.983,0,1,1-1.983-1.983A1.983,1.983,0,0,1,453.718,229.24Z" transform="translate(4.713 2.13)" fill="#252222"/>
      <path id="Trazado_1004062" data-name="Trazado 1004062" d="M383.905,443.151a1.983,1.983,0,1,1-1.983-1.983A1.983,1.983,0,0,1,383.905,443.151Z" transform="translate(3.941 4.498)" fill="#252222"/>
      <g id="Grupo_1167038" data-name="Grupo 1167038" transform="translate(398.244 341.184)">
        <circle id="Elipse_11779" data-name="Elipse 11779" cx="34.265" cy="34.265" r="34.265" transform="translate(0)" fill="#e3ad2a"/>
        <path id="Trazado_1004063" data-name="Trazado 1004063" d="M447.265,399.172c-6.389-9.165-10.921-19.929-11.67-31.156A44.2,44.2,0,0,1,437.5,351.7a43.5,43.5,0,0,1,5.148-10.681,34.256,34.256,0,0,0-30.268.686.83.83,0,0,1,.2.171,60.805,60.805,0,0,1,9.866,15.975,65.631,65.631,0,0,1,4.419,16.366,60.675,60.675,0,0,1,.546,15.208,35.789,35.789,0,0,1-3.616,11.89c-.74,1.487-1.554,2.935-2.408,4.362a34.3,34.3,0,0,0,26.546-5.576C447.713,399.793,447.484,399.485,447.265,399.172Z" transform="translate(-393.944 -337.83)" fill="#f4d786"/>
        <circle id="Elipse_11780" data-name="Elipse 11780" cx="23.84" cy="23.84" r="23.84" transform="matrix(0.939, -0.343, 0.343, 0.939, 3.709, 20.041)" fill="none" stroke="#2d201b" stroke-linecap="round" stroke-linejoin="round" stroke-miterlimit="10" stroke-width="2.412"/>
      </g>
      <g id="Grupo_1167039" data-name="Grupo 1167039" transform="translate(160.798 449.364)">
        <circle id="Elipse_11781" data-name="Elipse 11781" cx="16.85" cy="16.85" r="16.85" transform="translate(0 0.001)" fill="#e3ad2a"/>
        <path id="Trazado_1004064" data-name="Trazado 1004064" d="M185.423,474.992a30.771,30.771,0,0,1-5.739-15.322,21.744,21.744,0,0,1,.937-8.023,21.4,21.4,0,0,1,2.532-5.253,16.846,16.846,0,0,0-14.885.338.421.421,0,0,1,.1.084,29.906,29.906,0,0,1,4.852,7.856,32.226,32.226,0,0,1,2.173,8.048,29.845,29.845,0,0,1,.269,7.479,17.574,17.574,0,0,1-1.778,5.847c-.364.731-.764,1.444-1.184,2.145a16.865,16.865,0,0,0,13.054-2.742C185.643,475.3,185.53,475.147,185.423,474.992Z" transform="translate(-159.201 -444.826)" fill="#f4d786"/>
        <circle id="Elipse_11782" data-name="Elipse 11782" cx="11.723" cy="11.723" r="11.723" transform="translate(5.127 5.128)" fill="none" stroke="#2d201b" stroke-linecap="round" stroke-linejoin="round" stroke-miterlimit="10" stroke-width="1.839"/>
      </g>
      <g id="Grupo_1167040" data-name="Grupo 1167040" transform="translate(448.69 430.884)">
        <circle id="Elipse_11783" data-name="Elipse 11783" cx="16.85" cy="16.85" r="16.85" transform="matrix(0.161, -0.987, 0.987, 0.161, 0, 33.263)" fill="#e3ad2a"/>
        <path id="Trazado_1004065" data-name="Trazado 1004065" d="M472.616,459.211a30.772,30.772,0,0,1-5.739-15.322,21.744,21.744,0,0,1,.937-8.023,21.4,21.4,0,0,1,2.532-5.253,16.846,16.846,0,0,0-14.885.338.423.423,0,0,1,.1.084,29.89,29.89,0,0,1,4.852,7.856,32.24,32.24,0,0,1,2.173,8.048,29.837,29.837,0,0,1,.269,7.479,17.573,17.573,0,0,1-1.778,5.847c-.364.731-.764,1.444-1.184,2.144a16.957,16.957,0,0,0,3.353.335,16.765,16.765,0,0,0,9.7-3.077C472.836,459.517,472.724,459.366,472.616,459.211Z" transform="translate(-443.914 -426.52)" fill="#f4d786"/>
        <circle id="Elipse_11784" data-name="Elipse 11784" cx="11.723" cy="11.723" r="11.723" transform="translate(5.895 29.075) rotate(-80.747)" fill="none" stroke="#2d201b" stroke-linecap="round" stroke-linejoin="round" stroke-miterlimit="10" stroke-width="1.839"/>
      </g>
      <g id="Grupo_1167041" data-name="Grupo 1167041" transform="translate(110.394 334.204)">
        <circle id="Elipse_11785" data-name="Elipse 11785" cx="23.166" cy="23.166" r="23.166" transform="matrix(0.926, -0.377, 0.377, 0.926, 0, 17.485)" fill="#e3ad2a"/>
        <path id="Trazado_1004066" data-name="Trazado 1004066" d="M152.3,379.336a42.306,42.306,0,0,1-7.889-21.065,29.874,29.874,0,0,1,1.288-11.029,29.417,29.417,0,0,1,3.48-7.221,23.158,23.158,0,0,0-20.464.464.556.556,0,0,1,.139.116,41.1,41.1,0,0,1,6.67,10.8,44.37,44.37,0,0,1,2.988,11.064,41.014,41.014,0,0,1,.369,10.282,24.181,24.181,0,0,1-2.445,8.039c-.5,1-1.05,1.985-1.628,2.948a23.183,23.183,0,0,0,17.946-3.77C152.607,379.756,152.452,379.548,152.3,379.336Z" transform="translate(-109.234 -330.85)" fill="#f4d786"/>
        <circle id="Elipse_11786" data-name="Elipse 11786" cx="16.117" cy="16.117" r="16.117" transform="matrix(0.925, -0.379, 0.379, 0.925, 9.167, 21.373)" fill="none" stroke="#2d201b" stroke-linecap="round" stroke-linejoin="round" stroke-miterlimit="10" stroke-width="1.839"/>
      </g>
      <g id="Grupo_1167043" data-name="Grupo 1167043" transform="translate(251.121 198.265)">
        <path id="Trazado_1004067" data-name="Trazado 1004067" d="M344.617,203.247c-18.757,8.607-34.69,24.535-40.458,44.351s.007,43.256,16.192,56.062c15.494,12.258,37.6,13.236,56.482,7.421,26.881-8.279,61.82-25.494,67.565-56.042C454.473,201.473,382.449,185.886,344.617,203.247Z" transform="translate(-248.044 -196.475)" fill="#86d888"/>
        <g id="Grupo_1167042" data-name="Grupo 1167042" transform="translate(0 1.77)">
          <path id="Trazado_1004068" data-name="Trazado 1004068" d="M410.079,247.241c-58.407-2.655-130.351,36.97-161.445,67.753" transform="translate(-248.634 -197.685)" fill="none" stroke="#2d201b" stroke-linecap="round" stroke-linejoin="round" stroke-miterlimit="10" stroke-width="2.22"/>
          <path id="Trazado_1004069" data-name="Trazado 1004069" d="M356.144,199.976l-31.858,66.372,52.3,44.693" transform="translate(-247.797 -198.207)" fill="none" stroke="#2d201b" stroke-linecap="round" stroke-linejoin="round" stroke-miterlimit="10" stroke-width="1.839"/>
          <path id="Trazado_1004070" data-name="Trazado 1004070" d="M384.979,198.226l-27.433,56.636,58.406,36.283" transform="translate(-247.428 -198.226)" fill="none" stroke="#2d201b" stroke-linecap="round" stroke-linejoin="round" stroke-miterlimit="10" stroke-width="1.839"/>
        </g>
      </g>
      <g id="Grupo_1167047" data-name="Grupo 1167047" transform="translate(186.107 304.174)">
        <g id="Grupo_1167046" data-name="Grupo 1167046">
          <g id="Grupo_1167045" data-name="Grupo 1167045">
            <g id="Grupo_1167044" data-name="Grupo 1167044" transform="translate(0 36.586)">
              <path id="Trazado_1004071" data-name="Trazado 1004071" d="M275.16,420.259a28.063,28.063,0,0,0,7.75-9.646c3.886-7.948,4.52-17.043,4.951-25.878s.777-17.9,4.171-26.066c1.18-2.838,2.752-5.761,2.28-8.8s-3.1-5.06-6-4.034c-6.034,2.137-10.407,7.5-13.242,13.241s-4.43,12.005-6.857,17.929c-.182.444-.372.886-.566,1.328L247.4,358.171c.05.2.1.391.15.587l-18.164-18.087A11.226,11.226,0,0,0,211.9,354.508a13.991,13.991,0,0,0-14.113,10.829,13.837,13.837,0,0,0-.3,4.237,13.893,13.893,0,0,0-10.58,21.983s45.237,45.716,52.737,52.382c4.118,6.632,8.516,13.411,13.15,20.219l33.679-33.82Q280.765,425.413,275.16,420.259Z" transform="translate(-184.332 -337.412)" fill="#ab6b3a"/>
              <rect id="Rectángulo_413458" data-name="Rectángulo 413458" width="30.536" height="61.073" transform="matrix(0.709, 0.706, -0.706, 0.709, 100.604, 82.716)" fill="#fff"/>
            </g>
            <path id="Trazado_1004072" data-name="Trazado 1004072" d="M257.628,383.991l-.84.666a9.651,9.651,0,0,1-13.519-1.557l-52.057-65.614a9.651,9.651,0,0,1,1.558-13.52l.84-.666a9.652,9.652,0,0,1,13.52,1.557l52.057,65.614A9.653,9.653,0,0,1,257.628,383.991Z" transform="translate(-184.278 -301.226)" fill="#ab6b3a"/>
          </g>
          <path id="Trazado_1004073" data-name="Trazado 1004073" d="M204.191,318.08h0a6.018,6.018,0,0,1-8.381-1.334l-1.23-1.7a6.018,6.018,0,0,1,1.333-8.381h0A6.018,6.018,0,0,1,204.293,308l1.23,1.7A6.017,6.017,0,0,1,204.191,318.08Z" transform="translate(-184.231 -301.178)" fill="none" stroke="#2d201b" stroke-linecap="round" stroke-linejoin="round" stroke-miterlimit="10" stroke-width="1.705"/>
          <path id="Trazado_1004074" data-name="Trazado 1004074" d="M386.854,500.826l-69.611-75.481L245.2,491.783l8.34,9.043Z" transform="translate(-183.658 -299.852)"/>
        </g>
        <path id="Trazado_1004075" data-name="Trazado 1004075" d="M291.516,347.335a5.737,5.737,0,0,0-4.243,2.127,12.544,12.544,0,0,0-2.237,4.323,13.315,13.315,0,0,0-.835,5.326,6.226,6.226,0,0,0,2.481,4.632" transform="translate(-183.226 -300.715)" fill="none" stroke="#2d201b" stroke-linecap="round" stroke-linejoin="round" stroke-miterlimit="10" stroke-width="1.498"/>
        <path id="Trazado_1004076" data-name="Trazado 1004076" d="M210.137,336.658a18.7,18.7,0,0,0-8.289,21.494c-3.592-.946-7.159,1.953-8.862,5.255-2.472,4.8-2.439,10.639-.646,15.727a33.678,33.678,0,0,0,9.012,13.323l25.633-25.633c-3.671-7.506-8.178-14.3-12.644-21.365C212.9,343.182,211.435,339.017,210.137,336.658Z" transform="translate(-184.257 -300.834)" fill="#ab6b3a"/>
        <path id="Trazado_1004077" data-name="Trazado 1004077" d="M220.9,358.374a17.93,17.93,0,0,0,2.248,17.334" transform="translate(-183.941 -300.593)" fill="none" stroke="#2d201b" stroke-linecap="round" stroke-linejoin="round" stroke-miterlimit="10" stroke-width="1.705"/>
        <path id="Trazado_1004078" data-name="Trazado 1004078" d="M201.4,355.4c.275,6.759,4.62,12.578,8.779,17.913" transform="translate(-184.143 -300.626)" fill="none" stroke="#2d201b" stroke-linecap="round" stroke-linejoin="round" stroke-miterlimit="10" stroke-width="1.705"/>
        <path id="Trazado_1004079" data-name="Trazado 1004079" d="M192.139,369.986a24.225,24.225,0,0,0,6.752,16.3" transform="translate(-184.245 -300.465)" fill="none" stroke="#2d201b" stroke-linecap="round" stroke-linejoin="round" stroke-miterlimit="10" stroke-width="1.705"/>
        <line id="Línea_1149" data-name="Línea 1149" x2="9.136" y2="12.378" transform="translate(23.282 37.692)" fill="none" stroke="#2d201b" stroke-linecap="round" stroke-linejoin="round" stroke-miterlimit="10" stroke-width="1.705"/>
      </g>
      <path id="Trazado_1004080" data-name="Trazado 1004080" d="M323.1,435.571c-12.158,18.588-10.344,45.167,4.225,61.933" transform="translate(3.222 4.436)" fill="none" stroke="#9797fb" stroke-linecap="round" stroke-linejoin="round" stroke-miterlimit="10" stroke-width="2.241"/>
      <path id="Trazado_1004081" data-name="Trazado 1004081" d="M137.925,224.684H37.174c-.712-10.8,7.976-22.18,18.6-24.27s22.264,4.681,25.7,14.946c2.9-4.873,10.494-6.257,16.044-5.087s10.222,5.059,13.516,9.677a16.255,16.255,0,0,1,9.424-5.2C126.773,213.928,133.164,220.445,137.925,224.684Z" transform="translate(0.146 1.829)" fill="#ffe1b9"/>
    </g>
  </g>
</svg>
