<svg xmlns="http://www.w3.org/2000/svg" xmlns:xlink="http://www.w3.org/1999/xlink" width="108" height="108" viewBox="0 0 108 108">
  <defs>
    <filter id="Trazado_904820" x="0" y="0" width="108" height="108" filterUnits="userSpaceOnUse">
      <feOffset dy="3" input="SourceAlpha"/>
      <feGaussianBlur stdDeviation="3" result="blur"/>
      <feFlood flood-opacity="0.161"/>
      <feComposite operator="in" in2="blur"/>
      <feComposite in="SourceGraphic"/>
    </filter>
  </defs>
  <g id="Grupo_1167017" data-name="Grupo 1167017" transform="translate(-193 -6217)">
    <g id="Grupo_1163237" data-name="Grupo 1163237" transform="translate(-412 5365)">
      <g id="Grupo_1163009" data-name="Grupo 1163009" transform="translate(0 -296)">
        <g id="Grupo_1160503" data-name="Grupo 1160503" transform="translate(401 -5301)">
          <g id="Icono" transform="translate(213 6455)">
            <g transform="matrix(1, 0, 0, 1, -9, -6)" filter="url(#Trazado_904820)">
              <g id="Trazado_904820-2" data-name="Trazado 904820" transform="translate(9 6)" fill="#f2f7e5">
                <path d="M 45 88.5 C 39.12687683105469 88.5 33.43022537231445 87.35007476806641 28.06830024719238 85.08217620849609 C 22.88852500915527 82.89131164550781 18.23629951477051 79.75458526611328 14.2408504486084 75.75914764404297 C 10.24541282653809 71.76370239257812 7.108687400817871 67.11147308349609 4.917825222015381 61.93170166015625 C 2.649924993515015 56.56977462768555 1.5 50.87312316894531 1.5 45 C 1.5 39.12687683105469 2.649924993515015 33.43022537231445 4.917825222015381 28.06830024719238 C 7.108687400817871 22.88852500915527 10.24541282653809 18.23629951477051 14.2408504486084 14.2408504486084 C 18.23629951477051 10.24541282653809 22.88852500915527 7.108687400817871 28.06830024719238 4.917825222015381 C 33.43022537231445 2.649924993515015 39.12687683105469 1.5 45 1.5 C 50.87312316894531 1.5 56.56977462768555 2.649924993515015 61.93170166015625 4.917825222015381 C 67.11147308349609 7.108687400817871 71.76370239257812 10.24541282653809 75.75914764404297 14.2408504486084 C 79.75458526611328 18.23629951477051 82.89131164550781 22.88852500915527 85.08217620849609 28.06830024719238 C 87.35007476806641 33.43022537231445 88.5 39.12687683105469 88.5 45 C 88.5 50.87312316894531 87.35007476806641 56.56977462768555 85.08217620849609 61.93170166015625 C 82.89131164550781 67.11147308349609 79.75458526611328 71.76370239257812 75.75914764404297 75.75914764404297 C 71.76370239257812 79.75458526611328 67.11147308349609 82.89131164550781 61.93170166015625 85.08217620849609 C 56.56977462768555 87.35007476806641 50.87312316894531 88.5 45 88.5 Z" stroke="none"/>
                <path d="M 45 3 C 39.32871246337891 3 33.82865524291992 4.110054016113281 28.65262985229492 6.299339294433594 C 23.65165710449219 8.414573669433594 19.15968322753906 11.44334411621094 15.301513671875 15.301513671875 C 11.44334411621094 19.15968322753906 8.414573669433594 23.65165710449219 6.299339294433594 28.65262985229492 C 4.110054016113281 33.82865524291992 3 39.32871246337891 3 45 C 3 50.67128753662109 4.110054016113281 56.17134475708008 6.299339294433594 61.34737396240234 C 8.414573669433594 66.34834289550781 11.44334411621094 70.84031677246094 15.301513671875 74.698486328125 C 19.15968322753906 78.55665588378906 23.65165710449219 81.58542633056641 28.65262985229492 83.70066070556641 C 33.82865524291992 85.88994598388672 39.32871246337891 87 45 87 C 50.67128753662109 87 56.17134475708008 85.88994598388672 61.34737396240234 83.70066070556641 C 66.34834289550781 81.58542633056641 70.84031677246094 78.55665588378906 74.698486328125 74.698486328125 C 78.55665588378906 70.84031677246094 81.58542633056641 66.34834289550781 83.70066070556641 61.34737396240234 C 85.88994598388672 56.17134475708008 87 50.67128753662109 87 45 C 87 39.32871246337891 85.88994598388672 33.82865524291992 83.70066070556641 28.65262985229492 C 81.58542633056641 23.65165710449219 78.55665588378906 19.15968322753906 74.698486328125 15.301513671875 C 70.84031677246094 11.44334411621094 66.34834289550781 8.414573669433594 61.34737396240234 6.299339294433594 C 56.17134475708008 4.110054016113281 50.67128753662109 3 45 3 M 45 0 C 69.85281372070312 0 90 20.14718627929688 90 45 C 90 69.85281372070312 69.85281372070312 90 45 90 C 20.14718627929688 90 0 69.85281372070312 0 45 C 0 20.14718627929688 20.14718627929688 0 45 0 Z" stroke="none" fill="#496406"/>
              </g>
            </g>
          </g>
        </g>
      </g>
    </g>
    <g id="innovacion_4_" data-name="innovacion (4)" transform="translate(216 6229.823)">
      <g id="Grupo_1167015" data-name="Grupo 1167015" transform="translate(0.92 9.097)">
        <path id="Trazado_1003961" data-name="Trazado 1003961" d="M50.658,60.655l2.336-.24,3.754-1.04,5.833-4.118,3.767-6.5.324-7.586L63.6,34.356,60.06,30.6l-3.3-2.3-4.741-.883-1-.147-1.014.039a16.71,16.71,0,0,0-9.919,4.6.624.624,0,0,1-1.058-.453v-.017a15.765,15.765,0,1,0-20.917,14.9.847.847,0,0,1,.211,1.5A14.7,14.7,0,1,0,41.379,59.928V59.9a1.444,1.444,0,0,1,2.147-1.275,16.634,16.634,0,0,0,6.484,2.045Z" transform="translate(-7.501 -15.678)" fill="#a2dbff"/>
        <g id="Grupo_1167012" data-name="Grupo 1167012" transform="translate(42.507 11.553)">
          <path id="Trazado_1003962" data-name="Trazado 1003962" d="M372.528,126.154a16.764,16.764,0,0,0-18.441-16.191,16.76,16.76,0,0,1,0,33.351,16.763,16.763,0,0,0,18.44-17.16Z" transform="translate(-354.087 -109.879)" fill="#64caff"/>
        </g>
        <path id="Trazado_1003963" data-name="Trazado 1003963" d="M273.038,169.971l.6-.013,1.444-.157,2.386-.539,2.9-2.218,3.758-2.9,1.5-5.619s-.46-4.611-.432-4.776c-.142-.291-2.047-5.049-2.047-5.049l-4.834-3.3-2.506-.759-2-.165h-.768a12.82,12.82,0,0,0,0,25.494Z" transform="translate(-230.419 -128.68)" fill="#ffe270"/>
        <path id="Trazado_1003964" data-name="Trazado 1003964" d="M356.356,143.89a12.977,12.977,0,0,0-1.362.072,12.82,12.82,0,0,1,0,25.494,12.974,12.974,0,0,0,1.362.072,12.819,12.819,0,0,0,0-25.638Z" transform="translate(-312.375 -128.165)" fill="#ffd250"/>
        <path id="Trazado_1003965" data-name="Trazado 1003965" d="M303.32,196.37l.855-.015s1.773-.283,1.789-.283,2.638-1.155,2.638-1.155l2.385-3.221,1.083-3.855-.9-3.855-2.631-3.061-3.015-1.233-1.131-.235H303.32a8.576,8.576,0,0,0,0,16.914Z" transform="translate(-260.763 -159.369)" fill="#ffab56"/>
        <path id="Trazado_1003966" data-name="Trazado 1003966" d="M355.911,178.478a8.623,8.623,0,0,0-1.424.12,8.576,8.576,0,0,1,0,16.914,8.577,8.577,0,1,0,1.424-17.034Z" transform="translate(-311.931 -158.511)" fill="#ff982a"/>
        <path id="Trazado_1003967" data-name="Trazado 1003967" d="M52.566,75.752l4.016-.783,3.468-2.781,3.45-5.86-1.4-7.48-3.025-3.592-4.125-2.39-2.228-.393H51.27a11.84,11.84,0,0,0,0,23.357Z" transform="translate(-37.228 -47.96)" fill="#ffe270"/>
        <path id="Trazado_1003968" data-name="Trazado 1003968" d="M123.949,51.159A11.923,11.923,0,0,0,122,51.32a11.84,11.84,0,0,1,0,23.356,11.84,11.84,0,1,0,1.952-23.518Z" transform="translate(-107.954 -46.807)" fill="#ffd250"/>
        <g id="Grupo_1167014" data-name="Grupo 1167014" transform="translate(7.988 12.187)">
          <path id="Trazado_1003969" data-name="Trazado 1003969" d="M84.532,120.833c-.061-.061-2.289-2.127-2.289-2.127v-2.653l.549-1h.9a5.383,5.383,0,0,1,5.383,5.383v.842l-1.238.713S84.592,120.893,84.532,120.833Z" transform="translate(-81.064 -115.05)" fill="#6ce79a"/>
          <path id="Trazado_1003970" data-name="Trazado 1003970" d="M73.36,115.049h1v.842a5.383,5.383,0,0,0,5.383,5.383h.9v1.053a.73.73,0,0,1-.73.73H78.013a5.383,5.383,0,0,1-5.383-5.383v-1.894A.73.73,0,0,1,73.36,115.049Z" transform="translate(-72.63 -115.049)" fill="#00d8a2"/>
          <g id="Grupo_1167013" data-name="Grupo 1167013" transform="translate(8.007 0)">
            <path id="Trazado_1003971" data-name="Trazado 1003971" d="M142.454,120.833c.061-.061,2.289-2.127,2.289-2.127v-2.653l-.549-1h-.9a5.383,5.383,0,0,0-5.383,5.383v.842l1.238.713S142.394,120.893,142.454,120.833Z" transform="translate(-137.915 -115.05)" fill="#6ce79a"/>
            <path id="Trazado_1003972" data-name="Trazado 1003972" d="M145.192,115.05h-1v.842a5.383,5.383,0,0,1-5.383,5.383h-.9v1.053a.73.73,0,0,0,.73.73h1.894a5.383,5.383,0,0,0,5.383-5.383V115.78A.73.73,0,0,0,145.192,115.05Z" transform="translate(-137.915 -115.05)" fill="#00d8a2"/>
          </g>
        </g>
        <path id="Trazado_1003973" data-name="Trazado 1003973" d="M83.98,308.948l1.528.192,2.893.356,4.384-2.334,3.842-3.984,1.081-5.132-1.793-4.573L93.1,290.1l-1.814-1.174-1.6-.48a10.79,10.79,0,0,0-6.5,20.275Z" transform="translate(-68.767 -254.892)" fill="#6ce79a"/>
        <path id="Trazado_1003974" data-name="Trazado 1003974" d="M131.64,289.268a10.79,10.79,0,0,1-6.495,20.275,10.79,10.79,0,1,0,6.495-20.275Z" transform="translate(-110.716 -255.713)" fill="#00d8a2"/>
      </g>
      <g id="Grupo_1167016" data-name="Grupo 1167016" transform="translate(0 8.177)">
        <path id="Trazado_1003975" data-name="Trazado 1003975" d="M267.818,163.868a13.739,13.739,0,1,0-13.739-13.739A13.754,13.754,0,0,0,267.818,163.868Zm0-25.638a11.9,11.9,0,1,1-11.9,11.9A11.913,11.913,0,0,1,267.818,138.23Z" transform="translate(-222.917 -120.665)"/>
        <path id="Trazado_1003976" data-name="Trazado 1003976" d="M344.717,209.669a2.071,2.071,0,0,1-1.5-.392.92.92,0,1,0-1.007,1.54,3.656,3.656,0,0,0,1.6.647v.238a.92.92,0,1,0,1.84,0v-.334a3.075,3.075,0,0,0,2.069-2.4,2.718,2.718,0,0,0-1.845-3.077,7.534,7.534,0,0,1-1.9-.879.529.529,0,0,1-.1-.488.755.755,0,0,1,.492-.6,3.265,3.265,0,0,1,1.856,0,.92.92,0,0,0,.646-1.722,4.5,4.5,0,0,0-1.219-.243v-.06a.92.92,0,1,0-1.84,0v.269a2.578,2.578,0,0,0-1.743,2.009,2.312,2.312,0,0,0,.772,2.276,8.8,8.8,0,0,0,2.42,1.166.875.875,0,0,1,.645,1.037A1.189,1.189,0,0,1,344.717,209.669Z" transform="translate(-299.871 -177.341)"/>
        <path id="Trazado_1003977" data-name="Trazado 1003977" d="M298.3,189.944a9.5,9.5,0,1,0-9.494-10.069.92.92,0,0,0,1.836.113,7.668,7.668,0,1,1,.488,3.189.92.92,0,0,0-1.718.658,9.483,9.483,0,0,0,8.888,6.109Z" transform="translate(-253.384 -150.985)"/>
        <path id="Trazado_1003978" data-name="Trazado 1003978" d="M59.4,56.418A12.759,12.759,0,1,0,46.642,69.177,12.774,12.774,0,0,0,59.4,56.418ZM46.642,67.338a10.919,10.919,0,1,1,10.92-10.92A10.932,10.932,0,0,1,46.642,67.338Z" transform="translate(-29.727 -39.307)"/>
        <path id="Trazado_1003979" data-name="Trazado 1003979" d="M81.335,107.549H79.441a6.331,6.331,0,0,0-1.473.175.92.92,0,0,0,.429,1.789,4.491,4.491,0,0,1,1.045-.124h1.7v1.7a4.468,4.468,0,0,1-4.463,4.463h-1.7v-1.7a4.422,4.422,0,0,1,.906-2.695.92.92,0,1,0-1.465-1.112,6.388,6.388,0,0,0-.361.529,6.305,6.305,0,0,0-5.382-3.025H66.781a1.651,1.651,0,0,0-1.65,1.649v1.894a6.31,6.31,0,0,0,6.3,6.3h1.894a1.64,1.64,0,0,0,.73-.17,1.64,1.64,0,0,0,.73.17h1.894a6.31,6.31,0,0,0,6.3-6.3V109.2a1.652,1.652,0,0,0-1.65-1.649Zm-14.364,3.544v-1.7h1.7a4.468,4.468,0,0,1,4.463,4.463v1.7h-1.7a4.468,4.468,0,0,1-4.463-4.463Z" transform="translate(-57.143 -95.361)"/>
        <path id="Trazado_1003980" data-name="Trazado 1003980" d="M69.832,292.543a11.71,11.71,0,1,0,11.711-11.711A11.724,11.724,0,0,0,69.832,292.543Zm11.711-9.871a9.871,9.871,0,1,1-9.871,9.871A9.882,9.882,0,0,1,81.542,282.672Z" transform="translate(-61.267 -247.392)"/>
        <path id="Trazado_1003981" data-name="Trazado 1003981" d="M121.691,367.7l-.866.653a.92.92,0,1,0,1.109,1.468l2.8-2.113a.92.92,0,0,0,.2-1.258l-1.824-2.629a.92.92,0,0,0-1.512,1.048l.751,1.082a4.389,4.389,0,0,1-3.7-4.51.92.92,0,0,0-.882-.956h-.037a.92.92,0,0,0-.918.883,6.233,6.233,0,0,0,4.88,6.331Z" transform="translate(-102.48 -317.276)"/>
        <path id="Trazado_1003982" data-name="Trazado 1003982" d="M142.458,320.894a.92.92,0,1,0,1.336-1.264l-.9-.957a4.4,4.4,0,0,1,4.337,3.9.92.92,0,1,0,1.828-.2,6.232,6.232,0,0,0-5.778-5.524l.757-.776a.92.92,0,0,0-1.317-1.284l-2.448,2.51a.92.92,0,0,0-.01,1.274Z" transform="translate(-122.836 -276.937)"/>
        <path id="Trazado_1003983" data-name="Trazado 1003983" d="M62.787,36.9a17.671,17.671,0,0,0-29.43-12.682A16.7,16.7,0,0,0,16.686,8.177h-.132A16.732,16.732,0,0,0,0,25.037,16.731,16.731,0,0,0,11.1,40.585,15.636,15.636,0,0,0,4.59,51.5a.92.92,0,1,0,1.827.217,13.8,13.8,0,0,1,5.851-9.7,1.767,1.767,0,0,0-.434-3.122,14.821,14.821,0,0,1-5.725-24.42,14.732,14.732,0,0,1,10.46-4.455h.117A14.863,14.863,0,0,1,31.53,24.862v.016A1.544,1.544,0,0,0,34.145,26a15.838,15.838,0,1,1,3.249,25.243,2.364,2.364,0,0,0-3.516,2.078v.031a13.8,13.8,0,0,1-14.33,13.769A13.9,13.9,0,0,1,6.431,55.108a.92.92,0,0,0-1.825.235,15.666,15.666,0,0,0,14.87,13.612q.316.012.629.012a15.636,15.636,0,0,0,15.612-15.62v-.033a.529.529,0,0,1,.264-.467.5.5,0,0,1,.513,0A17.686,17.686,0,0,0,62.787,36.9Z" transform="translate(0 -8.177)"/>
        <path id="Trazado_1003984" data-name="Trazado 1003984" d="M289.551,45.249H291V46.7a.92.92,0,1,0,1.84,0v-1.45h1.45a.92.92,0,0,0,0-1.84h-1.45V41.96a.92.92,0,0,0-1.84,0v1.45h-1.45a.92.92,0,1,0,0,1.84Z" transform="translate(-253.231 -37.009)"/>
        <path id="Trazado_1003985" data-name="Trazado 1003985" d="M344.544,406.17h-1.45v-1.45a.92.92,0,0,0-1.84,0v1.45H339.8a.92.92,0,0,0,0,1.84h1.45v1.45a.92.92,0,0,0,1.84,0v-1.45h1.45a.92.92,0,0,0,0-1.84Z" transform="translate(-297.322 -355.278)"/>
        <path id="Trazado_1003986" data-name="Trazado 1003986" d="M9.852,263.668v-1.45H11.3a.92.92,0,0,0,0-1.84H9.852v-1.45a.92.92,0,1,0-1.84,0v1.45H6.563a.92.92,0,0,0,0,1.84h1.45v1.45a.92.92,0,1,0,1.84,0Z" transform="translate(-4.951 -227.368)"/>
      </g>
    </g>
  </g>
</svg>
