<svg xmlns="http://www.w3.org/2000/svg" xmlns:xlink="http://www.w3.org/1999/xlink" width="113" height="113" viewBox="0 0 113 113">
  <defs>
    <filter id="Trazado_982547" x="0" y="0" width="113" height="113" filterUnits="userSpaceOnUse">
      <feOffset dy="3" input="SourceAlpha"/>
      <feGaussianBlur stdDeviation="3" result="blur"/>
      <feFlood flood-opacity="0.161"/>
      <feComposite operator="in" in2="blur"/>
      <feComposite in="SourceGraphic"/>
    </filter>
  </defs>
  <g id="Grupo_1166845" data-name="Grupo 1166845" transform="translate(-614 -826)">
    <g id="Grupo_1166720" data-name="Grupo 1166720" transform="translate(289.105 -2431)">
      <g id="Grupo_1164305" data-name="Grupo 1164305" transform="translate(333.895 3263)">
        <g id="Grupo_1163948" data-name="Grupo 1163948" transform="translate(0)">
          <g id="Grupo_1158168" data-name="Grupo 1158168" transform="translate(0)">
            <g id="Grupo_1152576" data-name="Grupo 1152576">
              <g id="Grupo_1148633" data-name="Grupo 1148633">
                <g id="Grupo_1148525" data-name="Grupo 1148525">
                  <g transform="matrix(1, 0, 0, 1, -9, -6)" filter="url(#Trazado_982547)">
                    <g id="Trazado_982547-2" data-name="Trazado 982547" transform="translate(9 6)" fill="#f2f7e5">
                      <path d="M 47.5 93.5 C 41.28937149047852 93.5 35.26533508300781 92.28397369384766 29.59518623352051 89.88570404052734 C 24.11771965026855 87.56893157958984 19.19813346862793 84.25196075439453 14.97309303283691 80.02691650390625 C 10.74804019927979 75.80186462402344 7.431066513061523 70.88229370117188 5.114293098449707 65.40481567382812 C 2.716026782989502 59.73468017578125 1.5 53.71062850952148 1.5 47.5 C 1.5 41.28937149047852 2.716026782989502 35.26533508300781 5.114293098449707 29.59518623352051 C 7.431066513061523 24.11771965026855 10.74804019927979 19.19813346862793 14.97309303283691 14.97309303283691 C 19.19813346862793 10.74804019927979 24.11771965026855 7.431066513061523 29.59518623352051 5.114293098449707 C 35.26533508300781 2.716026782989502 41.28937149047852 1.5 47.5 1.5 C 53.71062850952148 1.5 59.73468017578125 2.716026782989502 65.40481567382812 5.114293098449707 C 70.88229370117188 7.431066513061523 75.80186462402344 10.74804019927979 80.02691650390625 14.97309303283691 C 84.25196075439453 19.19813346862793 87.56893157958984 24.11771965026855 89.88570404052734 29.59518623352051 C 92.28397369384766 35.26533508300781 93.5 41.28937149047852 93.5 47.5 C 93.5 53.71062850952148 92.28397369384766 59.73468017578125 89.88570404052734 65.40481567382812 C 87.56893157958984 70.88229370117188 84.25196075439453 75.80186462402344 80.02691650390625 80.02691650390625 C 75.80186462402344 84.25196075439453 70.88229370117188 87.56893157958984 65.40481567382812 89.88570404052734 C 59.73468017578125 92.28397369384766 53.71062850952148 93.5 47.5 93.5 Z" stroke="none"/>
                      <path d="M 47.5 3 C 41.49121475219727 3 35.66376876831055 4.176155090332031 30.17950439453125 6.495796203613281 C 24.88084411621094 8.736953735351562 20.12152099609375 11.94598388671875 16.03375244140625 16.03375244140625 C 11.94598388671875 20.12152099609375 8.736953735351562 24.88084411621094 6.495796203613281 30.17950439453125 C 4.176155090332031 35.66376876831055 3 41.49121475219727 3 47.5 C 3 53.50878524780273 4.176155090332031 59.33623123168945 6.495796203613281 64.82049560546875 C 8.736953735351562 70.11915588378906 11.94598388671875 74.87847900390625 16.03375244140625 78.96624755859375 C 20.12152099609375 83.05401611328125 24.88084411621094 86.26304626464844 30.17950439453125 88.50419616699219 C 35.66376876831055 90.82384490966797 41.49121475219727 92 47.5 92 C 53.50878524780273 92 59.33623123168945 90.82384490966797 64.82049560546875 88.50419616699219 C 70.11915588378906 86.26304626464844 74.87847900390625 83.05401611328125 78.96624755859375 78.96624755859375 C 83.05401611328125 74.87847900390625 86.26304626464844 70.11915588378906 88.50419616699219 64.82049560546875 C 90.82384490966797 59.33623123168945 92 53.50878524780273 92 47.5 C 92 41.49121475219727 90.82384490966797 35.66376876831055 88.50419616699219 30.17950439453125 C 86.26304626464844 24.88084411621094 83.05401611328125 20.12152099609375 78.96624755859375 16.03375244140625 C 74.87847900390625 11.94598388671875 70.11915588378906 8.736953735351562 64.82049560546875 6.495796203613281 C 59.33623123168945 4.176155090332031 53.50878524780273 3 47.5 3 M 47.5 0 C 73.7335205078125 0 95 21.2664794921875 95 47.5 C 95 73.7335205078125 73.7335205078125 95 47.5 95 C 21.2664794921875 95 0 73.7335205078125 0 47.5 C 0 21.2664794921875 21.2664794921875 0 47.5 0 Z" stroke="none" fill="#86b60c"/>
                    </g>
                  </g>
                </g>
              </g>
            </g>
          </g>
        </g>
      </g>
    </g>
    <g id="Layer_32" data-name="Layer 32" transform="translate(635 845)">
      <circle id="Elipse_11732" data-name="Elipse 11732" cx="13" cy="13" r="13" transform="translate(21.793 19.793)" fill="#e2e7f6"/>
      <path id="Trazado_1003401" data-name="Trazado 1003401" d="M44.056,30.028a13.1,13.1,0,0,0-6.2-11.133A13.108,13.108,0,0,0,26.2,42.255,13.1,13.1,0,0,0,44.056,30.028Z" transform="translate(1.775 1.588)" fill="#f2f2f2"/>
      <path id="Trazado_1003402" data-name="Trazado 1003402" d="M11.748,31.727A22.962,22.962,0,0,1,34.505,11.841v3.28l6.561-6.561L34.505,2V5.28A29.523,29.523,0,0,0,5.186,31.322v0l3.077-3.077Z" transform="translate(0.391 0.093)" fill="#4d8c28"/>
      <path id="Trazado_1003403" data-name="Trazado 1003403" d="M31.727,55.318,28.242,58.8l3.077,3.077h0A29.523,29.523,0,0,1,5.28,32.561H2L8.561,26l6.561,6.561h-3.28A22.963,22.963,0,0,0,31.729,55.318Z" transform="translate(0.093 2.336)" fill="#559b2d"/>
      <path id="Trazado_1003404" data-name="Trazado 1003404" d="M61.88,35.221,58.8,38.3l-3.485-3.485h0A22.962,22.962,0,0,1,32.561,54.7v-3.28L26,57.979l6.561,6.561V61.26A29.523,29.523,0,0,0,61.88,35.218Z" transform="translate(2.336 3.159)" fill="#6bc13b"/>
      <path id="Trazado_1003405" data-name="Trazado 1003405" d="M35.221,5.186,38.3,8.263l-3.485,3.485h0A22.962,22.962,0,0,1,54.7,34.505h-3.28l6.561,6.561,6.561-6.561H61.26A29.523,29.523,0,0,0,35.218,5.186Z" transform="translate(3.159 0.391)" fill="#7bdf45"/>
      <path id="Trazado_1003406" data-name="Trazado 1003406" d="M30.418,54.079,33.494,51v3.28a22.913,22.913,0,0,0,17.48-8.071h0a5.44,5.44,0,0,0-6.484-4.947,5.5,5.5,0,0,0-2.665-1.994l.015-.012a13.121,13.121,0,0,1-16.678.012h0a5.5,5.5,0,0,0-2.664,2,5.44,5.44,0,0,0-6.484,4.947h0a22.923,22.923,0,0,0,14.4,7.866Z" transform="translate(1.403 3.575)" fill="#976947"/>
      <path id="Trazado_1003407" data-name="Trazado 1003407" d="M24,26h0a8.747,8.747,0,0,1,8.747,8.747v4.374h0A8.747,8.747,0,0,1,24,30.374Z" transform="translate(2.149 2.336)" fill="#559b2d"/>
      <path id="Trazado_1003408" data-name="Trazado 1003408" d="M8.747,0h0V4.374A8.747,8.747,0,0,1,0,13.121H0V8.747A8.747,8.747,0,0,1,8.747,0Z" transform="translate(43.644 41.457) rotate(180)" fill="#6bc13b"/>
      <path id="Trazado_1003409" data-name="Trazado 1003409" d="M68.709,34.477A1.093,1.093,0,0,0,67.7,33.8H65.493a30.6,30.6,0,0,0-26.6-29.258L35.669,1.32a1.093,1.093,0,0,0-1.866.773V4.3A30.6,30.6,0,0,0,4.545,30.9L1.32,34.123a1.093,1.093,0,0,0,.773,1.866H4.3A30.6,30.6,0,0,0,30.9,65.248l3.225,3.225a1.093,1.093,0,0,0,.773.32,1.079,1.079,0,0,0,.419-.083,1.093,1.093,0,0,0,.675-1.01V65.493a30.6,30.6,0,0,0,29.258-26.6l3.225-3.225A1.093,1.093,0,0,0,68.709,34.477Zm-5.384.419a1.093,1.093,0,0,0,1.093,1.093h.641l-3.921,3.921L57.217,35.99h.641A1.093,1.093,0,0,0,58.952,34.9,24.133,24.133,0,0,0,40.22,11.437l2.01-2.01a1.093,1.093,0,0,0,0-1.546l-.608-.608A28.42,28.42,0,0,1,63.325,34.9ZM35.315,53.568a1.093,1.093,0,0,0-1.192.237L31.45,56.477a21.759,21.759,0,0,1-12.864-7.055A4.323,4.323,0,0,1,23.7,45.915a1.107,1.107,0,0,0,1.093-.437A4.4,4.4,0,0,1,26.424,44.1a14.105,14.105,0,0,0,16.948,0,4.4,4.4,0,0,1,1.64,1.382,1.1,1.1,0,0,0,1.093.437,4.325,4.325,0,0,1,5.112,3.511A21.9,21.9,0,0,1,35.99,56.737v-2.16a1.093,1.093,0,0,0-.675-1.01ZM34.9,44.737A12.028,12.028,0,1,1,46.924,32.709,12.028,12.028,0,0,1,34.9,44.737Zm17.932,2.624a6.517,6.517,0,0,0-6.477-3.693A6.594,6.594,0,0,0,45.1,42.575a14.215,14.215,0,1,0-20.423,0,6.594,6.594,0,0,0-1.247,1.093,6.511,6.511,0,0,0-6.473,3.683A21.789,21.789,0,0,1,13.055,35.99h2.16a1.093,1.093,0,0,0,.773-1.866L13.315,31.45A21.92,21.92,0,0,1,33.8,13.055v2.16a1.093,1.093,0,0,0,1.866.773l2.673-2.672A21.92,21.92,0,0,1,56.737,33.8h-2.16a1.093,1.093,0,0,0-.773,1.866l2.672,2.673A21.609,21.609,0,0,1,52.828,47.361ZM34.9,6.467A1.093,1.093,0,0,0,35.99,5.374V4.733l3.921,3.921L35.99,12.575v-.641A1.093,1.093,0,0,0,34.9,10.841,24.133,24.133,0,0,0,11.437,29.572l-2.01-2.01a1.093,1.093,0,0,0-1.546,0l-.608.608A28.42,28.42,0,0,1,34.9,6.467ZM6.467,34.9A1.093,1.093,0,0,0,5.374,33.8H4.733l3.921-3.921L12.575,33.8h-.641A1.093,1.093,0,0,0,10.841,34.9,24.133,24.133,0,0,0,29.572,58.356l-2.01,2.01a1.093,1.093,0,0,0,0,1.546l.608.608A28.42,28.42,0,0,1,6.467,34.9ZM34.9,63.325A1.093,1.093,0,0,0,33.8,64.419v.641l-3.921-3.921L33.8,57.217v.641A1.093,1.093,0,0,0,34.9,58.952,24.133,24.133,0,0,0,58.356,40.22l2.01,2.01a1.093,1.093,0,0,0,1.546,0l.608-.608A28.429,28.429,0,0,1,34.9,63.325Z" transform="translate(0 0)"/>
      <path id="Trazado_1003410" data-name="Trazado 1003410" d="M41.588,25a9.841,9.841,0,0,0-8.747,5.358A9.841,9.841,0,0,0,24.093,25,1.093,1.093,0,0,0,23,26.093v4.374a9.841,9.841,0,0,0,19.682,0V26.093A1.093,1.093,0,0,0,41.588,25Zm-16.4,5.467v-3.2a7.666,7.666,0,0,1,6.561,7.576v3.2a7.666,7.666,0,0,1-6.561-7.576Zm15.308,0a7.666,7.666,0,0,1-6.561,7.576v-3.2a7.666,7.666,0,0,1,6.561-7.576Z" transform="translate(2.055 2.242)"/>
    </g>
  </g>
</svg>
