<svg xmlns="http://www.w3.org/2000/svg" xmlns:xlink="http://www.w3.org/1999/xlink" width="505" height="286" viewBox="0 0 505 286">
  <defs>
    <clipPath id="clip-path">
      <rect id="Rect치ngulo_413464" data-name="Rect치ngulo 413464" width="505" height="286" transform="translate(180 1171)" fill="#fff" stroke="#707070" stroke-width="1"/>
    </clipPath>
  </defs>
  <g id="Enmascarar_grupo_1098776" data-name="Enmascarar grupo 1098776" transform="translate(-180 -1171)" clip-path="url(#clip-path)">
    <g id="Grupo_1167312" data-name="Grupo 1167312">
      <ellipse id="Elipse_11788" data-name="Elipse 11788" cx="163.5" cy="169" rx="163.5" ry="169" transform="translate(273 1145)" fill="#e2dacc"/>
      <g id="_10027682_1167" data-name="10027682_1167" transform="translate(233.405 1170.361)">
        <g id="Grupo_1167311" data-name="Grupo 1167311" transform="translate(0 0)">
          <rect id="Rect치ngulo_413463" data-name="Rect치ngulo 413463" width="48.73" height="48.73" transform="translate(-53.405 0)" fill="#d66969"/>
          <g id="Grupo_1167145" data-name="Grupo 1167145" transform="translate(-44.206 9.373)">
            <path id="Trazado_1004190" data-name="Trazado 1004190" d="M26.9,15.96v2.389H19.325v2.928h6.391v2.389H19.325v4.485H16.356V15.96Z" transform="translate(-16.356 -15.96)" fill="#fff9ed"/>
          </g>
          <g id="Grupo_1167146" data-name="Grupo 1167146" transform="translate(-28.152 9.375)">
            <path id="Trazado_1004191" data-name="Trazado 1004191" d="M35.3,28.152l-1.236-2.634H28.494l-1.238,2.634H24.1l5.746-12.191h2.874l5.746,12.191Zm-4.012-8.564L29.616,23.13h3.33Z" transform="translate(-24.098 -15.961)" fill="#fff9ed"/>
          </g>
          <g id="Grupo_1167147" data-name="Grupo 1167147" transform="translate(-44.233 27.167)">
            <path id="Trazado_1004192" data-name="Trazado 1004192" d="M27.134,28.587A3.584,3.584,0,0,1,24.6,32.371l3.368,4.361H24.316l-2.949-3.888H19.312v3.888H16.343V24.541h5.043a7.761,7.761,0,0,1,4.425.958A3.559,3.559,0,0,1,27.134,28.587Zm-3.577,1.447a1.754,1.754,0,0,0,.554-1.439,1.486,1.486,0,0,0-.57-1.352,3.93,3.93,0,0,0-2-.367H19.317v3.61h2.169A3.393,3.393,0,0,0,23.557,30.034Z" transform="translate(-16.343 -24.541)" fill="#fff9ed"/>
          </g>
          <g id="Grupo_1167148" data-name="Grupo 1167148" transform="translate(-27.076 27.167)">
            <path id="Trazado_1004193" data-name="Trazado 1004193" d="M34.823,28.263,32.08,32.869H30.309l-2.723-4.606v8.469H24.617V24.541h4.017L31.2,28.887,33.8,24.541h4V36.732H34.823V28.263Z" transform="translate(-24.617 -24.541)" fill="#fff9ed"/>
          </g>
          <path id="Trazado_1004194" data-name="Trazado 1004194" d="M438.769,91.376c-.838-3.018-5.617-4.56-8.181-5.9a144.03,144.03,0,0,1-13.174-7.6c-3.417-2.274-6.638-4.594-9.058-7.984-2.15-3.011-2.005-5.294.241-8.147,2.146-2.728,5.209-3.47,8.228-4.744,2.316-.976,4.5-2.181,6.75-3.2a9.852,9.852,0,0,0,5.145-6.872c.315-1.355,1.317-6.107-1.07-5.962-2.082,4.336-6.891,7.481-11.453,8.994-4.18,1.386-8.809,1.312-12.873,3.085a57.083,57.083,0,0,0-5.462,3c-.811.463-2.71,2.1-3.565,2.213-2.113.277-1.833-3.185-.939-4.51,1.827-2.707,5.358-3.781,8.263-4.611,3.326-.949,8.886-3.136,10.77-6.241a13.275,13.275,0,0,0,1.514-7.576c-.122-1.456-1.19-4.294-2.916-4.343-.552,1.579-.29,3.242-.912,4.8-.8,1.993-1.456,3.229-3.328,4.332-3.283,1.929-7.181,2.079-10.688,3.282-2.855.981-5.452,1.843-8.228,2.517a22.076,22.076,0,0,0-4.108,1.228c-1.883.879-2.428,2.454-3.919,3.667-2.3,1.868-7.135-.67-8.811,1.439-2.98-5.34-5.352-6.05-10.918-8.181-4.073-1.557-8.112-.9-12.17-1.369a1.4,1.4,0,0,0-1.52,1.678,19.16,19.16,0,0,0,4.462,8.252c1.07,1.162,6.8,4.844,4.668,5.945-1.221.63-6.076-.651-7.716.45-1.379.585-3.077,1.72-4.778,2.557-3.046.746-7.378,1.477-10.544,2.02-3.144.541-6.4-2.073-9.226-.7-1.622.1-3.181-1.152-4.265-1.448-1.686-.465-4.5-1.777-7.291-2.418-7.361-1.689-13.012-3.952-20.179-6.179-1.638-.509-9.118-.987-12.958-.993-2.611-.247-6.636-.292-7.119-.315-.614-.027-7.073.5-8.61.651-4.5.456-7.307.537-11.892.666-8.284.232-16.554,1.974-24.859,1.581-5.553-.262-11.129,1.391-16.72,1.705-5.912.334-8.689-.251-9.8.34-2.084.313-7.171,1.177-7.036,1.156-.9-.418-1.846.182-2.779.323a19.078,19.078,0,0,1-4.375-.146c-4.7-.4-9.36-.137-14.078-.661-4.832-.537-1.553-.091-6.381-.347-2.306-.123-3.963.423-6.223.18-.956-.1-1.9-.526-2.694-.089-3.471-.245-12.631,1.325-13.949,1.249-3.438-.2-7.395.011-10.627-.387-3.422-.421-6.636-1.792-10.02-1.555-2.694.188-5.4-.074-8.1,0-1.337.036-3.237-.118-4.861-.089-1.711-.243-4.715.285-6.536.188-.858-.888-4.066-.642-5.58-.924-4.1-.763-8.942-.587-13.336-.894-1.908-.133-9.723-2.092-11.635-1.623-1.769.433-3.4.076-5.082.292a55.461,55.461,0,0,1-6.144.592c-6.437.972-11.349,2.187-14.3,5.241a30.187,30.187,0,0,0-8.585,19.2c-.375,4.772-.174,13.521.039,18.185.473,5.008.811,11.184.91,16.363.245,12.593-1.449,25.714-1.663,36.646-.238,12.147,1.234,18.958-.7,29.4-.751,4.051-1.678,7.38-1.018,11.648.618,4,2.04,7.88,2.669,11.832.168-.528.56-.978.734-1.543.284,1.251.311,2.737.649,3.986a4.87,4.87,0,0,1,1.311-2.339c.72,1.164.533,3.094,1.549,4.093,2.343-4.873,3.764-9.41,2.378-14.8-.8-3.13-2.26-6.076-3.224-9.165-1-3.2-.6-6.167-.755-9.548-.608-13.483,1.18-26.832,1.18-40.332,0-6.591.3-13.221.713-19.753.3-4.662.809-11.319,1.928-15.883-.021-.008-.044-.008-.064-.017a16.086,16.086,0,0,0,1.4-4.055,35,35,0,0,1,6.237-6.069c.647,1.386,2.086,3.428,2.047,4.11a60.137,60.137,0,0,0,.574,12.006c.751,6.226,1.271,8.536,2.128,14.643.742,5.3,1.07,10.689,2.14,16.361,1.128,5.978,1.244,8.35,1.926,14.4.579,5.112-.149,12.384-1.095,17.38a12.5,12.5,0,0,0-.668,2.963,14.7,14.7,0,0,0-.253,2.331c-.166,2.547-.508,5.1-.512,7.678a20.3,20.3,0,0,1-.632,4.387c-.015.068-1.1,4.235-1.082,4.288-.5,2.906-1.572,6.224-1.812,7.263-1.3,5.623-.993,5.1-.643,10.962.141,2.344,1.163,13.026,1.719,15.3q.187.764.33,1.536a70.709,70.709,0,0,1,1.35,9.683c.056,1.336-.583,7.056.189,9.07-.023,0-.044-.011-.066-.011.809,3.69-.021,8.322-.514,11.936-.533,3.91-1.331,7.694-1.138,11.64,5.145,2.044,4.742,7.553,5.155,12.115.176,1.951-.216,5.323,2,5.9a24.539,24.539,0,0,0,7.992.2c2.115-.216,5.744-.505,7.187-2.365.829-1.069.164-3.905-.1-5.321-.892-4.9-3.952-13.952-3.739-18.967.143-3.337-.637-6.741-.2-10.049.251-1.906,1.35-4.007,1.491-5.985.873-2.3,1.673-4.336,2.181-4.738,1.076-.852,1.282-3.134,1.831-4.366.848-1.906,2-3.7,2.814-5.6A34.083,34.083,0,0,1,85.3,220.72,15.953,15.953,0,0,0,87,217.863a18.045,18.045,0,0,1,2.582-3.945c.977.626.62,4.182.977,5.249.635,1.9.724,5.332,1.232,7.282.384,1.467.075,2.644.622,4.058a9.46,9.46,0,0,1,.618,4.41c-.481.824.164,5.613.019,7.278-.174,2,1.85,4.053,1.79,6.063-.073,2.411-2.078,8.25-2.192,10.632-.064,1.34-.348,3.673.386,4.85s2.7.765,3.648,2.109a10.336,10.336,0,0,1,1.12,4.112c.23,1.758.643,3.453,1.026,5.186.535,2.418.973,2.189,3.312,2.363,2.188.161,4.265.539,6.5.524a39.176,39.176,0,0,0,7.017-.82c1.63-.313,1.686-1.238,1.57-2.855-.359-4.981-2.362-9.248-3.994-13.893-1.692-4.818-2.5-6.672-3.276-11.574-.44-2.775-1.163-4.383-1.143-6.446,0-.078,0-4.852,0-4.924a66.714,66.714,0,0,1,.143-10.009,84.048,84.048,0,0,1,1.4-11.181,14.582,14.582,0,0,0,.614-1.577c1.7-5.2,4.921-6.784,7.612-6.891,1.375-.063,1.354,2.462,2.542,3.39a3.574,3.574,0,0,0,1.458.44c.4-.072,1.381-.29,1.553-.661.693-1.494.021-2.035.713-3.529.272-.587.377-.879.744-1.122a30.886,30.886,0,0,0,2.882-1.3c.05-.021.085-.015.137-.04,1.4-.676,3.222,2.206,4.661,2.781a.97.97,0,0,0,.782.025,2.089,2.089,0,0,0,.958-1.158c.261-1.629-.462-2.722-.2-4.351.153-.962.068-1.175,1.085-1.866a1.387,1.387,0,0,0,.232-.239l.087-.063c2.833-2.077,5.661-4.326,7.482-7.358h0c3.224-4.074,6.791.116,7.782.416,3.855,1.169,8.84,2.549,12.763,3.426,4,.894,2.733,1.953,6.76,2.754.846.169,7.108,1.006,7.919,1.1.827.1,6.839,1.211,7.664,1.061.023,0,.033-.015.056-.019,2.58.626,13.091.6,14.4.752,8.377,1,19.963-4.4,28.361-4.531,6.634-.1,10.5.019,12.479-.412,3.4-.228,6.694,2.046,6.818,3.626,1.553,3.168,2.895,17.189,3.894,23.588.875,5.613-.651,6.659-.149,11.663-.353,1.57.44,2.648.019,3.918-.943,8.043-1.734,8.863-2.54,17.01-.259,2.625,1.134,4.738,2.1,7.05,1.114,2.673.688,5.213.958,8.153.16,1.756-.062,2.889,1.362,3.709,1.342.771,3.345.552,4.821.833,3.94.748,8.01,1.927,12.008.858,1.263-.338,3.106-.645,3.645-1.784.438-.926-.108-3.3-.182-4.265a49.152,49.152,0,0,0-2.6-12.745,24.375,24.375,0,0,1-1.452-12.333c.247-2.206-.423-2.1-.135-4.307.18-1.386,1.157-9.839,1.29-11.8a8.034,8.034,0,0,0,.18-1.456c.156-3.286.4-2.94.91-6.186.307-1.982-.589-9.332,2.638-8.225,1.445.5,6.642,5.6,7.162,6.97,1.022,2.7.854,1.593,1.557,4.419,1.294,5.192,4.662,9.67,5.4,15.009l.021,0c-.129,5.213.624,7.363.367,12.477-.143,2.817-1.055,5.7-1.3,8.508-.18,2.084-1.244,5.292-.767,7.24.379,1.551,2.206,1.524,3.455,2.272,1.649.987,1.628,2.17,2.142,4,.338,1.194.541,3.766,1.311,4.672,1.01,1.19,4.156,1.553,5.649,1.672,4.5.351,8.249-.425,12.516-1.517,1.957-.351-.794-7.454-1.783-9.882-2.045-5.021-4.116-7.289-3.824-12.908.176-3.4-.5-6.767-.605-10.182a44.179,44.179,0,0,0-.35-6.906,14.631,14.631,0,0,1,.172-4.47c.409-4.685-.066-9.425.4-14.1.419-4.193,1.311-3.257,1.362-7.466.044-3.5,4.736-7.532,7.486-9.719a1.462,1.462,0,0,0,.361-.427c2.453-1.619,6.146-1.932,8.224-3.388,1.561-1.095,2.416-3.926,4.176-4.827a8.374,8.374,0,0,0,3.32-2.62c2.275-2.866,3.1-5.387,5.7-10.526,2.14-4.216,4.431-12.462,7.351-16.238,2.254-2.914,3.326-8.443,4.133-10.433.336-.831,9.02-15.235,9.642-15.78,2.586-2.259,4.946-4.977,7.641-7.3.413-.355.749-.642,1.018-.907a.18.18,0,0,1,.033-.021,6.489,6.489,0,0,1,4.981-1.046,19.047,19.047,0,0,0,8.757-.672c3.187-1.086,6.851-2,9.785-3.474,1.8-.907,3.409-2.058,5.147-3.049.664-.378,1.462-.7,2.2-1.1.1-.055.2-.116.3-.182a5.034,5.034,0,0,0,.742-.547c1.236-.991,2.584-2.335,3.625-2.373,2.874-.106,6.08-2.077,9.008-2.675,4.006-.816,8.284-1.08,12.373-1.494,2.756-.279,7.513.486,9.441-1.705.823-.936,1.08-2.523,1.528-3.681.591-1.53,1.377-2.9,1.281-4.6a26.561,26.561,0,0,0,1.935-5.442A19.371,19.371,0,0,0,438.769,91.376Z" transform="translate(-26.59 2.277)" fill="#353d47"/>
          <g id="Grupo_1167309" data-name="Grupo 1167309" transform="translate(73.506 75.56)">
            <g id="Grupo_1167149" data-name="Grupo 1167149" transform="translate(42.399 108.681)">
              <path id="Trazado_1004195" data-name="Trazado 1004195" d="M68.473,100.325a.681.681,0,0,0,0-1.36.681.681,0,0,0,0,1.36Z" transform="translate(-67.815 -98.965)" fill="#ebded6"/>
            </g>
            <g id="Grupo_1167150" data-name="Grupo 1167150" transform="translate(44.424 130.66)">
              <path id="Trazado_1004196" data-name="Trazado 1004196" d="M69.191,110.391a.414.414,0,0,0,0-.827.414.414,0,0,0,0,.827Z" transform="translate(-68.791 -109.564)" fill="#ebded6"/>
            </g>
            <g id="Grupo_1167151" data-name="Grupo 1167151" transform="translate(148.973 105.936)">
              <path id="Trazado_1004197" data-name="Trazado 1004197" d="M119.609,98.468a.414.414,0,0,0,0-.827.414.414,0,0,0,0,.827Z" transform="translate(-119.21 -97.641)" fill="#ebded6"/>
            </g>
            <g id="Grupo_1167152" data-name="Grupo 1167152" transform="translate(95.63 78.55)">
              <path id="Trazado_1004198" data-name="Trazado 1004198" d="M95.457,86.144c.029-.143.06-.286.089-.429.328-1.566-2.167-1.74-2.057-.278.01.149.023.3.033.446.079,1.039,1.694,1.418,1.935.261Z" transform="translate(-93.485 -84.434)" fill="#ebded6"/>
            </g>
            <g id="Grupo_1167153" data-name="Grupo 1167153" transform="translate(159.247 11.343)">
              <path id="Trazado_1004199" data-name="Trazado 1004199" d="M124.751,53.239a.608.608,0,0,0,0-1.215.608.608,0,0,0,0,1.215Z" transform="translate(-124.164 -52.024)" fill="#ebded6"/>
            </g>
            <g id="Grupo_1167154" data-name="Grupo 1167154" transform="translate(175.03 22.252)">
              <path id="Trazado_1004200" data-name="Trazado 1004200" d="M132.256,58.28a.5.5,0,0,0,0-1,.5.5,0,0,0,0,1Z" transform="translate(-131.775 -57.285)" fill="#ebded6"/>
            </g>
            <g id="Grupo_1167155" data-name="Grupo 1167155" transform="translate(169.876 20.643)">
              <path id="Trazado_1004201" data-name="Trazado 1004201" d="M129.937,57.849a.67.67,0,0,0,0-1.34.67.67,0,0,0,0,1.34Z" transform="translate(-129.29 -56.509)" fill="#ebded6"/>
            </g>
            <g id="Grupo_1167156" data-name="Grupo 1167156" transform="translate(194.756 11.455)">
              <path id="Trazado_1004202" data-name="Trazado 1004202" d="M141.543,52.368l.037.006a.631.631,0,1,0,.769.1c-.006-.035-.012-.071-.017-.106-.081-.429-.668-.342-.79,0Z" transform="translate(-141.288 -52.078)" fill="#ebded6"/>
            </g>
            <g id="Grupo_1167157" data-name="Grupo 1167157" transform="translate(206.868 36.715)">
              <path id="Trazado_1004203" data-name="Trazado 1004203" d="M147.735,65.561l.446.041c.863.081.863-1.423,0-1.34l-.446.041a.629.629,0,0,0,0,1.257Z" transform="translate(-147.129 -64.259)" fill="#ebded6"/>
            </g>
            <g id="Grupo_1167158" data-name="Grupo 1167158" transform="translate(180.57 0.96)">
              <path id="Trazado_1004204" data-name="Trazado 1004204" d="M135.529,47.017a1.034,1.034,0,0,0-.91.384c-.475.45.129,1.147.672.871a1.021,1.021,0,0,0,.637-.732.417.417,0,0,0-.4-.523Z" transform="translate(-134.447 -47.017)" fill="#ebded6"/>
            </g>
            <g id="Grupo_1167159" data-name="Grupo 1167159" transform="translate(165.809 7.764)">
              <path id="Trazado_1004205" data-name="Trazado 1004205" d="M127.734,51.136a.419.419,0,0,0,0-.838.419.419,0,0,0,0,.838Z" transform="translate(-127.329 -50.298)" fill="#ebded6"/>
            </g>
            <g id="Grupo_1167160" data-name="Grupo 1167160" transform="translate(277.66 23.086)">
              <path id="Trazado_1004206" data-name="Trazado 1004206" d="M182.473,59.45l.5-.4c.792-.639-.473-1.9-1.111-1.111l-.4.5a.717.717,0,0,0,1.014,1.014Z" transform="translate(-181.268 -57.687)" fill="#ebded6"/>
            </g>
            <g id="Grupo_1167161" data-name="Grupo 1167161" transform="translate(257.633 23.754)">
              <path id="Trazado_1004207" data-name="Trazado 1004207" d="M172.57,58.083a1.222,1.222,0,0,0-.545-.071.43.43,0,0,0,0,.858,1.218,1.218,0,0,0,.545-.071.376.376,0,0,0,0-.717Z" transform="translate(-171.61 -58.009)" fill="#ebded6"/>
            </g>
            <g id="Grupo_1167162" data-name="Grupo 1167162" transform="translate(263.554 26.722)">
              <path id="Trazado_1004208" data-name="Trazado 1004208" d="M175.284,60.25c-.01-.149-.021-.3-.031-.446a.378.378,0,0,0-.755,0c-.01.149-.021.3-.031.446-.037.527.854.527.817,0Z" transform="translate(-174.465 -59.441)" fill="#ebded6"/>
            </g>
            <g id="Grupo_1167163" data-name="Grupo 1167163" transform="translate(258.055 29.937)">
              <path id="Trazado_1004209" data-name="Trazado 1004209" d="M172.264,61.924a.467.467,0,0,0,0-.933.467.467,0,0,0,0,.933Z" transform="translate(-171.814 -60.991)" fill="#ebded6"/>
            </g>
            <g id="Grupo_1167164" data-name="Grupo 1167164" transform="translate(7.471 75.241)">
              <path id="Trazado_1004210" data-name="Trazado 1004210" d="M52.11,84.1a2.1,2.1,0,0,0,.241-.375.608.608,0,0,0-1.049-.614,2.1,2.1,0,0,0-.241.375.608.608,0,0,0,1.049.614Z" transform="translate(-50.971 -82.838)" fill="#ebded6"/>
            </g>
            <g id="Grupo_1167165" data-name="Grupo 1167165" transform="translate(22.621 24.021)">
              <path id="Trazado_1004211" data-name="Trazado 1004211" d="M58.767,59.154a.508.508,0,0,0,0-1.016.508.508,0,0,0,0,1.016Z" transform="translate(-58.277 -58.138)" fill="#ebded6"/>
            </g>
            <g id="Grupo_1167166" data-name="Grupo 1167166" transform="translate(16.32 33.987)">
              <path id="Trazado_1004212" data-name="Trazado 1004212" d="M55.628,63.751a.4.4,0,0,0,0-.807.4.4,0,0,0,0,.807Z" transform="translate(-55.238 -62.944)" fill="#ebded6"/>
            </g>
            <g id="Grupo_1167167" data-name="Grupo 1167167" transform="translate(6.94 37.189)">
              <path id="Trazado_1004213" data-name="Trazado 1004213" d="M52.023,65.06c.056.027.037.021-.052-.019-.164-.091-.149,0,.044.265.133-.813-1.045-1.18-1.263-.348-.3,1.136,1.257,1.924,1.74.717a.488.488,0,0,0-.469-.616Z" transform="translate(-50.715 -64.488)" fill="#ebded6"/>
            </g>
            <g id="Grupo_1167168" data-name="Grupo 1167168" transform="translate(0.97 21.247)">
              <path id="Trazado_1004214" data-name="Trazado 1004214" d="M48.863,58.278l.274-.342c.622-.776-.626-1.619-1.037-.8-.066.133-.133.268-.2.4-.29.581.5,1.317.964.742Z" transform="translate(-47.836 -56.8)" fill="#ebded6"/>
            </g>
            <g id="Grupo_1167169" data-name="Grupo 1167169" transform="translate(6.325 16.689)">
              <path id="Trazado_1004215" data-name="Trazado 1004215" d="M51.206,54.938l-.114.044c.153.041.3.081.458.12.008.017.019.033.027.05a.559.559,0,0,0-1.035-.28c-.019.037-.037.075-.054.112a.589.589,0,0,0,.207.792.7.7,0,0,0,.937-.106c.255-.294.023-.906-.427-.732Z" transform="translate(-50.418 -54.602)" fill="#ebded6"/>
            </g>
            <g id="Grupo_1167170" data-name="Grupo 1167170" transform="translate(295.353 14.801)">
              <path id="Trazado_1004216" data-name="Trazado 1004216" d="M191.029,54.167c-.106-.1-.212-.207-.319-.311-.552-.539-1.308.379-.659.856l.357.261c.477.348,1.031-.409.622-.807Z" transform="translate(-189.8 -53.692)" fill="#ebded6"/>
            </g>
            <g id="Grupo_1167171" data-name="Grupo 1167171" transform="translate(293.444 50.837)">
              <path id="Trazado_1004217" data-name="Trazado 1004217" d="M189.436,72.221a.576.576,0,0,0,0-1.151.576.576,0,0,0,0,1.151Z" transform="translate(-188.88 -71.07)" fill="#ebded6"/>
            </g>
            <g id="Grupo_1167172" data-name="Grupo 1167172" transform="translate(183.358 23.764)">
              <path id="Trazado_1004218" data-name="Trazado 1004218" d="M136.348,59.167a.577.577,0,0,0,0-1.153.577.577,0,0,0,0,1.153Z" transform="translate(-135.791 -58.014)" fill="#ebded6"/>
            </g>
            <g id="Grupo_1167173" data-name="Grupo 1167173" transform="translate(300.768 46.8)">
              <path id="Trazado_1004219" data-name="Trazado 1004219" d="M192.964,70.263a.571.571,0,0,0,0-1.141.571.571,0,0,0,0,1.141Z" transform="translate(-192.412 -69.123)" fill="#ebded6"/>
            </g>
            <g id="Grupo_1167174" data-name="Grupo 1167174" transform="translate(251.647 105.88)">
              <path id="Trazado_1004220" data-name="Trazado 1004220" d="M168.851,97.892a1.08,1.08,0,0,0-.116.415.508.508,0,1,0,.989,0,1.08,1.08,0,0,0-.116-.415.4.4,0,0,0-.757,0Z" transform="translate(-168.723 -97.614)" fill="#ebded6"/>
            </g>
            <g id="Grupo_1167175" data-name="Grupo 1167175" transform="translate(337.833 41.79)">
              <path id="Trazado_1004221" data-name="Trazado 1004221" d="M210.676,67.514a.4.4,0,0,0,0-.807.4.4,0,0,0,0,.807Z" transform="translate(-210.286 -66.707)" fill="#ebded6"/>
            </g>
            <g id="Grupo_1167176" data-name="Grupo 1167176" transform="translate(157.019 92.729)">
              <path id="Trazado_1004222" data-name="Trazado 1004222" d="M123.642,92.413a.571.571,0,0,0,0-1.141.571.571,0,0,0,0,1.141Z" transform="translate(-123.09 -91.272)" fill="#ebded6"/>
            </g>
            <g id="Grupo_1167177" data-name="Grupo 1167177" transform="translate(159.854 103.817)">
              <path id="Trazado_1004223" data-name="Trazado 1004223" d="M124.872,97.477a.43.43,0,0,0,0-.858.43.43,0,0,0,0,.858Z" transform="translate(-124.457 -96.619)" fill="#ebded6"/>
            </g>
            <g id="Grupo_1167178" data-name="Grupo 1167178" transform="translate(162.659 90.705)">
              <path id="Trazado_1004224" data-name="Trazado 1004224" d="M126.3,91.3a.5.5,0,0,0,0-1.006.5.5,0,0,0,0,1.006Z" transform="translate(-125.81 -90.296)" fill="#ebded6"/>
            </g>
            <g id="Grupo_1167179" data-name="Grupo 1167179" transform="translate(120.562 116.678)">
              <path id="Trazado_1004225" data-name="Trazado 1004225" d="M106.9,103.457l-.427-.464c-.489-.533-1.325.3-.792.792.156.143.311.286.464.429a.535.535,0,0,0,.755-.757Z" transform="translate(-105.508 -102.821)" fill="#ebded6"/>
            </g>
            <g id="Grupo_1167180" data-name="Grupo 1167180" transform="translate(115.608 126.491)">
              <path id="Trazado_1004226" data-name="Trazado 1004226" d="M103.463,108.616a1.717,1.717,0,0,1,.419.1c.941.29.948-1.423,0-1.13a1.717,1.717,0,0,1-.419.1.484.484,0,0,0,0,.927Z" transform="translate(-103.119 -107.554)" fill="#ebded6"/>
            </g>
            <g id="Grupo_1167181" data-name="Grupo 1167181" transform="translate(121.823 125.289)">
              <path id="Trazado_1004227" data-name="Trazado 1004227" d="M107.21,106.974h-.446a.67.67,0,0,0,0,1.34h.446a.67.67,0,0,0,0-1.34Z" transform="translate(-106.117 -106.974)" fill="#ebded6"/>
            </g>
            <g id="Grupo_1167182" data-name="Grupo 1167182" transform="translate(205.677 123.504)">
              <path id="Trazado_1004228" data-name="Trazado 1004228" d="M147.086,107.212a.55.55,0,0,0,0-1.1.55.55,0,0,0,0,1.1Z" transform="translate(-146.554 -106.113)" fill="#ebded6"/>
            </g>
            <g id="Grupo_1167183" data-name="Grupo 1167183" transform="translate(197.915 141.013)">
              <path id="Trazado_1004229" data-name="Trazado 1004229" d="M143.731,114.574a1.39,1.39,0,0,0-.746.452.587.587,0,0,0,.829.829,1.407,1.407,0,0,0,.452-.747.438.438,0,0,0-.535-.535Z" transform="translate(-142.812 -114.557)" fill="#ebded6"/>
            </g>
            <g id="Grupo_1167184" data-name="Grupo 1167184" transform="translate(244.413 134.842)">
              <path id="Trazado_1004230" data-name="Trazado 1004230" d="M165.836,112.827a.624.624,0,0,0,0-1.246.624.624,0,0,0,0,1.246Z" transform="translate(-165.235 -111.581)" fill="#ebded6"/>
            </g>
            <g id="Grupo_1167185" data-name="Grupo 1167185" transform="translate(233.917 131.958)">
              <path id="Trazado_1004231" data-name="Trazado 1004231" d="M160.552,110.976a.393.393,0,0,0,0-.786.393.393,0,0,0,0,.786Z" transform="translate(-160.173 -110.19)" fill="#ebded6"/>
            </g>
            <g id="Grupo_1167186" data-name="Grupo 1167186" transform="translate(170.706 120.86)">
              <path id="Trazado_1004232" data-name="Trazado 1004232" d="M130.045,105.572a.367.367,0,0,0,0-.734.367.367,0,0,0,0,.734Z" transform="translate(-129.69 -104.838)" fill="#ebded6"/>
            </g>
            <g id="Grupo_1167187" data-name="Grupo 1167187" transform="translate(129.595 18.901)">
              <path id="Trazado_1004233" data-name="Trazado 1004233" d="M110.944,56.617c-.006-.149-.015-.3-.021-.448a.519.519,0,0,0-1.037,0c-.006.149-.015.3-.021.448-.031.693,1.111.695,1.078,0Z" transform="translate(-109.865 -55.669)" fill="#ebded6"/>
            </g>
            <g id="Grupo_1167188" data-name="Grupo 1167188" transform="translate(41.475 100.8)">
              <path id="Trazado_1004234" data-name="Trazado 1004234" d="M68.816,95.64l-.9-.435c-.415-.2-.78.4-.365.624.292.158.587.315.879.471.438.236.827-.446.386-.659Z" transform="translate(-67.369 -95.165)" fill="#ebded6"/>
            </g>
            <g id="Grupo_1167189" data-name="Grupo 1167189" transform="translate(24.598 119.698)">
              <path id="Trazado_1004235" data-name="Trazado 1004235" d="M60.538,104.44a1.04,1.04,0,0,0-.717-.151.613.613,0,0,0,0,1.226,1.04,1.04,0,0,0,.717-.151.54.54,0,0,0,0-.923Z" transform="translate(-59.23 -104.278)" fill="#ebded6"/>
            </g>
            <g id="Grupo_1167190" data-name="Grupo 1167190" transform="translate(16.979 100.757)">
              <path id="Trazado_1004236" data-name="Trazado 1004236" d="M58.08,96.961c-.247-.479-.516-.937-.8-1.4-.618-1.006-2.24-.019-1.564.914.359.5.72.979,1.114,1.445.608.72,1.642-.2,1.248-.964Z" transform="translate(-55.556 -95.143)" fill="#ebded6"/>
            </g>
            <g id="Grupo_1167191" data-name="Grupo 1167191" transform="translate(67.422 117.33)">
              <path id="Trazado_1004237" data-name="Trazado 1004237" d="M80.384,104.679a1.2,1.2,0,0,1,.413.122c1.323.518,1.331-2.117,0-1.6a1.2,1.2,0,0,1-.413.12.707.707,0,0,0,0,1.354Z" transform="translate(-79.882 -103.136)" fill="#ebded6"/>
            </g>
            <g id="Grupo_1167192" data-name="Grupo 1167192" transform="translate(52.689 124.615)">
              <path id="Trazado_1004238" data-name="Trazado 1004238" d="M73.318,107.769a.56.56,0,0,0,0-1.12.56.56,0,0,0,0,1.12Z" transform="translate(-72.777 -106.649)" fill="#ebded6"/>
            </g>
            <g id="Grupo_1167193" data-name="Grupo 1167193" transform="translate(54.214 132.481)">
              <path id="Trazado_1004239" data-name="Trazado 1004239" d="M74.123,110.448a1.282,1.282,0,0,0-.421.1.269.269,0,0,0,0,.514,1.221,1.221,0,0,0,.421.1.362.362,0,1,0,0-.705Z" transform="translate(-73.512 -110.442)" fill="#ebded6"/>
            </g>
            <g id="Grupo_1167194" data-name="Grupo 1167194" transform="translate(42.724 113.94)">
              <path id="Trazado_1004240" data-name="Trazado 1004240" d="M68.311,102.2a.351.351,0,0,0,0-.7.351.351,0,0,0,0,.7Z" transform="translate(-67.971 -101.501)" fill="#ebded6"/>
            </g>
            <g id="Grupo_1167195" data-name="Grupo 1167195" transform="translate(148.594 20.361)">
              <path id="Trazado_1004241" data-name="Trazado 1004241" d="M119.366,57.074a.351.351,0,0,0,0-.7.351.351,0,0,0,0,.7Z" transform="translate(-119.026 -56.373)" fill="#ebded6"/>
            </g>
            <g id="Grupo_1167196" data-name="Grupo 1167196" transform="translate(250.356 104.323)">
              <path id="Trazado_1004242" data-name="Trazado 1004242" d="M168.4,97.792a1.075,1.075,0,0,0,.417.112.529.529,0,1,0,0-1.031,1.049,1.049,0,0,0-.417.112.422.422,0,0,0,0,.807Z" transform="translate(-168.101 -96.863)" fill="#ebded6"/>
            </g>
            <g id="Grupo_1167197" data-name="Grupo 1167197" transform="translate(207.681 118.665)">
              <path id="Trazado_1004243" data-name="Trazado 1004243" d="M148.462,104.979a.929.929,0,0,0,.126-.817.538.538,0,0,0-1.031,0,.934.934,0,0,0,.126.817.458.458,0,0,0,.778,0Z" transform="translate(-147.521 -103.78)" fill="#ebded6"/>
            </g>
            <g id="Grupo_1167198" data-name="Grupo 1167198" transform="translate(163.444 119.698)">
              <path id="Trazado_1004244" data-name="Trazado 1004244" d="M127.382,106.163c-.01-.446-.021-.894-.031-1.34a.566.566,0,0,0-1.132,0l-.031,1.34a.6.6,0,0,0,1.194,0Z" transform="translate(-126.188 -104.278)" fill="#ebded6"/>
            </g>
            <g id="Grupo_1167199" data-name="Grupo 1167199" transform="translate(271.219 106.775)">
              <path id="Trazado_1004245" data-name="Trazado 1004245" d="M178.925,99.363c.16-.114.313-.23.469-.35.562-.438-.282-1.34-.8-.8-.106.106-.205.216-.3.33-.369.417.122,1.186.635.821Z" transform="translate(-178.162 -98.046)" fill="#ebded6"/>
            </g>
            <g id="Grupo_1167200" data-name="Grupo 1167200" transform="translate(308.941 48.126)">
              <path id="Trazado_1004246" data-name="Trazado 1004246" d="M197.294,69.795l-.446-.031c-.659-.046-.661,1.072,0,1.026l.446-.031a.482.482,0,0,0,0-.964Z" transform="translate(-196.353 -69.762)" fill="#ebded6"/>
            </g>
            <g id="Grupo_1167201" data-name="Grupo 1167201" transform="translate(327.442 47.276)">
              <path id="Trazado_1004247" data-name="Trazado 1004247" d="M206.2,69.38c-.149-.008-.3-.017-.446-.027-.641-.037-.641,1.033,0,1,.149-.008.3-.017.446-.027a.471.471,0,0,0,0-.941Z" transform="translate(-205.275 -69.353)" fill="#ebded6"/>
            </g>
            <g id="Grupo_1167202" data-name="Grupo 1167202" transform="translate(312.107 39.679)">
              <path id="Trazado_1004248" data-name="Trazado 1004248" d="M198.336,66.632a.472.472,0,0,0,0-.943.472.472,0,0,0,0,.943Z" transform="translate(-197.88 -65.689)" fill="#ebded6"/>
            </g>
            <g id="Grupo_1167203" data-name="Grupo 1167203" transform="translate(164.256 36.125)">
              <path id="Trazado_1004249" data-name="Trazado 1004249" d="M127.035,64.919a.472.472,0,0,0,0-.944.472.472,0,0,0,0,.944Z" transform="translate(-126.58 -63.975)" fill="#ebded6"/>
            </g>
            <g id="Grupo_1167204" data-name="Grupo 1167204" transform="translate(70.351 15.743)">
              <path id="Trazado_1004250" data-name="Trazado 1004250" d="M81.77,55.131a.493.493,0,0,0,0-.985.493.493,0,0,0,0,.985Z" transform="translate(-81.295 -54.146)" fill="#ebded6"/>
            </g>
            <g id="Grupo_1167205" data-name="Grupo 1167205" transform="translate(59.849 2.405)">
              <path id="Trazado_1004251" data-name="Trazado 1004251" d="M76.67,48.624a.455.455,0,0,0,0-.91.455.455,0,0,0,0,.91Z" transform="translate(-76.23 -47.714)" fill="#ebded6"/>
            </g>
            <g id="Grupo_1167206" data-name="Grupo 1167206" transform="translate(163.922 41.021)">
              <path id="Trazado_1004252" data-name="Trazado 1004252" d="M126.859,67.246a.455.455,0,0,0,0-.91.455.455,0,0,0,0,.91Z" transform="translate(-126.419 -66.336)" fill="#ebded6"/>
            </g>
            <g id="Grupo_1167207" data-name="Grupo 1167207" transform="translate(289.37 48.919)">
              <path id="Trazado_1004253" data-name="Trazado 1004253" d="M187.651,70.728c-.008-.085-.017-.17-.027-.255a.34.34,0,0,0-.68,0c-.008.085-.017.17-.027.255-.048.473.784.473.734,0Z" transform="translate(-186.915 -70.145)" fill="#ebded6"/>
            </g>
            <g id="Grupo_1167208" data-name="Grupo 1167208" transform="translate(280.677 36.048)">
              <path id="Trazado_1004254" data-name="Trazado 1004254" d="M183.078,64.672a.367.367,0,0,0,0-.734.367.367,0,0,0,0,.734Z" transform="translate(-182.723 -63.938)" fill="#ebded6"/>
            </g>
            <g id="Grupo_1167209" data-name="Grupo 1167209" transform="translate(116.668 111.541)">
              <path id="Trazado_1004255" data-name="Trazado 1004255" d="M103.853,100.8a.23.23,0,0,0,0-.46.23.23,0,0,0,0,.46Z" transform="translate(-103.631 -100.344)" fill="#ebded6"/>
            </g>
            <g id="Grupo_1167210" data-name="Grupo 1167210" transform="translate(264.205 94.201)">
              <path id="Trazado_1004256" data-name="Trazado 1004256" d="M175.123,92.693a.356.356,0,0,0,0-.711.356.356,0,0,0,0,.711Z" transform="translate(-174.78 -91.982)" fill="#ebded6"/>
            </g>
            <g id="Grupo_1167211" data-name="Grupo 1167211" transform="translate(111.122 122.865)">
              <path id="Trazado_1004257" data-name="Trazado 1004257" d="M101.356,106.632a.414.414,0,0,0,0-.827.414.414,0,0,0,0,.827Z" transform="translate(-100.956 -105.805)" fill="#ebded6"/>
            </g>
            <g id="Grupo_1167212" data-name="Grupo 1167212" transform="translate(107.377 117.59)">
              <path id="Trazado_1004258" data-name="Trazado 1004258" d="M99.459,103.9a.32.32,0,0,0,0-.639.32.32,0,0,0,0,.639Z" transform="translate(-99.15 -103.261)" fill="#ebded6"/>
            </g>
            <g id="Grupo_1167213" data-name="Grupo 1167213" transform="translate(251.588 89.303)">
              <path id="Trazado_1004259" data-name="Trazado 1004259" d="M169.039,90.331a.356.356,0,0,0,0-.711.356.356,0,0,0,0,.711Z" transform="translate(-168.695 -89.62)" fill="#ebded6"/>
            </g>
            <g id="Grupo_1167214" data-name="Grupo 1167214" transform="translate(242.475 91.184)">
              <path id="Trazado_1004260" data-name="Trazado 1004260" d="M164.584,91.114a.294.294,0,0,0,0-.587.294.294,0,0,0,0,.587Z" transform="translate(-164.301 -90.527)" fill="#ebded6"/>
            </g>
            <g id="Grupo_1167215" data-name="Grupo 1167215" transform="translate(27.386 19.516)">
              <path id="Trazado_1004261" data-name="Trazado 1004261" d="M61.313,56.416c-.031-.079-.062-.158-.093-.234-.1-.249-.52-.326-.585,0-.017.079-.031.158-.048.234-.139.684.935.527.726,0Z" transform="translate(-60.575 -55.966)" fill="#ebded6"/>
            </g>
            <g id="Grupo_1167216" data-name="Grupo 1167216" transform="translate(31.639 21.108)">
              <path id="Trazado_1004262" data-name="Trazado 1004262" d="M62.985,57.477a.372.372,0,0,0,0-.744.372.372,0,0,0,0,.744Z" transform="translate(-62.626 -56.733)" fill="#ebded6"/>
            </g>
            <g id="Grupo_1167217" data-name="Grupo 1167217" transform="translate(43.745 12.311)">
              <path id="Trazado_1004263" data-name="Trazado 1004263" d="M68.707,52.995a.252.252,0,0,0,0-.5.252.252,0,0,0,0,.5Z" transform="translate(-68.464 -52.491)" fill="#ebded6"/>
            </g>
            <g id="Grupo_1167218" data-name="Grupo 1167218" transform="translate(40.676 15.861)">
              <path id="Trazado_1004264" data-name="Trazado 1004264" d="M67.287,54.831a.314.314,0,0,0,0-.628.314.314,0,0,0,0,.628Z" transform="translate(-66.984 -54.203)" fill="#ebded6"/>
            </g>
            <g id="Grupo_1167219" data-name="Grupo 1167219" transform="translate(44.241 17.898)">
              <path id="Trazado_1004265" data-name="Trazado 1004265" d="M68.96,55.72a.268.268,0,0,0,0-.535.268.268,0,0,0,0,.535Z" transform="translate(-68.703 -55.185)" fill="#ebded6"/>
            </g>
            <g id="Grupo_1167220" data-name="Grupo 1167220" transform="translate(58.009 5.793)">
              <path id="Trazado_1004266" data-name="Trazado 1004266" d="M75.773,49.357l-.247.054c-.29.062-.214.5.068.5l.255.008c.406.012.35-.659-.077-.566Z" transform="translate(-75.342 -49.348)" fill="#ebded6"/>
            </g>
            <g id="Grupo_1167221" data-name="Grupo 1167221" transform="translate(33.602 14.669)">
              <path id="Trazado_1004267" data-name="Trazado 1004267" d="M63.912,54.329a.351.351,0,0,0,0-.7.351.351,0,0,0,0,.7Z" transform="translate(-63.573 -53.628)" fill="#ebded6"/>
            </g>
            <g id="Grupo_1167222" data-name="Grupo 1167222" transform="translate(102.633 60.845)">
              <path id="Trazado_1004268" data-name="Trazado 1004268" d="M97.5,77.227a.666.666,0,0,0,0-1.331.666.666,0,0,0,0,1.331Z" transform="translate(-96.862 -75.896)" fill="#ebded6"/>
            </g>
            <g id="Grupo_1167223" data-name="Grupo 1167223" transform="translate(109.298 57.292)">
              <path id="Trazado_1004269" data-name="Trazado 1004269" d="M100.447,74.948a.383.383,0,0,0,0-.765.383.383,0,0,0,0,.765Z" transform="translate(-100.076 -74.183)" fill="#ebded6"/>
            </g>
            <g id="Grupo_1167224" data-name="Grupo 1167224" transform="translate(143.956 4.954)">
              <path id="Trazado_1004270" data-name="Trazado 1004270" d="M117.159,49.708a.383.383,0,0,0,0-.765.383.383,0,0,0,0,.765Z" transform="translate(-116.79 -48.943)" fill="#ebded6"/>
            </g>
            <g id="Grupo_1167225" data-name="Grupo 1167225" transform="translate(131.985 10.918)">
              <path id="Trazado_1004271" data-name="Trazado 1004271" d="M111.345,52.5l.255-.006c.34-.006.444-.55.083-.618l-.249-.046c-.5-.093-.576.678-.089.67Z" transform="translate(-111.017 -51.819)" fill="#ebded6"/>
            </g>
            <g id="Grupo_1167226" data-name="Grupo 1167226" transform="translate(158.147 4.844)">
              <path id="Trazado_1004272" data-name="Trazado 1004272" d="M123.958,49.56a.335.335,0,0,0,0-.67.335.335,0,0,0,0,.67Z" transform="translate(-123.634 -48.89)" fill="#ebded6"/>
            </g>
            <g id="Grupo_1167227" data-name="Grupo 1167227" transform="translate(103.101 123.28)">
              <path id="Trazado_1004273" data-name="Trazado 1004273" d="M97.447,106.749a.372.372,0,0,0,0-.744.372.372,0,0,0,0,.744Z" transform="translate(-97.088 -106.005)" fill="#ebded6"/>
            </g>
            <g id="Grupo_1167228" data-name="Grupo 1167228" transform="translate(107.925 62.19)">
              <path id="Trazado_1004274" data-name="Trazado 1004274" d="M99.764,77.269a.362.362,0,0,0,0-.724.362.362,0,0,0,0,.724Z" transform="translate(-99.414 -76.545)" fill="#ebded6"/>
            </g>
            <g id="Grupo_1167229" data-name="Grupo 1167229" transform="translate(95.378 71.059)">
              <path id="Trazado_1004275" data-name="Trazado 1004275" d="M93.759,81.639a.409.409,0,0,0,0-.817.409.409,0,0,0,0,.817Z" transform="translate(-93.364 -80.822)" fill="#ebded6"/>
            </g>
            <g id="Grupo_1167230" data-name="Grupo 1167230" transform="translate(293.456 61.144)">
              <path id="Trazado_1004276" data-name="Trazado 1004276" d="M189.089,76.973l.187.135c.921.664,1.143-1.576,0-.958l-.187.1a.422.422,0,0,0,0,.722Z" transform="translate(-188.886 -76.04)" fill="#ebded6"/>
            </g>
            <g id="Grupo_1167231" data-name="Grupo 1167231" transform="translate(289.168 62.041)">
              <path id="Trazado_1004277" data-name="Trazado 1004277" d="M187.247,77.363a.445.445,0,0,0,0-.89.445.445,0,0,0,0,.89Z" transform="translate(-186.818 -76.473)" fill="#ebded6"/>
            </g>
            <g id="Grupo_1167232" data-name="Grupo 1167232" transform="translate(44.531 120.849)">
              <path id="Trazado_1004278" data-name="Trazado 1004278" d="M69.2,105.567a.367.367,0,0,0,0-.734.367.367,0,0,0,0,.734Z" transform="translate(-68.843 -104.833)" fill="#ebded6"/>
            </g>
            <g id="Grupo_1167233" data-name="Grupo 1167233" transform="translate(12.078 120.639)">
              <path id="Trazado_1004279" data-name="Trazado 1004279" d="M53.986,105.193c-.025-.079-.05-.158-.077-.234a.322.322,0,0,0-.616,0c-.025.079-.05.156-.077.234-.205.639.977.643.769,0Z" transform="translate(-53.192 -104.731)" fill="#ebded6"/>
            </g>
            <g id="Grupo_1167234" data-name="Grupo 1167234" transform="translate(12.678 114.821)">
              <path id="Trazado_1004280" data-name="Trazado 1004280" d="M53.816,102.617a.345.345,0,0,0,0-.691.345.345,0,0,0,0,.691Z" transform="translate(-53.482 -101.926)" fill="#ebded6"/>
            </g>
            <g id="Grupo_1167235" data-name="Grupo 1167235" transform="translate(149.477 15.877)">
              <path id="Trazado_1004281" data-name="Trazado 1004281" d="M121.361,55.223c-.025-.1-.05-.2-.075-.307-.467-1.931-3.059.661-1.128,1.128l.3.075a.737.737,0,0,0,.9-.9Z" transform="translate(-119.453 -54.211)" fill="#ebded6"/>
            </g>
            <g id="Grupo_1167236" data-name="Grupo 1167236" transform="translate(35.969 123.634)">
              <path id="Trazado_1004282" data-name="Trazado 1004282" d="M65.118,107.014a.419.419,0,0,0,0-.838.419.419,0,0,0,0,.838Z" transform="translate(-64.714 -106.176)" fill="#ebded6"/>
            </g>
            <g id="Grupo_1167237" data-name="Grupo 1167237" transform="translate(84.174 116.383)">
              <path id="Trazado_1004283" data-name="Trazado 1004283" d="M88.25,103.276a.3.3,0,0,0,0-.6.3.3,0,0,0,0,.6Z" transform="translate(-87.961 -102.679)" fill="#ebded6"/>
            </g>
            <g id="Grupo_1167238" data-name="Grupo 1167238" transform="translate(160.694 109.432)">
              <path id="Trazado_1004284" data-name="Trazado 1004284" d="M125.855,100.215l.056-.241c.2-.861-1.23-.865-1.031,0l.056.241a.48.48,0,0,0,.919,0Z" transform="translate(-124.862 -99.327)" fill="#ebded6"/>
            </g>
            <g id="Grupo_1167239" data-name="Grupo 1167239" transform="translate(144.256 115.833)">
              <path id="Trazado_1004285" data-name="Trazado 1004285" d="M117.881,104.372a.979.979,0,0,0,0-1.958.979.979,0,0,0,0,1.958Z" transform="translate(-116.935 -102.414)" fill="#ebded6"/>
            </g>
            <g id="Grupo_1167240" data-name="Grupo 1167240" transform="translate(152.54 117.548)">
              <path id="Trazado_1004286" data-name="Trazado 1004286" d="M121.349,104.11a.435.435,0,0,0,0-.869.435.435,0,0,0,0,.869Z" transform="translate(-120.93 -103.241)" fill="#ebded6"/>
            </g>
            <g id="Grupo_1167241" data-name="Grupo 1167241" transform="translate(177.423 27.527)">
              <path id="Trazado_1004287" data-name="Trazado 1004287" d="M134.214,59.925c-.079-.021-.16-.041-.238-.06-1.391-.353-1.4,2.022,0,1.667l.238-.06a.809.809,0,0,0,0-1.547Z" transform="translate(-132.929 -59.829)" fill="#ebded6"/>
            </g>
            <g id="Grupo_1167242" data-name="Grupo 1167242" transform="translate(179.861 19.395)">
              <path id="Trazado_1004288" data-name="Trazado 1004288" d="M134.5,56.724a.409.409,0,0,0,0-.817.409.409,0,0,0,0,.817Z" transform="translate(-134.105 -55.907)" fill="#ebded6"/>
            </g>
            <g id="Grupo_1167243" data-name="Grupo 1167243" transform="translate(158.773 26.901)">
              <path id="Trazado_1004289" data-name="Trazado 1004289" d="M124.3,60.282a.378.378,0,0,0,0-.755.378.378,0,0,0,0,.755Z" transform="translate(-123.936 -59.527)" fill="#ebded6"/>
            </g>
            <g id="Grupo_1167244" data-name="Grupo 1167244" transform="translate(229.417 125.764)">
              <path id="Trazado_1004290" data-name="Trazado 1004290" d="M158.444,108.113a.455.455,0,0,0,0-.91.455.455,0,0,0,0,.91Z" transform="translate(-158.003 -107.203)" fill="#ebded6"/>
            </g>
            <g id="Grupo_1167245" data-name="Grupo 1167245" transform="translate(201.054 128.384)">
              <path id="Trazado_1004291" data-name="Trazado 1004291" d="M144.327,108.743c.008.085.017.17.027.255a.263.263,0,0,0,.525,0c.008-.085.017-.17.027-.255.035-.369-.616-.369-.579,0Z" transform="translate(-144.325 -108.466)" fill="#ebded6"/>
            </g>
            <g id="Grupo_1167246" data-name="Grupo 1167246" transform="translate(240.601 127.889)">
              <path id="Trazado_1004292" data-name="Trazado 1004292" d="M163.8,109.066a.419.419,0,0,0,0-.838.419.419,0,0,0,0,.838Z" transform="translate(-163.397 -108.228)" fill="#ebded6"/>
            </g>
            <g id="Grupo_1167247" data-name="Grupo 1167247" transform="translate(198.646 148.754)">
              <path id="Trazado_1004293" data-name="Trazado 1004293" d="M143.579,119.149l.255-.01a.419.419,0,0,0,0-.838l-.255-.01a.43.43,0,0,0,0,.858Z" transform="translate(-143.164 -118.29)" fill="#ebded6"/>
            </g>
            <g id="Grupo_1167248" data-name="Grupo 1167248" transform="translate(133.834 123.052)">
              <path id="Trazado_1004294" data-name="Trazado 1004294" d="M112.241,106.787l.3.11a.305.305,0,0,0,.373-.373c-.037-.1-.073-.2-.11-.3-.326-.881-1.441.236-.56.56Z" transform="translate(-111.909 -105.895)" fill="#ebded6"/>
            </g>
            <g id="Grupo_1167249" data-name="Grupo 1167249" transform="translate(240.216 100.017)">
              <path id="Trazado_1004295" data-name="Trazado 1004295" d="M163.391,95.994c.052.062.1.124.153.187.914,1.105,2.246-1.331.574-1.385-.077,0-.151,0-.228-.008a.716.716,0,0,0-.5,1.207Z" transform="translate(-163.211 -94.787)" fill="#ebded6"/>
            </g>
            <g id="Grupo_1167250" data-name="Grupo 1167250" transform="translate(292.022 35.345)">
              <path id="Trazado_1004296" data-name="Trazado 1004296" d="M188.6,64.437a.419.419,0,0,0,0-.838.419.419,0,0,0,0,.838Z" transform="translate(-188.194 -63.599)" fill="#ebded6"/>
            </g>
            <g id="Grupo_1167251" data-name="Grupo 1167251" transform="translate(244.14 114.259)">
              <path id="Trazado_1004297" data-name="Trazado 1004297" d="M165.492,102.462a.4.4,0,0,0,0-.807.4.4,0,0,0,0,.807Z" transform="translate(-165.103 -101.655)" fill="#ebded6"/>
            </g>
            <g id="Grupo_1167252" data-name="Grupo 1167252" transform="translate(301.866 38.409)">
              <path id="Trazado_1004298" data-name="Trazado 1004298" d="M193.347,66.4a1.494,1.494,0,0,0,.319.021.559.559,0,0,0,.491-.282c.021-.046.039-.091.06-.135.637-1.449-2.047-1.041-1.053.135l-.031-.023c.1-.17.193-.34.29-.512l-.182.025c-.475.062-.294.726.106.771Z" transform="translate(-192.941 -65.077)" fill="#ebded6"/>
            </g>
            <g id="Grupo_1167253" data-name="Grupo 1167253" transform="translate(303.41 42.667)">
              <path id="Trazado_1004299" data-name="Trazado 1004299" d="M194.572,67.4c-.064-.056-.126-.112-.191-.17-.386-.342-.956.243-.562.562l.2.162c.384.315.939-.216.554-.554Z" transform="translate(-193.686 -67.13)" fill="#ebded6"/>
            </g>
            <g id="Grupo_1167254" data-name="Grupo 1167254" transform="translate(291.35 52.851)">
              <path id="Trazado_1004300" data-name="Trazado 1004300" d="M188.183,72.69a.325.325,0,0,0,0-.649.325.325,0,0,0,0,.649Z" transform="translate(-187.87 -72.041)" fill="#ebded6"/>
            </g>
            <g id="Grupo_1167255" data-name="Grupo 1167255" transform="translate(198.876 47.148)">
              <path id="Trazado_1004301" data-name="Trazado 1004301" d="M143.588,69.94a.325.325,0,0,0,0-.649.325.325,0,0,0,0,.649Z" transform="translate(-143.275 -69.291)" fill="#ebded6"/>
            </g>
            <g id="Grupo_1167256" data-name="Grupo 1167256" transform="translate(318.543 60.649)">
              <path id="Trazado_1004302" data-name="Trazado 1004302" d="M201.743,75.987l-.216-.129c-.379-.226-.713.274-.45.585.056.064.11.131.166.195.373.438,1.043-.328.5-.651Z" transform="translate(-200.984 -75.802)" fill="#ebded6"/>
            </g>
            <g id="Grupo_1167257" data-name="Grupo 1167257" transform="translate(13.095 10.883)">
              <path id="Trazado_1004303" data-name="Trazado 1004303" d="M54.531,52.472c.017-.081.031-.16.048-.241.05-.253-.23-.556-.485-.373l-.187.133c-.711.516.487,1.178.624.481Z" transform="translate(-53.683 -51.802)" fill="#ebded6"/>
            </g>
            <g id="Grupo_1167258" data-name="Grupo 1167258" transform="translate(0.096 9.85)">
              <path id="Trazado_1004304" data-name="Trazado 1004304" d="M47.673,51.839a.268.268,0,0,0,0-.535.268.268,0,0,0,0,.535Z" transform="translate(-47.415 -51.304)" fill="#ebded6"/>
            </g>
            <g id="Grupo_1167259" data-name="Grupo 1167259" transform="translate(8.153 21.914)">
              <path id="Trazado_1004305" data-name="Trazado 1004305" d="M51.437,57.4a.141.141,0,0,0,0-.282.141.141,0,0,0,0,.282Z" transform="translate(-51.3 -57.122)" fill="#ebded6"/>
            </g>
            <g id="Grupo_1167260" data-name="Grupo 1167260" transform="translate(35.117 8.449)">
              <path id="Trazado_1004306" data-name="Trazado 1004306" d="M65.052,50.812c-.073-.044-.147-.087-.22-.129-.409-.238-.74.361-.365.624l.209.147c.39.272.794-.4.375-.643Z" transform="translate(-64.303 -50.629)" fill="#ebded6"/>
            </g>
            <g id="Grupo_1167261" data-name="Grupo 1167261" transform="translate(14.963 11.635)">
              <path id="Trazado_1004307" data-name="Trazado 1004307" d="M55.227,53.494a.665.665,0,0,0,0-1.329.665.665,0,0,0,0,1.329Z" transform="translate(-54.584 -52.165)" fill="#ebded6"/>
            </g>
            <g id="Grupo_1167262" data-name="Grupo 1167262" transform="translate(6.42 21.616)">
              <path id="Trazado_1004308" data-name="Trazado 1004308" d="M50.843,57.764a.393.393,0,0,0,0-.786.393.393,0,0,0,0,.786Z" transform="translate(-50.464 -56.978)" fill="#ebded6"/>
            </g>
            <g id="Grupo_1167263" data-name="Grupo 1167263" transform="translate(55.235 31.926)">
              <path id="Trazado_1004309" data-name="Trazado 1004309" d="M75.314,62.522c.056.027.037.021-.052-.019-.164-.091-.149,0,.044.265.133-.813-1.045-1.18-1.263-.348-.3,1.136,1.257,1.924,1.74.717a.487.487,0,0,0-.469-.616Z" transform="translate(-74.005 -61.95)" fill="#ebded6"/>
            </g>
            <g id="Grupo_1167264" data-name="Grupo 1167264" transform="translate(34.442 26.44)">
              <path id="Trazado_1004310" data-name="Trazado 1004310" d="M65,60.782l.274-.342c.622-.776-.626-1.617-1.037-.8-.066.133-.133.268-.2.4-.288.581.5,1.317.964.742Z" transform="translate(-63.977 -59.305)" fill="#ebded6"/>
            </g>
            <g id="Grupo_1167265" data-name="Grupo 1167265" transform="translate(7.691 41.661)">
              <path id="Trazado_1004311" data-name="Trazado 1004311" d="M51.865,66.979l-.114.044.458.122c.008.017.019.033.027.05a.559.559,0,0,0-1.035-.28c-.019.037-.037.075-.054.112a.589.589,0,0,0,.207.792.7.7,0,0,0,.937-.106c.255-.3.021-.908-.427-.734Z" transform="translate(-51.077 -66.645)" fill="#ebded6"/>
            </g>
            <g id="Grupo_1167266" data-name="Grupo 1167266" transform="translate(39.308 27.281)">
              <path id="Trazado_1004312" data-name="Trazado 1004312" d="M66.461,59.992a.141.141,0,0,0,0-.282.141.141,0,0,0,0,.282Z" transform="translate(-66.324 -59.71)" fill="#ebded6"/>
            </g>
            <g id="Grupo_1167267" data-name="Grupo 1167267" transform="translate(35.681 100.489)">
              <path id="Trazado_1004313" data-name="Trazado 1004313" d="M65.324,95.2c-.073-.044-.147-.087-.22-.129-.408-.238-.74.361-.365.624.07.05.141.1.209.147.388.272.792-.4.375-.643Z" transform="translate(-64.575 -95.015)" fill="#ebded6"/>
            </g>
            <g id="Grupo_1167268" data-name="Grupo 1167268" transform="translate(27.219 109.608)">
              <path id="Trazado_1004314" data-name="Trazado 1004314" d="M61.137,100.741a.665.665,0,0,0,0-1.329.665.665,0,0,0,0,1.329Z" transform="translate(-60.494 -99.412)" fill="#ebded6"/>
            </g>
            <g id="Grupo_1167269" data-name="Grupo 1167269" transform="translate(36.05 102.475)">
              <path id="Trazado_1004315" data-name="Trazado 1004315" d="M65.132,96.758a.393.393,0,0,0,0-.786.393.393,0,0,0,0,.786Z" transform="translate(-64.753 -95.972)" fill="#ebded6"/>
            </g>
            <g id="Grupo_1167270" data-name="Grupo 1167270" transform="translate(202.18 13.004)">
              <path id="Trazado_1004316" data-name="Trazado 1004316" d="M145.247,53.611a.393.393,0,0,0,0-.786.393.393,0,0,0,0,.786Z" transform="translate(-144.868 -52.825)" fill="#ebded6"/>
            </g>
            <g id="Grupo_1167271" data-name="Grupo 1167271" transform="translate(144.454 16.067)">
              <path id="Trazado_1004317" data-name="Trazado 1004317" d="M117.43,55.129a.414.414,0,0,0,0-.827.414.414,0,0,0,0,.827Z" transform="translate(-117.03 -54.302)" fill="#ebded6"/>
            </g>
            <g id="Grupo_1167272" data-name="Grupo 1167272" transform="translate(180.242 114.738)">
              <path id="Trazado_1004318" data-name="Trazado 1004318" d="M134.876,103.1a.608.608,0,0,0,0-1.215.608.608,0,0,0,0,1.215Z" transform="translate(-134.289 -101.886)" fill="#ebded6"/>
            </g>
            <g id="Grupo_1167273" data-name="Grupo 1167273" transform="translate(6.997 149.54)">
              <path id="Trazado_1004319" data-name="Trazado 1004319" d="M51.223,119.664a.5.5,0,0,0,0-1,.5.5,0,0,0,0,1Z" transform="translate(-50.742 -118.669)" fill="#ebded6"/>
            </g>
            <g id="Grupo_1167274" data-name="Grupo 1167274" transform="translate(9.293 153.936)">
              <path id="Trazado_1004320" data-name="Trazado 1004320" d="M52.5,122.129a.67.67,0,0,0,0-1.34.67.67,0,0,0,0,1.34Z" transform="translate(-51.85 -120.789)" fill="#ebded6"/>
            </g>
            <g id="Grupo_1167275" data-name="Grupo 1167275" transform="translate(0 44.743)">
              <path id="Trazado_1004321" data-name="Trazado 1004321" d="M48.811,68.7l-.284-.348c-.543-.67-1.613.384-.948.948l.342.29a.629.629,0,0,0,.89-.89Z" transform="translate(-47.368 -68.131)" fill="#ebded6"/>
            </g>
            <g id="Grupo_1167276" data-name="Grupo 1167276" transform="translate(250.611 20.882)">
              <path id="Trazado_1004322" data-name="Trazado 1004322" d="M168.776,57.765a.571.571,0,0,0,0-1.14.571.571,0,0,0,0,1.14Z" transform="translate(-168.224 -56.624)" fill="#ebded6"/>
            </g>
            <g id="Grupo_1167277" data-name="Grupo 1167277" transform="translate(146.086 8.751)">
              <path id="Trazado_1004323" data-name="Trazado 1004323" d="M118.232,51.632a.429.429,0,0,0,0-.858.429.429,0,0,0,0,.858Z" transform="translate(-117.817 -50.774)" fill="#ebded6"/>
            </g>
            <g id="Grupo_1167278" data-name="Grupo 1167278" transform="translate(130.183 7.312)">
              <path id="Trazado_1004324" data-name="Trazado 1004324" d="M110.633,51.086a.5.5,0,0,0,0-1.006.5.5,0,0,0,0,1.006Z" transform="translate(-110.148 -50.08)" fill="#ebded6"/>
            </g>
            <g id="Grupo_1167279" data-name="Grupo 1167279" transform="translate(323.401 30.961)">
              <path id="Trazado_1004325" data-name="Trazado 1004325" d="M203.361,62c-.01.212-.021.421-.033.632-.037.72,1.143.724,1.12,0L204.429,62a.534.534,0,0,0-1.068,0Z" transform="translate(-203.327 -61.485)" fill="#ebded6"/>
            </g>
            <g id="Grupo_1167280" data-name="Grupo 1167280" transform="translate(273.88 47.303)">
              <path id="Trazado_1004326" data-name="Trazado 1004326" d="M180.776,70.04a1.724,1.724,0,0,1-.222-.371c-.444-.858-1.678.328-.8.8a1.71,1.71,0,0,1,.365.228c.388.28.925-.27.659-.659Z" transform="translate(-179.445 -69.366)" fill="#ebded6"/>
            </g>
            <g id="Grupo_1167281" data-name="Grupo 1167281" transform="translate(357.763 25.162)">
              <path id="Trazado_1004327" data-name="Trazado 1004327" d="M220.092,59.837c.1.106.207.214.313.319.606.618,1.553-.332.948-.948-.1-.106-.207-.214-.313-.319-.605-.618-1.553.332-.948.948Z" transform="translate(-219.897 -58.688)" fill="#ebded6"/>
            </g>
            <g id="Grupo_1167282" data-name="Grupo 1167282" transform="translate(60.074 32.606)">
              <path id="Trazado_1004328" data-name="Trazado 1004328" d="M76.87,63.377a.55.55,0,0,0,0-1.1.55.55,0,0,0,0,1.1Z" transform="translate(-76.339 -62.278)" fill="#ebded6"/>
            </g>
            <g id="Grupo_1167283" data-name="Grupo 1167283" transform="translate(96.075 47.206)">
              <path id="Trazado_1004329" data-name="Trazado 1004329" d="M94.053,70.053a.367.367,0,0,0,0-.734.367.367,0,0,0,0,.734Z" transform="translate(-93.7 -69.319)" fill="#ebded6"/>
            </g>
            <g id="Grupo_1167284" data-name="Grupo 1167284" transform="translate(42.316 29.846)">
              <path id="Trazado_1004330" data-name="Trazado 1004330" d="M68.114,61.648a.351.351,0,0,0,0-.7.351.351,0,0,0,0,.7Z" transform="translate(-67.775 -60.947)" fill="#ebded6"/>
            </g>
            <g id="Grupo_1167285" data-name="Grupo 1167285" transform="translate(239.09 94.645)">
              <path id="Trazado_1004331" data-name="Trazado 1004331" d="M164.377,92.214q-.653.152-1.3.309c-.715.17-.406,1.223.3,1.091l1.319-.247c.749-.141.438-1.331-.317-1.153Z" transform="translate(-162.668 -92.196)" fill="#ebded6"/>
            </g>
            <g id="Grupo_1167286" data-name="Grupo 1167286" transform="translate(44.609 44.148)">
              <path id="Trazado_1004332" data-name="Trazado 1004332" d="M69.336,68.788a.472.472,0,0,0,0-.944.472.472,0,0,0,0,.944Z" transform="translate(-68.881 -67.844)" fill="#ebded6"/>
            </g>
            <g id="Grupo_1167287" data-name="Grupo 1167287" transform="translate(300.936 19.641)">
              <path id="Trazado_1004333" data-name="Trazado 1004333" d="M192.715,56.486a.23.23,0,0,0,0-.46.23.23,0,0,0,0,.46Z" transform="translate(-192.493 -56.026)" fill="#ebded6"/>
            </g>
            <g id="Grupo_1167288" data-name="Grupo 1167288" transform="translate(313.296)">
              <path id="Trazado_1004334" data-name="Trazado 1004334" d="M198.853,47.381a.414.414,0,0,0,0-.827.414.414,0,0,0,0,.827Z" transform="translate(-198.453 -46.554)" fill="#ebded6"/>
            </g>
            <g id="Grupo_1167289" data-name="Grupo 1167289" transform="translate(297.407 24.705)">
              <path id="Trazado_1004335" data-name="Trazado 1004335" d="M191.1,59.107a.32.32,0,0,0,0-.639.32.32,0,0,0,0,.639Z" transform="translate(-190.791 -58.468)" fill="#ebded6"/>
            </g>
            <g id="Grupo_1167290" data-name="Grupo 1167290" transform="translate(195.75 124.124)">
              <path id="Trazado_1004336" data-name="Trazado 1004336" d="M142.092,107.082a.335.335,0,0,0,0-.67.335.335,0,0,0,0,.67Z" transform="translate(-141.768 -106.412)" fill="#ebded6"/>
            </g>
            <g id="Grupo_1167291" data-name="Grupo 1167291" transform="translate(219.432 110.749)">
              <path id="Trazado_1004337" data-name="Trazado 1004337" d="M153.536,100.684a.361.361,0,0,0,0-.722.361.361,0,0,0,0,.722Z" transform="translate(-153.188 -99.962)" fill="#ebded6"/>
            </g>
            <g id="Grupo_1167292" data-name="Grupo 1167292" transform="translate(198.445 123.374)">
              <path id="Trazado_1004338" data-name="Trazado 1004338" d="M144.226,106.694c-.012-.077-.023-.153-.035-.23-.168-1.1-1.924.3-.682.682l.2.062c.334.1.56-.218.514-.514Z" transform="translate(-143.067 -106.051)" fill="#ebded6"/>
            </g>
            <g id="Grupo_1167293" data-name="Grupo 1167293" transform="translate(167.271 107.8)">
              <path id="Trazado_1004339" data-name="Trazado 1004339" d="M128.464,99.43a.445.445,0,0,0,0-.89.445.445,0,0,0,0,.89Z" transform="translate(-128.034 -98.54)" fill="#ebded6"/>
            </g>
            <g id="Grupo_1167294" data-name="Grupo 1167294" transform="translate(225.564 110.949)">
              <path id="Trazado_1004340" data-name="Trazado 1004340" d="M156.622,100.124c-.07.044-.141.087-.212.129-.738.45.251,1.481.73.73l.133-.207a.479.479,0,0,0-.651-.651Z" transform="translate(-156.145 -100.059)" fill="#ebded6"/>
            </g>
            <g id="Grupo_1167295" data-name="Grupo 1167295" transform="translate(228.567 116.663)">
              <path id="Trazado_1004341" data-name="Trazado 1004341" d="M158.538,104.774a.98.98,0,0,0,0-1.96.98.98,0,0,0,0,1.96Z" transform="translate(-157.593 -102.814)" fill="#ebded6"/>
            </g>
            <g id="Grupo_1167296" data-name="Grupo 1167296" transform="translate(237.21 111.445)">
              <path id="Trazado_1004342" data-name="Trazado 1004342" d="M162.182,101.167a.435.435,0,0,0,0-.869.435.435,0,0,0,0,.869Z" transform="translate(-161.761 -100.298)" fill="#ebded6"/>
            </g>
            <g id="Grupo_1167297" data-name="Grupo 1167297" transform="translate(23.793 32.961)">
              <path id="Trazado_1004343" data-name="Trazado 1004343" d="M58.948,63.66c.041.073.083.143.124.214.707,1.215,2.418-.429,1.182-1.182l-.212-.129a.807.807,0,0,0-1.095,1.1Z" transform="translate(-58.842 -62.449)" fill="#ebded6"/>
            </g>
            <g id="Grupo_1167298" data-name="Grupo 1167298" transform="translate(1.657 148.302)">
              <path id="Trazado_1004344" data-name="Trazado 1004344" d="M48.561,118.889a.409.409,0,0,0,0-.817.409.409,0,0,0,0,.817Z" transform="translate(-48.167 -118.072)" fill="#ebded6"/>
            </g>
            <g id="Grupo_1167299" data-name="Grupo 1167299" transform="translate(11.136 143.73)">
              <path id="Trazado_1004345" data-name="Trazado 1004345" d="M53.1,116.622a.378.378,0,0,0,0-.755.378.378,0,0,0,0,.755Z" transform="translate(-52.738 -115.867)" fill="#ebded6"/>
            </g>
            <g id="Grupo_1167300" data-name="Grupo 1167300" transform="translate(59.269 28.263)">
              <path id="Trazado_1004346" data-name="Trazado 1004346" d="M76.846,60.479l-.187-.174a.42.42,0,0,0-.593.593c.058.062.114.126.172.191.371.409,1.012-.228.608-.61Z" transform="translate(-75.95 -60.184)" fill="#ebded6"/>
            </g>
            <g id="Grupo_1167301" data-name="Grupo 1167301" transform="translate(354.113 26.467)">
              <path id="Trazado_1004347" data-name="Trazado 1004347" d="M218.989,59.75c-.044-.1-.085-.191-.126-.284a.306.306,0,0,0-.525,0c-.046.1-.089.191-.135.284-.4.844,1.176.873.786,0Z" transform="translate(-218.137 -59.317)" fill="#ebded6"/>
            </g>
            <g id="Grupo_1167302" data-name="Grupo 1167302" transform="translate(43.762 34.881)">
              <path id="Trazado_1004348" data-name="Trazado 1004348" d="M68.785,64.024a.325.325,0,0,0,0-.649.325.325,0,0,0,0,.649Z" transform="translate(-68.472 -63.375)" fill="#ebded6"/>
            </g>
            <g id="Grupo_1167303" data-name="Grupo 1167303" transform="translate(47.32 23.619)">
              <path id="Trazado_1004349" data-name="Trazado 1004349" d="M70.568,58.73a.393.393,0,0,0,0-.786.393.393,0,0,0,0,.786Z" transform="translate(-70.188 -57.944)" fill="#ebded6"/>
            </g>
            <g id="Grupo_1167304" data-name="Grupo 1167304" transform="translate(30.476 10.435)">
              <path id="Trazado_1004350" data-name="Trazado 1004350" d="M62.449,52.382a.4.4,0,0,0,0-.8.4.4,0,0,0,0,.8Z" transform="translate(-62.065 -51.586)" fill="#ebded6"/>
            </g>
            <g id="Grupo_1167305" data-name="Grupo 1167305" transform="translate(19.897 24.411)">
              <path id="Trazado_1004351" data-name="Trazado 1004351" d="M57.363,59.153a.414.414,0,0,0,0-.827.414.414,0,0,0,0,.827Z" transform="translate(-56.963 -58.326)" fill="#ebded6"/>
            </g>
            <g id="Grupo_1167306" data-name="Grupo 1167306" transform="translate(33.369 5.939)">
              <path id="Trazado_1004352" data-name="Trazado 1004352" d="M63.835,50.194a.388.388,0,0,0,0-.776.388.388,0,0,0,0,.776Z" transform="translate(-63.46 -49.418)" fill="#ebded6"/>
            </g>
            <g id="Grupo_1167307" data-name="Grupo 1167307" transform="translate(163.023 13.454)">
              <path id="Trazado_1004353" data-name="Trazado 1004353" d="M126.7,53.631c0-.085-.006-.17-.01-.255a.345.345,0,0,0-.691,0c0,.085-.006.17-.01.255a.356.356,0,0,0,.711,0Z" transform="translate(-125.985 -53.042)" fill="#ebded6"/>
            </g>
            <g id="Grupo_1167308" data-name="Grupo 1167308" transform="translate(254.476 16.243)">
              <path id="Trazado_1004354" data-name="Trazado 1004354" d="M170.422,55.078a.345.345,0,0,0,0-.691.345.345,0,0,0,0,.691Z" transform="translate(-170.088 -54.387)" fill="#ebded6"/>
            </g>
          </g>
          <g id="Grupo_1167310" data-name="Grupo 1167310" transform="translate(44.387 86.988)">
            <path id="Trazado_1004355" data-name="Trazado 1004355" d="M62.8,70.915c-.131.962,4.45,4.158,12.052,5.309,6.613,1,13.016,3.583,13.228,2.6.55-2.553-9.333-6.333-10.613-6.824C75.154,71.114,63.411,66.044,62.8,70.915ZM75.924,81.241C72.2,80.47,53,77.936,52.158,84.346c-.618,4.695,10.478,1.586,13.381,1.265,13.049-1.441,17.155,1.271,17.346-1.758C82.985,82.253,78.209,81.7,75.924,81.241ZM73.759,93.449c-3.542.989-12.373,5.34-6.752,7.606,1.34.541,7.795-2.957,8.981-3.573,6.59-3.424,10.406-2.735,9.678-4.917C85.263,91.352,77.67,92.358,73.759,93.449Z" transform="translate(-52.133 -34.588)" fill="#fff9ed"/>
            <path id="Trazado_1004356" data-name="Trazado 1004356" d="M295.742,100.724c-2.9-3.179-8.154,2.322-16.282,4.7-4.713,1.377-10.362.489-13.649-.659-.838-.292-.941-1.955-.57-2.76,2.308-5,3.465-14.988-3.144-17.939-7.942-3.548-11.9,4.446-11.577,10.9.176,3.469,1.51,5.732,2.781,8.745,1.111,2.64.956,3.133.044,6.418-.473,1.7-5.367,15.65-7.82,20a.9.9,0,0,1-1.68-.433c-.062-5.091,1.165-14,1.586-18.509.6-6.437-2.219-10.082-7.249-12.886-6.136-3.417-10.4,1.319-15.349,10.98a123.609,123.609,0,0,1-9.209,15.065c-1.993,2.258,1.5-15.135,2.49-23.254.987-8.1,3.7-15.643-5.514-17.775-1.827-.423-8.367-1.068-10.206.655-2.053,1.926-3.664,6.945-4.523,9.139-2.555,6.524-7.069,14.611-13.508,13.605,4.811-12.616-2.219-37.352-21.423-29.033a16.552,16.552,0,0,0-8.191,8.359,4.19,4.19,0,0,1-3.046,2.716c-1.418.427-4.027,1.12-5.348,2.111-5.3,3.981-5.574,12-8.633,17.808-4.05,7.691-8.006,16.456-14.717,22.25-4.537,3.917-12.91,7.494-16.278.469-2.781-5.8-1.584-14.153-.761-20.284a85.933,85.933,0,0,1,8.622-27.5c2.837-5.549,6.851-13.087,12.674-16.1,7.733-4,6.7.881,2.142,8.535-5.5,9.224,12.548,15.312,14.511,2.281,1.145-7.59.707-18.182-6.76-23.467-6.1-4.319-15.76-2.374-22.107.311-8.158,3.451-15.079,9.522-20.743,16.232-11.981,14.2-20.857,34-19.959,52.876.691,14.53,11.138,29.95,27.347,28.374,16.467-1.6,28.962-16.3,36.948-29.452.6,7.245,3.525,15.724,11.675,17.684,7.573,1.821,11.579.2,15.339-1.926,5.723-3.241,7.878-7.979,10.8-13.217,4.359-7.824,3.874-10.381,6.3-10.779,7.842-1.292,10.822-6.4,14.1-9.145-.574,7.218-1.817,20.038-1.051,27.055.512,4.684,1.622,7.148,6.677,8.753,10.128,3.216,21.408-12.058,24.558-19.111-.12,6.5-.363,17.761,1.725,20.888,3.3,4.933,8.786,5.151,12.033,4.633,3.409-.543,9.6-6.652,12.073-11.453,1.4-2.721,5.516-12.114,6.677-14.912,1.012-2.432,3.32-9.557,5.781-12.239.674-.734,4.328.678,8.1.908,9.085.552,13.526-.653,17.027-1.624C292.853,107.491,297.415,104.092,295.742,100.724ZM173.711,86.636c3.525,6.258,2.789,11.123.892,18.022a17.489,17.489,0,0,1-9.661-12.342C163.927,87.468,169.327,79.691,173.711,86.636Zm-15.764,39.7c-2.24-6.15.558-16.51,1.576-20.658,6.152,7.979,11.67,7.853,11.782,8.375.214,1.006-3.832,13.28-8.79,15.023C160.589,129.755,158.646,128.254,157.947,126.336Z" transform="translate(-30.495 -52.317)" fill="#fff9ed"/>
            <path id="Trazado_1004357" data-name="Trazado 1004357" d="M178.927,83.5c3.56.95,8.436,3.295,8.332,6.544-.153,4.6-5.976-.481-7.43-1.226-3.3-1.7-7.577-2.677-11.276-4.029C167.864,81.488,176.95,83.008,178.927,83.5Z" transform="translate(72.819 -19.675)" fill="#fff9ed"/>
            <path id="Trazado_1004358" data-name="Trazado 1004358" d="M177.588,76.645c2.289-1.524,5.058-4.392,3.836-6.806-1.732-3.413-4.234,1.721-5.043,2.611-2.54,2.835-4.641,3.735-6.895,5.593C170.139,80.67,176.3,77.46,177.588,76.645Z" transform="translate(73.861 -34.747)" fill="#fff9ed"/>
          </g>
          <path id="Trazado_1004359" data-name="Trazado 1004359" d="M150.2,55.394c1.364-1.19,3.027-.332,4.068.6,1.165,1.058,1.242,2.71,2.2,3.768,1.064,1.321,2.248-.066,3.569-.927,2.938-1.852,7.542-4.031,10.528-2.312,1.458.858,1.933,1.454,1.041,3.239-.989,2.049-2.913,3.965-4.409,5.684-2.76,3.237-5.651,6.412-8.357,9.781-1.192,1.454-1.792,3.1-2.847,4.558-.823,1.188-1.441,1.255-2.658.661-3.009-1.52-2.752-5.418-3.77-8.261a29.431,29.431,0,0,1-1.887-10.97C148.017,59.49,148.751,56.715,150.2,55.394ZM161.541,62.2c-1.765,1.122-2.2,4.228-4.456,4.361-2.6.131-1.918-2.71-2.283-4.23-.249-1.321-1.719-4.956-2.88-2.049a11.684,11.684,0,0,0,.164,7.2c.236.858.958,6.213,2.347,5.947.684-.064,2.8-3.04,3.283-3.635l3.03-3.237c1.727-1.984,4.288-4.1,5.377-6.41A13.6,13.6,0,0,0,161.541,62.2Z" transform="translate(133.811 36.797)" fill="#fff9ed"/>
        </g>
      </g>
    </g>
  </g>
</svg>
