<svg xmlns="http://www.w3.org/2000/svg" xmlns:xlink="http://www.w3.org/1999/xlink" width="113" height="113" viewBox="0 0 113 113">
  <defs>
    <filter id="Trazado_982547" x="0" y="0" width="113" height="113" filterUnits="userSpaceOnUse">
      <feOffset dy="3" input="SourceAlpha"/>
      <feGaussianBlur stdDeviation="3" result="blur"/>
      <feFlood flood-opacity="0.161"/>
      <feComposite operator="in" in2="blur"/>
      <feComposite in="SourceGraphic"/>
    </filter>
  </defs>
  <g id="Grupo_1167021" data-name="Grupo 1167021" transform="translate(-325 -2347)">
    <g id="Grupo_1166777" data-name="Grupo 1166777" transform="translate(0.105 -910)">
      <g id="Grupo_1164305" data-name="Grupo 1164305" transform="translate(333.895 3263)">
        <g id="Grupo_1163948" data-name="Grupo 1163948" transform="translate(0)">
          <g id="Grupo_1158168" data-name="Grupo 1158168" transform="translate(0)">
            <g id="Grupo_1152576" data-name="Grupo 1152576">
              <g id="Grupo_1148633" data-name="Grupo 1148633">
                <g id="Grupo_1148525" data-name="Grupo 1148525">
                  <g transform="matrix(1, 0, 0, 1, -9, -6)" filter="url(#Trazado_982547)">
                    <g id="Trazado_982547-2" data-name="Trazado 982547" transform="translate(9 6)" fill="#f2f7e5">
                      <path d="M 47.5 93.5 C 41.28937149047852 93.5 35.26533508300781 92.28397369384766 29.59518623352051 89.88570404052734 C 24.11771965026855 87.56893157958984 19.19813346862793 84.25196075439453 14.97309303283691 80.02691650390625 C 10.74804019927979 75.80186462402344 7.431066513061523 70.88229370117188 5.114293098449707 65.40481567382812 C 2.716026782989502 59.73468017578125 1.5 53.71062850952148 1.5 47.5 C 1.5 41.28937149047852 2.716026782989502 35.26533508300781 5.114293098449707 29.59518623352051 C 7.431066513061523 24.11771965026855 10.74804019927979 19.19813346862793 14.97309303283691 14.97309303283691 C 19.19813346862793 10.74804019927979 24.11771965026855 7.431066513061523 29.59518623352051 5.114293098449707 C 35.26533508300781 2.716026782989502 41.28937149047852 1.5 47.5 1.5 C 53.71062850952148 1.5 59.73468017578125 2.716026782989502 65.40481567382812 5.114293098449707 C 70.88229370117188 7.431066513061523 75.80186462402344 10.74804019927979 80.02691650390625 14.97309303283691 C 84.25196075439453 19.19813346862793 87.56893157958984 24.11771965026855 89.88570404052734 29.59518623352051 C 92.28397369384766 35.26533508300781 93.5 41.28937149047852 93.5 47.5 C 93.5 53.71062850952148 92.28397369384766 59.73468017578125 89.88570404052734 65.40481567382812 C 87.56893157958984 70.88229370117188 84.25196075439453 75.80186462402344 80.02691650390625 80.02691650390625 C 75.80186462402344 84.25196075439453 70.88229370117188 87.56893157958984 65.40481567382812 89.88570404052734 C 59.73468017578125 92.28397369384766 53.71062850952148 93.5 47.5 93.5 Z" stroke="none"/>
                      <path d="M 47.5 3 C 41.49121475219727 3 35.66376876831055 4.176155090332031 30.17950439453125 6.495796203613281 C 24.88084411621094 8.736953735351562 20.12152099609375 11.94598388671875 16.03375244140625 16.03375244140625 C 11.94598388671875 20.12152099609375 8.736953735351562 24.88084411621094 6.495796203613281 30.17950439453125 C 4.176155090332031 35.66376876831055 3 41.49121475219727 3 47.5 C 3 53.50878524780273 4.176155090332031 59.33623123168945 6.495796203613281 64.82049560546875 C 8.736953735351562 70.11915588378906 11.94598388671875 74.87847900390625 16.03375244140625 78.96624755859375 C 20.12152099609375 83.05401611328125 24.88084411621094 86.26304626464844 30.17950439453125 88.50419616699219 C 35.66376876831055 90.82384490966797 41.49121475219727 92 47.5 92 C 53.50878524780273 92 59.33623123168945 90.82384490966797 64.82049560546875 88.50419616699219 C 70.11915588378906 86.26304626464844 74.87847900390625 83.05401611328125 78.96624755859375 78.96624755859375 C 83.05401611328125 74.87847900390625 86.26304626464844 70.11915588378906 88.50419616699219 64.82049560546875 C 90.82384490966797 59.33623123168945 92 53.50878524780273 92 47.5 C 92 41.49121475219727 90.82384490966797 35.66376876831055 88.50419616699219 30.17950439453125 C 86.26304626464844 24.88084411621094 83.05401611328125 20.12152099609375 78.96624755859375 16.03375244140625 C 74.87847900390625 11.94598388671875 70.11915588378906 8.736953735351562 64.82049560546875 6.495796203613281 C 59.33623123168945 4.176155090332031 53.50878524780273 3 47.5 3 M 47.5 0 C 73.7335205078125 0 95 21.2664794921875 95 47.5 C 95 73.7335205078125 73.7335205078125 95 47.5 95 C 21.2664794921875 95 0 73.7335205078125 0 47.5 C 0 21.2664794921875 21.2664794921875 0 47.5 0 Z" stroke="none" fill="#86b60c"/>
                    </g>
                  </g>
                </g>
              </g>
            </g>
          </g>
        </g>
      </g>
    </g>
    <g id="comentarios" transform="translate(351 2367.137)">
      <path id="Trazado_1003987" data-name="Trazado 1003987" d="M137.23,11.549H104.419a7.8,7.8,0,0,0-7.781,7.781v2.648h29.68a7.8,7.8,0,0,1,7.781,7.781v19.4h3.131a7.8,7.8,0,0,0,7.781-7.781V19.33a7.8,7.8,0,0,0-7.781-7.781Z" transform="translate(-85.18 -6.775)" fill="#6c7ed6"/>
      <path id="Trazado_1003988" data-name="Trazado 1003988" d="M131.713,96.5H98.9a7.714,7.714,0,0,0-2.264.339v.017h29.68a7.8,7.8,0,0,1,7.781,7.781v19.4h3.131a7.715,7.715,0,0,0,2.264-.339V104.285A7.8,7.8,0,0,0,131.713,96.5Z" transform="translate(-85.18 -81.657)" fill="#4f67d2"/>
      <path id="Trazado_1003989" data-name="Trazado 1003989" d="M48.2,96.5H15.39a7.8,7.8,0,0,0-7.781,7.781v22.047a7.8,7.8,0,0,0,7.781,7.781H35.083a1.313,1.313,0,0,1,1.281,1.607,32.968,32.968,0,0,1-2.5,6.985,1.2,1.2,0,0,0,1.7,1.549,43.894,43.894,0,0,0,10.732-9.244,2.461,2.461,0,0,1,1.906-.9,7.8,7.8,0,0,0,7.781-7.781V104.285A7.8,7.8,0,0,0,48.2,96.5Z" transform="translate(-6.707 -81.657)" fill="#60b8fe"/>
      <path id="Trazado_1003990" data-name="Trazado 1003990" d="M235.6,415.3a1.313,1.313,0,0,0-1.281-1.607h-5.039a1.313,1.313,0,0,1,1.281,1.607,32.968,32.968,0,0,1-2.5,6.985,1.2,1.2,0,0,0,1.7,1.549c1.137-.7,2.459-1.59,3.857-2.66A32.84,32.84,0,0,0,235.6,415.3Z" transform="translate(-200.901 -361.237)" fill="#23a8fe"/>
      <path id="Trazado_1003991" data-name="Trazado 1003991" d="M12.648,126.333V104.286A7.8,7.8,0,0,1,20.429,96.5H15.39a7.8,7.8,0,0,0-7.781,7.781v22.047a7.8,7.8,0,0,0,7.781,7.781h5.039A7.8,7.8,0,0,1,12.648,126.333Z" transform="translate(-6.707 -81.657)" fill="#23a8fe"/>
      <g id="Grupo_1167020" data-name="Grupo 1167020" transform="translate(9.106 31.703)">
        <circle id="Elipse_11769" data-name="Elipse 11769" cx="2.582" cy="2.582" r="2.582" fill="#dfebfa"/>
        <circle id="Elipse_11770" data-name="Elipse 11770" cx="2.582" cy="2.582" r="2.582" transform="translate(8.34)" fill="#dfebfa"/>
        <circle id="Elipse_11771" data-name="Elipse 11771" cx="2.582" cy="2.582" r="2.582" transform="translate(16.68)" fill="#dfebfa"/>
        <circle id="Elipse_11772" data-name="Elipse 11772" cx="2.582" cy="2.582" r="2.582" transform="translate(25.02)" fill="#dfebfa"/>
      </g>
      <path id="Trazado_1003992" data-name="Trazado 1003992" d="M79.382,241.244a2.58,2.58,0,0,1,1.291-2.236,2.582,2.582,0,1,0,0,4.472A2.581,2.581,0,0,1,79.382,241.244Z" transform="translate(-67.694 -206.959)" fill="#b1dbfc"/>
      <path id="Trazado_1003993" data-name="Trazado 1003993" d="M149.719,241.244a2.58,2.58,0,0,1,1.291-2.236,2.582,2.582,0,1,0,0,4.472A2.581,2.581,0,0,1,149.719,241.244Z" transform="translate(-129.691 -206.959)" fill="#b1dbfc"/>
      <path id="Trazado_1003994" data-name="Trazado 1003994" d="M220.056,241.244a2.58,2.58,0,0,1,1.291-2.236,2.582,2.582,0,1,0,0,4.472A2.581,2.581,0,0,1,220.056,241.244Z" transform="translate(-191.688 -206.959)" fill="#b1dbfc"/>
      <path id="Trazado_1003995" data-name="Trazado 1003995" d="M290.393,241.244a2.58,2.58,0,0,1,1.291-2.236,2.582,2.582,0,1,0,0,4.472A2.581,2.581,0,0,1,290.393,241.244Z" transform="translate(-253.685 -206.959)" fill="#b1dbfc"/>
      <path id="Trazado_1003996" data-name="Trazado 1003996" d="M69.191,234.448a3.471,3.471,0,1,0,3.471-3.471A3.475,3.475,0,0,0,69.191,234.448Zm5.164,0a1.693,1.693,0,1,1-1.693-1.693A1.695,1.695,0,0,1,74.355,234.448Z" transform="translate(-60.987 -200.185)"/>
      <path id="Trazado_1003997" data-name="Trazado 1003997" d="M146.472,234.448A3.471,3.471,0,1,0,143,237.92,3.475,3.475,0,0,0,146.472,234.448Zm-5.164,0A1.693,1.693,0,1,1,143,236.141,1.695,1.695,0,0,1,141.307,234.448Z" transform="translate(-122.985 -200.185)"/>
      <path id="Trazado_1003998" data-name="Trazado 1003998" d="M216.809,234.448a3.471,3.471,0,1,0-3.471,3.471A3.475,3.475,0,0,0,216.809,234.448Zm-5.164,0a1.693,1.693,0,1,1,1.693,1.693A1.695,1.695,0,0,1,211.644,234.448Z" transform="translate(-184.982 -200.185)"/>
      <path id="Trazado_1003999" data-name="Trazado 1003999" d="M287.146,234.448a3.471,3.471,0,1,0-3.471,3.471A3.475,3.475,0,0,0,287.146,234.448Zm-5.164,0a1.693,1.693,0,1,1,1.693,1.693A1.695,1.695,0,0,1,281.981,234.448Z" transform="translate(-246.979 -200.185)"/>
      <path id="Trazado_1004000" data-name="Trazado 1004000" d="M52.037,3.863H19.227a8.68,8.68,0,0,0-8.671,8.67v1.4H8.67A8.68,8.68,0,0,0,0,22.607V44.653a8.68,8.68,0,0,0,8.67,8.67h9.27a.889.889,0,0,0,0-1.779H8.67a6.9,6.9,0,0,1-6.892-6.892V22.607A6.9,6.9,0,0,1,8.67,15.715H41.481a6.9,6.9,0,0,1,6.892,6.892V44.653a6.9,6.9,0,0,1-6.892,6.892,3.337,3.337,0,0,0-2.594,1.223,43.042,43.042,0,0,1-10.512,9.051.306.306,0,0,1-.435-.4,33.988,33.988,0,0,0,2.57-7.173,2.2,2.2,0,0,0-2.147-2.7H22.09a.889.889,0,0,0,0,1.779h6.273a.423.423,0,0,1,.416.515,32.2,32.2,0,0,1-2.436,6.8,2.086,2.086,0,0,0,2.968,2.7,44.837,44.837,0,0,0,10.952-9.437,1.565,1.565,0,0,1,1.218-.571,8.68,8.68,0,0,0,8.67-8.67v-1.4h1.886a8.68,8.68,0,0,0,8.671-8.67V25.632a.889.889,0,1,0-1.779,0V34.58a6.9,6.9,0,0,1-6.892,6.892H50.152V22.607a8.68,8.68,0,0,0-8.67-8.67H12.335v-1.4a6.9,6.9,0,0,1,6.892-6.892H52.037a6.9,6.9,0,0,1,6.892,6.892v8.948a.889.889,0,1,0,1.779,0V12.534a8.68,8.68,0,0,0-8.671-8.671Z"/>
    </g>
  </g>
</svg>
