<svg xmlns="http://www.w3.org/2000/svg" xmlns:xlink="http://www.w3.org/1999/xlink" width="108" height="108" viewBox="0 0 108 108">
  <defs>
    <filter id="Trazado_904820" x="0" y="0" width="108" height="108" filterUnits="userSpaceOnUse">
      <feOffset dy="3" input="SourceAlpha"/>
      <feGaussianBlur stdDeviation="3" result="blur"/>
      <feFlood flood-opacity="0.161"/>
      <feComposite operator="in" in2="blur"/>
      <feComposite in="SourceGraphic"/>
    </filter>
  </defs>
  <g id="Grupo_1167317" data-name="Grupo 1167317" transform="translate(-186 -1966)">
    <g id="Grupo_1166792" data-name="Grupo 1166792" transform="translate(195 1972)">
      <g transform="matrix(1, 0, 0, 1, -9, -6)" filter="url(#Trazado_904820)">
        <g id="Trazado_904820-2" data-name="Trazado 904820" transform="translate(9 6)" fill="#fbfbf9">
          <path d="M 44.99999618530273 88.50003051757812 C 39.12687301635742 88.50003051757812 33.43022155761719 87.35010528564453 28.06829643249512 85.08219909667969 C 22.88852119445801 82.89134216308594 18.23629570007324 79.75461578369141 14.24084663391113 75.75916290283203 C 10.24540901184082 71.76371765136719 7.108683586120605 67.11150360107422 4.917821407318115 61.93172836303711 C 2.649921178817749 56.56978988647461 1.499996185302734 50.87313842773438 1.499996185302734 45.00001525878906 C 1.499996185302734 39.12689208984375 2.649921178817749 33.43024063110352 4.917821407318115 28.06831550598145 C 7.108683586120605 22.88854026794434 10.24540901184082 18.23631477355957 14.24084663391113 14.24086570739746 C 18.23629570007324 10.24541568756104 22.88852119445801 7.10869026184082 28.06829643249512 4.917840480804443 C 33.43022155761719 2.649927854537964 39.12687301635742 1.50000274181366 44.99999618530273 1.50000274181366 C 50.87311935424805 1.50000274181366 56.56977081298828 2.649927854537964 61.93169784545898 4.917840480804443 C 67.11147308349609 7.10869026184082 71.76369476318359 10.24541568756104 75.75914764404297 14.24086570739746 C 79.75458526611328 18.23631477355957 82.89131164550781 22.88854026794434 85.08216857910156 28.06831550598145 C 87.35007476806641 33.43024063110352 88.5 39.12689208984375 88.5 45.00001525878906 C 88.5 50.87313842773438 87.35007476806641 56.56978988647461 85.08216857910156 61.93172836303711 C 82.89131164550781 67.11150360107422 79.75458526611328 71.76371765136719 75.75914764404297 75.75916290283203 C 71.76369476318359 79.75461578369141 67.11147308349609 82.89134216308594 61.93169784545898 85.08219909667969 C 56.56977081298828 87.35010528564453 50.87311935424805 88.50003051757812 44.99999618530273 88.50003051757812 Z" stroke="none"/>
          <path d="M 44.99999618530273 3 C 39.32870864868164 3 33.82865142822266 4.110061645507812 28.65262603759766 6.299346923828125 C 23.65165710449219 8.414573669433594 19.15968322753906 11.44334411621094 15.301513671875 15.301513671875 C 11.44333648681641 19.15968322753906 8.414566040039062 23.65165710449219 6.299339294433594 28.65262985229492 C 4.110054016113281 33.82867050170898 2.999992370605469 39.32872772216797 2.999992370605469 45.00001525878906 C 2.999992370605469 50.67130279541016 4.110054016113281 56.17136001586914 6.299339294433594 61.34738922119141 C 8.414566040039062 66.34837341308594 11.44333648681641 70.84033203125 15.301513671875 74.69850158691406 C 19.15968322753906 78.55668640136719 23.65165710449219 81.58545684814453 28.65262603759766 83.70068359375 C 33.82865142822266 85.88996887207031 39.32870864868164 87.00003051757812 44.99999618530273 87.00003051757812 C 50.67128372192383 87.00003051757812 56.17134094238281 85.88996887207031 61.34736633300781 83.70068359375 C 66.34834289550781 81.58545684814453 70.84030914306641 78.55668640136719 74.69847869873047 74.69850158691406 C 78.55665588378906 70.84033203125 81.58542633056641 66.34837341308594 83.70065307617188 61.34738922119141 C 85.88993835449219 56.17136001586914 87 50.67130279541016 87 45.00001525878906 C 87 39.32872772216797 85.88993835449219 33.82867050170898 83.70065307617188 28.65262985229492 C 81.58542633056641 23.65165710449219 78.55665588378906 19.15968322753906 74.69847869873047 15.301513671875 C 70.84030914306641 11.44334411621094 66.34834289550781 8.414573669433594 61.34736633300781 6.299346923828125 C 56.17134094238281 4.110061645507812 50.67128372192383 3 44.99999618530273 3 M 44.99999618530273 0 C 69.85281372070312 0 90 20.14718627929688 90 45.00001525878906 C 90 69.85282897949219 69.85281372070312 90.00003051757812 44.99999618530273 90.00003051757812 C 20.14717864990234 90.00003051757812 -7.62939453125e-06 69.85282897949219 -7.62939453125e-06 45.00001525878906 C -7.62939453125e-06 20.14718627929688 20.14717864990234 0 44.99999618530273 0 Z" stroke="none" fill="#ff9d1c"/>
        </g>
      </g>
    </g>
    <g id="promover" transform="translate(208 1966.048)">
      <g id="Grupo_1167315" data-name="Grupo 1167315" transform="translate(0.94 22.891)">
        <path id="Trazado_1004360" data-name="Trazado 1004360" d="M190.993,29.446H187.82a1.007,1.007,0,0,0-1,1.083l.649,8.494a2,2,0,0,1-1.993,2.151H169.721a2,2,0,0,1-1.993-2.151l.649-8.494a1.007,1.007,0,0,0-1-1.083H164.2a1.007,1.007,0,0,0-1,.88l-4.716,37.062a5.691,5.691,0,0,0,5.646,6.41h26.93a5.691,5.691,0,0,0,5.646-6.41l-4.716-37.062a1.007,1.007,0,0,0-1-.88Z" transform="translate(-139.529 -29.446)" fill="#5392f9"/>
        <path id="Trazado_1004361" data-name="Trazado 1004361" d="M400.849,67.388l-4.716-37.062a1.007,1.007,0,0,0-1-.88h-3.173a1.033,1.033,0,0,0-.107.006,1.006,1.006,0,0,1,.9.874l4.716,37.062a5.691,5.691,0,0,1-5.646,6.41H395.2A5.691,5.691,0,0,0,400.849,67.388Z" transform="translate(-343.67 -29.446)" fill="#4071f7"/>
        <g id="Grupo_1167313" data-name="Grupo 1167313" transform="translate(40.286 29.867)">
          <path id="Trazado_1004362" data-name="Trazado 1004362" d="M374.179,288.785a7.909,7.909,0,0,0,6.049.5c9.413-3.015,8.178-16.6,1.871-21.368-1.05-.793-10.674,5.17-11.753,12.6C369.864,283.814,371.013,287.147,374.179,288.785Z" transform="translate(-365.08 -267.842)" fill="#6dc17d"/>
          <path id="Trazado_1004363" data-name="Trazado 1004363" d="M408.122,267.914c-.177-.134-.6-.075-1.181.15,5.186,5.675,4.932,18.283-4.287,20.442a7.98,7.98,0,0,1-2.664.165c.07.039.14.078.212.115a7.909,7.909,0,0,0,6.049.495C415.664,286.267,414.43,272.678,408.122,267.914Z" transform="translate(-391.104 -267.843)" fill="#5ea570"/>
          <path id="Trazado_1004364" data-name="Trazado 1004364" d="M330.742,348.23a1.761,1.761,0,0,1-.459-3.436,17.63,17.63,0,0,0,7.448-4.4,21.445,21.445,0,0,0,4.834-8.473,1.76,1.76,0,0,1,3.341,1.11,24.85,24.85,0,0,1-5.661,9.828,21.054,21.054,0,0,1-8.89,5.289A1.756,1.756,0,0,1,330.742,348.23Z" transform="translate(-329.059 -322.838)" fill="#ffcdbe"/>
        </g>
        <path id="Trazado_1004365" data-name="Trazado 1004365" d="M46.422,255.063,40.011,257.4a1.492,1.492,0,0,0-.892,1.912l2.222,6.106a1.492,1.492,0,0,0,1.912.892l6.411-2.334a6.442,6.442,0,0,1,3.213-.309l7.9,1.254L54.326,247.2l-5.244,6.038a6.444,6.444,0,0,1-2.66,1.829Z" transform="translate(-35.079 -219.915)" fill="#e9a52d"/>
        <path id="Trazado_1004366" data-name="Trazado 1004366" d="M168.282,242.715l-2.92,1.063a.685.685,0,0,1-.878-.409l-7.388-20.3a.685.685,0,0,1,.409-.878l2.92-1.063a.685.685,0,0,1,.878.409l7.388,20.3A.685.685,0,0,1,168.282,242.715Z" transform="translate(-138.318 -197.078)" fill="#de5791"/>
        <path id="Trazado_1004367" data-name="Trazado 1004367" d="M176.552,241.838l-7.388-20.3a.685.685,0,0,0-.878-.409l-2.245.817a.835.835,0,0,1,1.071.5l7.285,20.016a.835.835,0,0,1-.5,1.071l-.675.246,2.92-1.063A.685.685,0,0,0,176.552,241.838Z" transform="translate(-146.178 -197.078)" fill="#db387e"/>
        <g id="Grupo_1167314" data-name="Grupo 1167314" transform="translate(0 40.186)">
          <path id="Trazado_1004368" data-name="Trazado 1004368" d="M84.305,384.391l3.827,10.515a.591.591,0,0,0,.758.353l3.267-1.189a.591.591,0,0,0,.353-.758L88.684,382.8Z" transform="translate(-74.683 -378.714)" fill="#5392f9"/>
          <path id="Trazado_1004369" data-name="Trazado 1004369" d="M7.541,352.484l1.184,3.253a.673.673,0,0,0,.863.4l3.886-1.414-1.645-4.519L7.944,351.62A.673.673,0,0,0,7.541,352.484Z" transform="translate(-7.501 -350.206)" fill="#5392f9"/>
        </g>
      </g>
      <g id="Grupo_1167316" data-name="Grupo 1167316" transform="translate(0 21.952)">
        <path id="Trazado_1004370" data-name="Trazado 1004370" d="M271.116,167.721a2.057,2.057,0,0,0-3.563,0l-2.221,3.847-.174-.579a.94.94,0,0,0-1.8.54L264.1,174a1.148,1.148,0,0,0,.521.661l.006,0a1.149,1.149,0,0,0,.839.123l2.512-.593a.94.94,0,0,0-.432-1.829l-.588.139,2.221-3.846a.178.178,0,0,1,.308,0l1.518,2.629a.94.94,0,0,0,1.627-.94Z" transform="translate(-230.328 -148.558)"/>
        <path id="Trazado_1004371" data-name="Trazado 1004371" d="M243.87,242.118l-1.518,2.629a2.057,2.057,0,0,0,1.782,3.086h4.442l-.414.44a.94.94,0,1,0,1.368,1.289l1.77-1.879a1.15,1.15,0,0,0,0-1.577l-1.77-1.879a.94.94,0,1,0-1.368,1.288l.414.44h-4.442a.178.178,0,0,1-.154-.267l1.518-2.629a.94.94,0,0,0-1.627-.94Z" transform="translate(-211.745 -214.123)"/>
        <path id="Trazado_1004372" data-name="Trazado 1004372" d="M336.949,218.966a.94.94,0,0,0-.7-1.13l-2.512-.593a1.189,1.189,0,0,0-.84.123,1.154,1.154,0,0,0-.526.665l-.742,2.472a.94.94,0,0,0,1.8.54l.174-.579,2.221,3.846a.178.178,0,0,1-.154.267h-3.036a.94.94,0,0,0,0,1.879h3.036a2.057,2.057,0,0,0,1.782-3.086l-2.221-3.846.588.139A.94.94,0,0,0,336.949,218.966Z" transform="translate(-290.046 -192.748)"/>
        <path id="Trazado_1004373" data-name="Trazado 1004373" d="M64.074,62.41a14.883,14.883,0,0,0-5.266-10.332,1.385,1.385,0,0,0-.893-.261L54.332,23.653a1.95,1.95,0,0,0-1.931-1.7H49.228a1.947,1.947,0,0,0-1.94,2.095l.65,8.493a1.059,1.059,0,0,1-1.056,1.139H31.13a1.057,1.057,0,0,1-1.055-1.139l.649-8.493a1.946,1.946,0,0,0-1.94-2.1H25.61a1.95,1.95,0,0,0-1.931,1.7L22.106,36.018a.94.94,0,1,0,1.864.237L25.544,23.89a.068.068,0,0,1,.066-.058h3.173a.064.064,0,0,1,.049.021.063.063,0,0,1,.017.051L28.2,32.4a2.937,2.937,0,0,0,2.929,3.161H46.882a2.938,2.938,0,0,0,2.93-3.161l-.65-8.492a.066.066,0,0,1,.018-.053.062.062,0,0,1,.048-.021H52.4a.068.068,0,0,1,.066.058l3.624,28.487C52.674,54.016,46.444,59.2,45.56,65.29q-.074.511-.1,1.012H31.822L24.808,47.03a1.624,1.624,0,0,0-2.082-.971h0l.7-5.483a.94.94,0,1,0-1.864-.237l-.82,6.444-.931.339a1.624,1.624,0,0,0-.971,2.082l.28.769-4.881,5.62a5.514,5.514,0,0,1-2.272,1.562L5.551,59.488a2.433,2.433,0,0,0-1.481,3.025L1.062,63.608A1.613,1.613,0,0,0,.1,65.675l1.184,3.253a1.613,1.613,0,0,0,2.067.964L6.357,68.8A2.427,2.427,0,0,0,8.6,70.311a3.972,3.972,0,0,0,1.4-.353l3.506,9.632a1.528,1.528,0,0,0,1.962.915l3.267-1.189a1.531,1.531,0,0,0,.915-1.962l-3.5-9.622a5.517,5.517,0,0,1,2.443-.165l7.351,1.168.28.769a1.624,1.624,0,0,0,2.082.971l2.92-1.063a1.624,1.624,0,0,0,1.039-1.229H45.528a8.628,8.628,0,0,0,1.234,3.494,18.626,18.626,0,0,1-4.6,2.143,2.7,2.7,0,0,0,1.643,5.144,22.923,22.923,0,0,0,7.435-3.867,8.836,8.836,0,0,0,2.694.421,9.038,9.038,0,0,0,3.3-.626.94.94,0,1,0-.672-1.755,7.1,7.1,0,0,1-3.61.431,25.434,25.434,0,0,0,6.013-10.319,2.7,2.7,0,1,0-5.124-1.7,20.535,20.535,0,0,1-4.613,8.111q-.456.465-.953.887a7.578,7.578,0,0,1-.854-4.982C48,61.532,51.5,57.639,54.848,55.3a11.442,11.442,0,0,1,3-1.589A13.076,13.076,0,0,1,62.2,62.585a10.885,10.885,0,0,1-2.377,8.361.94.94,0,0,0,1.39,1.264,12.583,12.583,0,0,0,2.859-9.8Zm-8.451-.274a.821.821,0,1,1,1.558.518c-2.447,7.362-6.56,12.158-13.945,14.517A.819.819,0,0,1,42.2,76.64a.82.82,0,0,1,.532-1.031C49.539,73.434,53.315,69.081,55.623,62.137Zm-52.666,5.9-1-2.753,2.753-1,1,2.753Zm12.2,10.584-3.387-9.3,2.613-.951,3.387,9.3ZM18.886,65.71a7.4,7.4,0,0,0-3.682.354c-7.1,2.585-6.589,2.428-6.833,2.315a.548.548,0,0,1-.285-.312c-1.15-3.162-1.995-5.48-2.222-6.105a.553.553,0,0,1,.33-.707L12.6,58.921a7.4,7.4,0,0,0,3.048-2.1l4.2-4.833,5.358,14.722ZM27.9,68.62,20.688,48.8l2.441-.889,7.214,19.819Z" transform="translate(0 -21.952)"/>
      </g>
    </g>
  </g>
</svg>
