<svg xmlns="http://www.w3.org/2000/svg" xmlns:xlink="http://www.w3.org/1999/xlink" width="113" height="113" viewBox="0 0 113 113">
  <defs>
    <filter id="Trazado_982547" x="0" y="0" width="113" height="113" filterUnits="userSpaceOnUse">
      <feOffset dy="3" input="SourceAlpha"/>
      <feGaussianBlur stdDeviation="3" result="blur"/>
      <feFlood flood-opacity="0.161"/>
      <feComposite operator="in" in2="blur"/>
      <feComposite in="SourceGraphic"/>
    </filter>
  </defs>
  <g id="Grupo_1167022" data-name="Grupo 1167022" transform="translate(-745 -2347)">
    <g id="Grupo_1166778" data-name="Grupo 1166778" transform="translate(0.355 -910)">
      <g id="Grupo_1164306" data-name="Grupo 1164306" transform="translate(753.645 3263)">
        <g id="Grupo_1163948" data-name="Grupo 1163948" transform="translate(0)">
          <g id="Grupo_1158168" data-name="Grupo 1158168" transform="translate(0)">
            <g id="Grupo_1152576" data-name="Grupo 1152576">
              <g id="Grupo_1148633" data-name="Grupo 1148633">
                <g id="Grupo_1148525" data-name="Grupo 1148525">
                  <g transform="matrix(1, 0, 0, 1, -9, -6)" filter="url(#Trazado_982547)">
                    <g id="Trazado_982547-2" data-name="Trazado 982547" transform="translate(9 6)" fill="#f2f7e5">
                      <path d="M 47.5 93.5 C 41.28937149047852 93.5 35.26533508300781 92.28397369384766 29.59518623352051 89.88570404052734 C 24.11771965026855 87.56893157958984 19.19813346862793 84.25196075439453 14.97309303283691 80.02691650390625 C 10.74804019927979 75.80186462402344 7.431066513061523 70.88229370117188 5.114293098449707 65.40481567382812 C 2.716026782989502 59.73468017578125 1.5 53.71062850952148 1.5 47.5 C 1.5 41.28937149047852 2.716026782989502 35.26533508300781 5.114293098449707 29.59518623352051 C 7.431066513061523 24.11771965026855 10.74804019927979 19.19813346862793 14.97309303283691 14.97309303283691 C 19.19813346862793 10.74804019927979 24.11771965026855 7.431066513061523 29.59518623352051 5.114293098449707 C 35.26533508300781 2.716026782989502 41.28937149047852 1.5 47.5 1.5 C 53.71062850952148 1.5 59.73468017578125 2.716026782989502 65.40481567382812 5.114293098449707 C 70.88229370117188 7.431066513061523 75.80186462402344 10.74804019927979 80.02691650390625 14.97309303283691 C 84.25196075439453 19.19813346862793 87.56893157958984 24.11771965026855 89.88570404052734 29.59518623352051 C 92.28397369384766 35.26533508300781 93.5 41.28937149047852 93.5 47.5 C 93.5 53.71062850952148 92.28397369384766 59.73468017578125 89.88570404052734 65.40481567382812 C 87.56893157958984 70.88229370117188 84.25196075439453 75.80186462402344 80.02691650390625 80.02691650390625 C 75.80186462402344 84.25196075439453 70.88229370117188 87.56893157958984 65.40481567382812 89.88570404052734 C 59.73468017578125 92.28397369384766 53.71062850952148 93.5 47.5 93.5 Z" stroke="none"/>
                      <path d="M 47.5 3 C 41.49121475219727 3 35.66376876831055 4.176155090332031 30.17950439453125 6.495796203613281 C 24.88084411621094 8.736953735351562 20.12152099609375 11.94598388671875 16.03375244140625 16.03375244140625 C 11.94598388671875 20.12152099609375 8.736953735351562 24.88084411621094 6.495796203613281 30.17950439453125 C 4.176155090332031 35.66376876831055 3 41.49121475219727 3 47.5 C 3 53.50878524780273 4.176155090332031 59.33623123168945 6.495796203613281 64.82049560546875 C 8.736953735351562 70.11915588378906 11.94598388671875 74.87847900390625 16.03375244140625 78.96624755859375 C 20.12152099609375 83.05401611328125 24.88084411621094 86.26304626464844 30.17950439453125 88.50419616699219 C 35.66376876831055 90.82384490966797 41.49121475219727 92 47.5 92 C 53.50878524780273 92 59.33623123168945 90.82384490966797 64.82049560546875 88.50419616699219 C 70.11915588378906 86.26304626464844 74.87847900390625 83.05401611328125 78.96624755859375 78.96624755859375 C 83.05401611328125 74.87847900390625 86.26304626464844 70.11915588378906 88.50419616699219 64.82049560546875 C 90.82384490966797 59.33623123168945 92 53.50878524780273 92 47.5 C 92 41.49121475219727 90.82384490966797 35.66376876831055 88.50419616699219 30.17950439453125 C 86.26304626464844 24.88084411621094 83.05401611328125 20.12152099609375 78.96624755859375 16.03375244140625 C 74.87847900390625 11.94598388671875 70.11915588378906 8.736953735351562 64.82049560546875 6.495796203613281 C 59.33623123168945 4.176155090332031 53.50878524780273 3 47.5 3 M 47.5 0 C 73.7335205078125 0 95 21.2664794921875 95 47.5 C 95 73.7335205078125 73.7335205078125 95 47.5 95 C 21.2664794921875 95 0 73.7335205078125 0 47.5 C 0 21.2664794921875 21.2664794921875 0 47.5 0 Z" stroke="none" fill="#86b60c"/>
                    </g>
                  </g>
                </g>
              </g>
            </g>
          </g>
        </g>
      </g>
    </g>
    <g id="Layer_x0020_1" transform="translate(621 2220)">
      <path id="Trazado_1004001" data-name="Trazado 1004001" d="M180.819,209.366a28.546,28.546,0,1,1,28.546-28.546A28.579,28.579,0,0,1,180.819,209.366Zm-8.009-12.687-13.322-13.322a.766.766,0,0,1,0-1.11l5-5a.766.766,0,0,1,1.11,0l7.771,7.731,20.022-20.022a.767.767,0,0,1,1.11,0l5,5a.766.766,0,0,1,0,1.11l-25.573,25.612A.766.766,0,0,1,172.811,196.678ZM161.194,182.8l12.172,12.172,24.463-24.463-3.885-3.846-20.022,20.022a.844.844,0,0,1-1.11,0l-7.771-7.771Zm19.626,31.837a33.819,33.819,0,1,1,33.819-33.819A33.875,33.875,0,0,1,180.819,214.639Zm0-66.053a32.233,32.233,0,1,0,32.233,32.233A32.285,32.285,0,0,0,180.819,148.586Zm0,5.273a26.96,26.96,0,1,0,26.96,26.96A26.988,26.988,0,0,0,180.819,153.859Z" transform="translate(0 0)" fill-rule="evenodd"/>
      <path id="Trazado_1004002" data-name="Trazado 1004002" d="M331.736,343.392l7.771,7.731L359.529,331.1a.767.767,0,0,1,1.11,0l5,5a.766.766,0,0,1,0,1.11l-25.573,25.612a.766.766,0,0,1-1.11,0L325.63,349.5a.766.766,0,0,1,0-1.11l5-5A.766.766,0,0,1,331.736,343.392ZM320,346.96A26.96,26.96,0,1,0,346.96,320,26.989,26.989,0,0,0,320,346.96Z" transform="translate(-166.141 -166.141)" fill="#efefef" fill-rule="evenodd"/>
      <path id="Trazado_1004003" data-name="Trazado 1004003" d="M537.749,643l-20.022,20.022a.844.844,0,0,1-1.11,0l-7.771-7.771L505,659.137l12.172,12.172,24.463-24.463Z" transform="translate(-343.806 -476.335)" fill="#7ed63f" fill-rule="evenodd"/>
      <path id="Trazado_1004004" data-name="Trazado 1004004" d="M219.233,190.687a28.546,28.546,0,1,1-28.546,28.546A28.579,28.579,0,0,1,219.233,190.687ZM187,219.233A32.233,32.233,0,1,0,219.233,187,32.285,32.285,0,0,0,187,219.233Z" transform="translate(-38.414 -38.414)" fill="#ff3e1a" fill-rule="evenodd"/>
    </g>
  </g>
</svg>
