<svg xmlns="http://www.w3.org/2000/svg" xmlns:xlink="http://www.w3.org/1999/xlink" width="113" height="113" viewBox="0 0 113 113">
  <defs>
    <filter id="Trazado_982547" x="0" y="0" width="113" height="113" filterUnits="userSpaceOnUse">
      <feOffset dy="3" input="SourceAlpha"/>
      <feGaussianBlur stdDeviation="3" result="blur"/>
      <feFlood flood-opacity="0.161"/>
      <feComposite operator="in" in2="blur"/>
      <feComposite in="SourceGraphic"/>
    </filter>
  </defs>
  <g id="Grupo_1167024" data-name="Grupo 1167024" transform="translate(-1165 -2347)">
    <g id="Grupo_1166779" data-name="Grupo 1166779" transform="translate(0.105 -910)">
      <g id="Grupo_1164307" data-name="Grupo 1164307" transform="translate(1173.895 3263)">
        <g id="Grupo_1163948" data-name="Grupo 1163948" transform="translate(0)">
          <g id="Grupo_1158168" data-name="Grupo 1158168" transform="translate(0)">
            <g id="Grupo_1152576" data-name="Grupo 1152576">
              <g id="Grupo_1148633" data-name="Grupo 1148633">
                <g id="Grupo_1148525" data-name="Grupo 1148525">
                  <g transform="matrix(1, 0, 0, 1, -9, -6)" filter="url(#Trazado_982547)">
                    <g id="Trazado_982547-2" data-name="Trazado 982547" transform="translate(9 6)" fill="#f2f7e5">
                      <path d="M 47.5 93.5 C 41.28937149047852 93.5 35.26533508300781 92.28397369384766 29.59518623352051 89.88570404052734 C 24.11771965026855 87.56893157958984 19.19813346862793 84.25196075439453 14.97309303283691 80.02691650390625 C 10.74804019927979 75.80186462402344 7.431066513061523 70.88229370117188 5.114293098449707 65.40481567382812 C 2.716026782989502 59.73468017578125 1.5 53.71062850952148 1.5 47.5 C 1.5 41.28937149047852 2.716026782989502 35.26533508300781 5.114293098449707 29.59518623352051 C 7.431066513061523 24.11771965026855 10.74804019927979 19.19813346862793 14.97309303283691 14.97309303283691 C 19.19813346862793 10.74804019927979 24.11771965026855 7.431066513061523 29.59518623352051 5.114293098449707 C 35.26533508300781 2.716026782989502 41.28937149047852 1.5 47.5 1.5 C 53.71062850952148 1.5 59.73468017578125 2.716026782989502 65.40481567382812 5.114293098449707 C 70.88229370117188 7.431066513061523 75.80186462402344 10.74804019927979 80.02691650390625 14.97309303283691 C 84.25196075439453 19.19813346862793 87.56893157958984 24.11771965026855 89.88570404052734 29.59518623352051 C 92.28397369384766 35.26533508300781 93.5 41.28937149047852 93.5 47.5 C 93.5 53.71062850952148 92.28397369384766 59.73468017578125 89.88570404052734 65.40481567382812 C 87.56893157958984 70.88229370117188 84.25196075439453 75.80186462402344 80.02691650390625 80.02691650390625 C 75.80186462402344 84.25196075439453 70.88229370117188 87.56893157958984 65.40481567382812 89.88570404052734 C 59.73468017578125 92.28397369384766 53.71062850952148 93.5 47.5 93.5 Z" stroke="none"/>
                      <path d="M 47.5 3 C 41.49121475219727 3 35.66376876831055 4.176155090332031 30.17950439453125 6.495796203613281 C 24.88084411621094 8.736953735351562 20.12152099609375 11.94598388671875 16.03375244140625 16.03375244140625 C 11.94598388671875 20.12152099609375 8.736953735351562 24.88084411621094 6.495796203613281 30.17950439453125 C 4.176155090332031 35.66376876831055 3 41.49121475219727 3 47.5 C 3 53.50878524780273 4.176155090332031 59.33623123168945 6.495796203613281 64.82049560546875 C 8.736953735351562 70.11915588378906 11.94598388671875 74.87847900390625 16.03375244140625 78.96624755859375 C 20.12152099609375 83.05401611328125 24.88084411621094 86.26304626464844 30.17950439453125 88.50419616699219 C 35.66376876831055 90.82384490966797 41.49121475219727 92 47.5 92 C 53.50878524780273 92 59.33623123168945 90.82384490966797 64.82049560546875 88.50419616699219 C 70.11915588378906 86.26304626464844 74.87847900390625 83.05401611328125 78.96624755859375 78.96624755859375 C 83.05401611328125 74.87847900390625 86.26304626464844 70.11915588378906 88.50419616699219 64.82049560546875 C 90.82384490966797 59.33623123168945 92 53.50878524780273 92 47.5 C 92 41.49121475219727 90.82384490966797 35.66376876831055 88.50419616699219 30.17950439453125 C 86.26304626464844 24.88084411621094 83.05401611328125 20.12152099609375 78.96624755859375 16.03375244140625 C 74.87847900390625 11.94598388671875 70.11915588378906 8.736953735351562 64.82049560546875 6.495796203613281 C 59.33623123168945 4.176155090332031 53.50878524780273 3 47.5 3 M 47.5 0 C 73.7335205078125 0 95 21.2664794921875 95 47.5 C 95 73.7335205078125 73.7335205078125 95 47.5 95 C 21.2664794921875 95 0 73.7335205078125 0 47.5 C 0 21.2664794921875 21.2664794921875 0 47.5 0 Z" stroke="none" fill="#86b60c"/>
                    </g>
                  </g>
                </g>
              </g>
            </g>
          </g>
        </g>
      </g>
    </g>
    <g id="procedimiento_1_" data-name="procedimiento (1)" transform="translate(1171.899 2336.378)">
      <path id="Trazado_1004005" data-name="Trazado 1004005" d="M336.054,422.358h19.985v5.851H336.054Z" transform="translate(-279.028 -338.456)" fill="#fe646f"/>
      <path id="Trazado_1004006" data-name="Trazado 1004006" d="M336.054,240.884h19.985v5.855H336.054Z" transform="translate(-279.028 -181.664)" fill="#8ac9fe"/>
      <path id="Trazado_1004007" data-name="Trazado 1004007" d="M336.054,331.621h19.985v5.855H336.054Z" transform="translate(-279.028 -260.06)" fill="#ffe177"/>
      <path id="Trazado_1004008" data-name="Trazado 1004008" d="M202.693,315.775a5.341,5.341,0,1,0,5.343,5.342A5.341,5.341,0,0,0,202.693,315.775Z" transform="translate(-159.193 -246.37)" fill="#6cf5c2"/>
      <path id="Trazado_1004009" data-name="Trazado 1004009" d="M63.784,134.265,59.069,126.1a1.084,1.084,0,0,1-.48-.527l-.879-2.073-1.59-.658-2.086.843a1.088,1.088,0,0,1-1.177-.239l-2.225-2.225a1.088,1.088,0,0,1-.239-1.177l.843-2.086-.658-1.59-2.073-.879a1.088,1.088,0,0,1-.663-1v-3.142a1.086,1.086,0,0,1,.289-.737,5.765,5.765,0,0,0-1.314-.153,5.451,5.451,0,0,0-4.833,2.787L29.848,134.265a5.58,5.58,0,0,0,4.829,8.369H49.889a7.514,7.514,0,0,1,13.884-2.773l.01-.017A5.454,5.454,0,0,0,63.784,134.265Z" transform="translate(-13.824 -68.974)" fill="#ffe177"/>
      <path id="Trazado_1004010" data-name="Trazado 1004010" d="M32.994,62.589a3.041,3.041,0,0,0,2.992-2.949l.347-7.881a3.169,3.169,0,0,0-.9-2.345,3.378,3.378,0,0,0-4.888,0,3.168,3.168,0,0,0-.9,2.345L30,59.641a3.034,3.034,0,0,0,2.995,2.949ZM32.12,50.92a1.2,1.2,0,0,1,1.744,0,1.022,1.022,0,0,1,.294.745l-.347,7.876a.821.821,0,1,1-1.639,0l-.347-7.88a1.02,1.02,0,0,1,.294-.744Zm.874,12.8a3,3,0,1,0,3,3A3,3,0,0,0,32.994,63.717Zm0,3.821a.822.822,0,1,1,.82-.824A.822.822,0,0,1,32.994,67.538ZM47.34,51.1a7.158,7.158,0,1,0-7.157-7.16A7.158,7.158,0,0,0,47.34,51.1Zm0-12.141a4.982,4.982,0,1,1-4.98,4.981,4.982,4.982,0,0,1,4.98-4.981ZM78.1,57.043H68.43V43.94a1.088,1.088,0,0,0-1.088-1.088H60.657V42.37a1.088,1.088,0,0,0-.663-1l-2.072-.879-.658-1.59.843-2.086a1.088,1.088,0,0,0-.239-1.176l-2.22-2.225a1.088,1.088,0,0,0-1.177-.24l-2.09.843-1.59-.658-.875-2.071a1.088,1.088,0,0,0-1-.665H45.767a1.088,1.088,0,0,0-1,.663l-.879,2.073-1.59.658-2.086-.843a1.088,1.088,0,0,0-1.177.239l-2.225,2.225a1.088,1.088,0,0,0-.239,1.177l.843,2.086-.581,1.4a7.774,7.774,0,0,0-3.838-1,7.675,7.675,0,0,0-6.718,3.875L14.14,64.2a7.756,7.756,0,0,0,6.714,11.633H32.13V86.827a1.088,1.088,0,0,0,1.088,1.088H54.85v2.925a1.088,1.088,0,0,0,1.088,1.088H78.1a1.088,1.088,0,0,0,1.088-1.088V82.814A1.088,1.088,0,0,0,78.1,81.726H68.43V79.591H78.1A1.088,1.088,0,0,0,79.187,78.5V70.473A1.088,1.088,0,0,0,78.1,69.385H68.43V67.25H78.1a1.088,1.088,0,0,0,1.088-1.088V58.132A1.088,1.088,0,0,0,78.1,57.043ZM38.014,42.32a1.088,1.088,0,0,0,.581-.586l1-2.413a1.088,1.088,0,0,0,0-.824l-.74-1.831,1.206-1.206,1.83.74a1.088,1.088,0,0,0,.824,0l2.414-1a1.088,1.088,0,0,0,.585-.581l.771-1.819h1.7l.768,1.818a1.088,1.088,0,0,0,.586.582l2.413,1a1.088,1.088,0,0,0,.823,0l1.834-.74,1.2,1.205-.74,1.831a1.088,1.088,0,0,0,0,.824l1,2.413a1.088,1.088,0,0,0,.581.586l1.819.771v1.7l-1.819.771a1.088,1.088,0,0,0-.581.586l-1,2.414a1.088,1.088,0,0,0,0,.824l.74,1.831-1.2,1.205-1.834-.74a1.088,1.088,0,0,0-.823,0l-2.413,1a1.088,1.088,0,0,0-.586.582l-.768,1.818h-1.7l-.772-1.82a1.088,1.088,0,0,0-.586-.581l-2.413-1a1.088,1.088,0,0,0-.824,0l-1.831.74-1.206-1.206.74-1.83a1.088,1.088,0,0,0,0-.824l-1-2.414a1.088,1.088,0,0,0-.581-.586L36.2,44.792v-1.7Zm-21.99,28.55a5.453,5.453,0,0,1,0-5.578L28.161,44.268a5.451,5.451,0,0,1,4.833-2.787,5.765,5.765,0,0,1,1.314.153,1.086,1.086,0,0,0-.289.736v3.142a1.088,1.088,0,0,0,.663,1l2.073.879.658,1.59-.843,2.086a1.088,1.088,0,0,0,.239,1.177l2.225,2.225a1.088,1.088,0,0,0,1.177.239l2.086-.843,1.59.658.879,2.073a1.084,1.084,0,0,0,.48.527l4.715,8.167a5.454,5.454,0,0,1,0,5.58l-.01.017A7.514,7.514,0,0,0,36.065,73.66H20.853a5.45,5.45,0,0,1-4.829-2.791Zm32.819,3.879A5.341,5.341,0,1,1,43.5,69.405a5.341,5.341,0,0,1,5.342,5.343Zm28.168,15H57.026V83.9H77.01Zm0-12.337H57.026V71.561H77.01ZM66.253,69.385H55.938a1.088,1.088,0,0,0-1.088,1.088V78.5a1.088,1.088,0,0,0,1.088,1.088H66.253v2.134H55.938a1.088,1.088,0,0,0-1.088,1.088v2.925H34.306v-9.9h1.759a7.516,7.516,0,1,0,14.811-2.542,7.944,7.944,0,0,0,.968-1.337,7.677,7.677,0,0,0,0-7.754l-4.008-6.942h1.076a1.088,1.088,0,0,0,1-.665l.875-2.072,1.59-.658,2.09.843a1.088,1.088,0,0,0,1.177-.24l2.221-2.225a1.088,1.088,0,0,0,.239-1.176l-.843-2.086.658-1.59,2.073-.879a1.088,1.088,0,0,0,.663-1v-.485h5.6V57.043H55.938a1.088,1.088,0,0,0-1.088,1.088v8.031a1.088,1.088,0,0,0,1.088,1.088H66.253Zm10.757-4.31H57.026V59.22H77.01ZM59.3,62.149a1.088,1.088,0,0,1,1.088-1.088H73.646a1.088,1.088,0,1,1,0,2.176H60.387A1.088,1.088,0,0,1,59.3,62.149Zm0,12.337A1.088,1.088,0,0,1,60.387,73.4H73.646a1.088,1.088,0,1,1,0,2.176H60.387A1.088,1.088,0,0,1,59.3,74.486Zm0,12.341a1.088,1.088,0,0,1,1.088-1.088H73.646a1.088,1.088,0,1,1,0,2.176H60.387A1.088,1.088,0,0,1,59.3,86.827Zm-12.242-14.8a1.088,1.088,0,0,1,0,1.539l-3.906,3.906a1.088,1.088,0,0,1-1.539,0L39.947,75.8a1.088,1.088,0,1,1,1.541-1.537l.9.9,3.135-3.135a1.088,1.088,0,0,1,1.538,0Z" transform="translate(0 0)"/>
      <path id="Trazado_1004011" data-name="Trazado 1004011" d="M185.3,59.976l1,2.414a1.088,1.088,0,0,1,0,.824l-.74,1.83,1.206,1.206,1.831-.74a1.088,1.088,0,0,1,.824,0l2.413,1a1.088,1.088,0,0,1,.586.581l.771,1.82h1.7l.768-1.818a1.088,1.088,0,0,1,.586-.582l2.414-1a1.088,1.088,0,0,1,.823,0l1.834.74,1.2-1.205-.74-1.831a1.088,1.088,0,0,1,0-.824l1-2.414a1.088,1.088,0,0,1,.581-.586l1.819-.771v-1.7l-1.819-.771a1.088,1.088,0,0,1-.581-.586l-1-2.413a1.088,1.088,0,0,1,0-.824l.74-1.831-1.2-1.2-1.834.74a1.088,1.088,0,0,1-.823,0l-2.413-1a1.088,1.088,0,0,1-.586-.582l-.768-1.818h-1.7l-.772,1.819a1.088,1.088,0,0,1-.586.581l-2.413,1a1.088,1.088,0,0,1-.824,0l-1.83-.739-1.206,1.206.74,1.831a1.088,1.088,0,0,1,0,.824l-1,2.413a1.088,1.088,0,0,1-.581.586l-1.819.771v1.7l1.819.771A1.088,1.088,0,0,1,185.3,59.976Zm8.745-9.366a7.158,7.158,0,1,1-7.157,7.157,7.158,7.158,0,0,1,7.157-7.157Z" transform="translate(-146.705 -13.826)" fill="#837683"/>
      <g id="Grupo_1167023" data-name="Grupo 1167023" transform="translate(31.825 50.545)">
        <path id="Trazado_1004012" data-name="Trazado 1004012" d="M154.127,289.951a.822.822,0,1,0,.82.82A.822.822,0,0,0,154.127,289.951Z" transform="translate(-152.958 -274.603)" fill="#fe646f"/>
        <path id="Trazado_1004013" data-name="Trazado 1004013" d="M151.939,186.972a.858.858,0,0,0,.818-.872l.347-7.876a1.022,1.022,0,0,0-.294-.745,1.2,1.2,0,0,0-1.744,0,1.02,1.02,0,0,0-.294.744l.347,7.88A.855.855,0,0,0,151.939,186.972Z" transform="translate(-150.77 -177.104)" fill="#fe646f"/>
      </g>
    </g>
  </g>
</svg>
