<svg xmlns="http://www.w3.org/2000/svg" xmlns:xlink="http://www.w3.org/1999/xlink" width="400" height="333" viewBox="0 0 400 333">
  <defs>
    <clipPath id="clip-path">
      <rect id="Rectángulo_413453" data-name="Rectángulo 413453" width="400" height="333" transform="translate(180 2826)" fill="#fff" stroke="#707070" stroke-width="1"/>
    </clipPath>
  </defs>
  <g id="Enmascarar_grupo_1098773" data-name="Enmascarar grupo 1098773" transform="translate(-180 -2826)" clip-path="url(#clip-path)">
    <g id="OBJECTS" transform="translate(170.65 2780.76)">
      <g id="Grupo_1167011" data-name="Grupo 1167011" transform="translate(46.35 63.079)">
        <g id="Grupo_1167008" data-name="Grupo 1167008">
          <path id="Trazado_1003895" data-name="Trazado 1003895" d="M198.346,136.035" transform="translate(-78.691 -78.602)" fill="none" stroke="#35494f" stroke-miterlimit="10" stroke-width="2" stroke-dasharray="4 4 4 4 4 4"/>
          <path id="Trazado_1003896" data-name="Trazado 1003896" d="M336.621,338.618c31.473-52.6,6.423-103.792,6.423-103.792s-28.368,26.716-43.727,86.393c-16.409,63.756-64.487,58.666-69.487,59.816S302.815,395.116,336.621,338.618Z" transform="translate(-85.341 -99.622)" fill="#009a90"/>
          <path id="Trazado_1003897" data-name="Trazado 1003897" d="M124.07,331.89c-29.126-48.1-5.944-94.921-5.944-94.921s26.253,24.433,40.467,79.01c15.185,58.307,59.677,53.652,64.3,54.7S155.354,383.56,124.07,331.89Z" transform="translate(-59.761 -100.078)" fill="#00cabe"/>
          <g id="Grupo_1166984" data-name="Grupo 1166984" transform="translate(204.505 49.065)">
            <path id="Trazado_1003898" data-name="Trazado 1003898" d="M319.249,235.569l4.427,4.545,48.477-60.865,5.73,5.015,2.654-19.577-17.578,6.376,6.72,5.888Z" transform="translate(-308.921 -133.764)" fill="#ff8961"/>
            <path id="Trazado_1003899" data-name="Trazado 1003899" d="M306.129,211.578l5.382,5.526,58.936-74,6.966,6.1,3.226-23.8-21.37,7.751,8.169,7.158Z" transform="translate(-306.129 -125.405)" fill="#ff8961"/>
          </g>
          <circle id="Elipse_11756" data-name="Elipse 11756" cx="93.322" cy="93.322" r="93.322" transform="translate(64.309 66.529)" fill="#b5e6b8"/>
          <path id="Trazado_1003900" data-name="Trazado 1003900" d="M280.037,173.552a16.615,16.615,0,0,1,3.783-.564c8.044,7.222-1.752.849-3.687,3.728-1.022,1.467,1.018,3.032.051,4.315s-3.494-.985-5.173-1.7C273.631,177.9,279.429,173.77,280.037,173.552ZM173.205,253.142a.327.327,0,0,0-.1-.161A.531.531,0,0,1,173.205,253.142Zm101.807-73.815a1.01,1.01,0,0,0,.281.215C275.887,179.73,275.429,179.505,275.012,179.327Zm-98.433,9.4c.028-.612-.331-.216,0,0Zm112.806-10.31A92.915,92.915,0,0,1,314.8,242.391c0,2.884-3.954,3.19-5.141,9.295-.3,1.591-1.29,6.03-3.929,4.038-2.094-1.6-3.617-12.483-3.932-13.26-.869-2.139-.52-.441-2.372-1.834-1.083-.816-1.3-2.524-2.5-3.5-2.361-1.928-4.106.2-6.88-1.456-1.019-.61-2.98-2.8-3.775-1.478-.529.879,1.2,2.914,1.691,3.55,1.075,1.395,1.707.887,1.563,2.863-.586,8.038-19.839,10.143-14.605,12.736,1.639.808,3.171-1.55,5.1-.431,2.567,1.49-.738,7.77-2.434,9.953-.062.08-7.178,6.807-7.4,13.431-.115,3.52,1.008,6.807-1.132,10.3-.772,1.263-2.18,1.96-3,3.143-1.495,2.159-2.531,11.658-8.819,16.916-2.338,1.946-4.3,4.073-7.2,3.572s-2.205-2.471-2.878-5.039c-.712-2.69-1.545-4.5-1.929-7.352a44.737,44.737,0,0,0-1.977-7.184c-1.583-5.094,1.493-9.692.039-15.175-.753-2.8-3.213-5.053-3.153-8.056.026-1.305,1.41-3.5.75-4.8-.446-.882-1.941-.728-2.817-1.18-9.043-4.66-12,.318-13.373.479-3.831.448-3.684-4.311-5.041-6.448-1.9-3-4.619-2.155-4.327-6.225.112-1.527.712-3,.694-4.546-.021-1.822-2.085-5.108,2.022-10.467,9.831-12.83,5.618-12.2,4.81-14.494-1.262-3.615,1.3-6.2,4.209-7.653,1.449-.72,2.774.1,2.319-2.463a4.2,4.2,0,0,0-2.225-2.7c.83-.94,1.216-1.726.768-2.806-.791-1.915-1.7-.688-2.814-1.06-2.649-.879-2.652-2.16-1.148-4.627.269-.442,1.287-.653,1.643-1.2.418-.642-.065-.974.12-1.265,5.114-8.07,4.855,6.452,9.832,5.6a4.834,4.834,0,0,0,3.6-3.988c.409-2.191.2-.806-.712-2.4-4.373-7.62,4.41-8.884,6.4-10.99,1.26-1.339,1.522-3.387,2.988-4.425,6.465-4.6,17.251,3.368,20.237,3.835,1.553.246,1.4-.8,2.545-1.019a9.676,9.676,0,0,1,2.837.226c6.515.66,10.948-1.193,11.8-.988.872.212,1.878,1.448,2.747,1.6C290.538,183.87,287.157,181.3,289.385,178.417ZM247.5,198.8c3.755,1,2.01-4.039,5.137-3.608,2.325-.228-.118-2.425-.29-2.712-.161-.257-1.193-2.618-1.374-2.794-3.2-3.128-2.781,3.424-3.046,4.96C247.553,196.935,244.829,198.087,247.5,198.8Zm17.4,25.543c-.351-4.57-4.971.277-8.334-4.759-.9-1.349-.768-2.9-2.385-1.207-1.079,1.126-.188,3.11-2.433,1.562-1.538-1.063-.814-2.625-3.174-2.576-.642.014-.368,1.424-1.487,1.208-.813-.157-.57-.764-1.181-1.121-5.174-3.03-3.728-4.016-6.612-4.125-4.591-.172-8.482,6.592-7.886,7.529.812,1.254,5.765-.772,7.264-.681,4.269.253,2.171,3.224,5.922,5.463,1.038.62,2.7,1.9,3.9,2.109,2.013.354,2.8-1.946,4.529-1.561C256.2,226.773,265.385,230.728,264.9,224.342Zm10.4-44.8a1,1,0,0,1-.281-.215C274.544,179.126,274.128,178.984,275.293,179.541Zm-64.73.819c.269-.49-.057-3.55.688-3.7,2.688.293,2.79-3.178,3.27-5.437.726-3.462,1.112-3.2,3.488-5.876,1.408-1.588,2.552-4.134.081-3.765-2.007.307-3.217,2.907-4.3.384-1.1-2.639.351-4.736-2.712-4.5-4.971.39-2.195-4.692-15.7,3.9-.109.069-.247-.65-.748-.258-.409.318-.494,1.054-.817,1.35-4.322,3.946-3.014.213-8.816,4.117a53.745,53.745,0,0,0-5.145,4.382c-1.726,1.5-4.574,2.048-4.441,3.779.259,2.944,8.423-.771,9.808,3.194.553,1.557-.425,3.832-.167,5.441.083.514.716.772.861,1.342.472,1.849-1.219,5.566,2.107,7.686,3.376,2.161,3.464,1.514,5-.158.253-.276.474-1.306.7-1.671.31-.5.926-.546,1.3-1.1,1.272-1.859.777-1.94,3.156-2.986,1.523-.671,2.662-1.7,4-2.381C203.779,183.29,209.629,182.025,210.563,180.36Zm3.143,6.739c3.565-.694,4.26-5.215-3.783-3.2-1.034.257-1.288-.68-2.078.878-.9,1.76-.091,1.558.712,2.251C209.8,188.1,212.469,189.166,213.706,187.1Zm65.22,95.6c-1.684-1.337-5.914,3.173-6.762,5-.67,1.456-1.548,7.687-1.251,8.978C272.622,304.005,279.892,285.766,278.927,282.7Zm-69-98.8c-1.034.257-1.288-.68-2.078.878-.9,1.76-.091,1.558.712,2.251,1.241,1.074,3.912,2.137,5.148.069C217.271,186.4,217.966,181.884,209.924,183.9Zm62.241,103.8c-.67,1.456-1.548,7.687-1.251,8.978,1.708,7.325,8.977-10.914,8.012-13.98C277.242,281.363,273.012,285.872,272.165,287.7Zm-90.188,39.135q-3-1.408-5.877-3.019c-3.986-8.234-2.056-5.256-2.582-7.947-.48-2.488-2.329-4.9-2.784-7.112-.24-1.183.372-2.149.205-3.333-.473-3.325-1.422-.687-2.3-12.263-.387-5.927-5.3-5.672-9.341-9.484-2.714-2.553-2.84-6.538-5.1-9.372-1.439-1.79-2.266-1.717-2.362-3.635-.031-.656.778-1.245.7-2.3-.108-1.5-.753-2.007-.51-3.583.563-3.435,2.741-2.283,4.563-4.676,2.682-3.475-4.348-3.337-6.062-4.217-2.559-1.322-.927-3.309-5.448-5.407-1.526-.708-3.388-2.592-4.911-2.9-1.43-.292-1.938.421-3.322-.194-.779-.346-1.376-1.3-2.116-1.765-1.149-.72-2.934-.9-3.945-1.748-5.9-4.884-.289-39.672,21.431-63.819,9.729-.168,9.64.2,11.721,0,1.619-.154,3.584-1.1,4.969-.808,1.793.373,2.929,1.679,4.892,2.007.871.145,2.081.039,2.612.7.62.771.315,1.986,1.1,2.7.731.684,5.31,2.5.947,3.9-1.14.364-1.654.3-1.872.159.028-.611-.331-.216,0,0a3.733,3.733,0,0,1-.132.747c-.4,1.541,1.06,1.14-.916,2.6-2.371,1.742-3.64-.185-5.391-.746-2.152-.69-6.507,1.807-4.539-2.69.168-.383.692-.235.908-.568s-.194-.529-.064-.729c.532-.816,1.512-1.573,1.23-2.288-.3-.768-2.84-.507-3.6.5.189-.255.324,1.1-.046,1.659-.269.4-2.126,1.6-2.31,2.116-.283.784,2.383.739,1.5,2.016-1.014,1.453-7.705.9-9.288,1.8-10.7,6.143,2.422,6.889,2.988,7.12.627.256.6,1.078,1.149,1.357,1.266.646.557.347,2.273-.411-.543.241,2.528-1.426,2.137-.948,1.578-1.946-.682-1.619.913-4.749,4-7.823,8.809-.007,10.048-.18,1.291-.179,1.056-2.173,2.689-1.619.932.319,1.014,3.01,1.494,3.8.675,1.126,1.482,1.1,2.468,1.9.121.1,1.979,2.421,2,2.515.122,1.105-1.7,2.686-1.458,3.468.265.833,2.474.372,2.706,2.206.308,2.333-1.129,2-3.16,1.922-4.468-.178-3.328,3.643-7.781,4.649-.746.168-.845.442-1.56.414-.853-.034-.776-1.189-1.456-1.181-3.232.035-2.689,2.9-2.789,3.02-1.217,1.4-2.484,1.09-3.8,2.1-1.826,1.387-2.182,4.782-3.558,6.784-1.68,2.433-4.217,3.72-4.64,6.48-.274,1.723.438,6.615-2.352,2.865-1.248-1.678-1.674-3.967-4.794-3.489a20.854,20.854,0,0,0-2.776,1.286c-4.8,1.734-6.758.172-6.929,7.5-.035,1.53-.239,2.43,1.321,3.258,3.614,1.921,6.153-4.98,8.505-2.455,1.18,1.278-1.188,3.848-.544,5.156.755,1.545,2.509.412,3.845,1.585,2.4,2.107-2.137,6.4,2.837,7.39,8.319,1.658,2.751-5.8,11.623-2.969.2.065.5,1.158.949,1.326-.22-.082,1.559-.381,4.985-.342-.737-.009,2.048.693,1.948.235.483,1-1.423,1.678,2.17,4.132,1.134.774,2.434.911,3.6,1.578,3.212,1.834,3.456,3.635,5.213,6.391,3.15,4.918,14.587,3.114,15.324,10.762.281,2.82-2.031,5.969-2.8,8.416-.868,2.729-.178,6.272-1.163,8.889-.81,2.175-2.882,1.859-4.065,3.365-.839,1.072-.621,3-1.042,4.286-.563,1.726-1.711,3.066-2.416,4.66C181.488,320.472,180.012,321.13,181.977,326.837ZM154.947,182.8Zm-.013.043.013-.042Zm55.629-2.48c.269-.49-.057-3.55.688-3.7,2.688.293,2.79-3.178,3.27-5.437.726-3.462,1.112-3.2,3.488-5.876,1.408-1.588,2.552-4.134.081-3.765-2.007.307-3.217,2.907-4.3.384-1.1-2.639.351-4.736-2.712-4.5-3.606.283-2.943-2.884-10.282.4-2.13.956-3.668,2.389-5.417,3.5-.109.069-.247-.65-.748-.258-.353.275-1.259,2.948-3.55,3.254-5.61.757-7.14,3.056-11.228,6.6-1.726,1.5-4.574,2.048-4.441,3.779.259,2.944,8.423-.771,9.808,3.194.553,1.557-.425,3.832-.167,5.441.083.514.716.772.861,1.342.351,1.375-.317,3.366.081,4.748.847,2.97,4.367,4.505,5.271,4.287,1.619-.394,2.4-3.1,2.454-3.177.31-.5.926-.546,1.3-1.1,1.272-1.859.777-1.94,3.156-2.986,1.523-.671,2.662-1.7,4-2.381C203.779,183.29,209.629,182.025,210.563,180.36ZM154.947,182.8Z" transform="translate(-63.847 -82.918)" fill="#c0edc3"/>
          <g id="Grupo_1166985" data-name="Grupo 1166985" transform="translate(50.809 136.891)">
            <path id="Trazado_1003901" data-name="Trazado 1003901" d="M111.136,301.577c5.877,66.075,97.576,20.448,118.773,84.7C182.317,399.125,117.963,376.837,111.136,301.577Z" transform="translate(-110.944 -250.716)" fill="#009a90"/>
            <path id="Trazado_1003902" data-name="Trazado 1003902" d="M229.857,372.53c-50.889,8.283-147.882-31.215-110.658-135.56" transform="translate(-110.892 -236.969)" fill="none" stroke="#00cabe" stroke-miterlimit="10" stroke-width="1"/>
          </g>
          <g id="Grupo_1166986" data-name="Grupo 1166986" transform="translate(137.314 137.623)">
            <path id="Trazado_1003903" data-name="Trazado 1003903" d="M349.124,305.471c-6.351,72.25-105.44,22.359-128.346,92.616C272.205,412.135,341.747,387.764,349.124,305.471Z" transform="translate(-220.778 -252.276)" fill="#00cabe"/>
            <path id="Trazado_1003904" data-name="Trazado 1003904" d="M220.778,383.708C275.77,392.766,380.18,352,339.957,237.9" transform="translate(-220.778 -237.899)" fill="none" stroke="#009a90" stroke-miterlimit="10" stroke-width="1"/>
          </g>
          <g id="Grupo_1166987" data-name="Grupo 1166987" transform="translate(123.574)">
            <path id="Trazado_1003905" data-name="Trazado 1003905" d="M250.432,63.079a29.412,29.412,0,0,0-14.886,18.773,27.875,27.875,0,0,0,4.59,23.348c5.548-3.1,12.574-11.868,13.321-24.464C253.794,75.042,252.122,68.831,250.432,63.079Z" transform="translate(-210.003 -63.079)" fill="#00cabe"/>
            <path id="Trazado_1003906" data-name="Trazado 1003906" d="M251.024,195.293c18.424-35.1-15.194-62.778-9.864-100.564" transform="translate(-211.251 -69.813)" fill="none" stroke="#009a90" stroke-miterlimit="10" stroke-width="2"/>
            <path id="Trazado_1003907" data-name="Trazado 1003907" d="M272.823,96.343a23.042,23.042,0,0,0-21.173,7.8c-4.982,6.1-6.144,15.184-3.009,21.935,3.718-.089,7.237-1.763,10.277-3.906A32.633,32.633,0,0,0,272.823,96.343Z" transform="translate(-212.596 -70.096)" fill="#00cabe"/>
            <path id="Trazado_1003908" data-name="Trazado 1003908" d="M250.434,142.367c-4.437-12.076,4.685-27.657,10.42-32.641" transform="translate(-213.097 -73.004)" fill="none" stroke="#009a90" stroke-miterlimit="10" stroke-width="2"/>
            <path id="Trazado_1003909" data-name="Trazado 1003909" d="M301.983,132.815a20.131,20.131,0,0,0-14.875-2.483,16.619,16.619,0,0,0-11.412,9.988,24.048,24.048,0,0,0,14.918,1.656C295.56,140.778,300.08,137.334,301.983,132.815Z" transform="translate(-218.723 -77.28)" fill="#00cabe"/>
            <path id="Trazado_1003910" data-name="Trazado 1003910" d="M231.77,111.054c-7.871,2.07-16.558-1.705-21.6-8.09s-6.8-14.913-6.414-23.022a35.593,35.593,0,0,1,19.29,10.842A33.224,33.224,0,0,1,231.77,111.054Z" transform="translate(-203.404 -66.667)" fill="#00cabe"/>
            <path id="Trazado_1003911" data-name="Trazado 1003911" d="M237.476,156.156a24.982,24.982,0,0,0-22.723-26.085c-3.8-.34-7.616.191-11.429.527,2.348,7.326,6.509,14.2,12.527,18.986A30.516,30.516,0,0,0,237.476,156.156Z" transform="translate(-203.324 -77.31)" fill="#00cabe"/>
            <path id="Trazado_1003912" data-name="Trazado 1003912" d="M303.847,98.472a25.563,25.563,0,0,0-21.256,6.711,24.859,24.859,0,0,0-7.35,21.144C289.064,124.092,300.9,112.592,303.847,98.472Z" transform="translate(-218.577 -70.55)" fill="#00cabe"/>
            <path id="Trazado_1003913" data-name="Trazado 1003913" d="M252.93,183.965a43.035,43.035,0,0,0-5.1-15.576,73.652,73.652,0,0,0-24.678-27.253" transform="translate(-207.542 -79.687)" fill="none" stroke="#009a90" stroke-miterlimit="10" stroke-width="2"/>
            <path id="Trazado_1003914" data-name="Trazado 1003914" d="M260.188,169.853a74.7,74.7,0,0,1,30.248-61.847" transform="translate(-215.415 -72.638)" fill="none" stroke="#009a90" stroke-miterlimit="10" stroke-width="2"/>
            <path id="Trazado_1003915" data-name="Trazado 1003915" d="M262.934,155.6c3.807-11.326,16.073-20.747,27.427-21.354" transform="translate(-216.007 -78.221)" fill="none" stroke="#009a90" stroke-miterlimit="10" stroke-width="2"/>
            <path id="Trazado_1003916" data-name="Trazado 1003916" d="M240.525,127.932a33.385,33.385,0,0,0-6.771-14.024,56.237,56.237,0,0,0-10.606-9.335" transform="translate(-207.542 -71.908)" fill="none" stroke="#009a90" stroke-miterlimit="10" stroke-width="2"/>
            <path id="Trazado_1003917" data-name="Trazado 1003917" d="M285.707,154.7c-7.633,1.206-23.654,5.874-27.785,14.3-3.032,6.187-1.937,13.869,1.553,20.5,3.387.351,6.757-.88,9.716-2.565C280.3,180.614,286.907,167.207,285.707,154.7Z" transform="translate(-214.565 -82.573)" fill="#00cabe"/>
            <path id="Trazado_1003918" data-name="Trazado 1003918" d="M252.308,151.533a13.458,13.458,0,0,1-.053-10.783,14.321,14.321,0,0,1,8.273-7.517c.537,2.9,1.075,5.884.512,8.78A13.063,13.063,0,0,1,252.308,151.533Z" transform="translate(-213.501 -78.006)" fill="#00cabe"/>
            <path id="Trazado_1003919" data-name="Trazado 1003919" d="M241.162,132.377a14.959,14.959,0,0,0-7.233-7.828,29.83,29.83,0,0,0-10.44-2.926c2.191,3,4.2,6.225,7.076,8.574S237.5,133.889,241.162,132.377Z" transform="translate(-207.615 -75.536)" fill="#00cabe"/>
            <path id="Trazado_1003920" data-name="Trazado 1003920" d="M246.83,171.749a27,27,0,0,0-26.129-4.583c1.232,5.132,6.274,8.818,11.523,9.366S242.743,174.9,246.83,171.749Z" transform="translate(-207.021 -84.897)" fill="#00cabe"/>
          </g>
          <path id="Trazado_1003921" data-name="Trazado 1003921" d="M245.43,212.783c42.227,1.175,68.579,1.4,110.805,2.579,3.037.084,26.966,2.277,28.1-.542-6.162-2.466-17.181-5.086-23.8-4.531,6.491-2.307,7.764-12.77,2.015-16.566s-14.871,1.482-14.446,8.357a12.275,12.275,0,0,0-6.193-13.406c-1.807-.916-3.994-1.493-5.023-3.239-.908-1.539-.591-3.465-.649-5.25-.278-8.609-10.806-14.4-18.966-11.637s-13.059,11.73-13.159,20.342c-2.148-4.857-7.315-14.26-14.516-10.206-4.727,2.662-3.824,9.576-5.429,14.758-1.9,6.137-9.2,12.505-14.927,9.587-7.647-3.9-13.924.205-14.413,4.795-10.861-2.984-23.8,2.491-34.809,4.879C231.757,214.931,236.546,212.536,245.43,212.783Z" transform="translate(-83.304 -85.373)" fill="#fff"/>
          <path id="Trazado_1003922" data-name="Trazado 1003922" d="M140.895,186.357c26.483,0,52.964-.627,79.43-1.578,1.862-.067,4.054-.328,4.958-1.957-1.487-2.214-4.605-2.66-7.232-2.2s-5.125,1.614-7.786,1.794c-3.755.255-2.762-2.318-1.967-3.323,2.93-3.709-1.116-8.615-5.363-8.941-4.653-.358-6.869,4.771-6.869,6.366-1.731-8.471-9.34-12.291-13.609-12.951-7.459-1.153-11.079,2.377-11.51,5.732a4.294,4.294,0,0,1-5.359,3.5,12.435,12.435,0,0,1-4.248-2.154,35.378,35.378,0,0,1-4.789-4.987c-3.27-4.7-11.2-5-14.814-.563s-1.728,12.14,3.531,14.4c-6.517-4.266-12.37-3.453-13.214.3C131.522,182.165,133.7,186.357,140.895,186.357Z" transform="translate(-64.569 -84.116)" fill="#fff"/>
          <g id="Grupo_1166988" data-name="Grupo 1166988" transform="translate(56.853 125.823)">
            <path id="Trazado_1003923" data-name="Trazado 1003923" d="M137.421,329.569l6.361,6.531,25.394-35.817,8.234,7.207,3.813-28.132-25.257,9.162,9.655,8.461Z" transform="translate(-122.58 -234.92)" fill="#ff8961"/>
            <path id="Trazado_1003924" data-name="Trazado 1003924" d="M118.569,295.095l7.734,7.94,40.423-54.686,10.01,8.761,4.635-34.2-30.707,11.138L162.4,244.334Z" transform="translate(-118.569 -222.909)" fill="#ff8961"/>
          </g>
          <path id="Trazado_1003925" data-name="Trazado 1003925" d="M184.454,345.437c-42,.64-68.2.62-110.2,1.261-3.021.046-26.883,1.674-27.9-.671,6.219-1.995,17.27-4.079,23.821-3.567a7.485,7.485,0,0,1-1.357-13.747c5.859-3.1,14.719,1.345,14.028,7.041-1.033-4.289,1.878-9.11,6.676-11.062,1.831-.745,4.027-1.207,5.117-2.645.961-1.268.723-2.867.849-4.346.612-7.134,11.3-11.846,19.3-9.5a17.187,17.187,0,0,1,12.282,16.966c2.323-4.009,7.823-11.762,14.821-8.345,4.593,2.244,3.427,7.967,4.819,12.276,1.649,5.1,8.657,10.438,14.458,8.064,7.75-3.172,13.828.281,14.135,4.088,10.908-2.388,23.554,2.253,34.4,4.32C197.957,347.325,193.292,345.3,184.454,345.437Z" transform="translate(-46.35 -115.105)" fill="#fff"/>
          <g id="Grupo_1166989" data-name="Grupo 1166989" transform="translate(45.379 28.213)">
            <path id="Trazado_1003926" data-name="Trazado 1003926" d="M143.829,121.227a17.786,17.786,0,0,0-.264-2.944l4.486-1.458-1.619-4.984-4.484,1.457a17.858,17.858,0,0,0-3.458-4.773l2.766-3.807-4.24-3.08-2.766,3.808a17.676,17.676,0,0,0-5.607-1.81V98.917H123.4v4.719a17.676,17.676,0,0,0-5.607,1.81l-2.766-3.807-4.24,3.08,2.766,3.807A17.835,17.835,0,0,0,110.1,113.3l-4.485-1.457-1.619,4.985,4.487,1.458a16.576,16.576,0,0,0,0,5.89l-4.487,1.458,1.619,4.985,4.484-1.457a17.858,17.858,0,0,0,3.457,4.773l-2.766,3.808,4.24,3.08,2.766-3.808a17.676,17.676,0,0,0,5.607,1.81v4.719h5.241v-4.719a17.676,17.676,0,0,0,5.607-1.81l2.766,3.808,4.24-3.08-2.766-3.808a17.842,17.842,0,0,0,3.458-4.772l4.484,1.457,1.619-4.984-4.486-1.458A17.754,17.754,0,0,0,143.829,121.227Zm-17.806,7.988a7.987,7.987,0,1,1,7.987-7.987A7.987,7.987,0,0,1,126.023,129.215Z" transform="translate(-103.994 -98.917)" fill="#006eae"/>
          </g>
          <g id="Grupo_1166990" data-name="Grupo 1166990" transform="translate(275.108 147.516)">
            <path id="Trazado_1003927" data-name="Trazado 1003927" d="M417.837,262.8a9.9,9.9,0,0,0-.146-1.628l2.481-.806-.9-2.755-2.479.805a9.881,9.881,0,0,0-1.911-2.639l1.53-2.105-2.344-1.7-1.53,2.105a9.762,9.762,0,0,0-3.1-1v-2.609h-2.9v2.609a9.763,9.763,0,0,0-3.1,1l-1.53-2.105-2.344,1.7,1.529,2.1a9.879,9.879,0,0,0-1.911,2.638l-2.479-.805-.9,2.755,2.481.806a9.174,9.174,0,0,0,0,3.256l-2.481.806.9,2.755,2.479-.805a9.865,9.865,0,0,0,1.911,2.639l-1.53,2.105,2.344,1.7,1.53-2.105a9.764,9.764,0,0,0,3.1,1v2.609h2.9v-2.609a9.764,9.764,0,0,0,3.1-1l1.53,2.105,2.344-1.7-1.53-2.105a9.862,9.862,0,0,0,1.911-2.638l2.479.805.9-2.755-2.481-.806A9.887,9.887,0,0,0,417.837,262.8Zm-9.844,4.416a4.416,4.416,0,1,1,4.416-4.416A4.415,4.415,0,0,1,407.992,267.217Z" transform="translate(-395.814 -250.466)" fill="#006eae"/>
          </g>
          <g id="Grupo_1166991" data-name="Grupo 1166991" transform="translate(114.061 204.694)">
            <path id="Trazado_1003928" data-name="Trazado 1003928" d="M213.262,335.433a9.9,9.9,0,0,0-.146-1.628L215.6,333l-.9-2.755-2.479.805a9.882,9.882,0,0,0-1.911-2.639l1.53-2.105-2.344-1.7-1.53,2.105a9.763,9.763,0,0,0-3.1-1V323.1h-2.9v2.609a9.763,9.763,0,0,0-3.1,1l-1.53-2.105-2.344,1.7,1.529,2.1a9.878,9.878,0,0,0-1.911,2.638l-2.479-.805-.9,2.755,2.481.806a9.172,9.172,0,0,0,0,3.256l-2.481.806.9,2.755,2.479-.805a9.866,9.866,0,0,0,1.911,2.639l-1.53,2.105,2.344,1.7,1.53-2.105a9.764,9.764,0,0,0,3.1,1v2.609h2.9v-2.609a9.764,9.764,0,0,0,3.1-1l1.53,2.105,2.344-1.7-1.53-2.105a9.862,9.862,0,0,0,1.911-2.638l2.479.805.9-2.755-2.481-.806A9.726,9.726,0,0,0,213.262,335.433Zm-9.843,4.416a4.416,4.416,0,1,1,4.416-4.416A4.415,4.415,0,0,1,203.418,339.849Z" transform="translate(-191.239 -323.098)" fill="#006eae"/>
          </g>
          <g id="Grupo_1166998" data-name="Grupo 1166998" transform="translate(31.11 43.778)">
            <g id="Grupo_1166993" data-name="Grupo 1166993" transform="translate(36.298)">
              <ellipse id="Elipse_11757" data-name="Elipse 11757" cx="23.137" cy="24.912" rx="23.137" ry="24.912" transform="translate(0 1.965)" fill="#006eae"/>
              <ellipse id="Elipse_11758" data-name="Elipse 11758" cx="23.137" cy="24.912" rx="23.137" ry="24.912" fill="#009a90"/>
              <g id="Grupo_1166992" data-name="Grupo 1166992" transform="translate(8.327 7.809)">
                <ellipse id="Elipse_11759" data-name="Elipse 11759" cx="8.895" cy="9.577" rx="8.895" ry="9.577" transform="translate(5.478)" fill="#fff"/>
                <path id="Trazado_1003929" data-name="Trazado 1003929" d="M157.783,155.693c-5.995-.079-11.789,3.752-15.228,9.8a18.788,18.788,0,0,0,29.622-.44C169.259,159.6,163.663,155.77,157.783,155.693Z" transform="translate(-142.555 -134.371)" fill="#fff"/>
              </g>
            </g>
            <g id="Grupo_1166995" data-name="Grupo 1166995" transform="translate(207.19 121.405)">
              <circle id="Elipse_11760" data-name="Elipse 11760" cx="29.466" cy="29.466" r="29.466" transform="translate(4.579 65.09) rotate(-80.892)" fill="#006eae"/>
              <circle id="Elipse_11761" data-name="Elipse 11761" cx="29.466" cy="29.466" r="29.466" transform="translate(0 22.046) rotate(-21.968)" fill="#f7b900"/>
              <g id="Grupo_1166994" data-name="Grupo 1166994" transform="translate(19.484 18.119)">
                <circle id="Elipse_11762" data-name="Elipse 11762" cx="11.327" cy="11.327" r="11.327" transform="translate(6.976)" fill="#fff"/>
                <path id="Trazado_1003930" data-name="Trazado 1003930" d="M393.2,327.961c-7.635-.093-15.012,4.438-19.393,11.594a25.08,25.08,0,0,0,37.723-.52A22.063,22.063,0,0,0,393.2,327.961Z" transform="translate(-373.809 -302.74)" fill="#fff"/>
              </g>
            </g>
            <g id="Grupo_1166997" data-name="Grupo 1166997" transform="translate(3.216 171.945)">
              <circle id="Elipse_11763" data-name="Elipse 11763" cx="24.829" cy="24.829" r="24.829" transform="translate(0 50.221) rotate(-76.39)" fill="#006eae"/>
              <circle id="Elipse_11764" data-name="Elipse 11764" cx="24.829" cy="24.829" r="24.829" transform="translate(0 48.263) rotate(-76.39)" fill="#00c5e1"/>
              <g id="Grupo_1166996" data-name="Grupo 1166996" transform="translate(14.089 11.587)">
                <circle id="Elipse_11765" data-name="Elipse 11765" cx="9.545" cy="9.545" r="9.545" transform="translate(4.529 2.938) rotate(-8.853)" fill="#fff"/>
                <path id="Trazado_1003931" data-name="Trazado 1003931" d="M124.192,380.541c-6.432-.078-12.65,3.739-16.341,9.77a21.133,21.133,0,0,0,31.787-.439A18.589,18.589,0,0,0,124.192,380.541Z" transform="translate(-107.851 -357.936)" fill="#fff"/>
              </g>
            </g>
            <path id="Trazado_1003932" data-name="Trazado 1003932" d="M98.94,310.613c-23.791-42.682-13.947-108.684,20.127-142.758" transform="translate(-85.869 -129.15)" fill="none" stroke="#35494f" stroke-miterlimit="10" stroke-width="2" stroke-dasharray="4 4 4 4 4 4"/>
            <path id="Trazado_1003933" data-name="Trazado 1003933" d="M200.723,274.017c27.761,32.638,71.368,44.951,114.928,38.69" transform="translate(-110.307 -151.739)" fill="none" stroke="#35494f" stroke-miterlimit="10" stroke-width="2" stroke-dasharray="4 4 4 4 4 4"/>
            <path id="Trazado_1003934" data-name="Trazado 1003934" d="M164.913,188.346a149.539,149.539,0,0,0,6.3,27.964" transform="translate(-102.687 -133.51)" fill="none" stroke="#35494f" stroke-miterlimit="10" stroke-width="2" stroke-dasharray="4 4 4 4 4 4"/>
            <path id="Trazado_1003935" data-name="Trazado 1003935" d="M150.1,400.721s98.007,75.4,190.058-31.469" transform="translate(-99.535 -172.002)" fill="none" stroke="#35494f" stroke-miterlimit="10" stroke-width="2" stroke-dasharray="4 4 4 4 4 4"/>
          </g>
          <path id="Trazado_1003936" data-name="Trazado 1003936" d="M393.395,369.421c-6.532-10.284-17.08-1.859-.284,16.91,6.561-5.87,12.148-16.271,8.053-20.089C398.678,363.927,395.63,366.336,393.395,369.421Z" transform="translate(-118.208 -127.317)" fill="#ff8961"/>
          <path id="Trazado_1003937" data-name="Trazado 1003937" d="M130.38,189.481c-4.311-6.786-11.272-1.227-.187,11.16,4.329-3.874,8.017-10.738,5.314-13.258C133.867,185.855,131.856,187.445,130.38,189.481Z" transform="translate(-62.921 -89.352)" fill="#ff8961"/>
          <path id="Trazado_1003938" data-name="Trazado 1003938" d="M83.335,352c-4.311-6.786-11.272-1.226-.188,11.16,4.329-3.874,8.017-10.738,5.314-13.258C86.822,348.373,84.811,349.963,83.335,352Z" transform="translate(-52.91 -123.931)" fill="#ff8961"/>
          <g id="Grupo_1167003" data-name="Grupo 1167003" transform="translate(21.515 113.501)">
            <g id="Grupo_1167001" data-name="Grupo 1167001">
              <g id="Grupo_1166999" data-name="Grupo 1166999">
                <path id="Trazado_1003939" data-name="Trazado 1003939" d="M122.379,231.608a24.351,24.351,0,1,0-38.051,20.131,7.392,7.392,0,0,1,3.179,6.121v.575a7.487,7.487,0,0,0,7.487,7.487h6.07a7.487,7.487,0,0,0,7.487-7.487v-.574a7.612,7.612,0,0,1,3.342-6.235A24.316,24.316,0,0,0,122.379,231.608Z" transform="translate(-73.68 -207.257)" fill="#fff"/>
              </g>
              <g id="Grupo_1167000" data-name="Grupo 1167000" transform="translate(4.975 8.547)">
                <path id="Trazado_1003940" data-name="Trazado 1003940" d="M118.749,237.489a19.375,19.375,0,1,0-30.276,16.018A5.881,5.881,0,0,1,91,258.378v.457a5.957,5.957,0,0,0,5.957,5.957h4.83a5.957,5.957,0,0,0,5.957-5.957v-.457a6.056,6.056,0,0,1,2.659-4.96A19.352,19.352,0,0,0,118.749,237.489Z" transform="translate(-79.999 -218.114)" fill="#f7b900"/>
              </g>
              <path id="Trazado_1003941" data-name="Trazado 1003941" d="M93.065,289.575v-1.429a2.009,2.009,0,0,1,2.008-2.009h14.161a2.008,2.008,0,0,1,2.008,2.009v1.429a2.008,2.008,0,0,1-2.008,2.008H95.073A2.008,2.008,0,0,1,93.065,289.575Z" transform="translate(-77.804 -224.041)" fill="#009a90"/>
              <path id="Trazado_1003942" data-name="Trazado 1003942" d="M91.695,282.657v-1.429A2.008,2.008,0,0,1,93.7,279.22h16.318a2.009,2.009,0,0,1,2.009,2.008v1.429a2.008,2.008,0,0,1-2.009,2.008H93.7A2.007,2.007,0,0,1,91.695,282.657Z" transform="translate(-77.513 -222.569)" fill="#009a90"/>
              <path id="Trazado_1003943" data-name="Trazado 1003943" d="M96.826,292.343l1.091,2.648,9.4.271,1.763-3.081Z" transform="translate(-78.605 -225.327)" fill="#006eae"/>
            </g>
            <g id="Grupo_1167002" data-name="Grupo 1167002" transform="translate(16.653 17.22)">
              <path id="Trazado_1003944" data-name="Trazado 1003944" d="M101.224,257.18a13.47,13.47,0,0,1-5.537-16.089c2.138-5.468,7.653-9.551,13.934-11.96,2.3,4.953,2.717,13.31,1.223,18.268S105.953,253.9,101.224,257.18Z" transform="translate(-94.833 -229.132)" fill="#009a90"/>
              <path id="Trazado_1003945" data-name="Trazado 1003945" d="M103.148,255.2c0-6.6,3.3-17.022,7.388-23.12" transform="translate(-96.603 -229.758)" fill="none" stroke="#b5e6b8" stroke-miterlimit="10" stroke-width="1"/>
            </g>
          </g>
          <path id="Trazado_1003946" data-name="Trazado 1003946" d="M135.542,149.185" transform="translate(-65.328 -81.4)" fill="none" stroke="#b5e6b8" stroke-miterlimit="10" stroke-width="1"/>
          <g id="Grupo_1167004" data-name="Grupo 1167004" transform="translate(204.505 50.523)">
            <path id="Trazado_1003947" data-name="Trazado 1003947" d="M306.129,153.2c0-7.494,5.844-18.2,10.018-25.944,4.771,6.576,14.143,18.449,14.143,25.944s-5.408,13.57-12.081,13.57S306.129,160.7,306.129,153.2Z" transform="translate(-306.129 -127.258)" fill="#00c5e1"/>
            <path id="Trazado_1003948" data-name="Trazado 1003948" d="M331.064,162.334c.34-2.316-1.807-4.247-3.761-3.287l-.032.016a7.677,7.677,0,0,0-3.878,4.968,14.7,14.7,0,0,0,.213,6.636,11.569,11.569,0,0,0,6.232-4.86A9.492,9.492,0,0,0,331.064,162.334Z" transform="translate(-309.739 -133.968)" fill="#fff"/>
          </g>
          <g id="Grupo_1167005" data-name="Grupo 1167005" transform="translate(227.196 24.454)">
            <path id="Trazado_1003949" data-name="Trazado 1003949" d="M334.953,111.56c0-5.031,3.923-12.217,6.725-17.417,3.2,4.415,9.495,12.385,9.495,17.417s-3.631,9.11-8.11,9.11S334.953,116.592,334.953,111.56Z" transform="translate(-334.953 -94.143)" fill="#00c5e1"/>
            <path id="Trazado_1003950" data-name="Trazado 1003950" d="M351.93,116.6a1.964,1.964,0,0,0-2.606-2.278l-.022.011a5.323,5.323,0,0,0-2.688,3.443,10.174,10.174,0,0,0,.148,4.6,8.02,8.02,0,0,0,4.32-3.369A6.565,6.565,0,0,0,351.93,116.6Z" transform="translate(-337.39 -98.398)" fill="#fff"/>
          </g>
          <g id="Grupo_1167006" data-name="Grupo 1167006" transform="translate(188.386 2.91)">
            <path id="Trazado_1003951" data-name="Trazado 1003951" d="M285.653,80.922c0-4.087,3.186-9.922,5.462-14.146,2.6,3.586,7.711,10.059,7.711,14.146s-2.949,7.4-6.587,7.4S285.653,85.008,285.653,80.922Z" transform="translate(-285.653 -66.776)" fill="#00c5e1"/>
            <path id="Trazado_1003952" data-name="Trazado 1003952" d="M299.235,84.967a1.479,1.479,0,0,0-1.963-1.715l-.017.009a4.009,4.009,0,0,0-2.024,2.592,7.669,7.669,0,0,0,.111,3.463,6.04,6.04,0,0,0,3.253-2.536A4.935,4.935,0,0,0,299.235,84.967Z" transform="translate(-287.658 -70.254)" fill="#fff"/>
          </g>
          <g id="Grupo_1167007" data-name="Grupo 1167007" transform="translate(36.472 6.43)">
            <path id="Trazado_1003953" data-name="Trazado 1003953" d="M172.469,97.743a3.6,3.6,0,1,1,3.6,3.6A3.6,3.6,0,0,1,172.469,97.743Z" transform="translate(-109.657 -76.119)" fill="#ff8961"/>
            <path id="Trazado_1003954" data-name="Trazado 1003954" d="M150.1,77.248a5.533,5.533,0,1,1,5.533,5.533A5.533,5.533,0,0,1,150.1,77.248Z" transform="translate(-104.897 -71.347)" fill="#ff8961"/>
            <path id="Trazado_1003955" data-name="Trazado 1003955" d="M177.866,74.2a2.951,2.951,0,1,1,2.951,2.951A2.95,2.95,0,0,1,177.866,74.2Z" transform="translate(-110.805 -71.247)" fill="#00c5e1"/>
            <path id="Trazado_1003956" data-name="Trazado 1003956" d="M92.68,171.633a3.777,3.777,0,1,1,3.777,3.777A3.777,3.777,0,0,1,92.68,171.633Z" transform="translate(-92.68 -91.803)" fill="#006eae"/>
            <path id="Trazado_1003957" data-name="Trazado 1003957" d="M369.011,117.668a3.777,3.777,0,1,1,3.777,3.777A3.777,3.777,0,0,1,369.011,117.668Z" transform="translate(-151.476 -80.32)" fill="#006eae"/>
            <circle id="Elipse_11766" data-name="Elipse 11766" cx="1.846" cy="1.846" r="1.846" transform="translate(33.742 277.052)" fill="#ff8961"/>
            <circle id="Elipse_11767" data-name="Elipse 11767" cx="1.846" cy="1.846" r="1.846" transform="translate(208.862 7.453)" fill="#ff8961"/>
            <circle id="Elipse_11768" data-name="Elipse 11768" cx="4.696" cy="4.696" r="4.696" transform="translate(9.272 272.356)" fill="#00c5e1"/>
            <path id="Trazado_1003958" data-name="Trazado 1003958" d="M407.555,181.035a3.584,3.584,0,1,1,3.584,3.584A3.584,3.584,0,0,1,407.555,181.035Z" transform="translate(-159.677 -93.844)" fill="#00c5e1"/>
            <path id="Trazado_1003959" data-name="Trazado 1003959" d="M374.471,412.371a3.145,3.145,0,1,1,3.145,3.144A3.144,3.144,0,0,1,374.471,412.371Z" transform="translate(-152.637 -143.16)" fill="#006eae"/>
            <path id="Trazado_1003960" data-name="Trazado 1003960" d="M320.394,86.205a3.145,3.145,0,1,1,3.144,3.144A3.144,3.144,0,0,1,320.394,86.205Z" transform="translate(-141.131 -73.761)" fill="#006eae"/>
          </g>
        </g>
        <g id="Grupo_1167010" data-name="Grupo 1167010" transform="translate(126.334 123.78)">
          <g id="Grupo_1167009" data-name="Grupo 1167009">
            <text id="CSR" transform="translate(0 70)" fill="#fff" font-size="65" font-family="SegoeUI, Segoe UI"><tspan x="0" y="0">CSR</tspan></text>
          </g>
        </g>
      </g>
    </g>
  </g>
</svg>
