<svg xmlns="http://www.w3.org/2000/svg" xmlns:xlink="http://www.w3.org/1999/xlink" width="400" height="236" viewBox="0 0 400 236">
  <defs>
    <clipPath id="clip-path">
      <rect id="Rectángulo_413461" data-name="Rectángulo 413461" width="400" height="236" fill="#fff" stroke="#707070" stroke-width="1" opacity="0.63"/>
    </clipPath>
    <linearGradient id="linear-gradient" x1="0.5" y1="0.903" x2="0.5" y2="0.245" gradientUnits="objectBoundingBox">
      <stop offset="0" stop-color="#fff" stop-opacity="0"/>
      <stop offset="1" stop-color="#fff"/>
    </linearGradient>
    <linearGradient id="linear-gradient-3" x1="0.5" y1="0.903" x2="0.5" y2="0.245" xlink:href="#linear-gradient"/>
    <linearGradient id="linear-gradient-4" x1="0.5" y1="0.802" x2="0.5" y2="-0.346" xlink:href="#linear-gradient"/>
  </defs>
  <g id="Enmascarar_grupo_1098775" data-name="Enmascarar grupo 1098775" clip-path="url(#clip-path)">
    <g id="Grupo_1167144" data-name="Grupo 1167144" transform="translate(24.203 -49.208)">
      <g id="OBJECTS" transform="translate(0)">
        <g id="Grupo_1167048" data-name="Grupo 1167048" transform="translate(0 79.796)">
          <path id="Trazado_1004082" data-name="Trazado 1004082" d="M16.144,188.086A10.768,10.768,0,0,1,31.18,173.693a22.286,22.286,0,0,1,38.175,8.777c.066,0,.13-.01.2-.01a11.215,11.215,0,1,1-5.29,21.1,22.281,22.281,0,0,1-24.492,5.647,15.846,15.846,0,0,1-23.625-21.125Z" transform="translate(270.827 -139.837)" fill="url(#linear-gradient)"/>
          <path id="Trazado_1004083" data-name="Trazado 1004083" d="M205.413,196.464a10.768,10.768,0,0,1,15.036-14.393,22.286,22.286,0,0,1,38.175,8.777c.066,0,.13-.01.2-.01a11.215,11.215,0,1,1-5.29,21.1,22.281,22.281,0,0,1-24.492,5.647,15.846,15.846,0,0,1-23.625-21.125Z" transform="translate(-35.829 -143.019)" fill="url(#linear-gradient)"/>
          <path id="Trazado_1004084" data-name="Trazado 1004084" d="M109.5,161.467a10.768,10.768,0,0,1,15.036-14.394,22.285,22.285,0,0,1,38.175,8.777c.066,0,.13-.01.2-.01a11.215,11.215,0,1,1-5.29,21.1,22.281,22.281,0,0,1-24.492,5.647A15.846,15.846,0,0,1,109.5,161.467Z" transform="translate(119.577 -129.727)" fill="url(#linear-gradient-3)"/>
          <path id="Trazado_1004085" data-name="Trazado 1004085" d="M30.294,226.591A31.729,31.729,0,0,1,74.6,184.178,65.667,65.667,0,0,1,187.09,210.041c.194,0,.381-.029.576-.029A32.98,32.98,0,0,1,213.534,222.5a25.228,25.228,0,0,1,36.385-11.721,52.252,52.252,0,0,1,89.51,20.579c.154,0,.3-.023.458-.023a26.3,26.3,0,1,1-12.4,49.483,52.244,52.244,0,0,1-57.427,13.241,37.155,37.155,0,0,1-64.688-23.105A33.022,33.022,0,0,1,172.08,272.2a65.656,65.656,0,0,1-72.169,16.64,46.694,46.694,0,0,1-69.617-62.247Z" transform="translate(-18.558 -138.249)" fill="url(#linear-gradient-4)"/>
          <path id="Trazado_1004086" data-name="Trazado 1004086" d="M444.46,145.648A10.768,10.768,0,0,1,459.5,131.255a22.286,22.286,0,0,1,38.175,8.777c.066,0,.13-.01.2-.01a11.215,11.215,0,1,1-5.29,21.1,22.281,22.281,0,0,1-24.492,5.647,15.846,15.846,0,0,1-23.625-21.125Z" transform="translate(-423.137 -123.72)" fill="url(#linear-gradient)"/>
        </g>
        <g id="Grupo_1167135" data-name="Grupo 1167135" transform="translate(18.028 0)">
          <g id="Grupo_1167052" data-name="Grupo 1167052" transform="translate(16.011)">
            <g id="Grupo_1167049" data-name="Grupo 1167049">
              <circle id="Elipse_11787" data-name="Elipse 11787" cx="111.452" cy="111.452" r="111.452" transform="translate(157.617 315.234) rotate(-135)" fill="none" stroke="#fff" stroke-linecap="round" stroke-miterlimit="10" stroke-width="3" stroke-dasharray="6.049 14.114"/>
            </g>
            <g id="Grupo_1167051" data-name="Grupo 1167051" transform="translate(17.163 120.436)">
              <g id="Grupo_1167050" data-name="Grupo 1167050">
                <path id="Trazado_1004087" data-name="Trazado 1004087" d="M326.8,323.878a122.513,122.513,0,0,0,22.486-90.3c-1.061-7.028-2.433-14.427-6.252-20.545a16.29,16.29,0,0,0-6.728-6.4,11.672,11.672,0,0,0-9.267-.071c-6.157,2.521-10.328,8.549-15.076,12.936a30.307,30.307,0,0,1-19.075,8.164,29.741,29.741,0,0,1-19.878-6.05c-6.483-5.052-10.987-12.192-16.924-17.83-5.724-5.436-12.556-10.1-20.345-11.9-7.061-1.629-14.963-.825-21.1,3.21-11.726,7.707-11.26,23.943-17.136,35.361a24.869,24.869,0,0,1-5.755,7.572,6.21,6.21,0,0,1-4.985,1.811c-1.955-.3-3.551-1.574-5.1-2.713C175,232.215,167.6,227.21,159.2,226.146c-16.758-2.122-29.293,13.265-34.835,27.257-6.65,16.79-6.117,35.247-3.369,52.8.721,4.6,1.586,9.18,2.5,13.747.235,1.169-1.558,1.67-1.794.495-3.66-18.222-6.5-37.119-2.684-55.561,3.157-15.237,11.5-32.006,26.526-38.524,7.573-3.286,15.613-2.645,23.08.615a64.453,64.453,0,0,1,11.055,6.438c1.753,1.228,3.422,2.641,5.259,3.741a4.978,4.978,0,0,0,2.782.885,5.34,5.34,0,0,0,3.108-1.69c5.03-4.624,7.206-11.325,9.061-17.7,1.867-6.415,3.485-13.179,7.331-18.76A24.918,24.918,0,0,1,224.882,189.5a34.834,34.834,0,0,1,21.727,4.77c7.125,4.083,12.915,9.96,18.184,16.175a71.379,71.379,0,0,0,8.767,9.241,26.729,26.729,0,0,0,10.155,5.2,29.02,29.02,0,0,0,21.608-2.7c6.192-3.546,10.243-9.684,15.744-14.089a18.357,18.357,0,0,1,8.393-4.138,13.313,13.313,0,0,1,9.04,1.747c5.665,3.45,8.659,10.254,10.351,16.4a107.808,107.808,0,0,1,3.457,23.335,125.246,125.246,0,0,1-17.354,69.589q-3.026,5.063-6.55,9.8c-.706.953-2.322.025-1.606-.938Z" transform="translate(-117.204 -189.246)" fill="#fff"/>
              </g>
            </g>
            <path id="Trazado_1004088" data-name="Trazado 1004088" d="M125.656,132.642a3.575,3.575,0,1,0,3.575-3.575A3.575,3.575,0,0,0,125.656,132.642Z" transform="translate(114.357 -45.955)" fill="#fff"/>
            <path id="Trazado_1004089" data-name="Trazado 1004089" d="M235.256,69.864a3.575,3.575,0,1,0,3.575-3.575A3.575,3.575,0,0,0,235.256,69.864Z" transform="translate(-63.218 -22.112)" fill="#fff"/>
          </g>
          <g id="Grupo_1167109" data-name="Grupo 1167109" transform="translate(0 154.508)">
            <path id="Trazado_1004090" data-name="Trazado 1004090" d="M363.373,374.549H72.474s-10.943-75.929,23.48-84.573,59.588,28.756,78.181,6.216,27.322-58.25,63.815-51.074,26.086,16.843,56.593,7.134,50.875,52.024,50.875,52.024Z" transform="translate(-66.19 -244.181)" fill="#5e50f5"/>
            <g id="Grupo_1167086" data-name="Grupo 1167086" transform="translate(6.152 1.981)">
              <g id="Grupo_1167055" data-name="Grupo 1167055" transform="translate(96.575 82.058)">
                <path id="Trazado_1004091" data-name="Trazado 1004091" d="M366.293,392.121h0a1.19,1.19,0,0,0-1.168,1.113l-.81,20.282,4.384-.071-1.2-20.272A1.191,1.191,0,0,0,366.293,392.121Z" transform="translate(-356.272 -384.406)" fill="#e7e7e7"/>
                <g id="Grupo_1167053" data-name="Grupo 1167053" transform="translate(10.028)">
                  <path id="Trazado_1004092" data-name="Trazado 1004092" d="M359.9,388.519s2.659-9.2,4.691-8.826S361.1,387.225,359.9,388.519Z" transform="translate(-359.905 -379.681)" fill="#fff"/>
                </g>
                <g id="Grupo_1167054" data-name="Grupo 1167054" transform="translate(10.028 8.837)">
                  <path id="Trazado_1004093" data-name="Trazado 1004093" d="M359.454,393.93s6.58,6.954,5.232,8.516S359.965,395.614,359.454,393.93Z" transform="translate(-359.454 -393.93)" fill="#fff"/>
                </g>
                <path id="Trazado_1004094" data-name="Trazado 1004094" d="M378.211,393.417s-9.329,2.149-9.993.194S376.5,393,378.211,393.417Z" transform="translate(-368.183 -384.58)" fill="#fff"/>
                <path id="Trazado_1004095" data-name="Trazado 1004095" d="M366.982,393.583a.734.734,0,1,0,.722-.745A.735.735,0,0,0,366.982,393.583Z" transform="translate(-357.676 -384.678)" fill="#5e50f5"/>
              </g>
              <g id="Grupo_1167058" data-name="Grupo 1167058" transform="translate(78.831 87.478)">
                <path id="Trazado_1004096" data-name="Trazado 1004096" d="M394.9,400.86h0a1.191,1.191,0,0,0-1.168,1.113l-.81,20.282,4.384-.071-1.2-20.272A1.191,1.191,0,0,0,394.9,400.86Z" transform="translate(-384.881 -393.145)" fill="#e7e7e7"/>
                <g id="Grupo_1167056" data-name="Grupo 1167056" transform="translate(10.028)">
                  <path id="Trazado_1004097" data-name="Trazado 1004097" d="M388.514,397.258s2.659-9.2,4.691-8.826S389.706,395.965,388.514,397.258Z" transform="translate(-388.514 -388.421)" fill="#fff"/>
                </g>
                <g id="Grupo_1167057" data-name="Grupo 1167057" transform="translate(10.028 8.837)">
                  <path id="Trazado_1004098" data-name="Trazado 1004098" d="M388.063,402.669s6.58,6.953,5.232,8.516S388.574,404.352,388.063,402.669Z" transform="translate(-388.063 -402.669)" fill="#fff"/>
                </g>
                <path id="Trazado_1004099" data-name="Trazado 1004099" d="M406.82,402.156s-9.329,2.149-9.993.194S405.109,401.744,406.82,402.156Z" transform="translate(-396.792 -393.319)" fill="#fff"/>
                <path id="Trazado_1004100" data-name="Trazado 1004100" d="M395.591,402.322a.734.734,0,1,0,.722-.746A.734.734,0,0,0,395.591,402.322Z" transform="translate(-386.286 -393.417)" fill="#5e50f5"/>
              </g>
              <g id="Grupo_1167061" data-name="Grupo 1167061" transform="translate(141.912 1.313)">
                <path id="Trazado_1004101" data-name="Trazado 1004101" d="M293.2,261.932h0a1.19,1.19,0,0,0-1.168,1.113l-.81,20.282,4.384-.071-1.2-20.272A1.19,1.19,0,0,0,293.2,261.932Z" transform="translate(-283.174 -254.217)" fill="#e7e7e7"/>
                <g id="Grupo_1167059" data-name="Grupo 1167059" transform="translate(10.028)">
                  <path id="Trazado_1004102" data-name="Trazado 1004102" d="M286.807,258.33s2.66-9.2,4.691-8.826S288,257.036,286.807,258.33Z" transform="translate(-286.807 -249.492)" fill="#fff"/>
                </g>
                <g id="Grupo_1167060" data-name="Grupo 1167060" transform="translate(10.028 8.837)">
                  <path id="Trazado_1004103" data-name="Trazado 1004103" d="M286.356,263.741s6.58,6.953,5.231,8.516S286.867,265.424,286.356,263.741Z" transform="translate(-286.356 -263.741)" fill="#fff"/>
                </g>
                <path id="Trazado_1004104" data-name="Trazado 1004104" d="M305.113,263.228s-9.329,2.149-9.993.194S303.4,262.815,305.113,263.228Z" transform="translate(-295.085 -254.391)" fill="#fff"/>
                <path id="Trazado_1004105" data-name="Trazado 1004105" d="M293.883,263.393a.734.734,0,1,0,.722-.745A.735.735,0,0,0,293.883,263.393Z" transform="translate(-284.577 -254.489)" fill="#5e50f5"/>
              </g>
              <g id="Grupo_1167064" data-name="Grupo 1167064" transform="translate(232.26 21.462)">
                <path id="Trazado_1004106" data-name="Trazado 1004106" d="M147.523,294.419h0a1.19,1.19,0,0,0-1.169,1.113l-.81,20.282,4.384-.071-1.2-20.272A1.189,1.189,0,0,0,147.523,294.419Z" transform="translate(-137.501 -286.704)" fill="#e7e7e7"/>
                <g id="Grupo_1167062" data-name="Grupo 1167062" transform="translate(10.028)">
                  <path id="Trazado_1004107" data-name="Trazado 1004107" d="M141.133,290.817s2.659-9.2,4.691-8.826S142.326,289.523,141.133,290.817Z" transform="translate(-141.133 -281.979)" fill="#fff"/>
                </g>
                <g id="Grupo_1167063" data-name="Grupo 1167063" transform="translate(10.028 8.837)">
                  <path id="Trazado_1004108" data-name="Trazado 1004108" d="M140.683,296.228s6.58,6.953,5.232,8.516S141.194,297.911,140.683,296.228Z" transform="translate(-140.683 -296.228)" fill="#fff"/>
                </g>
                <path id="Trazado_1004109" data-name="Trazado 1004109" d="M159.44,295.715s-9.329,2.149-9.993.194S157.73,295.3,159.44,295.715Z" transform="translate(-149.412 -286.878)" fill="#fff"/>
                <path id="Trazado_1004110" data-name="Trazado 1004110" d="M148.21,295.88a.734.734,0,1,0,.722-.745A.734.734,0,0,0,148.21,295.88Z" transform="translate(-138.904 -286.976)" fill="#5e50f5"/>
              </g>
              <g id="Grupo_1167067" data-name="Grupo 1167067" transform="translate(113.97 94.318)">
                <path id="Trazado_1004111" data-name="Trazado 1004111" d="M338.247,411.888h0A1.191,1.191,0,0,0,337.079,413l-.81,20.282,4.384-.071-1.2-20.272A1.191,1.191,0,0,0,338.247,411.888Z" transform="translate(-328.226 -404.173)" fill="#e7e7e7"/>
                <g id="Grupo_1167065" data-name="Grupo 1167065" transform="translate(10.028)">
                  <path id="Trazado_1004112" data-name="Trazado 1004112" d="M331.858,408.287s2.659-9.2,4.691-8.826S333.051,406.993,331.858,408.287Z" transform="translate(-331.858 -399.449)" fill="#fff"/>
                </g>
                <g id="Grupo_1167066" data-name="Grupo 1167066" transform="translate(10.028 8.837)">
                  <path id="Trazado_1004113" data-name="Trazado 1004113" d="M331.408,413.7s6.58,6.953,5.231,8.516S331.919,415.381,331.408,413.7Z" transform="translate(-331.408 -413.698)" fill="#fff"/>
                </g>
                <path id="Trazado_1004114" data-name="Trazado 1004114" d="M350.165,413.185s-9.329,2.149-9.993.194S348.454,412.772,350.165,413.185Z" transform="translate(-340.137 -404.348)" fill="#fff"/>
                <path id="Trazado_1004115" data-name="Trazado 1004115" d="M338.935,413.35a.734.734,0,1,0,.722-.745A.734.734,0,0,0,338.935,413.35Z" transform="translate(-329.629 -404.446)" fill="#5e50f5"/>
              </g>
              <g id="Grupo_1167069" data-name="Grupo 1167069" transform="translate(216.493)">
                <g id="Grupo_1167068" data-name="Grupo 1167068">
                  <path id="Trazado_1004116" data-name="Trazado 1004116" d="M181.612,266.434v4.241L179,270.5v-4.068Z" transform="translate(-174.166 -254.614)" fill="#ff6733"/>
                  <path id="Trazado_1004117" data-name="Trazado 1004117" d="M175.429,247.376l5.914,6.217-2.957.342,4.468,3.306-3.249.342,3.648,3.477-12.654-.684,2.85-3.477-1.938.171,2.342-3.42-1.544.285Z" transform="translate(-170.599 -247.376)" fill="#00bf8b"/>
                </g>
              </g>
              <g id="Grupo_1167071" data-name="Grupo 1167071" transform="translate(72.504 58.894)">
                <g id="Grupo_1167070" data-name="Grupo 1167070">
                  <path id="Trazado_1004118" data-name="Trazado 1004118" d="M413.772,361.392v4.242l-2.615-.173v-4.069Z" transform="translate(-406.326 -349.572)" fill="#ff6733"/>
                  <path id="Trazado_1004119" data-name="Trazado 1004119" d="M407.591,342.334l5.914,6.217-2.957.342,4.468,3.306-3.249.342,3.648,3.477-12.654-.683,2.851-3.478-1.938.171,2.341-3.42-1.544.285Z" transform="translate(-402.76 -342.334)" fill="#00bf8b"/>
                </g>
              </g>
              <g id="Grupo_1167073" data-name="Grupo 1167073" transform="translate(85.239 67.089)">
                <g id="Grupo_1167072" data-name="Grupo 1167072">
                  <path id="Trazado_1004120" data-name="Trazado 1004120" d="M393.239,374.6v4.242l-2.616-.173V374.6Z" transform="translate(-385.793 -362.785)" fill="#ff6733"/>
                  <path id="Trazado_1004121" data-name="Trazado 1004121" d="M387.056,355.547l5.914,6.216-2.957.342,4.467,3.306-3.249.342,3.648,3.477-12.654-.684,2.85-3.477-1.938.171,2.342-3.421-1.544.285Z" transform="translate(-382.226 -355.547)" fill="#00bf8b"/>
                </g>
              </g>
              <g id="Grupo_1167075" data-name="Grupo 1167075" transform="translate(66.176 74.028)">
                <g id="Grupo_1167074" data-name="Grupo 1167074">
                  <path id="Trazado_1004122" data-name="Trazado 1004122" d="M423.974,385.791v4.242l-2.616-.173v-4.069Z" transform="translate(-416.527 -373.972)" fill="#ff6733"/>
                  <path id="Trazado_1004123" data-name="Trazado 1004123" d="M417.792,366.734l5.914,6.217-2.957.342,4.467,3.306-3.249.342,3.648,3.477-12.655-.684,2.85-3.477-1.938.171,2.342-3.42-1.544.285Z" transform="translate(-412.961 -366.734)" fill="#00bf8b"/>
                </g>
              </g>
              <g id="Grupo_1167077" data-name="Grupo 1167077" transform="translate(36.564 33.536)">
                <g id="Grupo_1167076" data-name="Grupo 1167076">
                  <path id="Trazado_1004124" data-name="Trazado 1004124" d="M471.72,320.5v4.242l-2.615-.173V320.5Z" transform="translate(-464.274 -308.685)" fill="#ff6733"/>
                  <path id="Trazado_1004125" data-name="Trazado 1004125" d="M465.539,301.447l5.914,6.216-2.957.342,4.468,3.306-3.249.342,3.648,3.477-12.654-.684,2.85-3.477-1.938.171,2.341-3.42-1.544.285Z" transform="translate(-460.708 -301.447)" fill="#00bf8b"/>
                </g>
              </g>
              <g id="Grupo_1167079" data-name="Grupo 1167079" transform="translate(0 78.635)">
                <g id="Grupo_1167078" data-name="Grupo 1167078">
                  <path id="Trazado_1004126" data-name="Trazado 1004126" d="M530.674,393.221v4.242l-2.616-.173v-4.069Z" transform="translate(-523.228 -381.401)" fill="#ff6733"/>
                  <path id="Trazado_1004127" data-name="Trazado 1004127" d="M524.491,374.163l5.914,6.217-2.957.342,4.467,3.306-3.249.342,3.648,3.478-12.654-.684,2.85-3.478-1.938.171,2.342-3.42-1.544.285Z" transform="translate(-519.661 -374.163)" fill="#00bf8b"/>
                </g>
              </g>
              <g id="Grupo_1167081" data-name="Grupo 1167081" transform="translate(50.386 38.565)">
                <g id="Grupo_1167080" data-name="Grupo 1167080">
                  <path id="Trazado_1004128" data-name="Trazado 1004128" d="M449.433,328.613v4.242l-2.616-.174v-4.069Z" transform="translate(-441.986 -316.794)" fill="#ff6733"/>
                  <path id="Trazado_1004129" data-name="Trazado 1004129" d="M443.252,309.556l5.914,6.217-2.957.342,4.468,3.306-3.249.342,3.648,3.477-12.654-.684,2.85-3.478-1.938.171,2.341-3.42-1.543.285Z" transform="translate(-438.421 -309.556)" fill="#00bf8b"/>
                </g>
              </g>
              <g id="Grupo_1167083" data-name="Grupo 1167083" transform="translate(230.947 3.789)">
                <g id="Grupo_1167082" data-name="Grupo 1167082">
                  <path id="Trazado_1004130" data-name="Trazado 1004130" d="M158.307,272.543v4.242l-2.616-.173v-4.069Z" transform="translate(-150.86 -260.723)" fill="#ff6733"/>
                  <path id="Trazado_1004131" data-name="Trazado 1004131" d="M152.125,253.485l5.914,6.217-2.957.342,4.467,3.306-3.249.342,3.648,3.477-12.655-.683,2.85-3.477-1.938.171,2.342-3.42-1.544.285Z" transform="translate(-147.294 -253.485)" fill="#00bf8b"/>
                </g>
              </g>
              <g id="Grupo_1167085" data-name="Grupo 1167085" transform="translate(252.481 27.986)">
                <g id="Grupo_1167084" data-name="Grupo 1167084">
                  <path id="Trazado_1004132" data-name="Trazado 1004132" d="M123.587,311.556V315.8l-2.616-.173v-4.069Z" transform="translate(-116.141 -299.737)" fill="#ff6733"/>
                  <path id="Trazado_1004133" data-name="Trazado 1004133" d="M117.4,292.5l5.914,6.216-2.957.342,4.468,3.306-3.249.342,3.648,3.477-12.654-.684,2.85-3.477-1.938.171,2.342-3.42-1.544.285Z" transform="translate(-112.574 -292.499)" fill="#00bf8b"/>
                </g>
              </g>
            </g>
            <g id="Grupo_1167097" data-name="Grupo 1167097" transform="translate(228.972 52.816)">
              <path id="Trazado_1004134" data-name="Trazado 1004134" d="M72.711,406.891h44.2s24.214-14.072,21.064-21.112-18.505-4.263-18.505-4.263,22.417-14.983,18.788-22.857S119.27,357.2,119.27,357.2s15.159-22.948,7.087-27.082-23.427,9.267-26.773,17.233c0,0,2.362-19.192-4.725-15.26s-12.6,29.205-12.6,29.205,1.133-21.335-3.863-20.351S65.525,376.771,72.711,406.891Z" transform="translate(-69.821 -329.339)" fill="#00bf8b"/>
              <g id="Grupo_1167088" data-name="Grupo 1167088" transform="translate(6.486 6.678)">
                <g id="Grupo_1167087" data-name="Grupo 1167087">
                  <path id="Trazado_1004135" data-name="Trazado 1004135" d="M143.071,341.112c-6.793,8.348-12.706,17.39-18.711,26.309-5.8,8.611-11.488,17.308-16.55,26.376-2.864,5.129-5.517,10.375-7.871,15.758-.295.674-1.282.091-.989-.578a212.16,212.16,0,0,1,14.907-27.59c5.61-8.947,11.565-17.689,17.551-26.388,3.453-5.018,7.005-9.971,10.852-14.7.465-.572,1.271.243.81.811Z" transform="translate(-98.897 -340.107)" fill="#283851"/>
                </g>
              </g>
              <g id="Grupo_1167090" data-name="Grupo 1167090" transform="translate(22.215 9.038)">
                <g id="Grupo_1167089" data-name="Grupo 1167089">
                  <path id="Trazado_1004136" data-name="Trazado 1004136" d="M142.992,344.629a115,115,0,0,0-1.278,35.3c.086.731-1.06.724-1.146,0a116.008,116.008,0,0,1,1.319-35.6c.14-.723,1.244-.417,1.1.3Z" transform="translate(-139.772 -343.911)" fill="#283851"/>
                </g>
              </g>
              <g id="Grupo_1167092" data-name="Grupo 1167092" transform="translate(5.932 27.977)">
                <g id="Grupo_1167091" data-name="Grupo 1167091">
                  <path id="Trazado_1004137" data-name="Trazado 1004137" d="M161.457,375a76,76,0,0,0,5.45,36.435c.282.68-.827.977-1.1.3A76.821,76.821,0,0,1,160.312,375c.07-.728,1.216-.736,1.146,0Z" transform="translate(-159.959 -374.448)" fill="#283851"/>
                </g>
              </g>
              <g id="Grupo_1167094" data-name="Grupo 1167094" transform="translate(22.939 35.63)">
                <g id="Grupo_1167093" data-name="Grupo 1167093">
                  <path id="Trazado_1004138" data-name="Trazado 1004138" d="M123.5,387.827a158.182,158.182,0,0,1-31.663,9.66c-.72.139-1.029-.964-.3-1.1a156.854,156.854,0,0,0,31.389-9.545c.671-.284,1.256.7.579.989Z" transform="translate(-91.121 -386.787)" fill="#283851"/>
                </g>
              </g>
              <g id="Grupo_1167096" data-name="Grupo 1167096" transform="translate(9.219 58.908)">
                <g id="Grupo_1167095" data-name="Grupo 1167095">
                  <path id="Trazado_1004139" data-name="Trazado 1004139" d="M136.5,425.467c-11.5,4.581-23.7,6.96-35.9,8.8-3.476.525-6.959,1.008-10.442,1.49-.721.1-1.033-1-.3-1.1,12.234-1.694,24.532-3.4,36.413-6.881q5.042-1.476,9.933-3.411c.685-.272.982.835.3,1.105Z" transform="translate(-89.435 -424.319)" fill="#283851"/>
                </g>
              </g>
            </g>
            <g id="Grupo_1167108" data-name="Grupo 1167108" transform="translate(0 43.715)">
              <path id="Trazado_1004140" data-name="Trazado 1004140" d="M502.967,410.551s-11.408-17.8-17.229-11.647C480.573,404.367,496.941,412,502.967,410.551Z" transform="translate(-462.506 -346.167)" fill="#ffba55"/>
              <path id="Trazado_1004141" data-name="Trazado 1004141" d="M515.259,426.034s-10.352-8.223-14.812-3.889S507.259,431.325,515.259,426.034Z" transform="translate(-483.908 -355.006)" fill="#ffba55"/>
              <path id="Trazado_1004142" data-name="Trazado 1004142" d="M534.7,359.132s-13.793-27.306-23.112-20.316C503.035,345.233,526.53,362.282,534.7,359.132Z" transform="translate(-509.743 -323.403)" fill="#ffba55"/>
              <path id="Trazado_1004143" data-name="Trazado 1004143" d="M438.184,369.793s-6.941-29.566,3.329-28.239C451.722,342.872,443.81,366.746,438.184,369.793Z" transform="translate(-375.686 -324.861)" fill="#ffba55"/>
              <path id="Trazado_1004144" data-name="Trazado 1004144" d="M501.226,348.051s-26.842-25.865-15.773-32.321C496.472,309.3,499.513,333.458,501.226,348.051Z" transform="translate(-459.544 -314.666)" fill="#ffba55"/>
              <g id="Grupo_1167099" data-name="Grupo 1167099" transform="translate(30.981 9.834)">
                <g id="Grupo_1167098" data-name="Grupo 1167098">
                  <path id="Trazado_1004145" data-name="Trazado 1004145" d="M422.063,330.943a219.279,219.279,0,0,0,34.632,60.942q6.2,7.7,13.077,14.817c.556.576-.323,1.457-.88.88a220.364,220.364,0,0,1-40.258-57.963q-4.3-8.991-7.771-18.345c-.279-.752.924-1.077,1.2-.331Z" transform="translate(-420.821 -330.521)" fill="#283851"/>
                </g>
              </g>
              <g id="Grupo_1167101" data-name="Grupo 1167101" transform="translate(60.624 27.511)">
                <g id="Grupo_1167100" data-name="Grupo 1167100">
                  <path id="Trazado_1004146" data-name="Trazado 1004146" d="M449.493,359.8a336.327,336.327,0,0,0-3.215,36.555c-.027.8-1.271.8-1.245,0a339.479,339.479,0,0,1,3.259-36.886c.114-.79,1.312-.453,1.2.331Z" transform="translate(-445.033 -359.023)" fill="#283851"/>
                </g>
              </g>
              <g id="Grupo_1167103" data-name="Grupo 1167103" transform="translate(14.841 27.762)">
                <g id="Grupo_1167102" data-name="Grupo 1167102">
                  <path id="Trazado_1004147" data-name="Trazado 1004147" d="M503.97,378.972a83.6,83.6,0,0,1-33.838-18.5c-.6-.536.285-1.414.88-.88a82.45,82.45,0,0,0,25.312,15.554,83.632,83.632,0,0,0,7.977,2.625.623.623,0,0,1-.331,1.2Z" transform="translate(-469.933 -359.427)" fill="#283851"/>
                </g>
              </g>
              <g id="Grupo_1167105" data-name="Grupo 1167105" transform="translate(34.044 61.038)">
                <g id="Grupo_1167104" data-name="Grupo 1167104">
                  <path id="Trazado_1004148" data-name="Trazado 1004148" d="M441.2,413.152a120.006,120.006,0,0,0,32.616,10.919c.787.143.453,1.342-.331,1.2a121.139,121.139,0,0,1-32.913-11.044c-.715-.361-.086-1.435.628-1.075Z" transform="translate(-440.26 -413.08)" fill="#283851"/>
                </g>
              </g>
              <g id="Grupo_1167107" data-name="Grupo 1167107" transform="translate(24.358 67.393)">
                <g id="Grupo_1167106" data-name="Grupo 1167106">
                  <path id="Trazado_1004149" data-name="Trazado 1004149" d="M494.948,424.557a68.732,68.732,0,0,1-24,2.975c-.8-.043-.8-1.288,0-1.245a67.693,67.693,0,0,0,23.666-2.931c.767-.237,1.095.964.331,1.2Z" transform="translate(-470.351 -423.326)" fill="#283851"/>
                </g>
              </g>
            </g>
          </g>
          <g id="Grupo_1167134" data-name="Grupo 1167134" transform="translate(19.672 54.927)">
            <g id="Grupo_1167114" data-name="Grupo 1167114" transform="translate(48.059 80.312)">
              <g id="Grupo_1167110" data-name="Grupo 1167110" transform="translate(0)">
                <path id="Trazado_1004150" data-name="Trazado 1004150" d="M266.586,297.256a89.083,89.083,0,0,0,26.34,2.106c14.177-.95,28.909-5.2,43.787-12.623a14.652,14.652,0,1,0-13.087-26.219c-11.354,5.667-22.311,8.9-32.569,9.6a59.313,59.313,0,0,1-25.027-3.588,71.333,71.333,0,0,1-21.456-13.051,105.888,105.888,0,0,1-16.093-17.685,122.441,122.441,0,0,1-13.222-22.681l.014.033-27.146,11.035c.868,2.135,21.779,52.487,67.414,69.71A87.865,87.865,0,0,0,266.586,297.256Z" transform="translate(-188.127 -213.113)" fill="#b6c8da"/>
              </g>
              <g id="Grupo_1167113" data-name="Grupo 1167113" transform="translate(86.268 40.287)">
                <path id="Trazado_1004151" data-name="Trazado 1004151" d="M161.969,387.419h78.2s12.09-77.62,7.106-85.743-19.957-15.754-19.957-15.754l-3.126-7.852-28.2,1L188.5,289.441l-17.221,5.12c-4.124,8.5-6.546,21.419-7.934,34.946-.872,8.477-1.338,17.191-1.565,25.2-.007.25-.014.5-.021.749C161.281,373.267,161.969,387.419,161.969,387.419Z" transform="translate(-161.59 -278.07)" fill="#fff"/>
                <path id="Trazado_1004152" data-name="Trazado 1004152" d="M257.675,289.368l1.351,15.3L254,311.724l2.511,71.582L246.083,389.8l-7.057-10.446,10-69.806,1.051-9.707Z" transform="translate(-220.166 -282.361)" fill="#ff6733"/>
                <g id="Grupo_1167112" data-name="Grupo 1167112" transform="translate(26.646 6.192)">
                  <g id="Grupo_1167111" data-name="Grupo 1167111">
                    <path id="Trazado_1004153" data-name="Trazado 1004153" d="M233.859,290.437l-9.079,4.885-14.469,7.785-3.318,1.785a.848.848,0,0,1-1.26-.723l-1.182-13.38-.169-1.919,1.56.422-7.6,10.472a.85.85,0,0,1-1.53-.2l-2.408-6.928c-.354-1.02,1.263-1.458,1.614-.445l2.408,6.928-1.53-.2,7.6-10.472a.845.845,0,0,1,1.56.422l1.182,13.38.169,1.919-1.26-.723,9.079-4.885,14.469-7.785,3.318-1.785c.949-.509,1.8.936.845,1.447Z" transform="translate(-194.356 -288.053)" fill="#283851"/>
                  </g>
                </g>
              </g>
            </g>
            <g id="Grupo_1167116" data-name="Grupo 1167116" transform="translate(0 29.41)">
              <path id="Trazado_1004154" data-name="Trazado 1004154" d="M343.855,185.126c0,.32,0,.638.009.956a54.007,54.007,0,0,0,3.033,16.968v0q.364,1.036.769,2.052a54.182,54.182,0,0,0,40.7,33.259q1.163.208,2.342.367a54.173,54.173,0,0,0,7.229.48h.141c.564,0,1.129-.011,1.689-.032A54.123,54.123,0,0,0,451.24,175.9,53.545,53.545,0,0,0,447,162.334q-.364-.777-.748-1.54-.408-.808-.842-1.6c-.076-.143-.154-.284-.234-.424-.092-.166-.185-.333-.282-.5-.19-.331-.381-.659-.579-.986-.072-.122-.145-.242-.219-.362-.127-.207-.253-.411-.381-.611-.1-.162-.2-.323-.308-.483s-.207-.318-.312-.478q-.471-.714-.967-1.411c-.089-.124-.175-.249-.265-.373-.04-.059-.082-.116-.124-.175-.092-.127-.185-.251-.278-.377-.175-.238-.352-.472-.531-.706s-.36-.468-.541-.7q-.607-.768-1.24-1.512a54.173,54.173,0,0,0-7.366-7.162,53.892,53.892,0,0,0-30.652-11.8q-1.582-.091-3.191-.092c-.3,0-.6,0-.906.009a54.1,54.1,0,0,0-10.688,1.237q-2.145.471-4.227,1.106a53.984,53.984,0,0,0-21.185,12.295q-.663.622-1.308,1.268a54.2,54.2,0,0,0-10.858,15.616c-.265.577-.52,1.163-.767,1.753q-.493,1.182-.931,2.391t-.815,2.431a53.758,53.758,0,0,0-1.727,7.439q-.142.894-.255,1.8c-.053.425-.1.851-.143,1.281-.057.556-.1,1.116-.143,1.679Q343.856,183.215,343.855,185.126Z" transform="translate(-343.854 -131.042)" fill="#64d1ee"/>
              <g id="Grupo_1167115" data-name="Grupo 1167115" transform="translate(0 1.438)">
                <path id="Trazado_1004155" data-name="Trazado 1004155" d="M370.232,146.567l1.8,4.52a2.122,2.122,0,0,0,1.165,1.177l9.685,3.971a2.119,2.119,0,0,1,1.19,1.236l1.371,3.768a2.123,2.123,0,0,0,2.576,1.314l1.721-.493a2.119,2.119,0,0,0,1.432-1.377l4.676-14.268a2.122,2.122,0,0,1,2.062-1.46l4.025.084a2.119,2.119,0,0,0,1.7-.8l1.264-1.586a2.124,2.124,0,0,0-.44-3.061l-5.8-4.067a2.094,2.094,0,0,0-.923-.365l-6.329-.891A54.008,54.008,0,0,0,370.232,146.567Zm12.428,64.53,8.369-3.456a.245.245,0,0,0,.139-.149l1.091-3.273a.249.249,0,0,1,.229-.169l3.229-.053a.241.241,0,0,0,.154-.057l3.987-3.277a.265.265,0,0,1,.124-.053l5.731-.765a.252.252,0,0,1,.192.055l2.827,2.365a.246.246,0,0,0,.344-.027l.788-.9a.249.249,0,0,1,.291-.059l1.516.72a.245.245,0,0,0,.3-.068l1.325-1.618a.245.245,0,0,0,.05-.2l-.48-2.5a.247.247,0,0,1,.259-.293l3.412.228h.017a.245.245,0,0,0,.223-.345l-.756-1.691a.112.112,0,0,1-.012-.036l-.43-1.542a.246.246,0,0,1,.27-.309l1.9.259a.25.25,0,0,1,.211.2l.131.84a.249.249,0,0,0,.166.2l2.168.733a.249.249,0,0,0,.27-.078l2.011-2.456a.251.251,0,0,0,.053-.187l-.343-2.631-.006-.055a.332.332,0,0,1,0-.061l.112-.923a.244.244,0,0,0-.107-.232l-2.171-1.464a.234.234,0,0,0-.124-.042l-5.276-.257a.242.242,0,0,0-.208.1l-.145.194a.243.243,0,0,1-.314.069l-.345-.184a.246.246,0,0,0-.335.1l-1.662,3.153a.245.245,0,0,1-.394.055l-.5-.518a.243.243,0,0,1-.059-.243l1.03-3.427a.243.243,0,0,0-.08-.261l-3.686-3.048a.247.247,0,0,1-.068-.288l.533-1.211a.248.248,0,0,0-.069-.291l-6.744-5.462-.754-.611a.247.247,0,0,1-.091-.177l-.086-1.595a.248.248,0,0,1,.08-.2l1.062-.963a.244.244,0,0,0,.082-.192l-.023-.632a.246.246,0,0,0-.246-.236h-3.888a.236.236,0,0,1-.113-.029l-2.835-1.472a.244.244,0,0,1-.082-.368l5.742-7.442a.245.245,0,0,1,.368-.021l1.792,1.812a.247.247,0,0,0,.362-.015l3.444-4.066a.25.25,0,0,1,.2-.086l2.628.172a.248.248,0,0,1,.228.293c-.236,1.219-1.163,6.1-.923,6.157a15.525,15.525,0,0,1,1.734,1.009.247.247,0,0,1,.11.255l-.427,2.248a.244.244,0,0,0,.173.282l.935.273a.246.246,0,0,0,.3-.148l1.247-3.225a.248.248,0,0,1,.128-.137l7.519-3.362a.249.249,0,0,0,.095-.377l-5.481-7.1a.243.243,0,0,0-.154-.092l-2.37-.4a.24.24,0,0,1-.16-.1l-.573-.815a.251.251,0,0,1-.032-.215l.744-2.378a.244.244,0,0,1,.234-.172h1.812a.246.246,0,0,1,.232.162l.807,2.23a.245.245,0,0,0,.409.086l2.976-3.1a.115.115,0,0,0,.025-.03l1.154-1.658a.248.248,0,0,1,.333-.069l1.489.925a.247.247,0,0,1,.057.371l-1.75,2.022a.247.247,0,0,0,.061.375l1.281.745a.258.258,0,0,0,.137.033l11.9-.613a.186.186,0,0,0,.048-.006l5.991-1.544a10.95,10.95,0,0,1,6,.148l.807.251a5.75,5.75,0,0,0,2.909.133l.252-.053a53.91,53.91,0,0,1,5.864,9.182l-3.271.92q-.473.136-.935.3a14.878,14.878,0,0,0-7.126,5.361l-2.408,3.357a8.087,8.087,0,0,0-.948,1.738,8.178,8.178,0,0,0-.573,2.62l-.128,2.57a8.016,8.016,0,0,1-2.823,5.712l-.293.249a9.025,9.025,0,0,0-1.177,1.2,8.837,8.837,0,0,0-.84,1.226l-2.942,5.148a.806.806,0,0,1-.8.4l-.187-.025a.8.8,0,0,1-.689-.9.818.818,0,0,1,.158-.381l3.063-4.008a.356.356,0,1,0-.569-.427l-5.306,7.1a.257.257,0,0,0-.044.2l.135.6a.247.247,0,0,1-.133.276l-5.74,2.791a.249.249,0,0,1-.183.012l-1.249-.4a.252.252,0,0,0-.238.05l-1.951,1.734a.248.248,0,0,1-.135.061l-2.079.249a.246.246,0,0,0-.154.08l-3.661,4.08a.245.245,0,0,1-.244.074l-2.068-.531a.247.247,0,0,0-.305.207l-.32,2.511a.246.246,0,0,0,.047.179l1.858,2.485a2.73,2.73,0,0,1,.543,1.7l-.029,1.323a2.716,2.716,0,0,1-.388,1.34l-3.088,5.169a.259.259,0,0,1-.078.08l-3.41,2.23a.246.246,0,0,0-.109.24l2.628,19.3.021.219h-.141a54.285,54.285,0,0,1-7.229-.48l-10.746-14.9a.248.248,0,0,0-.118-.089l-2.454-.863a3.4,3.4,0,0,1-2.035-1.965l-3.138-8.023A2.065,2.065,0,0,1,382.659,211.1Zm19.432-55.244-1.919,1.394a.439.439,0,0,1-.634-.129l-.871-1.452a.437.437,0,0,1,.079-.548l3.838-3.538a.45.45,0,0,1,.125-.081l4.216-1.793a.439.439,0,0,0,.151-.107l2.087-2.271a.439.439,0,0,1,.311-.141l6.621-.169a.439.439,0,0,1,.4.24l1.208,2.385a.438.438,0,0,1-.092.519l-1.683,1.564a.439.439,0,0,1-.321.117l-5.922-.306a.439.439,0,0,0-.316.112l-3.224,2.911a.438.438,0,0,0,0,.654L407.6,156.5a.442.442,0,0,0,.224.105l1.557.242a.439.439,0,0,1,.369.478l-.056.548a.438.438,0,0,1-.492.39l-2.187-.28a.436.436,0,0,0-.331.094l-2.562,2.063a.441.441,0,0,1-.169.084l-2.419.6a.438.438,0,0,1-.516-.27l-.656-1.73a.438.438,0,0,1,.128-.491l2.138-1.8a.439.439,0,0,0-.54-.69Zm39.2-6.326-1.668.987a.273.273,0,0,1-.242.017l-1.542-.632a.269.269,0,0,1-.112-.085l-.661-.848a.273.273,0,0,0-.441.32l.38.562a.273.273,0,0,1-.012.323l-1.8,2.268a.273.273,0,0,1-.159.1l-4.277.872a.273.273,0,0,1-.172-.021l-1.857-.889a.268.268,0,0,0-.166-.022l-2.861.515a.272.272,0,0,1-.3-.154l-.452-.986a.272.272,0,0,1,.131-.359l1.949-.928a.272.272,0,0,0,.154-.217l.321-3.027a.272.272,0,0,1,.328-.238l1.755.377a.273.273,0,0,1,.212.309l-.066.417a.272.272,0,0,0,.336.306l3.8-.969a.3.3,0,0,0,.07-.029l1.968-1.148a.267.267,0,0,1,.1-.034l2.492-.356a.26.26,0,0,1,.085,0l1.719.3a.272.272,0,0,1,.194.4l-.206.386a.272.272,0,0,0,.006.267l1.092,1.852A.272.272,0,0,1,441.29,149.528Zm-22.212-8.571a.6.6,0,0,1-.4.151h-1.7a.6.6,0,0,0-.571.411l-.056.169a.6.6,0,0,0,.384.762l1.65.538a.6.6,0,0,0,.283.022l2.605-.427a.6.6,0,0,1,.232,1.18l-1.745.4a.6.6,0,0,0-.448.436l-.233.9a.6.6,0,0,1-.582.452h-7.111a.6.6,0,0,1-.519-.3l-3.432-5.866a.606.606,0,0,0-.216-.216l-7.064-4.109a.6.6,0,0,1,.23-1.117l8.136-.983a.6.6,0,0,1,.2.009l9.842,2.1a.6.6,0,0,1,.232.1l2.873,2.122a.6.6,0,0,1,.042.934Zm-7.508,18.063-.247-.154a.282.282,0,0,1,0-.476L414.4,156.4a.281.281,0,0,1,.4.1l1.022,1.9a.282.282,0,0,1-.094.37l-.991.649a.281.281,0,0,1-.306,0l-1.289-.827a.281.281,0,0,0-.267-.02l-1.038.463A.284.284,0,0,1,411.569,159.02Zm.925.337.91.292a.282.282,0,0,1,.184.349l-.076.255a.282.282,0,0,1-.308.2l-.2-.027a.279.279,0,0,1-.152-.071l-.5-.454a.282.282,0,0,1-.034-.381C412.386,159.428,412.461,159.346,412.494,159.357Zm-1.4,1.666-.148.032a.282.282,0,0,1-.337-.226l-.078-.437a.282.282,0,0,1,.277-.331h.226a.281.281,0,0,1,.282.282v.4A.282.282,0,0,1,411.1,161.023Zm-1.482-2.218.237.047a.282.282,0,0,1,.216.35l-.016.06a.282.282,0,0,1-.332.2l-.229-.05a.282.282,0,0,1-.218-.318l.009-.056A.282.282,0,0,1,409.617,158.805Zm-1.03-3.724-.832-.416a.282.282,0,0,1-.112-.4l.408-.639a.282.282,0,0,1,.34-.11c.218.086.56.215.8.307a.282.282,0,0,1,.151.393l-.384.746A.282.282,0,0,1,408.587,155.082Zm12.58-5.8a.31.31,0,0,1-.3.223H420.5a.311.311,0,0,1-.3-.238l-.146-.613a.31.31,0,0,0-.289-.238l-.739-.031a.311.311,0,0,1-.24-.13l-.833-1.168a.31.31,0,0,1,.252-.491h2.623a.311.311,0,0,1,.3.244l.3,1.391a.308.308,0,0,1-.006.154Zm.615-.14v-.816a.311.311,0,0,1,.129-.252l.5-.359a.31.31,0,0,0,.129-.238l.024-.533a.311.311,0,0,1,.361-.292l2.064.341a.31.31,0,0,1,.2.122l.75,1.015a.31.31,0,0,1-.063.433L423.5,150.35a.31.31,0,0,1-.378,0l-1.218-.956A.311.311,0,0,1,421.781,149.145Zm-1.176-3.205a.31.31,0,0,1-.089.013h-.406a.31.31,0,0,1-.277-.452l.383-.75a.311.311,0,0,1,.276-.169h.972a.31.31,0,0,1,.282.18l.189.409a.31.31,0,0,1-.193.427Zm4.687-2.579.24.316a.31.31,0,0,0,.436.059,8.187,8.187,0,0,1,1.137-.794,1.2,1.2,0,0,1,.275.249.31.31,0,0,1-.027.449l-1.413,1.19a.31.31,0,0,1-.284.061l-.678-.192a.31.31,0,0,0-.394.307l0,.151a.31.31,0,0,1-.31.319h-1.133a.311.311,0,0,1-.3-.229l-.3-1.125a.311.311,0,0,1,.03-.234l.335-.59a.309.309,0,0,1,.287-.156l1.869.1A.3.3,0,0,1,425.292,143.36Zm13.856.871-2.418.562a.192.192,0,0,1-.179-.051l-1.7-1.68a.192.192,0,0,1-.015-.257l.034-.042a.193.193,0,0,0-.053-.287l-.187-.109a.192.192,0,0,1,.009-.337l.316-.163a.192.192,0,0,1,.2.011l.35.233a.193.193,0,0,0,.107.032h1.2a.19.19,0,0,1,.1.026l2.4,1.4a.192.192,0,0,1,.086.227l-.1.312A.2.2,0,0,1,439.149,144.231Zm-3.464.908-1.77.32a.192.192,0,0,0-.125.081l-.442.645a.193.193,0,0,1-.2.078l-2.762-.669a.2.2,0,0,0-.034,0l-1.879-.109a.192.192,0,0,1-.167-.12l-.362-.889a.192.192,0,0,1,.178-.265h1.172a.192.192,0,0,0,.168-.1l.633-1.136a.193.193,0,0,1,.287-.058l.71.552a.192.192,0,0,1,.02.285l-.553.577a.193.193,0,0,0,.156.325l.746-.068a.188.188,0,0,0,.061-.016l2.686-1.2a.193.193,0,0,1,.216.042l1.366,1.4A.193.193,0,0,1,435.685,145.139Zm-8.768-.5a.311.311,0,0,1,.3.052l.18.148a.31.31,0,0,1,.076.389l-.045.082a.31.31,0,0,1-.272.161h-.278a.311.311,0,0,1-.292-.206l-.056-.159a.31.31,0,0,1,.188-.4Zm5.917-2.192-1.741-.22a.192.192,0,0,1-.158-.128l-.223-.64a.192.192,0,0,1,.182-.256h1.253c.053,0,.608.213.879.318a.193.193,0,0,1,.12.213l-.1.556A.192.192,0,0,1,432.834,142.449Zm.99-.7a.192.192,0,0,1-.24-.022l-.046-.044a.192.192,0,0,1,.026-.3l.185-.125a.192.192,0,0,1,.184-.017l.069.03a.192.192,0,0,1,.031.337Zm-.975-.829h-2.268a.192.192,0,0,1-.192-.192v-.389a.192.192,0,0,1,.192-.192h.769c.053,0,1.051.264,1.548.4a.192.192,0,0,1-.049.378Zm-9.869,11.053.235.538a.227.227,0,0,0,.225.136l.206-.014a.229.229,0,0,1,.244.228v.348a.229.229,0,0,1-.2.227l-1.606.213a.229.229,0,0,1-.2-.073l-.381-.421a.229.229,0,0,1,.021-.328l1.1-.937A.23.23,0,0,1,422.98,151.976Zm4.032-11.827-.363.387h1.026l-.211.669-1.166-.132-1.374.158-.539.554-.956-.277.677-1.358,1.892-.494.627-.4,1.4.233-.1.663h-.914Zm-7.343,2v-.638l1.213-.155.307-1.05,1.89-.153v.774l-1.3,1.082Zm-24.552,29.165,1.845,2.1a.21.21,0,0,1-.147.348l-2.091.1a.217.217,0,0,0-.1.029l-1.245.743a.209.209,0,0,1-.308-.121l-.249-.846a.211.211,0,0,1,.083-.233l.453-.308a.21.21,0,0,0,.09-.2l-.081-.6a.21.21,0,0,1,.156-.231l.667-.171.025,0,.36-.047a.21.21,0,0,0,.182-.218l-.009-.19A.209.209,0,0,1,395.116,171.311Zm4.344.583a.209.209,0,0,1,.1-.027h.721a.209.209,0,0,1,.2.285l-.1.251a.209.209,0,0,1-.146.128l-1.042.251a.21.21,0,0,1-.211-.071l-.151-.184a.209.209,0,0,1,.06-.316Zm7.658,22.667v-.075a.238.238,0,0,1,.136-.215l4.524-2.158a.239.239,0,0,1,.175-.012l2.217.715a.238.238,0,0,1,.153.3l-.12.362a.238.238,0,0,1-.3.149l-1.632-.566a.239.239,0,0,0-.2.02l-2.849,1.683a.238.238,0,0,1-.121.033h-1.742A.238.238,0,0,1,407.119,194.561Zm2.268.79a.237.237,0,0,1,.215-.012l.357.156a.238.238,0,0,1,.135.28l-.079.3a.237.237,0,0,1-.145.161l-.757.291a.238.238,0,0,1-.293-.107l-.2-.352a.238.238,0,0,1,.088-.321Zm-2.22.828a.238.238,0,0,1-.229.175h-1.714a.237.237,0,0,1-.126-.036l-.513-.321a.241.241,0,0,0-.18-.03l-.757.175a.238.238,0,0,1-.28-.157l-.116-.349a.238.238,0,0,1,.1-.28l1.306-.769a.236.236,0,0,1,.121-.033h1.546a.237.237,0,0,1,.2.115l.09.149a.238.238,0,0,1-.063.316.238.238,0,0,0,.141.43h.323a.238.238,0,0,1,.23.3Zm-5.563-.725h.749a.238.238,0,0,1,.238.238v.233a.238.238,0,0,1-.238.238h-.848a.237.237,0,0,1-.219-.331l.1-.233A.237.237,0,0,1,401.6,195.453Zm-38.315-13.194-.659-.061a.46.46,0,0,0-.413.194l-.2.287a.452.452,0,0,1-.451.187l-2.294-.407a.459.459,0,0,1-.263-.149l-1.059-1.217a.45.45,0,0,1-.047-.528.439.439,0,0,0,.065-.232.455.455,0,0,0-.19-.368l-1.862-1.333a.443.443,0,0,1-.183-.44l.036-.228a.453.453,0,0,0-.2-.448l-.36-.24a.451.451,0,0,0-.358-.063l-1.035.255a53.7,53.7,0,0,1,1.727-7.439l1.862,2a.45.45,0,0,0,.354.143l1.169-.065a.463.463,0,0,1,.274.074l1.24.817a.452.452,0,0,1,.044.723l-1.862,1.582a.455.455,0,0,0-.139.478l.367,1.178a.453.453,0,0,0,.457.318l4.069-.234a.452.452,0,0,1,.478.459l-.084,4.32A.452.452,0,0,1,363.289,182.259Zm-10.005-.035,2.6.225a.556.556,0,0,1,.164.04l3.061,1.289a.573.573,0,0,0,.236.042l1.575-.069a.284.284,0,0,0,.232-.139l.145-.249a.28.28,0,0,1,.335-.124l.228.074a.292.292,0,0,1,.179.179l.356,1.057a.128.128,0,0,0,.063.074c.228.127,1.268.759,1.632.977a.357.357,0,0,1,.16.221c.076.305.251,1.017.32,1.293a.136.136,0,0,1-.092.164.132.132,0,0,0-.095.128.128.128,0,0,0,.05.105l2.083,1.662a.136.136,0,0,1,.032.033l2.664,4.335a.124.124,0,0,1,.019.095l-.608,3.263a.142.142,0,0,0,.017.1l.78,1.275a.136.136,0,0,1,.017.107l-.563,2.022a.136.136,0,0,1-.163.1l-.632-.156a.138.138,0,0,0-.148.061l-1.774,2.854a.134.134,0,0,1-.074.057l-.754.251-.036.019-2.2,1.593a.138.138,0,0,1-.118.021l-2.233-.664a.166.166,0,0,0-.078,0l-1.432.427a.127.127,0,0,1-.084,0l-2.955-1.026v0a54.02,54.02,0,0,1-3.042-17.925Q353.154,184.1,353.284,182.224Zm8.555-15.809-.415,1.15a.187.187,0,0,1-.215.119l-.436-.094a.187.187,0,0,0-.144.028l-.674.454a.187.187,0,0,0-.081.181l.054.378a.187.187,0,0,0,.164.159l.412.047a.187.187,0,0,1,.13.076l.786,1.081a.187.187,0,0,1,.035.121l0,.038a.187.187,0,0,1-.215.174c-.18-.028-.419-.066-.452-.078a1.065,1.065,0,0,0-.3.167.187.187,0,0,0,.038.331l1.16.427a.187.187,0,0,1,.117.221l-.114.447a.186.186,0,0,1-.219.136l-4.337-.9a.186.186,0,0,1-.141-.133l-.41-1.465a.187.187,0,0,1,.187-.237l.658.024a.185.185,0,0,0,.163-.085l1.871-2.883a.187.187,0,0,0,.014-.179l-.484-1.064a.187.187,0,0,1,.156-.264l.682-.05a.189.189,0,0,1,.1.019l.308.154a.187.187,0,0,0,.18-.327l-.553-.334a.189.189,0,0,1-.087-.127l-.018-.1a.186.186,0,0,1,.184-.22H361.1a.188.188,0,0,1,.16.09l.832,1.371a.186.186,0,0,1,.02.146l-.269.989A.126.126,0,0,1,361.839,166.415Zm2.685,4.208-2.391-.606a.188.188,0,0,1-.127-.11l-.328-.805a.187.187,0,0,1,.016-.172l.262-.4a.186.186,0,0,0-.031-.239l-.284-.259a.187.187,0,0,1-.022-.252l.508-.654a.187.187,0,0,1,.262-.033l.919.708a.191.191,0,0,0,.1.038l.907.068a.187.187,0,0,1,.166.134l.162.554a.186.186,0,0,1-.076.208l-.323.215a.187.187,0,0,0-.009.3l.6.455a.186.186,0,0,1,.066.2l-.151.522A.186.186,0,0,1,364.524,170.623Zm4.437-11.424L367,157.685a.643.643,0,0,1-.061-.963l1.1-1.1a.643.643,0,0,1,.659-.155l2.712.91a.643.643,0,0,0,.64-.136l.484-.446a.643.643,0,0,1,.926.058l.545.643a.643.643,0,0,1-.032.865l-1.743,1.779a.643.643,0,0,1-.459.193h-2.418A.64.64,0,0,1,368.961,159.2Z" transform="translate(-353.152 -133.36)" fill="#00bf8b"/>
              </g>
            </g>
            <g id="Grupo_1167119" data-name="Grupo 1167119" transform="translate(142.563 27.948)">
              <path id="Trazado_1004156" data-name="Trazado 1004156" d="M236.313,229.507l-24.931,6.476-1.943-4.1V217.636s-14.462.755-17.808-8.742-2.482-13.275-3.777-14.462-6.152-7.123-5.72-8.31a58.885,58.885,0,0,1,5.019-6.211,27.78,27.78,0,0,0,5.934-11.292c1.686-6.561,5.652-16.589,14.409-18.868,13.275-3.453,35.348,2.659,39.745,16.154S236.313,229.507,236.313,229.507Z" transform="translate(-182.108 -136.325)" fill="#ff877f"/>
              <path id="Trazado_1004157" data-name="Trazado 1004157" d="M215.075,191.6s-.074,11.418,7.031,17.725c0,0,3.378-10.947,9.419-18.641s10.924-24.144,5.912-35.068-13.751-16.064-24.8-17.478-19.02-1.028-26.6-5.526-8.776-4.369-10.235-3.341-.046,7.069,2.4,9.767c0,0-8.455-5.979-10.411-4.468s.889,13.068,11.824,17.158,18.313,2.578,18.313,2.578-.605,16.073,8.344,25.022c0,0,6.48-10.153,14.073-8.679S231.461,188.532,215.075,191.6Z" transform="translate(-164.345 -128.684)" fill="#283851"/>
              <g id="Grupo_1167118" data-name="Grupo 1167118" transform="translate(10.553 59.467)">
                <g id="Grupo_1167117" data-name="Grupo 1167117">
                  <path id="Trazado_1004158" data-name="Trazado 1004158" d="M263.023,225.8c-2.546,3.96-7.959,5.7-12.466,5.2a.864.864,0,0,1-.837-.837.842.842,0,0,1,.837-.837,13.18,13.18,0,0,0,6.18-.767,9.884,9.884,0,0,0,4.84-3.6c.581-.9,2.031-.064,1.446.845Z" transform="translate(-249.72 -224.566)" fill="#283851"/>
                </g>
              </g>
            </g>
            <g id="Grupo_1167128" data-name="Grupo 1167128" transform="translate(33.941 79.729)">
              <path id="Trazado_1004159" data-name="Trazado 1004159" d="M183.875,386.957c50.766,7.508,72.9-25.953,72.9-25.953H185.462c-.872,8.477-1.338,17.191-1.565,25.2C183.889,386.457,183.882,386.708,183.875,386.957Z" transform="translate(-83.32 -268.698)" fill="#b6c8da"/>
              <g id="Grupo_1167123" data-name="Grupo 1167123">
                <path id="Trazado_1004160" data-name="Trazado 1004160" d="M430.293,254.631s5.745-23.861,1.776-24.94-8.3,13.757-8.3,13.757-11.006-31.991-14.073-31.262,2.526,22.688,2.526,22.688-12.811-21.622-15.156-19.445S402.839,236,402.839,236s-12.63-17.414-14.8-14.836,7.578,18.933,7.578,18.933-9.743-11.7-11.187-9.7,16.447,34.04,23.47,40.124Z" transform="translate(-384.352 -212.174)" fill="#ff877f"/>
                <g id="Grupo_1167120" data-name="Grupo 1167120" transform="translate(22.044 42.457)">
                  <path id="Trazado_1004161" data-name="Trazado 1004161" d="M256.257,350.863a89.089,89.089,0,0,0,26.127-3.951c13.588-4.155,26.964-11.648,39.759-22.268A14.651,14.651,0,0,0,303.427,302.1c-9.763,8.1-19.7,13.746-29.525,16.766a59.32,59.32,0,0,1-25.186,2.209,71.325,71.325,0,0,1-23.865-7.818,105.877,105.877,0,0,1-19.7-13.552,122.412,122.412,0,0,1-18.043-19.072l.021.03-23.918,16.929c1.332,1.881,33.166,46.144,81.523,52.515A88.1,88.1,0,0,0,256.257,350.863Z" transform="translate(-163.212 -280.63)" fill="#fff"/>
                </g>
                <g id="Grupo_1167122" data-name="Grupo 1167122" transform="translate(28.499 49.753)">
                  <g id="Grupo_1167121" data-name="Grupo 1167121">
                    <path id="Trazado_1004162" data-name="Trazado 1004162" d="M402.279,293.609A48.64,48.64,0,0,1,378.691,311.5c-1.018.359-1.456-1.258-.445-1.614a46.719,46.719,0,0,0,22.588-17.125c.614-.876,2.067-.04,1.446.845Z" transform="translate(-377.672 -292.393)" fill="#283851"/>
                  </g>
                </g>
              </g>
              <g id="Grupo_1167125" data-name="Grupo 1167125" transform="translate(99.952 91.42)">
                <g id="Grupo_1167124" data-name="Grupo 1167124">
                  <path id="Trazado_1004163" data-name="Trazado 1004163" d="M256.545,361.185a99.693,99.693,0,0,1-14.455,8.783,107.57,107.57,0,0,1-34.926,11.454,72.458,72.458,0,0,1-23.94-.67c-1.056-.214-.608-1.828.445-1.614,13.489,2.738,27.453.908,40.42-3.367a120.867,120.867,0,0,0,26.877-12.817c1.606-1.021,3.213-2.065,4.733-3.213.86-.65,1.7.8.845,1.446Z" transform="translate(-182.621 -359.575)" fill="#283851"/>
                </g>
              </g>
              <g id="Grupo_1167127" data-name="Grupo 1167127" transform="translate(102.517 66.12)">
                <g id="Grupo_1167126" data-name="Grupo 1167126">
                  <path id="Trazado_1004164" data-name="Trazado 1004164" d="M207.7,334.048a67.346,67.346,0,0,0,10.623,1.3,39.071,39.071,0,0,0,11.85-1.318,106.577,106.577,0,0,0,21.291-7.891,49.514,49.514,0,0,0,10.549-7.134c.8-.723,1.984.458,1.184,1.184-5.9,5.352-13.224,8.9-20.629,11.667-3.568,1.331-7.205,2.473-10.873,3.493a45.173,45.173,0,0,1-5.788,1.328,41.2,41.2,0,0,1-6.169.38,67.655,67.655,0,0,1-12.484-1.4c-1.055-.209-.608-1.823.446-1.614Z" transform="translate(-206.649 -318.782)" fill="#283851"/>
                </g>
              </g>
            </g>
            <g id="Grupo_1167133" data-name="Grupo 1167133" transform="translate(31.769)">
              <path id="Trazado_1004165" data-name="Trazado 1004165" d="M397.545,96.082s6.578-9.923,24.338-12.459C421.883,83.623,418.626,101.044,397.545,96.082Z" transform="translate(-378.779 -83.623)" fill="#00bf8b"/>
              <path id="Trazado_1004166" data-name="Trazado 1004166" d="M455.552,109.343s-6.858-14.411-18.766-17.515C436.786,91.828,438.373,113.422,455.552,109.343Z" transform="translate(-436.786 -86.739)" fill="#00bf8b"/>
              <g id="Grupo_1167130" data-name="Grupo 1167130" transform="translate(4.533 10.814)">
                <g id="Grupo_1167129" data-name="Grupo 1167129">
                  <path id="Trazado_1004167" data-name="Trazado 1004167" d="M438.076,101.3A109.454,109.454,0,0,0,450.6,112.019c.861.63.027,2.083-.845,1.446a112.343,112.343,0,0,1-12.866-10.977.838.838,0,0,1,1.185-1.184Z" transform="translate(-436.645 -101.059)" fill="#283851"/>
                </g>
              </g>
              <g id="Grupo_1167132" data-name="Grupo 1167132" transform="translate(18.049 5.662)">
                <g id="Grupo_1167131" data-name="Grupo 1167131">
                  <path id="Trazado_1004168" data-name="Trazado 1004168" d="M427.013,94.422q-7.627,2.822-15.068,6.111c-.977.432-1.83-1.01-.845-1.446q7.635-3.378,15.468-6.28c1.012-.375,1.449,1.243.445,1.614Z" transform="translate(-410.664 -92.752)" fill="#283851"/>
                </g>
              </g>
              <line id="Línea_1150" data-name="Línea 1150" y1="21.957" transform="translate(18.766 10.784)" fill="none" stroke="#00bf8b" stroke-linecap="square" stroke-miterlimit="10" stroke-width="4.275"/>
            </g>
          </g>
        </g>
        <g id="Grupo_1167137" data-name="Grupo 1167137" transform="translate(274.296 109.864)">
          <path id="Trazado_1004169" data-name="Trazado 1004169" d="M68.426,180.408l3.727-4.461,4.057.863a5.407,5.407,0,0,1,3.99,3.533l1.759,4.939-10.828,4.041Z" transform="translate(-39.558 -173.623)" fill="#008f68"/>
          <path id="Trazado_1004170" data-name="Trazado 1004170" d="M87.025,178.514a.846.846,0,0,0,1.158-.09l4.02-4.432a5,5,0,0,1,4.889-1.679l10.394,2.211L97.071,186.99a.846.846,0,0,0,.073,1.162l1.369,1.275a.846.846,0,0,1-.658,1.461l-10.134-.979a.847.847,0,0,1-.741-.64l-2.718-11.032a.846.846,0,0,1,1.353-.861Z" transform="translate(-74.89 -172.2)" fill="#00bf8b"/>
          <path id="Trazado_1004171" data-name="Trazado 1004171" d="M118.837,197.278l9.113,8.282-5.994,6.881-6.936-1.475-1.19-3.311a5.407,5.407,0,0,1,1.015-5.375Z" transform="translate(-113.514 -181.724)" fill="#008f68"/>
          <path id="Trazado_1004172" data-name="Trazado 1004172" d="M112.115,222.208l.291-1.366a.846.846,0,0,1,1.559-.251l5.181,8.879a.846.846,0,0,1-.182,1.07l-8.635,7.355a.846.846,0,0,1-1.376-.82l.044-.207a.846.846,0,0,0-.652-1l-6.108-1.3a4.83,4.83,0,0,1-3.782-3.523L94.6,219.349l16.513,3.512A.848.848,0,0,0,112.115,222.208Z" transform="translate(-93.093 -190.106)" fill="#00bf8b"/>
          <path id="Trazado_1004173" data-name="Trazado 1004173" d="M80.579,232.848l1.768,5.462-3.61,4.009a5.624,5.624,0,0,1-5.25,1.708l-3.468-.737L72.6,231.151Z" transform="translate(-40.935 -194.589)" fill="#008f68"/>
          <path id="Trazado_1004174" data-name="Trazado 1004174" d="M54.827,210.155l6-8.028a.845.845,0,0,1,.9-.308l10.573,2.949a.846.846,0,0,1,.059,1.611l-2.39.86a.847.847,0,0,0-.533,1.008l1.657,6.4a5.485,5.485,0,0,1-1.106,5.2l-6.6,7.307-1.139-3.515-3.842-11.865a.846.846,0,0,0-.939-.575l-1.84.295A.846.846,0,0,1,54.827,210.155Z" transform="translate(-21.984 -183.437)" fill="#00bf8b"/>
        </g>
        <g id="Grupo_1167143" data-name="Grupo 1167143" transform="translate(7.214 59.337)">
          <g id="Grupo_1167138" data-name="Grupo 1167138" transform="translate(2.536 6.325)" opacity="0.5">
            <path id="Trazado_1004175" data-name="Trazado 1004175" d="M498.047,86.152a11.731,11.731,0,1,0,22.715-4.124c-.05-.132-.1-.263-.156-.393-.081-.194-.167-.386-.258-.574q-.09-.188-.187-.371h0l-.009-.015q-.245-.463-.53-.9l-9.846-16.765-9.852,16.775q-.277.427-.516.879l-.009.016h0a11.679,11.679,0,0,0-1.355,5.473Z" transform="translate(-489.527 -53.707)" fill="#64d1ee"/>
            <path id="Trazado_1004176" data-name="Trazado 1004176" d="M527.424,61.586a6.881,6.881,0,1,0,13.323-2.419c-.029-.078-.06-.154-.091-.23-.048-.114-.1-.226-.151-.337q-.053-.11-.11-.218h0l-.006-.009c-.1-.181-.2-.357-.311-.528L534.3,48.011l-5.779,9.839q-.162.25-.3.516l-.005.009h0a6.734,6.734,0,0,0-.357.792A6.838,6.838,0,0,0,527.424,61.586Z" transform="translate(-527.424 -48.011)" fill="#64d1ee"/>
            <path id="Trazado_1004177" data-name="Trazado 1004177" d="M492.487,59.145a4.689,4.689,0,1,0,9.079-1.648c-.02-.053-.04-.1-.062-.157-.032-.078-.067-.154-.1-.229-.024-.05-.049-.1-.075-.148h0l0-.006c-.065-.123-.136-.244-.211-.36l-3.935-6.7-3.938,6.7c-.074.113-.143.231-.207.352l0,.006h0a4.741,4.741,0,0,0-.243.54A4.646,4.646,0,0,0,492.487,59.145Z" transform="translate(-466.435 -48.727)" fill="#64d1ee"/>
          </g>
          <g id="Grupo_1167139" data-name="Grupo 1167139" transform="translate(302.601 133.795)" opacity="0.5">
            <path id="Trazado_1004178" data-name="Trazado 1004178" d="M50.047,328.259A6.7,6.7,0,1,0,63.03,325.9c-.029-.076-.058-.15-.089-.225-.046-.111-.1-.221-.148-.328-.034-.071-.07-.142-.107-.212h0l-.006-.009q-.14-.264-.3-.515L56.75,315.03l-5.631,9.589c-.105.163-.2.331-.3.5l-.006.009h0a6.682,6.682,0,0,0-.774,3.129Z" transform="translate(-45.177 -309.713)" fill="#64d1ee"/>
            <path id="Trazado_1004179" data-name="Trazado 1004179" d="M66.838,314.217a3.933,3.933,0,1,0,7.616-1.382c-.017-.045-.034-.088-.052-.132-.027-.065-.056-.13-.086-.193-.02-.042-.041-.084-.063-.125h0l0-.006c-.055-.1-.114-.2-.177-.3l-3.3-5.621-3.3,5.624c-.062.1-.12.194-.173.295l0,0h0a3.951,3.951,0,0,0-.456,1.836Z" transform="translate(-66.838 -306.457)" fill="#64d1ee"/>
            <path id="Trazado_1004180" data-name="Trazado 1004180" d="M46.869,312.822a2.68,2.68,0,1,0,5.189-.943c-.011-.03-.023-.06-.035-.09s-.038-.088-.059-.131-.028-.057-.043-.085h0l0,0c-.037-.071-.078-.139-.121-.206l-2.25-3.83L47.3,311.365c-.042.065-.081.132-.118.2l0,0h0a2.6,2.6,0,0,0-.139.308A2.676,2.676,0,0,0,46.869,312.822Z" transform="translate(-31.978 -306.866)" fill="#64d1ee"/>
          </g>
          <g id="Grupo_1167140" data-name="Grupo 1167140" transform="translate(271.163)" opacity="0.5">
            <path id="Trazado_1004181" data-name="Trazado 1004181" d="M21.736,44.1A6.705,6.705,0,1,0,34.72,41.739c-.029-.076-.058-.15-.089-.225-.047-.111-.1-.221-.148-.328-.034-.071-.07-.142-.107-.212h0l-.006-.009q-.14-.264-.3-.515l-5.628-9.582L22.81,40.456c-.105.162-.2.331-.3.5l0,.009h0a6.683,6.683,0,0,0-.774,3.129Z" transform="translate(-16.866 -25.55)" fill="#64d1ee"/>
            <path id="Trazado_1004182" data-name="Trazado 1004182" d="M38.528,30.054a3.933,3.933,0,1,0,7.616-1.382c-.017-.044-.034-.088-.052-.131-.027-.065-.056-.13-.087-.193-.02-.042-.041-.084-.063-.125h0l0-.006c-.055-.1-.114-.2-.177-.3l-3.3-5.621-3.3,5.624c-.062.1-.12.194-.173.295l0,0h0a3.936,3.936,0,0,0-.455,1.836Z" transform="translate(-38.528 -22.294)" fill="#64d1ee"/>
            <path id="Trazado_1004183" data-name="Trazado 1004183" d="M18.559,28.659a2.68,2.68,0,1,0,5.189-.943c-.011-.03-.023-.06-.035-.09s-.038-.088-.059-.131-.028-.057-.043-.085h0l0,0c-.037-.071-.078-.139-.121-.206l-2.25-3.83L18.988,27.2c-.042.065-.081.132-.118.2l0,0h0a2.6,2.6,0,0,0-.139.308A2.693,2.693,0,0,0,18.559,28.659Z" transform="translate(-3.668 -22.703)" fill="#64d1ee"/>
          </g>
          <g id="Grupo_1167141" data-name="Grupo 1167141" transform="translate(0 103.385)" opacity="0.5">
            <path id="Trazado_1004184" data-name="Trazado 1004184" d="M537.945,279.228a6.7,6.7,0,1,0,12.983-2.357c-.029-.076-.058-.15-.089-.225-.047-.111-.1-.221-.148-.328-.034-.071-.07-.142-.107-.212h0l0-.009q-.141-.264-.3-.515L544.65,266l-5.631,9.588c-.105.162-.2.331-.3.5l-.005.009h0a6.549,6.549,0,0,0-.347.772A6.679,6.679,0,0,0,537.945,279.228Z" transform="translate(-533.075 -260.682)" fill="#64d1ee"/>
            <path id="Trazado_1004185" data-name="Trazado 1004185" d="M554.736,265.186a3.933,3.933,0,1,0,7.616-1.383c-.017-.045-.034-.088-.052-.131-.027-.065-.056-.13-.087-.193-.02-.042-.041-.084-.063-.125h0l0-.006c-.055-.1-.114-.2-.177-.3l-3.3-5.621-3.3,5.624c-.062.1-.12.194-.173.295l0,0h0a3.935,3.935,0,0,0-.455,1.836Z" transform="translate(-554.736 -257.426)" fill="#64d1ee"/>
            <path id="Trazado_1004186" data-name="Trazado 1004186" d="M534.767,263.791a2.68,2.68,0,1,0,5.189-.942c-.011-.03-.023-.06-.035-.09s-.039-.088-.059-.131-.028-.057-.043-.085h0l0,0c-.037-.071-.078-.139-.121-.206l-2.25-3.83-2.251,3.832c-.042.065-.081.132-.118.2l0,0h0a2.592,2.592,0,0,0-.139.308A2.671,2.671,0,0,0,534.767,263.791Z" transform="translate(-519.876 -257.835)" fill="#64d1ee"/>
          </g>
          <g id="Grupo_1167142" data-name="Grupo 1167142" transform="translate(146.768 25.251)" opacity="0.5">
            <path id="Trazado_1004187" data-name="Trazado 1004187" d="M301.3,153.245a6.705,6.705,0,1,0,12.984-2.357c-.029-.076-.058-.15-.089-.225q-.07-.167-.148-.329c-.034-.071-.07-.142-.107-.212h0l-.006-.009q-.14-.264-.3-.515l-5.628-9.583-5.631,9.588c-.105.163-.2.331-.3.5l-.006.009h0a6.676,6.676,0,0,0-.773,3.13Z" transform="translate(-296.433 -134.701)" fill="#64d1ee"/>
            <path id="Trazado_1004188" data-name="Trazado 1004188" d="M318.1,139.2a3.933,3.933,0,1,0,7.616-1.382c-.017-.045-.034-.088-.052-.132-.027-.065-.056-.13-.086-.192-.02-.042-.041-.084-.063-.125h0l0,0c-.055-.1-.114-.2-.177-.3l-3.3-5.621-3.3,5.624c-.062.1-.12.194-.173.295l0,0h0a3.944,3.944,0,0,0-.455,1.835Z" transform="translate(-318.095 -131.446)" fill="#64d1ee"/>
            <path id="Trazado_1004189" data-name="Trazado 1004189" d="M298.126,137.809a2.68,2.68,0,1,0,5.189-.943c-.011-.03-.023-.06-.035-.09s-.038-.088-.059-.132-.028-.057-.043-.085h0l0,0c-.037-.071-.078-.139-.121-.206l-2.25-3.83-2.251,3.832c-.042.065-.081.132-.118.2l0,0h0a2.6,2.6,0,0,0-.139.308A2.681,2.681,0,0,0,298.126,137.809Z" transform="translate(-283.235 -131.854)" fill="#64d1ee"/>
          </g>
        </g>
      </g>
    </g>
  </g>
</svg>
