<svg xmlns="http://www.w3.org/2000/svg" xmlns:xlink="http://www.w3.org/1999/xlink" width="1258" height="372" viewBox="0 0 1258 372">
  <defs>
    <filter id="Trazado_1004423" x="471" y="0" width="319" height="111" filterUnits="userSpaceOnUse">
      <feOffset dy="3" input="SourceAlpha"/>
      <feGaussianBlur stdDeviation="3" result="blur"/>
      <feFlood flood-opacity="0.161"/>
      <feComposite operator="in" in2="blur"/>
      <feComposite in="SourceGraphic"/>
    </filter>
    <filter id="Trazado_1004425" x="157" y="141" width="319" height="111" filterUnits="userSpaceOnUse">
      <feOffset dy="3" input="SourceAlpha"/>
      <feGaussianBlur stdDeviation="3" result="blur-2"/>
      <feFlood flood-opacity="0.161"/>
      <feComposite operator="in" in2="blur-2"/>
      <feComposite in="SourceGraphic"/>
    </filter>
    <filter id="Trazado_1004427" x="782" y="141" width="319" height="111" filterUnits="userSpaceOnUse">
      <feOffset dy="3" input="SourceAlpha"/>
      <feGaussianBlur stdDeviation="3" result="blur-3"/>
      <feFlood flood-opacity="0.161"/>
      <feComposite operator="in" in2="blur-3"/>
      <feComposite in="SourceGraphic"/>
    </filter>
    <filter id="Trazado_1004429" x="0" y="273" width="162" height="99" filterUnits="userSpaceOnUse">
      <feOffset dy="3" input="SourceAlpha"/>
      <feGaussianBlur stdDeviation="3" result="blur-4"/>
      <feFlood flood-opacity="0.161"/>
      <feComposite operator="in" in2="blur-4"/>
      <feComposite in="SourceGraphic"/>
    </filter>
    <filter id="Trazado_1004431" x="156" y="273" width="162" height="99" filterUnits="userSpaceOnUse">
      <feOffset dy="3" input="SourceAlpha"/>
      <feGaussianBlur stdDeviation="3" result="blur-5"/>
      <feFlood flood-opacity="0.161"/>
      <feComposite operator="in" in2="blur-5"/>
      <feComposite in="SourceGraphic"/>
    </filter>
    <filter id="Trazado_1004433" x="315" y="273" width="162" height="99" filterUnits="userSpaceOnUse">
      <feOffset dy="3" input="SourceAlpha"/>
      <feGaussianBlur stdDeviation="3" result="blur-6"/>
      <feFlood flood-opacity="0.161"/>
      <feComposite operator="in" in2="blur-6"/>
      <feComposite in="SourceGraphic"/>
    </filter>
    <filter id="Trazado_1004435" x="470" y="273" width="162" height="99" filterUnits="userSpaceOnUse">
      <feOffset dy="3" input="SourceAlpha"/>
      <feGaussianBlur stdDeviation="3" result="blur-7"/>
      <feFlood flood-opacity="0.161"/>
      <feComposite operator="in" in2="blur-7"/>
      <feComposite in="SourceGraphic"/>
    </filter>
    <filter id="Trazado_1004437" x="626" y="273" width="162" height="99" filterUnits="userSpaceOnUse">
      <feOffset dy="3" input="SourceAlpha"/>
      <feGaussianBlur stdDeviation="3" result="blur-8"/>
      <feFlood flood-opacity="0.161"/>
      <feComposite operator="in" in2="blur-8"/>
      <feComposite in="SourceGraphic"/>
    </filter>
    <filter id="Trazado_1004439" x="783" y="273" width="162" height="99" filterUnits="userSpaceOnUse">
      <feOffset dy="3" input="SourceAlpha"/>
      <feGaussianBlur stdDeviation="3" result="blur-9"/>
      <feFlood flood-opacity="0.161"/>
      <feComposite operator="in" in2="blur-9"/>
      <feComposite in="SourceGraphic"/>
    </filter>
    <filter id="Trazado_1004441" x="939" y="273" width="162" height="99" filterUnits="userSpaceOnUse">
      <feOffset dy="3" input="SourceAlpha"/>
      <feGaussianBlur stdDeviation="3" result="blur-10"/>
      <feFlood flood-opacity="0.161"/>
      <feComposite operator="in" in2="blur-10"/>
      <feComposite in="SourceGraphic"/>
    </filter>
    <filter id="Trazado_1004443" x="1096" y="273" width="162" height="99" filterUnits="userSpaceOnUse">
      <feOffset dy="3" input="SourceAlpha"/>
      <feGaussianBlur stdDeviation="3" result="blur-11"/>
      <feFlood flood-opacity="0.161"/>
      <feComposite operator="in" in2="blur-11"/>
      <feComposite in="SourceGraphic"/>
    </filter>
  </defs>
  <g id="Grupo_1167340" data-name="Grupo 1167340" transform="translate(-171 -4078)">
    <g transform="matrix(1, 0, 0, 1, 171, 4078)" filter="url(#Trazado_1004423)">
      <path id="Trazado_1004423-2" data-name="Trazado 1004423" d="M10,0H291a10,10,0,0,1,10,10V83a10,10,0,0,1-10,10H10A10,10,0,0,1,0,83V10A10,10,0,0,1,10,0Z" transform="translate(480 6)" fill="#1d7083"/>
    </g>
    <path id="Trazado_1004424" data-name="Trazado 1004424" d="M8.728,24V8.6h5.607a7,7,0,0,1,3.964.945,3.04,3.04,0,0,1,1.386,2.664,3.153,3.153,0,0,1-.843,2.181,4.43,4.43,0,0,1-2.154,1.3v.043a4.269,4.269,0,0,1,2.626,1.214A3.4,3.4,0,0,1,20.3,19.4a4.112,4.112,0,0,1-1.515,3.357A6.338,6.338,0,0,1,14.647,24ZM12.2,11.152V14.8h1.525a2.542,2.542,0,0,0,1.692-.521,1.776,1.776,0,0,0,.618-1.434q0-1.7-2.535-1.7Zm0,6.23v4.061h1.88a2.893,2.893,0,0,0,1.885-.559,1.866,1.866,0,0,0,.682-1.525,1.741,1.741,0,0,0-.671-1.45,2.97,2.97,0,0,0-1.875-.526Zm20.185,2.084H25.207q.172,2.4,3.019,2.4A5.893,5.893,0,0,0,31.416,21v2.449a8.381,8.381,0,0,1-3.964.816,5.58,5.58,0,0,1-4.136-1.477,5.58,5.58,0,0,1-1.472-4.12,5.887,5.887,0,0,1,1.59-4.34,5.3,5.3,0,0,1,3.91-1.6,4.807,4.807,0,0,1,3.722,1.429,5.5,5.5,0,0,1,1.316,3.878Zm-3.147-2.084q0-2.363-1.912-2.363a1.826,1.826,0,0,0-1.413.677,3.072,3.072,0,0,0-.725,1.687ZM45.026,24H41.642V17.888q0-2.557-1.826-2.557a1.812,1.812,0,0,0-1.45.677,2.578,2.578,0,0,0-.569,1.719V24H34.4V13H37.8v1.74h.043a3.89,3.89,0,0,1,3.534-2.009q3.652,0,3.652,4.533Zm12.568-4.533H50.418q.172,2.4,3.019,2.4A5.893,5.893,0,0,0,56.627,21v2.449a8.381,8.381,0,0,1-3.964.816,5.58,5.58,0,0,1-4.136-1.477,5.58,5.58,0,0,1-1.472-4.12,5.887,5.887,0,0,1,1.59-4.34,5.3,5.3,0,0,1,3.91-1.6,4.807,4.807,0,0,1,3.722,1.429,5.5,5.5,0,0,1,1.316,3.878Zm-3.147-2.084q0-2.363-1.912-2.363a1.826,1.826,0,0,0-1.413.677,3.072,3.072,0,0,0-.725,1.687ZM66.79,10.314a3.429,3.429,0,0,0-1.257-.258q-1.633,0-1.633,1.772V13h2.514v2.5H63.9V24H60.516V15.5H58.668V13h1.848V11.636a3.961,3.961,0,0,1,1.225-3.029,4.671,4.671,0,0,1,3.33-1.149,5.848,5.848,0,0,1,1.719.215Zm2.976.945a1.983,1.983,0,0,1-1.407-.51A1.644,1.644,0,0,1,67.81,9.5a1.586,1.586,0,0,1,.548-1.246,2.3,2.3,0,0,1,2.82,0A1.593,1.593,0,0,1,71.72,9.5a1.637,1.637,0,0,1-.542,1.268A2.016,2.016,0,0,1,69.765,11.26ZM71.441,24H68.046V13h3.395Zm11.193-.4a6.712,6.712,0,0,1-3.319.666,5.614,5.614,0,0,1-4.1-1.536,5.305,5.305,0,0,1-1.568-3.964,5.845,5.845,0,0,1,1.681-4.42,6.213,6.213,0,0,1,4.5-1.617,5.768,5.768,0,0,1,2.814.516v2.879a3.87,3.87,0,0,0-2.374-.795,3.128,3.128,0,0,0-2.315.854,3.187,3.187,0,0,0-.854,2.358,3.135,3.135,0,0,0,.816,2.293,3,3,0,0,0,2.245.833,4.48,4.48,0,0,0,2.481-.795ZM86.577,11.26a1.983,1.983,0,0,1-1.407-.51A1.644,1.644,0,0,1,84.622,9.5a1.586,1.586,0,0,1,.548-1.246,2.3,2.3,0,0,1,2.82,0A1.593,1.593,0,0,1,88.532,9.5a1.637,1.637,0,0,1-.542,1.268A2.016,2.016,0,0,1,86.577,11.26ZM88.252,24H84.858V13h3.395Zm8.1.269a5.913,5.913,0,0,1-4.324-1.542,5.589,5.589,0,0,1-1.574-4.184,5.589,5.589,0,0,1,1.633-4.27A6.17,6.17,0,0,1,96.5,12.731a5.842,5.842,0,0,1,4.3,1.542,5.479,5.479,0,0,1,1.558,4.077,5.816,5.816,0,0,1-1.606,4.329A5.979,5.979,0,0,1,96.352,24.269Zm.086-8.937a2.264,2.264,0,0,0-1.869.827A3.647,3.647,0,0,0,93.9,18.5q0,3.169,2.557,3.169,2.438,0,2.438-3.255Q98.9,15.331,96.438,15.331Zm7.4,8.379V20.96a7.227,7.227,0,0,0,1.67.752,5.539,5.539,0,0,0,1.574.247,3.375,3.375,0,0,0,1.423-.247.8.8,0,0,0,.521-.752.7.7,0,0,0-.236-.537,2.2,2.2,0,0,0-.607-.376,6.888,6.888,0,0,0-.811-.29q-.44-.129-.849-.29a8.131,8.131,0,0,1-1.155-.532,3.338,3.338,0,0,1-.838-.661,2.6,2.6,0,0,1-.516-.87,3.472,3.472,0,0,1-.177-1.171,3.014,3.014,0,0,1,.4-1.59,3.29,3.29,0,0,1,1.074-1.09,4.908,4.908,0,0,1,1.536-.623,8.01,8.01,0,0,1,1.8-.2,9.984,9.984,0,0,1,1.482.113,11.064,11.064,0,0,1,1.482.328v2.621a5.357,5.357,0,0,0-1.38-.564,5.823,5.823,0,0,0-1.445-.188,3.2,3.2,0,0,0-.628.059,2.07,2.07,0,0,0-.521.172.957.957,0,0,0-.354.29.668.668,0,0,0-.129.4.744.744,0,0,0,.193.516,1.679,1.679,0,0,0,.5.371,4.984,4.984,0,0,0,.693.279q.381.124.757.252a9.847,9.847,0,0,1,1.225.516,3.916,3.916,0,0,1,.94.655,2.573,2.573,0,0,1,.6.881,3.524,3.524,0,0,1-.215,2.874,3.4,3.4,0,0,1-1.128,1.128,5.115,5.115,0,0,1-1.622.634,8.992,8.992,0,0,1-1.907.2A9.83,9.83,0,0,1,103.839,23.71Zm27.231.29h-3.395V22.485h-.043a3.806,3.806,0,0,1-3.405,1.783,4.17,4.17,0,0,1-3.319-1.456,6.025,6.025,0,0,1-1.257-4.066,6.558,6.558,0,0,1,1.386-4.372,4.52,4.52,0,0,1,3.631-1.644,3.089,3.089,0,0,1,2.965,1.525h.043V7.715h3.395Zm-3.33-5.35v-.827a2.6,2.6,0,0,0-.623-1.783,2.2,2.2,0,0,0-3.384.177,4.116,4.116,0,0,0-.634,2.433,3.561,3.561,0,0,0,.612,2.234,2.174,2.174,0,0,0,3.378-.043A3.448,3.448,0,0,0,127.741,18.65Zm16.07.816h-7.176q.172,2.4,3.019,2.4a5.893,5.893,0,0,0,3.19-.859v2.449a8.381,8.381,0,0,1-3.964.816,5.58,5.58,0,0,1-4.136-1.477,5.58,5.58,0,0,1-1.472-4.12,5.887,5.887,0,0,1,1.59-4.34,5.3,5.3,0,0,1,3.91-1.6A4.807,4.807,0,0,1,142.5,14.16a5.5,5.5,0,0,1,1.316,3.878Zm-3.147-2.084q0-2.363-1.912-2.363a1.826,1.826,0,0,0-1.413.677,3.072,3.072,0,0,0-.725,1.687ZM155.294,24H151.9V7.715h3.395Zm12.01,0h-3.212V22.421h-.043a3.585,3.585,0,0,1-3.276,1.848,3.427,3.427,0,0,1-2.519-.908,3.253,3.253,0,0,1-.918-2.422q0-3.2,3.792-3.7l2.986-.4q0-1.8-1.955-1.8a6.673,6.673,0,0,0-3.738,1.171V13.655a8.41,8.41,0,0,1,1.939-.645,10.193,10.193,0,0,1,2.24-.279q4.705,0,4.705,4.694Zm-3.19-4.469V18.79l-2,.258q-1.654.215-1.654,1.493a1.234,1.234,0,0,0,.4.951,1.548,1.548,0,0,0,1.09.371,2.01,2.01,0,0,0,1.558-.661A2.386,2.386,0,0,0,164.114,19.531ZM189.315,24H185.33l-2.4-3.964q-.269-.451-.516-.806a4.477,4.477,0,0,0-.5-.607,1.986,1.986,0,0,0-.526-.387,1.336,1.336,0,0,0-.6-.134h-.935V24h-3.47V8.6h5.5q5.607,0,5.607,4.189a4.338,4.338,0,0,1-.247,1.488,4.133,4.133,0,0,1-.7,1.23,4.426,4.426,0,0,1-1.09.945,5.623,5.623,0,0,1-1.423.623v.043a2.208,2.208,0,0,1,.666.349,4.769,4.769,0,0,1,.623.564,7.869,7.869,0,0,1,.575.693q.274.371.5.725Zm-9.453-12.8v4.286h1.5a2.493,2.493,0,0,0,1.794-.645,2.151,2.151,0,0,0,.688-1.622q0-2.02-2.417-2.02Zm10.184,12.214V19.972a6.605,6.605,0,0,0,2.03,1.176,6.526,6.526,0,0,0,2.213.392,4.907,4.907,0,0,0,1.144-.118,2.68,2.68,0,0,0,.816-.328,1.429,1.429,0,0,0,.489-.494,1.233,1.233,0,0,0,.161-.618,1.335,1.335,0,0,0-.258-.806,2.774,2.774,0,0,0-.7-.655,7.352,7.352,0,0,0-1.058-.58q-.612-.279-1.321-.569a6.744,6.744,0,0,1-2.691-1.837,4.01,4.01,0,0,1-.886-2.621,4.175,4.175,0,0,1,.483-2.068,4.106,4.106,0,0,1,1.316-1.423,5.9,5.9,0,0,1,1.928-.822,9.908,9.908,0,0,1,2.32-.263,13.956,13.956,0,0,1,2.132.145,8.386,8.386,0,0,1,1.713.446v3.212a5.181,5.181,0,0,0-.843-.473,6.681,6.681,0,0,0-.94-.338,7.17,7.17,0,0,0-.961-.2,6.8,6.8,0,0,0-.908-.064,4.734,4.734,0,0,0-1.074.113,2.755,2.755,0,0,0-.816.317,1.577,1.577,0,0,0-.516.489,1.158,1.158,0,0,0-.183.639,1.221,1.221,0,0,0,.2.693,2.341,2.341,0,0,0,.58.58,6.156,6.156,0,0,0,.913.537q.537.263,1.214.542a13.525,13.525,0,0,1,1.66.822,5.9,5.9,0,0,1,1.262.983,3.829,3.829,0,0,1,.806,1.251,4.422,4.422,0,0,1,.279,1.638,4.388,4.388,0,0,1-.489,2.165,3.968,3.968,0,0,1-1.327,1.418,5.753,5.753,0,0,1-1.95.779,11.268,11.268,0,0,1-2.347.236,13.051,13.051,0,0,1-2.412-.215A7.28,7.28,0,0,1,190.045,23.409ZM212.325,24h-9.238V8.6h8.884v2.825h-5.414v3.427h5.038v2.814h-5.038v3.523h5.769Z" transform="translate(692 4117)" fill="#fff"/>
    <g transform="matrix(1, 0, 0, 1, 171, 4078)" filter="url(#Trazado_1004425)">
      <path id="Trazado_1004425-2" data-name="Trazado 1004425" d="M10,0H291a10,10,0,0,1,10,10V83a10,10,0,0,1-10,10H10A10,10,0,0,1,0,83V10A10,10,0,0,1,10,0Z" transform="translate(166 147)" fill="#36ceef"/>
    </g>
    <path id="Trazado_1004426" data-name="Trazado 1004426" d="M77.2,24H67.966V8.6H76.85v2.825H71.436v3.427h5.038v2.814H71.436v3.523H77.2Zm19.6,0H93.425V17.727q0-2.4-1.762-2.4a1.619,1.619,0,0,0-1.364.72,2.958,2.958,0,0,0-.526,1.794V24H86.378V17.662q0-2.331-1.729-2.331a1.658,1.658,0,0,0-1.391.688,3.025,3.025,0,0,0-.521,1.869V24H79.342V13h3.395v1.719h.043a4.168,4.168,0,0,1,3.556-1.987,3.167,3.167,0,0,1,3.19,2.052,4.069,4.069,0,0,1,3.7-2.052q3.588,0,3.588,4.426Zm6.123-1.278h-.043V29.06H99.494V13h3.395v1.654h.043a4.32,4.32,0,0,1,6.837-.457,6.243,6.243,0,0,1,1.166,3.991,6.767,6.767,0,0,1-1.359,4.415,4.431,4.431,0,0,1-3.615,1.665A3.425,3.425,0,0,1,102.932,22.722Zm-.1-4.512v.881a2.8,2.8,0,0,0,.6,1.858,1.958,1.958,0,0,0,1.579.72,2.081,2.081,0,0,0,1.8-.9,4.331,4.331,0,0,0,.639-2.541q0-2.9-2.256-2.9a2.118,2.118,0,0,0-1.7.79A3.149,3.149,0,0,0,102.835,18.21Zm17.478-2.148a2.945,2.945,0,0,0-1.429-.333,2.058,2.058,0,0,0-1.729.811,3.538,3.538,0,0,0-.623,2.208V24h-3.395V13h3.395v2.041h.043a2.937,2.937,0,0,1,2.9-2.234,2.186,2.186,0,0,1,.838.129Zm11.376,3.405h-7.176q.172,2.4,3.019,2.4a5.893,5.893,0,0,0,3.19-.859v2.449a8.381,8.381,0,0,1-3.964.816,5.58,5.58,0,0,1-4.136-1.477,5.58,5.58,0,0,1-1.472-4.12,5.887,5.887,0,0,1,1.59-4.34,5.3,5.3,0,0,1,3.91-1.6,4.807,4.807,0,0,1,3.722,1.429,5.5,5.5,0,0,1,1.316,3.878Zm-3.147-2.084q0-2.363-1.912-2.363a1.826,1.826,0,0,0-1.413.677,3.072,3.072,0,0,0-.725,1.687Zm4.447,6.327V20.96a7.227,7.227,0,0,0,1.67.752,5.538,5.538,0,0,0,1.574.247,3.375,3.375,0,0,0,1.423-.247.8.8,0,0,0,.521-.752.7.7,0,0,0-.236-.537,2.2,2.2,0,0,0-.607-.376,6.887,6.887,0,0,0-.811-.29q-.44-.129-.849-.29a8.131,8.131,0,0,1-1.155-.532,3.338,3.338,0,0,1-.838-.661,2.6,2.6,0,0,1-.516-.87,3.472,3.472,0,0,1-.177-1.171,3.014,3.014,0,0,1,.4-1.59,3.29,3.29,0,0,1,1.074-1.09A4.908,4.908,0,0,1,136,12.93a8.01,8.01,0,0,1,1.8-.2,9.984,9.984,0,0,1,1.482.113,11.065,11.065,0,0,1,1.482.328v2.621a5.357,5.357,0,0,0-1.38-.564,5.823,5.823,0,0,0-1.445-.188,3.2,3.2,0,0,0-.628.059,2.07,2.07,0,0,0-.521.172.957.957,0,0,0-.354.29.668.668,0,0,0-.129.4.744.744,0,0,0,.193.516,1.679,1.679,0,0,0,.5.371,4.985,4.985,0,0,0,.693.279q.381.124.757.252a9.847,9.847,0,0,1,1.225.516,3.916,3.916,0,0,1,.94.655,2.573,2.573,0,0,1,.6.881,3.524,3.524,0,0,1-.215,2.874,3.4,3.4,0,0,1-1.128,1.128,5.115,5.115,0,0,1-1.622.634,8.992,8.992,0,0,1-1.907.2A9.83,9.83,0,0,1,132.988,23.71Zm19.551.29h-3.212V22.421h-.043a3.585,3.585,0,0,1-3.276,1.848,3.427,3.427,0,0,1-2.519-.908,3.253,3.253,0,0,1-.918-2.422q0-3.2,3.792-3.7l2.986-.4q0-1.8-1.955-1.8a6.673,6.673,0,0,0-3.738,1.171V13.655a8.41,8.41,0,0,1,1.939-.645,10.193,10.193,0,0,1,2.24-.279q4.705,0,4.705,4.694Zm-3.19-4.469V18.79l-2,.258q-1.654.215-1.654,1.493a1.234,1.234,0,0,0,.4.951,1.548,1.548,0,0,0,1.09.371,2.01,2.01,0,0,0,1.558-.661A2.386,2.386,0,0,0,149.349,19.531Z" transform="translate(378 4258)" fill="#212429"/>
    <g transform="matrix(1, 0, 0, 1, 171, 4078)" filter="url(#Trazado_1004427)">
      <path id="Trazado_1004427-2" data-name="Trazado 1004427" d="M10,0H291a10,10,0,0,1,10,10V83a10,10,0,0,1-10,10H10A10,10,0,0,1,0,83V10A10,10,0,0,1,10,0Z" transform="translate(791 147)" fill="#36ceef"/>
    </g>
    <path id="Trazado_1004428" data-name="Trazado 1004428" d="M63.164,23.452a10.158,10.158,0,0,1-4.4.816,7.424,7.424,0,0,1-5.575-2.084,7.618,7.618,0,0,1-2.03-5.554,8.139,8.139,0,0,1,2.283-5.994,7.985,7.985,0,0,1,5.924-2.3,11.079,11.079,0,0,1,3.8.569v3.341a6.738,6.738,0,0,0-3.523-.924,4.674,4.674,0,0,0-3.5,1.364,5.062,5.062,0,0,0-1.332,3.7,4.965,4.965,0,0,0,1.257,3.561,4.44,4.44,0,0,0,3.384,1.327,7.218,7.218,0,0,0,3.717-.988Zm7.595.816a5.913,5.913,0,0,1-4.324-1.542,5.589,5.589,0,0,1-1.574-4.184,5.589,5.589,0,0,1,1.633-4.27,6.17,6.17,0,0,1,4.415-1.542,5.842,5.842,0,0,1,4.3,1.542,5.479,5.479,0,0,1,1.558,4.077,5.816,5.816,0,0,1-1.606,4.329A5.979,5.979,0,0,1,70.759,24.269Zm.086-8.937a2.264,2.264,0,0,0-1.869.827A3.647,3.647,0,0,0,68.31,18.5q0,3.169,2.557,3.169,2.438,0,2.438-3.255Q73.3,15.331,70.845,15.331ZM96.433,24H93.049V17.727q0-2.4-1.762-2.4a1.619,1.619,0,0,0-1.364.72,2.958,2.958,0,0,0-.526,1.794V24H86V17.662q0-2.331-1.729-2.331a1.658,1.658,0,0,0-1.391.688,3.025,3.025,0,0,0-.521,1.869V24H78.966V13H82.36v1.719H82.4a4.168,4.168,0,0,1,3.556-1.987,3.167,3.167,0,0,1,3.19,2.052,4.069,4.069,0,0,1,3.7-2.052q3.588,0,3.588,4.426Zm13.138,0h-3.384V22.324h-.054a3.839,3.839,0,0,1-3.362,1.944q-3.824,0-3.824-4.63V13h3.384v6.338q0,2.331,1.848,2.331a1.828,1.828,0,0,0,1.461-.639,2.577,2.577,0,0,0,.548-1.735V13h3.384Zm13.481,0h-3.384V17.888q0-2.557-1.826-2.557a1.812,1.812,0,0,0-1.45.677,2.578,2.578,0,0,0-.569,1.719V24h-3.395V13h3.395v1.74h.043a3.89,3.89,0,0,1,3.534-2.009q3.652,0,3.652,4.533Zm4.4-12.74a1.983,1.983,0,0,1-1.407-.51A1.644,1.644,0,0,1,125.5,9.5a1.586,1.586,0,0,1,.548-1.246,2.3,2.3,0,0,1,2.82,0,1.593,1.593,0,0,1,.542,1.246,1.638,1.638,0,0,1-.542,1.268A2.016,2.016,0,0,1,127.456,11.26ZM129.132,24h-3.395V13h3.395Zm13.621,0h-3.395V22.485h-.043a3.806,3.806,0,0,1-3.405,1.783,4.17,4.17,0,0,1-3.319-1.456,6.025,6.025,0,0,1-1.257-4.066,6.558,6.558,0,0,1,1.386-4.372,4.52,4.52,0,0,1,3.631-1.644,3.089,3.089,0,0,1,2.965,1.525h.043V7.715h3.395Zm-3.33-5.35v-.827a2.6,2.6,0,0,0-.623-1.783,2.2,2.2,0,0,0-3.384.177,4.115,4.115,0,0,0-.634,2.433,3.561,3.561,0,0,0,.612,2.234,2.174,2.174,0,0,0,3.378-.043A3.448,3.448,0,0,0,139.423,18.65ZM154.763,24h-3.212V22.421h-.043a3.585,3.585,0,0,1-3.276,1.848,3.427,3.427,0,0,1-2.519-.908,3.253,3.253,0,0,1-.918-2.422q0-3.2,3.792-3.7l2.986-.4q0-1.8-1.955-1.8a6.673,6.673,0,0,0-3.738,1.171V13.655a8.41,8.41,0,0,1,1.939-.645,10.193,10.193,0,0,1,2.24-.279q4.705,0,4.705,4.694Zm-3.19-4.469V18.79l-2,.258q-1.654.215-1.654,1.493a1.234,1.234,0,0,0,.4.951,1.548,1.548,0,0,0,1.09.371,2.01,2.01,0,0,0,1.558-.661A2.386,2.386,0,0,0,151.572,19.531ZM168.212,24h-3.395V22.485h-.043a3.806,3.806,0,0,1-3.405,1.783,4.17,4.17,0,0,1-3.319-1.456,6.025,6.025,0,0,1-1.257-4.066,6.558,6.558,0,0,1,1.386-4.372,4.52,4.52,0,0,1,3.631-1.644,3.089,3.089,0,0,1,2.965,1.525h.043V7.715h3.395Zm-3.33-5.35v-.827a2.6,2.6,0,0,0-.623-1.783,2.2,2.2,0,0,0-3.384.177,4.115,4.115,0,0,0-.634,2.433,3.561,3.561,0,0,0,.612,2.234,2.174,2.174,0,0,0,3.378-.043A3.448,3.448,0,0,0,164.882,18.65Z" transform="translate(1003 4258)" fill="#212429"/>
    <g transform="matrix(1, 0, 0, 1, 171, 4078)" filter="url(#Trazado_1004429)">
      <path id="Trazado_1004429-2" data-name="Trazado 1004429" d="M10,0H134a10,10,0,0,1,10,10V71a10,10,0,0,1-10,10H10A10,10,0,0,1,0,71V10A10,10,0,0,1,10,0Z" transform="translate(9 279)" fill="#c1f0fa"/>
    </g>
    <path id="Trazado_1004430" data-name="Trazado 1004430" d="M19.574,19H18.106V10.545q0-1,.123-2.452h-.035a7.84,7.84,0,0,1-.378,1.222L13.509,19h-.721l-4.3-9.615a7.533,7.533,0,0,1-.378-1.292H8.078q.07.756.07,2.47V19H6.724V6.4H8.675l3.867,8.789a11.254,11.254,0,0,1,.58,1.512h.053q.378-1.037.606-1.547L17.728,6.4h1.846Zm10.355-4.14H23.575a3.366,3.366,0,0,0,.809,2.32A2.788,2.788,0,0,0,26.51,18a4.422,4.422,0,0,0,2.795-1V18.35a5.224,5.224,0,0,1-3.138.861,3.8,3.8,0,0,1-3-1.226,5.018,5.018,0,0,1-1.09-3.45,4.921,4.921,0,0,1,1.191-3.423,3.819,3.819,0,0,1,2.958-1.323,3.384,3.384,0,0,1,2.733,1.143,4.764,4.764,0,0,1,.967,3.173Zm-1.477-1.222a2.933,2.933,0,0,0-.6-1.942A2.051,2.051,0,0,0,26.2,11a2.328,2.328,0,0,0-1.731.729,3.31,3.31,0,0,0-.879,1.907Zm5.1,4.983a5.641,5.641,0,0,1-.892,3.415,2.99,2.99,0,0,1-2.553,1.2,2.71,2.71,0,0,1-1.2-.281V21.61a2.385,2.385,0,0,0,1.23.4q1.969,0,1.969-3.146V10h1.441Zm-.7-10.907a.913.913,0,0,1-.659-.264.89.89,0,0,1-.272-.668.923.923,0,0,1,.932-.94.931.931,0,0,1,.672.268.939.939,0,0,1,0,1.332A.923.923,0,0,1,32.849,7.715Zm7.385,11.5a4.175,4.175,0,0,1-3.186-1.261,4.672,4.672,0,0,1-1.191-3.344A4.867,4.867,0,0,1,37.1,11.063a4.455,4.455,0,0,1,3.349-1.274,4.037,4.037,0,0,1,3.142,1.239,4.914,4.914,0,0,1,1.129,3.437,4.835,4.835,0,0,1-1.217,3.45A4.265,4.265,0,0,1,40.234,19.211ZM40.339,11a2.742,2.742,0,0,0-2.2.945,3.88,3.88,0,0,0-.809,2.606,3.67,3.67,0,0,0,.817,2.522A2.778,2.778,0,0,0,40.339,18a2.635,2.635,0,0,0,2.149-.905,3.928,3.928,0,0,0,.751-2.575,4,4,0,0,0-.751-2.6A2.623,2.623,0,0,0,40.339,11Zm11.375.457a1.763,1.763,0,0,0-1.09-.29,1.839,1.839,0,0,0-1.542.87,4.023,4.023,0,0,0-.62,2.373V19H47.021V10h1.441v1.854H48.5a3.143,3.143,0,0,1,.94-1.481,2.144,2.144,0,0,1,1.415-.532,2.353,2.353,0,0,1,.861.123ZM59.723,19H58.281V17.594h-.035a3.018,3.018,0,0,1-2.769,1.617,2.959,2.959,0,0,1-2.1-.712,2.466,2.466,0,0,1-.76-1.89q0-2.522,2.971-2.936l2.7-.378Q58.281,11,56.427,11a4.431,4.431,0,0,0-2.936,1.107V10.633a5.577,5.577,0,0,1,3.059-.844q3.173,0,3.173,3.357Zm-1.441-4.553-2.171.3a3.525,3.525,0,0,0-1.512.5,1.432,1.432,0,0,0-.51,1.261,1.374,1.374,0,0,0,.47,1.077A1.817,1.817,0,0,0,55.811,18a2.314,2.314,0,0,0,1.771-.751,2.685,2.685,0,0,0,.7-1.9ZM75.054,19H73.613V17.471h-.035a3.327,3.327,0,0,1-3.094,1.74A3.362,3.362,0,0,1,67.772,18a4.958,4.958,0,0,1-1.015-3.292,5.394,5.394,0,0,1,1.125-3.577,3.71,3.71,0,0,1,3-1.345,2.885,2.885,0,0,1,2.7,1.459h.035V5.676h1.441Zm-1.441-4.069V13.6a2.575,2.575,0,0,0-.721-1.846A2.417,2.417,0,0,0,71.064,11a2.489,2.489,0,0,0-2.074.967,4.237,4.237,0,0,0-.756,2.672,3.81,3.81,0,0,0,.725,2.457,2.37,2.37,0,0,0,1.947.9,2.462,2.462,0,0,0,1.956-.87A3.242,3.242,0,0,0,73.613,14.931Zm11.595-.07H78.853a3.366,3.366,0,0,0,.809,2.32A2.788,2.788,0,0,0,81.788,18a4.422,4.422,0,0,0,2.795-1V18.35a5.224,5.224,0,0,1-3.138.861,3.8,3.8,0,0,1-3-1.226,5.018,5.018,0,0,1-1.09-3.45,4.921,4.921,0,0,1,1.191-3.423,3.819,3.819,0,0,1,2.958-1.323,3.384,3.384,0,0,1,2.733,1.143,4.764,4.764,0,0,1,.967,3.173Zm-1.477-1.222a2.933,2.933,0,0,0-.6-1.942A2.051,2.051,0,0,0,81.481,11a2.328,2.328,0,0,0-1.731.729,3.31,3.31,0,0,0-.879,1.907ZM9.092,38.459A1.763,1.763,0,0,0,8,38.169a1.839,1.839,0,0,0-1.542.87,4.023,4.023,0,0,0-.62,2.373V46H4.4V37H5.84v1.854h.035a3.143,3.143,0,0,1,.94-1.481,2.144,2.144,0,0,1,1.415-.532,2.353,2.353,0,0,1,.861.123Zm8.8,3.4H11.537a3.366,3.366,0,0,0,.809,2.32A2.788,2.788,0,0,0,14.473,45a4.422,4.422,0,0,0,2.795-1V45.35a5.224,5.224,0,0,1-3.138.861,3.8,3.8,0,0,1-3-1.226,5.018,5.018,0,0,1-1.09-3.45,4.921,4.921,0,0,1,1.191-3.423,3.819,3.819,0,0,1,2.958-1.323,3.384,3.384,0,0,1,2.733,1.143,4.764,4.764,0,0,1,.967,3.173Zm-1.477-1.222a2.933,2.933,0,0,0-.6-1.942A2.051,2.051,0,0,0,14.165,38a2.328,2.328,0,0,0-1.731.729,3.31,3.31,0,0,0-.879,1.907ZM21.55,44.7h-.035v5.44H20.073V37h1.441v1.582h.035a3.408,3.408,0,0,1,3.111-1.793A3.3,3.3,0,0,1,27.377,38a5.005,5.005,0,0,1,.976,3.239,5.578,5.578,0,0,1-1.1,3.617,3.658,3.658,0,0,1-3.006,1.358A3.011,3.011,0,0,1,21.55,44.7Zm-.035-3.63v1.257a2.676,2.676,0,0,0,.725,1.894A2.587,2.587,0,0,0,26.133,44a4.6,4.6,0,0,0,.743-2.786,3.629,3.629,0,0,0-.694-2.355A2.3,2.3,0,0,0,24.3,38a2.554,2.554,0,0,0-2.021.875A3.211,3.211,0,0,0,21.515,41.069ZM37.934,46H36.493V44.576h-.035a2.96,2.96,0,0,1-2.777,1.635q-3.217,0-3.217-3.832V37H31.9v5.15Q31.9,45,34.076,45a2.205,2.205,0,0,0,1.736-.778,2.976,2.976,0,0,0,.681-2.035V37h1.441Zm7.086-.088a2.779,2.779,0,0,1-1.345.281q-2.364,0-2.364-2.637V38.23H39.764V37h1.547V34.8l1.441-.466V37H45.02v1.23H42.753V43.3a2.1,2.1,0,0,0,.308,1.292,1.228,1.228,0,0,0,1.02.387,1.515,1.515,0,0,0,.94-.3ZM53.389,46H51.948V44.594h-.035a3.018,3.018,0,0,1-2.769,1.617,2.959,2.959,0,0,1-2.1-.712,2.466,2.466,0,0,1-.76-1.89q0-2.522,2.971-2.936l2.7-.378Q51.948,38,50.093,38a4.431,4.431,0,0,0-2.936,1.107V37.633a5.577,5.577,0,0,1,3.059-.844q3.173,0,3.173,3.357Zm-1.441-4.553-2.171.3a3.525,3.525,0,0,0-1.512.5,1.432,1.432,0,0,0-.51,1.261,1.374,1.374,0,0,0,.47,1.077A1.817,1.817,0,0,0,49.478,45a2.314,2.314,0,0,0,1.771-.751,2.685,2.685,0,0,0,.7-1.9Zm10.294,4.14a4.684,4.684,0,0,1-2.461.624,4.074,4.074,0,0,1-3.107-1.252,4.539,4.539,0,0,1-1.182-3.248,4.99,4.99,0,0,1,1.274-3.573,4.458,4.458,0,0,1,3.4-1.349,4.735,4.735,0,0,1,2.092.439v1.477a3.665,3.665,0,0,0-2.145-.7,2.9,2.9,0,0,0-2.263.989,3.752,3.752,0,0,0-.883,2.6,3.573,3.573,0,0,0,.831,2.5A2.863,2.863,0,0,0,60.027,45a3.613,3.613,0,0,0,2.215-.782Zm2.92-10.872a.913.913,0,0,1-.659-.264.89.89,0,0,1-.272-.668.923.923,0,0,1,.932-.94.931.931,0,0,1,.672.268.939.939,0,0,1,0,1.332A.923.923,0,0,1,65.161,34.715ZM65.864,46H64.423V37h1.441Zm6.681.211A4.175,4.175,0,0,1,69.36,44.95a4.672,4.672,0,0,1-1.191-3.344,4.867,4.867,0,0,1,1.239-3.542,4.455,4.455,0,0,1,3.349-1.274A4.037,4.037,0,0,1,75.9,38.028a4.914,4.914,0,0,1,1.129,3.437,4.835,4.835,0,0,1-1.217,3.45A4.265,4.265,0,0,1,72.546,46.211ZM72.651,38a2.742,2.742,0,0,0-2.2.945,3.88,3.88,0,0,0-.809,2.606,3.67,3.67,0,0,0,.817,2.522A2.778,2.778,0,0,0,72.651,45a2.635,2.635,0,0,0,2.149-.905,3.928,3.928,0,0,0,.751-2.575,4,4,0,0,0-.751-2.6A2.623,2.623,0,0,0,72.651,38Zm2.109-5.59-2.3,2.883H71.342l1.96-2.883ZM86.8,46H85.362V40.867Q85.362,38,83.27,38a2.269,2.269,0,0,0-1.789.813,3.013,3.013,0,0,0-.708,2.052V46H79.333V37h1.441v1.494h.035a3.248,3.248,0,0,1,2.953-1.705,2.753,2.753,0,0,1,2.259.954A4.248,4.248,0,0,1,86.8,40.5Z" transform="translate(207 4373)" fill="#212429"/>
    <g transform="matrix(1, 0, 0, 1, 171, 4078)" filter="url(#Trazado_1004431)">
      <path id="Trazado_1004431-2" data-name="Trazado 1004431" d="M10,0H134a10,10,0,0,1,10,10V71a10,10,0,0,1-10,10H10A10,10,0,0,1,0,71V10A10,10,0,0,1,10,0Z" transform="translate(165 279)" fill="#c1f0fa"/>
    </g>
    <path id="Trazado_1004432" data-name="Trazado 1004432" d="M18.977,19H17.342l-1.336-3.533H10.663L9.406,19H7.762L12.6,6.4h1.529Zm-3.454-4.86L13.546,8.77a5.142,5.142,0,0,1-.193-.844h-.035a4.708,4.708,0,0,1-.2.844l-1.96,5.37Zm9.292,4.772a2.779,2.779,0,0,1-1.345.281q-2.364,0-2.364-2.637V11.23H19.559V10h1.547V7.8l1.441-.466V10h2.268v1.23H22.547V16.3a2.1,2.1,0,0,0,.308,1.292,1.228,1.228,0,0,0,1.02.387,1.515,1.515,0,0,0,.94-.3Zm6.62-7.453a1.763,1.763,0,0,0-1.09-.29,1.839,1.839,0,0,0-1.542.87,4.023,4.023,0,0,0-.62,2.373V19H26.742V10h1.441v1.854h.035a3.143,3.143,0,0,1,.94-1.481,2.144,2.144,0,0,1,1.415-.532,2.353,2.353,0,0,1,.861.123ZM39.444,19H38V17.594h-.035A3.018,3.018,0,0,1,35.2,19.211a2.959,2.959,0,0,1-2.1-.712,2.466,2.466,0,0,1-.76-1.89q0-2.522,2.971-2.936L38,13.3Q38,11,36.148,11a4.431,4.431,0,0,0-2.936,1.107V10.633a5.577,5.577,0,0,1,3.059-.844q3.173,0,3.173,3.357ZM38,14.447l-2.171.3a3.525,3.525,0,0,0-1.512.5,1.432,1.432,0,0,0-.51,1.261,1.374,1.374,0,0,0,.47,1.077A1.817,1.817,0,0,0,35.532,18a2.314,2.314,0,0,0,1.771-.751,2.685,2.685,0,0,0,.7-1.9ZM48.3,18.587a4.684,4.684,0,0,1-2.461.624,4.074,4.074,0,0,1-3.107-1.252,4.539,4.539,0,0,1-1.182-3.248,4.99,4.99,0,0,1,1.274-3.573,4.458,4.458,0,0,1,3.4-1.349,4.735,4.735,0,0,1,2.092.439v1.477a3.665,3.665,0,0,0-2.145-.7,2.9,2.9,0,0,0-2.263.989,3.752,3.752,0,0,0-.883,2.6,3.573,3.573,0,0,0,.831,2.5A2.863,2.863,0,0,0,46.081,18a3.613,3.613,0,0,0,2.215-.782Zm8.316,0a4.684,4.684,0,0,1-2.461.624,4.074,4.074,0,0,1-3.107-1.252,4.539,4.539,0,0,1-1.182-3.248,4.99,4.99,0,0,1,1.274-3.573,4.458,4.458,0,0,1,3.4-1.349,4.735,4.735,0,0,1,2.092.439v1.477a3.665,3.665,0,0,0-2.145-.7,2.9,2.9,0,0,0-2.263.989,3.752,3.752,0,0,0-.883,2.6,3.573,3.573,0,0,0,.831,2.5A2.863,2.863,0,0,0,54.4,18a3.613,3.613,0,0,0,2.215-.782Zm2.92-10.872a.913.913,0,0,1-.659-.264.89.89,0,0,1-.272-.668.923.923,0,0,1,.932-.94.931.931,0,0,1,.672.268.939.939,0,0,1,0,1.332A.923.923,0,0,1,59.532,7.715ZM60.235,19H58.794V10h1.441Zm6.681.211A4.175,4.175,0,0,1,63.73,17.95a4.672,4.672,0,0,1-1.191-3.344,4.867,4.867,0,0,1,1.239-3.542,4.455,4.455,0,0,1,3.349-1.274,4.037,4.037,0,0,1,3.142,1.239A4.914,4.914,0,0,1,71.4,14.465a4.835,4.835,0,0,1-1.217,3.45A4.265,4.265,0,0,1,66.917,19.211ZM67.022,11a2.742,2.742,0,0,0-2.2.945,3.88,3.88,0,0,0-.809,2.606,3.67,3.67,0,0,0,.817,2.522A2.778,2.778,0,0,0,67.022,18a2.635,2.635,0,0,0,2.149-.905,3.928,3.928,0,0,0,.751-2.575,4,4,0,0,0-.751-2.6A2.623,2.623,0,0,0,67.022,11Zm2.109-5.59-2.3,2.883H65.712l1.96-2.883ZM81.174,19H79.733V13.867Q79.733,11,77.641,11a2.269,2.269,0,0,0-1.789.813,3.013,3.013,0,0,0-.708,2.052V19H73.7V10h1.441v1.494h.035a3.248,3.248,0,0,1,2.953-1.705,2.753,2.753,0,0,1,2.259.954,4.248,4.248,0,0,1,.782,2.755ZM13.729,46H12.288V44.471h-.035a3.327,3.327,0,0,1-3.094,1.74A3.362,3.362,0,0,1,6.447,45a4.958,4.958,0,0,1-1.015-3.292,5.394,5.394,0,0,1,1.125-3.577,3.71,3.71,0,0,1,3-1.345,2.885,2.885,0,0,1,2.7,1.459h.035V32.676h1.441Zm-1.441-4.069V40.6a2.575,2.575,0,0,0-.721-1.846A2.417,2.417,0,0,0,9.739,38a2.489,2.489,0,0,0-2.074.967,4.237,4.237,0,0,0-.756,2.672A3.81,3.81,0,0,0,7.634,44.1a2.37,2.37,0,0,0,1.947.9,2.462,2.462,0,0,0,1.956-.87A3.242,3.242,0,0,0,12.288,41.931Zm11.595-.07H17.528a3.366,3.366,0,0,0,.809,2.32A2.788,2.788,0,0,0,20.463,45a4.422,4.422,0,0,0,2.795-1V45.35a5.224,5.224,0,0,1-3.138.861,3.8,3.8,0,0,1-3-1.226,5.018,5.018,0,0,1-1.09-3.45,4.921,4.921,0,0,1,1.191-3.423,3.819,3.819,0,0,1,2.958-1.323,3.384,3.384,0,0,1,2.733,1.143,4.764,4.764,0,0,1,.967,3.173Zm-1.477-1.222a2.933,2.933,0,0,0-.6-1.942A2.051,2.051,0,0,0,20.156,38a2.328,2.328,0,0,0-1.731.729,3.31,3.31,0,0,0-.879,1.907Zm12.765,5.273a2.779,2.779,0,0,1-1.345.281q-2.364,0-2.364-2.637V38.23H29.915V37h1.547V34.8l1.441-.466V37h2.268v1.23H32.9V43.3a2.1,2.1,0,0,0,.308,1.292,1.228,1.228,0,0,0,1.02.387,1.515,1.515,0,0,0,.94-.3ZM43.54,46H42.1V44.594h-.035a3.018,3.018,0,0,1-2.769,1.617,2.959,2.959,0,0,1-2.1-.712,2.466,2.466,0,0,1-.76-1.89q0-2.522,2.971-2.936l2.7-.378Q42.1,38,40.244,38a4.431,4.431,0,0,0-2.936,1.107V37.633a5.577,5.577,0,0,1,3.059-.844q3.173,0,3.173,3.357ZM42.1,41.447l-2.171.3a3.525,3.525,0,0,0-1.512.5,1.432,1.432,0,0,0-.51,1.261,1.374,1.374,0,0,0,.47,1.077A1.817,1.817,0,0,0,39.629,45a2.314,2.314,0,0,0,1.771-.751,2.685,2.685,0,0,0,.7-1.9ZM47.7,46H46.258V32.676H47.7Zm10.153-4.14H51.5a3.366,3.366,0,0,0,.809,2.32A2.788,2.788,0,0,0,54.433,45a4.422,4.422,0,0,0,2.795-1V45.35a5.224,5.224,0,0,1-3.138.861,3.8,3.8,0,0,1-3-1.226A5.018,5.018,0,0,1,50,41.535a4.921,4.921,0,0,1,1.191-3.423,3.819,3.819,0,0,1,2.958-1.323,3.384,3.384,0,0,1,2.733,1.143,4.764,4.764,0,0,1,.967,3.173Zm-1.477-1.222a2.933,2.933,0,0,0-.6-1.942A2.051,2.051,0,0,0,54.126,38a2.328,2.328,0,0,0-1.731.729,3.31,3.31,0,0,0-.879,1.907ZM67.5,46H66.063V40.867Q66.063,38,63.971,38a2.269,2.269,0,0,0-1.789.813,3.013,3.013,0,0,0-.708,2.052V46H60.034V37h1.441v1.494h.035a3.248,3.248,0,0,1,2.953-1.705,2.753,2.753,0,0,1,2.259.954A4.248,4.248,0,0,1,67.5,40.5Zm6.892-.088a2.779,2.779,0,0,1-1.345.281q-2.364,0-2.364-2.637V38.23H69.141V37h1.547V34.8l1.441-.466V37H74.4v1.23H72.129V43.3a2.1,2.1,0,0,0,.308,1.292,1.228,1.228,0,0,0,1.02.387,1.515,1.515,0,0,0,.94-.3Zm5.688.3A4.175,4.175,0,0,1,76.9,44.95a4.672,4.672,0,0,1-1.191-3.344,4.867,4.867,0,0,1,1.239-3.542A4.455,4.455,0,0,1,80.3,36.789a4.037,4.037,0,0,1,3.142,1.239,4.914,4.914,0,0,1,1.129,3.437,4.835,4.835,0,0,1-1.217,3.45A4.265,4.265,0,0,1,80.085,46.211ZM80.191,38a2.742,2.742,0,0,0-2.2.945,3.88,3.88,0,0,0-.809,2.606A3.67,3.67,0,0,0,78,44.075,2.778,2.778,0,0,0,80.191,45a2.635,2.635,0,0,0,2.149-.905,3.928,3.928,0,0,0,.751-2.575,4,4,0,0,0-.751-2.6A2.623,2.623,0,0,0,80.191,38Z" transform="translate(363 4373)" fill="#212429"/>
    <g transform="matrix(1, 0, 0, 1, 171, 4078)" filter="url(#Trazado_1004433)">
      <path id="Trazado_1004433-2" data-name="Trazado 1004433" d="M10,0H134a10,10,0,0,1,10,10V71a10,10,0,0,1-10,10H10A10,10,0,0,1,0,71V10A10,10,0,0,1,10,0Z" transform="translate(324 279)" fill="#c1f0fa"/>
    </g>
    <path id="Trazado_1004434" data-name="Trazado 1004434" d="M27.872,19H26.062L19.576,8.954a4.2,4.2,0,0,1-.4-.791h-.053a12.976,12.976,0,0,1,.07,1.731V19H17.712V6.4h1.916l6.311,9.888q.4.615.51.844h.035a13.335,13.335,0,0,1-.088-1.854V6.4h1.477Zm10.39,0H36.822V17.576h-.035a2.96,2.96,0,0,1-2.777,1.635q-3.217,0-3.217-3.832V10h1.433v5.15Q32.225,18,34.4,18a2.205,2.205,0,0,0,1.736-.778,2.976,2.976,0,0,0,.681-2.035V10h1.441Zm10.144-4.14H42.053a3.366,3.366,0,0,0,.809,2.32A2.788,2.788,0,0,0,44.988,18a4.422,4.422,0,0,0,2.795-1V18.35a5.224,5.224,0,0,1-3.138.861,3.8,3.8,0,0,1-3-1.226,5.018,5.018,0,0,1-1.09-3.45,4.921,4.921,0,0,1,1.191-3.423,3.819,3.819,0,0,1,2.958-1.323,3.384,3.384,0,0,1,2.733,1.143,4.764,4.764,0,0,1,.967,3.173Zm-1.477-1.222a2.933,2.933,0,0,0-.6-1.942A2.051,2.051,0,0,0,44.681,11a2.328,2.328,0,0,0-1.731.729,3.31,3.31,0,0,0-.879,1.907ZM57.664,10l-3.586,9H52.663l-3.41-9h1.582l2.285,6.539a5.869,5.869,0,0,1,.316,1.257h.035a5.943,5.943,0,0,1,.281-1.222L56.143,10Zm5.31,9.211a4.175,4.175,0,0,1-3.186-1.261A4.672,4.672,0,0,1,58.6,14.605a4.867,4.867,0,0,1,1.239-3.542,4.455,4.455,0,0,1,3.349-1.274,4.037,4.037,0,0,1,3.142,1.239,4.914,4.914,0,0,1,1.129,3.437,4.835,4.835,0,0,1-1.217,3.45A4.265,4.265,0,0,1,62.974,19.211ZM63.08,11a2.742,2.742,0,0,0-2.2.945,3.88,3.88,0,0,0-.809,2.606,3.67,3.67,0,0,0,.817,2.522A2.778,2.778,0,0,0,63.08,18a2.635,2.635,0,0,0,2.149-.905,3.928,3.928,0,0,0,.751-2.575,4,4,0,0,0-.751-2.6A2.623,2.623,0,0,0,63.08,11Zm6.137,7.673V17.128a4.266,4.266,0,0,0,2.593.87q1.9,0,1.9-1.266a1.1,1.1,0,0,0-.163-.611,1.62,1.62,0,0,0-.439-.444,3.383,3.383,0,0,0-.65-.347q-.374-.154-.8-.321a10.357,10.357,0,0,1-1.05-.479,3.173,3.173,0,0,1-.756-.545,2.028,2.028,0,0,1-.457-.69,2.441,2.441,0,0,1-.154-.905,2.15,2.15,0,0,1,.29-1.121,2.572,2.572,0,0,1,.773-.817,3.607,3.607,0,0,1,1.1-.5,4.893,4.893,0,0,1,1.279-.167,5.164,5.164,0,0,1,2.092.4v1.459A4.077,4.077,0,0,0,72.486,11a2.671,2.671,0,0,0-.729.092,1.786,1.786,0,0,0-.558.259,1.2,1.2,0,0,0-.36.4,1.053,1.053,0,0,0-.127.514,1.233,1.233,0,0,0,.127.589,1.3,1.3,0,0,0,.374.422,2.855,2.855,0,0,0,.6.334q.352.149.8.325a11.131,11.131,0,0,1,1.072.47,3.678,3.678,0,0,1,.809.545,2.129,2.129,0,0,1,.514.7,2.254,2.254,0,0,1,.18.94,2.217,2.217,0,0,1-.294,1.16,2.523,2.523,0,0,1-.787.817,3.6,3.6,0,0,1-1.134.483,5.6,5.6,0,0,1-1.345.158A5.106,5.106,0,0,1,69.216,18.675ZM21.516,46H20.075V40.832a3.9,3.9,0,0,0-.461-2.162A1.75,1.75,0,0,0,18.062,38a1.921,1.921,0,0,0-1.569.844,3.228,3.228,0,0,0-.646,2.021V46H14.406V40.656Q14.406,38,12.358,38a1.9,1.9,0,0,0-1.564.8,3.288,3.288,0,0,0-.615,2.07V46H8.737V37h1.441v1.424h.035a3.058,3.058,0,0,1,2.795-1.635,2.6,2.6,0,0,1,2.549,1.863,3.212,3.212,0,0,1,2.988-1.863q2.971,0,2.971,3.665Zm9.96-4.14H25.121a3.366,3.366,0,0,0,.809,2.32A2.788,2.788,0,0,0,28.057,45a4.422,4.422,0,0,0,2.795-1V45.35a5.224,5.224,0,0,1-3.138.861,3.8,3.8,0,0,1-3-1.226,5.018,5.018,0,0,1-1.09-3.45,4.921,4.921,0,0,1,1.191-3.423,3.819,3.819,0,0,1,2.958-1.323,3.384,3.384,0,0,1,2.733,1.143,4.764,4.764,0,0,1,.967,3.173ZM30,40.639a2.933,2.933,0,0,0-.6-1.942A2.051,2.051,0,0,0,27.749,38a2.328,2.328,0,0,0-1.731.729,3.31,3.31,0,0,0-.879,1.907Zm8.351-2.18a1.763,1.763,0,0,0-1.09-.29,1.839,1.839,0,0,0-1.542.87,4.023,4.023,0,0,0-.62,2.373V46H33.657V37H35.1v1.854h.035a3.143,3.143,0,0,1,.94-1.481,2.144,2.144,0,0,1,1.415-.532,2.353,2.353,0,0,1,.861.123Zm7.7,7.128a4.684,4.684,0,0,1-2.461.624,4.074,4.074,0,0,1-3.107-1.252A4.539,4.539,0,0,1,39.3,41.711a4.99,4.99,0,0,1,1.274-3.573,4.458,4.458,0,0,1,3.4-1.349,4.735,4.735,0,0,1,2.092.439v1.477a3.665,3.665,0,0,0-2.145-.7,2.9,2.9,0,0,0-2.263.989,3.752,3.752,0,0,0-.883,2.6,3.573,3.573,0,0,0,.831,2.5A2.863,2.863,0,0,0,43.837,45a3.613,3.613,0,0,0,2.215-.782ZM54.676,46H53.234V44.594H53.2a3.018,3.018,0,0,1-2.769,1.617,2.959,2.959,0,0,1-2.1-.712,2.466,2.466,0,0,1-.76-1.89q0-2.522,2.971-2.936l2.7-.378Q53.234,38,51.38,38a4.431,4.431,0,0,0-2.936,1.107V37.633a5.577,5.577,0,0,1,3.059-.844q3.173,0,3.173,3.357Zm-1.441-4.553-2.171.3a3.525,3.525,0,0,0-1.512.5,1.432,1.432,0,0,0-.51,1.261,1.374,1.374,0,0,0,.47,1.077A1.817,1.817,0,0,0,50.765,45a2.314,2.314,0,0,0,1.771-.751,2.685,2.685,0,0,0,.7-1.9ZM65.075,46H63.634V44.471H63.6a3.327,3.327,0,0,1-3.094,1.74A3.362,3.362,0,0,1,57.793,45a4.958,4.958,0,0,1-1.015-3.292A5.394,5.394,0,0,1,57.9,38.134a3.71,3.71,0,0,1,3-1.345,2.885,2.885,0,0,1,2.7,1.459h.035V32.676h1.441Zm-1.441-4.069V40.6a2.575,2.575,0,0,0-.721-1.846A2.417,2.417,0,0,0,61.085,38a2.489,2.489,0,0,0-2.074.967,4.237,4.237,0,0,0-.756,2.672A3.81,3.81,0,0,0,58.98,44.1a2.37,2.37,0,0,0,1.947.9,2.462,2.462,0,0,0,1.956-.87A3.242,3.242,0,0,0,63.634,41.931Zm8.123,4.28A4.175,4.175,0,0,1,68.57,44.95a4.672,4.672,0,0,1-1.191-3.344,4.867,4.867,0,0,1,1.239-3.542,4.455,4.455,0,0,1,3.349-1.274,4.037,4.037,0,0,1,3.142,1.239,4.914,4.914,0,0,1,1.129,3.437,4.835,4.835,0,0,1-1.217,3.45A4.265,4.265,0,0,1,71.756,46.211ZM71.862,38a2.742,2.742,0,0,0-2.2.945,3.88,3.88,0,0,0-.809,2.606,3.67,3.67,0,0,0,.817,2.522A2.778,2.778,0,0,0,71.862,45a2.635,2.635,0,0,0,2.149-.905,3.928,3.928,0,0,0,.751-2.575,4,4,0,0,0-.751-2.6A2.623,2.623,0,0,0,71.862,38ZM78,45.675V44.128a4.266,4.266,0,0,0,2.593.87q1.9,0,1.9-1.266a1.1,1.1,0,0,0-.163-.611,1.62,1.62,0,0,0-.439-.444,3.383,3.383,0,0,0-.65-.347q-.374-.154-.8-.321a10.357,10.357,0,0,1-1.05-.479,3.173,3.173,0,0,1-.756-.545,2.028,2.028,0,0,1-.457-.69,2.441,2.441,0,0,1-.154-.905,2.15,2.15,0,0,1,.29-1.121,2.572,2.572,0,0,1,.773-.817,3.607,3.607,0,0,1,1.1-.5,4.893,4.893,0,0,1,1.279-.167,5.164,5.164,0,0,1,2.092.4v1.459A4.077,4.077,0,0,0,81.268,38a2.671,2.671,0,0,0-.729.092,1.786,1.786,0,0,0-.558.259,1.2,1.2,0,0,0-.36.4,1.053,1.053,0,0,0-.127.514,1.233,1.233,0,0,0,.127.589,1.3,1.3,0,0,0,.374.422,2.855,2.855,0,0,0,.6.334q.352.149.8.325a11.131,11.131,0,0,1,1.072.47,3.678,3.678,0,0,1,.809.545,2.129,2.129,0,0,1,.514.7,2.254,2.254,0,0,1,.18.94,2.217,2.217,0,0,1-.294,1.16,2.523,2.523,0,0,1-.787.817,3.6,3.6,0,0,1-1.134.483,5.6,5.6,0,0,1-1.345.158A5.106,5.106,0,0,1,78,45.675Z" transform="translate(521 4373)" fill="#212429"/>
    <g transform="matrix(1, 0, 0, 1, 171, 4078)" filter="url(#Trazado_1004435)">
      <path id="Trazado_1004435-2" data-name="Trazado 1004435" d="M10,0H134a10,10,0,0,1,10,10V71a10,10,0,0,1-10,10H10A10,10,0,0,1,0,71V10A10,10,0,0,1,10,0Z" transform="translate(479 279)" fill="#c1f0fa"/>
    </g>
    <path id="Trazado_1004436" data-name="Trazado 1004436" d="M14.1,19H12.342l-2.109-3.533a7.7,7.7,0,0,0-.563-.839,3.207,3.207,0,0,0-.558-.567A1.933,1.933,0,0,0,8.5,13.74a2.53,2.53,0,0,0-.743-.1H6.542V19H5.065V6.4H8.827a5.361,5.361,0,0,1,1.525.207,3.412,3.412,0,0,1,1.213.628,2.92,2.92,0,0,1,.8,1.05,3.483,3.483,0,0,1,.29,1.472,3.545,3.545,0,0,1-.2,1.208,3.156,3.156,0,0,1-.562.98,3.41,3.41,0,0,1-.879.734,4.487,4.487,0,0,1-1.156.47v.035a2.658,2.658,0,0,1,.549.321,3.023,3.023,0,0,1,.444.426,5.646,5.646,0,0,1,.417.558q.207.312.461.725ZM6.542,7.732V12.3h2a3.039,3.039,0,0,0,1.024-.167,2.37,2.37,0,0,0,.813-.479,2.172,2.172,0,0,0,.536-.765,2.56,2.56,0,0,0,.193-1.015A1.976,1.976,0,0,0,10.457,8.3a2.813,2.813,0,0,0-1.894-.567Zm15.8,7.128H15.992a3.366,3.366,0,0,0,.809,2.32A2.788,2.788,0,0,0,18.927,18a4.422,4.422,0,0,0,2.795-1V18.35a5.224,5.224,0,0,1-3.138.861,3.8,3.8,0,0,1-3-1.226,5.018,5.018,0,0,1-1.09-3.45,4.921,4.921,0,0,1,1.191-3.423,3.819,3.819,0,0,1,2.958-1.323,3.384,3.384,0,0,1,2.733,1.143,4.764,4.764,0,0,1,.967,3.173ZM20.87,13.639a2.933,2.933,0,0,0-.6-1.942A2.051,2.051,0,0,0,18.62,11a2.328,2.328,0,0,0-1.731.729,3.31,3.31,0,0,0-.879,1.907ZM32.209,19H30.768V17.471h-.035a3.327,3.327,0,0,1-3.094,1.74A3.362,3.362,0,0,1,24.928,18a4.958,4.958,0,0,1-1.015-3.292,5.394,5.394,0,0,1,1.125-3.577,3.71,3.71,0,0,1,3-1.345,2.885,2.885,0,0,1,2.7,1.459h.035V5.676h1.441Zm-1.441-4.069V13.6a2.575,2.575,0,0,0-.721-1.846A2.417,2.417,0,0,0,28.219,11a2.489,2.489,0,0,0-2.074.967,4.237,4.237,0,0,0-.756,2.672,3.81,3.81,0,0,0,.725,2.457,2.37,2.37,0,0,0,1.947.9,2.462,2.462,0,0,0,1.956-.87A3.242,3.242,0,0,0,30.768,14.931ZM42.406,19H40.965V17.576H40.93a2.96,2.96,0,0,1-2.777,1.635q-3.217,0-3.217-3.832V10h1.433v5.15q0,2.848,2.18,2.848a2.205,2.205,0,0,0,1.736-.778,2.976,2.976,0,0,0,.681-2.035V10h1.441Zm9.046-.413a4.684,4.684,0,0,1-2.461.624,4.074,4.074,0,0,1-3.107-1.252A4.539,4.539,0,0,1,44.7,14.711a4.99,4.99,0,0,1,1.274-3.573,4.458,4.458,0,0,1,3.4-1.349,4.735,4.735,0,0,1,2.092.439v1.477a3.665,3.665,0,0,0-2.145-.7,2.9,2.9,0,0,0-2.263.989,3.752,3.752,0,0,0-.883,2.6,3.573,3.573,0,0,0,.831,2.5A2.863,2.863,0,0,0,49.237,18a3.613,3.613,0,0,0,2.215-.782Zm8.316,0a4.684,4.684,0,0,1-2.461.624A4.074,4.074,0,0,1,54.2,17.958a4.539,4.539,0,0,1-1.182-3.248,4.99,4.99,0,0,1,1.274-3.573,4.458,4.458,0,0,1,3.4-1.349,4.735,4.735,0,0,1,2.092.439v1.477a3.665,3.665,0,0,0-2.145-.7,2.9,2.9,0,0,0-2.263.989,3.752,3.752,0,0,0-.883,2.6,3.573,3.573,0,0,0,.831,2.5A2.863,2.863,0,0,0,57.554,18a3.613,3.613,0,0,0,2.215-.782Zm2.92-10.872a.913.913,0,0,1-.659-.264.89.89,0,0,1-.272-.668.923.923,0,0,1,.932-.94.931.931,0,0,1,.672.268.939.939,0,0,1,0,1.332A.923.923,0,0,1,62.688,7.715ZM63.391,19H61.95V10h1.441Zm6.681.211a4.175,4.175,0,0,1-3.186-1.261A4.672,4.672,0,0,1,65.7,14.605a4.867,4.867,0,0,1,1.239-3.542,4.455,4.455,0,0,1,3.349-1.274,4.037,4.037,0,0,1,3.142,1.239,4.914,4.914,0,0,1,1.129,3.437,4.835,4.835,0,0,1-1.217,3.45A4.265,4.265,0,0,1,70.073,19.211ZM70.178,11a2.742,2.742,0,0,0-2.2.945,3.88,3.88,0,0,0-.809,2.606,3.67,3.67,0,0,0,.817,2.522A2.778,2.778,0,0,0,70.178,18a2.635,2.635,0,0,0,2.149-.905,3.928,3.928,0,0,0,.751-2.575,4,4,0,0,0-.751-2.6A2.623,2.623,0,0,0,70.178,11Zm2.109-5.59-2.3,2.883H68.869l1.96-2.883ZM84.33,19H82.889V13.867Q82.889,11,80.8,11a2.269,2.269,0,0,0-1.789.813,3.013,3.013,0,0,0-.708,2.052V19H76.86V10H78.3v1.494h.035a3.248,3.248,0,0,1,2.953-1.705,2.753,2.753,0,0,1,2.259.954A4.248,4.248,0,0,1,84.33,13.5Zm-71.4,27H11.493V44.471h-.035a3.327,3.327,0,0,1-3.094,1.74A3.362,3.362,0,0,1,5.653,45a4.958,4.958,0,0,1-1.015-3.292,5.394,5.394,0,0,1,1.125-3.577,3.71,3.71,0,0,1,3-1.345,2.885,2.885,0,0,1,2.7,1.459h.035V32.676h1.441Zm-1.441-4.069V40.6a2.575,2.575,0,0,0-.721-1.846A2.417,2.417,0,0,0,8.945,38a2.489,2.489,0,0,0-2.074.967,4.237,4.237,0,0,0-.756,2.672A3.81,3.81,0,0,0,6.84,44.1a2.37,2.37,0,0,0,1.947.9,2.462,2.462,0,0,0,1.956-.87A3.242,3.242,0,0,0,11.493,41.931Zm11.595-.07H16.733a3.366,3.366,0,0,0,.809,2.32A2.788,2.788,0,0,0,19.669,45a4.422,4.422,0,0,0,2.795-1V45.35a5.224,5.224,0,0,1-3.138.861,3.8,3.8,0,0,1-3-1.226,5.018,5.018,0,0,1-1.09-3.45,4.921,4.921,0,0,1,1.191-3.423,3.819,3.819,0,0,1,2.958-1.323,3.384,3.384,0,0,1,2.733,1.143,4.764,4.764,0,0,1,.967,3.173Zm-1.477-1.222a2.933,2.933,0,0,0-.6-1.942A2.051,2.051,0,0,0,19.361,38a2.328,2.328,0,0,0-1.731.729,3.31,3.31,0,0,0-.879,1.907ZM34.9,38.459a1.763,1.763,0,0,0-1.09-.29,1.839,1.839,0,0,0-1.542.87,4.023,4.023,0,0,0-.62,2.373V46H30.2V37h1.441v1.854h.035a3.143,3.143,0,0,1,.94-1.481,2.144,2.144,0,0,1,1.415-.532,2.353,2.353,0,0,1,.861.123Zm2.3-3.744a.913.913,0,0,1-.659-.264.89.89,0,0,1-.272-.668.923.923,0,0,1,.932-.94.931.931,0,0,1,.672.268.939.939,0,0,1,0,1.332A.923.923,0,0,1,37.2,34.715ZM37.9,46H36.462V37H37.9Zm10.153-4.14H41.7a3.366,3.366,0,0,0,.809,2.32A2.788,2.788,0,0,0,44.637,45a4.422,4.422,0,0,0,2.795-1V45.35a5.224,5.224,0,0,1-3.138.861,3.8,3.8,0,0,1-3-1.226,5.018,5.018,0,0,1-1.09-3.45A4.921,4.921,0,0,1,41.4,38.112a3.819,3.819,0,0,1,2.958-1.323,3.384,3.384,0,0,1,2.733,1.143,4.764,4.764,0,0,1,.967,3.173ZM46.58,40.639a2.933,2.933,0,0,0-.6-1.942A2.051,2.051,0,0,0,44.33,38a2.328,2.328,0,0,0-1.731.729,3.31,3.31,0,0,0-.879,1.907Zm3.113,5.036V44.128a4.266,4.266,0,0,0,2.593.87q1.9,0,1.9-1.266a1.1,1.1,0,0,0-.163-.611,1.62,1.62,0,0,0-.439-.444,3.383,3.383,0,0,0-.65-.347q-.374-.154-.8-.321a10.357,10.357,0,0,1-1.05-.479,3.173,3.173,0,0,1-.756-.545,2.028,2.028,0,0,1-.457-.69,2.441,2.441,0,0,1-.154-.905A2.15,2.15,0,0,1,50,38.27a2.572,2.572,0,0,1,.773-.817,3.607,3.607,0,0,1,1.1-.5,4.893,4.893,0,0,1,1.279-.167,5.164,5.164,0,0,1,2.092.4v1.459A4.077,4.077,0,0,0,52.962,38a2.671,2.671,0,0,0-.729.092,1.786,1.786,0,0,0-.558.259,1.2,1.2,0,0,0-.36.4,1.053,1.053,0,0,0-.127.514,1.233,1.233,0,0,0,.127.589,1.3,1.3,0,0,0,.374.422,2.855,2.855,0,0,0,.6.334q.352.149.8.325a11.131,11.131,0,0,1,1.072.47,3.678,3.678,0,0,1,.809.545,2.129,2.129,0,0,1,.514.7,2.254,2.254,0,0,1,.18.94,2.217,2.217,0,0,1-.294,1.16,2.523,2.523,0,0,1-.787.817,3.6,3.6,0,0,1-1.134.483,5.6,5.6,0,0,1-1.345.158A5.106,5.106,0,0,1,49.693,45.675Zm15.866-.4q0,4.957-4.746,4.957a6.372,6.372,0,0,1-2.918-.633V48.162a5.993,5.993,0,0,0,2.9.844q3.322,0,3.322-3.533v-.984h-.035a3.641,3.641,0,0,1-5.8.523,4.8,4.8,0,0,1-1.024-3.221,5.6,5.6,0,0,1,1.1-3.647,3.685,3.685,0,0,1,3.019-1.354,2.934,2.934,0,0,1,2.7,1.459h.035V37h1.441Zm-1.441-3.349V40.6a2.575,2.575,0,0,0-.725-1.837A2.387,2.387,0,0,0,61.586,38a2.5,2.5,0,0,0-2.092.971,4.335,4.335,0,0,0-.756,2.72,3.721,3.721,0,0,0,.725,2.4,2.343,2.343,0,0,0,1.92.9,2.509,2.509,0,0,0,1.973-.861A3.21,3.21,0,0,0,64.117,41.931Zm8.123,4.28a4.175,4.175,0,0,1-3.186-1.261,4.672,4.672,0,0,1-1.191-3.344A4.867,4.867,0,0,1,69.1,38.063a4.455,4.455,0,0,1,3.349-1.274,4.037,4.037,0,0,1,3.142,1.239,4.914,4.914,0,0,1,1.129,3.437,4.835,4.835,0,0,1-1.217,3.45A4.265,4.265,0,0,1,72.24,46.211ZM72.346,38a2.742,2.742,0,0,0-2.2.945,3.88,3.88,0,0,0-.809,2.606,3.67,3.67,0,0,0,.817,2.522A2.778,2.778,0,0,0,72.346,45a2.635,2.635,0,0,0,2.149-.905,3.928,3.928,0,0,0,.751-2.575,4,4,0,0,0-.751-2.6A2.623,2.623,0,0,0,72.346,38Zm6.137,7.673V44.128a4.266,4.266,0,0,0,2.593.87q1.9,0,1.9-1.266a1.1,1.1,0,0,0-.163-.611,1.62,1.62,0,0,0-.439-.444,3.383,3.383,0,0,0-.65-.347q-.374-.154-.8-.321a10.357,10.357,0,0,1-1.05-.479,3.173,3.173,0,0,1-.756-.545,2.028,2.028,0,0,1-.457-.69,2.441,2.441,0,0,1-.154-.905,2.15,2.15,0,0,1,.29-1.121,2.572,2.572,0,0,1,.773-.817,3.607,3.607,0,0,1,1.1-.5,4.893,4.893,0,0,1,1.279-.167,5.164,5.164,0,0,1,2.092.4v1.459A4.077,4.077,0,0,0,81.752,38a2.671,2.671,0,0,0-.729.092,1.786,1.786,0,0,0-.558.259,1.2,1.2,0,0,0-.36.4,1.053,1.053,0,0,0-.127.514,1.233,1.233,0,0,0,.127.589,1.3,1.3,0,0,0,.374.422,2.855,2.855,0,0,0,.6.334q.352.149.8.325a11.131,11.131,0,0,1,1.072.47,3.678,3.678,0,0,1,.809.545,2.129,2.129,0,0,1,.514.7,2.254,2.254,0,0,1,.18.94,2.217,2.217,0,0,1-.294,1.16,2.523,2.523,0,0,1-.787.817,3.6,3.6,0,0,1-1.134.483,5.6,5.6,0,0,1-1.345.158A5.106,5.106,0,0,1,78.482,45.675Z" transform="translate(678 4373)" fill="#212429"/>
    <g transform="matrix(1, 0, 0, 1, 171, 4078)" filter="url(#Trazado_1004437)">
      <path id="Trazado_1004437-2" data-name="Trazado 1004437" d="M10,0H134a10,10,0,0,1,10,10V71a10,10,0,0,1-10,10H10A10,10,0,0,1,0,71V10A10,10,0,0,1,10,0Z" transform="translate(635 279)" fill="#c1f0fa"/>
    </g>
    <path id="Trazado_1004438" data-name="Trazado 1004438" d="M6.065,19V6.4h3.48q6.662,0,6.662,6.144a6.191,6.191,0,0,1-1.85,4.689A6.863,6.863,0,0,1,9.4,19ZM7.542,7.732v9.932H9.423a5.338,5.338,0,0,0,3.858-1.327,4.975,4.975,0,0,0,1.38-3.762q0-4.843-5.15-4.843ZM25.728,14.86H19.374a3.366,3.366,0,0,0,.809,2.32A2.788,2.788,0,0,0,22.309,18,4.422,4.422,0,0,0,25.1,17V18.35a5.224,5.224,0,0,1-3.138.861,3.8,3.8,0,0,1-3-1.226,5.018,5.018,0,0,1-1.09-3.45,4.921,4.921,0,0,1,1.191-3.423,3.819,3.819,0,0,1,2.958-1.323,3.384,3.384,0,0,1,2.733,1.143,4.764,4.764,0,0,1,.967,3.173Zm-1.477-1.222a2.933,2.933,0,0,0-.6-1.942A2.051,2.051,0,0,0,22,11a2.328,2.328,0,0,0-1.731.729,3.31,3.31,0,0,0-.879,1.907Zm3.113,5.036V17.128a4.266,4.266,0,0,0,2.593.87q1.9,0,1.9-1.266a1.1,1.1,0,0,0-.163-.611,1.62,1.62,0,0,0-.439-.444,3.383,3.383,0,0,0-.65-.347q-.374-.154-.8-.321a10.357,10.357,0,0,1-1.05-.479,3.173,3.173,0,0,1-.756-.545,2.028,2.028,0,0,1-.457-.69,2.441,2.441,0,0,1-.154-.905,2.15,2.15,0,0,1,.29-1.121,2.572,2.572,0,0,1,.773-.817,3.607,3.607,0,0,1,1.1-.5,4.893,4.893,0,0,1,1.279-.167,5.164,5.164,0,0,1,2.092.4v1.459A4.077,4.077,0,0,0,30.634,11a2.671,2.671,0,0,0-.729.092,1.786,1.786,0,0,0-.558.259,1.2,1.2,0,0,0-.36.4,1.053,1.053,0,0,0-.127.514,1.233,1.233,0,0,0,.127.589,1.3,1.3,0,0,0,.374.422,2.855,2.855,0,0,0,.6.334q.352.149.8.325a11.131,11.131,0,0,1,1.072.47,3.678,3.678,0,0,1,.809.545,2.129,2.129,0,0,1,.514.7,2.254,2.254,0,0,1,.18.94,2.217,2.217,0,0,1-.294,1.16,2.523,2.523,0,0,1-.787.817,3.6,3.6,0,0,1-1.134.483,5.6,5.6,0,0,1-1.345.158A5.106,5.106,0,0,1,27.365,18.675ZM41.991,19H40.55V17.594h-.035a3.018,3.018,0,0,1-2.769,1.617,2.959,2.959,0,0,1-2.1-.712,2.466,2.466,0,0,1-.76-1.89q0-2.522,2.971-2.936l2.7-.378Q40.55,11,38.7,11a4.431,4.431,0,0,0-2.936,1.107V10.633a5.577,5.577,0,0,1,3.059-.844q3.173,0,3.173,3.357ZM40.55,14.447l-2.171.3a3.525,3.525,0,0,0-1.512.5,1.432,1.432,0,0,0-.51,1.261,1.374,1.374,0,0,0,.47,1.077A1.817,1.817,0,0,0,38.08,18a2.314,2.314,0,0,0,1.771-.751,2.685,2.685,0,0,0,.7-1.9ZM49.4,11.459a1.763,1.763,0,0,0-1.09-.29,1.839,1.839,0,0,0-1.542.87,4.023,4.023,0,0,0-.62,2.373V19H44.709V10H46.15v1.854h.035a3.143,3.143,0,0,1,.94-1.481,2.144,2.144,0,0,1,1.415-.532,2.353,2.353,0,0,1,.861.123Zm6.26,0a1.763,1.763,0,0,0-1.09-.29,1.839,1.839,0,0,0-1.542.87,4.023,4.023,0,0,0-.62,2.373V19H50.969V10H52.41v1.854h.035a3.143,3.143,0,0,1,.94-1.481A2.144,2.144,0,0,1,54.8,9.842a2.353,2.353,0,0,1,.861.123Zm5.328,7.752A4.175,4.175,0,0,1,57.8,17.95a4.672,4.672,0,0,1-1.191-3.344,4.867,4.867,0,0,1,1.239-3.542A4.455,4.455,0,0,1,61.2,9.789a4.037,4.037,0,0,1,3.142,1.239,4.914,4.914,0,0,1,1.129,3.437,4.835,4.835,0,0,1-1.217,3.45A4.265,4.265,0,0,1,60.99,19.211ZM61.1,11a2.742,2.742,0,0,0-2.2.945,3.88,3.88,0,0,0-.809,2.606,3.67,3.67,0,0,0,.817,2.522A2.778,2.778,0,0,0,61.1,18a2.635,2.635,0,0,0,2.149-.905A3.928,3.928,0,0,0,64,14.518a4,4,0,0,0-.751-2.6A2.623,2.623,0,0,0,61.1,11Zm8.123,8H67.777V5.676h1.441Zm4.361,0H72.138V5.676H73.58Zm6.681.211a4.175,4.175,0,0,1-3.186-1.261,4.672,4.672,0,0,1-1.191-3.344,4.867,4.867,0,0,1,1.239-3.542,4.455,4.455,0,0,1,3.349-1.274,4.037,4.037,0,0,1,3.142,1.239,4.914,4.914,0,0,1,1.129,3.437,4.835,4.835,0,0,1-1.217,3.45A4.265,4.265,0,0,1,80.261,19.211ZM80.367,11a2.742,2.742,0,0,0-2.2.945,3.88,3.88,0,0,0-.809,2.606,3.67,3.67,0,0,0,.817,2.522A2.778,2.778,0,0,0,80.367,18a2.635,2.635,0,0,0,2.149-.905,3.928,3.928,0,0,0,.751-2.575,4,4,0,0,0-.751-2.6A2.623,2.623,0,0,0,80.367,11ZM9.819,41.86H3.464a3.366,3.366,0,0,0,.809,2.32A2.788,2.788,0,0,0,6.4,45a4.422,4.422,0,0,0,2.795-1V45.35a5.224,5.224,0,0,1-3.138.861,3.8,3.8,0,0,1-3-1.226,5.018,5.018,0,0,1-1.09-3.45,4.921,4.921,0,0,1,1.191-3.423,3.819,3.819,0,0,1,2.958-1.323,3.384,3.384,0,0,1,2.733,1.143A4.764,4.764,0,0,1,9.819,41.1ZM8.342,40.639a2.933,2.933,0,0,0-.6-1.942A2.051,2.051,0,0,0,6.092,38a2.328,2.328,0,0,0-1.731.729,3.31,3.31,0,0,0-.879,1.907Zm9.793,4.948a4.684,4.684,0,0,1-2.461.624,4.074,4.074,0,0,1-3.107-1.252,4.539,4.539,0,0,1-1.182-3.248,4.99,4.99,0,0,1,1.274-3.573,4.458,4.458,0,0,1,3.4-1.349,4.735,4.735,0,0,1,2.092.439v1.477a3.665,3.665,0,0,0-2.145-.7,2.9,2.9,0,0,0-2.263.989,3.752,3.752,0,0,0-.883,2.6,3.573,3.573,0,0,0,.831,2.5A2.863,2.863,0,0,0,15.92,45a3.613,3.613,0,0,0,2.215-.782Zm5.943.624a4.175,4.175,0,0,1-3.186-1.261A4.672,4.672,0,0,1,19.7,41.605a4.867,4.867,0,0,1,1.239-3.542,4.455,4.455,0,0,1,3.349-1.274,4.037,4.037,0,0,1,3.142,1.239,4.914,4.914,0,0,1,1.129,3.437,4.835,4.835,0,0,1-1.217,3.45A4.265,4.265,0,0,1,24.078,46.211ZM24.184,38a2.742,2.742,0,0,0-2.2.945,3.88,3.88,0,0,0-.809,2.606A3.67,3.67,0,0,0,22,44.075,2.778,2.778,0,0,0,24.184,45a2.635,2.635,0,0,0,2.149-.905,3.928,3.928,0,0,0,.751-2.575,4,4,0,0,0-.751-2.6A2.623,2.623,0,0,0,24.184,38Zm14.152,8H36.895V40.867Q36.895,38,34.8,38a2.269,2.269,0,0,0-1.789.813,3.013,3.013,0,0,0-.708,2.052V46H30.865V37h1.441v1.494h.035A3.248,3.248,0,0,1,35.3,36.789a2.753,2.753,0,0,1,2.259.954,4.248,4.248,0,0,1,.782,2.755Zm6.479.211a4.175,4.175,0,0,1-3.186-1.261,4.672,4.672,0,0,1-1.191-3.344,4.867,4.867,0,0,1,1.239-3.542,4.455,4.455,0,0,1,3.349-1.274,4.037,4.037,0,0,1,3.142,1.239A4.914,4.914,0,0,1,49.3,41.465a4.835,4.835,0,0,1-1.217,3.45A4.265,4.265,0,0,1,44.815,46.211ZM44.921,38a2.742,2.742,0,0,0-2.2.945,3.88,3.88,0,0,0-.809,2.606,3.67,3.67,0,0,0,.817,2.522A2.778,2.778,0,0,0,44.921,45a2.635,2.635,0,0,0,2.149-.905,3.928,3.928,0,0,0,.751-2.575,4,4,0,0,0-.751-2.6A2.623,2.623,0,0,0,44.921,38Zm2.109-5.59-2.3,2.883H43.611l1.96-2.883ZM64.382,46H62.94V40.832a3.9,3.9,0,0,0-.461-2.162A1.75,1.75,0,0,0,60.928,38a1.921,1.921,0,0,0-1.569.844,3.228,3.228,0,0,0-.646,2.021V46H57.271V40.656Q57.271,38,55.223,38a1.9,1.9,0,0,0-1.564.8,3.288,3.288,0,0,0-.615,2.07V46H51.6V37h1.441v1.424h.035a3.058,3.058,0,0,1,2.795-1.635,2.6,2.6,0,0,1,2.549,1.863,3.212,3.212,0,0,1,2.988-1.863q2.971,0,2.971,3.665Zm3.465-11.285a.913.913,0,0,1-.659-.264.89.89,0,0,1-.272-.668.923.923,0,0,1,.932-.94.931.931,0,0,1,.672.268.939.939,0,0,1,0,1.332A.923.923,0,0,1,67.846,34.715ZM68.549,46H67.108V37h1.441Zm9.055-.413a4.684,4.684,0,0,1-2.461.624,4.074,4.074,0,0,1-3.107-1.252,4.539,4.539,0,0,1-1.182-3.248,4.99,4.99,0,0,1,1.274-3.573,4.458,4.458,0,0,1,3.4-1.349,4.735,4.735,0,0,1,2.092.439v1.477a3.665,3.665,0,0,0-2.145-.7,2.9,2.9,0,0,0-2.263.989,3.752,3.752,0,0,0-.883,2.6,3.573,3.573,0,0,0,.831,2.5A2.863,2.863,0,0,0,75.389,45a3.613,3.613,0,0,0,2.215-.782Zm5.943.624a4.175,4.175,0,0,1-3.186-1.261,4.672,4.672,0,0,1-1.191-3.344,4.867,4.867,0,0,1,1.239-3.542,4.455,4.455,0,0,1,3.349-1.274A4.037,4.037,0,0,1,86.9,38.028a4.914,4.914,0,0,1,1.129,3.437,4.835,4.835,0,0,1-1.217,3.45A4.265,4.265,0,0,1,83.547,46.211ZM83.653,38a2.742,2.742,0,0,0-2.2.945,3.88,3.88,0,0,0-.809,2.606,3.67,3.67,0,0,0,.817,2.522A2.778,2.778,0,0,0,83.653,45a2.635,2.635,0,0,0,2.149-.905,3.928,3.928,0,0,0,.751-2.575,4,4,0,0,0-.751-2.6A2.623,2.623,0,0,0,83.653,38Z" transform="translate(833 4373)" fill="#212429"/>
    <g transform="matrix(1, 0, 0, 1, 171, 4078)" filter="url(#Trazado_1004439)">
      <path id="Trazado_1004439-2" data-name="Trazado 1004439" d="M10,0H134a10,10,0,0,1,10,10V71a10,10,0,0,1-10,10H10A10,10,0,0,1,0,71V10A10,10,0,0,1,10,0Z" transform="translate(792 279)" fill="#c1f0fa"/>
    </g>
    <path id="Trazado_1004440" data-name="Trazado 1004440" d="M39.574,19H38.106V10.545q0-1,.123-2.452h-.035a7.84,7.84,0,0,1-.378,1.222L33.509,19h-.721l-4.3-9.615a7.533,7.533,0,0,1-.378-1.292h-.035q.07.756.07,2.47V19H26.724V6.4h1.951l3.867,8.789a11.254,11.254,0,0,1,.58,1.512h.053q.378-1.037.606-1.547L37.728,6.4h1.846Zm10.355-4.14H43.575a3.366,3.366,0,0,0,.809,2.32A2.788,2.788,0,0,0,46.51,18a4.422,4.422,0,0,0,2.795-1V18.35a5.224,5.224,0,0,1-3.138.861,3.8,3.8,0,0,1-3-1.226,5.018,5.018,0,0,1-1.09-3.45,4.921,4.921,0,0,1,1.191-3.423,3.819,3.819,0,0,1,2.958-1.323,3.384,3.384,0,0,1,2.733,1.143,4.764,4.764,0,0,1,.967,3.173Zm-1.477-1.222a2.933,2.933,0,0,0-.6-1.942A2.051,2.051,0,0,0,46.2,11a2.328,2.328,0,0,0-1.731.729,3.31,3.31,0,0,0-.879,1.907Zm5.1,4.983a5.641,5.641,0,0,1-.892,3.415,2.99,2.99,0,0,1-2.553,1.2,2.71,2.71,0,0,1-1.2-.281V21.61a2.385,2.385,0,0,0,1.23.4q1.969,0,1.969-3.146V10h1.441Zm-.7-10.907a.913.913,0,0,1-.659-.264.89.89,0,0,1-.272-.668.923.923,0,0,1,.932-.94.931.931,0,0,1,.672.268.939.939,0,0,1,0,1.332A.923.923,0,0,1,52.849,7.715Zm7.385,11.5a4.175,4.175,0,0,1-3.186-1.261,4.672,4.672,0,0,1-1.191-3.344A4.867,4.867,0,0,1,57.1,11.063a4.455,4.455,0,0,1,3.349-1.274,4.037,4.037,0,0,1,3.142,1.239,4.914,4.914,0,0,1,1.129,3.437,4.835,4.835,0,0,1-1.217,3.45A4.265,4.265,0,0,1,60.234,19.211ZM60.339,11a2.742,2.742,0,0,0-2.2.945,3.88,3.88,0,0,0-.809,2.606,3.67,3.67,0,0,0,.817,2.522A2.778,2.778,0,0,0,60.339,18a2.635,2.635,0,0,0,2.149-.905,3.928,3.928,0,0,0,.751-2.575,4,4,0,0,0-.751-2.6A2.623,2.623,0,0,0,60.339,11Zm11.375.457a1.763,1.763,0,0,0-1.09-.29,1.839,1.839,0,0,0-1.542.87,4.023,4.023,0,0,0-.62,2.373V19H67.021V10h1.441v1.854H68.5a3.143,3.143,0,0,1,.94-1.481,2.144,2.144,0,0,1,1.415-.532,2.353,2.353,0,0,1,.861.123ZM79.723,19H78.281V17.594h-.035a3.018,3.018,0,0,1-2.769,1.617,2.959,2.959,0,0,1-2.1-.712,2.466,2.466,0,0,1-.76-1.89q0-2.522,2.971-2.936l2.7-.378Q78.281,11,76.427,11a4.431,4.431,0,0,0-2.936,1.107V10.633a5.577,5.577,0,0,1,3.059-.844q3.173,0,3.173,3.357Zm-1.441-4.553-2.171.3a3.525,3.525,0,0,0-1.512.5,1.432,1.432,0,0,0-.51,1.261,1.374,1.374,0,0,0,.47,1.077A1.817,1.817,0,0,0,75.811,18a2.314,2.314,0,0,0,1.771-.751,2.685,2.685,0,0,0,.7-1.9ZM95.054,19H93.613V17.471h-.035a3.327,3.327,0,0,1-3.094,1.74A3.362,3.362,0,0,1,87.772,18a4.958,4.958,0,0,1-1.015-3.292,5.394,5.394,0,0,1,1.125-3.577,3.71,3.71,0,0,1,3-1.345,2.885,2.885,0,0,1,2.7,1.459h.035V5.676h1.441Zm-1.441-4.069V13.6a2.575,2.575,0,0,0-.721-1.846A2.417,2.417,0,0,0,91.064,11a2.489,2.489,0,0,0-2.074.967,4.237,4.237,0,0,0-.756,2.672,3.81,3.81,0,0,0,.725,2.457,2.37,2.37,0,0,0,1.947.9,2.462,2.462,0,0,0,1.956-.87A3.242,3.242,0,0,0,93.613,14.931Zm11.595-.07H98.853a3.366,3.366,0,0,0,.809,2.32,2.788,2.788,0,0,0,2.127.817,4.422,4.422,0,0,0,2.795-1V18.35a5.224,5.224,0,0,1-3.138.861,3.8,3.8,0,0,1-3-1.226,5.018,5.018,0,0,1-1.09-3.45,4.921,4.921,0,0,1,1.191-3.423,3.819,3.819,0,0,1,2.958-1.323,3.384,3.384,0,0,1,2.733,1.143,4.764,4.764,0,0,1,.967,3.173Zm-1.477-1.222a2.933,2.933,0,0,0-.6-1.942A2.051,2.051,0,0,0,101.481,11a2.328,2.328,0,0,0-1.731.729,3.31,3.31,0,0,0-.879,1.907ZM13.5,45.587a4.684,4.684,0,0,1-2.461.624,4.074,4.074,0,0,1-3.107-1.252A4.539,4.539,0,0,1,6.75,41.711a4.99,4.99,0,0,1,1.274-3.573,4.458,4.458,0,0,1,3.4-1.349,4.735,4.735,0,0,1,2.092.439v1.477a3.665,3.665,0,0,0-2.145-.7,2.9,2.9,0,0,0-2.263.989,3.752,3.752,0,0,0-.883,2.6,3.573,3.573,0,0,0,.831,2.5A2.863,2.863,0,0,0,11.285,45a3.613,3.613,0,0,0,2.215-.782ZM22.124,46H20.683V44.594h-.035a3.018,3.018,0,0,1-2.769,1.617,2.959,2.959,0,0,1-2.1-.712,2.466,2.466,0,0,1-.76-1.89q0-2.522,2.971-2.936l2.7-.378Q20.683,38,18.828,38a4.431,4.431,0,0,0-2.936,1.107V37.633a5.577,5.577,0,0,1,3.059-.844q3.173,0,3.173,3.357Zm-1.441-4.553-2.171.3a3.525,3.525,0,0,0-1.512.5,1.432,1.432,0,0,0-.51,1.261,1.374,1.374,0,0,0,.47,1.077A1.817,1.817,0,0,0,18.213,45a2.314,2.314,0,0,0,1.771-.751,2.685,2.685,0,0,0,.7-1.9ZM26.283,46H24.842V32.676h1.441Zm3.658-11.285a.913.913,0,0,1-.659-.264.89.89,0,0,1-.272-.668.923.923,0,0,1,.932-.94.931.931,0,0,1,.672.268.939.939,0,0,1,0,1.332A.923.923,0,0,1,29.941,34.715ZM30.644,46H29.2V37h1.441Zm10.6,0H39.8V44.471h-.035a3.327,3.327,0,0,1-3.094,1.74A3.362,3.362,0,0,1,33.964,45a4.958,4.958,0,0,1-1.015-3.292,5.394,5.394,0,0,1,1.125-3.577,3.71,3.71,0,0,1,3-1.345,2.885,2.885,0,0,1,2.7,1.459H39.8V32.676h1.441ZM39.8,41.931V40.6a2.575,2.575,0,0,0-.721-1.846A2.417,2.417,0,0,0,37.255,38a2.489,2.489,0,0,0-2.074.967,4.237,4.237,0,0,0-.756,2.672A3.81,3.81,0,0,0,35.15,44.1,2.37,2.37,0,0,0,37.1,45a2.462,2.462,0,0,0,1.956-.87A3.242,3.242,0,0,0,39.8,41.931ZM50.608,46H49.166V44.594h-.035a3.018,3.018,0,0,1-2.769,1.617,2.959,2.959,0,0,1-2.1-.712,2.466,2.466,0,0,1-.76-1.89q0-2.522,2.971-2.936l2.7-.378Q49.166,38,47.312,38a4.431,4.431,0,0,0-2.936,1.107V37.633a5.577,5.577,0,0,1,3.059-.844q3.173,0,3.173,3.357Zm-1.441-4.553-2.171.3a3.525,3.525,0,0,0-1.512.5,1.432,1.432,0,0,0-.51,1.261,1.374,1.374,0,0,0,.47,1.077A1.817,1.817,0,0,0,46.7,45a2.314,2.314,0,0,0,1.771-.751,2.685,2.685,0,0,0,.7-1.9ZM61.007,46H59.566V44.471H59.53a3.327,3.327,0,0,1-3.094,1.74A3.362,3.362,0,0,1,53.725,45a4.958,4.958,0,0,1-1.015-3.292,5.394,5.394,0,0,1,1.125-3.577,3.71,3.71,0,0,1,3-1.345,2.885,2.885,0,0,1,2.7,1.459h.035V32.676h1.441Zm-1.441-4.069V40.6a2.575,2.575,0,0,0-.721-1.846A2.417,2.417,0,0,0,57.017,38a2.489,2.489,0,0,0-2.074.967,4.237,4.237,0,0,0-.756,2.672,3.81,3.81,0,0,0,.725,2.457,2.37,2.37,0,0,0,1.947.9,2.462,2.462,0,0,0,1.956-.87A3.242,3.242,0,0,0,59.566,41.931ZM76.541,46H75.1V44.471h-.035a3.327,3.327,0,0,1-3.094,1.74A3.362,3.362,0,0,1,69.259,45a4.958,4.958,0,0,1-1.015-3.292,5.394,5.394,0,0,1,1.125-3.577,3.71,3.71,0,0,1,3-1.345,2.885,2.885,0,0,1,2.7,1.459H75.1V32.676h1.441ZM75.1,41.931V40.6a2.575,2.575,0,0,0-.721-1.846A2.417,2.417,0,0,0,72.551,38a2.489,2.489,0,0,0-2.074.967,4.237,4.237,0,0,0-.756,2.672,3.81,3.81,0,0,0,.725,2.457,2.37,2.37,0,0,0,1.947.9,2.462,2.462,0,0,0,1.956-.87A3.242,3.242,0,0,0,75.1,41.931Zm11.595-.07H80.34a3.366,3.366,0,0,0,.809,2.32A2.788,2.788,0,0,0,83.275,45a4.422,4.422,0,0,0,2.795-1V45.35a5.224,5.224,0,0,1-3.138.861,3.8,3.8,0,0,1-3-1.226,5.018,5.018,0,0,1-1.09-3.45,4.921,4.921,0,0,1,1.191-3.423,3.819,3.819,0,0,1,2.958-1.323,3.384,3.384,0,0,1,2.733,1.143,4.764,4.764,0,0,1,.967,3.173Zm-1.477-1.222a2.933,2.933,0,0,0-.6-1.942A2.051,2.051,0,0,0,82.967,38a2.328,2.328,0,0,0-1.731.729,3.31,3.31,0,0,0-.879,1.907ZM100.883,37,97.3,46H95.882l-3.41-9h1.582l2.285,6.539a5.869,5.869,0,0,1,.316,1.257h.035a5.943,5.943,0,0,1,.281-1.222L99.363,37Zm2.287-2.285a.913.913,0,0,1-.659-.264.89.89,0,0,1-.272-.668.923.923,0,0,1,.932-.94.931.931,0,0,1,.672.268.939.939,0,0,1,0,1.332A.923.923,0,0,1,103.17,34.715Zm.7,11.285h-1.441V37h1.441Zm10.6,0h-1.441V44.471H113a3.327,3.327,0,0,1-3.094,1.74A3.362,3.362,0,0,1,107.193,45a4.958,4.958,0,0,1-1.015-3.292,5.394,5.394,0,0,1,1.125-3.577,3.71,3.71,0,0,1,3-1.345,2.885,2.885,0,0,1,2.7,1.459h.035V32.676h1.441Zm-1.441-4.069V40.6a2.575,2.575,0,0,0-.721-1.846A2.417,2.417,0,0,0,110.484,38a2.489,2.489,0,0,0-2.074.967,4.237,4.237,0,0,0-.756,2.672,3.81,3.81,0,0,0,.725,2.457,2.37,2.37,0,0,0,1.947.9,2.462,2.462,0,0,0,1.956-.87A3.242,3.242,0,0,0,113.033,41.931ZM123.837,46H122.4V44.594h-.035a3.018,3.018,0,0,1-2.769,1.617,2.959,2.959,0,0,1-2.1-.712,2.466,2.466,0,0,1-.76-1.89q0-2.522,2.971-2.936l2.7-.378Q122.4,38,120.541,38a4.431,4.431,0,0,0-2.936,1.107V37.633a5.577,5.577,0,0,1,3.059-.844q3.173,0,3.173,3.357ZM122.4,41.447l-2.171.3a3.525,3.525,0,0,0-1.512.5,1.432,1.432,0,0,0-.51,1.261,1.374,1.374,0,0,0,.47,1.077,1.817,1.817,0,0,0,1.252.417,2.314,2.314,0,0,0,1.771-.751,2.685,2.685,0,0,0,.7-1.9Z" transform="translate(970 4373)" fill="#212429"/>
    <g transform="matrix(1, 0, 0, 1, 171, 4078)" filter="url(#Trazado_1004441)">
      <path id="Trazado_1004441-2" data-name="Trazado 1004441" d="M10,0H134a10,10,0,0,1,10,10V71a10,10,0,0,1-10,10H10A10,10,0,0,1,0,71V10A10,10,0,0,1,10,0Z" transform="translate(948 279)" fill="#c1f0fa"/>
    </g>
    <path id="Trazado_1004442" data-name="Trazado 1004442" d="M6.561,14.236V19H5.084V6.4H8.547a4.571,4.571,0,0,1,3.133.984,3.515,3.515,0,0,1,1.112,2.777,3.82,3.82,0,0,1-1.235,2.936,4.718,4.718,0,0,1-3.335,1.143Zm0-6.5V12.9H8.108a3.458,3.458,0,0,0,2.333-.7,2.474,2.474,0,0,0,.8-1.973q0-2.5-2.953-2.5Zm13.106,3.727a1.763,1.763,0,0,0-1.09-.29,1.839,1.839,0,0,0-1.542.87,4.023,4.023,0,0,0-.62,2.373V19H14.974V10h1.441v1.854h.035a3.143,3.143,0,0,1,.94-1.481,2.144,2.144,0,0,1,1.415-.532,2.353,2.353,0,0,1,.861.123ZM25,19.211a4.175,4.175,0,0,1-3.186-1.261,4.672,4.672,0,0,1-1.191-3.344,4.867,4.867,0,0,1,1.239-3.542,4.455,4.455,0,0,1,3.349-1.274,4.037,4.037,0,0,1,3.142,1.239,4.914,4.914,0,0,1,1.129,3.437,4.835,4.835,0,0,1-1.217,3.45A4.265,4.265,0,0,1,25,19.211ZM25.1,11a2.742,2.742,0,0,0-2.2.945,3.88,3.88,0,0,0-.809,2.606,3.67,3.67,0,0,0,.817,2.522A2.778,2.778,0,0,0,25.1,18a2.635,2.635,0,0,0,2.149-.905A3.928,3.928,0,0,0,28,14.518a4,4,0,0,0-.751-2.6A2.623,2.623,0,0,0,25.1,11Zm10.856,7.91a2.779,2.779,0,0,1-1.345.281q-2.364,0-2.364-2.637V11.23H30.7V10h1.547V7.8l1.441-.466V10h2.268v1.23H33.689V16.3A2.1,2.1,0,0,0,34,17.594a1.228,1.228,0,0,0,1.02.387,1.515,1.515,0,0,0,.94-.3Zm9.16-4.052H38.762a3.366,3.366,0,0,0,.809,2.32A2.788,2.788,0,0,0,41.7,18a4.422,4.422,0,0,0,2.795-1V18.35a5.224,5.224,0,0,1-3.138.861,3.8,3.8,0,0,1-3-1.226,5.018,5.018,0,0,1-1.09-3.45,4.921,4.921,0,0,1,1.191-3.423,3.819,3.819,0,0,1,2.958-1.323,3.384,3.384,0,0,1,2.733,1.143,4.764,4.764,0,0,1,.967,3.173ZM43.64,13.639a2.933,2.933,0,0,0-.6-1.942A2.051,2.051,0,0,0,41.39,11a2.328,2.328,0,0,0-1.731.729,3.31,3.31,0,0,0-.879,1.907Zm9.793,4.948a4.684,4.684,0,0,1-2.461.624,4.074,4.074,0,0,1-3.107-1.252,4.539,4.539,0,0,1-1.182-3.248,4.99,4.99,0,0,1,1.274-3.573,4.458,4.458,0,0,1,3.4-1.349,4.735,4.735,0,0,1,2.092.439v1.477a3.665,3.665,0,0,0-2.145-.7,2.9,2.9,0,0,0-2.263.989,3.752,3.752,0,0,0-.883,2.6,3.573,3.573,0,0,0,.831,2.5A2.863,2.863,0,0,0,51.218,18a3.613,3.613,0,0,0,2.215-.782Zm8.316,0a4.684,4.684,0,0,1-2.461.624,4.074,4.074,0,0,1-3.107-1.252A4.539,4.539,0,0,1,55,14.711a4.99,4.99,0,0,1,1.274-3.573,4.458,4.458,0,0,1,3.4-1.349,4.735,4.735,0,0,1,2.092.439v1.477a3.665,3.665,0,0,0-2.145-.7,2.9,2.9,0,0,0-2.263.989,3.752,3.752,0,0,0-.883,2.6,3.573,3.573,0,0,0,.831,2.5A2.863,2.863,0,0,0,59.534,18a3.613,3.613,0,0,0,2.215-.782Zm2.92-10.872a.913.913,0,0,1-.659-.264.89.89,0,0,1-.272-.668.923.923,0,0,1,.932-.94.931.931,0,0,1,.672.268.939.939,0,0,1,0,1.332A.923.923,0,0,1,64.669,7.715ZM65.372,19H63.931V10h1.441Zm6.681.211a4.175,4.175,0,0,1-3.186-1.261,4.672,4.672,0,0,1-1.191-3.344,4.867,4.867,0,0,1,1.239-3.542,4.455,4.455,0,0,1,3.349-1.274,4.037,4.037,0,0,1,3.142,1.239,4.914,4.914,0,0,1,1.129,3.437,4.835,4.835,0,0,1-1.217,3.45A4.265,4.265,0,0,1,72.054,19.211ZM72.159,11a2.742,2.742,0,0,0-2.2.945,3.88,3.88,0,0,0-.809,2.606,3.67,3.67,0,0,0,.817,2.522A2.778,2.778,0,0,0,72.159,18a2.635,2.635,0,0,0,2.149-.905,3.928,3.928,0,0,0,.751-2.575,4,4,0,0,0-.751-2.6A2.623,2.623,0,0,0,72.159,11Zm2.109-5.59-2.3,2.883H70.85l1.96-2.883ZM86.311,19H84.87V13.867Q84.87,11,82.778,11a2.269,2.269,0,0,0-1.789.813,3.013,3.013,0,0,0-.708,2.052V19H78.841V10h1.441v1.494h.035A3.248,3.248,0,0,1,83.27,9.789a2.753,2.753,0,0,1,2.259.954,4.248,4.248,0,0,1,.782,2.755ZM13.984,46H12.543V44.594h-.035a3.018,3.018,0,0,1-2.769,1.617,2.959,2.959,0,0,1-2.1-.712,2.466,2.466,0,0,1-.76-1.89q0-2.522,2.971-2.936l2.7-.378Q12.543,38,10.688,38a4.431,4.431,0,0,0-2.936,1.107V37.633a5.577,5.577,0,0,1,3.059-.844q3.173,0,3.173,3.357Zm-1.441-4.553-2.171.3a3.525,3.525,0,0,0-1.512.5A1.432,1.432,0,0,0,8.35,43.5a1.374,1.374,0,0,0,.47,1.077A1.817,1.817,0,0,0,10.073,45a2.314,2.314,0,0,0,1.771-.751,2.685,2.685,0,0,0,.7-1.9ZM29.481,46H28.04V40.832a3.9,3.9,0,0,0-.461-2.162A1.75,1.75,0,0,0,26.027,38a1.921,1.921,0,0,0-1.569.844,3.228,3.228,0,0,0-.646,2.021V46H22.371V40.656Q22.371,38,20.323,38a1.9,1.9,0,0,0-1.564.8,3.288,3.288,0,0,0-.615,2.07V46H16.7V37h1.441v1.424h.035a3.058,3.058,0,0,1,2.795-1.635,2.6,2.6,0,0,1,2.549,1.863,3.212,3.212,0,0,1,2.988-1.863q2.971,0,2.971,3.665Zm4.2-1.3h-.035V46H32.207V32.676h1.441v5.906h.035A3.408,3.408,0,0,1,36.8,36.789,3.3,3.3,0,0,1,39.507,38a4.99,4.99,0,0,1,.98,3.239,5.578,5.578,0,0,1-1.1,3.617,3.658,3.658,0,0,1-3.006,1.358A2.96,2.96,0,0,1,33.684,44.7Zm-.035-3.63v1.257a2.676,2.676,0,0,0,.725,1.894A2.587,2.587,0,0,0,38.267,44a4.6,4.6,0,0,0,.743-2.786,3.629,3.629,0,0,0-.694-2.355A2.3,2.3,0,0,0,36.435,38a2.554,2.554,0,0,0-2.021.875A3.211,3.211,0,0,0,33.649,41.069Zm9.881-6.354a.913.913,0,0,1-.659-.264.89.89,0,0,1-.272-.668.923.923,0,0,1,.932-.94.931.931,0,0,1,.672.268.939.939,0,0,1,0,1.332A.923.923,0,0,1,43.529,34.715ZM44.233,46H42.791V37h1.441Zm10.153-4.14H48.031a3.366,3.366,0,0,0,.809,2.32A2.788,2.788,0,0,0,50.967,45a4.422,4.422,0,0,0,2.795-1V45.35a5.224,5.224,0,0,1-3.138.861,3.8,3.8,0,0,1-3-1.226,5.018,5.018,0,0,1-1.09-3.45,4.921,4.921,0,0,1,1.191-3.423,3.819,3.819,0,0,1,2.958-1.323,3.384,3.384,0,0,1,2.733,1.143,4.764,4.764,0,0,1,.967,3.173Zm-1.477-1.222a2.933,2.933,0,0,0-.6-1.942A2.051,2.051,0,0,0,50.659,38a2.328,2.328,0,0,0-1.731.729,3.31,3.31,0,0,0-.879,1.907ZM64.038,46H62.6V40.867Q62.6,38,60.5,38a2.269,2.269,0,0,0-1.789.813,3.013,3.013,0,0,0-.708,2.052V46H56.567V37h1.441v1.494h.035A3.248,3.248,0,0,1,61,36.789a2.753,2.753,0,0,1,2.259.954,4.248,4.248,0,0,1,.782,2.755Zm6.892-.088a2.779,2.779,0,0,1-1.345.281q-2.364,0-2.364-2.637V38.23H65.674V37h1.547V34.8l1.441-.466V37H70.93v1.23H68.663V43.3a2.1,2.1,0,0,0,.308,1.292,1.228,1.228,0,0,0,1.02.387,1.515,1.515,0,0,0,.94-.3ZM79.3,46H77.858V44.594h-.035a3.018,3.018,0,0,1-2.769,1.617,2.959,2.959,0,0,1-2.1-.712,2.466,2.466,0,0,1-.76-1.89q0-2.522,2.971-2.936l2.7-.378Q77.858,38,76,38a4.431,4.431,0,0,0-2.936,1.107V37.633a5.577,5.577,0,0,1,3.059-.844q3.173,0,3.173,3.357Zm-1.441-4.553-2.171.3a3.525,3.525,0,0,0-1.512.5,1.432,1.432,0,0,0-.51,1.261,1.374,1.374,0,0,0,.47,1.077A1.817,1.817,0,0,0,75.388,45a2.314,2.314,0,0,0,1.771-.751,2.685,2.685,0,0,0,.7-1.9ZM83.458,46H82.017V32.676h1.441Z" transform="translate(1146 4373)" fill="#212429"/>
    <g transform="matrix(1, 0, 0, 1, 171, 4078)" filter="url(#Trazado_1004443)">
      <path id="Trazado_1004443-2" data-name="Trazado 1004443" d="M10,0H134a10,10,0,0,1,10,10V71a10,10,0,0,1-10,10H10A10,10,0,0,1,0,71V10A10,10,0,0,1,10,0Z" transform="translate(1105 279)" fill="#c1f0fa"/>
    </g>
    <path id="Trazado_1004444" data-name="Trazado 1004444" d="M12.213,18.473a7.392,7.392,0,0,1-3.48.738,5.613,5.613,0,0,1-4.307-1.731,6.389,6.389,0,0,1-1.617-4.544A6.7,6.7,0,0,1,4.628,8.049,6.175,6.175,0,0,1,9.243,6.186a7.4,7.4,0,0,1,2.971.519V8.277a6.024,6.024,0,0,0-2.988-.756,4.585,4.585,0,0,0-3.52,1.45,5.463,5.463,0,0,0-1.349,3.876,5.2,5.2,0,0,0,1.261,3.669,4.292,4.292,0,0,0,3.309,1.367,6.208,6.208,0,0,0,3.287-.844Zm6.137.738a4.175,4.175,0,0,1-3.186-1.261,4.672,4.672,0,0,1-1.191-3.344,4.867,4.867,0,0,1,1.239-3.542,4.455,4.455,0,0,1,3.349-1.274A4.037,4.037,0,0,1,21.7,11.028a4.914,4.914,0,0,1,1.129,3.437,4.835,4.835,0,0,1-1.217,3.45A4.265,4.265,0,0,1,18.35,19.211ZM18.455,11a2.742,2.742,0,0,0-2.2.945,3.88,3.88,0,0,0-.809,2.606,3.67,3.67,0,0,0,.817,2.522A2.778,2.778,0,0,0,18.455,18a2.635,2.635,0,0,0,2.149-.905,3.928,3.928,0,0,0,.751-2.575,4,4,0,0,0-.751-2.6A2.623,2.623,0,0,0,18.455,11Zm14.152,8H31.166V13.814Q31.166,11,29.074,11a2.28,2.28,0,0,0-1.775.813,3.03,3.03,0,0,0-.721,2.087V19H25.137V5.676h1.441v5.818h.035a3.273,3.273,0,0,1,2.953-1.705q3.041,0,3.041,3.665Zm9.951-4.14H36.2a3.366,3.366,0,0,0,.809,2.32A2.788,2.788,0,0,0,39.14,18a4.422,4.422,0,0,0,2.795-1V18.35a5.224,5.224,0,0,1-3.138.861,3.8,3.8,0,0,1-3-1.226,5.018,5.018,0,0,1-1.09-3.45A4.921,4.921,0,0,1,35.9,11.112a3.819,3.819,0,0,1,2.958-1.323,3.384,3.384,0,0,1,2.733,1.143,4.764,4.764,0,0,1,.967,3.173Zm-1.477-1.222a2.933,2.933,0,0,0-.6-1.942A2.051,2.051,0,0,0,38.832,11a2.328,2.328,0,0,0-1.731.729,3.31,3.31,0,0,0-.879,1.907ZM44.2,18.675V17.128a4.266,4.266,0,0,0,2.593.87q1.9,0,1.9-1.266a1.1,1.1,0,0,0-.163-.611,1.62,1.62,0,0,0-.439-.444,3.383,3.383,0,0,0-.65-.347q-.374-.154-.8-.321a10.357,10.357,0,0,1-1.05-.479,3.173,3.173,0,0,1-.756-.545,2.028,2.028,0,0,1-.457-.69,2.441,2.441,0,0,1-.154-.905,2.15,2.15,0,0,1,.29-1.121,2.572,2.572,0,0,1,.773-.817,3.607,3.607,0,0,1,1.1-.5,4.893,4.893,0,0,1,1.279-.167,5.164,5.164,0,0,1,2.092.4v1.459A4.077,4.077,0,0,0,47.465,11a2.671,2.671,0,0,0-.729.092,1.786,1.786,0,0,0-.558.259,1.2,1.2,0,0,0-.36.4,1.053,1.053,0,0,0-.127.514,1.233,1.233,0,0,0,.127.589,1.3,1.3,0,0,0,.374.422,2.855,2.855,0,0,0,.6.334q.352.149.8.325a11.131,11.131,0,0,1,1.072.47,3.678,3.678,0,0,1,.809.545,2.129,2.129,0,0,1,.514.7,2.254,2.254,0,0,1,.18.94,2.217,2.217,0,0,1-.294,1.16,2.523,2.523,0,0,1-.787.817,3.6,3.6,0,0,1-1.134.483,5.6,5.6,0,0,1-1.345.158A5.106,5.106,0,0,1,44.2,18.675Zm8.923-10.96a.913.913,0,0,1-.659-.264.89.89,0,0,1-.272-.668.923.923,0,0,1,.932-.94.931.931,0,0,1,.672.268.939.939,0,0,1,0,1.332A.923.923,0,0,1,53.118,7.715ZM53.821,19H52.38V10h1.441Zm6.681.211a4.175,4.175,0,0,1-3.186-1.261,4.672,4.672,0,0,1-1.191-3.344,4.867,4.867,0,0,1,1.239-3.542,4.455,4.455,0,0,1,3.349-1.274,4.037,4.037,0,0,1,3.142,1.239,4.914,4.914,0,0,1,1.129,3.437,4.835,4.835,0,0,1-1.217,3.45A4.265,4.265,0,0,1,60.5,19.211ZM60.608,11a2.742,2.742,0,0,0-2.2.945,3.88,3.88,0,0,0-.809,2.606,3.67,3.67,0,0,0,.817,2.522A2.778,2.778,0,0,0,60.608,18a2.635,2.635,0,0,0,2.149-.905,3.928,3.928,0,0,0,.751-2.575,4,4,0,0,0-.751-2.6A2.623,2.623,0,0,0,60.608,11Zm2.109-5.59-2.3,2.883H59.3l1.96-2.883ZM74.76,19H73.319V13.867Q73.319,11,71.227,11a2.269,2.269,0,0,0-1.789.813,3.013,3.013,0,0,0-.708,2.052V19H67.29V10h1.441v1.494h.035a3.248,3.248,0,0,1,2.953-1.705,2.753,2.753,0,0,1,2.259.954A4.248,4.248,0,0,1,74.76,13.5ZM17.722,45.675V44.128a4.266,4.266,0,0,0,2.593.87q1.9,0,1.9-1.266a1.1,1.1,0,0,0-.163-.611,1.62,1.62,0,0,0-.439-.444,3.383,3.383,0,0,0-.65-.347q-.374-.154-.8-.321a10.357,10.357,0,0,1-1.05-.479,3.173,3.173,0,0,1-.756-.545,2.028,2.028,0,0,1-.457-.69,2.441,2.441,0,0,1-.154-.905,2.15,2.15,0,0,1,.29-1.121,2.572,2.572,0,0,1,.773-.817,3.607,3.607,0,0,1,1.1-.5,4.893,4.893,0,0,1,1.279-.167,5.164,5.164,0,0,1,2.092.4v1.459A4.077,4.077,0,0,0,20.991,38a2.671,2.671,0,0,0-.729.092,1.786,1.786,0,0,0-.558.259,1.2,1.2,0,0,0-.36.4,1.053,1.053,0,0,0-.127.514,1.233,1.233,0,0,0,.127.589,1.3,1.3,0,0,0,.374.422,2.855,2.855,0,0,0,.6.334q.352.149.8.325a11.131,11.131,0,0,1,1.072.47,3.678,3.678,0,0,1,.809.545,2.129,2.129,0,0,1,.514.7,2.254,2.254,0,0,1,.18.94,2.217,2.217,0,0,1-.294,1.16,2.523,2.523,0,0,1-.787.817,3.6,3.6,0,0,1-1.134.483,5.6,5.6,0,0,1-1.345.158A5.106,5.106,0,0,1,17.722,45.675Zm11.946.536a4.175,4.175,0,0,1-3.186-1.261,4.672,4.672,0,0,1-1.191-3.344,4.867,4.867,0,0,1,1.239-3.542,4.455,4.455,0,0,1,3.349-1.274,4.037,4.037,0,0,1,3.142,1.239,4.914,4.914,0,0,1,1.129,3.437,4.835,4.835,0,0,1-1.217,3.45A4.265,4.265,0,0,1,29.668,46.211ZM29.773,38a2.742,2.742,0,0,0-2.2.945,3.88,3.88,0,0,0-.809,2.606,3.67,3.67,0,0,0,.817,2.522A2.778,2.778,0,0,0,29.773,45a2.635,2.635,0,0,0,2.149-.905,3.928,3.928,0,0,0,.751-2.575,4,4,0,0,0-.751-2.6A2.623,2.623,0,0,0,29.773,38Zm12.816,7.585a4.684,4.684,0,0,1-2.461.624,4.074,4.074,0,0,1-3.107-1.252,4.539,4.539,0,0,1-1.182-3.248,4.99,4.99,0,0,1,1.274-3.573,4.458,4.458,0,0,1,3.4-1.349,4.735,4.735,0,0,1,2.092.439v1.477a3.665,3.665,0,0,0-2.145-.7,2.9,2.9,0,0,0-2.263.989,3.752,3.752,0,0,0-.883,2.6,3.573,3.573,0,0,0,.831,2.5A2.863,2.863,0,0,0,40.375,45a3.613,3.613,0,0,0,2.215-.782Zm2.92-10.872a.913.913,0,0,1-.659-.264.89.89,0,0,1-.272-.668.923.923,0,0,1,.932-.94.931.931,0,0,1,.672.268.939.939,0,0,1,0,1.332A.923.923,0,0,1,45.509,34.715ZM46.212,46H44.771V37h1.441Zm9.362,0H54.133V44.594H54.1a3.018,3.018,0,0,1-2.769,1.617,2.959,2.959,0,0,1-2.1-.712,2.466,2.466,0,0,1-.76-1.89q0-2.522,2.971-2.936l2.7-.378Q54.133,38,52.279,38a4.431,4.431,0,0,0-2.936,1.107V37.633a5.577,5.577,0,0,1,3.059-.844q3.173,0,3.173,3.357Zm-1.441-4.553-2.171.3a3.525,3.525,0,0,0-1.512.5,1.432,1.432,0,0,0-.51,1.261,1.374,1.374,0,0,0,.47,1.077A1.817,1.817,0,0,0,51.663,45a2.314,2.314,0,0,0,1.771-.751,2.685,2.685,0,0,0,.7-1.9ZM59.734,46H58.292V32.676h1.441Z" transform="translate(1309 4373)" fill="#212429"/>
    <path id="Trazado_1002160" data-name="Trazado 1002160" d="M51.5,4197v-21.165H683v20.735" transform="translate(436 28)" fill="none" stroke="#1d7083" stroke-width="1"/>
    <path id="Trazado_1002161" data-name="Trazado 1002161" d="M51.5,4193.31v-17.475h470v17.12" transform="translate(201 164.69)" fill="none" stroke="#1d7083" stroke-width="1"/>
    <path id="Trazado_1002162" data-name="Trazado 1002162" d="M51.5,4193.31v-17.475h470v17.12" transform="translate(826.5 164.69)" fill="none" stroke="#1d7083" stroke-width="1"/>
    <path id="Trazado_1002163" data-name="Trazado 1002163" d="M4.5,4290v22.525" transform="translate(483 28)" fill="none" stroke="#1d7083" stroke-width="1"/>
    <path id="Trazado_1002164" data-name="Trazado 1002164" d="M4.5,4290v16.475" transform="translate(403.5 50.525)" fill="none" stroke="#1d7083" stroke-width="1"/>
    <path id="Trazado_1002165" data-name="Trazado 1002165" d="M163.5,4290v16.475" transform="translate(403.5 50.525)" fill="none" stroke="#1d7083" stroke-width="1"/>
    <path id="Trazado_1002166" data-name="Trazado 1002166" d="M636,4290v22.525" transform="translate(483 28)" fill="none" stroke="#1d7083" stroke-width="1"/>
    <path id="Trazado_1002167" data-name="Trazado 1002167" d="M632,4290v16.475" transform="translate(403.5 50.525)" fill="none" stroke="#1d7083" stroke-width="1"/>
    <path id="Trazado_1002168" data-name="Trazado 1002168" d="M788,4290v16.475" transform="translate(403.5 50.525)" fill="none" stroke="#1d7083" stroke-width="1"/>
    <path id="Trazado_1002169" data-name="Trazado 1002169" d="M5.5,4290v26.835" transform="translate(796 -113)" fill="none" stroke="#1d7083" stroke-width="1"/>
    <path id="Trazado_1002170" data-name="Trazado 1002170" d="M80.648,198.58v17.172a1.973,1.973,0,0,1-1.972,1.972H38.767V234A1.971,1.971,0,0,1,35.4,235.4L8.566,208.561a1.971,1.971,0,0,1,0-2.788L35.4,178.938a1.971,1.971,0,0,1,3.366,1.393v16.277h39.91a1.972,1.972,0,0,1,1.972,1.972Zm0,0" transform="translate(753.052 4078.152)" fill="#ffc77c"/>
    <path id="Trazado_1002171" data-name="Trazado 1002171" d="M390.328,283.643v17.172a1.973,1.973,0,0,1-1.972,1.972h-4.24a1.973,1.973,0,0,0,1.972-1.972V283.643a1.972,1.972,0,0,0-1.972-1.972h4.24A1.972,1.972,0,0,1,390.328,283.643Zm0,0" transform="translate(443.372 3993.089)" fill="#ff9d1c"/>
    <path id="Trazado_1002172" data-name="Trazado 1002172" d="M295.178,281.672,284.7,292.147a4.583,4.583,0,0,1-3.254,1.357,4.635,4.635,0,0,1-4.636-4.625v-7.207Zm0,0" transform="translate(531.719 3993.089)" fill="#ff9d1c"/>
    <path id="Trazado_1002173" data-name="Trazado 1002173" d="M126.825,37.69,99.99,64.525a1.972,1.972,0,0,1-3.366-1.394V46.854H56.715a1.972,1.972,0,0,1-1.972-1.972V27.71a1.972,1.972,0,0,1,1.972-1.972h39.91V9.461A1.971,1.971,0,0,1,99.99,8.067L126.825,34.9a1.971,1.971,0,0,1,0,2.788Zm0,0" transform="translate(714.557 4218.837)" fill="#65bafc"/>
    <path id="Trazado_1002174" data-name="Trazado 1002174" d="M322.014,37.69,295.179,64.525a1.972,1.972,0,0,1-3.366-1.394V62L317.519,36.3,291.813,10.59V9.461a1.971,1.971,0,0,1,3.366-1.394L322.014,34.9a1.971,1.971,0,0,1,0,2.788Zm0,0" transform="translate(519.369 4218.837)" fill="#0097fa"/>
    <path id="Trazado_1002175" data-name="Trazado 1002175" d="M111.625,167.98v7.207H93.262l10.475-10.475a4.576,4.576,0,0,1,3.252-1.357,4.635,4.635,0,0,1,4.636,4.625Zm0,0" transform="translate(682.843 4090.504)" fill="#0097fa"/>
    <path id="Trazado_1002176" data-name="Trazado 1002176" d="M114.362,190.13v-9.8A1.971,1.971,0,0,0,111,178.938L99.8,190.13Zm0,0" transform="translate(677.456 4078.152)" fill="#ff9d1c"/>
    <path id="Trazado_1002177" data-name="Trazado 1002177" d="M83.1,27.8,56.265.968A3.3,3.3,0,0,0,50.639,3.3V18.251H12.053a3.3,3.3,0,0,0-3.3,3.3V38.721a3.3,3.3,0,0,0,3.3,3.3h5.383L1.462,57.99a3.3,3.3,0,0,0,0,4.661l7.932,7.932a1.325,1.325,0,1,0,1.874-1.874L3.336,60.777a.647.647,0,0,1,0-.914L30.172,33.028a.646.646,0,0,1,1.1.457V49.762A1.324,1.324,0,0,0,32.6,51.087h7.752a1.325,1.325,0,1,0,0-2.65H33.924V42.017H50.639v6.421H46.45a1.325,1.325,0,1,0,0,2.65h4.189v5.882a3.295,3.295,0,0,0,5.626,2.33l8.212-8.212H72.51a.647.647,0,0,1,.646.646V68.907a.647.647,0,0,1-.646.646H32.6a1.324,1.324,0,0,0-1.325,1.325V87.155a.646.646,0,0,1-1.1.457L15.581,73.021a1.325,1.325,0,1,0-1.874,1.874L28.3,89.486a3.3,3.3,0,0,0,5.626-2.33V72.2H72.51a3.3,3.3,0,0,0,3.3-3.3V51.733a3.3,3.3,0,0,0-3.3-3.3H67.128l4.546-4.546A1.325,1.325,0,0,0,69.8,42.017L54.391,57.426a.645.645,0,0,1-1.1-.457V40.692a1.325,1.325,0,0,0-1.325-1.325H33.924V33.485a3.3,3.3,0,0,0-5.626-2.33l-8.212,8.212H12.053a.647.647,0,0,1-.646-.646V21.547a.647.647,0,0,1,.646-.646H51.964a1.324,1.324,0,0,0,1.325-1.325V3.3a.646.646,0,0,1,1.1-.456L81.226,29.677a.646.646,0,0,1,0,.913L74.112,37.7a1.325,1.325,0,0,0,1.874,1.874L83.1,32.464a3.3,3.3,0,0,0,0-4.661Zm0,0" transform="translate(759.219 4224.999)"/>
  </g>
</svg>
